0
SECTION
2
HEADER
9
$INSUNITS
70
4
9
$ACADVER
1
AC1014
9
$HANDSEED
5
FFFF
0
ENDSEC
0
SECTION
2
TABLES
0
TABLE
2
VPORT
5
8
100
AcDbSymbolTable
0
ENDTAB
0
TABLE
2
LTYPE
5
5
100
AcDbSymbolTable
0
LTYPE
5
14
100
AcDbSymbolTableRecord
100
AcDbLinetypeTableRecord
2
BYBLOCK
70
0
0
LTYPE
5
15
100
AcDbSymbolTableRecord
100
AcDbLinetypeTableRecord
2
BYLAYER
70
0
0
LTYPE
5
16
100
AcDbSymbolTableRecord
100
AcDbLinetypeTableRecord
2
DASHED
70
0
3
Dashed __ __ __ __ __ __ __ __ __ __ __ __ __ _
72
65
73
2
40
0.75
49
0.5
74
0
49
-0.25
74
0
0
ENDTAB
0
TABLE
2
LAYER
5
2
100
AcDbSymbolTable
70
2
0
LAYER
5
50
100
AcDbSymbolTableRecord
100
AcDbLayerTableRecord
2
0
70
0
62
7
6
CONTINUOUS
0
ENDTAB
0
TABLE
2
STYLE
5
3
100
AcDbSymbolTable
70
1
0
STYLE
5
11
100
AcDbSymbolTableRecord
100
AcDbTextStyleTableRecord
2
STANDARD
70
0
0
ENDTAB
0
TABLE
2
VIEW
5
6
100
AcDbSymbolTable
70
0
0
ENDTAB
0
TABLE
2
UCS
5
7
100
AcDbSymbolTable
70
0
0
ENDTAB
0
TABLE
2
APPID
5
9
100
AcDbSymbolTable
70
2
0
APPID
5
12
100
AcDbSymbolTableRecord
100
AcDbRegAppTableRecord
2
ACAD
70
0
0
ENDTAB
0
TABLE
2
DIMSTYLE
5
A
100
AcDbSymbolTable
70
1
0
ENDTAB
0
TABLE
2
BLOCK_RECORD
5
1
100
AcDbSymbolTable
70
1
0
BLOCK_RECORD
5
1F
100
AcDbSymbolTableRecord
100
AcDbBlockTableRecord
2
*MODEL_SPACE
0
BLOCK_RECORD
5
1B
100
AcDbSymbolTableRecord
100
AcDbBlockTableRecord
2
*PAPER_SPACE
0
ENDTAB
0
ENDSEC
0
SECTION
2
BLOCKS
0
BLOCK
5
20
100
AcDbEntity
100
AcDbBlockBegin
2
*MODEL_SPACE
0
ENDBLK
5
21
100
AcDbEntity
100
AcDbBlockEnd
0
BLOCK
5
1C
100
AcDbEntity
100
AcDbBlockBegin
2
*PAPER_SPACE
0
ENDBLK
5
1D
100
AcDbEntity
100
AcDbBlockEnd
0
ENDSEC
0
SECTION
2
ENTITIES
0
POINT
5
100
100
AcDbEntity
8
0
100
AcDbPoint
10
10
20
-260.00000387430191
30
0
0
POINT
5
101
100
AcDbEntity
8
0
100
AcDbPoint
10
10
20
-260.00000387430191
30
0
0
POINT
5
102
100
AcDbEntity
8
0
100
AcDbPoint
10
-85.500001266598701
20
-304.60000454485419
30
0
0
POINT
5
103
100
AcDbEntity
8
0
100
AcDbPoint
10
-91.000000938773155
20
-299.00000397861004
30
0
0
POINT
5
104
100
AcDbEntity
8
0
100
AcDbPoint
10
-80.000000774860382
20
-299.00000397861004
30
0
0
POINT
5
105
100
AcDbEntity
8
0
100
AcDbPoint
10
-80.000000774860382
20
-310.00000414252281
30
0
0
POINT
5
106
100
AcDbEntity
8
0
100
AcDbPoint
10
-54.500000819563859
20
-304.60000454485419
30
0
0
POINT
5
107
100
AcDbEntity
8
0
100
AcDbPoint
10
-49.000001147389405
20
-299.00000397861004
30
0
0
POINT
5
108
100
AcDbEntity
8
0
100
AcDbPoint
10
-60.000001311302178
20
-310.00000414252281
30
0
0
POINT
5
109
100
AcDbEntity
8
0
100
AcDbPoint
10
-60.000001311302178
20
-299.00000397861004
30
0
0
POINT
5
110
100
AcDbEntity
8
0
100
AcDbPoint
10
-88.500002533197403
20
-30.00000387430191
30
0
0
POINT
5
111
100
AcDbEntity
8
0
100
AcDbPoint
10
-94.50000262260437
20
102.99999821186066
30
0
0
POINT
5
112
100
AcDbEntity
8
0
100
AcDbPoint
10
-94.50000262260437
20
-147.0000055134297
30
0
0
POINT
5
113
100
AcDbEntity
8
0
100
AcDbPoint
10
88.499997466802611
20
-30.00000387430191
30
0
0
POINT
5
114
100
AcDbEntity
8
0
100
AcDbPoint
10
94.499997556209578
20
102.99999821186066
30
0
0
POINT
5
115
100
AcDbEntity
8
0
100
AcDbPoint
10
94.499997556209578
20
-147.0000055134297
30
0
0
POINT
5
116
100
AcDbEntity
8
0
100
AcDbPoint
10
-300
20
0
30
0
0
POINT
5
117
100
AcDbEntity
8
0
100
AcDbPoint
10
-394.50000447034904
20
230.00000216066721
30
0
0
POINT
5
118
100
AcDbEntity
8
0
100
AcDbPoint
10
-205.50000447034833
20
230.00000216066724
30
0
0
POINT
5
119
100
AcDbEntity
8
0
100
AcDbPoint
10
-205.50000244379044
20
132.99999821186066
30
0
0
POINT
5
120
100
AcDbEntity
8
0
100
AcDbPoint
10
-394.50000262260437
20
132.99999821186066
30
0
0
POINT
5
121
100
AcDbEntity
8
0
100
AcDbPoint
10
-300.00000447034836
20
169.50000248849392
30
0
0
POINT
5
122
100
AcDbEntity
8
0
100
AcDbPoint
10
-300.00000447034836
20
169.50000248849392
30
0
0
POINT
5
123
100
AcDbEntity
8
0
100
AcDbPoint
10
-220.00000447034836
20
169.50000248849392
30
0
0
POINT
5
124
100
AcDbEntity
8
0
100
AcDbPoint
10
-220.00000447034836
20
169.50000248849392
30
0
0
POINT
5
125
100
AcDbEntity
8
0
100
AcDbPoint
10
-380.00000447034836
20
169.50000248849392
30
0
0
POINT
5
126
100
AcDbEntity
8
0
100
AcDbPoint
10
-380.00000447034836
20
169.50000248849392
30
0
0
POINT
5
127
100
AcDbEntity
8
0
100
AcDbPoint
10
-300.00000447034836
20
-341.50000461936003
30
0
0
POINT
5
128
100
AcDbEntity
8
0
100
AcDbPoint
10
-300.00000447034836
20
-341.50000461936003
30
0
0
POINT
5
129
100
AcDbEntity
8
0
100
AcDbPoint
10
-300.00000447034836
20
-341.50000461936003
30
0
0
POINT
5
130
100
AcDbEntity
8
0
100
AcDbPoint
10
-88.500002533197403
20
-30.00000387430191
30
0
0
POINT
5
131
100
AcDbEntity
8
0
100
AcDbPoint
10
88.499997466802611
20
-30.00000387430191
30
0
0
POINT
5
132
100
AcDbEntity
8
0
100
AcDbPoint
10
0
20
0
30
0
0
POINT
5
133
100
AcDbEntity
8
0
100
AcDbPoint
10
-300.00000566244125
20
110.50000213086605
30
0
0
POINT
5
134
100
AcDbEntity
8
0
100
AcDbPoint
10
-325.00000447034836
20
283.50000466406345
30
0
0
POINT
5
135
100
AcDbEntity
8
0
100
AcDbPoint
10
-325.00000447034836
20
283.50000466406345
30
0
0
POINT
5
136
100
AcDbEntity
8
0
100
AcDbPoint
10
-275.00000447034836
20
283.50000466406345
30
0
0
POINT
5
137
100
AcDbEntity
8
0
100
AcDbPoint
10
-275.00000447034836
20
283.50000466406345
30
0
0
POINT
5
138
100
AcDbEntity
8
0
100
AcDbPoint
10
-300.00000447034836
20
196.00000292062759
30
0
0
POINT
5
139
100
AcDbEntity
8
0
100
AcDbPoint
10
-186.00000277161598
20
103.00000160932541
30
0
0
POINT
5
140
100
AcDbEntity
8
0
100
AcDbPoint
10
-186.00000277161598
20
-147.0000021904707
30
0
0
POINT
5
141
100
AcDbEntity
8
0
100
AcDbPoint
10
-154.00000259280205
20
103.00000160932541
30
0
0
POINT
5
142
100
AcDbEntity
8
0
100
AcDbPoint
10
-154.00000259280205
20
-147.0000021904707
30
0
0
POINT
5
143
100
AcDbEntity
8
0
100
AcDbPoint
10
180.00000268220901
20
50.00000074505806
30
0
0
POINT
5
144
100
AcDbEntity
8
0
100
AcDbPoint
10
180.00000268220901
20
50.00000074505806
30
0
0
CIRCLE
5
145
100
AcDbEntity
8
0
100
AcDbCircle
10
10
20
-260.00000387430191
30
0
40
1.5000000000000113
210
0
220
0
230
1
0
CIRCLE
5
146
100
AcDbEntity
8
0
100
AcDbCircle
10
50.000000000000007
20
-260.00000387430191
30
0
40
1.5000000000000113
210
0
220
0
230
1
0
CIRCLE
5
147
100
AcDbEntity
8
0
100
AcDbCircle
10
70.000000000000014
20
-260.00000387430191
30
0
40
1.5000000000000113
210
0
220
0
230
1
0
CIRCLE
5
148
100
AcDbEntity
8
0
100
AcDbCircle
10
-70
20
-260.00000387430191
30
0
40
1.5000000000000113
210
0
220
0
230
1
0
CIRCLE
5
149
100
AcDbEntity
8
0
100
AcDbCircle
10
-50
20
-260.00000387430191
30
0
40
1.5000000000000113
210
0
220
0
230
1
0
LWPOLYLINE
5
150
100
AcDbEntity
8
0
100
AcDbPolyline
90
16
70
1
43
0.0
10
-95.00000111758709
20
-254.00000378489494
10
95.00000111758709
20
-254.00000378489494
42
-0.41421356237309503
10
100.00000111758709
20
-259.00000378489494
10
100.00000111758709
20
-279.00000423192978
42
-0.41421356237309503
10
95.00000111758709
20
-284.00000423192978
10
77.00000070035459
20
-284.00000423192978
42
-0.41421356237309453
10
72.00000070035459
20
-279.00000423192978
10
72.000000700354576
20
-271.00000396370888
42
0.41421356237309453
10
67.00000070035459
20
-266.00000396370888
10
-67.000000700354576
20
-266.00000396370888
42
0.41421356237309453
10
-72.000000700354562
20
-271.00000396370888
10
-72.00000070035459
20
-279.00000423192978
42
-0.41421356237309453
10
-77.000000700354576
20
-284.00000423192978
10
-95.00000111758709
20
-284.00000423192978
42
-0.41421356237309503
10
-100.00000111758709
20
-279.00000423192978
10
-100.00000111758709
20
-259.00000378489494
42
-0.41421356237309503
0
LINE
5
151
100
AcDbEntity
8
0
100
AcDbLine
10
100.00000111758709
20
-259.00000378489494
30
0
11
100.00000111758709
21
-266.00000396370888
31
0
0
CIRCLE
5
152
100
AcDbEntity
8
0
100
AcDbCircle
10
-81.000000834465027
20
-262.00000390410423
30
0
40
1.6000000000000032
210
0
220
0
230
1
0
CIRCLE
5
153
100
AcDbEntity
8
0
100
AcDbCircle
10
-96.000001057982445
20
-262.00000390410423
30
0
40
1.600000000000007
210
0
220
0
230
1
0
CIRCLE
5
154
100
AcDbEntity
8
0
100
AcDbCircle
10
-96.000001057982445
20
-272.00000405311584
30
0
40
1.5999999999999936
210
0
220
0
230
1
0
CIRCLE
5
155
100
AcDbEntity
8
0
100
AcDbCircle
10
-88.500000938773155
20
-267.00000397861004
30
0
40
1.5000000000000036
210
0
220
0
230
1
0
CIRCLE
5
156
100
AcDbEntity
8
0
100
AcDbCircle
10
-77.500000774860382
20
-267.00000397861004
30
0
40
1.5000000000000071
210
0
220
0
230
1
0
CIRCLE
5
157
100
AcDbEntity
8
0
100
AcDbCircle
10
-77.500000774860382
20
-278.00000414252281
30
0
40
1.4999999999999982
210
0
220
0
230
1
0
CIRCLE
5
158
100
AcDbEntity
8
0
100
AcDbCircle
10
77.500000774860382
20
-278.00000414252281
30
0
40
1.4999999999999982
210
0
220
0
230
1
0
CIRCLE
5
159
100
AcDbEntity
8
0
100
AcDbCircle
10
96.000001057982445
20
-272.00000405311584
30
0
40
1.5999999999999936
210
0
220
0
230
1
0
CIRCLE
5
160
100
AcDbEntity
8
0
100
AcDbCircle
10
81.000000834465027
20
-262.00000390410423
30
0
40
1.6000000000000032
210
0
220
0
230
1
0
CIRCLE
5
161
100
AcDbEntity
8
0
100
AcDbCircle
10
77.500000774860382
20
-267.00000397861004
30
0
40
1.5000000000000071
210
0
220
0
230
1
0
CIRCLE
5
162
100
AcDbEntity
8
0
100
AcDbCircle
10
88.500000938773155
20
-267.00000397861004
30
0
40
1.5000000000000036
210
0
220
0
230
1
0
CIRCLE
5
163
100
AcDbEntity
8
0
100
AcDbCircle
10
96.000001057982445
20
-262.00000390410423
30
0
40
1.600000000000007
210
0
220
0
230
1
0
CIRCLE
5
164
100
AcDbEntity
8
0
100
AcDbCircle
10
30.000000000000007
20
-260.00000387430191
30
0
40
1.5000000000000113
210
0
220
0
230
1
0
CIRCLE
5
165
100
AcDbEntity
8
0
100
AcDbCircle
10
-29.999999999999993
20
-260.00000387430191
30
0
40
1.5000000000000113
210
0
220
0
230
1
0
CIRCLE
5
166
100
AcDbEntity
8
0
100
AcDbCircle
10
-9.9999999999999911
20
-260.00000387430191
30
0
40
1.5000000000000113
210
0
220
0
230
1
0
CIRCLE
5
167
100
AcDbEntity
8
0
100
AcDbCircle
10
-91.000000938773155
20
-299.00000397861004
30
0
40
1.6000000000000003
210
0
220
0
230
1
0
CIRCLE
5
168
100
AcDbEntity
8
0
100
AcDbCircle
10
-80.000000774860382
20
-299.00000397861004
30
0
40
1.6000000000000003
210
0
220
0
230
1
0
CIRCLE
5
169
100
AcDbEntity
8
0
100
AcDbCircle
10
-80.000000774860382
20
-310.00000414252281
30
0
40
1.6000000000000003
210
0
220
0
230
1
0
LINE
5
170
100
AcDbEntity
8
0
100
AcDbLine
10
-96.500000610947595
20
-299.10000454485413
30
0
11
-96.500000610947595
21
-298.900003412366
31
0
0
LINE
5
171
100
AcDbEntity
8
0
100
AcDbLine
10
-91.000000610947609
20
-293.40000341236595
30
0
11
-85.500001266598701
21
-293.40000341236595
31
0
0
LINE
5
172
100
AcDbEntity
8
0
100
AcDbLine
10
-74.500000283122048
20
-304.60000454485419
30
0
11
-74.500000283122048
21
-298.90000341236595
31
0
0
LINE
5
173
100
AcDbEntity
8
0
100
AcDbLine
10
-80.000000283122063
20
-293.40000341236595
30
0
11
-85.500001266598701
21
-293.40000341236595
31
0
0
LINE
5
174
100
AcDbEntity
8
0
100
AcDbLine
10
-74.500000283122048
20
-304.60000454485419
30
0
11
-74.500000283122063
21
-309.90000374019144
31
0
0
LINE
5
175
100
AcDbEntity
8
0
100
AcDbLine
10
-85.500001266598687
20
-309.90000374019144
30
0
11
-85.500001266598701
21
-310.10000454485413
31
0
0
ARC
5
176
100
AcDbEntity
8
0
100
AcDbCircle
10
-91.000000610947595
20
-298.90000341236595
30
0
40
5.5000000000000071
210
0
220
0
230
1
100
AcDbArc
50
90.000000000000142
51
180
0
ARC
5
177
100
AcDbEntity
8
0
100
AcDbCircle
10
-80.000000283122034
20
-298.90000341236595
30
0
40
5.4999999999999893
210
0
220
0
230
1
100
AcDbArc
50
0
51
90.000000000000313
0
ARC
5
178
100
AcDbEntity
8
0
100
AcDbCircle
10
-80.000000283122034
20
-309.90000374019155
30
0
40
5.4999999999999716
210
0
220
0
230
1
100
AcDbArc
50
-90.000000000000313
51
0
0
ARC
5
179
100
AcDbEntity
8
0
100
AcDbCircle
10
-80.000001266598687
20
-309.90000374019149
30
0
40
5.5000000000000071
210
0
220
0
230
1
100
AcDbArc
50
180
51
269.99999999999983
0
ARC
5
180
100
AcDbEntity
8
0
100
AcDbCircle
10
-91.000000610947595
20
-299.10000454485419
30
0
40
5.5000000000000071
210
0
220
0
230
1
100
AcDbArc
50
180
51
269.99999999999983
0
ARC
5
181
100
AcDbEntity
8
0
100
AcDbCircle
10
-91.000001266598758
20
-310.10000454485419
30
0
40
5.5000000000000426
210
0
220
-0
230
1
100
AcDbArc
50
0
51
89.999999999999545
0
ARC
5
182
100
AcDbEntity
8
0
100
AcDbCircle
10
-60.00000081956388
20
-309.90000374019149
30
0
40
5.5000000000000071
210
0
220
0
230
1
100
AcDbArc
50
-89.999999999999844
51
0
0
LINE
5
183
100
AcDbEntity
8
0
100
AcDbLine
10
-60.000001803040504
20
-293.40000341236595
30
0
11
-54.500000819563859
21
-293.40000341236595
31
0
0
LINE
5
184
100
AcDbEntity
8
0
100
AcDbLine
10
-43.500001475214972
20
-299.10000454485413
30
0
11
-43.500001475214972
21
-298.900003412366
31
0
0
ARC
5
185
100
AcDbEntity
8
0
100
AcDbCircle
10
-49.000001475214972
20
-298.90000341236595
30
0
40
5.5000000000000071
210
0
220
0
230
1
100
AcDbArc
50
0
51
89.999999999999858
0
LINE
5
186
100
AcDbEntity
8
0
100
AcDbLine
10
-54.50000081956388
20
-309.90000374019144
30
0
11
-54.500000819563859
21
-310.10000454485413
31
0
0
CIRCLE
5
187
100
AcDbEntity
8
0
100
AcDbCircle
10
-49.000001147389405
20
-299.00000397861004
30
0
40
1.6000000000000003
210
0
220
0
230
1
0
ARC
5
188
100
AcDbEntity
8
0
100
AcDbCircle
10
-60.000001803040526
20
-309.90000374019155
30
0
40
5.4999999999999716
210
0
220
0
230
1
100
AcDbArc
50
180
51
270.00000000000023
0
LINE
5
189
100
AcDbEntity
8
0
100
AcDbLine
10
-65.500001803040519
20
-304.60000454485419
30
0
11
-65.500001803040519
21
-298.90000341236595
31
0
0
ARC
5
190
100
AcDbEntity
8
0
100
AcDbCircle
10
-49.000001475214972
20
-299.10000454485419
30
0
40
5.5000000000000071
210
0
220
0
230
1
100
AcDbArc
50
-89.999999999999844
51
0
0
ARC
5
191
100
AcDbEntity
8
0
100
AcDbCircle
10
-60.000001803040526
20
-298.90000341236595
30
0
40
5.4999999999999716
210
0
220
-0
230
1
100
AcDbArc
50
89.999999999999787
51
180
0
ARC
5
192
100
AcDbEntity
8
0
100
AcDbCircle
10
-49.000000819563816
20
-310.10000454485419
30
0
40
5.5000000000000426
210
0
220
0
230
1
100
AcDbArc
50
90.000000000000369
51
180
0
CIRCLE
5
193
100
AcDbEntity
8
0
100
AcDbCircle
10
-60.000001311302178
20
-310.00000414252281
30
0
40
1.6000000000000003
210
0
220
0
230
1
0
CIRCLE
5
194
100
AcDbEntity
8
0
100
AcDbCircle
10
-60.000001311302178
20
-299.00000397861004
30
0
40
1.6000000000000003
210
0
220
0
230
1
0
LINE
5
195
100
AcDbEntity
8
0
100
AcDbLine
10
-49.000001475214958
20
-293.40000341236595
30
0
11
-54.500000819563859
21
-293.40000341236595
31
0
0
LINE
5
196
100
AcDbEntity
8
0
100
AcDbLine
10
-65.500001803040519
20
-304.60000454485419
30
0
11
-65.500001803040504
21
-309.90000374019144
31
0
0
CIRCLE
5
197
100
AcDbEntity
8
0
100
AcDbCircle
10
-88.500002533197403
20
-20.000003725290298
30
0
40
1.4999999999999858
210
0
220
0
230
1
0
CIRCLE
5
198
100
AcDbEntity
8
0
100
AcDbCircle
10
-88.500002533197403
20
-40.000004023313522
30
0
40
1.50000000000001
210
0
220
0
230
1
0
CIRCLE
5
199
100
AcDbEntity
8
0
100
AcDbCircle
10
-88.500002533197403
20
-4.0233135223388672e-06
30
0
40
1.50000000000001
210
0
220
0
230
1
0
CIRCLE
5
200
100
AcDbEntity
8
0
100
AcDbCircle
10
-88.500002533197403
20
19.999996274709702
30
0
40
1.4999999999999858
210
0
220
0
230
1
0
CIRCLE
5
201
100
AcDbEntity
8
0
100
AcDbCircle
10
-88.500002533197403
20
59.999996274709702
30
0
40
1.4999999999999858
210
0
220
0
230
1
0
CIRCLE
5
202
100
AcDbEntity
8
0
100
AcDbCircle
10
-88.500002533197403
20
39.999995976686478
30
0
40
1.50000000000001
210
0
220
0
230
1
0
CIRCLE
5
203
100
AcDbEntity
8
0
100
AcDbCircle
10
-88.500002533197403
20
-120.00000402331352
30
0
40
1.50000000000001
210
0
220
0
230
1
0
CIRCLE
5
204
100
AcDbEntity
8
0
100
AcDbCircle
10
-88.500002533197403
20
-100.0000037252903
30
0
40
1.4999999999999858
210
0
220
0
230
1
0
CIRCLE
5
205
100
AcDbEntity
8
0
100
AcDbCircle
10
-88.500002533197403
20
-60.000003725290298
30
0
40
1.4999999999999858
210
0
220
0
230
1
0
CIRCLE
5
206
100
AcDbEntity
8
0
100
AcDbCircle
10
-88.500002533197403
20
-80.000004023313522
30
0
40
1.50000000000001
210
0
220
0
230
1
0
LWPOLYLINE
5
207
100
AcDbEntity
8
0
100
AcDbPolyline
90
8
70
1
43
0.0
10
-91.500002577900887
20
102.99999821186069
10
-82.500002443790436
20
102.99999821186066
10
-70.500002443790436
20
102.99999821186066
10
-82.500002443790436
20
102.99999821186066
10
-82.500002443790436
20
-147.0000055134297
10
-91.500002577900887
20
-147.0000055134297
10
-94.50000262260437
20
-144.00000546872621
10
-94.50000262260437
20
99.999998167157202
0
CIRCLE
5
208
100
AcDbEntity
8
0
100
AcDbCircle
10
-88.500002533197403
20
-137.000005453825
30
0
40
1.5000000000000071
210
0
220
0
230
1
0
LINE
5
209
100
AcDbEntity
8
0
100
AcDbLine
10
-94.50000262260437
20
-131.00000537931919
30
0
11
-82.500002443790436
21
-131.00000537931919
31
0
0
LINE
5
210
100
AcDbEntity
8
0
100
AcDbLine
10
-94.50000262260437
20
70.99999763071537
30
0
11
-82.500002443790436
21
70.99999763071537
31
0
0
CIRCLE
5
211
100
AcDbEntity
8
0
100
AcDbCircle
10
-88.500002533197403
20
76.999997720122337
30
0
40
1.5000000000000071
210
0
220
0
230
1
0
CIRCLE
5
212
100
AcDbEntity
8
0
100
AcDbCircle
10
-88.500002533197403
20
96.999997720122337
30
0
40
1.5000000000000071
210
0
220
0
230
1
0
CIRCLE
5
213
100
AcDbEntity
8
0
100
AcDbCircle
10
88.499997466802611
20
96.999997720122337
30
0
40
1.5000000000000071
210
0
220
0
230
1
0
CIRCLE
5
214
100
AcDbEntity
8
0
100
AcDbCircle
10
88.499997466802611
20
39.999995976686478
30
0
40
1.50000000000001
210
0
220
0
230
1
0
CIRCLE
5
215
100
AcDbEntity
8
0
100
AcDbCircle
10
88.499997466802611
20
59.999996274709702
30
0
40
1.4999999999999858
210
0
220
0
230
1
0
CIRCLE
5
216
100
AcDbEntity
8
0
100
AcDbCircle
10
88.499997466802611
20
76.999997720122337
30
0
40
1.5000000000000071
210
0
220
0
230
1
0
CIRCLE
5
217
100
AcDbEntity
8
0
100
AcDbCircle
10
88.499997466802611
20
-80.000004023313522
30
0
40
1.50000000000001
210
0
220
0
230
1
0
CIRCLE
5
218
100
AcDbEntity
8
0
100
AcDbCircle
10
88.499997466802611
20
-40.000004023313522
30
0
40
1.50000000000001
210
0
220
0
230
1
0
CIRCLE
5
219
100
AcDbEntity
8
0
100
AcDbCircle
10
88.499997466802611
20
-20.000003725290298
30
0
40
1.4999999999999858
210
0
220
0
230
1
0
CIRCLE
5
220
100
AcDbEntity
8
0
100
AcDbCircle
10
88.499997466802611
20
-120.00000402331352
30
0
40
1.50000000000001
210
0
220
0
230
1
0
CIRCLE
5
221
100
AcDbEntity
8
0
100
AcDbCircle
10
88.499997466802611
20
-100.0000037252903
30
0
40
1.4999999999999858
210
0
220
0
230
1
0
LINE
5
222
100
AcDbEntity
8
0
100
AcDbLine
10
82.499997377395644
20
70.99999763071537
30
0
11
94.499997556209578
21
70.99999763071537
31
0
0
CIRCLE
5
223
100
AcDbEntity
8
0
100
AcDbCircle
10
88.499997466802611
20
-137.000005453825
30
0
40
1.5000000000000071
210
0
220
0
230
1
0
LWPOLYLINE
5
224
100
AcDbEntity
8
0
100
AcDbPolyline
90
6
70
1
43
0.0
10
91.499997511506095
20
-147.0000055134297
10
82.499997377395644
20
-147.0000055134297
10
82.499997377395644
20
102.99999821186066
10
91.499997511506095
20
102.99999821186066
10
94.499997556209578
20
99.999998167157173
10
94.499997556209578
20
-144.00000546872621
0
CIRCLE
5
225
100
AcDbEntity
8
0
100
AcDbCircle
10
88.499997466802611
20
19.999996274709702
30
0
40
1.4999999999999858
210
0
220
0
230
1
0
CIRCLE
5
226
100
AcDbEntity
8
0
100
AcDbCircle
10
88.499997466802611
20
-4.0233135223388672e-06
30
0
40
1.50000000000001
210
0
220
0
230
1
0
LINE
5
227
100
AcDbEntity
8
0
100
AcDbLine
10
82.499997377395644
20
-131.00000537931919
30
0
11
94.499997556209578
21
-131.00000537931919
31
0
0
CIRCLE
5
228
100
AcDbEntity
8
0
100
AcDbCircle
10
88.499997466802611
20
-60.000003725290298
30
0
40
1.4999999999999858
210
0
220
0
230
1
0
LWPOLYLINE
5
229
100
AcDbEntity
8
0
100
AcDbPolyline
90
4
70
1
43
0.0
10
-82.000001221895218
20
143.0000015348196
10
82.000001221895218
20
143.0000015348196
10
82.000001221895218
20
111.00000105798244
10
-82.000001221895218
20
111.00000105798244
0
LINE
5
230
100
AcDbEntity
8
0
100
AcDbLine
10
-40.057608611111164
20
137.20004999999998
30
0
11
-37.057586388888907
21
137.20004999999998
31
0
0
SPLINE
5
231
100
AcDbEntity
8
0
100
AcDbSpline
70
0
71
3
72
10
73
6
74
0
42
0.000000001
43
0.0000000001
44
0.0000000001
40
0
40
0
40
0
40
0
40
1
40
1
40
2
40
2
40
2
40
2
10
-60.057603888888835
20
114.19999722222215
30
0
10
-59.339701111111076
20
114.19999722222215
30
0
10
-58.757617777777746
20
114.7820805555555
30
0
10
-58.757617777777746
20
116.21788611111108
30
0
10
-59.339701111111076
20
116.79996944444443
30
0
10
-60.057603888888835
20
116.79996944444443
30
0
0
SPLINE
5
232
100
AcDbEntity
8
0
100
AcDbSpline
70
0
71
3
72
10
73
6
74
0
42
0.000000001
43
0.0000000001
44
0.0000000001
40
0
40
0
40
0
40
0
40
1
40
1
40
2
40
2
40
2
40
2
10
-48.557612777777869
20
115.80002083333329
30
0
10
-42.372007222222258
20
115.80002083333329
30
0
10
-37.357623888888931
20
120.81440416666665
30
0
10
-37.357623888888931
20
133.18561527777771
30
0
10
-42.372007222222258
20
138.19999861111106
30
0
10
-48.557612777777869
20
138.19999861111106
30
0
0
SPLINE
5
233
100
AcDbEntity
8
0
100
AcDbSpline
70
0
71
3
72
10
73
6
74
0
42
0.000000001
43
0.0000000001
44
0.0000000001
40
0
40
0
40
0
40
0
40
1
40
1
40
2
40
2
40
2
40
2
10
-63.057626111111091
20
139.8000222222222
30
0
10
-63.775528888888921
20
139.8000222222222
30
0
10
-64.357612222222244
20
139.21793888888888
30
0
10
-64.357612222222244
20
137.78213333333332
30
0
10
-63.775528888888921
20
137.20004999999998
30
0
10
-63.057626111111091
20
137.20004999999998
30
0
0
SPLINE
5
234
100
AcDbEntity
8
0
100
AcDbSpline
70
0
71
3
72
10
73
6
74
0
42
0.000000001
43
0.0000000001
44
0.0000000001
40
3
40
3
40
3
40
3
40
4
40
4
40
5
40
5
40
5
40
5
10
-51.557635000000055
20
138.19999861111106
30
0
10
-57.743240555555559
20
138.19999861111106
30
0
10
-62.757623888888958
20
133.18561527777771
30
0
10
-62.757623888888958
20
120.81440416666665
30
0
10
-57.743240555555559
20
115.80002083333329
30
0
10
-51.557635000000055
20
115.80002083333329
30
0
0
LINE
5
235
100
AcDbEntity
8
0
100
AcDbLine
10
-63.057626111111091
20
114.19999722222215
30
0
11
-60.057603888888835
21
114.19999722222215
31
0
0
LINE
5
236
100
AcDbEntity
8
0
100
AcDbLine
10
-60.057603888888835
20
139.8000222222222
30
0
11
-63.057626111111091
21
139.8000222222222
31
0
0
LINE
5
237
100
AcDbEntity
8
0
100
AcDbLine
10
-37.057586388888907
20
139.8000222222222
30
0
11
-40.057608611111164
21
139.8000222222222
31
0
0
SPLINE
5
238
100
AcDbEntity
8
0
100
AcDbSpline
70
0
71
3
72
10
73
6
74
0
42
0.000000001
43
0.0000000001
44
0.0000000001
40
0
40
0
40
0
40
0
40
1
40
1
40
2
40
2
40
2
40
2
10
-40.057608611111164
20
139.8000222222222
30
0
10
-40.775511388888923
20
139.8000222222222
30
0
10
-41.357594722222217
20
139.21793888888888
30
0
10
-41.357594722222217
20
137.78213333333332
30
0
10
-40.775511388888923
20
137.20004999999998
30
0
10
-40.057608611111164
20
137.20004999999998
30
0
0
LINE
5
239
100
AcDbEntity
8
0
100
AcDbLine
10
-63.057626111111091
20
137.20004999999998
30
0
11
-60.057603888888835
21
137.20004999999998
31
0
0
SPLINE
5
240
100
AcDbEntity
8
0
100
AcDbSpline
70
0
71
3
72
10
73
6
74
0
42
0.000000001
43
0.0000000001
44
0.0000000001
40
3
40
3
40
3
40
3
40
4
40
4
40
5
40
5
40
5
40
5
10
-37.057586388888907
20
114.20003249999993
30
0
10
-36.339683611111184
20
114.20003249999993
30
0
10
-35.757600277777783
20
114.78211583333334
30
0
10
-35.757600277777783
20
116.21792138888885
30
0
10
-36.339683611111184
20
116.80000472222221
30
0
10
-37.057586388888907
20
116.80000472222221
30
0
0
LINE
5
241
100
AcDbEntity
8
0
100
AcDbLine
10
-51.557635000000055
20
115.80002083333329
30
0
11
-48.557612777777869
21
115.80002083333329
31
0
0
LINE
5
242
100
AcDbEntity
8
0
100
AcDbLine
10
-60.057603888888835
20
116.79996944444443
30
0
11
-63.057626111111091
21
116.79996944444443
31
0
0
SPLINE
5
243
100
AcDbEntity
8
0
100
AcDbSpline
70
0
71
3
72
10
73
6
74
0
42
0.000000001
43
0.0000000001
44
0.0000000001
40
3
40
3
40
3
40
3
40
4
40
4
40
5
40
5
40
5
40
5
10
-37.057586388888907
20
137.20004999999998
30
0
10
-36.339683611111184
20
137.20004999999998
30
0
10
-35.757600277777783
20
137.78213333333332
30
0
10
-35.757600277777783
20
139.21793888888888
30
0
10
-36.339683611111184
20
139.8000222222222
30
0
10
-37.057586388888907
20
139.8000222222222
30
0
0
LINE
5
244
100
AcDbEntity
8
0
100
AcDbLine
10
-40.057608611111164
20
114.20003249999993
30
0
11
-37.057586388888907
21
114.20003249999993
31
0
0
LINE
5
245
100
AcDbEntity
8
0
100
AcDbLine
10
-37.057586388888907
20
116.80000472222221
30
0
11
-40.057608611111164
21
116.80000472222221
31
0
0
SPLINE
5
246
100
AcDbEntity
8
0
100
AcDbSpline
70
0
71
3
72
10
73
6
74
0
42
0.000000001
43
0.0000000001
44
0.0000000001
40
0
40
0
40
0
40
0
40
1
40
1
40
2
40
2
40
2
40
2
10
-40.057608611111164
20
116.80000472222221
30
0
10
-40.775511388888923
20
116.80000472222221
30
0
10
-41.357594722222217
20
116.21792138888885
30
0
10
-41.357594722222217
20
114.78211583333334
30
0
10
-40.775511388888923
20
114.20003249999993
30
0
10
-40.057608611111164
20
114.20003249999993
30
0
0
LINE
5
247
100
AcDbEntity
8
0
100
AcDbLine
10
-48.557612777777869
20
138.19999861111106
30
0
11
-51.557635000000055
21
138.19999861111106
31
0
0
SPLINE
5
248
100
AcDbEntity
8
0
100
AcDbSpline
70
0
71
3
72
10
73
6
74
0
42
0.000000001
43
0.0000000001
44
0.0000000001
40
3
40
3
40
3
40
3
40
4
40
4
40
5
40
5
40
5
40
5
10
-60.057603888888835
20
137.20004999999998
30
0
10
-59.339701111111076
20
137.20004999999998
30
0
10
-58.757617777777746
20
137.78213333333332
30
0
10
-58.757617777777746
20
139.21793888888888
30
0
10
-59.339701111111076
20
139.8000222222222
30
0
10
-60.057603888888835
20
139.8000222222222
30
0
0
SPLINE
5
249
100
AcDbEntity
8
0
100
AcDbSpline
70
0
71
3
72
10
73
6
74
0
42
0.000000001
43
0.0000000001
44
0.0000000001
40
3
40
3
40
3
40
3
40
4
40
4
40
5
40
5
40
5
40
5
10
-63.057626111111091
20
116.79996944444443
30
0
10
-63.77552888888885
20
116.79996944444443
30
0
10
-64.357612222222244
20
116.21788611111108
30
0
10
-64.357612222222244
20
114.7820805555555
30
0
10
-63.77552888888885
20
114.19999722222215
30
0
10
-63.057626111111091
20
114.19999722222215
30
0
0
LINE
5
250
100
AcDbEntity
8
0
100
AcDbLine
10
60.057603888888835
20
139.8000222222222
30
0
11
63.057626111111091
21
139.8000222222222
31
0
0
SPLINE
5
251
100
AcDbEntity
8
0
100
AcDbSpline
70
0
71
3
72
10
73
6
74
0
42
0.000000001
43
0.0000000001
44
0.0000000001
40
0
40
0
40
0
40
0
40
1
40
1
40
2
40
2
40
2
40
2
10
63.057626111111091
20
139.8000222222222
30
0
10
63.775528888888921
20
139.8000222222222
30
0
10
64.357612222222244
20
139.21793888888888
30
0
10
64.357612222222244
20
137.78213333333332
30
0
10
63.775528888888921
20
137.20004999999998
30
0
10
63.057626111111091
20
137.20004999999998
30
0
0
LINE
5
252
100
AcDbEntity
8
0
100
AcDbLine
10
60.057603888888835
20
116.79996944444443
30
0
11
63.057626111111091
21
116.79996944444443
31
0
0
SPLINE
5
253
100
AcDbEntity
8
0
100
AcDbSpline
70
0
71
3
72
10
73
6
74
0
42
0.000000001
43
0.0000000001
44
0.0000000001
40
0
40
0
40
0
40
0
40
1
40
1
40
2
40
2
40
2
40
2
10
48.557612777777869
20
115.80002083333329
30
0
10
42.372007222222258
20
115.80002083333329
30
0
10
37.357623888888931
20
120.81440416666665
30
0
10
37.357623888888931
20
133.18561527777771
30
0
10
42.372007222222258
20
138.19999861111106
30
0
10
48.557612777777869
20
138.19999861111106
30
0
0
SPLINE
5
254
100
AcDbEntity
8
0
100
AcDbSpline
70
0
71
3
72
10
73
6
74
0
42
0.000000001
43
0.0000000001
44
0.0000000001
40
0
40
0
40
0
40
0
40
1
40
1
40
2
40
2
40
2
40
2
10
60.057603888888835
20
114.19999722222215
30
0
10
59.339701111111076
20
114.19999722222215
30
0
10
58.757617777777746
20
114.7820805555555
30
0
10
58.757617777777746
20
116.21788611111108
30
0
10
59.339701111111076
20
116.79996944444443
30
0
10
60.057603888888835
20
116.79996944444443
30
0
0
SPLINE
5
255
100
AcDbEntity
8
0
100
AcDbSpline
70
0
71
3
72
10
73
6
74
0
42
0.000000001
43
0.0000000001
44
0.0000000001
40
3
40
3
40
3
40
3
40
4
40
4
40
5
40
5
40
5
40
5
10
60.057603888888835
20
137.20004999999998
30
0
10
59.339701111111076
20
137.20004999999998
30
0
10
58.757617777777746
20
137.78213333333332
30
0
10
58.757617777777746
20
139.21793888888888
30
0
10
59.339701111111076
20
139.8000222222222
30
0
10
60.057603888888835
20
139.8000222222222
30
0
0
LINE
5
256
100
AcDbEntity
8
0
100
AcDbLine
10
51.557635000000055
20
115.80002083333329
30
0
11
48.557612777777869
21
115.80002083333329
31
0
0
LINE
5
257
100
AcDbEntity
8
0
100
AcDbLine
10
37.057586388888907
20
116.80000472222221
30
0
11
40.057608611111164
21
116.80000472222221
31
0
0
SPLINE
5
258
100
AcDbEntity
8
0
100
AcDbSpline
70
0
71
3
72
10
73
6
74
0
42
0.000000001
43
0.0000000001
44
0.0000000001
40
0
40
0
40
0
40
0
40
1
40
1
40
2
40
2
40
2
40
2
10
40.057608611111164
20
116.80000472222221
30
0
10
40.775511388888923
20
116.80000472222221
30
0
10
41.357594722222217
20
116.21792138888885
30
0
10
41.357594722222217
20
114.78211583333334
30
0
10
40.775511388888923
20
114.20003249999993
30
0
10
40.057608611111164
20
114.20003249999993
30
0
0
LINE
5
259
100
AcDbEntity
8
0
100
AcDbLine
10
40.057608611111164
20
114.20003249999993
30
0
11
37.057586388888907
21
114.20003249999993
31
0
0
LINE
5
260
100
AcDbEntity
8
0
100
AcDbLine
10
63.057626111111091
20
137.20004999999998
30
0
11
60.057603888888835
21
137.20004999999998
31
0
0
LINE
5
261
100
AcDbEntity
8
0
100
AcDbLine
10
37.057586388888907
20
139.8000222222222
30
0
11
40.057608611111164
21
139.8000222222222
31
0
0
LINE
5
262
100
AcDbEntity
8
0
100
AcDbLine
10
63.057626111111091
20
114.19999722222215
30
0
11
60.057603888888835
21
114.19999722222215
31
0
0
SPLINE
5
263
100
AcDbEntity
8
0
100
AcDbSpline
70
0
71
3
72
10
73
6
74
0
42
0.000000001
43
0.0000000001
44
0.0000000001
40
3
40
3
40
3
40
3
40
4
40
4
40
5
40
5
40
5
40
5
10
63.057626111111091
20
116.79996944444443
30
0
10
63.77552888888885
20
116.79996944444443
30
0
10
64.357612222222244
20
116.21788611111108
30
0
10
64.357612222222244
20
114.7820805555555
30
0
10
63.77552888888885
20
114.19999722222215
30
0
10
63.057626111111091
20
114.19999722222215
30
0
0
SPLINE
5
264
100
AcDbEntity
8
0
100
AcDbSpline
70
0
71
3
72
10
73
6
74
0
42
0.000000001
43
0.0000000001
44
0.0000000001
40
3
40
3
40
3
40
3
40
4
40
4
40
5
40
5
40
5
40
5
10
51.557635000000055
20
138.19999861111106
30
0
10
57.743240555555559
20
138.19999861111106
30
0
10
62.757623888888958
20
133.18561527777771
30
0
10
62.757623888888958
20
120.81440416666665
30
0
10
57.743240555555559
20
115.80002083333329
30
0
10
51.557635000000055
20
115.80002083333329
30
0
0
SPLINE
5
265
100
AcDbEntity
8
0
100
AcDbSpline
70
0
71
3
72
10
73
6
74
0
42
0.000000001
43
0.0000000001
44
0.0000000001
40
3
40
3
40
3
40
3
40
4
40
4
40
5
40
5
40
5
40
5
10
37.057586388888907
20
114.20003249999993
30
0
10
36.339683611111184
20
114.20003249999993
30
0
10
35.757600277777783
20
114.78211583333334
30
0
10
35.757600277777783
20
116.21792138888885
30
0
10
36.339683611111184
20
116.80000472222221
30
0
10
37.057586388888907
20
116.80000472222221
30
0
0
SPLINE
5
266
100
AcDbEntity
8
0
100
AcDbSpline
70
0
71
3
72
10
73
6
74
0
42
0.000000001
43
0.0000000001
44
0.0000000001
40
3
40
3
40
3
40
3
40
4
40
4
40
5
40
5
40
5
40
5
10
37.057586388888907
20
137.20004999999998
30
0
10
36.339683611111184
20
137.20004999999998
30
0
10
35.757600277777783
20
137.78213333333332
30
0
10
35.757600277777783
20
139.21793888888888
30
0
10
36.339683611111184
20
139.8000222222222
30
0
10
37.057586388888907
20
139.8000222222222
30
0
0
LINE
5
267
100
AcDbEntity
8
0
100
AcDbLine
10
40.057608611111164
20
137.20004999999998
30
0
11
37.057586388888907
21
137.20004999999998
31
0
0
LINE
5
268
100
AcDbEntity
8
0
100
AcDbLine
10
48.557612777777869
20
138.19999861111106
30
0
11
51.557635000000055
21
138.19999861111106
31
0
0
SPLINE
5
269
100
AcDbEntity
8
0
100
AcDbSpline
70
0
71
3
72
10
73
6
74
0
42
0.000000001
43
0.0000000001
44
0.0000000001
40
0
40
0
40
0
40
0
40
1
40
1
40
2
40
2
40
2
40
2
10
40.057608611111164
20
139.8000222222222
30
0
10
40.775511388888923
20
139.8000222222222
30
0
10
41.357594722222217
20
139.21793888888888
30
0
10
41.357594722222217
20
137.78213333333332
30
0
10
40.775511388888923
20
137.20004999999998
30
0
10
40.057608611111164
20
137.20004999999998
30
0
0
CIRCLE
5
270
100
AcDbEntity
8
0
100
AcDbCircle
10
-76.000001132488251
20
137.00000144541264
30
0
40
1.5999999999999956
210
0
220
0
230
1
0
CIRCLE
5
271
100
AcDbEntity
8
0
100
AcDbCircle
10
-76.000001132488251
20
117.00000114738941
30
0
40
1.5999999999999943
210
0
220
0
230
1
0
CIRCLE
5
272
100
AcDbEntity
8
0
100
AcDbCircle
10
-76.000001132488251
20
127.00000129640102
30
0
40
1.6000000000000014
210
0
220
0
230
1
0
CIRCLE
5
273
100
AcDbEntity
8
0
100
AcDbCircle
10
76.000001132488251
20
137.00000144541264
30
0
40
1.5999999999999956
210
0
220
0
230
1
0
CIRCLE
5
274
100
AcDbEntity
8
0
100
AcDbCircle
10
76.000001132488251
20
117.00000114738941
30
0
40
1.5999999999999943
210
0
220
0
230
1
0
CIRCLE
5
275
100
AcDbEntity
8
0
100
AcDbCircle
10
76.000001132488251
20
127.00000129640102
30
0
40
1.6000000000000014
210
0
220
0
230
1
0
LINE
5
276
100
AcDbEntity
8
0
100
AcDbLine
10
-70.500002443790436
20
102.99999821186066
30
0
11
-70.500002443790436
21
71.065120745182128
31
0
0
LINE
5
277
100
AcDbEntity
8
0
100
AcDbLine
10
-70.500002443790436
20
71.065120745182128
30
0
11
-82.500002443790436
21
71.065120745182128
31
0
0
LINE
5
278
100
AcDbEntity
8
0
100
AcDbLine
10
-82.500002443790436
20
71.065120745182128
30
0
11
-82.500002443790436
21
102.99999821186066
31
0
0
CIRCLE
5
279
100
AcDbEntity
8
0
100
AcDbCircle
10
-76.000001132488251
20
97.000001445412636
30
0
40
1.5000000000000013
210
0
220
0
230
1
0
CIRCLE
5
280
100
AcDbEntity
8
0
100
AcDbCircle
10
-76.000001132488251
20
77.000001147389412
30
0
40
1.5000000000000013
210
0
220
0
230
1
0
CIRCLE
5
281
100
AcDbEntity
8
0
100
AcDbCircle
10
-76.000001132488251
20
87.000001296401024
30
0
40
1.4999999999999993
210
0
220
0
230
1
0
CIRCLE
5
282
100
AcDbEntity
8
0
100
AcDbCircle
10
76.000001132488251
20
97.000001445412636
30
0
40
1.5000000000000013
210
0
220
0
230
1
0
CIRCLE
5
283
100
AcDbEntity
8
0
100
AcDbCircle
10
76.000001132488251
20
87.000001296401024
30
0
40
1.4999999999999993
210
0
220
0
230
1
0
CIRCLE
5
284
100
AcDbEntity
8
0
100
AcDbCircle
10
76.000001132488251
20
77.000001147389412
30
0
40
1.5000000000000013
210
0
220
0
230
1
0
LINE
5
285
100
AcDbEntity
8
0
100
AcDbLine
10
82.500002443790436
20
102.99999821186066
30
0
11
70.500002443790436
21
102.99999821186066
31
0
0
LINE
5
286
100
AcDbEntity
8
0
100
AcDbLine
10
70.500002443790436
20
102.99999821186066
30
0
11
70.500002443790436
21
71.065120745182128
31
0
0
LINE
5
287
100
AcDbEntity
8
0
100
AcDbLine
10
70.500002443790436
20
71.065120745182128
30
0
11
82.500002443790436
21
71.065120745182128
31
0
0
CIRCLE
5
288
100
AcDbEntity
8
0
100
AcDbCircle
10
-211.5000025331974
20
96.999997720122337
30
0
40
1.6000000000000003
210
0
220
0
230
1
0
CIRCLE
5
289
100
AcDbEntity
8
0
100
AcDbCircle
10
-211.5000025331974
20
-137.000005453825
30
0
40
1.6000000000000003
210
0
220
0
230
1
0
LINE
5
290
100
AcDbEntity
8
0
100
AcDbLine
10
-205.50000244379044
20
102.99999821186066
30
0
11
-205.50000244379044
21
-144.00000546872621
31
0
0
CIRCLE
5
291
100
AcDbEntity
8
0
100
AcDbCircle
10
-388.5000025331974
20
-137.000005453825
30
0
40
1.6000000000000003
210
0
220
0
230
1
0
CIRCLE
5
292
100
AcDbEntity
8
0
100
AcDbCircle
10
-211.5000025331974
20
-100.0000037252903
30
0
40
1.6000000000000003
210
0
220
0
230
1
0
LINE
5
293
100
AcDbEntity
8
0
100
AcDbLine
10
-382.50000244379044
20
-147.0000055134297
30
0
11
-391.50000257790089
21
-147.0000055134297
31
0
0
CIRCLE
5
294
100
AcDbEntity
8
0
100
AcDbCircle
10
-211.5000025331974
20
76.999997720122337
30
0
40
1.6000000000000003
210
0
220
0
230
1
0
LINE
5
295
100
AcDbEntity
8
0
100
AcDbLine
10
-394.50000262260437
20
-144.00000546872621
30
0
11
-394.50000262260437
21
102.99999821186066
31
0
0
CIRCLE
5
296
100
AcDbEntity
8
0
100
AcDbCircle
10
-388.5000025331974
20
-100.0000037252903
30
0
40
1.6000000000000003
210
0
220
0
230
1
0
LINE
5
297
100
AcDbEntity
8
0
100
AcDbLine
10
-208.50000248849392
20
-147.0000055134297
30
0
11
-217.50000262260437
21
-147.0000055134297
31
0
0
CIRCLE
5
298
100
AcDbEntity
8
0
100
AcDbCircle
10
-388.5000025331974
20
76.999997720122337
30
0
40
1.6000000000000003
210
0
220
0
230
1
0
CIRCLE
5
299
100
AcDbEntity
8
0
100
AcDbCircle
10
-388.5000025331974
20
96.999997720122337
30
0
40
1.6000000000000003
210
0
220
0
230
1
0
LINE
5
300
100
AcDbEntity
8
0
100
AcDbLine
10
-382.50000244379044
20
-147.0000055134297
30
0
11
-217.50000262260437
21
-147.0000055134297
31
0
0
LWPOLYLINE
5
301
100
AcDbEntity
8
0
100
AcDbPolyline
90
66
70
1
43
0.0
10
-394.50000447034881
20
165.00000216066721
10
-394.50000447034904
20
225.00000216066721
10
-389.50000447034904
20
230.00000216066721
10
-210.50000447034833
20
230.00000216066724
10
-205.50000447034833
20
225.00000216066724
10
-205.50000447034833
20
165.00000216066834
10
-218.40000447034836
20
165.00000216066832
10
-218.40000447034836
20
168.25000248849392
10
-217.30000447034837
20
168.25000248849392
10
-217.30000447034837
20
170.75000248849392
10
-218.40000447034836
20
170.75000248849392
10
-218.40000447034836
20
173.00000281631952
10
-221.60000447034835
20
173.00000281631952
10
-221.60000447034835
20
170.75000248849392
10
-222.70000447034835
20
170.75000248849389
10
-222.70000447034835
20
168.25000248849389
10
-221.60000447034835
20
168.25000248849392
10
-221.60000447034835
20
165.00000216066832
10
-230.00000551342964
20
165.00000216066832
10
-230.00000551342964
20
160.00000238418579
10
-250.00000551342964
20
160.00000238418579
10
-250.00000551342964
20
165.00000216066832
10
-255.000004991889
20
165.0000024586916
10
-255.000004991889
20
170.00000260770321
42
0.99999999999999989
10
-265.00000514090061
20
170.00000260770321
10
-265.00000514090061
20
165.0000024586916
10
-270.00000551342964
20
165.00000216066832
10
-270.00000551342964
20
160.00000238418579
10
-290.00000551342964
20
160.00000238418579
10
-290.00000551342964
20
165.00000216066832
10
-298.40000447034834
20
165.00000216066832
10
-298.40000447034834
20
168.25000248849392
10
-297.30000447034837
20
168.25000248849392
10
-297.30000447034837
20
170.75000248849392
10
-298.40000447034834
20
170.75000248849392
10
-298.40000447034834
20
173.00000281631952
10
-301.60000447034838
20
173.00000281631952
10
-301.60000447034838
20
170.75000248849392
10
-302.70000447034835
20
170.75000248849389
10
-302.70000447034835
20
168.25000248849389
10
-301.60000447034838
20
168.25000248849392
10
-301.60000447034838
20
165.00000216066832
10
-310.00000551342964
20
165.00000216066832
10
-310.00000551342964
20
160.00000238418579
10
-330.00000551342964
20
160.00000238418579
10
-330.00000551342964
20
165.00000216066832
10
-335.000004991889
20
165.0000024586916
10
-335.000004991889
20
170.00000260770321
42
0.99999999999999989
10
-345.00000514090061
20
170.00000260770321
10
-345.00000514090061
20
165.0000024586916
10
-350.00000551342964
20
165.00000216066832
10
-350.00000551342964
20
160.00000238418579
10
-370.00000551342964
20
160.00000238418579
10
-370.00000551342964
20
165.00000216066832
10
-378.40000447034839
20
165.00000216066832
10
-378.40000447034839
20
168.25000248849392
10
-377.30000447034843
20
168.25000248849392
10
-377.30000447034843
20
170.75000248849392
10
-378.40000447034839
20
170.75000248849392
10
-378.40000447034839
20
173.00000281631952
10
-381.60000447034838
20
173.00000281631952
10
-381.60000447034838
20
170.75000248849392
10
-382.7000044703484
20
170.75000248849386
10
-382.7000044703484
20
168.25000248849386
10
-381.60000447034838
20
168.25000248849392
10
-381.60000447034838
20
165.00000216066832
0
LINE
5
302
100
AcDbEntity
8
0
100
AcDbLine
10
-205.50000244379044
20
102.99999821186066
30
0
11
-205.50000244379044
21
129.99999821186066
31
0
0
LINE
5
303
100
AcDbEntity
8
0
100
AcDbLine
10
-394.50000262260437
20
129.99999821186066
30
0
11
-394.50000262260437
21
102.99999821186066
31
0
0
LWPOLYLINE
5
304
100
AcDbEntity
8
0
100
AcDbPolyline
90
16
70
1
43
0.0
10
-217.50000447034836
20
-203.00000461935994
10
-382.50000447034836
20
-203.00000461935994
10
-382.50000447034836
20
-421.00000461935991
10
-340.00000506639481
20
-421.00001139566251
10
-340.00000506639481
20
-416.50000461936003
42
0.41421356237313667
10
-341.00000506639481
20
-415.50000461936003
10
-350.50000447034836
20
-415.50000461936003
10
-350.50000447034836
20
-266.50000461936003
10
-306.00000447034836
20
-266.50000461936003
42
-0.99999999999999989
10
-294.0000044703483
20
-266.50000461936003
10
-249.5000044703483
20
-266.50000461936003
10
-249.5000044703483
20
-415.50000461936003
10
-259.00000387430191
20
-415.50000461936008
42
0.41421356237310542
10
-260.00000387430191
20
-416.50000461936003
10
-260.00000387430191
20
-421.0000241510561
10
-217.5000044703495
20
-421.0000241510561
0
CIRCLE
5
305
100
AcDbEntity
8
0
100
AcDbCircle
10
-17.500000298023224
20
132.0000011920929
30
0
40
2.1000000000000005
210
0
220
0
230
1
0
CIRCLE
5
306
100
AcDbEntity
8
0
100
AcDbCircle
10
17.500000298023224
20
132.0000011920929
30
0
40
2.0999999999999996
210
0
220
0
230
1
0
CIRCLE
5
307
100
AcDbEntity
8
0
100
AcDbCircle
10
0
20
117.00000089406967
30
0
40
2.099999999999997
210
0
220
0
230
1
0
LINE
5
308
100
AcDbEntity
8
0
100
AcDbLine
10
-391.50000257790089
20
-147.0000055134297
30
0
11
-394.50000262260437
21
-144.00000546872621
31
0
0
LINE
5
309
100
AcDbEntity
8
0
100
AcDbLine
10
-208.50000248849392
20
-147.0000055134297
30
0
11
-205.50000244379044
21
-144.00000546872621
31
0
0
CIRCLE
5
310
100
AcDbEntity
8
0
100
AcDbCircle
10
88.499997466802611
20
-40.000004023313522
30
0
40
1.50000000000001
210
0
220
0
230
1
0
CIRCLE
5
311
100
AcDbEntity
8
0
100
AcDbCircle
10
-88.500002533197403
20
-40.000004023313522
30
0
40
1.50000000000001
210
0
220
0
230
1
0
CIRCLE
5
312
100
AcDbEntity
8
0
100
AcDbCircle
10
-88.500002533197403
20
19.999996274709702
30
0
40
1.4999999999999858
210
0
220
0
230
1
0
CIRCLE
5
313
100
AcDbEntity
8
0
100
AcDbCircle
10
88.499997466802611
20
-20.000003725290298
30
0
40
1.4999999999999858
210
0
220
0
230
1
0
CIRCLE
5
314
100
AcDbEntity
8
0
100
AcDbCircle
10
-88.500002533197403
20
59.999996274709702
30
0
40
1.4999999999999858
210
0
220
0
230
1
0
CIRCLE
5
315
100
AcDbEntity
8
0
100
AcDbCircle
10
88.499997466802611
20
19.999996274709702
30
0
40
1.4999999999999858
210
0
220
0
230
1
0
CIRCLE
5
316
100
AcDbEntity
8
0
100
AcDbCircle
10
88.499997466802611
20
-80.000004023313522
30
0
40
1.50000000000001
210
0
220
0
230
1
0
CIRCLE
5
317
100
AcDbEntity
8
0
100
AcDbCircle
10
-88.500002533197403
20
-60.000003725290298
30
0
40
1.4999999999999858
210
0
220
0
230
1
0
CIRCLE
5
318
100
AcDbEntity
8
0
100
AcDbCircle
10
-88.500002533197403
20
-20.000003725290298
30
0
40
1.4999999999999858
210
0
220
0
230
1
0
CIRCLE
5
319
100
AcDbEntity
8
0
100
AcDbCircle
10
88.499997466802611
20
39.999995976686478
30
0
40
1.50000000000001
210
0
220
0
230
1
0
CIRCLE
5
320
100
AcDbEntity
8
0
100
AcDbCircle
10
-88.500002533197403
20
39.999995976686478
30
0
40
1.50000000000001
210
0
220
0
230
1
0
CIRCLE
5
321
100
AcDbEntity
8
0
100
AcDbCircle
10
-88.500002533197403
20
-80.000004023313522
30
0
40
1.50000000000001
210
0
220
0
230
1
0
CIRCLE
5
322
100
AcDbEntity
8
0
100
AcDbCircle
10
88.499997466802611
20
59.999996274709702
30
0
40
1.4999999999999858
210
0
220
0
230
1
0
CIRCLE
5
323
100
AcDbEntity
8
0
100
AcDbCircle
10
88.499997466802611
20
-4.0233135223388672e-06
30
0
40
1.50000000000001
210
0
220
0
230
1
0
CIRCLE
5
324
100
AcDbEntity
8
0
100
AcDbCircle
10
-88.500002533197403
20
-4.0233135223388672e-06
30
0
40
1.50000000000001
210
0
220
0
230
1
0
CIRCLE
5
325
100
AcDbEntity
8
0
100
AcDbCircle
10
88.499997466802611
20
-60.000003725290298
30
0
40
1.4999999999999858
210
0
220
0
230
1
0
LWPOLYLINE
5
326
100
AcDbEntity
8
0
100
AcDbPolyline
90
4
70
1
43
0.0
10
-370.00000551342964
20
113.00000163912773
10
-350.00000521540642
20
113.00000163912773
10
-350.00000521540642
20
108.00000156462193
10
-370.00000551342964
20
108.00000156462193
0
LWPOLYLINE
5
327
100
AcDbEntity
8
0
100
AcDbPolyline
90
4
70
1
43
0.0
10
-310.00000521540642
20
113.00000163912773
10
-310.00000521540642
20
108.00000156462193
10
-330.00000551342964
20
108.00000156462193
10
-330.00000551342964
20
113.00000163912773
0
LWPOLYLINE
5
328
100
AcDbEntity
8
0
100
AcDbPolyline
90
4
70
1
43
0.0
10
-230.00000521540642
20
108.00000156462193
10
-250.00000551342964
20
108.00000156462193
10
-250.00000551342964
20
113.00000163912773
10
-230.00000521540642
20
113.00000163912773
0
LWPOLYLINE
5
329
100
AcDbEntity
8
0
100
AcDbPolyline
90
4
70
1
43
0.0
10
-270.00000521540642
20
113.00000163912773
10
-270.00000521540642
20
108.00000156462193
10
-290.00000551342964
20
108.00000156462193
10
-290.00000551342964
20
113.00000163912773
0
CIRCLE
5
330
100
AcDbEntity
8
0
100
AcDbCircle
10
-380.00000566244125
20
110.50000213086605
30
0
40
1.6000000000000307
210
0
220
0
230
1
0
CIRCLE
5
331
100
AcDbEntity
8
0
100
AcDbCircle
10
-220.00000566244125
20
110.50000213086605
30
0
40
1.6000000000000307
210
0
220
0
230
1
0
CIRCLE
5
332
100
AcDbEntity
8
0
100
AcDbCircle
10
-300.00000566244125
20
110.50000213086605
30
0
40
1.6000000000000307
210
0
220
0
230
1
0
CIRCLE
5
333
100
AcDbEntity
8
0
100
AcDbCircle
10
-340.00000506639481
20
122.00000171363354
30
0
40
1.5999999999999839
210
0
220
0
230
1
0
CIRCLE
5
334
100
AcDbEntity
8
0
100
AcDbCircle
10
-260.00000506639481
20
122.00000171363354
30
0
40
1.5999999999999839
210
0
220
0
230
1
0
LINE
5
335
100
AcDbEntity
8
0
100
AcDbLine
10
-346.00000514090061
20
126.00000187754631
30
0
11
-254.0000037997961
21
126.00000187754631
31
0
0
LINE
5
336
100
AcDbEntity
8
0
100
AcDbLine
10
-254.0000037997961
20
126.00000187754631
30
0
11
-254.0000037997961
21
131.00000175336999
31
0
0
LINE
5
337
100
AcDbEntity
8
0
100
AcDbLine
10
-346.00000514090061
20
131.00000175336993
30
0
11
-346.00000514090061
21
126.00000187754631
31
0
0
LINE
5
338
100
AcDbEntity
8
0
100
AcDbLine
10
-208.50000244379044
20
132.99999844034514
30
0
11
-252.00000364747314
21
133.00000175336999
31
0
0
LINE
5
339
100
AcDbEntity
8
0
100
AcDbLine
10
-348.00000529322358
20
133.00000175336993
30
0
11
-391.50000262260443
21
132.99999844034514
31
0
0
ARC
5
340
100
AcDbEntity
8
0
100
AcDbCircle
10
-348.00000514090067
20
131.00000175336987
30
0
40
2.0000000000000284
210
0
220
-0
230
1
100
AcDbArc
50
0
51
90.000004363729985
0
ARC
5
341
100
AcDbEntity
8
0
100
AcDbCircle
10
-252.00000379979605
20
131.00000175336996
30
0
40
2.0000000000000342
210
0
220
-0
230
1
100
AcDbArc
50
89.999995636270029
51
180
0
LINE
5
342
100
AcDbEntity
8
0
100
AcDbLine
10
-394.50000262260437
20
129.99999821186066
30
0
11
-391.50000262260443
21
132.99999844034514
31
0
0
LINE
5
343
100
AcDbEntity
8
0
100
AcDbLine
10
-205.50000244379044
20
129.99999821186066
30
0
11
-208.50000244379044
21
132.99999844034514
31
0
0
LWPOLYLINE
5
344
100
AcDbEntity
8
0
100
AcDbPolyline
90
4
70
1
43
0.0
10
-340.00000521540642
20
198.00000156462193
10
-360.00000551342964
20
198.00000156462193
10
-360.00000551342964
20
203.00000163912773
10
-340.00000521540642
20
203.00000163912773
0
LWPOLYLINE
5
345
100
AcDbEntity
8
0
100
AcDbPolyline
90
4
70
1
43
0.0
10
-240.00000521540642
20
198.00000156462193
10
-260.00000551342964
20
198.00000156462193
10
-260.00000551342964
20
203.00000163912773
10
-240.00000521540642
20
203.00000163912773
0
CIRCLE
5
346
100
AcDbEntity
8
0
100
AcDbCircle
10
-275.00000566244125
20
200.50000213086605
30
0
40
1.6000000000000307
210
0
220
0
230
1
0
CIRCLE
5
347
100
AcDbEntity
8
0
100
AcDbCircle
10
-325.00000566244125
20
200.50000213086605
30
0
40
1.6000000000000307
210
0
220
0
230
1
0
LWPOLYLINE
5
348
100
AcDbEntity
8
0
100
AcDbPolyline
90
4
70
1
43
0.0
10
-290.00000521540642
20
198.00000156462193
10
-310.00000551342964
20
198.00000156462193
10
-310.00000551342964
20
203.00000163912773
10
-290.00000521540642
20
203.00000163912773
0
SPLINE
5
349
100
AcDbEntity
8
0
100
AcDbSpline
70
0
71
3
72
10
73
6
74
0
42
0.000000001
43
0.0000000001
44
0.0000000001
40
3
40
3
40
3
40
3
40
4
40
4
40
5
40
5
40
5
40
5
10
-363.05762611111106
20
256.79996944444446
30
0
10
-363.77552888888886
20
256.79996944444446
30
0
10
-364.35761222222226
20
256.21788611111106
30
0
10
-364.35761222222226
20
254.78208055555547
30
0
10
-363.77552888888886
20
254.19999722222215
30
0
10
-363.05762611111106
20
254.19999722222215
30
0
0
LINE
5
350
100
AcDbEntity
8
0
100
AcDbLine
10
-262.94241361111108
20
279.8000222222222
30
0
11
-259.94239138888884
21
279.8000222222222
31
0
0
LINE
5
351
100
AcDbEntity
8
0
100
AcDbLine
10
-360.05760388888882
20
279.8000222222222
30
0
11
-363.05762611111106
21
279.8000222222222
31
0
0
LINE
5
352
100
AcDbEntity
8
0
100
AcDbLine
10
-337.05758638888886
20
256.80000472222224
30
0
11
-340.05760861111116
21
256.80000472222224
31
0
0
CIRCLE
5
353
100
AcDbEntity
8
0
100
AcDbCircle
10
-376.00000113248825
20
257.00000114738941
30
0
40
1.5999999999999943
210
0
220
0
230
1
0
LINE
5
354
100
AcDbEntity
8
0
100
AcDbLine
10
-236.94237388888891
20
277.20005000000003
30
0
11
-239.94239611111115
21
277.20005000000003
31
0
0
SPLINE
5
355
100
AcDbEntity
8
0
100
AcDbSpline
70
0
71
3
72
10
73
6
74
0
42
0.000000001
43
0.0000000001
44
0.0000000001
40
3
40
3
40
3
40
3
40
4
40
4
40
5
40
5
40
5
40
5
10
-337.05758638888886
20
254.20003249999993
30
0
10
-336.33968361111113
20
254.20003249999993
30
0
10
-335.75760027777778
20
254.78211583333334
30
0
10
-335.75760027777778
20
256.21792138888884
30
0
10
-336.33968361111113
20
256.80000472222224
30
0
10
-337.05758638888886
20
256.80000472222224
30
0
0
SPLINE
5
356
100
AcDbEntity
8
0
100
AcDbSpline
70
0
71
3
72
10
73
6
74
0
42
0.000000001
43
0.0000000001
44
0.0000000001
40
3
40
3
40
3
40
3
40
4
40
4
40
5
40
5
40
5
40
5
10
-262.94241361111108
20
254.20003249999993
30
0
10
-263.66031638888882
20
254.20003249999993
30
0
10
-264.24239972222222
20
254.78211583333334
30
0
10
-264.24239972222222
20
256.21792138888884
30
0
10
-263.66031638888882
20
256.80000472222224
30
0
10
-262.94241361111108
20
256.80000472222224
30
0
0
SPLINE
5
357
100
AcDbEntity
8
0
100
AcDbSpline
70
0
71
3
72
10
73
6
74
0
42
0.000000001
43
0.0000000001
44
0.0000000001
40
0
40
0
40
0
40
0
40
1
40
1
40
2
40
2
40
2
40
2
10
-360.05760388888882
20
254.19999722222215
30
0
10
-359.33970111111108
20
254.19999722222215
30
0
10
-358.75761777777774
20
254.78208055555547
30
0
10
-358.75761777777774
20
256.21788611111106
30
0
10
-359.33970111111108
20
256.79996944444446
30
0
10
-360.05760388888882
20
256.79996944444446
30
0
0
LINE
5
358
100
AcDbEntity
8
0
100
AcDbLine
10
-262.94241361111108
20
256.80000472222224
30
0
11
-259.94239138888884
21
256.80000472222224
31
0
0
CIRCLE
5
359
100
AcDbEntity
8
0
100
AcDbCircle
10
-223.99999886751175
20
267.00000129640102
30
0
40
1.6000000000000014
210
0
220
0
230
1
0
CIRCLE
5
360
100
AcDbEntity
8
0
100
AcDbCircle
10
-282.49999970197678
20
272.0000011920929
30
0
40
2.0999999999999996
210
0
220
0
230
1
0
SPLINE
5
361
100
AcDbEntity
8
0
100
AcDbSpline
70
0
71
3
72
10
73
6
74
0
42
0.000000001
43
0.0000000001
44
0.0000000001
40
0
40
0
40
0
40
0
40
1
40
1
40
2
40
2
40
2
40
2
10
-259.94239138888884
20
279.8000222222222
30
0
10
-259.22448861111104
20
279.8000222222222
30
0
10
-258.64240527777775
20
279.21793888888885
30
0
10
-258.64240527777775
20
277.78213333333332
30
0
10
-259.22448861111104
20
277.20005000000003
30
0
10
-259.94239138888884
20
277.20005000000003
30
0
0
LINE
5
362
100
AcDbEntity
8
0
100
AcDbLine
10
-259.94239138888884
20
277.20005000000003
30
0
11
-262.94241361111108
21
277.20005000000003
31
0
0
SPLINE
5
363
100
AcDbEntity
8
0
100
AcDbSpline
70
0
71
3
72
10
73
6
74
0
42
0.000000001
43
0.0000000001
44
0.0000000001
40
0
40
0
40
0
40
0
40
1
40
1
40
2
40
2
40
2
40
2
10
-239.94239611111115
20
254.19999722222215
30
0
10
-240.66029888888892
20
254.19999722222215
30
0
10
-241.24238222222226
20
254.78208055555547
30
0
10
-241.24238222222226
20
256.21788611111106
30
0
10
-240.66029888888892
20
256.79996944444446
30
0
10
-239.94239611111115
20
256.79996944444446
30
0
0
LINE
5
364
100
AcDbEntity
8
0
100
AcDbLine
10
-360.05760388888882
20
256.79996944444446
30
0
11
-363.05762611111106
21
256.79996944444446
31
0
0
SPLINE
5
365
100
AcDbEntity
8
0
100
AcDbSpline
70
0
71
3
72
10
73
6
74
0
42
0.000000001
43
0.0000000001
44
0.0000000001
40
0
40
0
40
0
40
0
40
1
40
1
40
2
40
2
40
2
40
2
10
-236.94237388888891
20
279.8000222222222
30
0
10
-236.22447111111109
20
279.8000222222222
30
0
10
-235.64238777777774
20
279.21793888888885
30
0
10
-235.64238777777774
20
277.78213333333332
30
0
10
-236.22447111111109
20
277.20005000000003
30
0
10
-236.94237388888891
20
277.20005000000003
30
0
0
SPLINE
5
366
100
AcDbEntity
8
0
100
AcDbSpline
70
0
71
3
72
10
73
6
74
0
42
0.000000001
43
0.0000000001
44
0.0000000001
40
0
40
0
40
0
40
0
40
1
40
1
40
2
40
2
40
2
40
2
10
-259.94239138888884
20
256.80000472222224
30
0
10
-259.22448861111104
20
256.80000472222224
30
0
10
-258.64240527777775
20
256.21792138888884
30
0
10
-258.64240527777775
20
254.78211583333334
30
0
10
-259.22448861111104
20
254.20003249999993
30
0
10
-259.94239138888884
20
254.20003249999993
30
0
0
SPLINE
5
367
100
AcDbEntity
8
0
100
AcDbSpline
70
0
71
3
72
10
73
6
74
0
42
0.000000001
43
0.0000000001
44
0.0000000001
40
3
40
3
40
3
40
3
40
4
40
4
40
5
40
5
40
5
40
5
10
-351.55763500000006
20
278.19999861111108
30
0
10
-357.74324055555553
20
278.19999861111108
30
0
10
-362.75762388888893
20
273.18561527777774
30
0
10
-362.75762388888893
20
260.81440416666669
30
0
10
-357.74324055555553
20
255.80002083333329
30
0
10
-351.55763500000006
20
255.80002083333329
30
0
0
LINE
5
368
100
AcDbEntity
8
0
100
AcDbLine
10
-248.44236499999994
20
255.80002083333329
30
0
11
-251.44238722222212
21
255.80002083333329
31
0
0
SPLINE
5
369
100
AcDbEntity
8
0
100
AcDbSpline
70
0
71
3
72
10
73
6
74
0
42
0.000000001
43
0.0000000001
44
0.0000000001
40
3
40
3
40
3
40
3
40
4
40
4
40
5
40
5
40
5
40
5
10
-262.94241361111108
20
277.20005000000003
30
0
10
-263.66031638888882
20
277.20005000000003
30
0
10
-264.24239972222222
20
277.78213333333332
30
0
10
-264.24239972222222
20
279.21793888888885
30
0
10
-263.66031638888882
20
279.8000222222222
30
0
10
-262.94241361111108
20
279.8000222222222
30
0
0
LINE
5
370
100
AcDbEntity
8
0
100
AcDbLine
10
-259.94239138888884
20
254.20003249999993
30
0
11
-262.94241361111108
21
254.20003249999993
31
0
0
SPLINE
5
371
100
AcDbEntity
8
0
100
AcDbSpline
70
0
71
3
72
10
73
6
74
0
42
0.000000001
43
0.0000000001
44
0.0000000001
40
3
40
3
40
3
40
3
40
4
40
4
40
5
40
5
40
5
40
5
10
-236.94237388888891
20
256.79996944444446
30
0
10
-236.22447111111114
20
256.79996944444446
30
0
10
-235.64238777777774
20
256.21788611111106
30
0
10
-235.64238777777774
20
254.78208055555547
30
0
10
-236.22447111111114
20
254.19999722222215
30
0
10
-236.94237388888891
20
254.19999722222215
30
0
0
LWPOLYLINE
5
372
100
AcDbEntity
8
0
100
AcDbPolyline
90
40
70
1
43
0.0
10
-382.00000122189522
20
251.00000105798244
10
-382.00000122189522
20
288.0000015348196
10
-360.00000536441803
20
288.00000424683094
10
-360.00000536441803
20
293.00000432133675
10
-340.00000506639481
20
293.00000432133675
10
-340.00000506639481
20
288.00000424683094
10
-326.60000447034838
20
288.00000499188906
10
-326.60000447034838
20
284.75000466406345
10
-327.7000044703484
20
284.75000466406351
10
-327.7000044703484
20
282.25000466406351
10
-326.60000447034838
20
282.25000466406345
10
-326.60000447034838
20
280.00000433623785
10
-323.40000447034839
20
280.00000433623785
10
-323.40000447034839
20
282.25000466406345
10
-322.30000447034843
20
282.25000466406345
10
-322.30000447034843
20
284.75000466406345
10
-323.40000447034839
20
284.75000466406345
10
-323.40000447034839
20
288.00000499188906
10
-310.00000461935997
20
288.00000424683094
10
-310.00000461935997
20
293.00000432133675
10
-290.00000432133675
20
293.00000432133675
10
-290.00000432133675
20
288.00000424683094
10
-276.60000447034838
20
288.00000499188906
10
-276.60000447034838
20
284.75000466406345
10
-277.7000044703484
20
284.75000466406351
10
-277.7000044703484
20
282.25000466406351
10
-276.60000447034838
20
282.25000466406345
10
-276.60000447034838
20
280.00000433623785
10
-273.40000447034839
20
280.00000433623785
10
-273.40000447034839
20
282.25000466406345
10
-272.30000447034843
20
282.25000466406345
10
-272.30000447034843
20
284.75000466406345
10
-273.40000447034839
20
284.75000466406345
10
-273.40000447034839
20
288.00000499188906
10
-260.00000387430191
20
288.00000424683094
10
-260.00000387430191
20
293.00000432133675
10
-240.00000357627869
20
293.00000432133675
10
-240.00000357627869
20
288.00000424683094
10
-217.99999877810478
20
288.0000015348196
10
-217.99999877810478
20
251.00000105798244
0
CIRCLE
5
373
100
AcDbEntity
8
0
100
AcDbCircle
10
-300
20
257.00000089406967
30
0
40
2.099999999999997
210
0
220
0
230
1
0
LINE
5
374
100
AcDbEntity
8
0
100
AcDbLine
10
-363.05762611111106
20
277.20005000000003
30
0
11
-360.05760388888882
21
277.20005000000003
31
0
0
LINE
5
375
100
AcDbEntity
8
0
100
AcDbLine
10
-251.44238722222212
20
278.19999861111108
30
0
11
-248.44236499999994
21
278.19999861111108
31
0
0
LINE
5
376
100
AcDbEntity
8
0
100
AcDbLine
10
-236.94237388888891
20
254.19999722222215
30
0
11
-239.94239611111115
21
254.19999722222215
31
0
0
LINE
5
377
100
AcDbEntity
8
0
100
AcDbLine
10
-363.05762611111106
20
254.19999722222215
30
0
11
-360.05760388888882
21
254.19999722222215
31
0
0
CIRCLE
5
378
100
AcDbEntity
8
0
100
AcDbCircle
10
-223.99999886751175
20
257.00000114738941
30
0
40
1.5999999999999943
210
0
220
0
230
1
0
SPLINE
5
379
100
AcDbEntity
8
0
100
AcDbSpline
70
0
71
3
72
10
73
6
74
0
42
0.000000001
43
0.0000000001
44
0.0000000001
40
0
40
0
40
0
40
0
40
1
40
1
40
2
40
2
40
2
40
2
10
-340.05760861111116
20
256.80000472222224
30
0
10
-340.77551138888896
20
256.80000472222224
30
0
10
-341.35759472222219
20
256.21792138888884
30
0
10
-341.35759472222219
20
254.78211583333334
30
0
10
-340.77551138888896
20
254.20003249999993
30
0
10
-340.05760861111116
20
254.20003249999993
30
0
0
SPLINE
5
380
100
AcDbEntity
8
0
100
AcDbSpline
70
0
71
3
72
10
73
6
74
0
42
0.000000001
43
0.0000000001
44
0.0000000001
40
0
40
0
40
0
40
0
40
1
40
1
40
2
40
2
40
2
40
2
10
-340.05760861111116
20
279.8000222222222
30
0
10
-340.77551138888896
20
279.8000222222222
30
0
10
-341.35759472222219
20
279.21793888888885
30
0
10
-341.35759472222219
20
277.78213333333332
30
0
10
-340.77551138888896
20
277.20005000000003
30
0
10
-340.05760861111116
20
277.20005000000003
30
0
0
SPLINE
5
381
100
AcDbEntity
8
0
100
AcDbSpline
70
0
71
3
72
10
73
6
74
0
42
0.000000001
43
0.0000000001
44
0.0000000001
40
3
40
3
40
3
40
3
40
4
40
4
40
5
40
5
40
5
40
5
10
-337.05758638888886
20
277.20005000000003
30
0
10
-336.33968361111113
20
277.20005000000003
30
0
10
-335.75760027777778
20
277.78213333333332
30
0
10
-335.75760027777778
20
279.21793888888885
30
0
10
-336.33968361111113
20
279.8000222222222
30
0
10
-337.05758638888886
20
279.8000222222222
30
0
0
LINE
5
382
100
AcDbEntity
8
0
100
AcDbLine
10
-337.05758638888886
20
279.8000222222222
30
0
11
-340.05760861111116
21
279.8000222222222
31
0
0
LINE
5
383
100
AcDbEntity
8
0
100
AcDbLine
10
-239.94239611111115
20
256.79996944444446
30
0
11
-236.94237388888891
21
256.79996944444446
31
0
0
LINE
5
384
100
AcDbEntity
8
0
100
AcDbLine
10
-340.05760861111116
20
277.20005000000003
30
0
11
-337.05758638888886
21
277.20005000000003
31
0
0
LINE
5
385
100
AcDbEntity
8
0
100
AcDbLine
10
-348.55761277777788
20
278.19999861111108
30
0
11
-351.55763500000006
21
278.19999861111108
31
0
0
SPLINE
5
386
100
AcDbEntity
8
0
100
AcDbSpline
70
0
71
3
72
10
73
6
74
0
42
0.000000001
43
0.0000000001
44
0.0000000001
40
3
40
3
40
3
40
3
40
4
40
4
40
5
40
5
40
5
40
5
10
-360.05760388888882
20
277.20005000000003
30
0
10
-359.33970111111108
20
277.20005000000003
30
0
10
-358.75761777777774
20
277.78213333333332
30
0
10
-358.75761777777774
20
279.21793888888885
30
0
10
-359.33970111111108
20
279.8000222222222
30
0
10
-360.05760388888882
20
279.8000222222222
30
0
0
SPLINE
5
387
100
AcDbEntity
8
0
100
AcDbSpline
70
0
71
3
72
10
73
6
74
0
42
0.000000001
43
0.0000000001
44
0.0000000001
40
3
40
3
40
3
40
3
40
4
40
4
40
5
40
5
40
5
40
5
10
-248.44236499999994
20
278.19999861111108
30
0
10
-242.25675944444444
20
278.19999861111108
30
0
10
-237.24237611111104
20
273.18561527777774
30
0
10
-237.24237611111104
20
260.81440416666669
30
0
10
-242.25675944444444
20
255.80002083333329
30
0
10
-248.44236499999994
20
255.80002083333329
30
0
0
LINE
5
388
100
AcDbEntity
8
0
100
AcDbLine
10
-340.05760861111116
20
254.20003249999993
30
0
11
-337.05758638888886
21
254.20003249999993
31
0
0
SPLINE
5
389
100
AcDbEntity
8
0
100
AcDbSpline
70
0
71
3
72
10
73
6
74
0
42
0.000000001
43
0.0000000001
44
0.0000000001
40
0
40
0
40
0
40
0
40
1
40
1
40
2
40
2
40
2
40
2
10
-251.44238722222212
20
255.80002083333329
30
0
10
-257.62799277777776
20
255.80002083333329
30
0
10
-262.64237611111105
20
260.81440416666669
30
0
10
-262.64237611111105
20
273.18561527777774
30
0
10
-257.62799277777776
20
278.19999861111108
30
0
10
-251.44238722222212
20
278.19999861111108
30
0
0
SPLINE
5
390
100
AcDbEntity
8
0
100
AcDbSpline
70
0
71
3
72
10
73
6
74
0
42
0.000000001
43
0.0000000001
44
0.0000000001
40
0
40
0
40
0
40
0
40
1
40
1
40
2
40
2
40
2
40
2
10
-348.55761277777788
20
255.80002083333329
30
0
10
-342.37200722222224
20
255.80002083333329
30
0
10
-337.35762388888895
20
260.81440416666669
30
0
10
-337.35762388888895
20
273.18561527777774
30
0
10
-342.37200722222224
20
278.19999861111108
30
0
10
-348.55761277777788
20
278.19999861111108
30
0
0
SPLINE
5
391
100
AcDbEntity
8
0
100
AcDbSpline
70
0
71
3
72
10
73
6
74
0
42
0.000000001
43
0.0000000001
44
0.0000000001
40
3
40
3
40
3
40
3
40
4
40
4
40
5
40
5
40
5
40
5
10
-239.94239611111115
20
277.20005000000003
30
0
10
-240.66029888888892
20
277.20005000000003
30
0
10
-241.24238222222226
20
277.78213333333332
30
0
10
-241.24238222222226
20
279.21793888888885
30
0
10
-240.66029888888892
20
279.8000222222222
30
0
10
-239.94239611111115
20
279.8000222222222
30
0
0
CIRCLE
5
392
100
AcDbEntity
8
0
100
AcDbCircle
10
-376.00000113248825
20
267.00000129640102
30
0
40
1.6000000000000014
210
0
220
0
230
1
0
CIRCLE
5
393
100
AcDbEntity
8
0
100
AcDbCircle
10
-376.00000113248825
20
277.00000144541264
30
0
40
1.5999999999999956
210
0
220
0
230
1
0
CIRCLE
5
394
100
AcDbEntity
8
0
100
AcDbCircle
10
-223.99999886751175
20
277.00000144541264
30
0
40
1.5999999999999956
210
0
220
0
230
1
0
LINE
5
395
100
AcDbEntity
8
0
100
AcDbLine
10
-351.55763500000006
20
255.80002083333329
30
0
11
-348.55761277777788
21
255.80002083333329
31
0
0
CIRCLE
5
396
100
AcDbEntity
8
0
100
AcDbCircle
10
-317.50000029802322
20
272.0000011920929
30
0
40
2.1000000000000005
210
0
220
0
230
1
0
LINE
5
397
100
AcDbEntity
8
0
100
AcDbLine
10
-239.94239611111115
20
279.8000222222222
30
0
11
-236.94237388888891
21
279.8000222222222
31
0
0
SPLINE
5
398
100
AcDbEntity
8
0
100
AcDbSpline
70
0
71
3
72
10
73
6
74
0
42
0.000000001
43
0.0000000001
44
0.0000000001
40
0
40
0
40
0
40
0
40
1
40
1
40
2
40
2
40
2
40
2
10
-363.05762611111106
20
279.8000222222222
30
0
10
-363.77552888888891
20
279.8000222222222
30
0
10
-364.35761222222226
20
279.21793888888885
30
0
10
-364.35761222222226
20
277.78213333333332
30
0
10
-363.77552888888891
20
277.20005000000003
30
0
10
-363.05762611111106
20
277.20005000000003
30
0
0
CIRCLE
5
399
100
AcDbEntity
8
0
100
AcDbCircle
10
-329.00000342726707
20
222.34369048702183
30
0
40
1.4000000000000057
210
0
220
0
230
1
0
CIRCLE
5
400
100
AcDbEntity
8
0
100
AcDbCircle
10
-329.00000342726707
20
173.34369048702195
30
0
40
1.3999999999999697
210
0
220
0
230
1
0
CIRCLE
5
401
100
AcDbEntity
8
0
100
AcDbCircle
10
-271.00000342726707
20
173.34369048702186
30
0
40
1.4000000000000057
210
0
220
0
230
1
0
CIRCLE
5
402
100
AcDbEntity
8
0
100
AcDbCircle
10
-271.00000342726707
20
222.34369048702183
30
0
40
1.4000000000000032
210
0
220
0
230
1
0
CIRCLE
5
403
100
AcDbEntity
8
0
100
AcDbCircle
10
-180.0000025331974
20
-137.000005453825
30
0
40
1.6000000000000003
210
0
220
0
230
1
0
CIRCLE
5
404
100
AcDbEntity
8
0
100
AcDbCircle
10
-180.0000025331974
20
96.999997720122337
30
0
40
1.6000000000000003
210
0
220
0
230
1
0
CIRCLE
5
405
100
AcDbEntity
8
0
100
AcDbCircle
10
-180.0000025331974
20
76.999997720122337
30
0
40
1.6000000000000003
210
0
220
0
230
1
0
LWPOLYLINE
5
406
100
AcDbEntity
8
0
100
AcDbPolyline
90
6
70
1
43
0.0
10
-183.0000027269125
20
103.00000160932541
10
-174.00000259280205
20
103.00000160932541
10
-174.00000259280205
20
-147.0000021904707
10
-183.0000027269125
20
-147.0000021904707
10
-186.00000277161598
20
-144.00000214576721
10
-186.00000277161598
20
100.00000156462193
0
LWPOLYLINE
5
407
100
AcDbEntity
8
0
100
AcDbPolyline
90
6
70
1
43
0.0
10
-157.00000263750553
20
-147.0000021904707
10
-166.00000277161598
20
-147.0000021904707
10
-166.00000277161598
20
103.00000160932541
10
-157.00000263750553
20
103.00000160932541
10
-154.00000259280205
20
100.00000156462193
10
-154.00000259280205
20
-144.00000214576721
0
CIRCLE
5
408
100
AcDbEntity
8
0
100
AcDbCircle
10
-160.0000025331974
20
96.999997720122337
30
0
40
1.6000000000000003
210
0
220
0
230
1
0
CIRCLE
5
409
100
AcDbEntity
8
0
100
AcDbCircle
10
-160.0000025331974
20
-137.000005453825
30
0
40
1.6000000000000003
210
0
220
0
230
1
0
CIRCLE
5
410
100
AcDbEntity
8
0
100
AcDbCircle
10
-160.0000025331974
20
76.999997720122337
30
0
40
1.6000000000000003
210
0
220
0
230
1
0
CIRCLE
5
411
100
AcDbEntity
8
0
100
AcDbCircle
10
-140.00000208616257
20
97.000001445412636
30
0
40
1.600000000000007
210
0
220
0
230
1
0
CIRCLE
5
412
100
AcDbEntity
8
0
100
AcDbCircle
10
-140.00000208616257
20
97.000001445412636
30
0
40
2.499999999999996
210
0
220
0
230
1
0
CIRCLE
5
413
100
AcDbEntity
8
0
100
AcDbCircle
10
-140.00000208616257
20
-136.99999855458739
30
0
40
1.600000000000007
210
0
220
0
230
1
0
CIRCLE
5
414
100
AcDbEntity
8
0
100
AcDbCircle
10
-140.00000208616257
20
-136.99999855458739
30
0
40
2.499999999999996
210
0
220
0
230
1
0
CIRCLE
5
415
100
AcDbEntity
8
0
100
AcDbCircle
10
-120.00000208616257
20
97.000001445412636
30
0
40
1.600000000000007
210
0
220
0
230
1
0
CIRCLE
5
416
100
AcDbEntity
8
0
100
AcDbCircle
10
-120.00000208616257
20
97.000001445412636
30
0
40
2.499999999999996
210
0
220
0
230
1
0
CIRCLE
5
417
100
AcDbEntity
8
0
100
AcDbCircle
10
-120.00000208616257
20
-136.99999855458739
30
0
40
1.600000000000007
210
0
220
0
230
1
0
CIRCLE
5
418
100
AcDbEntity
8
0
100
AcDbCircle
10
-120.00000208616257
20
-136.99999855458739
30
0
40
2.499999999999996
210
0
220
0
230
1
0
LWPOLYLINE
5
419
100
AcDbEntity
8
0
100
AcDbPolyline
90
8
70
1
43
0.0
10
189.70000268220903
20
35.00000074505806
10
170.30000268220903
20
35.00000074505806
42
-2.4142135623730949
10
170.00000268220901
20
35.300000745058057
10
170.00000268220901
20
64.700000745058048
42
-2.4142135623730949
10
170.30000268220903
20
65.00000074505806
10
189.700002682209
20
65.00000074505806
42
-2.4142135623730949
10
190.00000268220901
20
64.700000745058063
10
190.00000268220901
20
35.300000745058036
42
-2.4142135623730949
0
LWPOLYLINE
5
420
100
AcDbEntity
8
0
100
AcDbPolyline
90
4
70
1
43
0.0
10
192.00000268220901
20
33.00000074505806
10
168.00000268220901
20
33.00000074505806
10
168.00000268220901
20
67.00000074505806
10
192.00000268220901
20
67.00000074505806
0
LINE
5
421
100
AcDbEntity
8
0
100
AcDbLine
10
171.00000254809856
20
65.000000968575478
30
0
11
171.00000254809856
21
35.00000074505806
31
0
0
LINE
5
422
100
AcDbEntity
8
0
100
AcDbLine
10
189.00000281631947
20
65.000000968575478
30
0
11
189.00000281631947
21
35.00000074505806
31
0
0
LINE
5
423
100
AcDbEntity
8
0
100
AcDbLine
10
175.00000260770321
20
35.00000074505806
30
0
11
175.00000260770321
21
33.00000074505806
31
0
0
LINE
5
424
100
AcDbEntity
8
0
100
AcDbLine
10
185.00000275671482
20
33.00000074505806
30
0
11
185.00000275671482
21
35.00000074505806
31
0
0
CIRCLE
5
425
100
AcDbEntity
8
0
100
AcDbCircle
10
164.0000024586916
20
50.00000074505806
30
0
40
1.5999999999999894
210
0
220
0
230
1
0
CIRCLE
5
426
100
AcDbEntity
8
0
100
AcDbCircle
10
196.00000292062759
20
50.00000074505806
30
0
40
1.5999999999999943
210
0
220
0
230
1
0
LINE
5
427
100
AcDbEntity
8
0
100
AcDbLine
10
196.00000292062759
20
47.000000700354576
30
0
11
192.00000268220901
21
47.000000700354576
31
0
0
LINE
5
428
100
AcDbEntity
8
0
100
AcDbLine
10
168.00000268220901
20
47.000000700354576
30
0
11
164.00000244379044
21
47.000000700354576
31
0
0
LINE
5
429
100
AcDbEntity
8
0
100
AcDbLine
10
164.00000244379044
20
53.000000789761543
30
0
11
168.00000268220901
21
53.000000789761543
31
0
0
LINE
5
430
100
AcDbEntity
8
0
100
AcDbLine
10
192.00000268220901
20
53.000000789761543
30
0
11
196.00000292062759
21
53.000000789761543
31
0
0
ARC
5
431
100
AcDbEntity
8
0
100
AcDbCircle
10
196.00000292062759
20
50.00000074505806
30
0
40
3.0000000447034836
210
0
220
0
230
1
100
AcDbArc
50
-90
51
90
0
ARC
5
432
100
AcDbEntity
8
0
100
AcDbCircle
10
164.0000024586916
20
50.00000074505806
30
0
40
3.0000000447034836
210
0
220
0
230
1
100
AcDbArc
50
90.000000284591223
51
269.99999971540882
0
LINE
5
433
100
AcDbEntity
8
0
100
AcDbLine
10
185.00000275671482
20
65.00000074505806
30
0
11
185.00000275671482
21
67.00000074505806
31
0
0
LINE
5
434
100
AcDbEntity
8
0
100
AcDbLine
10
175.00000260770321
20
67.00000074505806
30
0
11
175.00000260770321
21
65.00000074505806
31
0
0
ARC
5
435
100
AcDbEntity
8
0
100
AcDbCircle
10
212.49966292862194
20
49.999799044834681
30
0
40
3.0000000447034587
210
0
220
-0
230
1
100
AcDbArc
50
89.999816875964626
51
269.99981143015378
0
LWPOLYLINE
5
436
100
AcDbEntity
8
0
100
AcDbPolyline
90
4
70
1
43
0.0
10
244.00000268220901
20
30.033334078391402
10
216.00000268220901
20
30.033334078391412
10
216.00000268220901
20
70.033334078391405
10
244.00000268220901
20
70.033334078391391
0
CIRCLE
5
437
100
AcDbEntity
8
0
100
AcDbCircle
10
212.49966292862194
20
49.999799044834681
30
0
40
1.5999999999999894
210
0
220
0
230
1
0
LWPOLYLINE
5
438
100
AcDbEntity
8
0
100
AcDbPolyline
90
8
70
1
43
0.0
10
241.70000268220903
20
32.00000074505806
10
218.30000268220903
20
32.00000074505806
42
-2.4142135623730949
10
218.00000268220901
20
32.300000745058057
10
218.00000268220901
20
67.700000745058048
42
-2.4142135623730949
10
218.30000268220903
20
68.00000074505806
10
241.700002682209
20
68.00000074505806
42
-2.4142135623730949
10
242.00000268220901
20
67.700000745058048
10
242.00000268220901
20
32.300000745058036
42
-2.4142135623730949
0
LINE
5
439
100
AcDbEntity
8
0
100
AcDbLine
10
216.00000268220901
20
46.99979899981934
30
0
11
212.49965305512774
21
46.999799000147448
31
0
0
LINE
5
440
100
AcDbEntity
8
0
100
AcDbLine
10
212.49967251697416
20
52.999799089522817
30
0
11
216.00000268220901
21
52.999796886403281
31
0
0
LINE
5
441
100
AcDbEntity
8
0
100
AcDbLine
10
240.9901973881677
20
68.00000074505806
30
0
11
240.9901973881677
21
32.00000074505806
31
0
0
LINE
5
442
100
AcDbEntity
8
0
100
AcDbLine
10
219.00000254809856
20
68.00000074505806
30
0
11
219.00000254809856
21
32.00000074505806
31
0
0
CIRCLE
5
443
100
AcDbEntity
8
0
100
AcDbCircle
10
247.5003439259122
20
49.999799044834681
30
0
40
1.5999999999999894
210
0
220
0
230
1
0
LINE
5
444
100
AcDbEntity
8
0
100
AcDbLine
10
247.50033433755999
20
52.999799089522817
30
0
11
244.00000417232513
21
52.999796886403281
31
0
0
LINE
5
445
100
AcDbEntity
8
0
100
AcDbLine
10
244.00000417232513
20
46.99979899981934
30
0
11
247.50035379940641
21
46.999799000147448
31
0
0
ARC
5
446
100
AcDbEntity
8
0
100
AcDbCircle
10
247.5003439259122
20
49.999799044834681
30
0
40
3.0000000447034862
210
-0
220
0
230
1
100
AcDbArc
50
-89.99981143015377
51
90.000183124035374
0
CIRCLE
5
447
100
AcDbEntity
8
0
100
AcDbCircle
10
-268.00000447034836
20
177.50000292062759
30
0
40
1.6000000000000012
210
0
220
0
230
1
0
CIRCLE
5
448
100
AcDbEntity
8
0
100
AcDbCircle
10
-332.00000447034836
20
218.50000292062757
30
0
40
1.6000000000000061
210
0
220
0
230
1
0
CIRCLE
5
449
100
AcDbEntity
8
0
100
AcDbCircle
10
-376.99999751150619
20
181.00000080466253
30
0
40
1.5999999999999899
210
0
220
0
230
1
0
CIRCLE
5
450
100
AcDbEntity
8
0
100
AcDbCircle
10
-376.99999751150619
20
213.00000126659853
30
0
40
1.5999999999999945
210
0
220
0
230
1
0
CIRCLE
5
451
100
AcDbEntity
8
0
100
AcDbCircle
10
-225.99999947622248
20
213.00013813010651
30
0
40
1.5999999999999899
210
0
220
0
230
1
0
CIRCLE
5
452
100
AcDbEntity
8
0
100
AcDbCircle
10
-225.99999947622248
20
177.99945713281625
30
0
40
1.5999999999999899
210
0
220
0
230
1
0
LWPOLYLINE
5
453
100
AcDbEntity
8
0
100
AcDbPolyline
90
4
70
1
43
0.0
10
-210.00000312924385
20
222.00000327825546
10
-208.50000312924385
20
222.00000327825546
10
-208.50000312924385
20
217.00000320374966
10
-210.00000312924385
20
217.00000320374966
0
LWPOLYLINE
5
454
100
AcDbEntity
8
0
100
AcDbPolyline
90
4
70
1
43
0.0
10
-391.00000312924385
20
222.00000327825546
10
-389.50000312924379
20
222.00000327825546
10
-389.50000312924379
20
217.00000320374966
10
-391.00000312924385
20
217.00000320374966
0
CIRCLE
5
455
100
AcDbEntity
8
0
100
AcDbCircle
10
-332.00000447034836
20
177.50000292062754
30
0
40
1.5999999999999659
210
0
220
0
230
1
0
CIRCLE
5
456
100
AcDbEntity
8
0
100
AcDbCircle
10
-268.00000447034841
20
218.50000292062757
30
0
40
1.6000000000000156
210
0
220
0
230
1
0
LWPOLYLINE
5
457
100
AcDbEntity
8
0
100
AcDbPolyline
90
14
70
1
43
0.0
10
-449.5000044703483
20
-266.50000461936003
10
-449.5000044703483
20
-415.50000461936003
10
-459.00000387430191
20
-415.50000461936008
10
-541.00000506639481
20
-415.50000461936003
10
-550.50000447034517
20
-415.50000461936264
10
-550.50000447034631
20
-266.50000461936264
10
-550.50000447034631
20
-257.00000461936264
42
-0.41421356237309503
10
-549.50000447034631
20
-256.00000461936264
10
-541.00000447034643
20
-256.00000461936264
42
-0.41421356237309503
10
-540.00000447034631
20
-257.00000461936264
10
-540.00000447034631
20
-265.50000461936258
42
0.4142135623730846
10
-539.00000447034631
20
-266.50000461936264
10
-506.00000447034847
20
-266.50000461936003
42
-0.99999999999999989
10
-494.00000447034824
20
-266.50000461936003
0
LWPOLYLINE
5
458
100
AcDbEntity
8
0
100
AcDbPolyline
90
6
70
1
43
0.0
10
-417.5000044703495
20
-421.0000241510561
10
-417.50000447034836
20
-203.00000461935994
10
-582.50000447034836
20
-203.00000461935991
10
-582.50000447034836
20
-421.00000461935991
10
-540.00000506639481
20
-421.00001139566251
10
-460.00000387430191
20
-421.0000241510561
0
ENDSEC
0
SECTION
2
OBJECTS
0
DICTIONARY
5
C
100
AcDbDictionary
3
ACAD_GROUP
350
D
3
ACAD_MLINESTYLE
350
17
0
DICTIONARY
5
D
100
AcDbDictionary
0
DICTIONARY
5
1A
330
C
100
AcDbDictionary
0
DICTIONARY
5
17
100
AcDbDictionary
0
ENDSEC
0
EOF
