<?xml version="1.0" encoding="UTF-8" ?>
<!DOCTYPE svg PUBLIC "-//W3C//DTD SVG 1.1//EN" "http://www.w3.org/Graphics/SVG/1.1/DTD/svg11.dtd" >

<svg xmlns="http://www.w3.org/2000/svg" xmlns:xlink="http://www.w3.org/1999/xlink" version="1.1">

<metadata>
Font name:KST32B
</metadata>
<defs>
<font id="KST32B" horiz-adv-x="1000">
<font-face
font-family="KST"
units-per-em="1000"
ascent="800"
descent="-200"
cap-height="500"
x-height="300"
/>
<missing-glyph horiz-adv-x="1000" />
<glyph unicode="&#x20;" glyph-name="SPACE" horiz-adv-x="500"/>
<glyph unicode="&#x21;" glyph-name="EXCLAMATION MARK" horiz-adv-x="500" d="M 150 270 L 330 750 M 330 750 L 330 810 M 330 810 L 270 810 M 270 810 L 240 750 M 240 750 L 150 270 M 150 150 L 150 120 M 150 120 L 120 90 M 120 90 L 90 90 M 90 90 L 60 120 M 60 120 L 60 150 M 60 150 L 90 180 M 90 180 L 120 180 M 120 180 L 150 150"/>
<glyph unicode="&#x22;" glyph-name="QUOTATION MARK" horiz-adv-x="500" d="M 150 690 L 150 870 M 270 870 L 270 690"/>
<glyph unicode="&#x23;" glyph-name="NUMBER SIGN" horiz-adv-x="500" d="M 0 330 L 420 330 M 420 630 L 0 630 M 150 810 L 30 120 M 270 120 L 390 810"/>
<glyph unicode="&#x24;" glyph-name="DOLLAR SIGN" horiz-adv-x="500" d="M 0 120 L 300 120 M 300 120 L 360 150 M 360 150 L 420 240 M 420 240 L 420 330 M 420 330 L 360 450 M 360 450 L 300 480 M 300 480 L 150 480 M 150 480 L 90 510 M 90 510 L 30 570 M 30 570 L 30 690 M 30 690 L 90 750 M 90 750 L 150 780 M 150 780 L 420 780 M 270 840 L 270 60 M 180 60 L 180 840"/>
<glyph unicode="&#x25;" glyph-name="PERCENT SIGN" horiz-adv-x="500" d="M 0 600 L 60 510 M 60 510 L 120 510 M 120 510 L 180 600 M 180 600 L 180 720 M 180 720 L 120 810 M 120 810 L 60 810 M 60 810 L 0 720 M 0 720 L 0 600 M 0 90 L 420 810 M 420 300 L 360 390 M 360 390 L 300 390 M 300 390 L 240 300 M 240 300 L 240 180 M 240 180 L 300 90 M 300 90 L 360 90 M 360 90 L 420 180 M 420 180 L 420 300"/>
<glyph unicode="&#x26;" glyph-name="AMPERSAND" horiz-adv-x="500" d="M 420 90 L 300 150 M 300 150 L 210 270 M 210 270 L 60 660 M 60 660 L 60 780 M 60 780 L 120 840 M 120 840 L 210 840 M 210 840 L 270 780 M 270 780 L 270 690 M 270 690 L 210 570 M 210 570 L 60 480 M 60 480 L 0 360 M 0 360 L 0 180 M 0 180 L 90 90 M 90 90 L 180 90 M 180 90 L 240 120 M 240 120 L 420 390"/>
<glyph unicode="&#x27;" glyph-name="APOSTROPHE" horiz-adv-x="500" d="M 180 660 L 180 840 M 180 840 L 240 840 M 240 840 L 180 720"/>
<glyph unicode="&#x28;" glyph-name="LEFT PARENTHESIS" horiz-adv-x="500" d="M 330 840 L 240 780 M 240 780 L 180 690 M 180 690 L 150 570 M 150 570 L 150 330 M 150 330 L 180 210 M 180 210 L 240 120 M 240 120 L 330 60"/>
<glyph unicode="&#x29;" glyph-name="RIGHT PARENTHESIS" horiz-adv-x="500" d="M 90 840 L 180 780 M 180 780 L 240 690 M 240 690 L 270 570 M 270 570 L 270 330 M 270 330 L 240 210 M 240 210 L 180 120 M 180 120 L 90 60"/>
<glyph unicode="&#x2A;" glyph-name="ASTERISK" horiz-adv-x="500" d="M 0 270 L 420 660 M 0 660 L 420 270 M 210 180 L 210 750"/>
<glyph unicode="&#x2B;" glyph-name="PLUS SIGN" horiz-adv-x="500" d="M 30 480 L 390 480 M 210 720 L 210 240"/>
<glyph unicode="&#x2C;" glyph-name="COMMA" horiz-adv-x="500" d="M 150 210 L 180 210 M 180 210 L 180 150 M 180 150 L 150 150 M 150 150 L 120 180 M 120 180 L 120 240 M 120 240 L 150 270 M 150 270 L 180 270 M 180 270 L 210 210 M 210 210 L 210 180 M 210 180 L 180 120 M 180 120 L 90 30"/>
<glyph unicode="&#x2D;" glyph-name="HYPHEN-MINUS" horiz-adv-x="500" d="M 30 480 L 390 480"/>
<glyph unicode="&#x2E;" glyph-name="FULL STOP" horiz-adv-x="500" d="M 120 150 L 180 90 M 180 90 L 240 150 M 240 150 L 180 210 M 180 210 L 120 150 M 120 150 L 240 150 M 180 210 L 180 90"/>
<glyph unicode="&#x2F;" glyph-name="SOLIDUS" horiz-adv-x="500" d="M 0 120 L 420 810"/>
<glyph unicode="&#x30;" glyph-name="DIGIT ZERO" horiz-adv-x="500" d="M 0 630 L 0 270 M 0 270 L 60 150 M 60 150 L 150 90 M 150 90 L 240 90 M 240 90 L 330 150 M 330 150 L 390 270 M 390 270 L 390 630 M 390 630 L 330 750 M 330 750 L 240 810 M 240 810 L 150 810 M 150 810 L 60 750 M 60 750 L 0 630"/>
<glyph unicode="&#x31;" glyph-name="DIGIT ONE" horiz-adv-x="500" d="M 90 90 L 330 90 M 210 90 L 210 840 M 210 840 L 90 630"/>
<glyph unicode="&#x32;" glyph-name="DIGIT TWO" horiz-adv-x="500" d="M 0 660 L 60 750 M 60 750 L 150 810 M 150 810 L 270 810 M 270 810 L 330 780 M 330 780 L 390 690 M 390 690 L 390 600 M 390 600 L 330 450 M 330 450 L 0 90 M 0 90 L 420 90"/>
<glyph unicode="&#x33;" glyph-name="DIGIT THREE" horiz-adv-x="500" d="M 0 810 L 390 810 M 390 810 L 120 510 M 120 510 L 270 510 M 270 510 L 360 450 M 360 450 L 390 390 M 390 390 L 390 210 M 390 210 L 360 150 M 360 150 L 270 90 M 270 90 L 120 90 M 120 90 L 60 120 M 60 120 L 0 180"/>
<glyph unicode="&#x34;" glyph-name="DIGIT FOUR" horiz-adv-x="500" d="M 300 90 L 300 780 M 210 840 L 0 360 M 0 360 L 0 300 M 0 300 L 420 300"/>
<glyph unicode="&#x35;" glyph-name="DIGIT FIVE" horiz-adv-x="500" d="M 0 180 L 30 120 M 30 120 L 90 90 M 90 90 L 270 90 M 270 90 L 330 120 M 330 120 L 390 210 M 390 210 L 390 420 M 390 420 L 360 480 M 360 480 L 270 540 M 270 540 L 90 540 M 90 540 L 0 480 M 0 420 L 0 810 M 0 810 L 390 810"/>
<glyph unicode="&#x36;" glyph-name="DIGIT SIX" horiz-adv-x="500" d="M 390 750 L 300 810 M 300 810 L 150 810 M 150 810 L 60 750 M 60 750 L 0 630 M 0 630 L 0 210 M 0 210 L 30 150 M 30 150 L 120 90 M 120 90 L 270 90 M 270 90 L 360 150 M 360 150 L 390 210 M 390 210 L 390 390 M 390 390 L 360 450 M 360 450 L 270 510 M 270 510 L 120 510 M 120 510 L 0 450"/>
<glyph unicode="&#x37;" glyph-name="DIGIT SEVEN" horiz-adv-x="500" d="M 0 690 L 0 810 M 0 810 L 420 810 M 420 810 L 420 750 M 420 750 L 270 510 M 270 510 L 210 300 M 210 300 L 210 90"/>
<glyph unicode="&#x38;" glyph-name="DIGIT EIGHT" horiz-adv-x="500" d="M 120 510 L 30 600 M 30 600 L 30 720 M 30 720 L 120 810 M 120 810 L 270 810 M 270 810 L 360 720 M 360 720 L 360 600 M 360 600 L 270 510 M 270 510 L 120 510 M 120 510 L 60 480 M 60 480 L 0 390 M 0 390 L 0 210 M 0 210 L 60 120 M 60 120 L 120 90 M 120 90 L 270 90 M 270 90 L 330 120 M 330 120 L 390 210 M 390 210 L 390 390 M 390 390 L 330 480 M 330 480 L 270 510"/>
<glyph unicode="&#x39;" glyph-name="DIGIT NINE" horiz-adv-x="500" d="M 0 150 L 120 90 M 120 90 L 240 90 M 240 90 L 330 150 M 330 150 L 390 270 M 390 270 L 390 720 M 390 720 L 330 780 M 330 780 L 270 810 M 270 810 L 120 810 M 120 810 L 60 780 M 60 780 L 0 720 M 0 720 L 0 480 M 0 480 L 60 420 M 60 420 L 120 390 M 120 390 L 300 390 M 300 390 L 390 480"/>
<glyph unicode="&#x3A;" glyph-name="COLON" horiz-adv-x="500" d="M 210 270 L 150 330 M 150 330 L 210 390 M 210 390 L 270 330 M 270 330 L 210 270 M 210 270 L 210 360 M 210 570 L 210 660 M 210 660 L 150 600 M 150 600 L 210 540 M 210 540 L 270 600 M 270 600 L 210 660 M 240 600 L 180 600 M 180 330 L 240 330"/>
<glyph unicode="&#x3B;" glyph-name="SEMICOLON" horiz-adv-x="500" d="M 210 570 L 210 660 M 210 660 L 150 600 M 150 600 L 210 540 M 210 540 L 270 600 M 270 600 L 210 660 M 210 360 L 210 270 M 210 270 L 150 330 M 150 330 L 210 390 M 210 390 L 270 330 M 270 330 L 270 240 M 270 240 L 210 120 M 240 600 L 180 600 M 180 330 L 240 330 M 240 330 L 240 300 M 240 300 L 210 270"/>
<glyph unicode="&#x3C;" glyph-name="LESS-THAN SIGN" horiz-adv-x="500" d="M 420 270 L 0 480 M 0 480 L 420 690"/>
<glyph unicode="&#x3D;" glyph-name="EQUALS SIGN" horiz-adv-x="500" d="M 30 390 L 390 390 M 390 570 L 30 570"/>
<glyph unicode="&#x3E;" glyph-name="GREATER-THAN SIGN" horiz-adv-x="500" d="M 0 270 L 420 480 M 420 480 L 0 690"/>
<glyph unicode="&#x3F;" glyph-name="QUESTION MARK" horiz-adv-x="500" d="M 0 630 L 0 720 M 0 720 L 60 780 M 60 780 L 120 810 M 120 810 L 270 810 M 270 810 L 330 780 M 330 780 L 390 720 M 390 720 L 390 600 M 390 600 L 360 540 M 360 540 L 240 420 M 240 420 L 210 360 M 210 360 L 210 300 M 210 150 L 210 60 M 210 60 L 150 120 M 150 120 L 210 180 M 210 180 L 270 120 M 270 120 L 210 60 M 180 120 L 240 120"/>
<glyph unicode="&#x40;" glyph-name="COMMERCIAL AT" horiz-adv-x="500" d="M 300 90 L 150 90 M 150 90 L 60 150 M 60 150 L 0 270 M 0 270 L 0 660 M 0 660 L 60 780 M 60 780 L 150 840 M 150 840 L 270 840 M 270 840 L 360 780 M 360 780 L 420 660 M 420 660 L 420 210 M 420 360 L 300 240 M 300 240 L 210 240 M 210 240 L 150 330 M 150 330 L 150 510 M 150 510 L 240 630 M 240 630 L 330 630 M 330 630 L 420 540"/>
<glyph unicode="&#x41;" glyph-name="LATIN CAPITAL LETTER A" horiz-adv-x="500" d="M 0 90 L 210 840 M 210 840 L 420 90 M 90 360 L 330 360"/>
<glyph unicode="&#x42;" glyph-name="LATIN CAPITAL LETTER B" horiz-adv-x="500" d="M 0 90 L 300 90 M 300 90 L 390 150 M 390 150 L 420 210 M 420 210 L 420 390 M 420 390 L 390 450 M 390 450 L 270 510 M 270 510 L 30 510 M 30 90 L 30 840 M 0 840 L 270 840 M 270 840 L 360 780 M 360 780 L 390 720 M 390 720 L 390 630 M 390 630 L 360 570 M 360 570 L 270 510"/>
<glyph unicode="&#x43;" glyph-name="LATIN CAPITAL LETTER C" horiz-adv-x="500" d="M 390 840 L 390 660 M 390 720 L 330 810 M 330 810 L 270 840 M 270 840 L 120 840 M 120 840 L 60 780 M 60 780 L 0 660 M 0 660 L 0 300 M 0 300 L 60 150 M 60 150 L 120 90 M 120 90 L 300 90 M 300 90 L 390 180 M 390 180 L 420 270"/>
<glyph unicode="&#x44;" glyph-name="LATIN CAPITAL LETTER D" horiz-adv-x="500" d="M 0 840 L 240 840 M 240 840 L 330 780 M 330 780 L 390 690 M 390 690 L 390 240 M 390 240 L 330 150 M 330 150 L 240 90 M 240 90 L 0 90 M 30 90 L 30 840"/>
<glyph unicode="&#x45;" glyph-name="LATIN CAPITAL LETTER E" horiz-adv-x="500" d="M 0 840 L 420 840 M 420 90 L 0 90 M 30 90 L 30 840 M 30 510 L 360 510"/>
<glyph unicode="&#x46;" glyph-name="LATIN CAPITAL LETTER F" horiz-adv-x="500" d="M 0 840 L 420 840 M 30 840 L 30 90 M 30 480 L 330 480"/>
<glyph unicode="&#x47;" glyph-name="LATIN CAPITAL LETTER G" horiz-adv-x="500" d="M 420 690 L 360 780 M 360 780 L 270 840 M 270 840 L 150 840 M 150 840 L 60 780 M 60 780 L 0 660 M 0 660 L 0 270 M 0 270 L 60 150 M 60 150 L 150 90 M 150 90 L 300 90 M 300 90 L 420 180 M 420 180 L 420 420 M 420 420 L 330 420"/>
<glyph unicode="&#x48;" glyph-name="LATIN CAPITAL LETTER H" horiz-adv-x="500" d="M 30 90 L 30 840 M 390 840 L 390 90 M 390 480 L 30 480"/>
<glyph unicode="&#x49;" glyph-name="LATIN CAPITAL LETTER I" horiz-adv-x="500" d="M 90 90 L 330 90 M 210 90 L 210 840 M 90 840 L 330 840"/>
<glyph unicode="&#x4A;" glyph-name="LATIN CAPITAL LETTER J" horiz-adv-x="500" d="M 0 150 L 90 60 M 90 60 L 210 60 M 210 60 L 300 120 M 300 120 L 360 240 M 360 240 L 360 840"/>
<glyph unicode="&#x4B;" glyph-name="LATIN CAPITAL LETTER K" horiz-adv-x="500" d="M 30 90 L 30 840 M 390 840 L 30 480 M 60 510 L 420 90"/>
<glyph unicode="&#x4C;" glyph-name="LATIN CAPITAL LETTER L" horiz-adv-x="500" d="M 0 90 L 420 90 M 30 90 L 30 840"/>
<glyph unicode="&#x4D;" glyph-name="LATIN CAPITAL LETTER M" horiz-adv-x="500" d="M 0 90 L 60 840 M 60 840 L 210 270 M 210 270 L 360 840 M 360 840 L 420 90"/>
<glyph unicode="&#x4E;" glyph-name="LATIN CAPITAL LETTER N" horiz-adv-x="500" d="M 30 90 L 30 840 M 30 840 L 390 90 M 390 90 L 390 840"/>
<glyph unicode="&#x4F;" glyph-name="LATIN CAPITAL LETTER O" horiz-adv-x="500" d="M 0 300 L 60 150 M 60 150 L 120 90 M 120 90 L 270 90 M 270 90 L 330 150 M 330 150 L 390 300 M 390 300 L 390 630 M 390 630 L 330 780 M 330 780 L 270 840 M 270 840 L 120 840 M 120 840 L 60 780 M 60 780 L 0 630 M 0 630 L 0 300"/>
<glyph unicode="&#x50;" glyph-name="LATIN CAPITAL LETTER P" horiz-adv-x="500" d="M 0 840 L 300 840 M 300 840 L 360 810 M 360 810 L 420 720 M 420 720 L 420 600 M 420 600 L 360 510 M 360 510 L 300 480 M 300 480 L 30 480 M 30 840 L 30 90"/>
<glyph unicode="&#x51;" glyph-name="LATIN CAPITAL LETTER Q" horiz-adv-x="500" d="M 0 270 L 0 660 M 0 660 L 60 780 M 60 780 L 150 840 M 150 840 L 240 840 M 240 840 L 330 780 M 330 780 L 390 660 M 390 660 L 390 270 M 390 270 L 330 150 M 330 150 L 240 90 M 240 90 L 150 90 M 150 90 L 60 150 M 60 150 L 0 270 M 120 270 L 210 270 M 210 270 L 300 210 M 300 210 L 420 30"/>
<glyph unicode="&#x52;" glyph-name="LATIN CAPITAL LETTER R" horiz-adv-x="500" d="M 0 840 L 270 840 M 270 840 L 330 810 M 330 810 L 390 720 M 390 720 L 390 600 M 390 600 L 330 510 M 330 510 L 270 480 M 270 480 L 30 480 M 210 480 L 390 90 M 390 90 L 420 90 M 30 90 L 30 840"/>
<glyph unicode="&#x53;" glyph-name="LATIN CAPITAL LETTER S" horiz-adv-x="500" d="M 0 180 L 60 90 M 60 90 L 270 90 M 270 90 L 330 120 M 330 120 L 390 210 M 390 210 L 390 330 M 390 330 L 360 390 M 360 390 L 300 450 M 300 450 L 60 540 M 60 540 L 0 630 M 0 630 L 0 750 M 0 750 L 60 810 M 60 810 L 120 840 M 120 840 L 300 840 M 300 840 L 390 780"/>
<glyph unicode="&#x54;" glyph-name="LATIN CAPITAL LETTER T" horiz-adv-x="500" d="M 0 840 L 420 840 M 210 840 L 210 90"/>
<glyph unicode="&#x55;" glyph-name="LATIN CAPITAL LETTER U" horiz-adv-x="500" d="M 30 840 L 30 240 M 30 240 L 60 150 M 60 150 L 120 90 M 120 90 L 300 90 M 300 90 L 360 150 M 360 150 L 390 240 M 390 240 L 390 840"/>
<glyph unicode="&#x56;" glyph-name="LATIN CAPITAL LETTER V" horiz-adv-x="500" d="M 0 840 L 210 90 M 210 90 L 420 840"/>
<glyph unicode="&#x57;" glyph-name="LATIN CAPITAL LETTER W" horiz-adv-x="500" d="M 0 840 L 90 90 M 90 90 L 210 630 M 210 630 L 330 90 M 330 90 L 420 840"/>
<glyph unicode="&#x58;" glyph-name="LATIN CAPITAL LETTER X" horiz-adv-x="500" d="M 0 90 L 420 840 M 0 840 L 420 90"/>
<glyph unicode="&#x59;" glyph-name="LATIN CAPITAL LETTER Y" horiz-adv-x="500" d="M 0 840 L 210 510 M 210 510 L 210 90 M 210 510 L 420 840"/>
<glyph unicode="&#x5A;" glyph-name="LATIN CAPITAL LETTER Z" horiz-adv-x="500" d="M 0 840 L 390 840 M 390 840 L 0 90 M 0 90 L 390 90"/>
<glyph unicode="&#x5B;" glyph-name="LEFT SQUARE BRACKET" horiz-adv-x="500" d="M 360 840 L 210 840 M 210 840 L 210 60 M 210 60 L 360 60"/>
<glyph unicode="&#xA5;" glyph-name="YEN SIGN" horiz-adv-x="500" d="M 0 810 L 420 120 M 240 480 L 150 480"/>
<glyph unicode="&#x5D;" glyph-name="RIGHT SQUARE BRACKET" horiz-adv-x="500" d="M 60 840 L 210 840 M 210 840 L 210 60 M 210 60 L 60 60"/>
<glyph unicode="&#x5E;" glyph-name="CIRCUMFLEX ACCENT" horiz-adv-x="500" d="M 90 720 L 210 870 M 210 870 L 330 720"/>
<glyph unicode="&#x5F;" glyph-name="LOW LINE" horiz-adv-x="500" d="M 0 30 L 420 30"/>
<glyph unicode="&#x60;" glyph-name="GRAVE ACCENT" horiz-adv-x="500" d="M 270 690 L 240 840 M 240 840 L 210 870 M 210 870 L 180 840 M 180 840 L 180 810 M 180 810 L 210 780 M 210 780 L 210 840"/>
<glyph unicode="&#x61;" glyph-name="LATIN SMALL LETTER A" horiz-adv-x="500" d="M 0 570 L 90 630 M 90 630 L 270 630 M 270 630 L 330 600 M 330 600 L 360 510 M 360 510 L 360 180 M 360 180 L 270 90 M 270 90 L 90 90 M 90 90 L 30 150 M 30 150 L 0 210 M 0 210 L 0 330 M 0 330 L 90 420 M 90 420 L 360 480 M 360 180 L 420 90"/>
<glyph unicode="&#x62;" glyph-name="LATIN SMALL LETTER B" horiz-adv-x="500" d="M 30 90 L 30 840 M 30 510 L 120 630 M 120 630 L 270 630 M 270 630 L 330 600 M 330 600 L 390 480 M 390 480 L 390 240 M 390 240 L 330 120 M 330 120 L 270 90 M 270 90 L 120 90 M 120 90 L 30 210"/>
<glyph unicode="&#x63;" glyph-name="LATIN SMALL LETTER C" horiz-adv-x="500" d="M 390 630 L 390 480 M 390 510 L 300 630 M 300 630 L 120 630 M 120 630 L 30 570 M 30 570 L 0 480 M 0 480 L 0 240 M 0 240 L 30 150 M 30 150 L 120 90 M 120 90 L 270 90 M 270 90 L 360 150 M 360 150 L 390 240"/>
<glyph unicode="&#x64;" glyph-name="LATIN SMALL LETTER D" horiz-adv-x="500" d="M 390 90 L 390 840 M 390 510 L 300 630 M 300 630 L 120 630 M 120 630 L 60 600 M 60 600 L 0 480 M 0 480 L 0 240 M 0 240 L 60 120 M 60 120 L 120 90 M 120 90 L 300 90 M 300 90 L 390 210"/>
<glyph unicode="&#x65;" glyph-name="LATIN SMALL LETTER E" horiz-adv-x="500" d="M 0 420 L 390 420 M 390 420 L 390 480 M 390 480 L 330 570 M 330 570 L 240 630 M 240 630 L 150 630 M 150 630 L 60 570 M 60 570 L 0 480 M 0 480 L 0 240 M 0 240 L 60 150 M 60 150 L 150 90 M 150 90 L 240 90 M 240 90 L 330 150 M 330 150 L 390 210"/>
<glyph unicode="&#x66;" glyph-name="LATIN SMALL LETTER F" horiz-adv-x="500" d="M 210 90 L 210 690 M 210 690 L 240 780 M 240 780 L 330 840 M 330 840 L 420 840 M 360 600 L 60 600"/>
<glyph unicode="&#x67;" glyph-name="LATIN SMALL LETTER G" horiz-adv-x="500" d="M 0 60 L 90 0 M 90 0 L 300 0 M 300 0 L 390 90 M 390 90 L 390 630 M 390 540 L 300 630 M 300 630 L 120 630 M 120 630 L 30 540 M 30 540 L 30 300 M 30 300 L 120 210 M 120 210 L 300 210 M 300 210 L 390 270"/>
<glyph unicode="&#x68;" glyph-name="LATIN SMALL LETTER H" horiz-adv-x="500" d="M 30 90 L 30 840 M 30 540 L 120 630 M 120 630 L 300 630 M 300 630 L 390 540 M 390 540 L 390 90"/>
<glyph unicode="&#x69;" glyph-name="LATIN SMALL LETTER I" horiz-adv-x="500" d="M 60 90 L 330 90 M 210 90 L 210 630 M 210 630 L 120 630 M 120 780 L 180 720 M 180 720 L 240 780 M 240 780 L 180 840 M 180 840 L 120 780 M 120 780 L 240 780 M 180 810 L 180 750"/>
<glyph unicode="&#x6A;" glyph-name="LATIN SMALL LETTER J" horiz-adv-x="500" d="M 0 90 L 90 30 M 90 30 L 180 30 M 180 30 L 270 90 M 270 90 L 330 210 M 330 210 L 330 600 M 330 600 L 240 600 M 240 750 L 300 690 M 300 690 L 360 750 M 360 750 L 300 810 M 300 810 L 240 750 M 240 750 L 330 750 M 300 780 L 300 720"/>
<glyph unicode="&#x6B;" glyph-name="LATIN SMALL LETTER K" horiz-adv-x="500" d="M 30 90 L 30 840 M 30 390 L 390 630 M 390 90 L 90 420"/>
<glyph unicode="&#x6C;" glyph-name="LATIN SMALL LETTER L" horiz-adv-x="500" d="M 60 90 L 330 90 M 210 90 L 210 840 M 210 840 L 120 840"/>
<glyph unicode="&#x6D;" glyph-name="LATIN SMALL LETTER M" horiz-adv-x="500" d="M 0 90 L 0 630 M 0 540 L 60 630 M 60 630 L 150 630 M 150 630 L 210 540 M 210 540 L 210 90 M 210 540 L 270 630 M 270 630 L 360 630 M 360 630 L 420 540 M 420 540 L 420 90"/>
<glyph unicode="&#x6E;" glyph-name="LATIN SMALL LETTER N" horiz-adv-x="500" d="M 30 90 L 30 630 M 30 510 L 120 630 M 120 630 L 300 630 M 300 630 L 390 510 M 390 510 L 390 90"/>
<glyph unicode="&#x6F;" glyph-name="LATIN SMALL LETTER O" horiz-adv-x="500" d="M 30 510 L 30 210 M 30 210 L 60 150 M 60 150 L 120 90 M 120 90 L 300 90 M 300 90 L 360 150 M 360 150 L 390 210 M 390 210 L 390 510 M 390 510 L 360 570 M 360 570 L 300 630 M 300 630 L 120 630 M 120 630 L 60 570 M 60 570 L 30 510"/>
<glyph unicode="&#x70;" glyph-name="LATIN SMALL LETTER P" horiz-adv-x="500" d="M 30 630 L 30 0 M 30 540 L 120 630 M 120 630 L 270 630 M 270 630 L 330 600 M 330 600 L 390 510 M 390 510 L 390 300 M 390 300 L 330 210 M 330 210 L 270 180 M 270 180 L 120 180 M 120 180 L 30 270"/>
<glyph unicode="&#x71;" glyph-name="LATIN SMALL LETTER Q" horiz-adv-x="500" d="M 0 510 L 0 300 M 0 300 L 60 210 M 60 210 L 120 180 M 120 180 L 270 180 M 270 180 L 360 300 M 360 0 L 360 630 M 360 510 L 270 630 M 270 630 L 120 630 M 120 630 L 60 600 M 60 600 L 0 510"/>
<glyph unicode="&#x72;" glyph-name="LATIN SMALL LETTER R" horiz-adv-x="500" d="M 60 90 L 60 630 M 60 390 L 120 510 M 120 510 L 180 570 M 180 570 L 270 630 M 270 630 L 360 630"/>
<glyph unicode="&#x73;" glyph-name="LATIN SMALL LETTER S" horiz-adv-x="500" d="M 390 540 L 300 630 M 300 630 L 120 630 M 120 630 L 30 570 M 30 570 L 30 450 M 30 450 L 120 390 M 120 390 L 300 390 M 300 390 L 390 300 M 390 300 L 390 180 M 390 180 L 300 90 M 300 90 L 90 90 M 90 90 L 0 180"/>
<glyph unicode="&#x74;" glyph-name="LATIN SMALL LETTER T" horiz-adv-x="500" d="M 30 630 L 390 630 M 390 90 L 270 90 M 270 90 L 180 180 M 180 180 L 180 750"/>
<glyph unicode="&#x75;" glyph-name="LATIN SMALL LETTER U" horiz-adv-x="500" d="M 30 630 L 30 240 M 30 240 L 60 150 M 60 150 L 120 90 M 120 90 L 270 90 M 270 90 L 330 150 M 330 150 L 390 270 M 390 630 L 390 90"/>
<glyph unicode="&#x76;" glyph-name="LATIN SMALL LETTER V" horiz-adv-x="500" d="M 0 630 L 210 90 M 210 90 L 420 630"/>
<glyph unicode="&#x77;" glyph-name="LATIN SMALL LETTER W" horiz-adv-x="500" d="M 0 630 L 120 90 M 120 90 L 210 510 M 210 510 L 300 90 M 300 90 L 420 630"/>
<glyph unicode="&#x78;" glyph-name="LATIN SMALL LETTER X" horiz-adv-x="500" d="M 30 90 L 390 630 M 30 630 L 390 90"/>
<glyph unicode="&#x79;" glyph-name="LATIN SMALL LETTER Y" horiz-adv-x="500" d="M 30 0 L 120 60 M 120 60 L 390 630 M 0 630 L 180 180"/>
<glyph unicode="&#x7A;" glyph-name="LATIN SMALL LETTER Z" horiz-adv-x="500" d="M 0 630 L 390 630 M 390 630 L 0 90 M 0 90 L 390 90"/>
<glyph unicode="&#x7B;" glyph-name="LEFT CURLY BRACKET" horiz-adv-x="500" d="M 360 840 L 270 840 M 270 840 L 180 750 M 180 750 L 180 480 M 180 480 L 90 450 M 90 450 L 180 420 M 180 420 L 180 150 M 180 150 L 270 60 M 270 60 L 360 60"/>
<glyph unicode="&#x7C;" glyph-name="VERTICAL LINE" horiz-adv-x="500" d="M 210 30 L 210 900"/>
<glyph unicode="&#x7D;" glyph-name="RIGHT CURLY BRACKET" horiz-adv-x="500" d="M 60 840 L 150 840 M 150 840 L 240 750 M 240 750 L 240 480 M 240 480 L 330 450 M 330 450 L 240 420 M 240 420 L 240 150 M 240 150 L 150 60 M 150 60 L 60 60"/>
<glyph unicode="&#x7E;" glyph-name="OVERLINE" horiz-adv-x="500" d="M 0 750 L 90 840 M 90 840 L 150 840 M 150 840 L 270 690 M 270 690 L 330 690 M 330 690 L 420 780"/>
<glyph unicode="&#xFF61;" glyph-name="HALFWIDTH IDEOGRAPHIC FULL STOP" horiz-adv-x="500" d="M 30 120 L 90 60 M 90 60 L 150 60 M 150 60 L 210 120 M 210 120 L 210 210 M 210 210 L 150 270 M 150 270 L 90 270 M 90 270 L 30 210 M 30 210 L 30 120"/>
<glyph unicode="&#xFF62;" glyph-name="HALFWIDTH LEFT CORNER BRACKET" horiz-adv-x="500" d="M 240 330 L 240 870 M 240 870 L 390 870"/>
<glyph unicode="&#xFF63;" glyph-name="HALFWIDTH RIGHT CORNER BRACKET" horiz-adv-x="500" d="M 30 60 L 180 60 M 180 60 L 180 600"/>
<glyph unicode="&#xFF64;" glyph-name="HALFWIDTH IDEOGRAPHIC COMMA" horiz-adv-x="500" d="M 30 300 L 120 210 M 120 210 L 180 90 M 180 90 L 150 60 M 150 60 L 120 60 M 120 60 L 90 120 M 90 120 L 120 150 M 120 150 L 150 90"/>
<glyph unicode="&#xFF65;" glyph-name="HALFWIDTH KATAKANA MIDDLE DOT" horiz-adv-x="500" d="M 210 540 L 150 480 M 150 480 L 210 420 M 210 420 L 270 480 M 270 480 L 210 540 M 210 540 L 210 420 M 150 480 L 270 480"/>
<glyph unicode="&#xFF66;" glyph-name="HALFWIDTH KATAKANA LETTER WO" horiz-adv-x="500" d="M 0 780 L 390 780 M 390 780 L 360 510 M 360 510 L 300 330 M 300 330 L 210 180 M 210 180 L 120 90 M 30 540 L 360 540"/>
<glyph unicode="&#xFF67;" glyph-name="HALFWIDTH KATAKANA LETTER SMALL A" horiz-adv-x="500" d="M 0 570 L 360 570 M 360 570 L 240 360 M 210 510 L 210 420 M 210 420 L 180 270 M 180 270 L 90 90"/>
<glyph unicode="&#xFF68;" glyph-name="HALFWIDTH KATAKANA LETTER SMALL I" horiz-adv-x="500" d="M 0 240 L 120 330 M 120 330 L 240 480 M 240 480 L 330 660 M 210 420 L 210 90"/>
<glyph unicode="&#xFF69;" glyph-name="HALFWIDTH KATAKANA LETTER SMALL U" horiz-adv-x="500" d="M 0 420 L 0 540 M 0 540 L 330 540 M 330 540 L 330 390 M 330 390 L 270 240 M 270 240 L 210 150 M 210 150 L 120 90 M 180 540 L 180 660"/>
<glyph unicode="&#xFF6A;" glyph-name="HALFWIDTH KATAKANA LETTER SMALL E" horiz-adv-x="500" d="M 0 150 L 360 150 M 180 150 L 180 510 M 30 510 L 330 510"/>
<glyph unicode="&#xFF6B;" glyph-name="HALFWIDTH KATAKANA LETTER SMALL O" horiz-adv-x="500" d="M 0 510 L 360 510 M 210 510 L 90 270 M 90 270 L 0 180 M 240 660 L 240 90 M 240 90 L 150 150"/>
<glyph unicode="&#xFF6C;" glyph-name="HALFWIDTH KATAKANA LETTER SMALL YA" horiz-adv-x="500" d="M 0 480 L 360 540 M 360 540 L 270 390 M 120 660 L 210 90"/>
<glyph unicode="&#xFF6D;" glyph-name="HALFWIDTH KATAKANA LETTER SMALL YU" horiz-adv-x="500" d="M 0 150 L 360 150 M 180 150 L 240 270 M 240 270 L 270 390 M 270 390 L 270 510 M 270 510 L 60 510"/>
<glyph unicode="&#xFF6E;" glyph-name="HALFWIDTH KATAKANA LETTER SMALL YO" horiz-adv-x="500" d="M 0 120 L 270 120 M 270 120 L 330 480 M 330 480 L 330 600 M 330 600 L 30 600 M 30 390 L 300 390"/>
<glyph unicode="&#xFF6F;" glyph-name="HALFWIDTH KATAKANA LETTER SMALL TU" horiz-adv-x="500" d="M 0 540 L 60 360 M 180 360 L 120 540 M 120 90 L 210 150 M 210 150 L 300 300 M 300 300 L 360 570"/>
<glyph unicode="&#xFF70;" glyph-name="HALFWIDTH KATAKANA-HIRAGANA PROLONGED SOUND MARK" horiz-adv-x="500" d="M 30 510 L 60 480 M 60 480 L 390 480"/>
<glyph unicode="&#xFF71;" glyph-name="HALFWIDTH KATAKANA LETTER A" horiz-adv-x="500" d="M 0 780 L 420 780 M 420 780 L 360 600 M 360 600 L 270 450 M 240 630 L 240 420 M 240 420 L 210 270 M 210 270 L 150 150 M 150 150 L 90 90"/>
<glyph unicode="&#xFF72;" glyph-name="HALFWIDTH KATAKANA LETTER I" horiz-adv-x="500" d="M 0 420 L 150 540 M 150 540 L 270 690 M 270 690 L 360 870 M 210 600 L 210 90"/>
<glyph unicode="&#xFF73;" glyph-name="HALFWIDTH KATAKANA LETTER U" horiz-adv-x="500" d="M 0 540 L 0 690 M 0 690 L 420 690 M 420 690 L 420 540 M 420 540 L 360 300 M 360 300 L 300 180 M 300 180 L 210 90 M 210 690 L 210 840"/>
<glyph unicode="&#xFF74;" glyph-name="HALFWIDTH KATAKANA LETTER E" horiz-adv-x="500" d="M 0 150 L 420 150 M 210 150 L 210 660 M 30 660 L 390 660"/>
<glyph unicode="&#xFF75;" glyph-name="HALFWIDTH KATAKANA LETTER O" horiz-adv-x="500" d="M 300 840 L 300 90 M 300 90 L 210 150 M 0 120 L 120 300 M 120 300 L 270 660 M 420 660 L 0 660"/>
<glyph unicode="&#xFF76;" glyph-name="HALFWIDTH KATAKANA LETTER KA" horiz-adv-x="500" d="M 240 150 L 300 90 M 300 90 L 330 90 M 330 90 L 420 540 M 420 540 L 420 660 M 420 660 L 0 660 M 0 120 L 90 240 M 90 240 L 180 480 M 180 480 L 210 690 M 210 690 L 210 840"/>
<glyph unicode="&#xFF77;" glyph-name="HALFWIDTH KATAKANA LETTER KI" horiz-adv-x="500" d="M 420 420 L 0 360 M 0 630 L 360 690 M 150 840 L 270 90"/>
<glyph unicode="&#xFF78;" glyph-name="HALFWIDTH KATAKANA LETTER KU" horiz-adv-x="500" d="M 0 510 L 60 690 M 60 690 L 90 870 M 60 690 L 390 690 M 390 690 L 330 390 M 330 390 L 240 180 M 240 180 L 180 90"/>
<glyph unicode="&#xFF79;" glyph-name="HALFWIDTH KATAKANA LETTER KE" horiz-adv-x="500" d="M 0 480 L 60 660 M 60 660 L 90 810 M 90 810 L 90 870 M 60 660 L 420 660 M 300 660 L 300 540 M 300 540 L 270 330 M 270 330 L 180 90"/>
<glyph unicode="&#xFF7A;" glyph-name="HALFWIDTH KATAKANA LETTER KO" horiz-adv-x="500" d="M 0 150 L 390 150 M 390 150 L 390 690 M 420 690 L 30 690"/>
<glyph unicode="&#xFF7B;" glyph-name="HALFWIDTH KATAKANA LETTER SA" horiz-adv-x="500" d="M 0 630 L 420 630 M 300 840 L 300 420 M 300 420 L 270 270 M 270 270 L 210 150 M 210 150 L 150 90 M 90 450 L 90 810"/>
<glyph unicode="&#xFF7C;" glyph-name="HALFWIDTH KATAKANA LETTER SI" horiz-adv-x="500" d="M 0 540 L 180 480 M 240 660 L 60 720 M 420 510 L 300 270 M 300 270 L 180 150 M 180 150 L 60 90"/>
<glyph unicode="&#xFF7D;" glyph-name="HALFWIDTH KATAKANA LETTER SU" horiz-adv-x="500" d="M 240 420 L 330 270 M 330 270 L 420 90 M 0 90 L 210 360 M 210 360 L 330 600 M 330 600 L 390 810 M 390 810 L 30 810"/>
<glyph unicode="&#xFF7E;" glyph-name="HALFWIDTH KATAKANA LETTER SE" horiz-adv-x="500" d="M 0 600 L 420 660 M 420 660 L 360 450 M 360 450 L 300 360 M 90 810 L 90 330 M 90 330 L 120 240 M 120 240 L 210 150 M 210 150 L 300 120 M 300 120 L 390 120"/>
<glyph unicode="&#xFF7F;" glyph-name="HALFWIDTH KATAKANA LETTER SO" horiz-adv-x="500" d="M 0 780 L 90 630 M 90 630 L 150 480 M 90 90 L 210 180 M 210 180 L 300 300 M 300 300 L 360 450 M 360 450 L 420 780"/>
<glyph unicode="&#xFF80;" glyph-name="HALFWIDTH KATAKANA LETTER TA" horiz-adv-x="500" d="M 60 540 L 330 450 M 0 450 L 60 600 M 60 600 L 120 870 M 90 720 L 390 720 M 390 720 L 390 570 M 390 570 L 330 360 M 330 360 L 240 180 M 240 180 L 150 90"/>
<glyph unicode="&#xFF81;" glyph-name="HALFWIDTH KATAKANA LETTER TI" horiz-adv-x="500" d="M 0 510 L 420 510 M 360 840 L 180 750 M 180 750 L 30 690 M 240 780 L 240 330 M 240 330 L 210 210 M 210 210 L 150 150 M 150 150 L 60 90"/>
<glyph unicode="&#xFF82;" glyph-name="HALFWIDTH KATAKANA LETTER TU" horiz-adv-x="500" d="M 0 720 L 60 480 M 150 780 L 210 540 M 390 750 L 390 540 M 390 540 L 330 300 M 330 300 L 270 180 M 270 180 L 180 90"/>
<glyph unicode="&#xFF83;" glyph-name="HALFWIDTH KATAKANA LETTER TE" horiz-adv-x="500" d="M 0 570 L 420 570 M 240 570 L 240 330 M 240 330 L 210 210 M 210 210 L 150 120 M 150 120 L 90 90 M 60 810 L 360 810"/>
<glyph unicode="&#xFF84;" glyph-name="HALFWIDTH KATAKANA LETTER TO" horiz-adv-x="500" d="M 60 90 L 60 840 M 60 570 L 240 450 M 240 450 L 360 330"/>
<glyph unicode="&#xFF85;" glyph-name="HALFWIDTH KATAKANA LETTER NA" horiz-adv-x="500" d="M 0 630 L 420 630 M 270 840 L 270 360 M 270 360 L 240 240 M 240 240 L 180 150 M 180 150 L 90 90"/>
<glyph unicode="&#xFF86;" glyph-name="HALFWIDTH KATAKANA LETTER NI" horiz-adv-x="500" d="M 0 180 L 420 180 M 30 660 L 360 660"/>
<glyph unicode="&#xFF87;" glyph-name="HALFWIDTH KATAKANA LETTER NU" horiz-adv-x="500" d="M 0 780 L 390 780 M 390 780 L 390 690 M 390 690 L 360 540 M 360 540 L 270 360 M 270 360 L 60 90 M 90 600 L 420 330"/>
<glyph unicode="&#xFF88;" glyph-name="HALFWIDTH KATAKANA LETTER NE" horiz-adv-x="500" d="M 0 270 L 120 330 M 120 330 L 240 420 M 240 420 L 330 540 M 330 540 L 390 720 M 390 720 L 30 720 M 210 720 L 210 840 M 210 90 L 210 390 M 210 390 L 420 270"/>
<glyph unicode="&#xFF89;" glyph-name="HALFWIDTH KATAKANA LETTER NO" horiz-adv-x="500" d="M 0 90 L 180 210 M 180 210 L 300 360 M 300 360 L 390 570 M 390 570 L 420 720 M 420 720 L 420 810"/>
<glyph unicode="&#xFF8A;" glyph-name="HALFWIDTH KATAKANA LETTER HA" horiz-adv-x="500" d="M 0 180 L 90 360 M 90 360 L 150 630 M 240 750 L 330 540 M 330 540 L 390 330 M 390 330 L 420 150"/>
<glyph unicode="&#xFF8B;" glyph-name="HALFWIDTH KATAKANA LETTER HI" horiz-adv-x="500" d="M 30 840 L 30 240 M 30 240 L 60 180 M 60 180 L 120 120 M 120 120 L 210 90 M 210 90 L 420 90 M 420 690 L 270 600 M 270 600 L 30 510"/>
<glyph unicode="&#xFF8C;" glyph-name="HALFWIDTH KATAKANA LETTER HU" horiz-adv-x="500" d="M 0 750 L 390 750 M 390 750 L 390 630 M 390 630 L 360 480 M 360 480 L 270 300 M 270 300 L 180 180 M 180 180 L 90 90"/>
<glyph unicode="&#xFF8D;" glyph-name="HALFWIDTH KATAKANA LETTER HE" horiz-adv-x="500" d="M 0 450 L 120 690 M 120 690 L 150 690 M 150 690 L 420 150"/>
<glyph unicode="&#xFF8E;" glyph-name="HALFWIDTH KATAKANA LETTER HO" horiz-adv-x="500" d="M 0 630 L 420 630 M 420 210 L 330 480 M 90 480 L 0 210 M 210 840 L 210 90"/>
<glyph unicode="&#xFF8F;" glyph-name="HALFWIDTH KATAKANA LETTER MA" horiz-adv-x="500" d="M 0 690 L 420 690 M 420 690 L 360 480 M 360 480 L 270 330 M 270 330 L 210 270 M 90 420 L 330 90"/>
<glyph unicode="&#xFF90;" glyph-name="HALFWIDTH KATAKANA LETTER MI" horiz-adv-x="500" d="M 0 210 L 240 150 M 240 150 L 420 90 M 60 510 L 360 420 M 360 720 L 60 810"/>
<glyph unicode="&#xFF91;" glyph-name="HALFWIDTH KATAKANA LETTER MU" horiz-adv-x="500" d="M 180 810 L 180 720 M 180 720 L 120 420 M 120 420 L 0 180 M 0 180 L 360 270 M 330 420 L 420 90"/>
<glyph unicode="&#xFF92;" glyph-name="HALFWIDTH KATAKANA LETTER ME" horiz-adv-x="500" d="M 390 810 L 390 750 M 390 750 L 360 600 M 360 600 L 270 420 M 270 420 L 150 240 M 150 240 L 0 90 M 120 570 L 240 510 M 240 510 L 420 390"/>
<glyph unicode="&#xFF93;" glyph-name="HALFWIDTH KATAKANA LETTER MO" horiz-adv-x="500" d="M 0 510 L 420 510 M 330 810 L 180 750 M 180 750 L 30 720 M 150 720 L 150 300 M 150 300 L 180 210 M 180 210 L 270 120 M 270 120 L 360 90"/>
<glyph unicode="&#xFF94;" glyph-name="HALFWIDTH KATAKANA LETTER YA" horiz-adv-x="500" d="M 0 600 L 420 660 M 420 660 L 360 540 M 360 540 L 300 480 M 150 840 L 270 90"/>
<glyph unicode="&#xFF95;" glyph-name="HALFWIDTH KATAKANA LETTER YU" horiz-adv-x="500" d="M 60 660 L 360 660 M 360 660 L 360 540 M 360 540 L 330 360 M 330 360 L 270 150 M 0 150 L 420 150"/>
<glyph unicode="&#xFF96;" glyph-name="HALFWIDTH KATAKANA LETTER YO" horiz-adv-x="500" d="M 0 780 L 390 780 M 390 780 L 390 570 M 390 570 L 330 90 M 330 90 L 0 90 M 30 480 L 360 480"/>
<glyph unicode="&#xFF97;" glyph-name="HALFWIDTH KATAKANA LETTER RA" horiz-adv-x="500" d="M 0 630 L 390 630 M 390 630 L 390 540 M 390 540 L 360 360 M 360 360 L 300 240 M 300 240 L 210 150 M 210 150 L 120 90 M 30 810 L 360 810"/>
<glyph unicode="&#xFF98;" glyph-name="HALFWIDTH KATAKANA LETTER RI" horiz-adv-x="500" d="M 60 420 L 60 780 M 360 840 L 360 420 M 360 420 L 330 270 M 330 270 L 270 150 M 270 150 L 210 90"/>
<glyph unicode="&#xFF99;" glyph-name="HALFWIDTH KATAKANA LETTER RU" horiz-adv-x="500" d="M 0 150 L 90 270 M 90 270 L 150 450 M 150 450 L 150 750 M 270 810 L 270 90 M 270 90 L 360 180 M 360 180 L 420 300"/>
<glyph unicode="&#xFF9A;" glyph-name="HALFWIDTH KATAKANA LETTER RE" horiz-adv-x="500" d="M 60 810 L 60 90 M 60 90 L 180 150 M 180 150 L 300 240 M 300 240 L 420 360"/>
<glyph unicode="&#xFF9B;" glyph-name="HALFWIDTH KATAKANA LETTER RO" horiz-adv-x="500" d="M 0 690 L 420 690 M 420 690 L 390 150 M 390 150 L 30 150 M 30 150 L 0 690"/>
<glyph unicode="&#xFF9C;" glyph-name="HALFWIDTH KATAKANA LETTER WA" horiz-adv-x="500" d="M 0 630 L 0 780 M 0 780 L 390 780 M 390 780 L 390 600 M 390 600 L 360 450 M 360 450 L 270 270 M 270 270 L 120 90"/>
<glyph unicode="&#xFF9D;" glyph-name="HALFWIDTH KATAKANA LETTER N" horiz-adv-x="500" d="M 0 720 L 180 630 M 60 90 L 150 180 M 150 180 L 270 330 M 270 330 L 420 690"/>
<glyph unicode="&#xFF9E;" glyph-name="HALFWIDTH KATAKANA VOICED SOUND MARK" horiz-adv-x="500" d="M 0 780 L 120 630 M 120 840 L 240 690"/>
<glyph unicode="&#xFF9F;" glyph-name="HALFWIDTH KATAKANA SEMI-VOICED SOUND MARK" horiz-adv-x="500" d="M 0 780 L 0 690 M 0 690 L 60 630 M 60 630 L 120 630 M 120 630 L 180 690 M 180 690 L 180 780 M 180 780 L 120 840 M 120 840 L 60 840 M 60 840 L 0 780"/>
<glyph unicode="&#x3001;" glyph-name="IDEOGRAPHIC COMMA" horiz-adv-x="1000" d="M 120 210 L 360 90 M 360 90 L 360 60 M 360 60 L 330 30 M 330 30 L 270 30 M 270 30 L 240 90 M 240 90 L 330 90 M 330 90 L 330 60 M 330 60 L 270 60"/>
<glyph unicode="&#x3002;" glyph-name="IDEOGRAPHIC FULL STOP" horiz-adv-x="1000" d="M 210 30 L 330 30 M 330 30 L 390 90 M 390 90 L 390 210 M 390 210 L 330 270 M 330 270 L 210 270 M 210 270 L 150 210 M 150 210 L 150 90 M 150 90 L 210 30"/>
<glyph unicode="&#xFF0C;" glyph-name="FULLWIDTH COMMA" horiz-adv-x="1000" d="M 210 30 L 300 120 M 300 120 L 300 240 M 300 240 L 270 300 M 270 300 L 240 300 M 240 300 L 180 240 M 180 240 L 210 180 M 210 180 L 240 180 M 240 180 L 300 210 M 300 210 L 210 210 M 210 240 L 270 240 M 270 270 L 240 270"/>
<glyph unicode="&#xFF0E;" glyph-name="FULLWIDTH FULL STOP" horiz-adv-x="1000" d="M 210 150 L 270 150 M 270 150 L 270 90 M 270 90 L 180 90 M 180 90 L 150 120 M 150 120 L 240 210 M 240 210 L 330 120 M 330 120 L 240 30 M 240 30 L 180 90 M 180 90 L 180 120 M 180 120 L 300 120 M 240 180 L 240 60"/>
<glyph unicode="&#x30FB;" glyph-name="KATAKANA MIDDLE DOT" horiz-adv-x="1000" d="M 420 420 L 420 540 M 420 540 L 360 510 M 360 510 L 360 450 M 360 450 L 420 420 M 420 420 L 480 450 M 480 450 L 480 510 M 480 510 L 420 540 M 360 480 L 480 480"/>
<glyph unicode="&#xFF1A;" glyph-name="FULLWIDTH COLON" horiz-adv-x="1000" d="M 360 240 L 420 180 M 420 180 L 480 240 M 480 240 L 420 300 M 420 300 L 360 240 M 360 240 L 480 240 M 480 660 L 420 720 M 420 720 L 360 660 M 360 660 L 420 600 M 420 600 L 480 660 M 480 660 L 360 660 M 420 690 L 420 630 M 420 270 L 420 210"/>
<glyph unicode="&#xFF1B;" glyph-name="FULLWIDTH SEMICOLON" horiz-adv-x="1000" d="M 420 660 L 360 660 M 360 30 L 450 120 M 450 120 L 450 270 M 450 270 L 390 330 M 390 330 L 330 270 M 330 270 L 390 210 M 390 210 L 450 240 M 450 660 L 390 720 M 390 720 L 330 660 M 330 660 L 390 600 M 390 600 L 450 660 M 450 270 L 360 270 M 390 240 L 390 300 M 390 630 L 390 690"/>
<glyph unicode="&#xFF1F;" glyph-name="FULLWIDTH QUESTION MARK" horiz-adv-x="1000" d="M 210 600 L 150 660 M 150 660 L 150 780 M 150 780 L 210 840 M 210 840 L 300 870 M 300 870 L 510 870 M 510 870 L 600 840 M 600 840 L 660 780 M 660 780 L 660 660 M 660 660 L 600 570 M 600 570 L 510 540 M 510 540 L 450 480 M 450 480 L 420 420 M 420 420 L 420 330 M 420 210 L 480 150 M 480 150 L 420 90 M 420 90 L 360 150 M 360 150 L 420 210 M 420 210 L 420 90 M 390 150 L 450 150"/>
<glyph unicode="&#xFF01;" glyph-name="FULLWIDTH EXCLAMATION MARK" horiz-adv-x="1000" d="M 270 330 L 420 870 M 420 870 L 480 900 M 480 900 L 570 900 M 570 900 L 600 840 M 600 840 L 600 810 M 600 810 L 360 330 M 360 330 L 270 330 M 270 180 L 330 120 M 330 120 L 270 60 M 270 60 L 210 60 M 210 60 L 150 120 M 150 120 L 210 180 M 210 180 L 270 180 M 270 150 L 300 120 M 300 120 L 270 90 M 270 90 L 210 90 M 210 90 L 180 120 M 180 120 L 210 150 M 210 150 L 270 150"/>
<glyph unicode="&#x309B;" glyph-name="KATAKANA-HIRAGANA VOICED SOUND MARK" horiz-adv-x="1000" d="M 30 870 L 180 720 M 180 930 L 330 780"/>
<glyph unicode="&#x309C;" glyph-name="KATAKANA-HIRAGANA SEMI-VOICED SOUND MARK" horiz-adv-x="1000" d="M 30 870 L 30 780 M 30 780 L 90 720 M 90 720 L 180 720 M 180 720 L 240 780 M 240 780 L 240 870 M 240 870 L 180 930 M 180 930 L 90 930 M 90 930 L 30 870"/>
<glyph unicode="&#xB4;" glyph-name="ACUTE ACCENT" horiz-adv-x="1000" d="M 300 780 L 540 930 M 540 930 L 450 930 M 450 930 L 330 810"/>
<glyph unicode="&#xFF40;" glyph-name="FULLWIDTH GRAVE ACCENT" horiz-adv-x="1000" d="M 540 780 L 300 930 M 300 930 L 390 930 M 390 930 L 510 810"/>
<glyph unicode="&#xA8;" glyph-name="DIAERESIS" horiz-adv-x="1000" d="M 210 810 L 150 900 M 150 900 L 270 900 M 270 900 L 210 810 M 630 810 L 570 900 M 570 900 L 690 900 M 690 900 L 630 810"/>
<glyph unicode="&#xFF3E;" glyph-name="FULLWIDTH CIRCUMFLEX ACCENT" horiz-adv-x="1000" d="M 240 810 L 420 930 M 420 930 L 600 810"/>
<glyph unicode="&#xFFE3;" glyph-name="FULLWIDTH MACRON" horiz-adv-x="1000" d="M 30 930 L 810 930"/>
<glyph unicode="&#xFF3F;" glyph-name="FULLWIDTH LOW LINE" horiz-adv-x="1000" d="M 30 30 L 810 30"/>
<glyph unicode="&#x30FD;" glyph-name="KATAKANA ITERATION MARK" horiz-adv-x="1000" d="M 180 720 L 390 600 M 390 600 L 510 480 M 510 480 L 570 300 M 570 300 L 540 270 M 540 270 L 480 330 M 480 330 L 480 480 M 510 480 L 510 300 M 540 300 L 540 360"/>
<glyph unicode="&#x30FE;" glyph-name="KATAKANA VOICED ITERATION MARK" horiz-adv-x="1000" d="M 510 330 L 510 480 M 510 480 L 480 480 M 480 480 L 480 330 M 480 330 L 540 270 M 540 270 L 570 300 M 570 300 L 510 480 M 510 480 L 390 600 M 390 600 L 180 720 M 720 720 L 570 840 M 570 660 L 420 780"/>
<glyph unicode="&#x309D;" glyph-name="HIRAGANA ITERATION MARK" horiz-adv-x="1000" d="M 210 720 L 270 600 M 270 600 L 630 300 M 630 300 L 480 240 M 480 240 L 390 240 M 390 240 L 390 270 M 390 270 L 510 330"/>
<glyph unicode="&#x309E;" glyph-name="HIRAGANA VOICED ITERATION MARK" horiz-adv-x="1000" d="M 480 330 L 360 270 M 360 270 L 360 240 M 360 240 L 420 240 M 420 240 L 600 300 M 600 300 L 240 600 M 240 600 L 180 720 M 660 720 L 570 870 M 540 660 L 450 810"/>
<glyph unicode="&#x3003;" glyph-name="DITTO MARK" horiz-adv-x="1000" d="M 330 600 L 330 720 M 330 720 L 360 690 M 360 690 L 300 480 M 300 480 L 240 390 M 240 390 L 150 300 M 420 300 L 510 390 M 510 390 L 570 480 M 570 480 L 630 690 M 630 690 L 600 720 M 600 720 L 600 600"/>
<glyph unicode="&#x4EDD;" glyph-name="CJK" horiz-adv-x="1000" d="M 60 90 L 780 90 M 420 90 L 420 480 M 150 480 L 690 480 M 60 540 L 150 600 M 150 600 L 420 870 M 420 870 L 690 600 M 690 600 L 780 540"/>
<glyph unicode="&#x3005;" glyph-name="IDEOGRAPHIC ITERATION MARK" horiz-adv-x="1000" d="M 300 840 L 210 600 M 210 600 L 90 420 M 270 720 L 720 720 M 720 720 L 720 600 M 720 600 L 690 510 M 690 510 L 510 240 M 330 390 L 480 270 M 480 270 L 630 90"/>
<glyph unicode="&#x3006;" glyph-name="IDEOGRAPHIC CLOSING MARK" horiz-adv-x="1000" d="M 720 900 L 60 60 M 60 60 L 60 180 M 60 180 L 150 360 M 330 630 L 570 450"/>
<glyph unicode="&#x3007;" glyph-name="IDEOGRAPHIC NUMBER ZERO" horiz-adv-x="1000" d="M 300 840 L 540 840 M 540 840 L 720 750 M 720 750 L 810 600 M 810 600 L 810 360 M 810 360 L 720 210 M 720 210 L 540 120 M 540 120 L 300 120 M 300 120 L 120 210 M 120 210 L 30 360 M 30 360 L 30 600 M 30 600 L 120 750 M 120 750 L 300 840"/>
<glyph unicode="&#x30FC;" glyph-name="KATAKANA-HIRAGANA PROLONGED SOUND MARK" horiz-adv-x="1000" d="M 30 540 L 60 540 M 60 540 L 150 510 M 150 510 L 810 510"/>
<glyph unicode="&#x2015;" glyph-name="HORIZONTAL BAR" horiz-adv-x="1000" d="M 60 510 L 810 510"/>
<glyph unicode="&#x2010;" glyph-name="HYPHEN" horiz-adv-x="1000" d="M 60 510 L 390 510"/>
<glyph unicode="&#xFF0F;" glyph-name="FULLWIDTH SOLIDUS" horiz-adv-x="1000" d="M 840 900 L 0 60"/>
<glyph unicode="&#xFF3C;" glyph-name="REVERSE SOLIDUS" horiz-adv-x="1000" d="M 0 900 L 840 60"/>
<glyph unicode="&#x301C;" glyph-name="WAVE DASH" horiz-adv-x="1000" d="M 30 450 L 90 510 M 90 510 L 210 570 M 210 570 L 300 570 M 300 570 L 570 420 M 570 420 L 660 420 M 660 420 L 780 480 M 780 480 L 840 540"/>
<glyph unicode="&#xFF5E;" glyph-name="WAVE DASH" horiz-adv-x="1000" d="M 30 450 L 90 510 M 90 510 L 210 570 M 210 570 L 300 570 M 300 570 L 570 420 M 570 420 L 660 420 M 660 420 L 780 480 M 780 480 L 840 540"/>
<glyph unicode="&#x2016;" glyph-name="DOUBLE VERTICAL LINE" horiz-adv-x="1000" d="M 300 60 L 300 900 M 540 900 L 540 60"/>
<glyph unicode="&#xFF5C;" glyph-name="FULLWIDTH VERTICAL LINE" horiz-adv-x="1000" d="M 420 60 L 420 900"/>
<glyph unicode="&#x2026;" glyph-name="HORIZONTAL ELLIPSIS" horiz-adv-x="1000" d="M 60 480 L 150 480 M 150 480 L 90 420 M 90 420 L 60 480 M 60 480 L 90 540 M 90 540 L 150 480 M 390 480 L 480 480 M 480 480 L 420 420 M 420 420 L 390 480 M 390 480 L 420 540 M 420 540 L 480 480 M 720 480 L 810 480 M 810 480 L 750 420 M 750 420 L 720 480 M 720 480 L 750 540 M 750 540 L 810 480"/>
<glyph unicode="&#x2025;" glyph-name="TWO DOT LEADER" horiz-adv-x="1000" d="M 150 480 L 240 480 M 240 480 L 180 420 M 180 420 L 150 480 M 150 480 L 180 540 M 180 540 L 240 480 M 630 480 L 720 480 M 720 480 L 660 420 M 660 420 L 630 480 M 630 480 L 660 540 M 660 540 L 720 480"/>
<glyph unicode="&#x2018;" glyph-name="LEFT SINGLE QUOTATION MARK" horiz-adv-x="1000" d="M 660 930 L 600 840 M 600 840 L 600 750 M 600 750 L 660 690 M 660 690 L 720 810 M 720 810 L 630 810 M 630 810 L 630 720 M 630 720 L 690 810"/>
<glyph unicode="&#x2019;" glyph-name="RIGHT SINGLE QUOTATION MARK" horiz-adv-x="1000" d="M 180 660 L 270 780 M 270 780 L 270 870 M 270 870 L 210 930 M 210 930 L 150 870 M 150 870 L 150 840 M 150 840 L 210 780 M 210 780 L 240 810 M 240 810 L 240 870 M 240 870 L 180 870 M 180 870 L 180 840 M 180 840 L 240 840"/>
<glyph unicode="&#x201C;" glyph-name="LEFT DOUBLE QUOTATION MARK" horiz-adv-x="1000" d="M 690 720 L 660 810 M 660 810 L 720 810 M 720 810 L 720 750 M 720 750 L 690 690 M 690 690 L 630 750 M 630 750 L 630 780 M 630 780 L 690 930 M 450 930 L 390 780 M 390 780 L 390 750 M 390 750 L 450 690 M 450 690 L 480 750 M 480 750 L 480 810 M 480 810 L 420 810 M 420 810 L 450 720"/>
<glyph unicode="&#x201D;" glyph-name="RIGHT DOUBLE QUOTATION MARK" horiz-adv-x="1000" d="M 150 660 L 240 810 M 240 810 L 240 840 M 240 840 L 180 900 M 180 900 L 120 810 M 120 810 L 120 780 M 120 780 L 180 780 M 180 780 L 210 840 M 450 840 L 420 780 M 420 780 L 360 780 M 360 780 L 360 810 M 360 810 L 420 900 M 420 900 L 480 840 M 480 840 L 480 810 M 480 810 L 390 660"/>
<glyph unicode="&#xFF08;" glyph-name="FULLWIDTH LEFT PARENTHESIS" horiz-adv-x="1000" d="M 630 900 L 540 780 M 540 780 L 480 600 M 480 600 L 480 330 M 480 330 L 540 150 M 540 150 L 630 30"/>
<glyph unicode="&#xFF09;" glyph-name="FULLWIDTH RIGHT PARENTHESIS" horiz-adv-x="1000" d="M 210 900 L 300 780 M 300 780 L 360 600 M 360 600 L 360 330 M 360 330 L 300 150 M 300 150 L 210 30"/>
<glyph unicode="&#x3014;" glyph-name="LEFT TORTOISE SHELL BRACKET" horiz-adv-x="1000" d="M 690 900 L 510 780 M 510 780 L 510 180 M 510 180 L 690 60"/>
<glyph unicode="&#x3015;" glyph-name="RIGHT TORTOISE SHELL BRACKET" horiz-adv-x="1000" d="M 150 900 L 330 780 M 330 780 L 330 180 M 330 180 L 150 60"/>
<glyph unicode="&#xFF3B;" glyph-name="FULLWIDTH LEFT SQUARE BRACKET" horiz-adv-x="1000" d="M 690 900 L 510 900 M 510 900 L 510 60 M 510 60 L 690 60"/>
<glyph unicode="&#xFF3D;" glyph-name="FULLWIDTH RIGHT SQUARE BRACKET" horiz-adv-x="1000" d="M 150 900 L 330 900 M 330 900 L 330 60 M 330 60 L 150 60"/>
<glyph unicode="&#xFF5B;" glyph-name="FULLWIDTH LEFT CURLY BRACKET" horiz-adv-x="1000" d="M 690 930 L 630 930 M 630 930 L 540 840 M 540 840 L 540 540 M 540 540 L 450 480 M 450 480 L 540 420 M 540 420 L 540 120 M 540 120 L 630 30 M 630 30 L 690 30"/>
<glyph unicode="&#xFF5D;" glyph-name="FULLWIDTH RIGHT CURLY BRACKET" horiz-adv-x="1000" d="M 150 30 L 210 30 M 210 30 L 300 120 M 300 120 L 300 420 M 300 420 L 390 480 M 390 480 L 300 540 M 300 540 L 300 840 M 300 840 L 210 930 M 210 930 L 150 930"/>
<glyph unicode="&#x3008;" glyph-name="LEFT ANGLE BRACKET" horiz-adv-x="1000" d="M 690 30 L 390 480 M 390 480 L 690 930"/>
<glyph unicode="&#x3009;" glyph-name="RIGHT ANGLE BRACKET" horiz-adv-x="1000" d="M 150 30 L 450 480 M 450 480 L 150 930"/>
<glyph unicode="&#x300A;" glyph-name="LEFT DOUBLE ANGLE BRACKET" horiz-adv-x="1000" d="M 570 930 L 300 480 M 300 480 L 570 30 M 750 30 L 480 480 M 480 480 L 750 930"/>
<glyph unicode="&#x300B;" glyph-name="RIGHT DOUBLE ANGLE BRACKET" horiz-adv-x="1000" d="M 150 930 L 420 480 M 420 480 L 150 30 M 330 30 L 600 480 M 600 480 L 330 930"/>
<glyph unicode="&#x300C;" glyph-name="LEFT CORNER BRACKET" horiz-adv-x="1000" d="M 780 930 L 540 930 M 540 930 L 540 360"/>
<glyph unicode="&#x300D;" glyph-name="RIGHT CORNER BRACKET" horiz-adv-x="1000" d="M 60 30 L 300 30 M 300 30 L 300 600"/>
<glyph unicode="&#x300E;" glyph-name="LEFT WHITE CORNER BRACKET" horiz-adv-x="1000" d="M 450 930 L 810 930 M 810 930 L 810 780 M 810 780 L 600 780 M 600 780 L 600 330 M 600 330 L 450 330 M 450 330 L 450 930"/>
<glyph unicode="&#x300F;" glyph-name="RIGHT WHITE CORNER BRACKET" horiz-adv-x="1000" d="M 30 30 L 30 180 M 30 180 L 240 180 M 240 180 L 240 630 M 240 630 L 390 630 M 390 630 L 390 30 M 390 30 L 30 30"/>
<glyph unicode="&#x3010;" glyph-name="LEFT BLACK LENTICULAR BRACKET" horiz-adv-x="1000" d="M 420 30 L 420 930 M 420 930 L 750 930 M 750 930 L 600 780 M 600 780 L 510 570 M 510 570 L 510 390 M 510 390 L 600 180 M 600 180 L 750 30 M 750 30 L 420 30"/>
<glyph unicode="&#x3011;" glyph-name="RIGHT BLACK LENTICULAR BRACKET" horiz-adv-x="1000" d="M 90 30 L 420 30 M 420 30 L 420 930 M 420 930 L 90 930 M 90 930 L 240 780 M 240 780 L 330 570 M 330 570 L 330 390 M 330 390 L 240 180 M 240 180 L 90 30"/>
<glyph unicode="&#xFF0B;" glyph-name="FULLWIDTH PLUS SIGN" horiz-adv-x="1000" d="M 90 480 L 750 480 M 420 840 L 420 120"/>
<glyph unicode="&#xFF0D;" glyph-name="MINUS SIGN" horiz-adv-x="1000" d="M 90 480 L 750 480"/>
<glyph unicode="&#xB1;" glyph-name="PLUS-MINUS SIGN" horiz-adv-x="1000" d="M 120 570 L 720 570 M 720 180 L 120 180 M 420 840 L 420 300"/>
<glyph unicode="&#xD7;" glyph-name="MULTIPLICATION SIGN" horiz-adv-x="1000" d="M 120 810 L 720 150 M 120 150 L 720 810"/>
<glyph unicode="&#xF7;" glyph-name="DIVISION SIGN" horiz-adv-x="1000" d="M 60 480 L 810 480 M 420 660 L 420 750 M 420 750 L 480 690 M 480 690 L 420 630 M 420 630 L 360 690 M 360 690 L 420 750 M 420 300 L 420 210 M 420 210 L 360 270 M 360 270 L 420 330 M 420 330 L 480 270 M 480 270 L 420 210"/>
<glyph unicode="&#xFF1D;" glyph-name="FULLWIDTH EQUALS SIGN" horiz-adv-x="1000" d="M 90 570 L 750 570 M 750 390 L 90 390"/>
<glyph unicode="&#x2260;" glyph-name="NOT EQUAL TO" horiz-adv-x="1000" d="M 90 570 L 750 570 M 750 390 L 90 390 M 330 150 L 510 810"/>
<glyph unicode="&#xFF1C;" glyph-name="FULLWIDTH LESS-THAN SIGN" horiz-adv-x="1000" d="M 690 840 L 150 480 M 150 480 L 690 120"/>
<glyph unicode="&#xFF1E;" glyph-name="FULLWIDTH GREATER-THAN SIGN" horiz-adv-x="1000" d="M 150 840 L 690 480 M 690 480 L 150 120"/>
<glyph unicode="&#x2266;" glyph-name="LESS-THAN OVER EQUAL TO" horiz-adv-x="1000" d="M 720 150 L 120 150 M 120 300 L 720 300 M 720 390 L 120 630 M 120 630 L 720 870"/>
<glyph unicode="&#x2267;" glyph-name="GREATER-THAN OVER EQUAL TO" horiz-adv-x="1000" d="M 120 150 L 720 150 M 720 300 L 120 300 M 120 390 L 720 630 M 720 630 L 120 870"/>
<glyph unicode="&#x221E;" glyph-name="INFINITY" horiz-adv-x="1000" d="M 30 360 L 30 540 M 30 540 L 120 630 M 120 630 L 300 630 M 300 630 L 420 510 M 420 510 L 420 390 M 420 390 L 540 270 M 540 270 L 720 270 M 720 270 L 810 360 M 810 360 L 810 540 M 810 540 L 720 630 M 720 630 L 540 630 M 540 630 L 420 510 M 420 390 L 300 270 M 300 270 L 120 270 M 120 270 L 30 360"/>
<glyph unicode="&#x2234;" glyph-name="THEREFORE" horiz-adv-x="1000" d="M 90 180 L 150 120 M 150 120 L 210 180 M 210 180 L 150 240 M 150 240 L 90 180 M 90 180 L 210 180 M 660 180 L 780 180 M 780 180 L 720 120 M 720 120 L 660 180 M 660 180 L 720 240 M 720 240 L 780 180 M 480 750 L 360 750 M 360 750 L 420 690 M 420 690 L 480 750 M 480 750 L 420 810 M 420 810 L 360 750"/>
<glyph unicode="&#x2642;" glyph-name="MALE SIGN" horiz-adv-x="1000" d="M 60 150 L 60 330 M 60 330 L 150 420 M 150 420 L 330 420 M 330 420 L 420 330 M 420 330 L 420 150 M 420 150 L 330 60 M 330 60 L 150 60 M 150 60 L 60 150 M 390 390 L 840 840 M 840 840 L 570 780 M 840 840 L 780 570"/>
<glyph unicode="&#x2640;" glyph-name="FEMALE SIGN" horiz-adv-x="1000" d="M 90 360 L 750 360 M 420 60 L 420 540 M 330 540 L 510 540 M 510 540 L 600 630 M 600 630 L 600 810 M 600 810 L 510 900 M 510 900 L 330 900 M 330 900 L 240 810 M 240 810 L 240 630 M 240 630 L 330 540"/>
<glyph unicode="&#xB0;" glyph-name="DEGREE SIGN" horiz-adv-x="1000" d="M 180 930 L 120 870 M 120 870 L 120 780 M 120 780 L 180 720 M 180 720 L 270 720 M 270 720 L 330 780 M 330 780 L 330 870 M 330 870 L 270 930 M 270 930 L 180 930"/>
<glyph unicode="&#x2032;" glyph-name="PRIME" horiz-adv-x="1000" d="M 180 900 L 180 840 M 180 840 L 150 840 M 150 840 L 150 930 M 150 930 L 210 930 M 210 930 L 210 870 M 210 870 L 120 720"/>
<glyph unicode="&#x2033;" glyph-name="DOUBLE PRIME" horiz-adv-x="1000" d="M 150 900 L 150 840 M 150 840 L 120 840 M 120 840 L 120 930 M 120 930 L 180 930 M 180 930 L 180 870 M 180 870 L 90 720 M 270 720 L 360 870 M 360 870 L 360 930 M 360 930 L 300 930 M 300 930 L 300 840 M 300 840 L 330 840 M 330 840 L 330 900"/>
<glyph unicode="&#x2103;" glyph-name="DEGREE CELSIUS" horiz-adv-x="1000" d="M 780 690 L 720 810 M 720 810 L 630 840 M 630 840 L 420 840 M 420 840 L 330 780 M 330 780 L 270 660 M 270 660 L 270 300 M 270 300 L 330 180 M 330 180 L 420 90 M 420 90 L 630 90 M 630 90 L 720 120 M 720 120 L 780 240 M 0 870 L 0 810 M 0 810 L 60 750 M 60 750 L 120 750 M 120 750 L 180 810 M 180 810 L 180 870 M 180 870 L 120 930 M 120 930 L 60 930 M 60 930 L 0 870"/>
<glyph unicode="&#xFFE5;" glyph-name="FULLWIDTH YEN SIGN" horiz-adv-x="1000" d="M 90 330 L 750 330 M 750 510 L 90 510 M 420 510 L 120 870 M 720 870 L 420 510 M 420 510 L 420 60"/>
<glyph unicode="&#xFF04;" glyph-name="FULLWIDTH DOLLAR SIGN" horiz-adv-x="1000" d="M 660 810 L 300 810 M 300 810 L 210 780 M 210 780 L 150 720 M 150 720 L 150 600 M 150 600 L 210 540 M 210 540 L 300 510 M 300 510 L 570 510 M 570 510 L 660 480 M 660 480 L 720 420 M 720 420 L 720 240 M 720 240 L 660 180 M 660 180 L 570 150 M 570 150 L 150 150 M 360 60 L 360 900 M 480 900 L 480 60"/>
<glyph unicode="&#xFFE0;" glyph-name="CENT SIGN" horiz-adv-x="1000" d="M 660 630 L 600 690 M 600 690 L 510 720 M 510 720 L 330 720 M 330 720 L 240 690 M 240 690 L 180 600 M 180 600 L 180 360 M 180 360 L 240 270 M 240 270 L 330 240 M 330 240 L 510 240 M 510 240 L 600 270 M 600 270 L 660 330 M 540 870 L 300 90"/>
<glyph unicode="&#xFFE1;" glyph-name="POUND SIGN" horiz-adv-x="1000" d="M 630 780 L 540 870 M 540 870 L 360 870 M 360 870 L 270 780 M 270 780 L 270 180 M 270 180 L 180 90 M 180 90 L 120 90 M 120 90 L 60 150 M 60 150 L 60 210 M 60 210 L 120 270 M 120 270 L 210 270 M 210 270 L 390 180 M 390 180 L 510 90 M 510 90 L 690 90 M 690 90 L 780 210 M 60 510 L 480 510"/>
<glyph unicode="&#xFF05;" glyph-name="FULLWIDTH PERCENT SIGN" horiz-adv-x="1000" d="M 60 630 L 120 570 M 120 570 L 240 570 M 240 570 L 300 630 M 300 630 L 300 840 M 300 840 L 240 900 M 240 900 L 120 900 M 120 900 L 60 840 M 60 840 L 60 630 M 60 60 L 780 900 M 780 120 L 720 60 M 720 60 L 600 60 M 600 60 L 540 120 M 540 120 L 540 330 M 540 330 L 600 390 M 600 390 L 720 390 M 720 390 L 780 330 M 780 330 L 780 120"/>
<glyph unicode="&#xFF03;" glyph-name="FULLWIDTH NUMBER SIGN" horiz-adv-x="1000" d="M 30 660 L 810 660 M 810 270 L 30 270 M 150 60 L 270 840 M 690 840 L 570 60"/>
<glyph unicode="&#xFF06;" glyph-name="FULLWIDTH AMPERSAND" horiz-adv-x="1000" d="M 720 420 L 720 330 M 720 330 L 570 150 M 570 150 L 420 90 M 420 90 L 210 90 M 210 90 L 120 150 M 120 150 L 60 270 M 60 270 L 60 420 M 60 420 L 120 510 M 120 510 L 300 690 M 300 690 L 330 780 M 330 780 L 270 870 M 270 870 L 180 870 M 180 870 L 120 810 M 120 810 L 120 750 M 120 750 L 180 660 M 180 660 L 630 150 M 630 150 L 780 90"/>
<glyph unicode="&#xFF0A;" glyph-name="FULLWIDTH ASTERISK" horiz-adv-x="1000" d="M 420 90 L 420 840 M 120 240 L 720 690 M 120 690 L 720 240"/>
<glyph unicode="&#xFF20;" glyph-name="FULLWIDTH COMMERCIAL AT" horiz-adv-x="1000" d="M 600 360 L 480 210 M 480 210 L 360 210 M 360 210 L 270 300 M 270 300 L 270 540 M 270 540 L 390 660 M 390 660 L 600 660 M 600 660 L 600 210 M 600 210 L 720 120 M 720 120 L 810 210 M 810 210 L 810 660 M 810 660 L 720 780 M 720 780 L 570 870 M 570 870 L 300 870 M 300 870 L 150 780 M 150 780 L 60 660 M 60 660 L 60 270 M 60 270 L 150 150 M 150 150 L 300 60 M 300 60 L 510 60"/>
<glyph unicode="&#xA7;" glyph-name="SECTION SIGN" horiz-adv-x="1000" d="M 570 750 L 570 840 M 570 840 L 510 900 M 510 900 L 360 900 M 360 900 L 270 810 M 270 810 L 270 720 M 270 720 L 360 600 M 360 600 L 480 540 M 480 540 L 570 360 M 270 600 L 360 420 M 360 420 L 480 360 M 480 360 L 570 240 M 570 240 L 570 150 M 570 150 L 480 60 M 480 60 L 330 60 M 330 60 L 270 120 M 270 120 L 270 210"/>
<glyph unicode="&#x2606;" glyph-name="WHITE STAR" horiz-adv-x="1000" d="M 0 630 L 300 630 M 300 630 L 420 900 M 420 900 L 540 630 M 540 630 L 840 630 M 840 630 L 630 420 M 630 420 L 750 90 M 750 90 L 420 330 M 420 330 L 90 90 M 90 90 L 240 420 M 240 420 L 0 630"/>
<glyph unicode="&#x2605;" glyph-name="BLACK STAR" horiz-adv-x="1000" d="M 0 630 L 840 630 M 840 630 L 120 90 M 120 90 L 420 900 M 420 900 L 720 90 M 720 90 L 0 630 M 210 270 L 360 270 M 360 720 L 480 720 M 480 270 L 630 270 M 120 540 L 720 540 M 600 450 L 240 450 M 240 360 L 600 360"/>
<glyph unicode="&#x25CB;" glyph-name="WHITE CIRCLE" horiz-adv-x="1000" d="M 0 360 L 0 600 M 0 600 L 120 780 M 120 780 L 300 900 M 300 900 L 540 900 M 540 900 L 720 780 M 720 780 L 840 600 M 840 600 L 840 360 M 840 360 L 720 180 M 720 180 L 540 60 M 540 60 L 300 60 M 300 60 L 120 180 M 120 180 L 0 360"/>
<glyph unicode="&#x25CF;" glyph-name="BLACK CIRCLE" horiz-adv-x="1000" d="M 0 540 L 480 60 M 360 60 L 840 540 M 840 420 L 360 900 M 480 900 L 0 420 M 0 360 L 0 600 M 0 600 L 120 780 M 120 780 L 300 900 M 300 900 L 540 900 M 540 900 L 720 780 M 720 780 L 840 600 M 840 600 L 840 360 M 840 360 L 720 180 M 720 180 L 540 60 M 540 60 L 300 60 M 300 60 L 120 180 M 120 180 L 0 360 M 90 270 L 630 810 M 210 810 L 750 270 M 750 690 L 210 150 M 630 150 L 90 690"/>
<glyph unicode="&#x25CE;" glyph-name="BULLSEYE" horiz-adv-x="1000" d="M 30 570 L 30 390 M 30 390 L 90 270 M 90 270 L 210 150 M 210 150 L 330 90 M 330 90 L 510 90 M 510 90 L 630 150 M 630 150 L 750 270 M 750 270 L 810 390 M 810 390 L 810 570 M 810 570 L 750 690 M 750 690 L 630 810 M 630 810 L 510 870 M 510 870 L 330 870 M 330 870 L 210 810 M 210 810 L 90 690 M 90 690 L 30 570 M 210 570 L 210 390 M 210 390 L 330 270 M 330 270 L 510 270 M 510 270 L 630 390 M 630 390 L 630 570 M 630 570 L 510 690 M 510 690 L 330 690 M 330 690 L 210 570"/>
<glyph unicode="&#x25C7;" glyph-name="WHITE DIAMOND" horiz-adv-x="1000" d="M 0 480 L 420 60 M 420 60 L 840 480 M 840 480 L 420 900 M 420 900 L 0 480"/>
<glyph unicode="&#x25C6;" glyph-name="BLACK DIAMOND" horiz-adv-x="1000" d="M 0 480 L 420 900 M 420 900 L 840 480 M 840 480 L 420 60 M 420 60 L 0 480 M 120 390 L 510 780 M 330 780 L 720 390 M 720 570 L 330 180 M 510 180 L 120 570 M 210 270 L 630 690 M 210 690 L 630 270"/>
<glyph unicode="&#x25A1;" glyph-name="WHITE SQUARE" horiz-adv-x="1000" d="M 30 90 L 810 90 M 810 90 L 810 870 M 810 870 L 30 870 M 30 870 L 30 90"/>
<glyph unicode="&#x25A0;" glyph-name="BLACK SQUARE" horiz-adv-x="1000" d="M 30 90 L 30 900 M 30 900 L 840 900 M 840 900 L 840 90 M 840 90 L 30 90 M 30 90 L 840 900 M 30 900 L 840 90 M 840 360 L 570 90 M 570 90 L 30 630 M 30 630 L 300 900 M 300 900 L 840 360 M 840 630 L 300 90 M 300 90 L 30 360 M 30 360 L 570 900 M 570 900 L 840 630"/>
<glyph unicode="&#x25B3;" glyph-name="WHITE UP-POINTING TRIANGLE" horiz-adv-x="1000" d="M 30 120 L 810 120 M 810 120 L 420 900 M 420 900 L 30 120"/>
<glyph unicode="&#x25B2;" glyph-name="BLACK UP-POINTING TRIANGLE" horiz-adv-x="1000" d="M 30 120 L 420 900 M 420 900 L 810 120 M 810 120 L 30 120 M 690 120 L 360 780 M 540 120 L 300 600 M 390 120 L 210 480 M 240 120 L 150 300 M 150 120 L 480 750 M 300 120 L 540 600 M 450 120 L 630 480 M 600 120 L 690 300"/>
<glyph unicode="&#x25BD;" glyph-name="WHITE DOWN-POINTING TRIANGLE" horiz-adv-x="1000" d="M 30 840 L 420 60 M 420 60 L 810 840 M 810 840 L 30 840"/>
<glyph unicode="&#x25BC;" glyph-name="BLACK DOWN-POINTING TRIANGLE" horiz-adv-x="1000" d="M 30 840 L 420 60 M 420 60 L 810 840 M 810 840 L 30 840 M 150 840 L 480 180 M 300 840 L 540 360 M 450 840 L 630 480 M 600 840 L 690 660 M 690 840 L 360 180 M 540 840 L 300 360 M 390 840 L 210 480 M 240 840 L 150 660"/>
<glyph unicode="&#x203B;" glyph-name="REFERENCE MARK" horiz-adv-x="1000" d="M 30 90 L 810 870 M 30 870 L 810 90 M 420 210 L 360 120 M 360 120 L 480 120 M 480 120 L 420 210 M 420 780 L 360 870 M 360 870 L 480 870 M 480 870 L 420 780 M 150 480 L 60 540 M 60 540 L 60 420 M 60 420 L 150 480 M 690 480 L 780 420 M 780 420 L 780 540 M 780 540 L 690 480"/>
<glyph unicode="&#x3012;" glyph-name="POSTAL MARK" horiz-adv-x="1000" d="M 30 900 L 810 900 M 810 630 L 30 630 M 420 630 L 420 60"/>
<glyph unicode="&#x2192;" glyph-name="RIGHTWARDS ARROW" horiz-adv-x="1000" d="M 30 510 L 840 510 M 840 510 L 570 660 M 570 660 L 720 510 M 720 510 L 570 360 M 570 360 L 840 510"/>
<glyph unicode="&#x2190;" glyph-name="LEFTWARDS ARROW" horiz-adv-x="1000" d="M 840 510 L 30 510 M 30 510 L 300 660 M 300 660 L 150 510 M 150 510 L 300 360 M 300 360 L 30 510"/>
<glyph unicode="&#x2191;" glyph-name="UPWARDS ARROW" horiz-adv-x="1000" d="M 420 60 L 420 900 M 420 900 L 270 630 M 270 630 L 420 780 M 420 780 L 570 630 M 570 630 L 420 900"/>
<glyph unicode="&#x2193;" glyph-name="DOWNWARDS ARROW" horiz-adv-x="1000" d="M 420 870 L 420 30 M 420 30 L 270 300 M 270 300 L 420 150 M 420 150 L 570 300 M 570 300 L 420 30"/>
<glyph unicode="&#x3013;" glyph-name="GETA MARK" horiz-adv-x="1000" d="M 90 120 L 90 300 M 90 300 L 780 300 M 780 300 L 780 120 M 780 120 L 90 120 M 150 120 L 720 300 M 720 120 L 150 300 M 150 690 L 720 870 M 720 690 L 150 870 M 90 870 L 780 870 M 780 870 L 780 690 M 780 690 L 90 690 M 90 690 L 90 870"/>
<glyph unicode="&#x02D8;" glyph-name="BREVE" horiz-adv-x="1000" d="M 0 570 L 870 570 M 870 450 L 0 450"/>
<glyph unicode="&#x02C7;" glyph-name="CARON (Mandarin Chinese third tone)" horiz-adv-x="1000" d="M 0 450 L 570 450 M 570 450 L 570 330 M 570 330 L 870 510 M 870 510 L 570 690 M 570 690 L 570 570 M 570 570 L 0 570"/>
<glyph unicode="&#xB8;" glyph-name="CEDILLA" horiz-adv-x="1000" d="M 870 570 L 300 570 M 300 570 L 300 690 M 300 690 L 0 510 M 0 510 L 300 330 M 300 330 L 300 450 M 300 450 L 870 450"/>
<glyph unicode="&#x02D9;" glyph-name="DOT ABOVE (Mandarin Chinese light tone)" horiz-adv-x="1000" d="M 360 0 L 360 630 M 360 630 L 240 630 M 240 630 L 420 930 M 420 930 L 600 630 M 600 630 L 480 630 M 480 630 L 480 0"/>
<glyph unicode="&#x02DD;" glyph-name="DOUBLE ACUTE ACCENT" horiz-adv-x="1000" d="M 360 930 L 360 300 M 360 300 L 240 300 M 240 300 L 420 0 M 420 0 L 600 300 M 600 300 L 480 300 M 480 300 L 480 930"/>
<glyph unicode="&#xAF;" glyph-name="MACRON" horiz-adv-x="1000" d="M 0 570 L 870 570 M 870 510 L 0 510 M 0 450 L 870 450"/>
<glyph unicode="&#x02DB;" glyph-name="OGONEK" horiz-adv-x="1000" d="M 510 630 L 660 630 M 660 390 L 510 390 M 510 450 L 510 300 M 510 300 L 870 510 M 870 510 L 510 720 M 510 720 L 510 570 M 0 570 L 750 570 M 750 450 L 0 450 M 0 510 L 870 510"/>
<glyph unicode="&#x02DA;" glyph-name="RING ABOVE" horiz-adv-x="1000" d="M 360 630 L 210 630 M 210 390 L 360 390 M 360 450 L 360 300 M 360 300 L 0 510 M 0 510 L 360 720 M 360 720 L 360 570 M 870 570 L 120 570 M 120 450 L 870 450 M 870 510 L 0 510"/>
<glyph unicode="&#x7E;" glyph-name="TILDE" horiz-adv-x="1000" d="M 540 570 L 540 720 M 300 720 L 300 570 M 360 570 L 210 570 M 210 570 L 420 930 M 420 930 L 630 570 M 630 570 L 480 570 M 480 0 L 480 810 M 360 810 L 360 0 M 420 0 L 420 930"/>
<glyph unicode="&#x0384;" glyph-name="GREEK TONOS" horiz-adv-x="1000" d="M 540 360 L 540 210 M 300 210 L 300 360 M 360 360 L 210 360 M 210 360 L 420 0 M 420 0 L 630 360 M 630 360 L 480 360 M 480 930 L 480 120 M 360 120 L 360 930 M 420 930 L 420 0"/>
<glyph unicode="&#x0385;" glyph-name="GREEK DIALYTIKA TONOS" horiz-adv-x="1000" d="M 630 930 L 810 840 M 810 840 L 870 780 M 870 780 L 870 750 M 870 750 L 840 720 M 840 720 L 780 720 M 780 720 L 750 810 M 750 810 L 750 870 M 750 870 L 840 750"/>
<glyph unicode="&#x2208;" glyph-name="ELEMENT OF" horiz-adv-x="1000" d="M 60 480 L 780 480 M 780 720 L 210 720 M 210 720 L 120 660 M 120 660 L 60 570 M 60 570 L 60 390 M 60 390 L 120 300 M 120 300 L 210 240 M 210 240 L 780 240"/>
<glyph unicode="&#x220B;" glyph-name="CONTAINS AS MEMBER" horiz-adv-x="1000" d="M 780 480 L 60 480 M 60 720 L 630 720 M 630 720 L 720 660 M 720 660 L 780 570 M 780 570 L 780 390 M 780 390 L 720 300 M 720 300 L 630 240 M 630 240 L 60 240"/>
<glyph unicode="&#x2286;" glyph-name="SUBSET OF OR EQUAL TO" horiz-adv-x="1000" d="M 60 210 L 780 210 M 780 360 L 210 360 M 210 360 L 120 420 M 120 420 L 60 510 M 60 510 L 60 600 M 60 600 L 120 690 M 120 690 L 210 750 M 210 750 L 780 750"/>
<glyph unicode="&#x2287;" glyph-name="SUPERSET OF OR EQUAL TO" horiz-adv-x="1000" d="M 780 210 L 60 210 M 60 360 L 630 360 M 630 360 L 720 420 M 720 420 L 780 510 M 780 510 L 780 600 M 780 600 L 720 690 M 720 690 L 630 750 M 630 750 L 60 750"/>
<glyph unicode="&#x2282;" glyph-name="SUBSET OF" horiz-adv-x="1000" d="M 780 720 L 240 720 M 240 720 L 120 660 M 120 660 L 60 540 M 60 540 L 60 420 M 60 420 L 120 300 M 120 300 L 240 240 M 240 240 L 780 240"/>
<glyph unicode="&#x2283;" glyph-name="SUPERSET OF" horiz-adv-x="1000" d="M 60 720 L 600 720 M 600 720 L 720 660 M 720 660 L 780 540 M 780 540 L 780 420 M 780 420 L 720 300 M 720 300 L 600 240 M 600 240 L 60 240"/>
<glyph unicode="&#x222A;" glyph-name="UNION" horiz-adv-x="1000" d="M 180 840 L 180 240 M 180 240 L 240 120 M 240 120 L 360 60 M 360 60 L 480 60 M 480 60 L 600 120 M 600 120 L 660 240 M 660 240 L 660 840"/>
<glyph unicode="&#x2229;" glyph-name="INTERSECTION" horiz-adv-x="1000" d="M 180 60 L 180 660 M 180 660 L 240 780 M 240 780 L 360 840 M 360 840 L 480 840 M 480 840 L 600 780 M 600 780 L 660 660 M 660 660 L 660 60"/>
<glyph unicode="&#x2227;" glyph-name="LOGICAL AND" horiz-adv-x="1000" d="M 120 180 L 420 810 M 420 810 L 720 180"/>
<glyph unicode="&#x2228;" glyph-name="LOGICAL OR" horiz-adv-x="1000" d="M 120 810 L 420 180 M 420 180 L 720 810"/>
<glyph unicode="&#xAC;" glyph-name="NOT SIGN" horiz-adv-x="1000" d="M 120 780 L 780 780 M 780 780 L 780 540"/>
<glyph unicode="&#x21D2;" glyph-name="RIGHTWARDS DOUBLE ARROW" horiz-adv-x="1000" d="M 30 570 L 750 570 M 750 390 L 30 390 M 540 240 L 870 480 M 870 480 L 540 720"/>
<glyph unicode="&#x21D4;" glyph-name="LEFT RIGHT DOUBLE ARROW" horiz-adv-x="1000" d="M 120 570 L 750 570 M 750 390 L 120 390 M 270 690 L 0 480 M 0 480 L 270 270 M 600 270 L 870 480 M 870 480 L 600 690"/>
<glyph unicode="&#x2200;" glyph-name="FOR ALL" horiz-adv-x="1000" d="M 120 810 L 420 180 M 420 180 L 720 810 M 240 570 L 600 570"/>
<glyph unicode="&#x2203;" glyph-name="THERE EXISTS" horiz-adv-x="1000" d="M 60 780 L 780 780 M 780 780 L 780 180 M 780 180 L 60 180 M 60 480 L 780 480"/>
<glyph unicode="&#x2220;" glyph-name="ANGLE" horiz-adv-x="1000" d="M 750 210 L 90 210 M 90 210 L 750 750"/>
<glyph unicode="&#x22A5;" glyph-name="UP TACK" horiz-adv-x="1000" d="M 60 210 L 780 210 M 420 210 L 420 840"/>
<glyph unicode="&#x2312;" glyph-name="ARC" horiz-adv-x="1000" d="M 0 720 L 90 780 M 90 780 L 300 840 M 300 840 L 540 840 M 540 840 L 780 780 M 780 780 L 870 720"/>
<glyph unicode="&#x2202;" glyph-name="PARTIAL DIFFERENTIAL" horiz-adv-x="1000" d="M 300 780 L 360 840 M 360 840 L 450 870 M 450 870 L 540 870 M 540 870 L 690 780 M 690 780 L 690 630 M 690 630 L 510 150 M 510 150 L 420 90 M 420 90 L 300 90 M 300 90 L 180 150 M 180 150 L 120 300 M 120 300 L 180 480 M 180 480 L 270 570 M 270 570 L 390 600 M 390 600 L 510 540 M 510 540 L 600 420"/>
<glyph unicode="&#x2207;" glyph-name="NABLA" horiz-adv-x="1000" d="M 360 180 L 720 780 M 720 780 L 120 780 M 120 780 L 360 180 M 390 240 L 210 720 M 210 720 L 660 720"/>
<glyph unicode="&#x2261;" glyph-name="IDENTICAL TO" horiz-adv-x="1000" d="M 90 630 L 750 630 M 750 480 L 90 480 M 90 330 L 750 330"/>
<glyph unicode="&#x2252;" glyph-name="APPROXIMATELY EQUAL TO OR THE IMAGE OF" horiz-adv-x="1000" d="M 90 570 L 750 570 M 750 390 L 90 390 M 210 660 L 180 720 M 180 720 L 210 750 M 210 750 L 240 720 M 240 720 L 210 660 M 630 300 L 600 240 M 600 240 L 630 210 M 630 210 L 660 240 M 660 240 L 630 300"/>
<glyph unicode="&#x226A;" glyph-name="MUCH LESS-THAN" horiz-adv-x="1000" d="M 570 840 L 30 480 M 30 480 L 570 120 M 810 120 L 270 480 M 270 480 L 810 840"/>
<glyph unicode="&#x226B;" glyph-name="MUCH GREATER-THAN" horiz-adv-x="1000" d="M 60 840 L 600 480 M 600 480 L 60 120 M 300 120 L 840 480 M 840 480 L 300 840"/>
<glyph unicode="&#x221A;" glyph-name="SQUARE ROOT" horiz-adv-x="1000" d="M 0 270 L 90 0 M 90 0 L 300 930 M 300 930 L 870 930"/>
<glyph unicode="&#x223D;" glyph-name="REVERSED TILDE" horiz-adv-x="1000" d="M 240 630 L 120 630 M 120 630 L 30 540 M 30 540 L 30 360 M 30 360 L 120 270 M 120 270 L 270 270 M 270 270 L 360 330 M 360 330 L 510 570 M 510 570 L 600 630 M 600 630 L 750 630 M 750 630 L 840 540 M 840 540 L 840 360 M 840 360 L 750 270 M 750 270 L 630 270"/>
<glyph unicode="&#x221D;" glyph-name="PROPORTIONAL TO" horiz-adv-x="1000" d="M 810 630 L 600 630 M 600 630 L 510 570 M 510 570 L 360 330 M 360 330 L 270 270 M 270 270 L 120 270 M 120 270 L 30 360 M 30 360 L 30 540 M 30 540 L 120 630 M 120 630 L 270 630 M 270 630 L 360 570 M 360 570 L 510 330 M 510 330 L 600 270 M 600 270 L 810 270"/>
<glyph unicode="&#x2235;" glyph-name="BECAUSE" horiz-adv-x="1000" d="M 180 690 L 120 780 M 120 780 L 180 810 M 180 810 L 240 780 M 240 780 L 180 690 M 180 690 L 180 810 M 720 810 L 720 690 M 720 690 L 780 780 M 780 780 L 720 810 M 720 810 L 660 780 M 660 780 L 720 690 M 420 240 L 480 210 M 480 210 L 420 120 M 420 120 L 360 210 M 360 210 L 420 240 M 420 240 L 420 120"/>
<glyph unicode="&#x222B;" glyph-name="INTEGRAL" horiz-adv-x="1000" d="M 630 840 L 540 930 M 540 930 L 450 930 M 450 930 L 360 840 M 360 840 L 360 720 M 360 720 L 480 210 M 480 210 L 480 90 M 480 90 L 390 0 M 390 0 L 300 0 M 300 0 L 210 90"/>
<glyph unicode="&#x222C;" glyph-name="DOUBLE INTEGRAL" horiz-adv-x="1000" d="M 780 840 L 690 930 M 690 930 L 570 930 M 570 930 L 510 870 M 510 870 L 480 780 M 480 780 L 480 690 M 480 690 L 600 210 M 600 210 L 600 90 M 600 90 L 510 0 M 510 0 L 450 0 M 450 0 L 390 60 M 420 870 L 360 930 M 360 930 L 300 930 M 300 930 L 210 840 M 210 840 L 210 720 M 210 720 L 330 240 M 330 240 L 330 150 M 330 150 L 300 60 M 300 60 L 240 0 M 240 0 L 150 0 M 150 0 L 60 90"/>
<glyph unicode="&#x212B;" glyph-name="ANGSTROM SIGN" horiz-adv-x="1000" d="M 60 60 L 420 750 M 420 750 L 780 60 M 240 360 L 600 360 M 390 810 L 450 810 M 450 810 L 510 870 M 510 870 L 450 930 M 450 930 L 390 930 M 390 930 L 330 870 M 330 870 L 390 810"/>
<glyph unicode="&#x2030;" glyph-name="PER MILLE SIGN" horiz-adv-x="1000" d="M 0 600 L 0 840 M 0 840 L 60 900 M 60 900 L 180 900 M 180 900 L 240 840 M 240 840 L 240 600 M 240 600 L 180 540 M 180 540 L 60 540 M 60 540 L 0 600 M 0 60 L 630 930 M 630 360 L 720 360 M 720 360 L 780 300 M 780 300 L 780 120 M 780 120 L 720 60 M 720 60 L 630 60 M 630 60 L 570 120 M 570 120 L 570 300 M 570 300 L 630 360 M 420 360 L 480 300 M 480 300 L 480 120 M 480 120 L 420 60 M 420 60 L 330 60 M 330 60 L 270 120 M 270 120 L 270 300 M 270 300 L 330 360 M 330 360 L 420 360"/>
<glyph unicode="&#x266F;" glyph-name="MUSIC SHARP SIGN" horiz-adv-x="1000" d="M 300 60 L 300 810 M 720 810 L 120 540 M 540 930 L 540 180 M 120 180 L 720 450"/>
<glyph unicode="&#x266D;" glyph-name="MUSIC FLAT SIGN" horiz-adv-x="1000" d="M 240 900 L 240 30 M 240 30 L 510 210 M 510 210 L 600 390 M 600 390 L 600 510 M 600 510 L 540 600 M 540 600 L 480 630 M 480 630 L 420 630 M 420 630 L 330 570 M 330 570 L 240 420"/>
<glyph unicode="&#x266A;" glyph-name="EIGHTH NOTE" horiz-adv-x="1000" d="M 570 420 L 630 540 M 630 540 L 630 630 M 630 630 L 540 810 M 540 810 L 420 930 M 420 930 L 420 120 M 420 120 L 300 30 M 300 30 L 150 0 M 150 0 L 60 60 M 60 60 L 60 120 M 60 120 L 150 210 M 150 210 L 300 240 M 300 240 L 420 180 M 420 180 L 60 60 M 60 120 L 330 210 M 420 120 L 150 30"/>
<glyph unicode="&#x2020;" glyph-name="DAGGER" horiz-adv-x="1000" d="M 390 30 L 360 900 M 360 900 L 450 900 M 450 900 L 390 30 M 210 720 L 600 720"/>
<glyph unicode="&#x2021;" glyph-name="DOUBLE DAGGER" horiz-adv-x="1000" d="M 360 930 L 450 930 M 450 930 L 360 30 M 360 30 L 450 30 M 450 30 L 360 930 M 240 780 L 570 780 M 570 180 L 240 180"/>
<glyph unicode="&#xB6;" glyph-name="PILCROW SIGN" horiz-adv-x="1000" d="M 420 900 L 420 30 M 540 30 L 540 900 M 540 900 L 330 900 M 330 900 L 240 810 M 240 810 L 240 750 M 240 750 L 330 660 M 330 660 L 420 660 M 420 720 L 270 720 M 270 840 L 420 840 M 420 780 L 240 780"/>
<glyph unicode="&#x266E;" glyph-name="MUSIC NATURAL SIGN" horiz-adv-x="1000" d="M 570 0 L 570 750 M 570 750 L 240 600 M 240 930 L 240 180 M 240 180 L 570 330"/>
<glyph unicode="&#x25EF;" glyph-name="LARGE CIRCLE" horiz-adv-x="1000" d="M 0 360 L 0 600 M 0 600 L 60 720 M 60 720 L 180 840 M 180 840 L 300 900 M 300 900 L 540 900 M 540 900 L 660 840 M 660 840 L 780 720 M 780 720 L 840 600 M 840 600 L 840 360 M 840 360 L 780 240 M 780 240 L 660 120 M 660 120 L 540 60 M 540 60 L 300 60 M 300 60 L 180 120 M 180 120 L 60 240 M 60 240 L 0 360"/>
<glyph unicode="&#x25B7;" glyph-name="WHITE RIGHT-POINTING TRIANGLE" horiz-adv-x="1000" d="M 270 810 L 570 810 M 420 810 L 420 90 M 270 90 L 570 90"/>
<glyph unicode="&#x25B6;" glyph-name="BLACK RIGHT-POINTING TRIANGLE" horiz-adv-x="1000" d="M 300 810 L 300 90 M 540 90 L 540 810 M 210 810 L 630 810 M 630 90 L 210 90"/>
<glyph unicode="&#x25C1;" glyph-name="WHITE LEFT-POINTING TRIANGLE" horiz-adv-x="1000" d="M 240 810 L 240 90 M 420 90 L 420 810 M 600 810 L 600 90 M 150 90 L 690 90 M 690 810 L 150 810"/>
<glyph unicode="&#x25C0;" glyph-name="BLACK LEFT-POINTING TRIANGLE" horiz-adv-x="1000" d="M 210 90 L 90 90 M 150 90 L 150 810 M 270 810 L 480 90 M 480 90 L 690 810 M 90 810 L 330 810 M 630 810 L 750 810"/>
<glyph unicode="&#x2197;" glyph-name="NORTH EAST ARROW" horiz-adv-x="1000" d="M 180 810 L 420 90 M 420 90 L 660 810 M 120 810 L 240 810 M 600 810 L 720 810"/>
<glyph unicode="&#x2198;" glyph-name="SOUTH EAST ARROW" horiz-adv-x="1000" d="M 630 90 L 750 90 M 690 90 L 690 810 M 570 810 L 360 90 M 360 90 L 150 810 M 90 810 L 210 810 M 510 810 L 780 810"/>
<glyph unicode="&#x2196;" glyph-name="NORTH WEST ARROW" horiz-adv-x="1000" d="M 90 810 L 270 90 M 270 90 L 450 810 M 570 810 L 570 90 M 720 90 L 720 810 M 30 810 L 150 810 M 390 810 L 780 810 M 780 90 L 510 90"/>
<glyph unicode="&#x2199;" glyph-name="SOUTH WEST ARROW" horiz-adv-x="1000" d="M 60 810 L 240 90 M 240 90 L 420 810 M 480 810 L 480 90 M 600 90 L 600 810 M 720 810 L 720 90 M 420 90 L 780 90 M 780 810 L 360 810 M 120 810 L 0 810"/>
<glyph unicode="&#x21C4;" glyph-name="RIGHTWARDS ARROW OVER LEFTWARDS ARROW" horiz-adv-x="1000" d="M 150 810 L 150 90 M 270 90 L 690 810 M 270 810 L 690 90 M 90 90 L 330 90 M 630 90 L 750 90 M 750 810 L 630 810 M 330 810 L 90 810"/>
<glyph unicode="&#x21E8;" glyph-name="RIGHTWARDS WHITE ARROW" horiz-adv-x="1000" d="M 150 810 L 690 90 M 690 810 L 150 90 M 90 90 L 210 90 M 630 90 L 750 90 M 750 810 L 630 810 M 210 810 L 90 810"/>
<glyph unicode="&#x21E6;" glyph-name="LEFTWARDS WHITE ARROW" horiz-adv-x="1000" d="M 150 810 L 570 90 M 570 810 L 150 90 M 690 90 L 690 810 M 90 810 L 240 810 M 510 810 L 750 810 M 750 90 L 510 90 M 210 90 L 90 90"/>
<glyph unicode="&#x21E7;" glyph-name="UPWARDS WHITE ARROW" horiz-adv-x="1000" d="M 90 810 L 480 90 M 120 90 L 480 810 M 570 810 L 570 90 M 720 90 L 720 810 M 30 810 L 150 810 M 420 810 L 780 810 M 780 90 L 420 90 M 180 90 L 60 90"/>
<glyph unicode="&#x21E9;" glyph-name="DOWNWARDS WHITE ARROW" horiz-adv-x="1000" d="M 60 810 L 450 90 M 450 810 L 60 90 M 510 90 L 510 810 M 630 810 L 630 90 M 750 90 L 750 810 M 0 810 L 120 810 M 390 810 L 810 810 M 810 90 L 390 90 M 120 90 L 0 90"/>
<glyph unicode="&#x2934;" glyph-name="ARROW POINTING RIGHTWARDS THEN CURVING UPWARDS	[2000]" horiz-adv-x="1000" d="M 0 90 L 120 90 M 300 90 L 480 90 M 420 90 L 420 810 M 360 810 L 60 90 M 360 90 L 60 810 M 0 810 L 120 810 M 300 810 L 540 810 M 480 810 L 630 90 M 630 90 L 780 810 M 840 810 L 720 810"/>
<glyph unicode="&#x2935;" glyph-name="ARROW POINTING RIGHTWARDS THEN CURVING DOWNWARDS	[2000]" horiz-adv-x="1000" d="M 0 90 L 120 90 M 330 90 L 450 90 M 390 90 L 60 810 M 60 90 L 390 810 M 450 810 L 630 90 M 630 90 L 780 810 M 840 810 L 720 810 M 510 810 L 330 810 M 120 810 L 0 810"/>
<glyph unicode="&#xFF10;" glyph-name="FULLWIDTH DIGIT ZERO" horiz-adv-x="1000" d="M 240 90 L 150 180 M 150 180 L 90 300 M 90 300 L 90 630 M 90 630 L 150 780 M 150 780 L 240 870 M 240 870 L 540 870 M 540 870 L 630 780 M 630 780 L 690 660 M 690 660 L 690 300 M 690 300 L 630 180 M 630 180 L 540 90 M 540 90 L 240 90"/>
<glyph unicode="&#xFF11;" glyph-name="FULLWIDTH DIGIT ONE" horiz-adv-x="1000" d="M 600 90 L 180 90 M 390 90 L 390 900 M 390 900 L 180 630"/>
<glyph unicode="&#xFF12;" glyph-name="FULLWIDTH DIGIT TWO" horiz-adv-x="1000" d="M 90 660 L 90 720 M 90 720 L 150 810 M 150 810 L 270 870 M 270 870 L 510 870 M 510 870 L 630 810 M 630 810 L 690 720 M 690 720 L 690 600 M 690 600 L 630 510 M 630 510 L 240 300 M 240 300 L 150 210 M 150 210 L 90 90 M 90 90 L 720 90"/>
<glyph unicode="&#xFF13;" glyph-name="FULLWIDTH DIGIT THREE" horiz-adv-x="1000" d="M 150 870 L 720 870 M 720 870 L 300 570 M 300 570 L 540 570 M 540 570 L 660 510 M 660 510 L 720 390 M 720 390 L 720 270 M 720 270 L 660 150 M 660 150 L 540 90 M 540 90 L 240 90 M 240 90 L 150 150 M 150 150 L 90 270"/>
<glyph unicode="&#xFF14;" glyph-name="FULLWIDTH DIGIT FOUR" horiz-adv-x="1000" d="M 480 900 L 60 330 M 60 330 L 60 270 M 60 270 L 750 270 M 570 840 L 570 60"/>
<glyph unicode="&#xFF15;" glyph-name="FULLWIDTH DIGIT FIVE" horiz-adv-x="1000" d="M 660 870 L 120 870 M 120 870 L 120 480 M 120 480 L 240 600 M 240 600 L 510 600 M 510 600 L 630 540 M 630 540 L 690 420 M 690 420 L 690 270 M 690 270 L 630 150 M 630 150 L 510 90 M 510 90 L 270 90 M 270 90 L 150 150 M 150 150 L 90 240"/>
<glyph unicode="&#xFF16;" glyph-name="FULLWIDTH DIGIT SIX" horiz-adv-x="1000" d="M 690 750 L 600 840 M 600 840 L 510 870 M 510 870 L 300 870 M 300 870 L 150 780 M 150 780 L 90 630 M 90 630 L 90 270 M 90 270 L 150 150 M 150 150 L 270 90 M 270 90 L 540 90 M 540 90 L 660 150 M 660 150 L 720 270 M 720 270 L 720 390 M 720 390 L 660 480 M 660 480 L 540 540 M 540 540 L 240 540 M 240 540 L 90 450"/>
<glyph unicode="&#xFF17;" glyph-name="FULLWIDTH DIGIT SEVEN" horiz-adv-x="1000" d="M 60 750 L 60 870 M 60 870 L 690 870 M 690 870 L 690 810 M 690 810 L 540 660 M 540 660 L 420 480 M 420 480 L 360 300 M 360 300 L 360 60"/>
<glyph unicode="&#xFF18;" glyph-name="FULLWIDTH DIGIT EIGHT" horiz-adv-x="1000" d="M 570 540 L 240 540 M 240 540 L 120 450 M 120 450 L 60 360 M 60 360 L 60 240 M 60 240 L 120 150 M 120 150 L 240 90 M 240 90 L 570 90 M 570 90 L 690 150 M 690 150 L 750 240 M 750 240 L 750 360 M 750 360 L 690 450 M 690 450 L 570 540 M 540 540 L 690 600 M 690 600 L 720 690 M 720 690 L 720 720 M 720 720 L 690 810 M 690 810 L 570 870 M 570 870 L 240 870 M 240 870 L 120 810 M 120 810 L 90 720 M 90 720 L 90 690 M 90 690 L 120 600 M 120 600 L 270 540"/>
<glyph unicode="&#xFF19;" glyph-name="FULLWIDTH DIGIT NINE" horiz-adv-x="1000" d="M 90 150 L 210 90 M 210 90 L 510 90 M 510 90 L 630 150 M 630 150 L 690 270 M 690 270 L 690 690 M 690 690 L 630 810 M 630 810 L 510 870 M 510 870 L 270 870 M 270 870 L 150 810 M 150 810 L 90 690 M 90 690 L 90 600 M 90 600 L 150 480 M 150 480 L 240 420 M 240 420 L 480 420 M 480 420 L 600 480 M 600 480 L 690 570"/>
<glyph unicode="&#x29BF;" glyph-name="CIRCLED BULLET	[2000]" horiz-adv-x="1000" d="M 810 900 L 0 90 M 810 90 L 540 90 M 540 90 L 750 270 M 750 270 L 810 360 M 810 360 L 810 450 M 810 450 L 720 540 M 720 540 L 630 540 M 630 540 L 540 480 M 60 450 L 240 450 M 150 450 L 150 900 M 150 900 L 60 750"/>
<glyph unicode="&#x25C9;" glyph-name="FISHEYE" horiz-adv-x="1000" d="M 0 90 L 810 900 M 570 540 L 810 540 M 810 540 L 630 360 M 630 360 L 750 360 M 750 360 L 810 300 M 810 300 L 810 180 M 810 180 L 750 90 M 750 90 L 630 90 M 630 90 L 540 150 M 60 780 L 150 900 M 150 900 L 150 450 M 60 450 L 240 450"/>
<glyph unicode="&#x303D;" glyph-name="PART ALTERNATION MARK	[2000]" horiz-adv-x="1000" d="M 720 510 L 720 90 M 0 90 L 810 900 M 810 240 L 510 240 M 510 240 L 660 570 M 240 450 L 60 450 M 150 450 L 150 900 M 150 900 L 60 780"/>
<glyph unicode="&#xFE46;" glyph-name="WHITE SESAME DOT	[2000]" horiz-adv-x="1000" d="M 0 90 L 810 900 M 570 540 L 810 540 M 810 540 L 630 360 M 630 360 L 750 360 M 750 360 L 810 300 M 810 300 L 810 180 M 810 180 L 750 90 M 750 90 L 630 90 M 630 90 L 540 150 M 30 840 L 120 900 M 120 900 L 210 900 M 210 900 L 270 810 M 270 810 L 270 720 M 270 720 L 210 630 M 210 630 L 0 450 M 0 450 L 240 450"/>
<glyph unicode="&#xFE45;" glyph-name="SESAME DOT	[2000]" horiz-adv-x="1000" d="M 660 570 L 510 240 M 510 240 L 810 240 M 810 900 L 0 90 M 720 90 L 720 510 M 0 510 L 60 450 M 60 450 L 210 450 M 210 450 L 270 540 M 270 540 L 270 630 M 270 630 L 210 720 M 210 720 L 90 720 M 90 720 L 300 900 M 300 900 L 30 900"/>
<glyph unicode="&#xFF21;" glyph-name="FULLWIDTH LATIN CAPITAL LETTER A" horiz-adv-x="1000" d="M 30 60 L 420 870 M 420 870 L 810 60 M 180 360 L 660 360"/>
<glyph unicode="&#xFF22;" glyph-name="FULLWIDTH LATIN CAPITAL LETTER B" horiz-adv-x="1000" d="M 90 870 L 510 870 M 510 870 L 630 810 M 630 810 L 690 720 M 690 720 L 690 660 M 690 660 L 630 570 M 630 570 L 540 510 M 540 510 L 120 510 M 540 510 L 690 450 M 690 450 L 750 360 M 750 360 L 750 240 M 750 240 L 690 150 M 690 150 L 570 90 M 570 90 L 90 90 M 120 90 L 120 870"/>
<glyph unicode="&#xFF23;" glyph-name="FULLWIDTH LATIN CAPITAL LETTER C" horiz-adv-x="1000" d="M 720 870 L 720 720 M 720 720 L 660 810 M 660 810 L 540 870 M 540 870 L 270 870 M 270 870 L 150 810 M 150 810 L 90 750 M 90 750 L 30 600 M 30 600 L 30 360 M 30 360 L 90 210 M 90 210 L 150 150 M 150 150 L 270 90 M 270 90 L 540 90 M 540 90 L 660 150 M 660 150 L 750 240"/>
<glyph unicode="&#xFF24;" glyph-name="FULLWIDTH LATIN CAPITAL LETTER D" horiz-adv-x="1000" d="M 60 870 L 510 870 M 510 870 L 630 810 M 630 810 L 690 750 M 690 750 L 750 630 M 750 630 L 750 330 M 750 330 L 690 210 M 690 210 L 630 150 M 630 150 L 510 90 M 510 90 L 60 90 M 90 90 L 90 870"/>
<glyph unicode="&#xFF25;" glyph-name="FULLWIDTH LATIN CAPITAL LETTER E" horiz-adv-x="1000" d="M 90 870 L 720 870 M 720 90 L 90 90 M 120 90 L 120 870 M 120 510 L 600 510"/>
<glyph unicode="&#xFF26;" glyph-name="FULLWIDTH LATIN CAPITAL LETTER F" horiz-adv-x="1000" d="M 90 870 L 720 870 M 120 870 L 120 60 M 120 510 L 570 510"/>
<glyph unicode="&#xFF27;" glyph-name="FULLWIDTH LATIN CAPITAL LETTER G" horiz-adv-x="1000" d="M 720 780 L 630 840 M 630 840 L 540 870 M 540 870 L 300 870 M 300 870 L 180 810 M 180 810 L 120 750 M 120 750 L 60 600 M 60 600 L 60 360 M 60 360 L 120 210 M 120 210 L 180 150 M 180 150 L 300 90 M 300 90 L 540 90 M 540 90 L 630 120 M 630 120 L 720 180 M 720 180 L 720 450 M 720 450 L 600 450"/>
<glyph unicode="&#xFF28;" glyph-name="FULLWIDTH LATIN CAPITAL LETTER H" horiz-adv-x="1000" d="M 90 60 L 90 870 M 90 480 L 750 480 M 750 870 L 750 60"/>
<glyph unicode="&#xFF29;" glyph-name="FULLWIDTH LATIN CAPITAL LETTER I" horiz-adv-x="1000" d="M 420 90 L 420 870 M 210 870 L 630 870 M 630 90 L 210 90"/>
<glyph unicode="&#xFF2A;" glyph-name="FULLWIDTH LATIN CAPITAL LETTER J" horiz-adv-x="1000" d="M 600 900 L 660 900 M 660 900 L 660 240 M 660 240 L 600 120 M 600 120 L 480 60 M 480 60 L 300 60 M 300 60 L 180 120 M 180 120 L 120 180"/>
<glyph unicode="&#xFF2B;" glyph-name="FULLWIDTH LATIN CAPITAL LETTER K" horiz-adv-x="1000" d="M 120 870 L 120 60 M 120 480 L 240 480 M 240 480 L 690 870 M 690 870 L 720 870 M 720 60 L 690 60 M 690 60 L 240 480"/>
<glyph unicode="&#xFF2C;" glyph-name="FULLWIDTH LATIN CAPITAL LETTER L" horiz-adv-x="1000" d="M 120 900 L 120 90 M 60 90 L 750 90"/>
<glyph unicode="&#xFF2D;" glyph-name="FULLWIDTH LATIN CAPITAL LETTER M" horiz-adv-x="1000" d="M 30 60 L 150 870 M 150 870 L 420 90 M 420 90 L 690 870 M 690 870 L 810 60"/>
<glyph unicode="&#xFF2E;" glyph-name="FULLWIDTH LATIN CAPITAL LETTER N" horiz-adv-x="1000" d="M 90 60 L 90 870 M 90 870 L 120 870 M 120 870 L 750 60 M 750 60 L 750 870"/>
<glyph unicode="&#xFF2F;" glyph-name="FULLWIDTH LATIN CAPITAL LETTER O" horiz-adv-x="1000" d="M 600 870 L 240 870 M 240 870 L 180 840 M 180 840 L 90 750 M 90 750 L 60 660 M 60 660 L 60 300 M 60 300 L 90 210 M 90 210 L 180 120 M 180 120 L 240 90 M 240 90 L 600 90 M 600 90 L 660 120 M 660 120 L 750 210 M 750 210 L 780 300 M 780 300 L 780 660 M 780 660 L 750 750 M 750 750 L 660 840 M 660 840 L 600 870"/>
<glyph unicode="&#xFF30;" glyph-name="FULLWIDTH LATIN CAPITAL LETTER P" horiz-adv-x="1000" d="M 90 60 L 90 870 M 60 870 L 570 870 M 570 870 L 690 810 M 690 810 L 750 720 M 750 720 L 750 600 M 750 600 L 690 510 M 690 510 L 570 450 M 570 450 L 90 450"/>
<glyph unicode="&#xFF31;" glyph-name="FULLWIDTH LATIN CAPITAL LETTER Q" horiz-adv-x="1000" d="M 60 300 L 60 690 M 60 690 L 120 810 M 120 810 L 240 870 M 240 870 L 570 870 M 570 870 L 690 810 M 690 810 L 750 690 M 750 690 L 750 270 M 750 270 L 690 150 M 690 150 L 570 90 M 570 90 L 240 90 M 240 90 L 120 150 M 120 150 L 60 300 M 270 270 L 450 270 M 450 270 L 570 210 M 570 210 L 660 120 M 660 120 L 780 30 M 780 30 L 840 30"/>
<glyph unicode="&#xFF32;" glyph-name="FULLWIDTH LATIN CAPITAL LETTER R" horiz-adv-x="1000" d="M 60 870 L 570 870 M 570 870 L 690 810 M 690 810 L 750 720 M 750 720 L 750 630 M 750 630 L 690 540 M 690 540 L 570 480 M 570 480 L 90 480 M 90 870 L 90 60 M 780 60 L 690 60 M 690 60 L 360 480"/>
<glyph unicode="&#xFF33;" glyph-name="FULLWIDTH LATIN CAPITAL LETTER S" horiz-adv-x="1000" d="M 720 750 L 660 810 M 660 810 L 540 870 M 540 870 L 270 870 M 270 870 L 150 810 M 150 810 L 90 720 M 90 720 L 90 660 M 90 660 L 150 570 M 150 570 L 300 510 M 300 510 L 570 510 M 570 510 L 690 450 M 690 450 L 750 360 M 750 360 L 750 240 M 750 240 L 690 150 M 690 150 L 570 90 M 570 90 L 270 90 M 270 90 L 150 150 M 150 150 L 60 240"/>
<glyph unicode="&#xFF34;" glyph-name="FULLWIDTH LATIN CAPITAL LETTER T" horiz-adv-x="1000" d="M 390 60 L 390 870 M 30 870 L 750 870"/>
<glyph unicode="&#xFF35;" glyph-name="FULLWIDTH LATIN CAPITAL LETTER U" horiz-adv-x="1000" d="M 90 870 L 90 300 M 90 300 L 120 210 M 120 210 L 210 120 M 210 120 L 270 90 M 270 90 L 570 90 M 570 90 L 630 120 M 630 120 L 720 210 M 720 210 L 750 300 M 750 300 L 750 870"/>
<glyph unicode="&#xFF36;" glyph-name="FULLWIDTH LATIN CAPITAL LETTER V" horiz-adv-x="1000" d="M 60 870 L 420 60 M 420 60 L 780 870"/>
<glyph unicode="&#xFF37;" glyph-name="FULLWIDTH LATIN CAPITAL LETTER W" horiz-adv-x="1000" d="M 30 870 L 210 60 M 210 60 L 420 810 M 420 810 L 630 60 M 630 60 L 810 870"/>
<glyph unicode="&#xFF38;" glyph-name="FULLWIDTH LATIN CAPITAL LETTER X" horiz-adv-x="1000" d="M 30 60 L 60 60 M 60 60 L 780 870 M 780 870 L 810 870 M 810 60 L 780 60 M 780 60 L 60 870 M 60 870 L 30 870"/>
<glyph unicode="&#xFF39;" glyph-name="FULLWIDTH LATIN CAPITAL LETTER Y" horiz-adv-x="1000" d="M 390 60 L 390 450 M 390 450 L 30 870 M 750 870 L 390 450"/>
<glyph unicode="&#xFF3A;" glyph-name="FULLWIDTH LATIN CAPITAL LETTER Z" horiz-adv-x="1000" d="M 90 870 L 750 870 M 750 870 L 90 90 M 90 90 L 750 90"/>
<glyph unicode="&#x2213;" glyph-name="MINUS-OR-PLUS SIGN" horiz-adv-x="1000" d="M 120 780 L 720 780 M 720 390 L 120 390 M 420 660 L 420 120"/>
<glyph unicode="&#xFF41;" glyph-name="FULLWIDTH LATIN SMALL LETTER A" horiz-adv-x="1000" d="M 120 540 L 180 600 M 180 600 L 270 630 M 270 630 L 510 630 M 510 630 L 600 540 M 600 540 L 600 180 M 600 180 L 660 90 M 660 90 L 720 60 M 600 480 L 210 420 M 210 420 L 120 330 M 120 330 L 120 180 M 120 180 L 210 90 M 210 90 L 450 90 M 450 90 L 540 150 M 540 150 L 600 240"/>
<glyph unicode="&#xFF42;" glyph-name="FULLWIDTH LATIN SMALL LETTER B" horiz-adv-x="1000" d="M 150 870 L 150 90 M 150 240 L 210 150 M 210 150 L 300 90 M 300 90 L 510 90 M 510 90 L 600 150 M 600 150 L 660 240 M 660 240 L 660 480 M 660 480 L 600 570 M 600 570 L 510 630 M 510 630 L 300 630 M 300 630 L 210 570 M 210 570 L 150 510"/>
<glyph unicode="&#xFF43;" glyph-name="FULLWIDTH LATIN SMALL LETTER C" horiz-adv-x="1000" d="M 660 540 L 540 630 M 540 630 L 300 630 M 300 630 L 180 570 M 180 570 L 120 450 M 120 450 L 120 270 M 120 270 L 180 150 M 180 150 L 300 90 M 300 90 L 540 90 M 540 90 L 660 180"/>
<glyph unicode="&#xFF44;" glyph-name="FULLWIDTH LATIN SMALL LETTER D" horiz-adv-x="1000" d="M 630 870 L 630 90 M 630 240 L 540 150 M 540 150 L 450 90 M 450 90 L 270 90 M 270 90 L 180 150 M 180 150 L 120 240 M 120 240 L 120 480 M 120 480 L 180 570 M 180 570 L 270 630 M 270 630 L 480 630 M 480 630 L 570 570 M 570 570 L 630 510"/>
<glyph unicode="&#xFF45;" glyph-name="FULLWIDTH LATIN SMALL LETTER E" horiz-adv-x="1000" d="M 120 420 L 660 420 M 660 420 L 660 450 M 660 450 L 600 570 M 600 570 L 510 630 M 510 630 L 270 630 M 270 630 L 180 570 M 180 570 L 120 450 M 120 450 L 120 270 M 120 270 L 180 150 M 180 150 L 300 90 M 300 90 L 510 90 M 510 90 L 660 150"/>
<glyph unicode="&#xFF46;" glyph-name="FULLWIDTH LATIN SMALL LETTER F" horiz-adv-x="1000" d="M 180 90 L 480 90 M 330 90 L 330 780 M 330 780 L 420 870 M 420 870 L 570 870 M 570 600 L 120 600"/>
<glyph unicode="&#xFF47;" glyph-name="FULLWIDTH LATIN SMALL LETTER G" horiz-adv-x="1000" d="M 630 630 L 630 90 M 630 90 L 540 0 M 540 0 L 240 0 M 240 0 L 120 60 M 630 540 L 510 630 M 510 630 L 210 630 M 210 630 L 120 540 M 120 540 L 120 300 M 120 300 L 210 210 M 210 210 L 540 210 M 540 210 L 630 300"/>
<glyph unicode="&#xFF48;" glyph-name="FULLWIDTH LATIN SMALL LETTER H" horiz-adv-x="1000" d="M 150 90 L 150 870 M 150 870 L 150 510 M 150 510 L 270 630 M 270 630 L 570 630 M 570 630 L 660 540 M 660 540 L 660 90"/>
<glyph unicode="&#xFF49;" glyph-name="FULLWIDTH LATIN SMALL LETTER I" horiz-adv-x="1000" d="M 180 90 L 600 90 M 420 90 L 420 630 M 420 630 L 270 630 M 360 750 L 300 810 M 300 810 L 360 870 M 360 870 L 420 810 M 420 810 L 360 750 M 360 750 L 360 870"/>
<glyph unicode="&#xFF4A;" glyph-name="FULLWIDTH LATIN SMALL LETTER J" horiz-adv-x="1000" d="M 150 90 L 270 0 M 270 0 L 390 0 M 390 0 L 480 60 M 480 60 L 540 210 M 540 210 L 540 630 M 540 630 L 390 630 M 480 750 L 420 810 M 420 810 L 480 870 M 480 870 L 540 810 M 540 810 L 480 750 M 480 750 L 480 870"/>
<glyph unicode="&#xFF4B;" glyph-name="FULLWIDTH LATIN SMALL LETTER K" horiz-adv-x="1000" d="M 150 870 L 150 90 M 150 330 L 630 630 M 300 420 L 630 90 M 630 90 L 690 90"/>
<glyph unicode="&#xFF4C;" glyph-name="FULLWIDTH LATIN SMALL LETTER L" horiz-adv-x="1000" d="M 210 90 L 600 90 M 420 90 L 420 870 M 420 870 L 300 870"/>
<glyph unicode="&#xFF4D;" glyph-name="FULLWIDTH LATIN SMALL LETTER M" horiz-adv-x="1000" d="M 90 630 L 90 90 M 90 510 L 180 630 M 180 630 L 330 630 M 330 630 L 420 510 M 420 510 L 510 630 M 510 630 L 660 630 M 660 630 L 750 510 M 750 510 L 750 90 M 420 90 L 420 510"/>
<glyph unicode="&#xFF4E;" glyph-name="FULLWIDTH LATIN SMALL LETTER N" horiz-adv-x="1000" d="M 150 630 L 150 90 M 150 510 L 270 630 M 270 630 L 510 630 M 510 630 L 600 570 M 600 570 L 660 480 M 660 480 L 660 90"/>
<glyph unicode="&#xFF4F;" glyph-name="FULLWIDTH LATIN SMALL LETTER O" horiz-adv-x="1000" d="M 120 480 L 120 240 M 120 240 L 180 150 M 180 150 L 270 90 M 270 90 L 510 90 M 510 90 L 600 150 M 600 150 L 660 240 M 660 240 L 660 480 M 660 480 L 600 570 M 600 570 L 510 630 M 510 630 L 270 630 M 270 630 L 180 570 M 180 570 L 120 480"/>
<glyph unicode="&#xFF50;" glyph-name="FULLWIDTH LATIN SMALL LETTER P" horiz-adv-x="1000" d="M 150 0 L 150 630 M 150 510 L 270 630 M 270 630 L 510 630 M 510 630 L 600 570 M 600 570 L 660 480 M 660 480 L 660 360 M 660 360 L 600 270 M 600 270 L 510 210 M 510 210 L 270 210 M 270 210 L 150 330"/>
<glyph unicode="&#xFF51;" glyph-name="FULLWIDTH LATIN SMALL LETTER Q" horiz-adv-x="1000" d="M 600 0 L 600 630 M 600 510 L 480 630 M 480 630 L 270 630 M 270 630 L 180 570 M 180 570 L 120 480 M 120 480 L 120 360 M 120 360 L 180 270 M 180 270 L 270 210 M 270 210 L 480 210 M 480 210 L 600 330"/>
<glyph unicode="&#xFF52;" glyph-name="FULLWIDTH LATIN SMALL LETTER R" horiz-adv-x="1000" d="M 210 660 L 210 90 M 210 390 L 300 540 M 300 540 L 390 600 M 390 600 L 510 630 M 510 630 L 660 630"/>
<glyph unicode="&#xFF53;" glyph-name="FULLWIDTH LATIN SMALL LETTER S" horiz-adv-x="1000" d="M 660 570 L 570 630 M 570 630 L 240 630 M 240 630 L 150 570 M 150 570 L 150 480 M 150 480 L 240 420 M 240 420 L 570 360 M 570 360 L 660 300 M 660 300 L 660 180 M 660 180 L 570 90 M 570 90 L 240 90 M 240 90 L 120 150"/>
<glyph unicode="&#xFF54;" glyph-name="FULLWIDTH LATIN SMALL LETTER T" horiz-adv-x="1000" d="M 150 600 L 660 600 M 660 90 L 570 90 M 570 90 L 450 150 M 450 150 L 390 240 M 390 240 L 390 780"/>
<glyph unicode="&#xFF55;" glyph-name="FULLWIDTH LATIN SMALL LETTER U" horiz-adv-x="1000" d="M 120 630 L 120 240 M 120 240 L 180 150 M 180 150 L 270 90 M 270 90 L 480 90 M 480 90 L 570 150 M 570 150 L 630 240 M 630 90 L 630 630"/>
<glyph unicode="&#xFF56;" glyph-name="FULLWIDTH LATIN SMALL LETTER V" horiz-adv-x="1000" d="M 120 630 L 390 90 M 390 90 L 660 630"/>
<glyph unicode="&#xFF57;" glyph-name="FULLWIDTH LATIN SMALL LETTER W" horiz-adv-x="1000" d="M 60 630 L 240 90 M 240 90 L 420 630 M 420 630 L 600 90 M 600 90 L 780 630"/>
<glyph unicode="&#xFF58;" glyph-name="FULLWIDTH LATIN SMALL LETTER X" horiz-adv-x="1000" d="M 120 630 L 660 90 M 660 630 L 120 90"/>
<glyph unicode="&#xFF59;" glyph-name="FULLWIDTH LATIN SMALL LETTER Y" horiz-adv-x="1000" d="M 660 630 L 360 60 M 360 60 L 270 0 M 270 0 L 180 0 M 120 630 L 390 240 M 390 240 L 450 240"/>
<glyph unicode="&#xFF5A;" glyph-name="FULLWIDTH LATIN SMALL LETTER Z" horiz-adv-x="1000" d="M 120 630 L 660 630 M 660 630 L 120 90 M 120 90 L 660 90"/>
<glyph unicode="&#x3041;" glyph-name="HIRAGANA LETTER SMALL A" horiz-adv-x="1000" d="M 120 630 L 600 660 M 330 750 L 330 390 M 330 390 L 390 180 M 540 390 L 330 180 M 330 180 L 210 120 M 210 120 L 120 120 M 120 120 L 60 210 M 60 210 L 60 300 M 60 300 L 120 390 M 120 390 L 240 450 M 240 450 L 540 450 M 540 450 L 630 390 M 630 390 L 690 300 M 690 300 L 690 180 M 690 180 L 630 90 M 630 90 L 540 60"/>
<glyph unicode="&#x3042;" glyph-name="HIRAGANA LETTER A" horiz-adv-x="1000" d="M 90 750 L 240 720 M 240 720 L 390 720 M 390 720 L 660 780 M 330 870 L 330 450 M 330 450 L 390 180 M 540 510 L 300 180 M 300 180 L 210 120 M 210 120 L 150 120 M 150 120 L 60 210 M 60 210 L 60 390 M 60 390 L 150 480 M 150 480 L 390 570 M 390 570 L 630 570 M 630 570 L 720 510 M 720 510 L 780 390 M 780 390 L 780 270 M 780 270 L 720 150 M 720 150 L 570 60"/>
<glyph unicode="&#x3043;" glyph-name="HIRAGANA LETTER SMALL I" horiz-adv-x="1000" d="M 90 660 L 90 360 M 90 360 L 150 120 M 150 120 L 240 60 M 240 60 L 360 180 M 570 600 L 660 390 M 660 390 L 660 240 M 660 240 L 600 90"/>
<glyph unicode="&#x3044;" glyph-name="HIRAGANA LETTER I" horiz-adv-x="1000" d="M 90 810 L 60 660 M 60 660 L 60 390 M 60 390 L 120 180 M 120 180 L 210 90 M 210 90 L 360 270 M 660 720 L 780 450 M 780 450 L 780 270 M 780 270 L 690 150"/>
<glyph unicode="&#x3045;" glyph-name="HIRAGANA LETTER SMALL U" horiz-adv-x="1000" d="M 210 720 L 540 660 M 90 450 L 270 510 M 270 510 L 480 510 M 480 510 L 600 450 M 600 450 L 660 360 M 660 360 L 660 240 M 660 240 L 600 150 M 600 150 L 480 90 M 480 90 L 240 60"/>
<glyph unicode="&#x3046;" glyph-name="HIRAGANA LETTER U" horiz-adv-x="1000" d="M 180 900 L 630 840 M 90 570 L 270 660 M 270 660 L 540 660 M 540 660 L 690 600 M 690 600 L 750 480 M 750 480 L 750 360 M 750 360 L 690 210 M 690 210 L 570 120 M 570 120 L 450 90 M 450 90 L 270 60"/>
<glyph unicode="&#x3047;" glyph-name="HIRAGANA LETTER SMALL E" horiz-adv-x="1000" d="M 180 750 L 390 660 M 390 660 L 480 660 M 90 540 L 540 540 M 540 540 L 60 90 M 270 270 L 390 270 M 390 270 L 450 210 M 450 210 L 480 150 M 480 150 L 570 90 M 570 90 L 630 90"/>
<glyph unicode="&#x3048;" glyph-name="HIRAGANA LETTER E" horiz-adv-x="1000" d="M 240 870 L 420 810 M 420 810 L 600 810 M 90 660 L 630 660 M 630 660 L 60 90 M 360 360 L 480 360 M 480 360 L 570 270 M 570 270 L 570 180 M 570 180 L 630 90 M 630 90 L 690 90 M 690 90 L 810 180"/>
<glyph unicode="&#x3049;" glyph-name="HIRAGANA LETTER SMALL O" horiz-adv-x="1000" d="M 90 600 L 420 630 M 240 750 L 240 90 M 240 90 L 150 90 M 150 90 L 60 180 M 60 180 L 60 270 M 60 270 L 120 360 M 120 360 L 330 450 M 330 450 L 540 450 M 540 450 L 630 390 M 630 390 L 690 300 M 690 300 L 690 180 M 690 180 L 630 90 M 630 90 L 570 60 M 690 570 L 600 660"/>
<glyph unicode="&#x304A;" glyph-name="HIRAGANA LETTER O" horiz-adv-x="1000" d="M 660 810 L 750 750 M 750 750 L 810 660 M 810 660 L 750 660 M 480 750 L 90 690 M 270 870 L 270 120 M 270 120 L 150 120 M 150 120 L 60 210 M 60 210 L 60 330 M 60 330 L 120 420 M 120 420 L 360 540 M 360 540 L 570 540 M 570 540 L 720 480 M 720 480 L 780 360 M 780 360 L 780 240 M 780 240 L 720 150 M 720 150 L 540 60"/>
<glyph unicode="&#x304B;" glyph-name="HIRAGANA LETTER KA" horiz-adv-x="1000" d="M 60 690 L 480 690 M 480 690 L 570 630 M 570 630 L 630 510 M 630 510 L 630 300 M 630 300 L 570 150 M 570 150 L 480 90 M 480 90 L 450 90 M 450 90 L 360 150 M 360 870 L 150 270 M 150 270 L 30 90 M 600 810 L 720 750 M 720 750 L 780 660 M 780 660 L 810 510"/>
<glyph unicode="&#x304C;" glyph-name="HIRAGANA LETTER GA" horiz-adv-x="1000" d="M 360 150 L 480 90 M 480 90 L 570 150 M 570 150 L 630 270 M 630 270 L 630 510 M 630 510 L 570 630 M 570 630 L 480 690 M 480 690 L 60 690 M 720 690 L 780 630 M 780 630 L 810 480 M 660 750 L 540 810 M 750 810 L 630 870 M 360 870 L 150 270 M 150 270 L 30 90"/>
<glyph unicode="&#x304D;" glyph-name="HIRAGANA LETTER KI" horiz-adv-x="1000" d="M 150 750 L 330 750 M 330 750 L 630 780 M 780 600 L 630 570 M 630 570 L 240 540 M 240 540 L 90 540 M 330 900 L 510 420 M 510 420 L 600 270 M 570 300 L 450 360 M 450 360 L 270 360 M 270 360 L 150 270 M 150 270 L 150 180 M 150 180 L 240 120 M 240 120 L 360 90 M 360 90 L 570 90 M 570 90 L 720 150"/>
<glyph unicode="&#x304E;" glyph-name="HIRAGANA LETTER GI" horiz-adv-x="1000" d="M 300 900 L 480 420 M 480 420 L 570 270 M 540 300 L 420 360 M 420 360 L 240 360 M 240 360 L 120 270 M 120 270 L 120 180 M 120 180 L 210 120 M 210 120 L 360 90 M 360 90 L 540 90 M 540 90 L 690 150 M 600 750 L 330 720 M 330 720 L 120 720 M 60 510 L 240 510 M 240 510 L 570 540 M 570 540 L 750 570 M 810 750 L 690 840 M 870 840 L 750 930"/>
<glyph unicode="&#x304F;" glyph-name="HIRAGANA LETTER KU" horiz-adv-x="1000" d="M 600 870 L 420 720 M 420 720 L 120 510 M 120 510 L 120 450 M 120 450 L 360 330 M 360 330 L 570 180 M 570 180 L 660 60"/>
<glyph unicode="&#x3050;" glyph-name="HIRAGANA LETTER GU" horiz-adv-x="1000" d="M 570 870 L 390 720 M 390 720 L 90 510 M 90 510 L 90 450 M 90 450 L 330 330 M 330 330 L 510 210 M 510 210 L 630 60 M 630 720 L 750 600 M 720 840 L 840 720"/>
<glyph unicode="&#x3051;" glyph-name="HIRAGANA LETTER KE" horiz-adv-x="1000" d="M 90 810 L 60 630 M 60 630 L 60 390 M 60 390 L 120 150 M 270 630 L 810 630 M 660 870 L 660 390 M 660 390 L 600 180 M 600 180 L 540 120 M 540 120 L 390 60"/>
<glyph unicode="&#x3052;" glyph-name="HIRAGANA LETTER GE" horiz-adv-x="1000" d="M 90 810 L 60 630 M 60 630 L 60 390 M 60 390 L 120 150 M 420 60 L 480 90 M 480 90 L 540 150 M 540 150 L 600 360 M 600 360 L 600 870 M 240 630 L 750 630 M 750 930 L 870 840 M 690 840 L 810 750"/>
<glyph unicode="&#x3053;" glyph-name="HIRAGANA LETTER KO" horiz-adv-x="1000" d="M 120 780 L 420 750 M 420 750 L 720 750 M 720 750 L 570 660 M 150 390 L 60 300 M 60 300 L 60 210 M 60 210 L 150 150 M 150 150 L 300 120 M 300 120 L 600 120 M 600 120 L 780 150"/>
<glyph unicode="&#x3054;" glyph-name="HIRAGANA LETTER GO" horiz-adv-x="1000" d="M 120 780 L 690 750 M 690 750 L 540 660 M 150 390 L 60 300 M 60 300 L 60 210 M 60 210 L 150 150 M 150 150 L 300 120 M 300 120 L 600 120 M 600 120 L 750 150 M 750 810 L 840 690 M 870 810 L 780 930"/>
<glyph unicode="&#x3055;" glyph-name="HIRAGANA LETTER SA" horiz-adv-x="1000" d="M 60 630 L 390 630 M 390 630 L 750 690 M 330 870 L 510 510 M 510 510 L 630 360 M 630 360 L 450 420 M 450 420 L 240 420 M 240 420 L 150 330 M 150 330 L 150 210 M 150 210 L 240 120 M 240 120 L 420 90 M 420 90 L 600 90 M 600 90 L 780 150"/>
<glyph unicode="&#x3056;" glyph-name="HIRAGANA LETTER ZA" horiz-adv-x="1000" d="M 300 870 L 450 570 M 450 570 L 630 330 M 570 360 L 420 420 M 420 420 L 210 420 M 210 420 L 120 330 M 120 330 L 120 210 M 120 210 L 210 120 M 210 120 L 330 90 M 330 90 L 600 90 M 600 90 L 750 150 M 720 690 L 360 630 M 360 630 L 30 630 M 690 870 L 780 750 M 780 930 L 870 810"/>
<glyph unicode="&#x3057;" glyph-name="HIRAGANA LETTER SI" horiz-adv-x="1000" d="M 120 900 L 120 300 M 120 300 L 180 150 M 180 150 L 270 90 M 270 90 L 480 90 M 480 90 L 630 150 M 630 150 L 750 270"/>
<glyph unicode="&#x3058;" glyph-name="HIRAGANA LETTER ZI" horiz-adv-x="1000" d="M 120 900 L 120 300 M 120 300 L 180 150 M 180 150 L 300 90 M 300 90 L 480 90 M 480 90 L 630 150 M 630 150 L 750 270 M 540 780 L 630 630 M 630 870 L 720 720"/>
<glyph unicode="&#x3059;" glyph-name="HIRAGANA LETTER SU" horiz-adv-x="1000" d="M 30 720 L 810 720 M 540 900 L 540 450 M 540 450 L 510 360 M 510 360 L 420 300 M 420 300 L 270 300 M 270 300 L 210 360 M 210 360 L 210 480 M 210 480 L 300 540 M 300 540 L 420 540 M 420 540 L 510 480 M 510 480 L 540 330 M 540 330 L 540 240 M 540 240 L 480 150 M 480 150 L 390 90 M 390 90 L 270 60"/>
<glyph unicode="&#x305A;" glyph-name="HIRAGANA LETTER ZU" horiz-adv-x="1000" d="M 30 720 L 750 720 M 750 810 L 870 690 M 870 810 L 750 930 M 510 900 L 510 510 M 510 510 L 480 360 M 480 360 L 420 300 M 420 300 L 240 300 M 240 300 L 180 360 M 180 360 L 180 480 M 180 480 L 270 540 M 270 540 L 390 540 M 390 540 L 480 480 M 480 480 L 510 360 M 510 360 L 510 270 M 510 270 L 450 180 M 450 180 L 360 120 M 360 120 L 180 60"/>
<glyph unicode="&#x305B;" glyph-name="HIRAGANA LETTER SE" horiz-adv-x="1000" d="M 30 600 L 810 600 M 660 840 L 660 450 M 660 450 L 600 300 M 210 810 L 210 300 M 210 300 L 270 180 M 270 180 L 390 120 M 390 120 L 720 120"/>
<glyph unicode="&#x305C;" glyph-name="HIRAGANA LETTER ZE" horiz-adv-x="1000" d="M 30 600 L 780 600 M 630 840 L 630 450 M 630 450 L 570 300 M 660 120 L 360 120 M 360 120 L 240 180 M 240 180 L 180 300 M 180 300 L 180 810 M 720 810 L 840 690 M 870 780 L 750 900"/>
<glyph unicode="&#x305D;" glyph-name="HIRAGANA LETTER SO" horiz-adv-x="1000" d="M 150 870 L 210 810 M 210 810 L 660 840 M 660 840 L 450 660 M 450 660 L 30 510 M 150 540 L 810 540 M 540 540 L 360 450 M 360 450 L 300 360 M 300 360 L 300 240 M 300 240 L 360 150 M 360 150 L 480 90 M 480 90 L 690 90"/>
<glyph unicode="&#x305E;" glyph-name="HIRAGANA LETTER ZO" horiz-adv-x="1000" d="M 30 510 L 420 660 M 420 660 L 630 840 M 630 840 L 210 810 M 210 810 L 150 870 M 150 540 L 780 540 M 540 540 L 330 450 M 330 450 L 270 360 M 270 360 L 270 240 M 270 240 L 330 150 M 330 150 L 450 90 M 450 90 L 660 90 M 840 690 L 720 810 M 870 810 L 750 930"/>
<glyph unicode="&#x305F;" glyph-name="HIRAGANA LETTER TA" horiz-adv-x="1000" d="M 270 870 L 60 60 M 60 690 L 390 690 M 360 510 L 540 570 M 540 570 L 750 570 M 360 330 L 300 270 M 300 270 L 300 210 M 300 210 L 390 150 M 390 150 L 510 120 M 510 120 L 780 120"/>
<glyph unicode="&#x3060;" glyph-name="HIRAGANA LETTER DA" horiz-adv-x="1000" d="M 270 870 L 60 90 M 60 690 L 420 690 M 360 510 L 570 570 M 570 570 L 750 570 M 750 720 L 660 840 M 750 900 L 840 780 M 360 330 L 300 270 M 300 270 L 300 210 M 300 210 L 390 150 M 390 150 L 540 120 M 540 120 L 780 120"/>
<glyph unicode="&#x3061;" glyph-name="HIRAGANA LETTER TI" horiz-adv-x="1000" d="M 30 690 L 120 660 M 120 660 L 300 660 M 300 660 L 450 690 M 450 690 L 630 750 M 330 870 L 180 390 M 180 390 L 270 450 M 270 450 L 390 510 M 390 510 L 570 510 M 570 510 L 660 480 M 660 480 L 720 420 M 720 420 L 750 360 M 750 360 L 750 270 M 750 270 L 690 180 M 690 180 L 600 120 M 600 120 L 480 90 M 480 90 L 270 90"/>
</font>
</defs>
</svg>
