<?xml version="1.0" encoding="UTF-8" standalone="no"?>
<!-- Created with Inkscape (http://www.inkscape.org/) -->

<svg
   width="160.23228mm"
   height="160.23186mm"
   viewBox="0 0 160.23228 160.23186"
   version="1.1"
   id="svg1"
   inkscape:version="1.4 (86a8ad7, 2024-10-11)"
   xml:space="preserve"
   sodipodi:docname="base_mini.svg"
   xmlns:inkscape="http://www.inkscape.org/namespaces/inkscape"
   xmlns:sodipodi="http://sodipodi.sourceforge.net/DTD/sodipodi-0.dtd"
   xmlns="http://www.w3.org/2000/svg"
   xmlns:svg="http://www.w3.org/2000/svg"><sodipodi:namedview
     id="namedview1"
     pagecolor="#ffffff"
     bordercolor="#000000"
     borderopacity="0.25"
     inkscape:showpageshadow="2"
     inkscape:pageopacity="0.0"
     inkscape:pagecheckerboard="0"
     inkscape:deskcolor="#d1d1d1"
     inkscape:document-units="mm"
     showgrid="true"
     inkscape:zoom="1.617214"
     inkscape:cx="277.63796"
     inkscape:cy="405.63586"
     inkscape:current-layer="layer1"><inkscape:grid
       id="grid1"
       units="mm"
       originx="-35.598002"
       originy="-120.92366"
       spacingx="0.99999986"
       spacingy="1"
       empcolor="#0099e5"
       empopacity="0.30196078"
       color="#0099e5"
       opacity="0.14901961"
       empspacing="5"
       enabled="true"
       visible="true" /></sodipodi:namedview><defs
     id="defs1"><marker
       id="DistanceX"
       orient="auto"
       refX="0"
       refY="0"
       style="overflow:visible"><path
         d="M 3,-3 -3,3 M 0,-5 V 5"
         style="stroke:#000000;stroke-width:0.5"
         id="path1" /></marker><pattern
       id="Hatch"
       patternUnits="userSpaceOnUse"
       width="8"
       height="8"
       x="0"
       y="0"><path
         d="M8 4 l-4,4"
         stroke="#000000"
         stroke-width="0.25"
         linecap="square"
         id="path2" /><path
         d="M6 2 l-4,4"
         stroke="#000000"
         stroke-width="0.25"
         linecap="square"
         id="path3" /><path
         d="M4 0 l-4,4"
         stroke="#000000"
         stroke-width="0.25"
         linecap="square"
         id="path4" /></pattern><symbol
       id="*MODEL_SPACE" /><symbol
       id="*PAPER_SPACE" /></defs><g
     inkscape:label="Layer 1"
     inkscape:groupmode="layer"
     id="layer1"
     transform="translate(-35.598004,-120.92365)"><path
       d="m 195.78029,121.03959 a 0.06614583,0.06614583 0 0 0 -0.13229,0 0.06614583,0.06614583 0 0 0 0.13229,0 z"
       style="fill:none;stroke:#ff0000;stroke-width:0.1;stroke-dasharray:none;stroke-opacity:1"
       id="path30" /><path
       d="m 195.78029,281.03958 a 0.06614583,0.06614583 0 0 0 -0.13229,0 0.06614583,0.06614583 0 0 0 0.13229,0 z"
       style="fill:none;stroke:#ff0000;stroke-width:0.1;stroke-dasharray:none;stroke-opacity:1"
       id="path31" /><path
       d="m 35.780295,121.03959 a 0.06614583,0.06614583 0 0 0 -0.132291,0 0.06614583,0.06614583 0 0 0 0.132291,0 z"
       style="fill:none;stroke:#ff0000;stroke-width:0.1;stroke-dasharray:none;stroke-opacity:1"
       id="path32" /><path
       d="m 35.780295,281.03958 a 0.06614583,0.06614583 0 0 0 -0.132291,0 0.06614583,0.06614583 0 0 0 0.132291,0 z"
       style="fill:none;stroke:#ff0000;stroke-width:0.1;stroke-dasharray:none;stroke-opacity:1"
       id="path33" /><path
       d="m 115.7803,146.53957 a 0.06615,0.06615 0 0 0 -0.1323,0 0.06615,0.06615 0 0 0 0.1323,0 z"
       style="fill:none;stroke:#ff0000;stroke-width:0.1;stroke-dasharray:none;stroke-opacity:1"
       id="path36" /><path
       d="m 195.71415,124.03959 v 153.99999 l -3,3 h -3 -143.000001 -8 l -2.999999,-3 V 124.03959 l 2.999999,-3 h 8 11.999999 131.000002 3 z"
       style="fill:none;stroke:#ff0000;stroke-width:0.1;stroke-dasharray:none;stroke-opacity:1"
       id="path232" /><path
       d="m 42.314149,137.03958 a 1.6000002,1.6000002 0 0 0 -3.2,0 1.6000002,1.6000002 0 0 0 3.2,0 z"
       style="fill:none;stroke:#ff0000;stroke-width:0.1;stroke-dasharray:none;stroke-opacity:1"
       id="path233" /><path
       d="m 192.31415,137.03958 a 1.6000002,1.6000002 0 0 0 -3.2,0 1.6000002,1.6000002 0 0 0 3.2,0 z"
       style="fill:none;stroke:#ff0000;stroke-width:0.1;stroke-dasharray:none;stroke-opacity:1"
       id="path234" /><path
       d="m 42.314149,276.03959 a 1.6000002,1.6000002 0 0 0 -3.2,0 1.6000002,1.6000002 0 0 0 3.2,0 z"
       style="fill:none;stroke:#ff0000;stroke-width:0.1;stroke-dasharray:none;stroke-opacity:1"
       id="path243" /><path
       d="m 192.31415,276.03959 a 1.6000002,1.6000002 0 0 0 -3.2,0 1.6000002,1.6000002 0 0 0 3.2,0 z"
       style="fill:none;stroke:#ff0000;stroke-width:0.1;stroke-dasharray:none;stroke-opacity:1"
       id="path244" /><path
       d="m 85.31415,126.03958 a 1.6000005,1.6000005 0 0 0 -3.200001,0 1.6000005,1.6000005 0 0 0 3.200001,0 z"
       style="fill:none;stroke:#ff0000;stroke-width:0.1;stroke-dasharray:none;stroke-opacity:1"
       id="path272" /><path
       d="m 149.31415,126.03958 a 1.6000002,1.6000002 0 0 0 -3.2,0 1.6000002,1.6000002 0 0 0 3.2,0 z"
       style="fill:none;stroke:#ff0000;stroke-width:0.1;stroke-dasharray:none;stroke-opacity:1"
       id="path273" /><path
       d="m 149.31415,167.0396 a 1.6000002,1.6000002 0 0 0 -3.2,0 1.6000002,1.6000002 0 0 0 3.2,0 z"
       style="fill:none;stroke:#ff0000;stroke-width:0.1;stroke-dasharray:none;stroke-opacity:1"
       id="path274" /><path
       d="m 85.31415,167.0396 a 1.6000005,1.6000005 0 0 0 -3.200001,0 1.6000005,1.6000005 0 0 0 3.200001,0 z"
       style="fill:none;stroke:#ff0000;stroke-width:0.1;stroke-dasharray:none;stroke-opacity:1"
       id="path275" /><path
       style="font-size:22.5778px;font-family:'Bauhaus 93';-inkscape-font-specification:'Bauhaus 93, Normal';stroke:#000000;stroke-width:0.1;stroke-opacity:1"
       d="m 181.5183,198.99457 v 4.0349 h 1.48829 v 3.92466 h 4.47587 v -9.3376 q 0,-2.63481 -1.62058,-4.3546 -1.63159,-1.73082 -4.10104,-1.73082 -2.72301,0 -4.55304,2.34818 l 3.67109,2.67891 q 0.30868,-0.8599 1.09141,-0.8599 1.03629,0 1.03629,1.43316 v 1.86311 z m -10.93612,-3.14193 v 4.40973 q 0.42995,-0.24254 0.78273,-0.24254 1.12448,0 1.12448,1.7198 v 5.2145 h 4.12309 v -6.00826 q 0,-2.38125 -1.30087,-3.79236 -1.30087,-1.42214 -3.47266,-1.42214 -0.48507,0 -1.25677,0.12127 z m -7.32015,6.97839 v 4.26641 q 0.50712,0.0882 0.92605,0.0882 2.48047,0 4.13412,-1.6316 1.65364,-1.6316 1.65364,-4.09002 0,-2.39228 -1.66467,-4.05695 -1.6757,-1.66467 -4.06797,-1.66467 -2.66789,0 -4.20027,1.56545 -1.5434,1.55443 -1.5434,4.25539 v 5.39089 h 4.12309 v -5.09324 q 0,-0.87092 0.42995,-1.38906 0.41893,-0.51814 1.13551,-0.51814 0.65043,0 1.12448,0.47404 0.47404,0.47406 0.47404,1.12448 0,0.68351 -0.42995,1.12448 -0.42994,0.44097 -1.0914,0.44097 -0.54019,0 -1.00322,-0.28663 z M 150.551,195.96288 h -4.1231 v 2.41433 q 0,1.03628 0.30868,1.6757 0.29766,0.62838 1.03629,1.11345 -0.74965,0.50712 -1.04731,1.11347 -0.29766,0.60633 -0.29766,1.58749 v 3.08681 h 4.1231 v -3.31831 q 0,-1.13551 0.79375,-1.13551 0.7717,0 0.7717,0.98116 v 3.47266 h 4.12309 v -2.93247 q 0,-1.01424 -0.3638,-1.65364 -0.37482,-0.63941 -1.28984,-1.20166 0.91502,-0.59531 1.28984,-1.25676 0.3638,-0.66147 0.3638,-1.68673 v -2.25998 h -4.12309 v 2.77812 q 0,0.42996 -0.22049,0.70556 -0.22048,0.27562 -0.56224,0.27562 -0.78272,0 -0.78272,-0.98118 z m -10.49515,0 v 10.99125 h 4.12309 v -10.99125 z m 2.05052,-4.90582 q -0.83785,0 -1.44418,0.59532 -0.61737,0.58428 -0.61737,1.38906 0,0.8599 0.58429,1.41111 0.57327,0.55122 1.47726,0.55122 0.90399,0 1.48828,-0.55122 0.57327,-0.55121 0.57327,-1.41111 0,-0.80478 -0.60634,-1.38906 -0.61736,-0.59532 -1.45521,-0.59532 z m -14.27649,15.89707 h 4.1231 v -6.20669 q 0,-0.94809 0.78273,-0.94809 0.7717,0 0.7717,0.94809 v 6.20669 h 4.12309 v -6.12952 q 0,-2.14974 -1.42213,-3.61598 -1.42214,-1.47726 -3.48369,-1.47726 -2.3592,0 -3.78134,1.70877 -1.11346,1.33394 -1.11346,3.7152 z m -2.4033,-10.8369 h -4.12309 v 6.20668 q 0,0.93707 -0.78273,0.93707 -0.7717,0 -0.7717,-0.93707 v -6.20668 h -4.12309 v 6.12952 q 0,2.13871 1.42213,3.61597 1.42214,1.46623 3.48369,1.46623 2.34818,0 3.78134,-1.70876 1.11345,-1.33395 1.11345,-3.70417 z m -19.09411,0 v 4.34357 q 0.87092,0 1.20165,0.33073 0.3197,0.31971 0.4079,1.27883 0.28663,3.18603 2.46944,4.49791 1.15756,0.68351 3.28525,0.68351 h 0.57327 v -4.36563 h -0.18742 q -0.99219,0 -1.41111,-0.4079 -0.42995,-0.41892 -0.4961,-1.4552 -0.0882,-1.68673 -0.30868,-2.37023 -0.23151,-0.68351 -0.92604,-1.35599 -1.21267,-1.1796 -3.36242,-1.1796 z m -1.19063,4.96094 v -3.3073 q 0,-2.88837 -1.43316,-4.56406 -1.44419,-1.6757 -3.924665,-1.6757 -2.480473,0 -3.924654,1.6757 -1.444194,1.6757 -1.444194,4.56406 v 3.3073 q 0,2.88837 1.444194,4.57509 1.444181,1.67569 3.924654,1.67569 2.480475,0 3.924665,-1.67569 1.43316,-1.68672 1.43316,-4.57509 z m -4.28846,-4.18924 v 5.07118 q 0,1.37804 -1.069365,1.37804 -1.080385,0 -1.080385,-1.37804 v -5.07118 q 0,-1.37804 1.080385,-1.37804 1.069365,0 1.069365,1.37804 z m -8.543863,4.18924 v -3.3073 q 0,-2.88837 -1.43316,-4.56406 -1.44419,-1.6757 -3.92466,-1.6757 -2.48047,0 -3.92465,1.6757 -1.44419,1.6757 -1.44419,4.56406 v 3.3073 q 0,2.88837 1.44419,4.57509 1.44418,1.67569 3.92465,1.67569 2.48047,0 3.92466,-1.67569 1.43316,-1.68672 1.43316,-4.57509 z m -4.28846,-4.18924 v 5.07118 q 0,1.37804 -1.06936,1.37804 -1.08038,0 -1.08038,-1.37804 v -5.07118 q 0,-1.37804 1.08038,-1.37804 1.06936,0 1.06936,1.37804 z m -12.57874,14.13317 h 4.1231 v -9.17223 q 0,-2.52457 -1.32292,-4.11207 -0.76068,-0.91502 -1.92926,-1.4552 -1.1796,-0.54019 -2.41432,-0.54019 -2.45843,0 -4.14515,1.65364 -1.68672,1.65364 -1.68672,4.05694 0,2.33717 1.6757,4.0349 1.6757,1.69776 3.96875,1.69776 0.37483,0 1.10244,-0.0772 v -4.54203 q -0.50712,0.40791 -1.01424,0.40791 -0.63941,0 -1.09141,-0.47406 -0.46302,-0.47404 -0.46302,-1.12448 0,-0.65043 0.47405,-1.10243 0.47404,-0.46302 1.1355,-0.46302 1.5875,0 1.5875,2.19384 z m -19.98709,-8.89662 h 6.25079 q 0.14331,-0.47405 0.14331,-0.87092 0,-0.55122 -0.19843,-1.08039 h -2.09462 q 0.22048,-1.2237 1.37804,-1.2237 0.7717,0 1.25677,0.66146 0.48507,0.65044 0.48507,1.6757 0,1.06936 -0.46302,1.73082 -0.47405,0.66145 -1.23473,0.66145 -0.61736,0 -1.19062,-0.61736 l -2.34818,2.82223 q 1.64262,1.28984 3.64905,1.28984 2.4474,0 4.11207,-1.64262 1.66467,-1.64262 1.66467,-4.06797 0,-2.41433 -1.6757,-4.079 -1.68672,-1.66467 -4.13412,-1.66467 -2.39227,0 -4.01285,1.6316 -1.6316,1.62057 -1.6316,4.00182 0,0.24254 0.0441,0.77171 z m -11.50939,4.82865 h 4.12309 v -6.20669 q 0,-0.94809 0.78273,-0.94809 0.7717,0 0.7717,0.94809 v 6.20669 h 4.1231 v -6.12952 q 0,-2.14974 -1.42214,-3.61598 -1.42214,-1.47726 -3.48368,-1.47726 -2.35921,0 -3.78134,1.70877 -1.11346,1.33394 -1.11346,3.7152 z"
       id="text1"
       aria-label="Fraxinus00pen" /><path
       style="font-size:8.46667px;font-family:Arial;-inkscape-font-specification:'Arial, Normal';stroke:#000000;stroke-width:0.1;stroke-opacity:1"
       d="m 183.11968,221.15168 v -6.06061 h -4.08864 v 0.71519 h 3.28662 v 1.87689 h -2.84427 v 0.71521 h 2.84427 v 2.75333 z m -7.9003,-0.54157 q 0.41342,0.35141 0.79789,0.49609 0.38034,0.1447 0.81855,0.1447 0.72347,0 1.11208,-0.35141 0.38861,-0.35552 0.38861,-0.90537 0,-0.32246 -0.1447,-0.58704 -0.14883,-0.26872 -0.38447,-0.42995 -0.23978,-0.16123 -0.53743,-0.24391 -0.21911,-0.0579 -0.66146,-0.11162 -0.90124,-0.10749 -1.32705,-0.25631 -0.004,-0.15296 -0.004,-0.1943 0,-0.45475 0.21084,-0.6408 0.28526,-0.25218 0.84749,-0.25218 0.52504,0 0.77722,0.18603 0.24805,0.18191 0.36794,0.64906 l 0.7276,-0.0992 q -0.0992,-0.46715 -0.3266,-0.75241 -0.22737,-0.28939 -0.65732,-0.44235 -0.42995,-0.15709 -0.99632,-0.15709 -0.56224,0 -0.91364,0.13229 -0.3514,0.13229 -0.51677,0.33486 -0.16536,0.19844 -0.23151,0.50436 -0.0372,0.19017 -0.0372,0.68627 v 0.99218 q 0,1.03767 -0.0455,1.31465 -0.0496,0.27285 -0.19017,0.52504 h 0.77722 q 0.11575,-0.23151 0.14882,-0.54157 z m 0.062,-1.66192 q 0.40514,0.16537 1.21543,0.28112 0.45888,0.0661 0.64905,0.14883 0.19017,0.0827 0.29352,0.24391 0.10336,0.1571 0.10336,0.3514 0,0.29766 -0.22325,0.49611 -0.22737,0.19842 -0.66145,0.19842 -0.42995,0 -0.76482,-0.18602 -0.33486,-0.19018 -0.49196,-0.51677 -0.11988,-0.25219 -0.11988,-0.74415 z m -1.60818,0.89297 -0.73587,-0.11575 q -0.062,0.44235 -0.34313,0.67799 -0.28525,0.23565 -0.79375,0.23565 -0.51263,0 -0.76068,-0.20671 -0.24804,-0.21084 -0.24804,-0.49196 0,-0.25218 0.2191,-0.39687 0.15297,-0.0992 0.76068,-0.25219 0.81856,-0.2067 1.13688,-0.35553 0.3142,-0.15296 0.47956,-0.41755 0.16123,-0.26871 0.16123,-0.59117 0,-0.29353 -0.13229,-0.54157 -0.13643,-0.25218 -0.36794,-0.41755 -0.17363,-0.12816 -0.47129,-0.21497 -0.30179,-0.0909 -0.64492,-0.0909 -0.51676,0 -0.90537,0.14882 -0.39274,0.14883 -0.57878,0.40515 -0.18603,0.25218 -0.25631,0.67799 l 0.7276,0.0992 q 0.0496,-0.339 0.28939,-0.52917 0.23565,-0.19016 0.66973,-0.19016 0.51263,0 0.73174,0.16949 0.2191,0.1695 0.2191,0.39688 0,0.14469 -0.0909,0.26045 -0.0909,0.11989 -0.28525,0.19844 -0.11162,0.0413 -0.65732,0.19017 -0.78962,0.21084 -1.09968,0.34726 -0.31419,0.13229 -0.49196,0.38861 -0.17777,0.25631 -0.17777,0.63665 0,0.37207 0.21911,0.7028 0.21498,0.3266 0.62425,0.5085 0.40928,0.17776 0.92605,0.17776 0.85576,0 1.30638,-0.35553 0.44648,-0.35553 0.5705,-1.0542 z m -6.15569,0.64492 -0.10749,0.65733 q 0.31419,0.0661 0.56224,0.0661 0.40514,0 0.62838,-0.12816 0.22325,-0.12816 0.3142,-0.33486 0.0909,-0.21083 0.0909,-0.88057 v -2.52595 h 0.5457 v -0.57878 h -0.5457 v -1.08727 l -0.74001,-0.44648 v 1.53375 h -0.74827 v 0.57878 h 0.74827 v 2.56729 q 0,0.31833 -0.0372,0.40927 -0.0413,0.091 -0.12815,0.1447 -0.091,0.0537 -0.25632,0.0537 -0.12402,0 -0.32659,-0.0289 z m -2.58383,0.6656 -1.60403,-2.28204 1.48414,-2.10839 h -0.93017 l -0.67386,1.0294 q -0.19017,0.29352 -0.30593,0.49196 -0.1819,-0.27285 -0.33486,-0.48369 l -0.74001,-1.03767 h -0.88883 l 1.51722,2.06706 -1.63298,2.32338 h 0.91364 l 0.90124,-1.36426 0.23978,-0.36795 1.15342,1.73221 z m -11.50111,-2.12494 -0.80202,0.20257 q 0.25218,0.98806 0.90951,1.50895 0.65319,0.51678 1.5999,0.51678 0.97979,0 1.59577,-0.39689 0.61185,-0.40101 0.93431,-1.15755 0.31833,-0.75653 0.31833,-1.62471 0,-0.94671 -0.35967,-1.6495 -0.3638,-0.70693 -1.0294,-1.07073 -0.66972,-0.36794 -1.47174,-0.36794 -0.90951,0 -1.52962,0.46301 -0.62012,0.46303 -0.86403,1.30226 l 0.78961,0.18602 q 0.21084,-0.66146 0.61185,-0.96324 0.40101,-0.3018 1.00873,-0.3018 0.69866,0 1.16995,0.33487 0.46716,0.33486 0.65732,0.90123 0.19017,0.56224 0.19017,1.16169 0,0.77308 -0.22324,1.35186 -0.22737,0.57464 -0.7028,0.85989 -0.47542,0.28526 -1.02939,0.28526 -0.67386,0 -1.14102,-0.38861 -0.46715,-0.38861 -0.63252,-1.15342 z m -1.418,-0.0703 q 0,-1.21956 -0.67799,-1.80661 -0.56638,-0.48782 -1.3808,-0.48782 -0.90537,0 -1.48001,0.59531 -0.57465,0.59118 -0.57465,1.63711 0,0.84749 0.25632,1.33532 0.25218,0.48369 0.74001,0.75241 0.48369,0.26871 1.05833,0.26871 0.92191,0 1.49242,-0.59117 0.56637,-0.59118 0.56637,-1.70326 z m -0.76481,0 q 0,0.84336 -0.36794,1.26504 -0.36793,0.41755 -0.92604,0.41755 -0.55397,0 -0.92191,-0.42168 -0.36793,-0.42168 -0.36793,-1.28571 0,-0.81443 0.37207,-1.23196 0.36793,-0.42169 0.91777,-0.42169 0.55811,0 0.92604,0.41755 0.36794,0.41754 0.36794,1.2609 z m -4.22093,2.19522 v -4.39044 h -0.6656 v 0.61599 q -0.2067,-0.32246 -0.54984,-0.51677 -0.34313,-0.19843 -0.78134,-0.19843 -0.48783,0 -0.79789,0.20257 -0.31419,0.20258 -0.44235,0.56637 -0.5209,-0.76894 -1.35599,-0.76894 -0.65319,0 -1.00459,0.36381 -0.3514,0.35967 -0.3514,1.11208 v 3.01376 h 0.74001 v -2.76572 q 0,-0.44649 0.0744,-0.6408 0.0703,-0.19843 0.26045,-0.31832 0.19017,-0.11989 0.44649,-0.11989 0.46302,0 0.76894,0.31006 0.30593,0.30592 0.30593,0.98392 v 2.55075 h 0.74414 v -2.85254 q 0,-0.4961 0.1819,-0.74414 0.1819,-0.24805 0.59531,-0.24805 0.31419,0 0.58291,0.16536 0.26459,0.16537 0.38447,0.48369 0.11989,0.31833 0.11989,0.91778 v 2.2779 z m -7.05281,1.68258 v -6.07302 h -0.67799 v 0.57051 q -0.23978,-0.33486 -0.54157,-0.50023 -0.30179,-0.16949 -0.73174,-0.16949 -0.56224,0 -0.99219,0.28938 -0.42995,0.2894 -0.64905,0.81856 -0.21911,0.52503 -0.21911,1.15343 0,0.67385 0.24391,1.21542 0.23978,0.53744 0.7028,0.82682 0.45888,0.28525 0.96738,0.28525 0.37207,0 0.66973,-0.15709 0.29352,-0.1571 0.48369,-0.39688 v 2.13734 z m -0.67386,-3.85299 q 0,0.84749 -0.34313,1.25263 -0.34313,0.40515 -0.83096,0.40515 -0.49609,0 -0.84749,-0.41755 -0.35554,-0.42168 -0.35554,-1.30224 0,-0.83923 0.34727,-1.25678 0.34313,-0.41753 0.82269,-0.41753 0.47542,0 0.84336,0.44648 0.3638,0.44234 0.3638,1.28984 z m -6.89984,1.62884 q 0.41341,0.35141 0.79789,0.49609 0.38033,0.14469 0.81855,0.14469 0.72347,0 1.11208,-0.3514 0.3886,-0.35553 0.3886,-0.90537 0,-0.32246 -0.14469,-0.58704 -0.14883,-0.26872 -0.38447,-0.42995 -0.23978,-0.16123 -0.53744,-0.24391 -0.21911,-0.0579 -0.66146,-0.11162 -0.90123,-0.10749 -1.32705,-0.25631 -0.004,-0.15296 -0.004,-0.1943 0,-0.45475 0.21084,-0.6408 0.28526,-0.25218 0.8475,-0.25218 0.52503,0 0.77721,0.18603 0.24805,0.18191 0.36794,0.64906 l 0.7276,-0.0992 q -0.0992,-0.46715 -0.32659,-0.75241 -0.22738,-0.28939 -0.65733,-0.44235 -0.42995,-0.15709 -0.99632,-0.15709 -0.56224,0 -0.91364,0.13229 -0.3514,0.13229 -0.51677,0.33486 -0.16536,0.19844 -0.23151,0.50436 -0.0372,0.19017 -0.0372,0.68627 v 0.99218 q 0,1.03767 -0.0455,1.31465 -0.0496,0.27285 -0.19017,0.52504 h 0.77722 q 0.11574,-0.23151 0.14881,-0.54157 z m 0.062,-1.66192 q 0.40514,0.16537 1.21543,0.28112 0.45889,0.0661 0.64906,0.14883 0.19017,0.0827 0.29352,0.24391 0.10335,0.1571 0.10335,0.3514 0,0.29766 -0.22324,0.4961 -0.22738,0.19843 -0.66146,0.19843 -0.42995,0 -0.76481,-0.18602 -0.33486,-0.19018 -0.49196,-0.51677 -0.11989,-0.25219 -0.11989,-0.74415 z m -4.77077,0.59532 -0.73174,0.0951 q 0.11989,0.75654 0.61599,1.18649 0.49196,0.42582 1.21129,0.42582 0.90124,0 1.45108,-0.58705 0.5457,-0.59118 0.5457,-1.69085 0,-0.71107 -0.23564,-1.24437 -0.23565,-0.5333 -0.7152,-0.79789 -0.4837,-0.26871 -1.05007,-0.26871 -0.7152,0 -1.16995,0.3638 -0.45476,0.35967 -0.58292,1.02526 l 0.72348,0.11162 q 0.10335,-0.44235 0.36793,-0.66559 0.26045,-0.22324 0.63252,-0.22324 0.56224,0 0.91364,0.40514 0.3514,0.40101 0.3514,1.27331 0,0.8847 -0.339,1.28571 -0.33899,0.40101 -0.8847,0.40101 -0.43821,0 -0.73174,-0.26872 -0.29352,-0.26872 -0.37207,-0.82682 z m -2.9931,0.94257 -0.10749,0.65733 q 0.3142,0.0661 0.56224,0.0661 0.40515,0 0.62839,-0.12816 0.22324,-0.12816 0.31419,-0.33486 0.091,-0.21084 0.091,-0.88057 v -2.52595 h 0.54571 v -0.57878 h -0.54571 v -1.08727 l -0.74,-0.44648 v 1.53375 h -0.74828 v 0.57878 h 0.74828 v 2.56729 q 0,0.31832 -0.0372,0.40927 -0.0413,0.091 -0.12816,0.1447 -0.0909,0.0537 -0.25632,0.0537 -0.12402,0 -0.32659,-0.0289 z m -7.49929,-1.45934 -0.80201,0.20257 q 0.25218,0.98806 0.9095,1.50895 0.65319,0.51677 1.5999,0.51677 0.97979,0 1.59577,-0.39688 0.61185,-0.40101 0.93431,-1.15755 0.31833,-0.75654 0.31833,-1.62471 0,-0.94671 -0.35967,-1.64951 -0.3638,-0.70693 -1.02939,-1.07073 -0.66973,-0.36794 -1.47175,-0.36794 -0.9095,0 -1.52962,0.46302 -0.62012,0.46302 -0.86403,1.30225 l 0.78961,0.18603 q 0.21084,-0.66146 0.61185,-0.96325 0.40101,-0.30179 1.00873,-0.30179 0.69866,0 1.16995,0.33487 0.46716,0.33486 0.65733,0.90123 0.19017,0.56224 0.19017,1.16169 0,0.77308 -0.22325,1.35186 -0.22737,0.57464 -0.7028,0.85989 -0.47542,0.28526 -1.02939,0.28526 -0.67386,0 -1.14102,-0.38861 -0.46715,-0.38861 -0.63252,-1.15342 z m -1.41799,-0.0703 q 0,-1.21956 -0.678,-1.80661 -0.56637,-0.48782 -1.38079,-0.48782 -0.90537,0 -1.48002,0.59531 -0.57464,0.59118 -0.57464,1.63711 0,0.84749 0.25632,1.33532 0.25218,0.48369 0.74,0.75241 0.48369,0.26871 1.05834,0.26871 0.9219,0 1.49241,-0.59117 0.56638,-0.59118 0.56638,-1.70326 z m -0.76481,0 q 0,0.84336 -0.36794,1.26504 -0.36794,0.41755 -0.92604,0.41755 -0.55397,0 -0.92191,-0.42168 -0.36794,-0.42168 -0.36794,-1.28571 0,-0.81443 0.37207,-1.23197 0.36794,-0.42168 0.91778,-0.42168 0.5581,0 0.92604,0.41755 0.36794,0.41754 0.36794,1.2609 z m -4.21267,2.19522 v -4.39044 h -0.66973 v 0.6656 q -0.25632,-0.46716 -0.47129,-0.61599 -0.21911,-0.14882 -0.47956,-0.14882 -0.3762,0 -0.76481,0.23977 l 0.25632,0.6904 q 0.27285,-0.16123 0.5457,-0.16123 0.24391,0 0.43822,0.14883 0.1943,0.14469 0.27698,0.40514 0.12403,0.39688 0.12403,0.86817 v 2.29857 z m -5.83324,-1.41387 -0.76895,0.0951 q 0.18191,0.67386 0.67387,1.04594 0.49195,0.37207 1.25677,0.37207 0.96325,0 1.52962,-0.59118 0.56224,-0.59532 0.56224,-1.66605 0,-1.10795 -0.57051,-1.71979 -0.57051,-0.61185 -1.48001,-0.61185 -0.88057,0 -1.43867,0.59944 -0.55811,0.59945 -0.55811,1.68672 0,0.0662 0.004,0.19844 h 3.27422 q -0.0413,0.72347 -0.40928,1.10794 -0.36793,0.38448 -0.91777,0.38448 -0.40928,0 -0.69867,-0.21498 -0.28939,-0.21497 -0.45888,-0.68626 z m 2.44326,-1.20303 h -2.45153 q 0.0496,-0.55397 0.28112,-0.83096 0.35554,-0.42994 0.92191,-0.42994 0.51263,0 0.86403,0.34313 0.34727,0.34313 0.38447,0.91777 z m -3.62561,2.6169 -2.34405,-3.15847 2.06706,-2.90215 h -0.95498 l -1.09968,1.55443 q -0.34313,0.48369 -0.48782,0.74414 -0.20257,-0.33073 -0.47956,-0.6904 l -1.219565,-1.60817 h -0.872303 l 2.129078,2.85668 -2.294442,3.20394 h 0.992187 l 1.525495,-2.16215 q 0.12816,-0.18603 0.26458,-0.40514 0.20258,0.33073 0.28939,0.45475 l 1.52136,2.11254 z m -7.970589,0 v -2.56729 l 2.335772,-3.49333 h -0.975651 l -1.194761,1.82728 q -0.330727,0.51263 -0.615977,1.02526 -0.272857,-0.47542 -0.661467,-1.07073 l -1.1741,-1.78181 h -0.93431 l 2.41847,3.49333 v 2.56729 z m -6.139174,0 v -6.06062 h -2.28617 q -0.60358,0 -0.9219,0.0579 -0.44649,0.0744 -0.74828,0.28525 -0.30179,0.20671 -0.48369,0.58291 -0.18604,0.37621 -0.18604,0.82683 0,0.77308 0.49196,1.31051 0.49196,0.5333 1.77767,0.5333 h 1.55443 v 2.46394 z m -0.80202,-3.17914 h -1.56683 q -0.77721,0 -1.10381,-0.28939 -0.32659,-0.28939 -0.32659,-0.81442 0,-0.38034 0.1943,-0.64905 0.19017,-0.27286 0.50436,-0.35967 0.20258,-0.0538 0.74828,-0.0538 h 1.55029 z m -7.7556,1.76527 -0.76894,0.0951 q 0.1819,0.67386 0.67386,1.04594 0.49196,0.37207 1.25677,0.37207 0.96325,0 1.52962,-0.59118 0.56224,-0.59532 0.56224,-1.66605 0,-1.10795 -0.57051,-1.71979 -0.5705,-0.61185 -1.48001,-0.61185 -0.88057,0 -1.43867,0.59944 -0.55811,0.59945 -0.55811,1.68672 0,0.0662 0.004,0.19844 h 3.27422 q -0.0413,0.72347 -0.40928,1.10794 -0.36793,0.38448 -0.91777,0.38448 -0.40928,0 -0.69867,-0.21498 -0.28938,-0.21497 -0.45888,-0.68626 z m 2.44326,-1.20303 h -2.45153 q 0.0496,-0.55397 0.28112,-0.83096 0.35554,-0.42994 0.92191,-0.42994 0.51263,0 0.86403,0.34313 0.34727,0.34313 0.38447,0.91777 z m -4.14651,2.6169 v -4.39044 h -0.66973 v 0.62426 q -0.48369,-0.72347 -1.39733,-0.72347 -0.39687,0 -0.7276,0.14469 -0.33487,0.14056 -0.50023,0.37207 -0.16537,0.23151 -0.23151,0.54984 -0.0413,0.2067 -0.0413,0.72347 v 2.69958 h 0.74414 V 218.481 q 0,-0.45476 0.0868,-0.678 0.0868,-0.22737 0.31006,-0.35967 0.21911,-0.13642 0.51676,-0.13642 0.47543,0 0.82269,0.30179 0.34313,0.30179 0.34313,1.14515 v 2.39779 z m -7.15616,0 v -6.06062 h -2.28617 q -0.60358,0 -0.9219,0.0579 -0.44649,0.0744 -0.74828,0.28525 -0.30179,0.20671 -0.48369,0.58291 -0.18604,0.37621 -0.18604,0.82683 0,0.77308 0.49196,1.31051 0.49196,0.5333 1.77767,0.5333 h 1.55443 v 2.46394 z m -0.80202,-3.17914 h -1.56683 q -0.77721,0 -1.10381,-0.28939 -0.32659,-0.28939 -0.32659,-0.81442 0,-0.38034 0.1943,-0.64905 0.19017,-0.27286 0.50436,-0.35967 0.20258,-0.0538 0.74828,-0.0538 h 1.55029 z m -4.73356,3.17914 v -6.06062 h -0.74414 v 6.06062 z m -1.62058,-2.19522 q 0,-1.21956 -0.67799,-1.80661 -0.56638,-0.48782 -1.3808,-0.48782 -0.90537,0 -1.48001,0.59531 -0.57464,0.59118 -0.57464,1.63711 0,0.84749 0.25631,1.33532 0.25218,0.48369 0.74001,0.75241 0.48369,0.26871 1.05833,0.26871 0.92191,0 1.49242,-0.59117 0.56637,-0.59118 0.56637,-1.70326 z m -0.76481,0 q 0,0.84336 -0.36794,1.26504 -0.36793,0.41755 -0.92604,0.41755 -0.55397,0 -0.92191,-0.42168 -0.36793,-0.42168 -0.36793,-1.28571 0,-0.81443 0.37207,-1.23197 0.36794,-0.42168 0.91777,-0.42168 0.55811,0 0.92604,0.41755 0.36794,0.41754 0.36794,1.2609 z m -5.84564,1.52962 -0.10748,0.65733 q 0.31419,0.0661 0.56224,0.0661 0.40514,0 0.62838,-0.12816 0.22324,-0.12816 0.31419,-0.33486 0.0909,-0.21084 0.0909,-0.88057 v -2.52595 h 0.54571 v -0.57878 h -0.54571 v -1.08727 l -0.74,-0.44648 v 1.53375 h -0.74828 v 0.57878 h 0.74828 v 2.56729 q 0,0.31832 -0.0372,0.40927 -0.0413,0.091 -0.12816,0.1447 -0.0909,0.0537 -0.25632,0.0537 -0.12402,0 -0.32659,-0.0289 z m -2.35231,0 -0.10748,0.65733 q 0.31419,0.0661 0.56224,0.0661 0.40514,0 0.62838,-0.12816 0.22324,-0.12816 0.31419,-0.33486 0.0909,-0.21084 0.0909,-0.88057 v -2.52595 h 0.54571 v -0.57878 h -0.54571 v -1.08727 l -0.74,-0.44648 v 1.53375 h -0.74828 v 0.57878 h 0.74828 v 2.56729 q 0,0.31832 -0.0372,0.40927 -0.0413,0.091 -0.12816,0.1447 -0.0909,0.0537 -0.25632,0.0537 -0.12402,0 -0.32659,-0.0289 z m -3.73311,-0.74827 -0.76895,0.0951 q 0.18191,0.67386 0.67387,1.04594 0.49196,0.37207 1.25677,0.37207 0.96325,0 1.52962,-0.59118 0.56224,-0.59532 0.56224,-1.66605 0,-1.10795 -0.57051,-1.71979 -0.57051,-0.61185 -1.48001,-0.61185 -0.88057,0 -1.43867,0.59944 -0.55811,0.59945 -0.55811,1.68672 0,0.0662 0.004,0.19844 h 3.27422 q -0.0413,0.72347 -0.40928,1.10794 -0.36793,0.38448 -0.91777,0.38448 -0.40928,0 -0.69867,-0.21498 -0.28938,-0.21497 -0.45888,-0.68626 z m 2.44326,-1.20303 h -2.45153 q 0.0496,-0.55397 0.28112,-0.83096 0.35554,-0.42994 0.92191,-0.42994 0.51263,0 0.86403,0.34313 0.34727,0.34313 0.38447,0.91777 z m -4.13824,2.6169 v -4.39044 h -0.66973 v 0.6656 q -0.25632,-0.46716 -0.47129,-0.61599 -0.21911,-0.14882 -0.47956,-0.14882 -0.3762,0 -0.76481,0.23977 l 0.25632,0.6904 q 0.27285,-0.16123 0.5457,-0.16123 0.24391,0 0.43822,0.14883 0.1943,0.14469 0.27698,0.40514 0.12402,0.39688 0.12402,0.86817 v 2.29857 z"
       id="text2"
       aria-label="Fast x Compact CoreXY Pen Plotter" /></g></svg>
