<?xml version="1.0" encoding="UTF-8" standalone="no"?>
<!-- Created with Inkscape (http://www.inkscape.org/) -->

<svg
   width="189.23228mm"
   height="70.166153mm"
   viewBox="0 0 189.23228 70.166153"
   version="1.1"
   id="svg1"
   inkscape:version="1.4 (86a8ad7, 2024-10-11)"
   xml:space="preserve"
   sodipodi:docname="Back_Plate_5mm.svg"
   xmlns:inkscape="http://www.inkscape.org/namespaces/inkscape"
   xmlns:sodipodi="http://sodipodi.sourceforge.net/DTD/sodipodi-0.dtd"
   xmlns="http://www.w3.org/2000/svg"
   xmlns:svg="http://www.w3.org/2000/svg"><sodipodi:namedview
     id="namedview1"
     pagecolor="#ffffff"
     bordercolor="#000000"
     borderopacity="0.25"
     inkscape:showpageshadow="2"
     inkscape:pageopacity="0.0"
     inkscape:pagecheckerboard="0"
     inkscape:deskcolor="#d1d1d1"
     inkscape:document-units="mm"
     showgrid="true"
     inkscape:zoom="0.80382937"
     inkscape:cx="558.57626"
     inkscape:cy="344.6005"
     inkscape:current-layer="layer1"><inkscape:grid
       id="grid1"
       units="mm"
       originx="174.15199"
       originy="189.07657"
       spacingx="0.99999986"
       spacingy="1"
       empcolor="#0099e5"
       empopacity="0.30196078"
       color="#0099e5"
       opacity="0.14901961"
       empspacing="5"
       enabled="true"
       visible="true" /></sodipodi:namedview><defs
     id="defs1"><marker
       id="DistanceX"
       orient="auto"
       refX="0"
       refY="0"
       style="overflow:visible"><path
         d="M 3,-3 -3,3 M 0,-5 V 5"
         style="stroke:#000000;stroke-width:0.5"
         id="path1" /></marker><pattern
       id="Hatch"
       patternUnits="userSpaceOnUse"
       width="8"
       height="8"
       x="0"
       y="0"><path
         d="M8 4 l-4,4"
         stroke="#000000"
         stroke-width="0.25"
         linecap="square"
         id="path2" /><path
         d="M6 2 l-4,4"
         stroke="#000000"
         stroke-width="0.25"
         linecap="square"
         id="path3" /><path
         d="M4 0 l-4,4"
         stroke="#000000"
         stroke-width="0.25"
         linecap="square"
         id="path4" /></pattern><symbol
       id="*MODEL_SPACE" /><symbol
       id="*PAPER_SPACE" /></defs><g
     inkscape:label="Layer 1"
     inkscape:groupmode="layer"
     id="layer1"
     transform="translate(174.15199,189.07657)"><path
       d="m -173.96969,-188.96042 a 0.06615,0.06615 0 0 0 -0.1323,0 0.06615,0.06615 0 0 0 0.1323,0 z"
       style="fill:none;stroke:#ff0000;stroke-width:0.1;stroke-dasharray:none;stroke-opacity:1"
       id="path22" /><path
       d="m 15.030294,-188.96042 a 0.066146,0.066146 0 0 0 -0.132292,0 0.066146,0.066146 0 0 0 0.132292,0 z"
       style="fill:none;stroke:#ff0000;stroke-width:0.1;stroke-dasharray:none;stroke-opacity:1"
       id="path23" /><path
       d="m -79.469709,-128.46043 a 0.066146,0.066146 0 0 0 -0.132292,0 0.066146,0.066146 0 0 0 0.132292,0 z"
       style="fill:none;stroke:#ff0000;stroke-width:0.1;stroke-dasharray:none;stroke-opacity:1"
       id="path26" /><path
       d="m -79.469709,-128.46043 a 0.066146,0.066146 0 0 0 -0.132292,0 0.066146,0.066146 0 0 0 0.132292,0 z"
       style="fill:none;stroke:#ff0000;stroke-width:0.1;stroke-dasharray:none;stroke-opacity:1"
       id="path27" /><path
       d="m 0.5302941,-128.46043 a 0.06614583,0.06614583 0 0 0 -0.13229166,0 0.06614583,0.06614583 0 0 0 0.13229166,0 z"
       style="fill:none;stroke:#ff0000;stroke-width:0.1;stroke-dasharray:none;stroke-opacity:1"
       id="path28" /><path
       d="m 0.5302941,-128.46043 a 0.06614583,0.06614583 0 0 0 -0.13229166,0 0.06614583,0.06614583 0 0 0 0.13229166,0 z"
       style="fill:none;stroke:#ff0000;stroke-width:0.1;stroke-dasharray:none;stroke-opacity:1"
       id="path29" /><path
       d="m -159.46971,-128.46043 a 0.06614583,0.06614583 0 0 0 -0.13229,0 0.06614583,0.06614583 0 0 0 0.13229,0 z"
       style="fill:none;stroke:#ff0000;stroke-width:0.1;stroke-dasharray:none;stroke-opacity:1"
       id="path30" /><path
       d="m -159.46971,-128.46043 a 0.06614583,0.06614583 0 0 0 -0.13229,0 0.06614583,0.06614583 0 0 0 0.13229,0 z"
       style="fill:none;stroke:#ff0000;stroke-width:0.1;stroke-dasharray:none;stroke-opacity:1"
       id="path31" /><path
       d="m -79.469709,-154.96042 a 0.066146,0.066146 0 0 0 -0.132292,0 0.066146,0.066146 0 0 0 0.132292,0 z"
       style="fill:none;stroke:#ff0000;stroke-width:0.1;stroke-dasharray:none;stroke-opacity:1"
       id="path43" /><path
       d="m -174.03584,-123.96042 v -60 l 4.99999,-5 H 9.9641477 l 5.0000003,5 v 60 H 2.0641472 v -3.25001 h 1.1000025 v -2.5 H 2.0641472 v -2.24999 h -3.1999978 v 2.24999 h -1.0999999 v 2.5 h 1.0999999 v 3.25001 h -8.4000022 v 5 H -29.535852 v -5 h -5.000001 v -5 a 5.0000003,5.0000003 0 0 0 -9.999993,0 v 5 h -5.000016 v 5 h -19.999986 v -5 h -8.399992 v -3.25001 h 1.099979 v -2.5 h -1.099979 v -2.24999 h -3.200003 v 2.24999 h -1.100005 v 2.5 h 1.100005 v 3.25001 h -8.400018 v 5 h -19.999989 v -5 h -5.00001 v -5 a 5,5 0 0 0 -9.99998,0 v 5 h -5.00002 v 5 h -19.99999 v -5 h -8.39999 v -3.25001 h 1.09998 v -2.5 h -1.09998 v -2.24999 h -3.2 v 2.24999 h -1.10001 v 2.5 h 1.10001 v 3.25001 z"
       style="fill:none;stroke:#ff0000;stroke-width:0.1;stroke-dasharray:none;stroke-opacity:1"
       id="path206" /><path
       d="m -119.53585,-156.96042 h -19.99999 v -5 h 19.99999 z"
       style="fill:none;stroke:#ff0000;stroke-width:0.1;stroke-dasharray:none;stroke-opacity:1"
       id="path249" /><path
       d="m -19.535851,-156.96042 h -20.000002 v -5 h 20.000002 z"
       style="fill:none;stroke:#ff0000;stroke-width:0.1;stroke-dasharray:none;stroke-opacity:1"
       id="path250" /><path
       d="m -52.935864,-159.46042 a 1.6,1.6 0 0 0 -3.199976,0 1.6,1.6 0 0 0 3.199976,0 z"
       style="fill:none;stroke:#ff0000;stroke-width:0.1;stroke-dasharray:none;stroke-opacity:1"
       id="path251" /><path
       d="m -102.93584,-159.46042 a 1.600005,1.600005 0 0 0 -3.20001,0 1.600005,1.600005 0 0 0 3.20001,0 z"
       style="fill:none;stroke:#ff0000;stroke-width:0.1;stroke-dasharray:none;stroke-opacity:1"
       id="path252" /><path
       d="m -69.535848,-156.96042 h -20.000013 v -5 h 20.000013 z"
       style="fill:none;stroke:#ff0000;stroke-width:0.1;stroke-dasharray:none;stroke-opacity:1"
       id="path253" /><path
       d="m -107.13584,-181.30411 a 1.400003,1.400003 0 0 0 -2.8,0 1.400003,1.400003 0 0 0 2.8,0 z"
       style="fill:none;stroke:#ff0000;stroke-width:0.1;stroke-dasharray:none;stroke-opacity:1"
       id="path304" /><path
       d="m -107.13584,-132.30411 a 1.400003,1.400003 0 0 0 -2.8,0 1.400003,1.400003 0 0 0 2.8,0 z"
       style="fill:none;stroke:#ff0000;stroke-width:0.1;stroke-dasharray:none;stroke-opacity:1"
       id="path305" /><path
       d="m -49.135839,-132.30411 a 1.400003,1.400003 0 0 0 -2.800006,0 1.400003,1.400003 0 0 0 2.800006,0 z"
       style="fill:none;stroke:#ff0000;stroke-width:0.1;stroke-dasharray:none;stroke-opacity:1"
       id="path306" /><path
       d="m -49.135839,-181.30411 a 1.400003,1.400003 0 0 0 -2.800006,0 1.400003,1.400003 0 0 0 2.800006,0 z"
       style="fill:none;stroke:#ff0000;stroke-width:0.1;stroke-dasharray:none;stroke-opacity:1"
       id="path307" /><path
       d="m -45.935862,-136.46043 a 1.6,1.6 0 0 0 -3.199977,0 1.6,1.6 0 0 0 3.199977,0 z"
       style="fill:none;stroke:#ff0000;stroke-width:0.1;stroke-dasharray:none;stroke-opacity:1"
       id="path352" /><path
       d="m -109.93584,-177.46042 a 1.600005,1.600005 0 0 0 -3.20001,0 1.600005,1.600005 0 0 0 3.20001,0 z"
       style="fill:none;stroke:#ff0000;stroke-width:0.1;stroke-dasharray:none;stroke-opacity:1"
       id="path353" /><path
       d="m -154.93583,-139.96042 a 1.600005,1.600005 0 0 0 -3.20001,0 1.600005,1.600005 0 0 0 3.20001,0 z"
       style="fill:none;stroke:#ff0000;stroke-width:0.1;stroke-dasharray:none;stroke-opacity:1"
       id="path354" /><path
       d="m -154.93583,-171.96042 a 1.600005,1.600005 0 0 0 -3.20001,0 1.600005,1.600005 0 0 0 3.20001,0 z"
       style="fill:none;stroke:#ff0000;stroke-width:0.1;stroke-dasharray:none;stroke-opacity:1"
       id="path355" /><path
       d="m -3.935846,-171.96056 a 1.6000002,1.6000002 0 0 0 -3.2000005,0 1.6000003,1.6000003 0 0 0 3.2000005,0 z"
       style="fill:none;stroke:#ff0000;stroke-width:0.1;stroke-dasharray:none;stroke-opacity:1"
       id="path356" /><path
       d="m -3.935846,-136.95988 a 1.6000002,1.6000002 0 0 0 -3.2000005,0 1.6000003,1.6000003 0 0 0 3.2000005,0 z"
       style="fill:none;stroke:#ff0000;stroke-width:0.1;stroke-dasharray:none;stroke-opacity:1"
       id="path357" /><path
       d="m 10.464149,-180.96042 h 1.5 v 5 h -1.5 z"
       style="fill:none;stroke:#ff0000;stroke-width:0.1;stroke-dasharray:none;stroke-opacity:1"
       id="path358" /><path
       d="m -170.53585,-180.96042 h 1.5 v 5 h -1.5 z"
       style="fill:none;stroke:#ff0000;stroke-width:0.1;stroke-dasharray:none;stroke-opacity:1"
       id="path359" /><path
       d="m -109.93584,-136.46043 a 1.600005,1.600005 0 0 0 -3.20001,0 1.600005,1.600005 0 0 0 3.20001,0 z"
       style="fill:none;stroke:#ff0000;stroke-width:0.1;stroke-dasharray:none;stroke-opacity:1"
       id="path360" /><path
       d="m -45.935862,-177.46042 a 1.6,1.6 0 0 0 -3.199977,0 1.6,1.6 0 0 0 3.199977,0 z"
       style="fill:none;stroke:#ff0000;stroke-width:0.1;stroke-dasharray:none;stroke-opacity:1"
       id="path361" /></g></svg>
