<?xml version="1.0" encoding="UTF-8" standalone="no"?>
<!-- Created with Inkscape (http://www.inkscape.org/) -->

<svg
   width="189.23228mm"
   height="280.16608mm"
   viewBox="0 0 189.23228 280.16608"
   version="1.1"
   id="svg1"
   inkscape:version="1.4 (86a8ad7, 2024-10-11)"
   xml:space="preserve"
   sodipodi:docname="Base_Plate_5mm.svg"
   xmlns:inkscape="http://www.inkscape.org/namespaces/inkscape"
   xmlns:sodipodi="http://sodipodi.sourceforge.net/DTD/sodipodi-0.dtd"
   xmlns="http://www.w3.org/2000/svg"
   xmlns:svg="http://www.w3.org/2000/svg"><sodipodi:namedview
     id="namedview1"
     pagecolor="#ffffff"
     bordercolor="#000000"
     borderopacity="0.25"
     inkscape:showpageshadow="2"
     inkscape:pageopacity="0.0"
     inkscape:pagecheckerboard="0"
     inkscape:deskcolor="#d1d1d1"
     inkscape:document-units="mm"
     showgrid="true"
     inkscape:zoom="0.40191468"
     inkscape:cx="-164.21396"
     inkscape:cy="243.83284"
     inkscape:current-layer="layer1"><inkscape:grid
       id="grid1"
       units="mm"
       originx="174.15199"
       originy="92.076572"
       spacingx="0.99999986"
       spacingy="1"
       empcolor="#0099e5"
       empopacity="0.30196078"
       color="#0099e5"
       opacity="0.14901961"
       empspacing="5"
       enabled="true"
       visible="true" /></sodipodi:namedview><defs
     id="defs1"><marker
       id="DistanceX"
       orient="auto"
       refX="0"
       refY="0"
       style="overflow:visible"><path
         d="M 3,-3 -3,3 M 0,-5 V 5"
         style="stroke:#000000;stroke-width:0.5"
         id="path1" /></marker><pattern
       id="Hatch"
       patternUnits="userSpaceOnUse"
       width="8"
       height="8"
       x="0"
       y="0"><path
         d="M8 4 l-4,4"
         stroke="#000000"
         stroke-width="0.25"
         linecap="square"
         id="path2" /><path
         d="M6 2 l-4,4"
         stroke="#000000"
         stroke-width="0.25"
         linecap="square"
         id="path3" /><path
         d="M4 0 l-4,4"
         stroke="#000000"
         stroke-width="0.25"
         linecap="square"
         id="path4" /></pattern><symbol
       id="*MODEL_SPACE" /><symbol
       id="*PAPER_SPACE" /></defs><g
     inkscape:label="Layer 1"
     inkscape:groupmode="layer"
     id="layer1"
     transform="translate(174.15199,92.076569)"><path
       d="m -79.469709,41.03958 a 0.066146,0.066146 0 0 0 -0.132292,0 0.066146,0.066146 0 0 0 0.132292,0 z"
       style="fill:none;stroke:#ff0000;stroke-width:0.1;stroke-dasharray:none;stroke-opacity:1"
       id="path21" /><path
       d="m 15.030297,-91.960419 a 0.066146,0.066146 0 0 0 -0.132292,0 0.066146,0.066146 0 0 0 0.132292,0 z"
       style="fill:none;stroke:#ff0000;stroke-width:0.1;stroke-dasharray:none;stroke-opacity:1"
       id="path24" /><path
       d="m -173.96969,-91.960419 a 0.06615,0.06615 0 0 0 -0.1323,0 0.06615,0.06615 0 0 0 0.1323,0 z"
       style="fill:none;stroke:#ff0000;stroke-width:0.1;stroke-dasharray:none;stroke-opacity:1"
       id="path25" /><path
       d="m -79.469709,-69.460425 a 0.066146,0.066146 0 0 0 -0.132292,0 0.066146,0.066146 0 0 0 0.132292,0 z"
       style="fill:none;stroke:#ff0000;stroke-width:0.1;stroke-dasharray:none;stroke-opacity:1"
       id="path38" /><path
       d="m 10.564151,-55.96042 a 1.6000002,1.6000002 0 0 0 -3.2000002,0 1.6000002,1.6000002 0 0 0 3.2000002,0 z"
       style="fill:none;stroke:#ff0000;stroke-width:0.1;stroke-dasharray:none;stroke-opacity:1"
       id="path193" /><path
       d="m 10.564151,178.03958 a 1.6000002,1.6000002 0 0 0 -3.2000002,0 1.6000002,1.6000002 0 0 0 3.2000002,0 z"
       style="fill:none;stroke:#ff0000;stroke-width:0.1;stroke-dasharray:none;stroke-opacity:1"
       id="path194" /><path
       style="fill:none;stroke:#ff0000;stroke-width:0.1;stroke-dasharray:none;stroke-opacity:1"
       d="M 14.96413,-61.960514 V 185.03914"
       id="path195" /><path
       d="m -166.43584,178.03958 a 1.6000015,1.6000015 0 0 0 -3.2,0 1.6000015,1.6000015 0 0 0 3.2,0 z"
       style="fill:none;stroke:#ff0000;stroke-width:0.1;stroke-dasharray:none;stroke-opacity:1"
       id="path196" /><path
       d="m 10.564151,141.03959 a 1.6000002,1.6000002 0 0 0 -3.2000002,0 1.6000002,1.6000002 0 0 0 3.2000002,0 z"
       style="fill:none;stroke:#ff0000;stroke-width:0.1;stroke-dasharray:none;stroke-opacity:1"
       id="path197" /><path
       style="fill:none;stroke:#ff0000;stroke-width:0.1;stroke-dasharray:none;stroke-opacity:1"
       d="m -162.03603,188.03951 h -9.00113"
       id="path198" /><path
       d="m 10.564151,-35.960421 a 1.6000002,1.6000002 0 0 0 -3.2000002,0 1.6000002,1.6000002 0 0 0 3.2000002,0 z"
       style="fill:none;stroke:#ff0000;stroke-width:0.1;stroke-dasharray:none;stroke-opacity:1"
       id="path199" /><path
       style="fill:none;stroke:#ff0000;stroke-width:0.1;stroke-dasharray:none;stroke-opacity:1"
       d="M -174.03489,185.03914 V -61.960514"
       id="path200" /><path
       d="m -166.43584,141.03959 a 1.6000015,1.6000015 0 0 0 -3.2,0 1.6000015,1.6000015 0 0 0 3.2,0 z"
       style="fill:none;stroke:#ff0000;stroke-width:0.1;stroke-dasharray:none;stroke-opacity:1"
       id="path201" /><path
       style="fill:none;stroke:#ff0000;stroke-width:0.1;stroke-dasharray:none;stroke-opacity:1"
       d="M 11.964019,188.03951 H 2.9642173"
       id="path202" /><path
       d="m -166.43584,-35.960421 a 1.6000015,1.6000015 0 0 0 -3.2,0 1.6000015,1.6000015 0 0 0 3.2,0 z"
       style="fill:none;stroke:#ff0000;stroke-width:0.1;stroke-dasharray:none;stroke-opacity:1"
       id="path203" /><path
       d="m -166.43584,-55.96042 a 1.6000015,1.6000015 0 0 0 -3.2,0 1.6000015,1.6000015 0 0 0 3.2,0 z"
       style="fill:none;stroke:#ff0000;stroke-width:0.1;stroke-dasharray:none;stroke-opacity:1"
       id="path204" /><path
       style="fill:none;stroke:#ff0000;stroke-width:0.1;stroke-dasharray:none;stroke-opacity:1"
       d="M -162.03603,188.03951 H 2.9642173"
       id="path205" /><path
       style="fill:none;stroke:#ff0000;stroke-width:0.1;stroke-dasharray:none;stroke-opacity:1"
       d="M 14.96413,-61.960514 V -88.960449"
       id="path207" /><path
       style="fill:none;stroke:#ff0000;stroke-width:0.1;stroke-dasharray:none;stroke-opacity:1"
       d="m -174.03489,-88.960449 v 26.999935"
       id="path208" /><path
       style="fill:none;stroke:#ff0000;stroke-width:0.1;stroke-dasharray:none;stroke-opacity:1"
       d="m -171.03716,188.03951 -2.99773,-3.00037"
       id="path213" /><path
       style="fill:none;stroke:#ff0000;stroke-width:0.1;stroke-dasharray:none;stroke-opacity:1"
       d="m 11.964019,188.03951 3.000111,-3.00037"
       id="path214" /><path
       d="m -149.53585,-71.960423 h 19.99999 v 4.999998 h -19.99999 z"
       style="fill:none;stroke:#ff0000;stroke-width:0.1;stroke-dasharray:none;stroke-opacity:1"
       id="path231" /><path
       d="m -89.535861,-71.960423 v 4.999998 h -19.999989 v -4.999998 z"
       style="fill:none;stroke:#ff0000;stroke-width:0.1;stroke-dasharray:none;stroke-opacity:1"
       id="path232" /><path
       d="M -9.5358528,-66.960425 H -29.535852 v -4.999998 h 19.9999992 z"
       style="fill:none;stroke:#ff0000;stroke-width:0.1;stroke-dasharray:none;stroke-opacity:1"
       id="path233" /><path
       d="m -49.535862,-71.960423 v 4.999998 h -19.999986 v -4.999998 z"
       style="fill:none;stroke:#ff0000;stroke-width:0.1;stroke-dasharray:none;stroke-opacity:1"
       id="path234" /><path
       d="m -157.93586,-69.460425 a 1.6,1.6 0 0 0 -3.19998,0 1.6,1.6 0 0 0 3.19998,0 z"
       style="fill:none;stroke:#ff0000;stroke-width:0.1;stroke-dasharray:none;stroke-opacity:1"
       id="path235" /><path
       d="m 2.0641472,-69.460425 a 1.6000003,1.6000003 0 0 0 -3.2000005,0 1.6000003,1.6000003 0 0 0 3.2000005,0 z"
       style="fill:none;stroke:#ff0000;stroke-width:0.1;stroke-dasharray:none;stroke-opacity:1"
       id="path236" /><path
       d="m -77.93584,-69.460425 a 1.6000015,1.6000015 0 0 0 -3.200003,0 1.6000015,1.6000015 0 0 0 3.200003,0 z"
       style="fill:none;stroke:#ff0000;stroke-width:0.1;stroke-dasharray:none;stroke-opacity:1"
       id="path237" /><path
       d="m -117.93584,-80.960423 a 1.6000015,1.6000015 0 0 0 -3.2,0 1.6000015,1.6000015 0 0 0 3.2,0 z"
       style="fill:none;stroke:#ff0000;stroke-width:0.1;stroke-dasharray:none;stroke-opacity:1"
       id="path238" /><path
       d="m -37.935852,-80.960423 a 1.6000002,1.6000002 0 0 0 -3.2,0 1.6000002,1.6000002 0 0 0 3.2,0 z"
       style="fill:none;stroke:#ff0000;stroke-width:0.1;stroke-dasharray:none;stroke-opacity:1"
       id="path239" /><path
       style="fill:none;stroke:#ff0000;stroke-width:0.1;stroke-dasharray:none;stroke-opacity:1"
       d="m -125.53676,-84.960478 h 92.000913"
       id="path240" /><path
       style="fill:none;stroke:#ff0000;stroke-width:0.1;stroke-dasharray:none;stroke-opacity:1"
       d="M -33.535847,-84.960478 V -89.96031"
       id="path241" /><path
       style="fill:none;stroke:#ff0000;stroke-width:0.1;stroke-dasharray:none;stroke-opacity:1"
       d="m -125.53676,-89.96031 v 4.999832"
       id="path242" /><path
       style="fill:none;stroke:#ff0000;stroke-width:0.1;stroke-dasharray:none;stroke-opacity:1"
       d="m 11.964019,-91.960295 h -43.49988"
       id="path243" /><path
       style="fill:none;stroke:#ff0000;stroke-width:0.1;stroke-dasharray:none;stroke-opacity:1"
       d="m -127.53701,-91.960295 h -43.50015"
       id="path244" /><path
       d="m -125.53586,-89.960423 a 1.9999999,1.9999999 0 0 0 -1.99999,-2.000002"
       style="fill:none;stroke:#ff0000;stroke-width:0.1;stroke-dasharray:none;stroke-opacity:1"
       id="path245" /><path
       d="m -31.535851,-91.960425 a 1.9999999,1.9999999 0 0 0 -1.999998,2.000002"
       style="fill:none;stroke:#ff0000;stroke-width:0.1;stroke-dasharray:none;stroke-opacity:1"
       id="path246" /><path
       style="fill:none;stroke:#ff0000;stroke-width:0.1;stroke-dasharray:none;stroke-opacity:1"
       d="m -174.03489,-88.960449 2.99773,-2.999846"
       id="path247" /><path
       style="fill:none;stroke:#ff0000;stroke-width:0.1;stroke-dasharray:none;stroke-opacity:1"
       d="m 14.96413,-88.960449 -3.000111,-2.999846"
       id="path248" /></g></svg>
