<?xml version="1.0" encoding="UTF-8" standalone="no"?>
<!-- Created with Inkscape (http://www.inkscape.org/) -->

<svg
   width="189.23228mm"
   height="280.16608mm"
   viewBox="0 0 189.23228 280.16608"
   version="1.1"
   id="svg1"
   inkscape:version="1.4 (86a8ad7, 2024-10-11)"
   xml:space="preserve"
   sodipodi:docname="Base_Plate_Logo_5mm.svg"
   xmlns:inkscape="http://www.inkscape.org/namespaces/inkscape"
   xmlns:sodipodi="http://sodipodi.sourceforge.net/DTD/sodipodi-0.dtd"
   xmlns="http://www.w3.org/2000/svg"
   xmlns:svg="http://www.w3.org/2000/svg"><sodipodi:namedview
     id="namedview1"
     pagecolor="#ffffff"
     bordercolor="#000000"
     borderopacity="0.25"
     inkscape:showpageshadow="2"
     inkscape:pageopacity="0.0"
     inkscape:pagecheckerboard="0"
     inkscape:deskcolor="#d1d1d1"
     inkscape:document-units="mm"
     showgrid="true"
     inkscape:zoom="0.98503945"
     inkscape:cx="192.37808"
     inkscape:cy="597.94559"
     inkscape:current-layer="layer1"><inkscape:grid
       id="grid1"
       units="mm"
       originx="174.15199"
       originy="92.076572"
       spacingx="0.99999986"
       spacingy="1"
       empcolor="#0099e5"
       empopacity="0.30196078"
       color="#0099e5"
       opacity="0.14901961"
       empspacing="5"
       enabled="true"
       visible="true" /></sodipodi:namedview><defs
     id="defs1"><marker
       id="DistanceX"
       orient="auto"
       refX="0"
       refY="0"
       style="overflow:visible"><path
         d="M 3,-3 -3,3 M 0,-5 V 5"
         style="stroke:#000000;stroke-width:0.5"
         id="path1" /></marker><pattern
       id="Hatch"
       patternUnits="userSpaceOnUse"
       width="8"
       height="8"
       x="0"
       y="0"><path
         d="M8 4 l-4,4"
         stroke="#000000"
         stroke-width="0.25"
         linecap="square"
         id="path2" /><path
         d="M6 2 l-4,4"
         stroke="#000000"
         stroke-width="0.25"
         linecap="square"
         id="path3" /><path
         d="M4 0 l-4,4"
         stroke="#000000"
         stroke-width="0.25"
         linecap="square"
         id="path4" /></pattern><symbol
       id="*MODEL_SPACE" /><symbol
       id="*PAPER_SPACE" /></defs><g
     inkscape:label="Layer 1"
     inkscape:groupmode="layer"
     id="layer1"
     transform="translate(174.15199,92.076569)"><path
       d="m -79.469709,41.03958 a 0.066146,0.066146 0 0 0 -0.132292,0 0.066146,0.066146 0 0 0 0.132292,0 z"
       style="fill:none;stroke:#ff0000;stroke-width:0.1;stroke-dasharray:none;stroke-opacity:1"
       id="path21" /><path
       d="m 15.030297,-91.960419 a 0.066146,0.066146 0 0 0 -0.132292,0 0.066146,0.066146 0 0 0 0.132292,0 z"
       style="fill:none;stroke:#ff0000;stroke-width:0.1;stroke-dasharray:none;stroke-opacity:1"
       id="path24" /><path
       d="m -173.96969,-91.960419 a 0.06615,0.06615 0 0 0 -0.1323,0 0.06615,0.06615 0 0 0 0.1323,0 z"
       style="fill:none;stroke:#ff0000;stroke-width:0.1;stroke-dasharray:none;stroke-opacity:1"
       id="path25" /><path
       d="m -79.469709,-69.460425 a 0.066146,0.066146 0 0 0 -0.132292,0 0.066146,0.066146 0 0 0 0.132292,0 z"
       style="fill:none;stroke:#ff0000;stroke-width:0.1;stroke-dasharray:none;stroke-opacity:1"
       id="path38" /><path
       d="m 10.564151,-55.96042 a 1.6000002,1.6000002 0 0 0 -3.2000002,0 1.6000002,1.6000002 0 0 0 3.2000002,0 z"
       style="fill:none;stroke:#ff0000;stroke-width:0.1;stroke-dasharray:none;stroke-opacity:1"
       id="path193" /><path
       d="m 10.564151,178.03958 a 1.6000002,1.6000002 0 0 0 -3.2000002,0 1.6000002,1.6000002 0 0 0 3.2000002,0 z"
       style="fill:none;stroke:#ff0000;stroke-width:0.1;stroke-dasharray:none;stroke-opacity:1"
       id="path194" /><path
       style="fill:none;stroke:#ff0000;stroke-width:0.1;stroke-dasharray:none;stroke-opacity:1"
       d="M 14.96413,-61.960514 V 185.03914"
       id="path195" /><path
       d="m -166.43584,178.03958 a 1.6000015,1.6000015 0 0 0 -3.2,0 1.6000015,1.6000015 0 0 0 3.2,0 z"
       style="fill:none;stroke:#ff0000;stroke-width:0.1;stroke-dasharray:none;stroke-opacity:1"
       id="path196" /><path
       d="m 10.564151,141.03959 a 1.6000002,1.6000002 0 0 0 -3.2000002,0 1.6000002,1.6000002 0 0 0 3.2000002,0 z"
       style="fill:none;stroke:#ff0000;stroke-width:0.1;stroke-dasharray:none;stroke-opacity:1"
       id="path197" /><path
       style="fill:none;stroke:#ff0000;stroke-width:0.1;stroke-dasharray:none;stroke-opacity:1"
       d="m -162.03603,188.03951 h -9.00113"
       id="path198" /><path
       d="m 10.564151,-35.960421 a 1.6000002,1.6000002 0 0 0 -3.2000002,0 1.6000002,1.6000002 0 0 0 3.2000002,0 z"
       style="fill:none;stroke:#ff0000;stroke-width:0.1;stroke-dasharray:none;stroke-opacity:1"
       id="path199" /><path
       style="fill:none;stroke:#ff0000;stroke-width:0.1;stroke-dasharray:none;stroke-opacity:1"
       d="M -174.03489,185.03914 V -61.960514"
       id="path200" /><path
       d="m -166.43584,141.03959 a 1.6000015,1.6000015 0 0 0 -3.2,0 1.6000015,1.6000015 0 0 0 3.2,0 z"
       style="fill:none;stroke:#ff0000;stroke-width:0.1;stroke-dasharray:none;stroke-opacity:1"
       id="path201" /><path
       style="fill:none;stroke:#ff0000;stroke-width:0.1;stroke-dasharray:none;stroke-opacity:1"
       d="M 11.964019,188.03951 H 2.9642173"
       id="path202" /><path
       d="m -166.43584,-35.960421 a 1.6000015,1.6000015 0 0 0 -3.2,0 1.6000015,1.6000015 0 0 0 3.2,0 z"
       style="fill:none;stroke:#ff0000;stroke-width:0.1;stroke-dasharray:none;stroke-opacity:1"
       id="path203" /><path
       d="m -166.43584,-55.96042 a 1.6000015,1.6000015 0 0 0 -3.2,0 1.6000015,1.6000015 0 0 0 3.2,0 z"
       style="fill:none;stroke:#ff0000;stroke-width:0.1;stroke-dasharray:none;stroke-opacity:1"
       id="path204" /><path
       style="fill:none;stroke:#ff0000;stroke-width:0.1;stroke-dasharray:none;stroke-opacity:1"
       d="M -162.03603,188.03951 H 2.9642173"
       id="path205" /><path
       style="fill:none;stroke:#ff0000;stroke-width:0.1;stroke-dasharray:none;stroke-opacity:1"
       d="M 14.96413,-61.960514 V -88.960449"
       id="path207" /><path
       style="fill:none;stroke:#ff0000;stroke-width:0.1;stroke-dasharray:none;stroke-opacity:1"
       d="m -174.03489,-88.960449 v 26.999935"
       id="path208" /><path
       style="fill:none;stroke:#ff0000;stroke-width:0.1;stroke-dasharray:none;stroke-opacity:1"
       d="m -171.03716,188.03951 -2.99773,-3.00037"
       id="path213" /><path
       style="fill:none;stroke:#ff0000;stroke-width:0.1;stroke-dasharray:none;stroke-opacity:1"
       d="m 11.964019,188.03951 3.000111,-3.00037"
       id="path214" /><path
       d="m -149.53585,-71.960423 h 19.99999 v 4.999998 h -19.99999 z"
       style="fill:none;stroke:#ff0000;stroke-width:0.1;stroke-dasharray:none;stroke-opacity:1"
       id="path231" /><path
       d="m -89.535861,-71.960423 v 4.999998 h -19.999989 v -4.999998 z"
       style="fill:none;stroke:#ff0000;stroke-width:0.1;stroke-dasharray:none;stroke-opacity:1"
       id="path232" /><path
       d="M -9.5358528,-66.960425 H -29.535852 v -4.999998 h 19.9999992 z"
       style="fill:none;stroke:#ff0000;stroke-width:0.1;stroke-dasharray:none;stroke-opacity:1"
       id="path233" /><path
       d="m -49.535862,-71.960423 v 4.999998 h -19.999986 v -4.999998 z"
       style="fill:none;stroke:#ff0000;stroke-width:0.1;stroke-dasharray:none;stroke-opacity:1"
       id="path234" /><path
       d="m -157.93586,-69.460425 a 1.6,1.6 0 0 0 -3.19998,0 1.6,1.6 0 0 0 3.19998,0 z"
       style="fill:none;stroke:#ff0000;stroke-width:0.1;stroke-dasharray:none;stroke-opacity:1"
       id="path235" /><path
       d="m 2.0641472,-69.460425 a 1.6000003,1.6000003 0 0 0 -3.2000005,0 1.6000003,1.6000003 0 0 0 3.2000005,0 z"
       style="fill:none;stroke:#ff0000;stroke-width:0.1;stroke-dasharray:none;stroke-opacity:1"
       id="path236" /><path
       d="m -77.93584,-69.460425 a 1.6000015,1.6000015 0 0 0 -3.200003,0 1.6000015,1.6000015 0 0 0 3.200003,0 z"
       style="fill:none;stroke:#ff0000;stroke-width:0.1;stroke-dasharray:none;stroke-opacity:1"
       id="path237" /><path
       d="m -117.93584,-80.960423 a 1.6000015,1.6000015 0 0 0 -3.2,0 1.6000015,1.6000015 0 0 0 3.2,0 z"
       style="fill:none;stroke:#ff0000;stroke-width:0.1;stroke-dasharray:none;stroke-opacity:1"
       id="path238" /><path
       d="m -37.935852,-80.960423 a 1.6000002,1.6000002 0 0 0 -3.2,0 1.6000002,1.6000002 0 0 0 3.2,0 z"
       style="fill:none;stroke:#ff0000;stroke-width:0.1;stroke-dasharray:none;stroke-opacity:1"
       id="path239" /><path
       style="fill:none;stroke:#ff0000;stroke-width:0.1;stroke-dasharray:none;stroke-opacity:1"
       d="m -125.53676,-84.960478 h 92.000913"
       id="path240" /><path
       style="fill:none;stroke:#ff0000;stroke-width:0.1;stroke-dasharray:none;stroke-opacity:1"
       d="M -33.535847,-84.960478 V -89.96031"
       id="path241" /><path
       style="fill:none;stroke:#ff0000;stroke-width:0.1;stroke-dasharray:none;stroke-opacity:1"
       d="m -125.53676,-89.96031 v 4.999832"
       id="path242" /><path
       style="fill:none;stroke:#ff0000;stroke-width:0.1;stroke-dasharray:none;stroke-opacity:1"
       d="m 11.964019,-91.960295 h -43.49988"
       id="path243" /><path
       style="fill:none;stroke:#ff0000;stroke-width:0.1;stroke-dasharray:none;stroke-opacity:1"
       d="m -127.53701,-91.960295 h -43.50015"
       id="path244" /><path
       d="m -125.53586,-89.960423 a 1.9999999,1.9999999 0 0 0 -1.99999,-2.000002"
       style="fill:none;stroke:#ff0000;stroke-width:0.1;stroke-dasharray:none;stroke-opacity:1"
       id="path245" /><path
       d="m -31.535851,-91.960425 a 1.9999999,1.9999999 0 0 0 -1.999998,2.000002"
       style="fill:none;stroke:#ff0000;stroke-width:0.1;stroke-dasharray:none;stroke-opacity:1"
       id="path246" /><path
       style="fill:none;stroke:#ff0000;stroke-width:0.1;stroke-dasharray:none;stroke-opacity:1"
       d="m -174.03489,-88.960449 2.99773,-2.999846"
       id="path247" /><path
       style="fill:none;stroke:#ff0000;stroke-width:0.1;stroke-dasharray:none;stroke-opacity:1"
       d="m 14.96413,-88.960449 -3.000111,-2.999846"
       id="path248" /><path
       style="font-size:22.5778px;font-family:'Bauhaus 93';-inkscape-font-specification:'Bauhaus 93, Normal';stroke:#000000;stroke-width:0.1;stroke-opacity:1"
       d="m -13.66919,-11.653869 v 4.0348985 h 1.48829 v 3.9246556 h 4.4758713 v -9.3375931 q 0,-2.634812 -1.6205799,-4.354605 -1.6315904,-1.730818 -4.1010414,-1.730818 -2.72301,0 -4.55304,2.348179 l 3.67109,2.678909 q 0.30868,-0.859896 1.09141,-0.859896 1.03629,0 1.03629,1.433161 v 1.863109 z m -10.93612,-3.14193 v 4.409727 q 0.42995,-0.242535 0.78273,-0.242535 1.12448,0 1.12448,1.7197921 v 5.2145 h 4.12309 v -6.0082504 q 0,-2.3812517 -1.30087,-3.7923647 -1.30087,-1.422136 -3.47266,-1.422136 -0.48507,0 -1.25677,0.121267 z m -7.32015,6.9783915 v 4.2664087 q 0.50712,0.088195 0.92605,0.088195 2.48047,0 4.13412,-1.6315982 1.65364,-1.6315981 1.65364,-4.0900196 0,-2.3922754 -1.66467,-4.0569474 -1.6757,-1.664672 -4.06797,-1.664672 -2.66789,0 -4.20027,1.565453 -1.5434,1.554429 -1.5434,4.2553854 v 5.3908882 h 4.12309 v -5.0932325 q 0,-0.8709194 0.42995,-1.3890631 0.41893,-0.518143 1.13551,-0.518143 0.65043,0 1.12448,0.474046 0.47404,0.4740447 0.47404,1.1244794 0,0.6835067 -0.42995,1.1244794 -0.42994,0.4409727 -1.0914,0.4409727 -0.54019,0 -1.00322,-0.286632 z m -12.71103,-6.8681485 h -4.1231 v 2.414326 q 0,1.036285 0.30868,1.675696 0.29766,0.6283857 1.03629,1.1134557 -0.74965,0.5071177 -1.04731,1.1134551 -0.29766,0.6063367 -0.29766,1.5875001 v 3.0868082 h 4.1231 v -3.3183179 q 0,-1.1355044 0.79375,-1.1355044 0.7717,0 0.7717,0.9811634 v 3.4726589 h 4.12309 v -2.9324672 q 0,-1.0142364 -0.3638,-1.6536471 -0.37482,-0.6394097 -1.28984,-1.2016491 0.91502,-0.5953127 1.28984,-1.2567717 0.3638,-0.661459 0.3638,-1.686721 v -2.259985 h -4.12309 v 2.778128 q 0,0.429948 -0.22049,0.705556 -0.22048,0.275608 -0.56224,0.275608 -0.78272,0 -0.78272,-0.981164 z m -10.49515,0 v 10.9912411 h 4.12309 V -14.685556 Z m 2.05052,-4.905821 q -0.83785,0 -1.44418,0.595313 -0.61737,0.584289 -0.61737,1.389064 0,0.859897 0.58429,1.411113 0.57327,0.551216 1.47726,0.551216 0.90399,0 1.48828,-0.551216 0.57327,-0.551216 0.57327,-1.411113 0,-0.804775 -0.60634,-1.389064 -0.61736,-0.595313 -1.45521,-0.595313 z m -14.276488,15.8970621 h 4.123094 v -6.2066874 q 0,-0.9480917 0.782727,-0.9480917 0.771702,0 0.771702,0.9480917 v 6.2066874 h 4.123094 v -6.1295174 q 0,-2.1497417 -1.422136,-3.6159757 -1.422137,-1.477258 -3.483685,-1.477258 -2.359203,0 -3.78134,1.708769 -1.113456,1.333942 -1.113456,3.7151937 z m -2.403301,-10.8369001 h -4.123095 v 6.2066888 q 0,0.9370667 -0.782726,0.9370667 -0.771702,0 -0.771702,-0.9370667 v -6.2066888 h -4.123095 v 6.1295188 q 0,2.1387158 1.422137,3.6159742 1.422137,1.4662338 3.483684,1.4662338 2.34818,0 3.781341,-1.7087688 1.113456,-1.3339421 1.113456,-3.7041689 z m -19.094116,0 v 4.34358 q 0.870921,0 1.20165,0.3307297 0.319705,0.319705 0.4079,1.2788204 0.286632,3.1860252 2.469447,4.4979189 1.157553,0.6835076 3.285246,0.6835076 h 0.573265 v -4.3656281 h -0.187414 q -0.992188,0 -1.411112,-0.4078997 -0.429949,-0.4189237 -0.496095,-1.4552081 -0.08819,-1.6867207 -0.30868,-2.3702277 -0.231511,-0.683508 -0.926043,-1.355991 -1.212675,-1.179602 -3.362417,-1.179602 z m -1.190631,4.9609417 v -3.3072947 q 0,-2.888371 -1.433161,-4.564067 -1.444185,-1.675696 -3.924656,-1.675696 -2.480472,0 -3.924653,1.675696 -1.444194,1.675696 -1.444194,4.564067 v 3.3072947 q 0,2.8883692 1.444194,4.5750893 1.444181,1.6756958 3.924653,1.6756958 2.480471,0 3.924656,-1.6756958 1.433161,-1.6867201 1.433161,-4.5750893 z m -4.288459,-4.1892397 v 5.0711851 q 0,1.3780381 -1.069358,1.3780381 -1.080384,0 -1.080384,-1.3780381 v -5.0711851 q 0,-1.37804 1.080384,-1.37804 1.069358,0 1.069358,1.37804 z m -8.543855,4.1892397 v -3.3072947 q 0,-2.888371 -1.43316,-4.564067 -1.44419,-1.675696 -3.92466,-1.675696 -2.48047,0 -3.92465,1.675696 -1.44419,1.675696 -1.44419,4.564067 v 3.3072947 q 0,2.8883692 1.44419,4.5750893 1.44418,1.6756958 3.92465,1.6756958 2.48047,0 3.92466,-1.6756958 1.43316,-1.6867201 1.43316,-4.5750893 z m -4.28846,-4.1892397 v 5.0711851 q 0,1.3780381 -1.06936,1.3780381 -1.08038,0 -1.08038,-1.3780381 v -5.0711851 q 0,-1.37804 1.08038,-1.37804 1.06936,0 1.06936,1.37804 z m -12.57874,14.13317081 h 4.1231 V -8.7985719 q 0,-2.5245671 -1.32292,-4.1120691 -0.76068,-0.915018 -1.92926,-1.45521 -1.1796,-0.540191 -2.41432,-0.540191 -2.45843,0 -4.14515,1.653647 -1.68672,1.653648 -1.68672,4.0569484 0,2.3371538 1.6757,4.0348976 1.6757,1.6977447 3.96875,1.6977447 0.37483,0 1.10244,-0.07717 v -4.5420169 q -0.50712,0.4078997 -1.01424,0.4078997 -0.63941,0 -1.09141,-0.4740457 -0.46302,-0.4740457 -0.46302,-1.1244794 0,-0.6504347 0.47405,-1.1024314 0.47404,-0.463021 1.1355,-0.463021 1.5875,0 1.5875,2.1938381 z m -19.98709,-8.89662171 h 6.25079 q 0.14331,-0.4740447 0.14331,-0.8709207 0,-0.5512157 -0.19843,-1.0803824 h -2.09462 q 0.22048,-1.223699 1.37804,-1.223699 0.7717,0 1.25677,0.661459 0.48507,0.650435 0.48507,1.6756954 0,1.0693584 -0.46302,1.7308171 -0.47405,0.6614587 -1.23473,0.6614587 -0.61736,0 -1.19062,-0.6173617 l -2.34818,2.8222235 q 1.64262,1.2898454 3.64905,1.2898454 2.4474,0 4.11207,-1.6426234 1.66467,-1.6426221 1.66467,-4.0679706 0,-2.4143244 -1.6757,-4.0789964 -1.68672,-1.664672 -4.13412,-1.664672 -2.39227,0 -4.01285,1.631599 -1.6316,1.620575 -1.6316,4.0018264 0,0.242535 0.0441,0.7717017 z m -11.50939,4.828649 h 4.12309 v -6.2066874 q 0,-0.9480917 0.78273,-0.9480917 0.7717,0 0.7717,0.9480917 v 6.2066874 h 4.1231 v -6.1295174 q 0,-2.1497417 -1.42214,-3.6159757 -1.42214,-1.477258 -3.48368,-1.477258 -2.35921,0 -3.78134,1.708769 -1.11346,1.333942 -1.11346,3.7151937 z"
       id="text1"
       aria-label="Fraxinus00pen" /><path
       style="font-size:8.46667px;font-family:Arial;-inkscape-font-specification:'Arial, Normal';stroke:#000000;stroke-width:0.1;stroke-opacity:1"
       d="M -12.067812,10.503236 V 4.4426218 h -4.08864 v 0.7152021 h 3.28662 v 1.8768889 h -2.84427 v 0.7152021 h 2.84427 v 2.7533211 z m -7.9003,-0.5415689 q 0.41342,0.3513999 0.79789,0.4960939 0.38034,0.144694 0.81855,0.144694 0.72347,0 1.11208,-0.3514 0.38861,-0.3555338 0.38861,-0.9053712 0,-0.3224611 -0.1447,-0.5870445 -0.14883,-0.2687176 -0.38447,-0.4299481 -0.23978,-0.1612306 -0.53743,-0.2439129 -0.21911,-0.057878 -0.66146,-0.1116211 -0.90124,-0.107487 -1.32705,-0.2563152 -0.004,-0.1529623 -0.004,-0.1943035 0,-0.4547528 0.21084,-0.640788 0.28526,-0.2521811 0.84749,-0.2521811 0.52504,0 0.77722,0.1860352 0.24805,0.1819011 0.36794,0.6490563 l 0.7276,-0.099219 q -0.0992,-0.4671551 -0.3266,-0.7524092 -0.22737,-0.2893881 -0.65732,-0.4423504 -0.42995,-0.1570965 -0.99632,-0.1570965 -0.56224,0 -0.91364,0.1322918 -0.3514,0.1322917 -0.51677,0.3348634 -0.16536,0.1984376 -0.23151,0.5043622 -0.0372,0.1901693 -0.0372,0.6862633 v 0.9921879 q 0,1.0376632 -0.0455,1.3146489 -0.0496,0.2728517 -0.19017,0.5250327 h 0.77722 q 0.11575,-0.23151 0.14882,-0.5415691 z m 0.062,-1.6619147 q 0.40514,0.1653646 1.21543,0.2811199 0.45888,0.066146 0.64905,0.1488281 0.19017,0.082682 0.29352,0.2439129 0.10336,0.1570964 0.10336,0.3513999 0,0.2976564 -0.22325,0.4960939 -0.22737,0.1984379 -0.66145,0.1984379 -0.42995,0 -0.76482,-0.1860355 -0.33486,-0.1901694 -0.49196,-0.5167645 -0.11988,-0.2521811 -0.11988,-0.744141 z m -1.60818,0.8929691 -0.73587,-0.1157553 q -0.062,0.4423504 -0.34313,0.6779951 -0.28525,0.2356446 -0.79375,0.2356446 -0.51263,0 -0.76068,-0.2067058 -0.24804,-0.2108399 -0.24804,-0.4919598 0,-0.2521811 0.2191,-0.3968752 0.15297,-0.099219 0.76068,-0.2521811 0.81856,-0.2067058 1.13688,-0.355534 0.3142,-0.1529623 0.47956,-0.4175457 0.16123,-0.2687176 0.16123,-0.5911786 0,-0.2935223 -0.13229,-0.5415693 -0.13643,-0.2521811 -0.36794,-0.4175457 -0.17363,-0.1281577 -0.47129,-0.2149741 -0.30179,-0.090951 -0.64492,-0.090951 -0.51676,0 -0.90537,0.1488282 -0.39274,0.1488283 -0.57878,0.4051435 -0.18603,0.252181 -0.25631,0.677995 l 0.7276,0.099219 q 0.0496,-0.3389975 0.28939,-0.5291669 0.23565,-0.1901693 0.66973,-0.1901693 0.51263,0 0.73174,0.1694988 0.2191,0.1694987 0.2191,0.3968751 0,0.1446941 -0.0909,0.2604493 -0.0909,0.1198894 -0.28525,0.1984376 -0.11162,0.041341 -0.65732,0.1901694 -0.78962,0.2108399 -1.09968,0.3472657 -0.31419,0.1322917 -0.49196,0.3886069 -0.17777,0.2563153 -0.17777,0.6366539 0,0.3720705 0.21911,0.7027998 0.21498,0.3265954 0.62425,0.5084964 0.40928,0.177767 0.92605,0.177767 0.85576,0 1.30638,-0.355534 0.44648,-0.3555341 0.5705,-1.0541997 z m -6.15569,0.6449221 -0.10749,0.6573244 q 0.31419,0.06615 0.56224,0.06615 0.40514,0 0.62838,-0.128157 0.22325,-0.128158 0.3142,-0.334864 0.0909,-0.2108394 0.0909,-0.8805662 V 6.6915811 h 0.5457 V 6.1128048 h -0.5457 V 5.0255322 l -0.74001,-0.4464846 v 1.5337572 h -0.74827 v 0.5787763 h 0.74827 v 2.5672862 q 0,0.318327 -0.0372,0.4092775 -0.0413,0.090951 -0.12815,0.1446941 -0.091,0.053744 -0.25632,0.053744 -0.12402,0 -0.32659,-0.028939 z m -2.58383,0.6655924 -1.60403,-2.2820318 1.48414,-2.1083994 h -0.93017 l -0.67386,1.029395 q -0.19017,0.2935223 -0.30593,0.4919598 -0.1819,-0.2728516 -0.33486,-0.4836916 l -0.74001,-1.0376632 h -0.88883 l 1.51722,2.0670582 -1.63298,2.323373 h 0.91364 l 0.90124,-1.364258 0.23978,-0.3679364 1.15342,1.7321944 z m -11.50111,-2.1249354 -0.80202,0.2025717 q 0.25218,0.9880537 0.90951,1.5089527 0.65319,0.516764 1.5999,0.516764 0.97979,0 1.59577,-0.396875 0.61185,-0.4010092 0.93431,-1.1575525 0.31833,-0.7565433 0.31833,-1.6247077 0,-0.9467126 -0.35967,-1.6495124 -0.3638,-0.7069339 -1.0294,-1.0707361 -0.66972,-0.3679364 -1.47174,-0.3679364 -0.90951,0 -1.52962,0.463021 -0.62012,0.4630211 -0.86403,1.3022467 l 0.78961,0.1860352 q 0.21084,-0.6614586 0.61185,-0.9632491 0.40101,-0.3017905 1.00873,-0.3017905 0.69866,0 1.16995,0.3348635 0.46716,0.3348634 0.65732,0.9012373 0.19017,0.5622399 0.19017,1.1616867 0,0.7730798 -0.22324,1.351856 -0.22737,0.5746422 -0.7028,0.8598962 -0.47542,0.285254 -1.02939,0.285254 -0.67386,0 -1.14102,-0.3886069 -0.46715,-0.3886069 -0.63252,-1.1534184 z m -1.418,-0.07028 q 0,-1.2195643 -0.67799,-1.8066088 -0.56638,-0.4878258 -1.3808,-0.4878258 -0.90537,0 -1.48001,0.5953128 -0.57465,0.5911786 -0.57465,1.63711 0,0.8474939 0.25632,1.3353196 0.25218,0.4836916 0.74001,0.7524086 0.48369,0.268718 1.05833,0.268718 0.92191,0 1.49242,-0.591179 0.56637,-0.5911781 0.56637,-1.7032554 z m -0.76481,0 q 0,0.8433597 -0.36794,1.2650396 -0.36793,0.4175457 -0.92604,0.4175457 -0.55397,0 -0.92191,-0.4216799 -0.36793,-0.4216798 -0.36793,-1.2857101 0,-0.8144209 0.37207,-1.2319666 0.36793,-0.4216799 0.91777,-0.4216799 0.55811,0 0.92604,0.4175457 0.36794,0.4175458 0.36794,1.2609055 z m -4.22093,2.1952154 V 6.1128048 h -0.6656 v 0.6159834 q -0.2067,-0.3224611 -0.54984,-0.5167646 -0.34313,-0.1984376 -0.78134,-0.1984376 -0.48783,0 -0.79789,0.2025717 -0.31419,0.2025718 -0.44235,0.566374 -0.5209,-0.7689457 -1.35599,-0.7689457 -0.65319,0 -1.00459,0.3638023 -0.3514,0.3596681 -0.3514,1.1120773 v 3.0137704 h 0.74001 V 7.7375126 q 0,-0.4464846 0.0744,-0.6407881 0.0703,-0.1984375 0.26045,-0.3183269 0.19017,-0.1198894 0.44649,-0.1198894 0.46302,0 0.76894,0.3100587 0.30593,0.3059246 0.30593,0.9839197 v 2.5507494 h 0.74414 V 7.6506961 q 0,-0.4960939 0.1819,-0.7441409 0.1819,-0.248047 0.59531,-0.248047 0.31419,0 0.58291,0.1653647 0.26459,0.1653646 0.38447,0.4836916 0.11989,0.3183269 0.11989,0.9177738 v 2.2778977 z m -7.05281,1.682587 V 6.1128048 h -0.67799 v 0.5705081 q -0.23978,-0.3348634 -0.54157,-0.5002281 -0.30179,-0.1694988 -0.73174,-0.1694988 -0.562241,0 -0.992189,0.2893882 -0.429948,0.2893882 -0.649056,0.818555 -0.219108,0.5250328 -0.219108,1.1534185 0,0.6738609 0.243913,1.2154301 0.239779,0.5374352 0.7028,0.8268232 0.458886,0.285254 0.96738,0.285254 0.37207,0 0.66973,-0.157096 0.29352,-0.157097 0.48369,-0.396876 v 2.13734 z m -0.67386,-3.8529977 q 0,0.8474938 -0.34313,1.2526372 -0.34313,0.4051434 -0.83096,0.4051434 -0.496092,0 -0.847492,-0.4175457 -0.355534,-0.4216799 -0.355534,-1.3022467 0,-0.8392255 0.347266,-1.2567713 0.343132,-0.4175457 0.82269,-0.4175457 0.47542,0 0.84336,0.4464845 0.3638,0.4423505 0.3638,1.2898443 z m -6.89984,1.6288418 q 0.413412,0.3513999 0.797885,0.4960939 0.380338,0.144694 0.818555,0.144694 0.72347,0 1.112077,-0.3514 0.388607,-0.3555338 0.388607,-0.9053712 0,-0.3224611 -0.144694,-0.5870445 -0.148828,-0.2687176 -0.384473,-0.4299481 -0.239779,-0.1612306 -0.537435,-0.2439129 -0.219108,-0.057878 -0.661459,-0.1116211 -0.901237,-0.107487 -1.327051,-0.2563152 -0.0041,-0.1529623 -0.0041,-0.1943035 0,-0.4547528 0.21084,-0.640788 0.285254,-0.2521811 0.847494,-0.2521811 0.525032,0 0.777214,0.1860352 0.248046,0.1819011 0.367936,0.6490563 l 0.727604,-0.099219 q -0.09922,-0.4671551 -0.326595,-0.7524092 -0.227376,-0.2893881 -0.657324,-0.4423504 -0.429948,-0.1570965 -0.996322,-0.1570965 -0.56224,0 -0.91364,0.1322918 -0.3514,0.1322917 -0.516765,0.3348634 -0.165364,0.1984376 -0.23151,0.5043622 -0.03721,0.1901693 -0.03721,0.6862633 v 0.9921879 q 0,1.0376632 -0.04547,1.3146489 -0.04961,0.2728517 -0.19017,0.5250327 h 0.777214 q 0.115739,-0.23151 0.148812,-0.5415689 z m 0.06201,-1.6619147 q 0.405143,0.1653646 1.21543,0.2811199 0.458887,0.066146 0.649056,0.1488281 0.19017,0.082682 0.293523,0.2439129 0.103353,0.1570964 0.103353,0.3513999 0,0.2976564 -0.223243,0.4960939 -0.227376,0.1984379 -0.661458,0.1984379 -0.429948,0 -0.764812,-0.1860355 -0.334863,-0.1901694 -0.49196,-0.5167645 -0.119889,-0.2521811 -0.119889,-0.744141 z m -4.770767,0.5953127 -0.731739,0.095085 q 0.11989,0.7565432 0.615984,1.1864909 0.491959,0.425815 1.211296,0.425815 0.901237,0 1.451074,-0.587045 0.545704,-0.5911787 0.545704,-1.6908536 0,-0.711068 -0.235645,-1.244369 -0.235645,-0.533301 -0.715202,-0.7978845 -0.483692,-0.2687176 -1.050066,-0.2687176 -0.715202,0 -1.169954,0.3638023 -0.454753,0.3596681 -0.582911,1.0252608 l 0.723471,0.1116212 q 0.103352,-0.4423505 0.367936,-0.6655927 0.260449,-0.2232423 0.63252,-0.2232423 0.562239,0 0.913639,0.4051434 0.3514,0.4010093 0.3514,1.2733078 0,0.8847008 -0.338997,1.2857101 -0.338998,0.4010093 -0.884701,0.4010093 -0.438217,0 -0.731739,-0.2687176 -0.293522,-0.2687175 -0.37207,-0.8268235 z m -2.993103,0.9425785 -0.107487,0.6573244 q 0.314193,0.06615 0.56224,0.06615 0.405143,0 0.628386,-0.128157 0.223242,-0.128158 0.314193,-0.334864 0.09095,-0.2108394 0.09095,-0.8805662 V 6.6915811 h 0.545703 V 6.1128048 H -68.99875 V 5.0255322 l -0.740007,-0.4464846 v 1.5337572 h -0.748275 v 0.5787763 h 0.748275 v 2.5672862 q 0,0.318327 -0.03721,0.4092775 -0.04134,0.090951 -0.128157,0.1446941 -0.09095,0.053744 -0.256316,0.053744 -0.124023,0 -0.326595,-0.028939 z m -7.499287,-1.459343 -0.802018,0.2025717 q 0.252181,0.9880537 0.909506,1.5089527 0.65319,0.516764 1.599902,0.516764 0.979786,0 1.595769,-0.396875 0.61185,-0.4010092 0.934311,-1.1575525 0.318327,-0.7565433 0.318327,-1.6247077 0,-0.9467126 -0.359669,-1.6495124 -0.363802,-0.7069339 -1.029394,-1.0707361 -0.669727,-0.3679364 -1.471746,-0.3679364 -0.909505,0 -1.529623,0.463021 -0.620117,0.4630211 -0.86403,1.3022467 l 0.789616,0.1860352 q 0.21084,-0.6614586 0.611849,-0.9632491 0.40101,-0.3017905 1.008725,-0.3017905 0.698665,0 1.169955,0.3348635 0.467155,0.3348634 0.657324,0.9012373 0.190169,0.5622399 0.190169,1.1616867 0,0.7730798 -0.223242,1.351856 -0.227376,0.5746422 -0.7028,0.8598962 -0.475423,0.285254 -1.029395,0.285254 -0.673861,0 -1.141016,-0.3886069 -0.467155,-0.3886069 -0.63252,-1.1534184 z m -1.417997,-0.07028 q 0,-1.2195643 -0.677995,-1.8066088 -0.566374,-0.4878258 -1.380795,-0.4878258 -0.905371,0 -1.480013,0.5953128 -0.574642,0.5911786 -0.574642,1.63711 0,0.8474939 0.256315,1.3353196 0.252181,0.4836916 0.740007,0.7524086 0.483691,0.268718 1.058333,0.268718 0.921908,0 1.492416,-0.591179 0.566374,-0.5911781 0.566374,-1.7032554 z m -0.764811,0 q 0,0.8433597 -0.367936,1.2650396 -0.367937,0.4175457 -0.926043,0.4175457 -0.553971,0 -0.921907,-0.4216799 -0.367937,-0.4216798 -0.367937,-1.2857101 0,-0.8144209 0.372071,-1.2319666 0.367936,-0.4216799 0.917773,-0.4216799 0.558106,0 0.926043,0.4175457 0.367936,0.4175458 0.367936,1.2609055 z m -4.212669,2.1952154 V 6.1128048 h -0.669727 V 6.7783976 Q -85.307838,6.3112425 -85.522812,6.1624142 -85.741921,6.013586 -86.00237,6.013586 q -0.376204,0 -0.764811,0.2397788 l 0.256315,0.6903974 q 0.272851,-0.1612305 0.545703,-0.1612305 0.243913,0 0.438216,0.1488282 0.194304,0.1446941 0.276986,0.4051434 0.124024,0.3968751 0.124024,0.8681644 v 2.2985683 z m -5.833237,-1.4138674 -0.768945,0.095085 q 0.181901,0.673861 0.673861,1.0459314 0.491959,0.372071 1.256771,0.372071 0.963249,0 1.529623,-0.591179 0.56224,-0.5953129 0.56224,-1.666049 0,-1.1079431 -0.570508,-1.7197923 -0.570508,-0.6118493 -1.480014,-0.6118493 -0.880567,0 -1.438672,0.5994469 -0.558106,0.5994469 -0.558106,1.6867195 0,0.066146 0.0041,0.1984375 h 3.27422 q -0.04134,0.7234704 -0.409277,1.1079432 -0.367937,0.3844728 -0.917774,0.3844728 -0.409278,0 -0.698666,-0.214974 -0.289388,-0.2149741 -0.458887,-0.6862633 z m 2.443263,-1.2030279 h -2.451531 q 0.04961,-0.5539715 0.28112,-0.8309573 0.355534,-0.4299481 0.921908,-0.4299481 0.51263,0 0.86403,0.3431316 0.347266,0.3431317 0.384473,0.9177738 z m -3.625617,2.6168953 -2.344044,-3.1584645 2.067058,-2.9021497 h -0.954981 l -1.099675,1.5544278 q -0.343131,0.4836916 -0.487825,0.7441409 -0.202572,-0.3307293 -0.479558,-0.6903974 l -1.219564,-1.6081713 h -0.872299 l 2.12907,2.8566744 -2.294434,3.2039398 h 0.992188 l 1.525489,-2.1621425 q 0.128157,-0.1860352 0.264583,-0.4051434 0.202572,0.3307293 0.289388,0.4547528 l 1.521355,2.1125331 z m -7.970579,0 V 7.9359501 l 2.335772,-3.4933283 h -0.975651 l -1.194761,1.8272795 q -0.330727,0.5126304 -0.615977,1.0252608 -0.272857,-0.4754234 -0.661467,-1.0707361 l -1.1741,-1.7818042 h -0.93431 l 2.41847,3.4933283 v 2.5672859 z m -6.139174,0 V 4.4426218 h -2.28617 q -0.60358,0 -0.9219,0.057878 -0.44649,0.074414 -0.74828,0.285254 -0.30179,0.2067059 -0.48369,0.5829105 -0.18604,0.3762045 -0.18604,0.8268232 0,0.7730798 0.49196,1.3105149 0.49196,0.533301 1.77767,0.533301 h 1.55443 v 2.4639336 z m -0.80202,-3.1791351 h -1.56683 q -0.77721,0 -1.10381,-0.2893881 -0.32659,-0.2893881 -0.32659,-0.8144209 0,-0.3803387 0.1943,-0.6490563 0.19017,-0.2728517 0.50436,-0.3596682 0.20258,-0.053743 0.74828,-0.053743 h 1.55029 z m -7.7556,1.7652677 -0.76894,0.095085 q 0.1819,0.673861 0.67386,1.0459314 0.49196,0.372071 1.25677,0.372071 0.96325,0 1.52962,-0.591179 0.56224,-0.5953129 0.56224,-1.666049 0,-1.1079431 -0.57051,-1.7197923 -0.5705,-0.6118493 -1.48001,-0.6118493 -0.88057,0 -1.43867,0.5994469 -0.55811,0.5994469 -0.55811,1.6867195 0,0.066146 0.004,0.1984375 h 3.27422 q -0.0413,0.7234704 -0.40928,1.1079432 -0.36793,0.3844728 -0.91777,0.3844728 -0.40928,0 -0.69867,-0.214974 -0.28938,-0.2149741 -0.45888,-0.6862633 z m 2.44326,-1.2030279 h -2.45153 q 0.0496,-0.5539715 0.28112,-0.8309573 0.35554,-0.4299481 0.92191,-0.4299481 0.51263,0 0.86403,0.3431316 0.34727,0.3431317 0.38447,0.9177738 z m -4.14651,2.6168953 V 6.1128048 h -0.66973 v 0.6242516 q -0.48369,-0.7234704 -1.39733,-0.7234704 -0.39687,0 -0.7276,0.1446941 -0.33487,0.14056 -0.50023,0.3720705 -0.16537,0.2315105 -0.23151,0.5498375 -0.0413,0.2067058 -0.0413,0.7234703 v 2.6995776 h 0.74414 V 7.8325972 q 0,-0.4547528 0.0868,-0.677995 0.0868,-0.2273764 0.31006,-0.3596681 0.21911,-0.1364259 0.51676,-0.1364259 0.47543,0 0.82269,0.3017905 0.34313,0.3017905 0.34313,1.1451502 v 2.3977871 z m -7.15616,0 V 4.4426218 h -2.28617 q -0.60358,0 -0.9219,0.057878 -0.44649,0.074414 -0.74828,0.285254 -0.30179,0.2067059 -0.48369,0.5829105 -0.18604,0.3762045 -0.18604,0.8268232 0,0.7730798 0.49196,1.3105149 0.49196,0.533301 1.77767,0.533301 h 1.55443 v 2.4639336 z m -0.80202,-3.1791351 h -1.56683 q -0.77721,0 -1.10381,-0.2893881 -0.32659,-0.2893881 -0.32659,-0.8144209 0,-0.3803387 0.1943,-0.6490563 0.19017,-0.2728517 0.50436,-0.3596682 0.20258,-0.053743 0.74828,-0.053743 h 1.55029 z m -4.73356,3.1791351 V 4.4426218 h -0.74414 v 6.0606142 z m -1.62058,-2.1952154 q 0,-1.2195643 -0.67799,-1.8066088 -0.56638,-0.4878258 -1.3808,-0.4878258 -0.90537,0 -1.48001,0.5953128 -0.57464,0.5911786 -0.57464,1.63711 0,0.8474939 0.25631,1.3353196 0.25218,0.4836916 0.74001,0.7524086 0.48369,0.268718 1.05833,0.268718 0.92191,0 1.49242,-0.591179 0.56637,-0.5911781 0.56637,-1.7032554 z m -0.76481,0 q 0,0.8433597 -0.36794,1.2650396 -0.36793,0.4175457 -0.92604,0.4175457 -0.55397,0 -0.92191,-0.4216799 -0.36793,-0.4216798 -0.36793,-1.2857101 0,-0.8144209 0.37207,-1.2319666 0.36794,-0.4216799 0.91777,-0.4216799 0.55811,0 0.92604,0.4175457 0.36794,0.4175458 0.36794,1.2609055 z m -5.84564,1.529623 -0.10748,0.6573244 q 0.31419,0.06615 0.56224,0.06615 0.40514,0 0.62838,-0.128157 0.22324,-0.128158 0.31419,-0.334864 0.0909,-0.2108394 0.0909,-0.8805662 V 6.6915811 h 0.54571 V 6.1128048 h -0.54571 V 5.0255322 l -0.74,-0.4464846 v 1.5337572 h -0.74828 v 0.5787763 h 0.74828 v 2.5672862 q 0,0.318327 -0.0372,0.4092775 -0.0413,0.090951 -0.12816,0.1446941 -0.0909,0.053744 -0.25632,0.053744 -0.12402,0 -0.32659,-0.028939 z m -2.35231,0 -0.10748,0.6573244 q 0.31419,0.06615 0.56224,0.06615 0.40514,0 0.62838,-0.128157 0.22324,-0.128158 0.31419,-0.334864 0.0909,-0.2108394 0.0909,-0.8805662 V 6.6915811 h 0.54571 V 6.1128048 h -0.54571 V 5.0255322 l -0.74,-0.4464846 v 1.5337572 h -0.74828 v 0.5787763 h 0.74828 v 2.5672862 q 0,0.318327 -0.0372,0.4092775 -0.0413,0.090951 -0.12816,0.1446941 -0.0909,0.053744 -0.25632,0.053744 -0.12402,0 -0.32659,-0.028939 z m -3.73311,-0.748275 -0.76895,0.095085 q 0.18191,0.673861 0.67387,1.0459314 0.49196,0.372071 1.25677,0.372071 0.96325,0 1.52962,-0.591179 0.56224,-0.5953129 0.56224,-1.666049 0,-1.1079431 -0.57051,-1.7197923 -0.57051,-0.6118493 -1.48001,-0.6118493 -0.88057,0 -1.43867,0.5994469 -0.55811,0.5994469 -0.55811,1.6867195 0,0.066146 0.004,0.1984375 h 3.27422 q -0.0413,0.7234704 -0.40928,1.1079432 -0.36793,0.3844728 -0.91777,0.3844728 -0.40928,0 -0.69867,-0.214974 -0.28938,-0.2149741 -0.45888,-0.6862633 z m 2.44326,-1.2030279 h -2.45153 q 0.0496,-0.5539715 0.28112,-0.8309573 0.35554,-0.4299481 0.92191,-0.4299481 0.51263,0 0.86403,0.3431316 0.34727,0.3431317 0.38447,0.9177738 z m -4.13824,2.6168953 V 6.1128048 h -0.66973 v 0.6655928 q -0.25632,-0.4671551 -0.47129,-0.6159834 -0.21911,-0.1488282 -0.47956,-0.1488282 -0.3762,0 -0.76481,0.2397788 l 0.25632,0.6903974 q 0.27285,-0.1612305 0.5457,-0.1612305 0.24391,0 0.43822,0.1488282 0.1943,0.1446941 0.27698,0.4051434 0.12402,0.3968751 0.12402,0.8681644 v 2.2985683 z"
       id="text2"
       aria-label="Fast x Compact CoreXY Pen Plotter" /></g></svg>
