<?xml version="1.0" encoding="UTF-8" standalone="no"?>
<!-- Created with Inkscape (http://www.inkscape.org/) -->

<svg
   width="38.646652mm"
   height="32.09993mm"
   viewBox="0 0 38.646652 32.09993"
   version="1.1"
   id="svg1"
   inkscape:version="1.4 (86a8ad7, 2024-10-11)"
   xml:space="preserve"
   sodipodi:docname="DisplayStandArm.svg"
   xmlns:inkscape="http://www.inkscape.org/namespaces/inkscape"
   xmlns:sodipodi="http://sodipodi.sourceforge.net/DTD/sodipodi-0.dtd"
   xmlns="http://www.w3.org/2000/svg"
   xmlns:svg="http://www.w3.org/2000/svg"><sodipodi:namedview
     id="namedview1"
     pagecolor="#ffffff"
     bordercolor="#000000"
     borderopacity="0.25"
     inkscape:showpageshadow="2"
     inkscape:pageopacity="0.0"
     inkscape:pagecheckerboard="0"
     inkscape:deskcolor="#d1d1d1"
     inkscape:document-units="mm"
     showgrid="true"
     inkscape:zoom="2.2735728"
     inkscape:cx="-28.809282"
     inkscape:cy="177.25406"
     inkscape:current-layer="layer1"><inkscape:grid
       id="grid1"
       units="mm"
       originx="-205.30009"
       originy="-89.956543"
       spacingx="0.99999986"
       spacingy="1"
       empcolor="#0099e5"
       empopacity="0.30196078"
       color="#0099e5"
       opacity="0.14901961"
       empspacing="5"
       enabled="true"
       visible="true" /></sodipodi:namedview><defs
     id="defs1"><marker
       id="DistanceX"
       orient="auto"
       refX="0"
       refY="0"
       style="overflow:visible"><path
         d="M 3,-3 -3,3 M 0,-5 V 5"
         style="stroke:#000000;stroke-width:0.5"
         id="path1" /></marker><pattern
       id="Hatch"
       patternUnits="userSpaceOnUse"
       width="8"
       height="8"
       x="0"
       y="0"><path
         d="M8 4 l-4,4"
         stroke="#000000"
         stroke-width="0.25"
         linecap="square"
         id="path2" /><path
         d="M6 2 l-4,4"
         stroke="#000000"
         stroke-width="0.25"
         linecap="square"
         id="path3" /><path
         d="M4 0 l-4,4"
         stroke="#000000"
         stroke-width="0.25"
         linecap="square"
         id="path4" /></pattern><symbol
       id="*MODEL_SPACE" /><symbol
       id="*PAPER_SPACE" /></defs><g
     inkscape:label="Layer 1"
     inkscape:groupmode="layer"
     id="layer1"
     transform="translate(-205.30009,-89.956543)"><g
       id="g1"
       transform="translate(0.46549349,2.0000365)"><path
         d="m 227.53125,94.006506 a 2.1,2.1 0 0 0 -4.2,0 2.1,2.1 0 0 0 4.2,0 z"
         style="fill:none;stroke:#ff0000;stroke-width:0.1;stroke-dasharray:none;stroke-opacity:1"
         id="path76" /><path
         style="fill:none;stroke:#ff0000;stroke-width:0.1;stroke-dasharray:none;stroke-opacity:1"
         d="M 225.43112,88.006616 H 237.4313"
         id="path77" /><path
         style="fill:none;stroke:#ff0000;stroke-width:0.1;stroke-dasharray:none;stroke-opacity:1"
         d="m 231.43134,106.00648 v 8.001"
         id="path78" /><path
         style="fill:none;stroke:#ff0000;stroke-width:0.1;stroke-dasharray:none;stroke-opacity:1"
         d="m 237.42918,120.00638 h 0.004"
         id="path79" /><path
         style="fill:none;stroke:#ff0000;stroke-width:0.1;stroke-dasharray:none;stroke-opacity:1"
         d="M 243.43125,114.00643 V 94.006572"
         id="path80" /><path
         d="m 239.53125,114.00651 a 2.1,2.1 0 0 0 -4.2,0 2.1,2.1 0 0 0 4.2,0 z"
         style="fill:none;stroke:#ff0000;stroke-width:0.1;stroke-dasharray:none;stroke-opacity:1"
         id="path81" /><path
         d="m 231.43125,114.00547 a 6,6 0 1 0 12,10e-4"
         style="fill:none;stroke:#ff0000;stroke-width:0.1;stroke-dasharray:none;stroke-opacity:1"
         id="path82" /><path
         d="m 225.43125,88.006507 a 6.0000015,6.0000015 0 0 0 0,12.000003"
         style="fill:none;stroke:#ff0000;stroke-width:0.1;stroke-dasharray:none;stroke-opacity:1"
         id="path83" /><path
         d="m 243.43125,94.006506 a 5.9999998,5.9999998 0 0 0 -6,-5.999999"
         style="fill:none;stroke:#ff0000;stroke-width:0.1;stroke-dasharray:none;stroke-opacity:1"
         id="path84" /><path
         style="fill:none;stroke:#ff0000;stroke-width:0.1;stroke-dasharray:none;stroke-opacity:1"
         d="m 225.43112,100.00653 h 4.00024"
         id="path85" /><path
         style="fill:none;stroke:#ff0000;stroke-width:0.1;stroke-dasharray:none;stroke-opacity:1"
         d="m 231.43134,102.00651 v 3.99997"
         id="path86" /><path
         d="m 231.43125,102.00651 a 1.9999999,1.9999999 0 0 0 -2,-2"
         style="fill:none;stroke:#ff0000;stroke-width:0.1;stroke-dasharray:none;stroke-opacity:1"
         id="path87" /></g><g
       id="g16"
       transform="rotate(180,224.39067,105.00649)"><path
         d="m 227.53125,94.006506 a 2.1,2.1 0 0 0 -4.2,0 2.1,2.1 0 0 0 4.2,0 z"
         style="fill:none;stroke:#ff0000;stroke-width:0.1;stroke-dasharray:none;stroke-opacity:1"
         id="path5" /><path
         style="fill:none;stroke:#ff0000;stroke-width:0.1;stroke-dasharray:none;stroke-opacity:1"
         d="M 225.43112,88.006616 H 237.4313"
         id="path6" /><path
         style="fill:none;stroke:#ff0000;stroke-width:0.1;stroke-dasharray:none;stroke-opacity:1"
         d="m 231.43134,106.00648 v 8.001"
         id="path7" /><path
         style="fill:none;stroke:#ff0000;stroke-width:0.1;stroke-dasharray:none;stroke-opacity:1"
         d="m 237.42918,120.00638 h 0.004"
         id="path8" /><path
         style="fill:none;stroke:#ff0000;stroke-width:0.1;stroke-dasharray:none;stroke-opacity:1"
         d="M 243.43125,114.00643 V 94.006572"
         id="path9" /><path
         d="m 239.53125,114.00651 a 2.1,2.1 0 0 0 -4.2,0 2.1,2.1 0 0 0 4.2,0 z"
         style="fill:none;stroke:#ff0000;stroke-width:0.1;stroke-dasharray:none;stroke-opacity:1"
         id="path10" /><path
         d="m 231.43125,114.00547 a 6,6 0 1 0 12,10e-4"
         style="fill:none;stroke:#ff0000;stroke-width:0.1;stroke-dasharray:none;stroke-opacity:1"
         id="path11" /><path
         d="m 225.43125,88.006507 a 6.0000015,6.0000015 0 0 0 0,12.000003"
         style="fill:none;stroke:#ff0000;stroke-width:0.1;stroke-dasharray:none;stroke-opacity:1"
         id="path12" /><path
         d="m 243.43125,94.006506 a 5.9999998,5.9999998 0 0 0 -6,-5.999999"
         style="fill:none;stroke:#ff0000;stroke-width:0.1;stroke-dasharray:none;stroke-opacity:1"
         id="path13" /><path
         style="fill:none;stroke:#ff0000;stroke-width:0.1;stroke-dasharray:none;stroke-opacity:1"
         d="m 225.43112,100.00653 h 4.00024"
         id="path14" /><path
         style="fill:none;stroke:#ff0000;stroke-width:0.1;stroke-dasharray:none;stroke-opacity:1"
         d="m 231.43134,102.00651 v 3.99997"
         id="path15" /><path
         d="m 231.43125,102.00651 a 1.9999999,1.9999999 0 0 0 -2,-2"
         style="fill:none;stroke:#ff0000;stroke-width:0.1;stroke-dasharray:none;stroke-opacity:1"
         id="path16" /></g></g></svg>
