0
SECTION
2
HEADER
9
$INSUNITS
70
4
9
$ACADVER
1
AC1014
9
$HANDSEED
5
FFFF
0
ENDSEC
0
SECTION
2
TABLES
0
TABLE
2
VPORT
5
8
100
AcDbSymbolTable
0
ENDTAB
0
TABLE
2
LTYPE
5
5
100
AcDbSymbolTable
0
LTYPE
5
14
100
AcDbSymbolTableRecord
100
AcDbLinetypeTableRecord
2
BYBLOCK
70
0
0
LTYPE
5
15
100
AcDbSymbolTableRecord
100
AcDbLinetypeTableRecord
2
BYLAYER
70
0
0
LTYPE
5
16
100
AcDbSymbolTableRecord
100
AcDbLinetypeTableRecord
2
DASHED
70
0
3
Dashed __ __ __ __ __ __ __ __ __ __ __ __ __ _
72
65
73
2
40
0.75
49
0.5
74
0
49
-0.25
74
0
0
ENDTAB
0
TABLE
2
LAYER
5
2
100
AcDbSymbolTable
70
3
0
LAYER
5
50
100
AcDbSymbolTableRecord
100
AcDbLayerTableRecord
2
1
70
0
62
7
6
DASHED
0
LAYER
5
51
100
AcDbSymbolTableRecord
100
AcDbLayerTableRecord
2
0
70
0
62
7
6
CONTINUOUS
0
ENDTAB
0
TABLE
2
STYLE
5
3
100
AcDbSymbolTable
70
1
0
STYLE
5
11
100
AcDbSymbolTableRecord
100
AcDbTextStyleTableRecord
2
STANDARD
70
0
0
ENDTAB
0
TABLE
2
VIEW
5
6
100
AcDbSymbolTable
70
0
0
ENDTAB
0
TABLE
2
UCS
5
7
100
AcDbSymbolTable
70
0
0
ENDTAB
0
TABLE
2
APPID
5
9
100
AcDbSymbolTable
70
2
0
APPID
5
12
100
AcDbSymbolTableRecord
100
AcDbRegAppTableRecord
2
ACAD
70
0
0
ENDTAB
0
TABLE
2
DIMSTYLE
5
A
100
AcDbSymbolTable
70
1
0
ENDTAB
0
TABLE
2
BLOCK_RECORD
5
1
100
AcDbSymbolTable
70
1
0
BLOCK_RECORD
5
1F
100
AcDbSymbolTableRecord
100
AcDbBlockTableRecord
2
*MODEL_SPACE
0
BLOCK_RECORD
5
1B
100
AcDbSymbolTableRecord
100
AcDbBlockTableRecord
2
*PAPER_SPACE
0
ENDTAB
0
ENDSEC
0
SECTION
2
BLOCKS
0
BLOCK
5
20
100
AcDbEntity
100
AcDbBlockBegin
2
*MODEL_SPACE
0
ENDBLK
5
21
100
AcDbEntity
100
AcDbBlockEnd
0
BLOCK
5
1C
100
AcDbEntity
100
AcDbBlockBegin
2
*PAPER_SPACE
0
ENDBLK
5
1D
100
AcDbEntity
100
AcDbBlockEnd
0
ENDSEC
0
SECTION
2
ENTITIES
0
POINT
5
100
100
AcDbEntity
8
0
100
AcDbPoint
10
10
20
-260.00000387430191
30
0
0
POINT
5
101
100
AcDbEntity
8
0
100
AcDbPoint
10
10
20
-260.00000387430191
30
0
0
POINT
5
102
100
AcDbEntity
8
0
100
AcDbPoint
10
-85.500001266598701
20
-304.60000454485419
30
0
0
POINT
5
103
100
AcDbEntity
8
0
100
AcDbPoint
10
-91.000000938773155
20
-299.00000397861004
30
0
0
POINT
5
104
100
AcDbEntity
8
0
100
AcDbPoint
10
-80.000000774860382
20
-299.00000397861004
30
0
0
POINT
5
105
100
AcDbEntity
8
0
100
AcDbPoint
10
-80.000000774860382
20
-310.00000414252281
30
0
0
POINT
5
106
100
AcDbEntity
8
0
100
AcDbPoint
10
-54.500000819563859
20
-304.60000454485419
30
0
0
POINT
5
107
100
AcDbEntity
8
0
100
AcDbPoint
10
-49.000001147389405
20
-299.00000397861004
30
0
0
POINT
5
108
100
AcDbEntity
8
0
100
AcDbPoint
10
-60.000001311302178
20
-310.00000414252281
30
0
0
POINT
5
109
100
AcDbEntity
8
0
100
AcDbPoint
10
-60.000001311302178
20
-299.00000397861004
30
0
0
POINT
5
110
100
AcDbEntity
8
0
100
AcDbPoint
10
-88.500002533197403
20
-30.00000387430191
30
0
0
POINT
5
111
100
AcDbEntity
8
0
100
AcDbPoint
10
88.499997466802611
20
-30.00000387430191
30
0
0
POINT
5
112
100
AcDbEntity
8
0
100
AcDbPoint
10
-300
20
0
30
0
0
POINT
5
113
100
AcDbEntity
8
0
100
AcDbPoint
10
-266.50000342726696
20
195.34369048702183
30
0
0
POINT
5
114
100
AcDbEntity
8
0
100
AcDbPoint
10
-266.50000342726696
20
195.34369048702183
30
0
0
POINT
5
115
100
AcDbEntity
8
0
100
AcDbPoint
10
-300.00000447034836
20
167.00000248849392
30
0
0
POINT
5
116
100
AcDbEntity
8
0
100
AcDbPoint
10
-300.00000447034836
20
167.00000248849392
30
0
0
POINT
5
117
100
AcDbEntity
8
0
100
AcDbPoint
10
-220.00000447034836
20
167.00000248849392
30
0
0
POINT
5
118
100
AcDbEntity
8
0
100
AcDbPoint
10
-220.00000447034836
20
167.00000248849392
30
0
0
POINT
5
119
100
AcDbEntity
8
0
100
AcDbPoint
10
-380.00000447034836
20
167.00000248849392
30
0
0
POINT
5
120
100
AcDbEntity
8
0
100
AcDbPoint
10
-380.00000447034836
20
167.00000248849392
30
0
0
POINT
5
121
100
AcDbEntity
8
0
100
AcDbPoint
10
-300.00000447034836
20
-339.50000461935997
30
0
0
POINT
5
122
100
AcDbEntity
8
0
100
AcDbPoint
10
-300.00000447034836
20
-339.50000461935997
30
0
0
POINT
5
123
100
AcDbEntity
8
0
100
AcDbPoint
10
-300.00000447034836
20
-339.50000461935997
30
0
0
CIRCLE
5
124
100
AcDbEntity
8
0
100
AcDbCircle
10
10
20
-260.00000387430191
30
0
40
1.5000000000000113
210
0
220
0
230
1
0
CIRCLE
5
125
100
AcDbEntity
8
0
100
AcDbCircle
10
50.000000000000007
20
-260.00000387430191
30
0
40
1.5000000000000113
210
0
220
0
230
1
0
CIRCLE
5
126
100
AcDbEntity
8
0
100
AcDbCircle
10
70.000000000000014
20
-260.00000387430191
30
0
40
1.5000000000000113
210
0
220
0
230
1
0
CIRCLE
5
127
100
AcDbEntity
8
0
100
AcDbCircle
10
-70
20
-260.00000387430191
30
0
40
1.5000000000000113
210
0
220
0
230
1
0
CIRCLE
5
128
100
AcDbEntity
8
0
100
AcDbCircle
10
-50
20
-260.00000387430191
30
0
40
1.5000000000000113
210
0
220
0
230
1
0
LWPOLYLINE
5
129
100
AcDbEntity
8
0
100
AcDbPolyline
90
16
70
1
43
0.0
10
-95.00000111758709
20
-254.00000378489494
10
95.00000111758709
20
-254.00000378489494
42
-0.41421356237309503
10
100.00000111758709
20
-259.00000378489494
10
100.00000111758709
20
-279.00000423192978
42
-0.41421356237309503
10
95.00000111758709
20
-284.00000423192978
10
77.00000070035459
20
-284.00000423192978
42
-0.41421356237309453
10
72.00000070035459
20
-279.00000423192978
10
72.000000700354576
20
-271.00000396370888
42
0.41421356237309453
10
67.00000070035459
20
-266.00000396370888
10
-67.000000700354576
20
-266.00000396370888
42
0.41421356237309453
10
-72.000000700354562
20
-271.00000396370888
10
-72.00000070035459
20
-279.00000423192978
42
-0.41421356237309453
10
-77.000000700354576
20
-284.00000423192978
10
-95.00000111758709
20
-284.00000423192978
42
-0.41421356237309503
10
-100.00000111758709
20
-279.00000423192978
10
-100.00000111758709
20
-259.00000378489494
42
-0.41421356237309503
0
LINE
5
130
100
AcDbEntity
8
0
100
AcDbLine
10
100.00000111758709
20
-259.00000378489494
30
0
11
100.00000111758709
21
-266.00000396370888
31
0
0
CIRCLE
5
131
100
AcDbEntity
8
0
100
AcDbCircle
10
-81.000000834465027
20
-262.00000390410423
30
0
40
1.6000000000000032
210
0
220
0
230
1
0
CIRCLE
5
132
100
AcDbEntity
8
0
100
AcDbCircle
10
-96.000001057982445
20
-262.00000390410423
30
0
40
1.600000000000007
210
0
220
0
230
1
0
CIRCLE
5
133
100
AcDbEntity
8
0
100
AcDbCircle
10
-96.000001057982445
20
-272.00000405311584
30
0
40
1.5999999999999936
210
0
220
0
230
1
0
CIRCLE
5
134
100
AcDbEntity
8
0
100
AcDbCircle
10
-88.500000938773155
20
-267.00000397861004
30
0
40
1.5000000000000036
210
0
220
0
230
1
0
CIRCLE
5
135
100
AcDbEntity
8
0
100
AcDbCircle
10
-77.500000774860382
20
-267.00000397861004
30
0
40
1.5000000000000071
210
0
220
0
230
1
0
CIRCLE
5
136
100
AcDbEntity
8
0
100
AcDbCircle
10
-77.500000774860382
20
-278.00000414252281
30
0
40
1.4999999999999982
210
0
220
0
230
1
0
CIRCLE
5
137
100
AcDbEntity
8
0
100
AcDbCircle
10
77.500000774860382
20
-278.00000414252281
30
0
40
1.4999999999999982
210
0
220
0
230
1
0
CIRCLE
5
138
100
AcDbEntity
8
0
100
AcDbCircle
10
96.000001057982445
20
-272.00000405311584
30
0
40
1.5999999999999936
210
0
220
0
230
1
0
CIRCLE
5
139
100
AcDbEntity
8
0
100
AcDbCircle
10
81.000000834465027
20
-262.00000390410423
30
0
40
1.6000000000000032
210
0
220
0
230
1
0
CIRCLE
5
140
100
AcDbEntity
8
0
100
AcDbCircle
10
77.500000774860382
20
-267.00000397861004
30
0
40
1.5000000000000071
210
0
220
0
230
1
0
CIRCLE
5
141
100
AcDbEntity
8
0
100
AcDbCircle
10
88.500000938773155
20
-267.00000397861004
30
0
40
1.5000000000000036
210
0
220
0
230
1
0
CIRCLE
5
142
100
AcDbEntity
8
0
100
AcDbCircle
10
96.000001057982445
20
-262.00000390410423
30
0
40
1.600000000000007
210
0
220
0
230
1
0
CIRCLE
5
143
100
AcDbEntity
8
0
100
AcDbCircle
10
30.000000000000007
20
-260.00000387430191
30
0
40
1.5000000000000113
210
0
220
0
230
1
0
CIRCLE
5
144
100
AcDbEntity
8
0
100
AcDbCircle
10
-29.999999999999993
20
-260.00000387430191
30
0
40
1.5000000000000113
210
0
220
0
230
1
0
CIRCLE
5
145
100
AcDbEntity
8
0
100
AcDbCircle
10
-9.9999999999999911
20
-260.00000387430191
30
0
40
1.5000000000000113
210
0
220
0
230
1
0
CIRCLE
5
146
100
AcDbEntity
8
0
100
AcDbCircle
10
-91.000000938773155
20
-299.00000397861004
30
0
40
1.6000000000000003
210
0
220
0
230
1
0
CIRCLE
5
147
100
AcDbEntity
8
0
100
AcDbCircle
10
-80.000000774860382
20
-299.00000397861004
30
0
40
1.6000000000000003
210
0
220
0
230
1
0
CIRCLE
5
148
100
AcDbEntity
8
0
100
AcDbCircle
10
-80.000000774860382
20
-310.00000414252281
30
0
40
1.6000000000000003
210
0
220
0
230
1
0
LINE
5
149
100
AcDbEntity
8
0
100
AcDbLine
10
-96.500000610947595
20
-299.10000454485413
30
0
11
-96.500000610947595
21
-298.900003412366
31
0
0
LINE
5
150
100
AcDbEntity
8
0
100
AcDbLine
10
-91.000000610947609
20
-293.40000341236595
30
0
11
-85.500001266598701
21
-293.40000341236595
31
0
0
LINE
5
151
100
AcDbEntity
8
0
100
AcDbLine
10
-74.500000283122048
20
-304.60000454485419
30
0
11
-74.500000283122048
21
-298.90000341236595
31
0
0
LINE
5
152
100
AcDbEntity
8
0
100
AcDbLine
10
-80.000000283122063
20
-293.40000341236595
30
0
11
-85.500001266598701
21
-293.40000341236595
31
0
0
LINE
5
153
100
AcDbEntity
8
0
100
AcDbLine
10
-74.500000283122048
20
-304.60000454485419
30
0
11
-74.500000283122063
21
-309.90000374019144
31
0
0
LINE
5
154
100
AcDbEntity
8
0
100
AcDbLine
10
-85.500001266598687
20
-309.90000374019144
30
0
11
-85.500001266598701
21
-310.10000454485413
31
0
0
ARC
5
155
100
AcDbEntity
8
0
100
AcDbCircle
10
-91.000000610947595
20
-298.90000341236595
30
0
40
5.5000000000000071
210
0
220
0
230
1
100
AcDbArc
50
90.000000000000142
51
180
0
ARC
5
156
100
AcDbEntity
8
0
100
AcDbCircle
10
-80.000000283122034
20
-298.90000341236595
30
0
40
5.4999999999999893
210
0
220
0
230
1
100
AcDbArc
50
0
51
90.000000000000313
0
ARC
5
157
100
AcDbEntity
8
0
100
AcDbCircle
10
-80.000000283122034
20
-309.90000374019155
30
0
40
5.4999999999999716
210
0
220
0
230
1
100
AcDbArc
50
-90.000000000000313
51
0
0
ARC
5
158
100
AcDbEntity
8
0
100
AcDbCircle
10
-80.000001266598687
20
-309.90000374019149
30
0
40
5.5000000000000071
210
0
220
0
230
1
100
AcDbArc
50
180
51
269.99999999999983
0
ARC
5
159
100
AcDbEntity
8
0
100
AcDbCircle
10
-91.000000610947595
20
-299.10000454485419
30
0
40
5.5000000000000071
210
0
220
0
230
1
100
AcDbArc
50
180
51
269.99999999999983
0
ARC
5
160
100
AcDbEntity
8
0
100
AcDbCircle
10
-91.000001266598758
20
-310.10000454485419
30
0
40
5.5000000000000426
210
0
220
-0
230
1
100
AcDbArc
50
0
51
89.999999999999545
0
ARC
5
161
100
AcDbEntity
8
0
100
AcDbCircle
10
-60.00000081956388
20
-309.90000374019149
30
0
40
5.5000000000000071
210
0
220
0
230
1
100
AcDbArc
50
-89.999999999999844
51
0
0
LINE
5
162
100
AcDbEntity
8
0
100
AcDbLine
10
-60.000001803040504
20
-293.40000341236595
30
0
11
-54.500000819563859
21
-293.40000341236595
31
0
0
LINE
5
163
100
AcDbEntity
8
0
100
AcDbLine
10
-43.500001475214972
20
-299.10000454485413
30
0
11
-43.500001475214972
21
-298.900003412366
31
0
0
ARC
5
164
100
AcDbEntity
8
0
100
AcDbCircle
10
-49.000001475214972
20
-298.90000341236595
30
0
40
5.5000000000000071
210
0
220
0
230
1
100
AcDbArc
50
0
51
89.999999999999858
0
LINE
5
165
100
AcDbEntity
8
0
100
AcDbLine
10
-54.50000081956388
20
-309.90000374019144
30
0
11
-54.500000819563859
21
-310.10000454485413
31
0
0
CIRCLE
5
166
100
AcDbEntity
8
0
100
AcDbCircle
10
-49.000001147389405
20
-299.00000397861004
30
0
40
1.6000000000000003
210
0
220
0
230
1
0
ARC
5
167
100
AcDbEntity
8
0
100
AcDbCircle
10
-60.000001803040526
20
-309.90000374019155
30
0
40
5.4999999999999716
210
0
220
0
230
1
100
AcDbArc
50
180
51
270.00000000000023
0
LINE
5
168
100
AcDbEntity
8
0
100
AcDbLine
10
-65.500001803040519
20
-304.60000454485419
30
0
11
-65.500001803040519
21
-298.90000341236595
31
0
0
ARC
5
169
100
AcDbEntity
8
0
100
AcDbCircle
10
-49.000001475214972
20
-299.10000454485419
30
0
40
5.5000000000000071
210
0
220
0
230
1
100
AcDbArc
50
-89.999999999999844
51
0
0
ARC
5
170
100
AcDbEntity
8
0
100
AcDbCircle
10
-60.000001803040526
20
-298.90000341236595
30
0
40
5.4999999999999716
210
0
220
-0
230
1
100
AcDbArc
50
89.999999999999787
51
180
0
ARC
5
171
100
AcDbEntity
8
0
100
AcDbCircle
10
-49.000000819563816
20
-310.10000454485419
30
0
40
5.5000000000000426
210
0
220
0
230
1
100
AcDbArc
50
90.000000000000369
51
180
0
CIRCLE
5
172
100
AcDbEntity
8
0
100
AcDbCircle
10
-60.000001311302178
20
-310.00000414252281
30
0
40
1.6000000000000003
210
0
220
0
230
1
0
CIRCLE
5
173
100
AcDbEntity
8
0
100
AcDbCircle
10
-60.000001311302178
20
-299.00000397861004
30
0
40
1.6000000000000003
210
0
220
0
230
1
0
LINE
5
174
100
AcDbEntity
8
0
100
AcDbLine
10
-49.000001475214958
20
-293.40000341236595
30
0
11
-54.500000819563859
21
-293.40000341236595
31
0
0
LINE
5
175
100
AcDbEntity
8
0
100
AcDbLine
10
-65.500001803040519
20
-304.60000454485419
30
0
11
-65.500001803040504
21
-309.90000374019144
31
0
0
CIRCLE
5
176
100
AcDbEntity
8
0
100
AcDbCircle
10
-88.500002533197403
20
-20.000003725290298
30
0
40
1.4999999999999858
210
0
220
0
230
1
0
CIRCLE
5
177
100
AcDbEntity
8
0
100
AcDbCircle
10
-88.500002533197403
20
-40.000004023313522
30
0
40
1.50000000000001
210
0
220
0
230
1
0
CIRCLE
5
178
100
AcDbEntity
8
0
100
AcDbCircle
10
-88.500002533197403
20
-4.0233135223388672e-06
30
0
40
1.50000000000001
210
0
220
0
230
1
0
CIRCLE
5
179
100
AcDbEntity
8
0
100
AcDbCircle
10
-88.500002533197403
20
19.999996274709702
30
0
40
1.4999999999999858
210
0
220
0
230
1
0
CIRCLE
5
180
100
AcDbEntity
8
0
100
AcDbCircle
10
-88.500002533197403
20
59.999996274709702
30
0
40
1.4999999999999858
210
0
220
0
230
1
0
CIRCLE
5
181
100
AcDbEntity
8
0
100
AcDbCircle
10
-88.500002533197403
20
39.999995976686478
30
0
40
1.50000000000001
210
0
220
0
230
1
0
CIRCLE
5
182
100
AcDbEntity
8
0
100
AcDbCircle
10
-88.500002533197403
20
-120.00000402331352
30
0
40
1.50000000000001
210
0
220
0
230
1
0
CIRCLE
5
183
100
AcDbEntity
8
0
100
AcDbCircle
10
-88.500002533197403
20
-100.0000037252903
30
0
40
1.4999999999999858
210
0
220
0
230
1
0
CIRCLE
5
184
100
AcDbEntity
8
0
100
AcDbCircle
10
-88.500002533197403
20
-60.000003725290298
30
0
40
1.4999999999999858
210
0
220
0
230
1
0
CIRCLE
5
185
100
AcDbEntity
8
0
100
AcDbCircle
10
-88.500002533197403
20
-80.000004023313522
30
0
40
1.50000000000001
210
0
220
0
230
1
0
LWPOLYLINE
5
186
100
AcDbEntity
8
0
100
AcDbPolyline
90
8
70
1
43
0.0
10
-94.50000262260437
20
102.99999821186066
10
-82.500002443790436
20
102.99999821186066
10
-70.500002443790436
20
102.99999821186066
10
-70.500002443790436
20
71.065120745182128
10
-82.500002443790436
20
71.065120745182128
10
-82.500002443790436
20
102.99999821186066
10
-82.500002443790436
20
-143.0000055134297
10
-94.50000262260437
20
-143.0000055134297
0
CIRCLE
5
187
100
AcDbEntity
8
0
100
AcDbCircle
10
-88.500002533197403
20
-137.000005453825
30
0
40
1.5000000000000071
210
0
220
0
230
1
0
LINE
5
188
100
AcDbEntity
8
0
100
AcDbLine
10
-94.50000262260437
20
-131.00000537931919
30
0
11
-82.500002443790436
21
-131.00000537931919
31
0
0
LINE
5
189
100
AcDbEntity
8
0
100
AcDbLine
10
-94.50000262260437
20
70.99999763071537
30
0
11
-82.500002443790436
21
70.99999763071537
31
0
0
CIRCLE
5
190
100
AcDbEntity
8
0
100
AcDbCircle
10
-88.500002533197403
20
76.999997720122337
30
0
40
1.5000000000000071
210
0
220
0
230
1
0
CIRCLE
5
191
100
AcDbEntity
8
0
100
AcDbCircle
10
-88.500002533197403
20
96.999997720122337
30
0
40
1.5000000000000071
210
0
220
0
230
1
0
CIRCLE
5
192
100
AcDbEntity
8
0
100
AcDbCircle
10
88.499997466802611
20
96.999997720122337
30
0
40
1.5000000000000071
210
0
220
0
230
1
0
CIRCLE
5
193
100
AcDbEntity
8
0
100
AcDbCircle
10
88.499997466802611
20
39.999995976686478
30
0
40
1.50000000000001
210
0
220
0
230
1
0
CIRCLE
5
194
100
AcDbEntity
8
0
100
AcDbCircle
10
88.499997466802611
20
59.999996274709702
30
0
40
1.4999999999999858
210
0
220
0
230
1
0
CIRCLE
5
195
100
AcDbEntity
8
0
100
AcDbCircle
10
88.499997466802611
20
76.999997720122337
30
0
40
1.5000000000000071
210
0
220
0
230
1
0
CIRCLE
5
196
100
AcDbEntity
8
0
100
AcDbCircle
10
88.499997466802611
20
-80.000004023313522
30
0
40
1.50000000000001
210
0
220
0
230
1
0
CIRCLE
5
197
100
AcDbEntity
8
0
100
AcDbCircle
10
88.499997466802611
20
-40.000004023313522
30
0
40
1.50000000000001
210
0
220
0
230
1
0
CIRCLE
5
198
100
AcDbEntity
8
0
100
AcDbCircle
10
88.499997466802611
20
-20.000003725290298
30
0
40
1.4999999999999858
210
0
220
0
230
1
0
CIRCLE
5
199
100
AcDbEntity
8
0
100
AcDbCircle
10
88.499997466802611
20
-120.00000402331352
30
0
40
1.50000000000001
210
0
220
0
230
1
0
CIRCLE
5
200
100
AcDbEntity
8
0
100
AcDbCircle
10
88.499997466802611
20
-100.0000037252903
30
0
40
1.4999999999999858
210
0
220
0
230
1
0
LINE
5
201
100
AcDbEntity
8
0
100
AcDbLine
10
82.499997377395644
20
70.99999763071537
30
0
11
94.499997556209578
21
70.99999763071537
31
0
0
CIRCLE
5
202
100
AcDbEntity
8
0
100
AcDbCircle
10
88.499997466802611
20
-137.000005453825
30
0
40
1.5000000000000071
210
0
220
0
230
1
0
LWPOLYLINE
5
203
100
AcDbEntity
8
0
100
AcDbPolyline
90
4
70
1
43
0.0
10
94.499997556209578
20
-143.0000055134297
10
82.499997377395644
20
-143.0000055134297
10
82.499997377395644
20
102.99999821186066
10
94.499997556209578
20
102.99999821186066
0
CIRCLE
5
204
100
AcDbEntity
8
0
100
AcDbCircle
10
88.499997466802611
20
19.999996274709702
30
0
40
1.4999999999999858
210
0
220
0
230
1
0
CIRCLE
5
205
100
AcDbEntity
8
0
100
AcDbCircle
10
88.499997466802611
20
-4.0233135223388672e-06
30
0
40
1.50000000000001
210
0
220
0
230
1
0
LINE
5
206
100
AcDbEntity
8
0
100
AcDbLine
10
82.499997377395644
20
-131.00000537931919
30
0
11
94.499997556209578
21
-131.00000537931919
31
0
0
CIRCLE
5
207
100
AcDbEntity
8
0
100
AcDbCircle
10
88.499997466802611
20
-60.000003725290298
30
0
40
1.4999999999999858
210
0
220
0
230
1
0
LWPOLYLINE
5
208
100
AcDbEntity
8
0
100
AcDbPolyline
90
4
70
1
43
0.0
10
-82.000001221895218
20
143.0000015348196
10
82.000001221895218
20
143.0000015348196
10
82.000001221895218
20
111.00000105798244
10
-82.000001221895218
20
111.00000105798244
0
LINE
5
209
100
AcDbEntity
8
0
100
AcDbLine
10
-40.057608611111164
20
137.20004999999998
30
0
11
-37.057586388888907
21
137.20004999999998
31
0
0
SPLINE
5
210
100
AcDbEntity
8
0
100
AcDbSpline
70
0
71
3
72
10
73
6
74
0
42
0.000000001
43
0.0000000001
44
0.0000000001
40
0
40
0
40
0
40
0
40
1
40
1
40
2
40
2
40
2
40
2
10
-60.057603888888835
20
114.19999722222215
30
0
10
-59.339701111111076
20
114.19999722222215
30
0
10
-58.757617777777746
20
114.7820805555555
30
0
10
-58.757617777777746
20
116.21788611111108
30
0
10
-59.339701111111076
20
116.79996944444443
30
0
10
-60.057603888888835
20
116.79996944444443
30
0
0
SPLINE
5
211
100
AcDbEntity
8
0
100
AcDbSpline
70
0
71
3
72
10
73
6
74
0
42
0.000000001
43
0.0000000001
44
0.0000000001
40
0
40
0
40
0
40
0
40
1
40
1
40
2
40
2
40
2
40
2
10
-48.557612777777869
20
115.80002083333329
30
0
10
-42.372007222222258
20
115.80002083333329
30
0
10
-37.357623888888931
20
120.81440416666665
30
0
10
-37.357623888888931
20
133.18561527777771
30
0
10
-42.372007222222258
20
138.19999861111106
30
0
10
-48.557612777777869
20
138.19999861111106
30
0
0
SPLINE
5
212
100
AcDbEntity
8
0
100
AcDbSpline
70
0
71
3
72
10
73
6
74
0
42
0.000000001
43
0.0000000001
44
0.0000000001
40
0
40
0
40
0
40
0
40
1
40
1
40
2
40
2
40
2
40
2
10
-63.057626111111091
20
139.8000222222222
30
0
10
-63.775528888888921
20
139.8000222222222
30
0
10
-64.357612222222244
20
139.21793888888888
30
0
10
-64.357612222222244
20
137.78213333333332
30
0
10
-63.775528888888921
20
137.20004999999998
30
0
10
-63.057626111111091
20
137.20004999999998
30
0
0
SPLINE
5
213
100
AcDbEntity
8
0
100
AcDbSpline
70
0
71
3
72
10
73
6
74
0
42
0.000000001
43
0.0000000001
44
0.0000000001
40
3
40
3
40
3
40
3
40
4
40
4
40
5
40
5
40
5
40
5
10
-51.557635000000055
20
138.19999861111106
30
0
10
-57.743240555555559
20
138.19999861111106
30
0
10
-62.757623888888958
20
133.18561527777771
30
0
10
-62.757623888888958
20
120.81440416666665
30
0
10
-57.743240555555559
20
115.80002083333329
30
0
10
-51.557635000000055
20
115.80002083333329
30
0
0
LINE
5
214
100
AcDbEntity
8
0
100
AcDbLine
10
-63.057626111111091
20
114.19999722222215
30
0
11
-60.057603888888835
21
114.19999722222215
31
0
0
LINE
5
215
100
AcDbEntity
8
0
100
AcDbLine
10
-60.057603888888835
20
139.8000222222222
30
0
11
-63.057626111111091
21
139.8000222222222
31
0
0
LINE
5
216
100
AcDbEntity
8
0
100
AcDbLine
10
-37.057586388888907
20
139.8000222222222
30
0
11
-40.057608611111164
21
139.8000222222222
31
0
0
SPLINE
5
217
100
AcDbEntity
8
0
100
AcDbSpline
70
0
71
3
72
10
73
6
74
0
42
0.000000001
43
0.0000000001
44
0.0000000001
40
0
40
0
40
0
40
0
40
1
40
1
40
2
40
2
40
2
40
2
10
-40.057608611111164
20
139.8000222222222
30
0
10
-40.775511388888923
20
139.8000222222222
30
0
10
-41.357594722222217
20
139.21793888888888
30
0
10
-41.357594722222217
20
137.78213333333332
30
0
10
-40.775511388888923
20
137.20004999999998
30
0
10
-40.057608611111164
20
137.20004999999998
30
0
0
LINE
5
218
100
AcDbEntity
8
0
100
AcDbLine
10
-63.057626111111091
20
137.20004999999998
30
0
11
-60.057603888888835
21
137.20004999999998
31
0
0
SPLINE
5
219
100
AcDbEntity
8
0
100
AcDbSpline
70
0
71
3
72
10
73
6
74
0
42
0.000000001
43
0.0000000001
44
0.0000000001
40
3
40
3
40
3
40
3
40
4
40
4
40
5
40
5
40
5
40
5
10
-37.057586388888907
20
114.20003249999993
30
0
10
-36.339683611111184
20
114.20003249999993
30
0
10
-35.757600277777783
20
114.78211583333334
30
0
10
-35.757600277777783
20
116.21792138888885
30
0
10
-36.339683611111184
20
116.80000472222221
30
0
10
-37.057586388888907
20
116.80000472222221
30
0
0
LINE
5
220
100
AcDbEntity
8
0
100
AcDbLine
10
-51.557635000000055
20
115.80002083333329
30
0
11
-48.557612777777869
21
115.80002083333329
31
0
0
LINE
5
221
100
AcDbEntity
8
0
100
AcDbLine
10
-60.057603888888835
20
116.79996944444443
30
0
11
-63.057626111111091
21
116.79996944444443
31
0
0
SPLINE
5
222
100
AcDbEntity
8
0
100
AcDbSpline
70
0
71
3
72
10
73
6
74
0
42
0.000000001
43
0.0000000001
44
0.0000000001
40
3
40
3
40
3
40
3
40
4
40
4
40
5
40
5
40
5
40
5
10
-37.057586388888907
20
137.20004999999998
30
0
10
-36.339683611111184
20
137.20004999999998
30
0
10
-35.757600277777783
20
137.78213333333332
30
0
10
-35.757600277777783
20
139.21793888888888
30
0
10
-36.339683611111184
20
139.8000222222222
30
0
10
-37.057586388888907
20
139.8000222222222
30
0
0
LINE
5
223
100
AcDbEntity
8
0
100
AcDbLine
10
-40.057608611111164
20
114.20003249999993
30
0
11
-37.057586388888907
21
114.20003249999993
31
0
0
LINE
5
224
100
AcDbEntity
8
0
100
AcDbLine
10
-37.057586388888907
20
116.80000472222221
30
0
11
-40.057608611111164
21
116.80000472222221
31
0
0
SPLINE
5
225
100
AcDbEntity
8
0
100
AcDbSpline
70
0
71
3
72
10
73
6
74
0
42
0.000000001
43
0.0000000001
44
0.0000000001
40
0
40
0
40
0
40
0
40
1
40
1
40
2
40
2
40
2
40
2
10
-40.057608611111164
20
116.80000472222221
30
0
10
-40.775511388888923
20
116.80000472222221
30
0
10
-41.357594722222217
20
116.21792138888885
30
0
10
-41.357594722222217
20
114.78211583333334
30
0
10
-40.775511388888923
20
114.20003249999993
30
0
10
-40.057608611111164
20
114.20003249999993
30
0
0
LINE
5
226
100
AcDbEntity
8
0
100
AcDbLine
10
-48.557612777777869
20
138.19999861111106
30
0
11
-51.557635000000055
21
138.19999861111106
31
0
0
SPLINE
5
227
100
AcDbEntity
8
0
100
AcDbSpline
70
0
71
3
72
10
73
6
74
0
42
0.000000001
43
0.0000000001
44
0.0000000001
40
3
40
3
40
3
40
3
40
4
40
4
40
5
40
5
40
5
40
5
10
-60.057603888888835
20
137.20004999999998
30
0
10
-59.339701111111076
20
137.20004999999998
30
0
10
-58.757617777777746
20
137.78213333333332
30
0
10
-58.757617777777746
20
139.21793888888888
30
0
10
-59.339701111111076
20
139.8000222222222
30
0
10
-60.057603888888835
20
139.8000222222222
30
0
0
SPLINE
5
228
100
AcDbEntity
8
0
100
AcDbSpline
70
0
71
3
72
10
73
6
74
0
42
0.000000001
43
0.0000000001
44
0.0000000001
40
3
40
3
40
3
40
3
40
4
40
4
40
5
40
5
40
5
40
5
10
-63.057626111111091
20
116.79996944444443
30
0
10
-63.77552888888885
20
116.79996944444443
30
0
10
-64.357612222222244
20
116.21788611111108
30
0
10
-64.357612222222244
20
114.7820805555555
30
0
10
-63.77552888888885
20
114.19999722222215
30
0
10
-63.057626111111091
20
114.19999722222215
30
0
0
LINE
5
229
100
AcDbEntity
8
0
100
AcDbLine
10
60.057603888888835
20
139.8000222222222
30
0
11
63.057626111111091
21
139.8000222222222
31
0
0
SPLINE
5
230
100
AcDbEntity
8
0
100
AcDbSpline
70
0
71
3
72
10
73
6
74
0
42
0.000000001
43
0.0000000001
44
0.0000000001
40
0
40
0
40
0
40
0
40
1
40
1
40
2
40
2
40
2
40
2
10
63.057626111111091
20
139.8000222222222
30
0
10
63.775528888888921
20
139.8000222222222
30
0
10
64.357612222222244
20
139.21793888888888
30
0
10
64.357612222222244
20
137.78213333333332
30
0
10
63.775528888888921
20
137.20004999999998
30
0
10
63.057626111111091
20
137.20004999999998
30
0
0
LINE
5
231
100
AcDbEntity
8
0
100
AcDbLine
10
60.057603888888835
20
116.79996944444443
30
0
11
63.057626111111091
21
116.79996944444443
31
0
0
SPLINE
5
232
100
AcDbEntity
8
0
100
AcDbSpline
70
0
71
3
72
10
73
6
74
0
42
0.000000001
43
0.0000000001
44
0.0000000001
40
0
40
0
40
0
40
0
40
1
40
1
40
2
40
2
40
2
40
2
10
48.557612777777869
20
115.80002083333329
30
0
10
42.372007222222258
20
115.80002083333329
30
0
10
37.357623888888931
20
120.81440416666665
30
0
10
37.357623888888931
20
133.18561527777771
30
0
10
42.372007222222258
20
138.19999861111106
30
0
10
48.557612777777869
20
138.19999861111106
30
0
0
SPLINE
5
233
100
AcDbEntity
8
0
100
AcDbSpline
70
0
71
3
72
10
73
6
74
0
42
0.000000001
43
0.0000000001
44
0.0000000001
40
0
40
0
40
0
40
0
40
1
40
1
40
2
40
2
40
2
40
2
10
60.057603888888835
20
114.19999722222215
30
0
10
59.339701111111076
20
114.19999722222215
30
0
10
58.757617777777746
20
114.7820805555555
30
0
10
58.757617777777746
20
116.21788611111108
30
0
10
59.339701111111076
20
116.79996944444443
30
0
10
60.057603888888835
20
116.79996944444443
30
0
0
SPLINE
5
234
100
AcDbEntity
8
0
100
AcDbSpline
70
0
71
3
72
10
73
6
74
0
42
0.000000001
43
0.0000000001
44
0.0000000001
40
3
40
3
40
3
40
3
40
4
40
4
40
5
40
5
40
5
40
5
10
60.057603888888835
20
137.20004999999998
30
0
10
59.339701111111076
20
137.20004999999998
30
0
10
58.757617777777746
20
137.78213333333332
30
0
10
58.757617777777746
20
139.21793888888888
30
0
10
59.339701111111076
20
139.8000222222222
30
0
10
60.057603888888835
20
139.8000222222222
30
0
0
LINE
5
235
100
AcDbEntity
8
0
100
AcDbLine
10
51.557635000000055
20
115.80002083333329
30
0
11
48.557612777777869
21
115.80002083333329
31
0
0
LINE
5
236
100
AcDbEntity
8
0
100
AcDbLine
10
37.057586388888907
20
116.80000472222221
30
0
11
40.057608611111164
21
116.80000472222221
31
0
0
SPLINE
5
237
100
AcDbEntity
8
0
100
AcDbSpline
70
0
71
3
72
10
73
6
74
0
42
0.000000001
43
0.0000000001
44
0.0000000001
40
0
40
0
40
0
40
0
40
1
40
1
40
2
40
2
40
2
40
2
10
40.057608611111164
20
116.80000472222221
30
0
10
40.775511388888923
20
116.80000472222221
30
0
10
41.357594722222217
20
116.21792138888885
30
0
10
41.357594722222217
20
114.78211583333334
30
0
10
40.775511388888923
20
114.20003249999993
30
0
10
40.057608611111164
20
114.20003249999993
30
0
0
LINE
5
238
100
AcDbEntity
8
0
100
AcDbLine
10
40.057608611111164
20
114.20003249999993
30
0
11
37.057586388888907
21
114.20003249999993
31
0
0
LINE
5
239
100
AcDbEntity
8
0
100
AcDbLine
10
63.057626111111091
20
137.20004999999998
30
0
11
60.057603888888835
21
137.20004999999998
31
0
0
LINE
5
240
100
AcDbEntity
8
0
100
AcDbLine
10
37.057586388888907
20
139.8000222222222
30
0
11
40.057608611111164
21
139.8000222222222
31
0
0
LINE
5
241
100
AcDbEntity
8
0
100
AcDbLine
10
63.057626111111091
20
114.19999722222215
30
0
11
60.057603888888835
21
114.19999722222215
31
0
0
SPLINE
5
242
100
AcDbEntity
8
0
100
AcDbSpline
70
0
71
3
72
10
73
6
74
0
42
0.000000001
43
0.0000000001
44
0.0000000001
40
3
40
3
40
3
40
3
40
4
40
4
40
5
40
5
40
5
40
5
10
63.057626111111091
20
116.79996944444443
30
0
10
63.77552888888885
20
116.79996944444443
30
0
10
64.357612222222244
20
116.21788611111108
30
0
10
64.357612222222244
20
114.7820805555555
30
0
10
63.77552888888885
20
114.19999722222215
30
0
10
63.057626111111091
20
114.19999722222215
30
0
0
SPLINE
5
243
100
AcDbEntity
8
0
100
AcDbSpline
70
0
71
3
72
10
73
6
74
0
42
0.000000001
43
0.0000000001
44
0.0000000001
40
3
40
3
40
3
40
3
40
4
40
4
40
5
40
5
40
5
40
5
10
51.557635000000055
20
138.19999861111106
30
0
10
57.743240555555559
20
138.19999861111106
30
0
10
62.757623888888958
20
133.18561527777771
30
0
10
62.757623888888958
20
120.81440416666665
30
0
10
57.743240555555559
20
115.80002083333329
30
0
10
51.557635000000055
20
115.80002083333329
30
0
0
SPLINE
5
244
100
AcDbEntity
8
0
100
AcDbSpline
70
0
71
3
72
10
73
6
74
0
42
0.000000001
43
0.0000000001
44
0.0000000001
40
3
40
3
40
3
40
3
40
4
40
4
40
5
40
5
40
5
40
5
10
37.057586388888907
20
114.20003249999993
30
0
10
36.339683611111184
20
114.20003249999993
30
0
10
35.757600277777783
20
114.78211583333334
30
0
10
35.757600277777783
20
116.21792138888885
30
0
10
36.339683611111184
20
116.80000472222221
30
0
10
37.057586388888907
20
116.80000472222221
30
0
0
SPLINE
5
245
100
AcDbEntity
8
0
100
AcDbSpline
70
0
71
3
72
10
73
6
74
0
42
0.000000001
43
0.0000000001
44
0.0000000001
40
3
40
3
40
3
40
3
40
4
40
4
40
5
40
5
40
5
40
5
10
37.057586388888907
20
137.20004999999998
30
0
10
36.339683611111184
20
137.20004999999998
30
0
10
35.757600277777783
20
137.78213333333332
30
0
10
35.757600277777783
20
139.21793888888888
30
0
10
36.339683611111184
20
139.8000222222222
30
0
10
37.057586388888907
20
139.8000222222222
30
0
0
LINE
5
246
100
AcDbEntity
8
0
100
AcDbLine
10
40.057608611111164
20
137.20004999999998
30
0
11
37.057586388888907
21
137.20004999999998
31
0
0
LINE
5
247
100
AcDbEntity
8
0
100
AcDbLine
10
48.557612777777869
20
138.19999861111106
30
0
11
51.557635000000055
21
138.19999861111106
31
0
0
SPLINE
5
248
100
AcDbEntity
8
0
100
AcDbSpline
70
0
71
3
72
10
73
6
74
0
42
0.000000001
43
0.0000000001
44
0.0000000001
40
0
40
0
40
0
40
0
40
1
40
1
40
2
40
2
40
2
40
2
10
40.057608611111164
20
139.8000222222222
30
0
10
40.775511388888923
20
139.8000222222222
30
0
10
41.357594722222217
20
139.21793888888888
30
0
10
41.357594722222217
20
137.78213333333332
30
0
10
40.775511388888923
20
137.20004999999998
30
0
10
40.057608611111164
20
137.20004999999998
30
0
0
LINE
5
249
100
AcDbEntity
8
0
100
AcDbLine
10
-70.000001043081284
20
143.0000015348196
30
0
11
-70.000001043081284
21
111.00000105798244
31
0
0
LINE
5
250
100
AcDbEntity
8
0
100
AcDbLine
10
70.000001043081284
20
111.00000105798244
30
0
11
70.000001043081284
21
143.0000015348196
31
0
0
CIRCLE
5
251
100
AcDbEntity
8
0
100
AcDbCircle
10
-76.000001132488251
20
137.00000144541264
30
0
40
1.5999999999999956
210
0
220
0
230
1
0
CIRCLE
5
252
100
AcDbEntity
8
0
100
AcDbCircle
10
-76.000001132488251
20
117.00000114738941
30
0
40
1.5999999999999943
210
0
220
0
230
1
0
CIRCLE
5
253
100
AcDbEntity
8
0
100
AcDbCircle
10
-76.000001132488251
20
127.00000129640102
30
0
40
1.6000000000000014
210
0
220
0
230
1
0
CIRCLE
5
254
100
AcDbEntity
8
0
100
AcDbCircle
10
76.000001132488251
20
137.00000144541264
30
0
40
1.5999999999999956
210
0
220
0
230
1
0
CIRCLE
5
255
100
AcDbEntity
8
0
100
AcDbCircle
10
76.000001132488251
20
117.00000114738941
30
0
40
1.5999999999999943
210
0
220
0
230
1
0
CIRCLE
5
256
100
AcDbEntity
8
0
100
AcDbCircle
10
76.000001132488251
20
127.00000129640102
30
0
40
1.6000000000000014
210
0
220
0
230
1
0
CIRCLE
5
257
100
AcDbEntity
8
0
100
AcDbCircle
10
-76.000001132488251
20
97.000001445412636
30
0
40
1.5000000000000013
210
0
220
0
230
1
0
CIRCLE
5
258
100
AcDbEntity
8
0
100
AcDbCircle
10
-76.000001132488251
20
77.000001147389412
30
0
40
1.5000000000000013
210
0
220
0
230
1
0
CIRCLE
5
259
100
AcDbEntity
8
0
100
AcDbCircle
10
-76.000001132488251
20
87.000001296401024
30
0
40
1.4999999999999993
210
0
220
0
230
1
0
CIRCLE
5
260
100
AcDbEntity
8
0
100
AcDbCircle
10
76.000001132488251
20
97.000001445412636
30
0
40
1.5000000000000013
210
0
220
0
230
1
0
CIRCLE
5
261
100
AcDbEntity
8
0
100
AcDbCircle
10
76.000001132488251
20
87.000001296401024
30
0
40
1.4999999999999993
210
0
220
0
230
1
0
CIRCLE
5
262
100
AcDbEntity
8
0
100
AcDbCircle
10
76.000001132488251
20
77.000001147389412
30
0
40
1.5000000000000013
210
0
220
0
230
1
0
LINE
5
263
100
AcDbEntity
8
0
100
AcDbLine
10
82.500002443790436
20
102.99999821186066
30
0
11
70.500002443790436
21
102.99999821186066
31
0
0
LINE
5
264
100
AcDbEntity
8
0
100
AcDbLine
10
70.500002443790436
20
102.99999821186066
30
0
11
70.500002443790436
21
71.065120745182128
31
0
0
LINE
5
265
100
AcDbEntity
8
0
100
AcDbLine
10
70.500002443790436
20
71.065120745182128
30
0
11
82.500002443790436
21
71.065120745182128
31
0
0
CIRCLE
5
266
100
AcDbEntity
8
0
100
AcDbCircle
10
-211.5000025331974
20
96.999997720122337
30
0
40
1.6000000000000003
210
0
220
0
230
1
0
CIRCLE
5
267
100
AcDbEntity
8
0
100
AcDbCircle
10
-211.5000025331974
20
-137.000005453825
30
0
40
1.6000000000000003
210
0
220
0
230
1
0
LINE
5
268
100
AcDbEntity
8
0
100
AcDbLine
10
-205.50000244379044
20
102.99999821186066
30
0
11
-205.50000244379044
21
-140.00000149011603
31
0
0
CIRCLE
5
269
100
AcDbEntity
8
0
100
AcDbCircle
10
-388.5000025331974
20
-137.000005453825
30
0
40
1.6000000000000003
210
0
220
0
230
1
0
CIRCLE
5
270
100
AcDbEntity
8
0
100
AcDbCircle
10
-211.5000025331974
20
-100.0000037252903
30
0
40
1.6000000000000003
210
0
220
0
230
1
0
LINE
5
271
100
AcDbEntity
8
0
100
AcDbLine
10
-382.50000244379044
20
-143.0000055134297
30
0
11
-391.50000247359276
21
-143.0000055134297
31
0
0
CIRCLE
5
272
100
AcDbEntity
8
0
100
AcDbCircle
10
-211.5000025331974
20
76.999997720122337
30
0
40
1.6000000000000003
210
0
220
0
230
1
0
LINE
5
273
100
AcDbEntity
8
0
100
AcDbLine
10
-394.50000262260437
20
-140.00000536441797
30
0
11
-394.50000262260437
21
102.99999821186066
31
0
0
CIRCLE
5
274
100
AcDbEntity
8
0
100
AcDbCircle
10
-388.5000025331974
20
-100.0000037252903
30
0
40
1.6000000000000003
210
0
220
0
230
1
0
LINE
5
275
100
AcDbEntity
8
0
100
AcDbLine
10
-208.50000646710407
20
-143.0000055134297
30
0
11
-217.50000262260437
21
-143.0000055134297
31
0
0
CIRCLE
5
276
100
AcDbEntity
8
0
100
AcDbCircle
10
-388.5000025331974
20
76.999997720122337
30
0
40
1.6000000000000003
210
0
220
0
230
1
0
CIRCLE
5
277
100
AcDbEntity
8
0
100
AcDbCircle
10
-388.5000025331974
20
96.999997720122337
30
0
40
1.6000000000000003
210
0
220
0
230
1
0
LINE
5
278
100
AcDbEntity
8
0
100
AcDbLine
10
-382.50000244379044
20
-143.0000055134297
30
0
11
-217.50000262260437
21
-143.0000055134297
31
0
0
CIRCLE
5
279
100
AcDbEntity
8
0
100
AcDbCircle
10
-418.5000025331974
20
76.999997720122337
30
0
40
1.6000000000000003
210
0
220
0
230
1
0
LWPOLYLINE
5
280
100
AcDbEntity
8
0
100
AcDbPolyline
90
5
70
1
43
0.0
10
-424.50000262260437
20
70.99999763071537
10
-412.50000244379044
20
70.99999763071537
10
-412.50000244379044
20
102.99999821186066
10
-421.50000964105118
20
102.99999821186066
10
-424.5000062237184
20
100.00000162919362
0
CIRCLE
5
281
100
AcDbEntity
8
0
100
AcDbCircle
10
-418.5000025331974
20
96.999997720122337
30
0
40
1.6000000000000003
210
0
220
0
230
1
0
LWPOLYLINE
5
282
100
AcDbEntity
8
0
100
AcDbPolyline
90
5
70
1
43
0.0
10
-412.50000244379044
20
-143.0000055134297
10
-420.5000024735927
20
-143.0000055134297
10
-424.50000262260437
20
-139.00000536441794
10
-424.50000262260437
20
-90.000001341104507
10
-412.50000244379044
20
-90.000001341104507
0
CIRCLE
5
283
100
AcDbEntity
8
0
100
AcDbCircle
10
-418.5000025331974
20
-137.000005453825
30
0
40
1.6000000000000003
210
0
220
0
230
1
0
CIRCLE
5
284
100
AcDbEntity
8
0
100
AcDbCircle
10
-418.5000025331974
20
-100.0000037252903
30
0
40
1.6000000000000003
210
0
220
0
230
1
0
LINE
5
285
100
AcDbEntity
8
0
100
AcDbLine
10
-394.50000262260437
20
-140.00000536441797
30
0
11
-391.50000247359276
21
-143.0000055134297
31
0
0
LINE
5
286
100
AcDbEntity
8
0
100
AcDbLine
10
-205.50000244379044
20
-140.00000149011603
30
0
11
-208.50000646710407
21
-143.0000055134297
31
0
0
LWPOLYLINE
5
287
100
AcDbEntity
8
0
100
AcDbPolyline
90
5
70
1
43
0.0
10
-435.50000659128023
20
100.00000162919355
10
-435.50001019239426
20
70.99999763071537
10
-447.50001037120819
20
70.99999763071537
10
-447.50001037120819
20
102.99999821186066
10
-438.50000317394733
20
102.99999821186066
0
CIRCLE
5
288
100
AcDbEntity
8
0
100
AcDbCircle
10
-441.50001028180122
20
-137.000005453825
30
0
40
1.6000000000000003
210
0
220
0
230
1
0
CIRCLE
5
289
100
AcDbEntity
8
0
100
AcDbCircle
10
-441.50001028180122
20
-100.0000037252903
30
0
40
1.6000000000000003
210
0
220
0
230
1
0
CIRCLE
5
290
100
AcDbEntity
8
0
100
AcDbCircle
10
-441.50001028180122
20
76.999997720122337
30
0
40
1.6000000000000003
210
0
220
0
230
1
0
LWPOLYLINE
5
291
100
AcDbEntity
8
0
100
AcDbPolyline
90
5
70
1
43
0.0
10
-447.50001037120819
20
-143.0000055134297
10
-438.50001034140598
20
-143.0000055134297
10
-435.50001019239426
20
-140.00000536441803
10
-435.50001019239426
20
-90.000001341104507
10
-447.50001037120819
20
-90.000001341104507
0
CIRCLE
5
292
100
AcDbEntity
8
0
100
AcDbCircle
10
-441.50001028180122
20
96.999997720122337
30
0
40
1.6000000000000003
210
0
220
0
230
1
0
CIRCLE
5
293
100
AcDbEntity
8
0
100
AcDbCircle
10
-418.5000025331974
20
96.999997720122337
30
0
40
2.9999999999999831
210
0
220
0
230
1
0
CIRCLE
5
294
100
AcDbEntity
8
0
100
AcDbCircle
10
-418.5000025331974
20
76.999997720122337
30
0
40
3.0000000000000049
210
0
220
0
230
1
0
CIRCLE
5
295
100
AcDbEntity
8
0
100
AcDbCircle
10
-441.50001028180122
20
96.999997720122337
30
0
40
2.9999999999999822
210
0
220
0
230
1
0
CIRCLE
5
296
100
AcDbEntity
8
0
100
AcDbCircle
10
-441.50001028180122
20
76.999997720122337
30
0
40
2.9999999999999831
210
0
220
0
230
1
0
CIRCLE
5
297
100
AcDbEntity
8
0
100
AcDbCircle
10
-418.5000025331974
20
-100.0000037252903
30
0
40
3.0000000000000053
210
0
220
0
230
1
0
CIRCLE
5
298
100
AcDbEntity
8
0
100
AcDbCircle
10
-418.5000025331974
20
-137.000005453825
30
0
40
2.999999999999996
210
0
220
0
230
1
0
CIRCLE
5
299
100
AcDbEntity
8
0
100
AcDbCircle
10
-441.50001028180122
20
-100.0000037252903
30
0
40
3.0000000000000004
210
0
220
0
230
1
0
CIRCLE
5
300
100
AcDbEntity
8
0
100
AcDbCircle
10
-441.50001028180122
20
-137.000005453825
30
0
40
2.9999999999999978
210
0
220
0
230
1
0
CIRCLE
5
301
100
AcDbEntity
8
0
100
AcDbCircle
10
-324.5
20
292
30
0
40
1.3999999999999999
210
0
220
0
230
1
0
CIRCLE
5
302
100
AcDbEntity
8
0
100
AcDbCircle
10
-275.50000000000006
20
292
30
0
40
1.3999999999999999
210
0
220
0
230
1
0
CIRCLE
5
303
100
AcDbEntity
8
0
100
AcDbCircle
10
-275.50000000000006
20
350
30
0
40
1.3999999999999999
210
0
220
0
230
1
0
CIRCLE
5
304
100
AcDbEntity
8
0
100
AcDbCircle
10
-324.5
20
350
30
0
40
1.3999999999999999
210
0
220
0
230
1
0
CIRCLE
5
305
100
AcDbEntity
8
0
100
AcDbCircle
10
-360.99996690005969
20
219.75176522501229
30
0
40
1.4000000000000032
210
0
220
0
230
1
0
CIRCLE
5
306
100
AcDbEntity
8
0
100
AcDbCircle
10
-306.00000948391818
20
219.82020660593292
30
0
40
1.4000000000000057
210
0
220
0
230
1
0
CIRCLE
5
307
100
AcDbEntity
8
0
100
AcDbCircle
10
-364.00000447034836
20
170.84369048702186
30
0
40
1.4000000000000057
210
0
220
0
230
1
0
CIRCLE
5
308
100
AcDbEntity
8
0
100
AcDbCircle
10
-306.00000447034836
20
170.84369048702195
30
0
40
1.3999999999999697
210
0
220
0
230
1
0
CIRCLE
5
309
100
AcDbEntity
8
0
100
AcDbCircle
10
-236.00000342726705
20
219.84369048702183
30
0
40
1.4000000000000032
210
0
220
0
230
1
0
CIRCLE
5
310
100
AcDbEntity
8
0
100
AcDbCircle
10
-236.00000342726705
20
170.84369048702186
30
0
40
1.4000000000000057
210
0
220
0
230
1
0
CIRCLE
5
311
100
AcDbEntity
8
0
100
AcDbCircle
10
-294.00000342726707
20
170.84369048702195
30
0
40
1.3999999999999697
210
0
220
0
230
1
0
CIRCLE
5
312
100
AcDbEntity
8
0
100
AcDbCircle
10
-294.00000342726707
20
219.84369048702183
30
0
40
1.4000000000000057
210
0
220
0
230
1
0
LWPOLYLINE
5
313
100
AcDbEntity
8
0
100
AcDbPolyline
90
56
70
1
43
0.0
10
-394.50000447034836
20
162.50000216066832
10
-394.50000447034836
20
227.50000216066832
10
-205.50000447034833
20
227.50000216066834
10
-205.50000447034833
20
162.50000216066834
10
-218.40000447034836
20
162.50000216066832
10
-218.40000447034836
20
165.75000248849392
10
-217.30000447034837
20
165.75000248849392
10
-217.30000447034837
20
168.25000248849392
10
-218.40000447034836
20
168.25000248849392
10
-218.40000447034836
20
170.50000281631952
10
-221.60000447034835
20
170.50000281631952
10
-221.60000447034835
20
168.25000248849392
10
-222.70000447034835
20
168.25000248849389
10
-222.70000447034835
20
165.75000248849389
10
-221.60000447034835
20
165.75000248849392
10
-221.60000447034835
20
162.50000216066832
10
-230.00000551342964
20
162.50000216066832
10
-230.00000551342964
20
160.00000238418579
10
-250.00000551342964
20
160.00000238418579
10
-250.00000551342964
20
162.50000216066832
10
-270.00000551342964
20
162.50000216066832
10
-270.00000551342964
20
160.00000238418579
10
-290.00000551342964
20
160.00000238418579
10
-290.00000551342964
20
162.50000216066832
10
-298.40000447034834
20
162.50000216066832
10
-298.40000447034834
20
165.75000248849392
10
-297.30000447034837
20
165.75000248849392
10
-297.30000447034837
20
168.25000248849392
10
-298.40000447034834
20
168.25000248849392
10
-298.40000447034834
20
170.50000281631952
10
-301.60000447034838
20
170.50000281631952
10
-301.60000447034838
20
168.25000248849392
10
-302.70000447034835
20
168.25000248849392
10
-302.70000447034835
20
165.75000248849392
10
-301.60000447034838
20
165.75000248849392
10
-301.60000447034838
20
162.50000216066832
10
-310.00000551342964
20
162.50000216066832
10
-310.00000551342964
20
160.00000238418579
10
-330.00000551342964
20
160.00000238418579
10
-330.00000551342964
20
162.50000216066832
10
-350.00000551342964
20
162.50000216066832
10
-350.00000551342964
20
160.00000238418579
10
-370.00000551342964
20
160.00000238418579
10
-370.00000551342964
20
162.50000216066832
10
-378.40000447034839
20
162.50000216066832
10
-378.40000447034839
20
165.75000248849392
10
-377.30000447034843
20
165.75000248849392
10
-377.30000447034843
20
168.25000248849392
10
-378.40000447034839
20
168.25000248849392
10
-378.40000447034839
20
170.50000281631952
10
-381.60000447034838
20
170.50000281631952
10
-381.60000447034838
20
168.25000248849392
10
-382.7000044703484
20
168.25000248849389
10
-382.7000044703484
20
165.75000248849389
10
-381.60000447034838
20
165.75000248849392
10
-381.60000447034838
20
162.50000216066832
0
LINE
5
314
100
AcDbEntity
8
0
100
AcDbLine
10
-205.50000244379044
20
102.99999821186066
30
0
11
-205.50000244379044
21
146.99999821186066
31
0
0
LINE
5
315
100
AcDbEntity
8
0
100
AcDbLine
10
-205.50000244379044
20
146.99999821186066
30
0
11
-394.50000262260437
21
146.99999821186066
31
0
0
LINE
5
316
100
AcDbEntity
8
0
100
AcDbLine
10
-394.50000262260437
20
146.99999821186066
30
0
11
-394.50000262260437
21
102.99999821186066
31
0
0
LWPOLYLINE
5
317
100
AcDbEntity
8
0
100
AcDbPolyline
90
4
70
1
43
0.0
10
-370.00000551342964
20
142.00000211596489
10
-350.00000551342964
20
142.00000211596489
10
-350.00000551342964
20
144.50000211596489
10
-370.00000551342964
20
144.50000211596489
0
LWPOLYLINE
5
318
100
AcDbEntity
8
0
100
AcDbPolyline
90
4
70
1
43
0.0
10
-310.00000551342964
20
144.50000211596489
10
-330.00000551342964
20
144.50000211596489
10
-330.00000551342964
20
142.00000211596489
10
-310.00000551342964
20
142.00000211596489
0
LWPOLYLINE
5
319
100
AcDbEntity
8
0
100
AcDbPolyline
90
4
70
1
43
0.0
10
-230.00000551342964
20
144.50000211596489
10
-250.00000551342964
20
144.50000211596489
10
-250.00000551342964
20
142.00000211596489
10
-230.00000551342964
20
142.00000211596489
0
LWPOLYLINE
5
320
100
AcDbEntity
8
0
100
AcDbPolyline
90
4
70
1
43
0.0
10
-270.00000551342964
20
142.00000211596489
10
-270.00000551342964
20
144.50000211596489
10
-290.00000551342964
20
144.50000211596489
10
-290.00000551342964
20
142.00000211596489
0
CIRCLE
5
321
100
AcDbEntity
8
0
100
AcDbCircle
10
-380.00000566244125
20
143.25000213086605
30
0
40
1.6000000000000307
210
0
220
0
230
1
0
CIRCLE
5
322
100
AcDbEntity
8
0
100
AcDbCircle
10
-300.00000566244125
20
143.25000213086605
30
0
40
1.6000000000000307
210
0
220
0
230
1
0
CIRCLE
5
323
100
AcDbEntity
8
0
100
AcDbCircle
10
-220.00000566244125
20
143.25000213086605
30
0
40
1.6000000000000307
210
0
220
0
230
1
0
LWPOLYLINE
5
324
100
AcDbEntity
8
0
100
AcDbPolyline
90
14
70
1
43
0.0
10
-217.50000447034836
20
-203.00000461935994
10
-382.50000447034836
20
-203.00000461935994
10
-382.50000447034836
20
-417.00000461935997
10
-340.00000506639481
20
-417.00000621378422
10
-340.00000506639481
20
-414.50000461935997
42
0.41421356237313667
10
-341.00000506639481
20
-413.50000461935997
10
-350.50000447034836
20
-413.50000461935997
10
-350.50000447034836
20
-264.50000461935997
10
-249.5000044703483
20
-264.50000461935997
10
-249.5000044703483
20
-413.50000461935997
10
-259.00000387430191
20
-413.50000461936008
42
0.41421356237310542
10
-260.00000387430191
20
-414.50000461935997
10
-260.00000387430191
20
-417.00000621378422
10
-217.50000447034836
20
-417.00000461935997
0
ENDSEC
0
SECTION
2
OBJECTS
0
DICTIONARY
5
C
100
AcDbDictionary
3
ACAD_GROUP
350
D
3
ACAD_MLINESTYLE
350
17
0
DICTIONARY
5
D
100
AcDbDictionary
0
DICTIONARY
5
1A
330
C
100
AcDbDictionary
0
DICTIONARY
5
17
100
AcDbDictionary
0
ENDSEC
0
EOF
