<?xml version="1.0" encoding="UTF-8" standalone="no"?>
<!-- Created with Inkscape (http://www.inkscape.org/) -->

<svg
   width="164.09999mm"
   height="42.099998mm"
   viewBox="0 0 164.09999 42.099998"
   version="1.1"
   id="svg1"
   inkscape:version="1.4 (86a8ad7, 2024-10-11)"
   xml:space="preserve"
   sodipodi:docname="MotorMount_5mm_R2.svg"
   xmlns:inkscape="http://www.inkscape.org/namespaces/inkscape"
   xmlns:sodipodi="http://sodipodi.sourceforge.net/DTD/sodipodi-0.dtd"
   xmlns="http://www.w3.org/2000/svg"
   xmlns:svg="http://www.w3.org/2000/svg"><sodipodi:namedview
     id="namedview1"
     pagecolor="#ffffff"
     bordercolor="#000000"
     borderopacity="0.25"
     inkscape:showpageshadow="2"
     inkscape:pageopacity="0.0"
     inkscape:pagecheckerboard="0"
     inkscape:deskcolor="#d1d1d1"
     inkscape:document-units="mm"
     showgrid="true"
     inkscape:zoom="1.1367864"
     inkscape:cx="307.88546"
     inkscape:cy="438.07703"
     inkscape:current-layer="layer1"><inkscape:grid
       id="grid1"
       units="mm"
       originx="161.58583"
       originy="252.01042"
       spacingx="0.99999986"
       spacingy="1"
       empcolor="#0099e5"
       empopacity="0.30196078"
       color="#0099e5"
       opacity="0.14901961"
       empspacing="5"
       enabled="true"
       visible="true" /></sodipodi:namedview><defs
     id="defs1"><marker
       id="DistanceX"
       orient="auto"
       refX="0"
       refY="0"
       style="overflow:visible"><path
         d="M 3,-3 -3,3 M 0,-5 V 5"
         style="stroke:#000000;stroke-width:0.5"
         id="path1" /></marker><pattern
       id="Hatch"
       patternUnits="userSpaceOnUse"
       width="8"
       height="8"
       x="0"
       y="0"><path
         d="M8 4 l-4,4"
         stroke="#000000"
         stroke-width="0.25"
         linecap="square"
         id="path2" /><path
         d="M6 2 l-4,4"
         stroke="#000000"
         stroke-width="0.25"
         linecap="square"
         id="path3" /><path
         d="M4 0 l-4,4"
         stroke="#000000"
         stroke-width="0.25"
         linecap="square"
         id="path4" /></pattern><symbol
       id="*MODEL_SPACE" /><symbol
       id="*PAPER_SPACE" /></defs><g
     inkscape:label="Layer 1"
     inkscape:groupmode="layer"
     id="layer1"
     transform="translate(161.58584,252.01042)"><path
       d="m -104.46971,-242.46042 a 0.06614583,0.06614583 0 0 0 -0.13229,0 0.06614583,0.06614583 0 0 0 0.13229,0 z"
       style="fill:none;stroke:#ff0000;stroke-width:0.1;stroke-dasharray:none;stroke-opacity:1"
       id="path39" /><path
       d="m -104.46971,-242.46042 a 0.06614583,0.06614583 0 0 0 -0.13229,0 0.06614583,0.06614583 0 0 0 0.13229,0 z"
       style="fill:none;stroke:#ff0000;stroke-width:0.1;stroke-dasharray:none;stroke-opacity:1"
       id="path40" /><path
       d="m -54.469706,-242.46042 a 0.066146,0.066146 0 0 0 -0.132292,0 0.066146,0.066146 0 0 0 0.132292,0 z"
       style="fill:none;stroke:#ff0000;stroke-width:0.1;stroke-dasharray:none;stroke-opacity:1"
       id="path41" /><path
       d="m -54.469706,-242.46042 a 0.066146,0.066146 0 0 0 -0.132292,0 0.066146,0.066146 0 0 0 0.132292,0 z"
       style="fill:none;stroke:#ff0000;stroke-width:0.1;stroke-dasharray:none;stroke-opacity:1"
       id="path42" /><path
       d="m -142.59347,-215.76039 c -0.71789,0 -1.29998,0.58208 -1.29998,1.29999 0,0.7179 0.58209,1.29998 1.29998,1.29998"
       style="fill:none;stroke:#ff0000;stroke-width:0.1;stroke-dasharray:none;stroke-opacity:1"
       id="path254" /><path
       style="fill:none;stroke:#ff0000;stroke-width:0.1;stroke-dasharray:none;stroke-opacity:1"
       d="m -42.478234,-238.76044 h 3.00011"
       id="path255" /><path
       style="fill:none;stroke:#ff0000;stroke-width:0.1;stroke-dasharray:none;stroke-opacity:1"
       d="m -139.59407,-238.76044 h -3.00038"
       id="path256" /><path
       style="fill:none;stroke:#ff0000;stroke-width:0.1;stroke-dasharray:none;stroke-opacity:1"
       d="m -116.59385,-215.76042 h -3.00037"
       id="path257" /><path
       d="m -153.93584,-215.96042 a 1.6000015,1.6000015 0 0 0 -3.2,0 1.6000015,1.6000015 0 0 0 3.2,0 z"
       style="fill:none;stroke:#ff0000;stroke-width:0.1;stroke-dasharray:none;stroke-opacity:1"
       id="path258" /><path
       style="fill:none;stroke:#ff0000;stroke-width:0.1;stroke-dasharray:none;stroke-opacity:1"
       d="m -16.47816,-236.16046 h -3.00011"
       id="path259" /><path
       d="m -116.59342,-213.16045 c 0.71789,0 1.29997,-0.58209 1.29997,-1.29999 0,-0.7179 -0.58208,-1.29999 -1.29997,-1.29999"
       style="fill:none;stroke:#ff0000;stroke-width:0.1;stroke-dasharray:none;stroke-opacity:1"
       id="path260" /><path
       d="m -42.478261,-213.16045 c -0.717902,0 -1.299985,-0.58209 -1.299985,-1.29999 0,-0.7179 0.582083,-1.29999 1.299985,-1.29999"
       style="fill:none;stroke:#ff0000;stroke-width:0.1;stroke-dasharray:none;stroke-opacity:1"
       id="path261" /><path
       d="m -139.59344,-213.16042 c 0.71789,0 1.29998,-0.58208 1.29998,-1.29998 0,-0.71791 -0.58209,-1.29999 -1.29998,-1.29999"
       style="fill:none;stroke:#ff0000;stroke-width:0.1;stroke-dasharray:none;stroke-opacity:1"
       id="path262" /><path
       style="fill:none;stroke:#ff0000;stroke-width:0.1;stroke-dasharray:none;stroke-opacity:1"
       d="m -42.478234,-215.76042 h 3.00011"
       id="path263" /><path
       d="m -1.9358448,-225.96042 a 1.6000002,1.6000002 0 0 0 -3.2000004,0 1.6000002,1.6000002 0 0 0 3.2000004,0 z"
       style="fill:none;stroke:#ff0000;stroke-width:0.1;stroke-dasharray:none;stroke-opacity:1"
       id="path264" /><path
       d="m -59.935839,-230.96042 a 2.1,2.1 0 0 0 -4.199996,0 2.1,2.1 0 0 0 4.199996,0 z"
       style="fill:none;stroke:#ff0000;stroke-width:0.1;stroke-dasharray:none;stroke-opacity:1"
       id="path265" /><path
       d="m -39.478238,-238.76044 c 0.717902,0 1.299986,0.58208 1.299986,1.29998 0,0.71791 -0.582084,1.29999 -1.299986,1.29999"
       style="fill:none;stroke:#ff0000;stroke-width:0.1;stroke-dasharray:none;stroke-opacity:1"
       id="path266" /><path
       style="fill:none;stroke:#ff0000;stroke-width:0.1;stroke-dasharray:none;stroke-opacity:1"
       d="m -39.478124,-236.16046 h -3.00011"
       id="path267" /><path
       d="m -19.478243,-213.16042 c -0.717902,0 -1.299986,-0.58208 -1.299986,-1.29998 0,-0.71791 0.582084,-1.29999 1.299986,-1.29999"
       style="fill:none;stroke:#ff0000;stroke-width:0.1;stroke-dasharray:none;stroke-opacity:1"
       id="path268" /><path
       style="fill:none;stroke:#ff0000;stroke-width:0.1;stroke-dasharray:none;stroke-opacity:1"
       d="m -139.59407,-215.76042 h -3.00038"
       id="path269" /><path
       d="m -16.47822,-238.76044 c 0.717902,0 1.299985,0.58208 1.299985,1.29998 0,0.71791 -0.582083,1.29999 -1.299985,1.29999"
       style="fill:none;stroke:#ff0000;stroke-width:0.1;stroke-dasharray:none;stroke-opacity:1"
       id="path270" /><path
       d="m -39.478238,-215.76043 c 0.717902,0 1.299986,0.58209 1.299986,1.29999 0,0.7179 -0.582084,1.29999 -1.299986,1.29999"
       style="fill:none;stroke:#ff0000;stroke-width:0.1;stroke-dasharray:none;stroke-opacity:1"
       id="path271" /><path
       d="m -131.09349,-237.16042 c -6.18559,0 -11.19997,5.01438 -11.19997,11.19999 0,6.18561 5.01438,11.19999 11.19997,11.19999"
       style="fill:none;stroke:#ff0000;stroke-width:0.1;stroke-dasharray:none;stroke-opacity:1"
       id="path272" /><path
       style="fill:none;stroke:#ff0000;stroke-width:0.1;stroke-dasharray:none;stroke-opacity:1"
       d="M -27.978274,-214.76056 H -30.97812"
       id="path273" /><path
       d="m -42.478261,-236.16047 c -0.717902,0 -1.299985,-0.58208 -1.299985,-1.29999 0,-0.7179 0.582083,-1.29998 1.299985,-1.29998"
       style="fill:none;stroke:#ff0000;stroke-width:0.1;stroke-dasharray:none;stroke-opacity:1"
       id="path274" /><path
       style="fill:none;stroke:#ff0000;stroke-width:0.1;stroke-dasharray:none;stroke-opacity:1"
       d="m -39.478124,-213.16036 h -3.00011"
       id="path275" /><path
       d="m -16.47822,-215.76039 c 0.717902,0 1.299985,0.58208 1.299985,1.29999 0,0.7179 -0.582083,1.29998 -1.299985,1.29998"
       style="fill:none;stroke:#ff0000;stroke-width:0.1;stroke-dasharray:none;stroke-opacity:1"
       id="path276" /><path
       d="m -161.53584,-209.96042 v -37 h 22 v -5 h 19.99999 v 5 l 13.4,-1e-5 v 3.25001 h -1.1 v 2.5 h 1.1 v 2.25 h 3.20001 v -2.25 h 1.1 v -2.5 h -1.1 v -3.25001 l 13.399979,1e-5 v -5 h 20.000013 v 5 l 13.400008,-1e-5 v 3.25001 h -1.100006 v 2.5 h 1.100006 v 2.25 h 3.199976 v -2.25 h 1.100005 v -2.5 h -1.100005 v -3.25001 l 13.400013,1e-5 v -5 h 20 v 5 H 2.4641548 v 37 z"
       style="fill:none;stroke:#ff0000;stroke-width:0.1;stroke-dasharray:none;stroke-opacity:1"
       id="path277" /><path
       d="m -77.435857,-215.96042 a 2.1,2.1 0 0 0 -4.199996,0 2.1,2.1 0 0 0 4.199996,0 z"
       style="fill:none;stroke:#ff0000;stroke-width:0.1;stroke-dasharray:none;stroke-opacity:1"
       id="path278" /><path
       style="fill:none;stroke:#ff0000;stroke-width:0.1;stroke-dasharray:none;stroke-opacity:1"
       d="m -142.59445,-236.16046 h 3.00038"
       id="path279" /><path
       style="fill:none;stroke:#ff0000;stroke-width:0.1;stroke-dasharray:none;stroke-opacity:1"
       d="m -30.97812,-237.16043 h 2.999846"
       id="path280" /><path
       style="fill:none;stroke:#ff0000;stroke-width:0.1;stroke-dasharray:none;stroke-opacity:1"
       d="m -16.47816,-213.16036 h -3.00011"
       id="path281" /><path
       style="fill:none;stroke:#ff0000;stroke-width:0.1;stroke-dasharray:none;stroke-opacity:1"
       d="m -142.59445,-213.16036 h 3.00038"
       id="path282" /><path
       d="m -1.9358448,-215.96042 a 1.6000002,1.6000002 0 0 0 -3.2000004,0 1.6000002,1.6000002 0 0 0 3.2000004,0 z"
       style="fill:none;stroke:#ff0000;stroke-width:0.1;stroke-dasharray:none;stroke-opacity:1"
       id="path283" /><path
       d="m -119.59345,-215.76043 c -0.7179,0 -1.29998,0.58209 -1.29998,1.29999 0,0.7179 0.58208,1.29999 1.29998,1.29999"
       style="fill:none;stroke:#ff0000;stroke-width:0.1;stroke-dasharray:none;stroke-opacity:1"
       id="path284" /><path
       d="m -119.59345,-238.76044 c -0.7179,0 -1.29998,0.58208 -1.29998,1.29998 0,0.71791 0.58208,1.29999 1.29998,1.29999"
       style="fill:none;stroke:#ff0000;stroke-width:0.1;stroke-dasharray:none;stroke-opacity:1"
       id="path285" /><path
       d="m -116.59342,-236.16047 c 0.71789,0 1.29997,-0.58208 1.29997,-1.29999 0,-0.7179 -0.58208,-1.29998 -1.29997,-1.29998"
       style="fill:none;stroke:#ff0000;stroke-width:0.1;stroke-dasharray:none;stroke-opacity:1"
       id="path286" /><path
       style="fill:none;stroke:#ff0000;stroke-width:0.1;stroke-dasharray:none;stroke-opacity:1"
       d="m -116.59385,-238.76044 h -3.00037"
       id="path287" /><path
       style="fill:none;stroke:#ff0000;stroke-width:0.1;stroke-dasharray:none;stroke-opacity:1"
       d="m -19.47827,-215.76042 h 3.00011"
       id="path288" /><path
       style="fill:none;stroke:#ff0000;stroke-width:0.1;stroke-dasharray:none;stroke-opacity:1"
       d="m -119.59422,-236.16046 h 3.00037"
       id="path289" /><path
       style="fill:none;stroke:#ff0000;stroke-width:0.1;stroke-dasharray:none;stroke-opacity:1"
       d="m -128.09264,-237.16043 h -3.00037"
       id="path290" /><path
       d="m -139.59344,-236.16047 c 0.71789,0 1.29998,-0.58208 1.29998,-1.29999 0,-0.7179 -0.58209,-1.29998 -1.29998,-1.29998"
       style="fill:none;stroke:#ff0000;stroke-width:0.1;stroke-dasharray:none;stroke-opacity:1"
       id="path291" /><path
       d="m -27.978213,-237.16042 c 6.185606,0 11.19999,5.01438 11.19999,11.19999 0,6.18561 -5.014384,11.19999 -11.19999,11.19999"
       style="fill:none;stroke:#ff0000;stroke-width:0.1;stroke-dasharray:none;stroke-opacity:1"
       id="path292" /><path
       style="fill:none;stroke:#ff0000;stroke-width:0.1;stroke-dasharray:none;stroke-opacity:1"
       d="m -119.59422,-213.16036 h 3.00037"
       id="path293" /><path
       d="m -30.978234,-214.76044 c -6.185606,0 -11.199989,-5.01438 -11.199989,-11.19999 0,-6.18561 5.014383,-11.19999 11.199989,-11.19999"
       style="fill:none;stroke:#ff0000;stroke-width:0.1;stroke-dasharray:none;stroke-opacity:1"
       id="path294" /><path
       d="m -128.09346,-214.76044 c 6.18562,0 11.2,-5.01438 11.2,-11.19999 0,-6.18561 -5.01438,-11.19999 -11.2,-11.19999"
       style="fill:none;stroke:#ff0000;stroke-width:0.1;stroke-dasharray:none;stroke-opacity:1"
       id="path295" /><path
       d="m -19.478243,-236.16047 c -0.717902,0 -1.299986,-0.58208 -1.299986,-1.29999 0,-0.7179 0.582084,-1.29998 1.299986,-1.29998"
       style="fill:none;stroke:#ff0000;stroke-width:0.1;stroke-dasharray:none;stroke-opacity:1"
       id="path296" /><path
       d="m -153.93584,-225.96042 a 1.6000015,1.6000015 0 0 0 -3.2,0 1.6000015,1.6000015 0 0 0 3.2,0 z"
       style="fill:none;stroke:#ff0000;stroke-width:0.1;stroke-dasharray:none;stroke-opacity:1"
       id="path297" /><path
       d="m -153.93584,-235.96042 a 1.6000015,1.6000015 0 0 0 -3.2,0 1.6000015,1.6000015 0 0 0 3.2,0 z"
       style="fill:none;stroke:#ff0000;stroke-width:0.1;stroke-dasharray:none;stroke-opacity:1"
       id="path298" /><path
       d="m -1.9358448,-235.96042 a 1.6000002,1.6000002 0 0 0 -3.2000004,0 1.6000002,1.6000002 0 0 0 3.2000004,0 z"
       style="fill:none;stroke:#ff0000;stroke-width:0.1;stroke-dasharray:none;stroke-opacity:1"
       id="path299" /><path
       style="fill:none;stroke:#ff0000;stroke-width:0.1;stroke-dasharray:none;stroke-opacity:1"
       d="m -131.09301,-214.76056 h 3.00037"
       id="path300" /><path
       d="m -94.935848,-230.96042 a 2.1,2.1 0 0 0 -4.199996,0 2.1,2.1 0 0 0 4.199996,0 z"
       style="fill:none;stroke:#ff0000;stroke-width:0.1;stroke-dasharray:none;stroke-opacity:1"
       id="path301" /><path
       style="fill:none;stroke:#ff0000;stroke-width:0.1;stroke-dasharray:none;stroke-opacity:1"
       d="m -19.47827,-238.76044 h 3.00011"
       id="path302" /><path
       d="m -142.59347,-238.76044 c -0.71789,0 -1.29998,0.58208 -1.29998,1.29998 0,0.71791 0.58209,1.29999 1.29998,1.29999"
       style="fill:none;stroke:#ff0000;stroke-width:0.1;stroke-dasharray:none;stroke-opacity:1"
       id="path303" /></g></svg>
