<?xml version="1.0" encoding="UTF-8" standalone="no"?>
<!-- Created with Inkscape (http://www.inkscape.org/) -->

<svg
   width="32.232292mm"
   height="250.23186mm"
   viewBox="0 0 32.232292 250.23186"
   version="1.1"
   id="svg1"
   inkscape:version="1.4 (86a8ad7, 2024-10-11)"
   xml:space="preserve"
   sodipodi:docname="Y_Carriage_Stay_5mm.svg"
   xmlns:inkscape="http://www.inkscape.org/namespaces/inkscape"
   xmlns:sodipodi="http://sodipodi.sourceforge.net/DTD/sodipodi-0.dtd"
   xmlns="http://www.w3.org/2000/svg"
   xmlns:svg="http://www.w3.org/2000/svg"><sodipodi:namedview
     id="namedview1"
     pagecolor="#ffffff"
     bordercolor="#000000"
     borderopacity="0.25"
     inkscape:showpageshadow="2"
     inkscape:pageopacity="0.0"
     inkscape:pagecheckerboard="0"
     inkscape:deskcolor="#d1d1d1"
     inkscape:document-units="mm"
     showgrid="true"
     inkscape:zoom="0.5683932"
     inkscape:cx="-476.78263"
     inkscape:cy="89.72662"
     inkscape:current-layer="layer1"><inkscape:grid
       id="grid1"
       units="mm"
       originx="-34.348002"
       originy="62.076363"
       spacingx="0.99999986"
       spacingy="1"
       empcolor="#0099e5"
       empopacity="0.30196078"
       color="#0099e5"
       opacity="0.14901961"
       empspacing="5"
       enabled="true"
       visible="true" /></sodipodi:namedview><defs
     id="defs1"><marker
       id="DistanceX"
       orient="auto"
       refX="0"
       refY="0"
       style="overflow:visible"><path
         d="M 3,-3 -3,3 M 0,-5 V 5"
         style="stroke:#000000;stroke-width:0.5"
         id="path1" /></marker><pattern
       id="Hatch"
       patternUnits="userSpaceOnUse"
       width="8"
       height="8"
       x="0"
       y="0"><path
         d="M8 4 l-4,4"
         stroke="#000000"
         stroke-width="0.25"
         linecap="square"
         id="path2" /><path
         d="M6 2 l-4,4"
         stroke="#000000"
         stroke-width="0.25"
         linecap="square"
         id="path3" /><path
         d="M4 0 l-4,4"
         stroke="#000000"
         stroke-width="0.25"
         linecap="square"
         id="path4" /></pattern><symbol
       id="*MODEL_SPACE" /><symbol
       id="*PAPER_SPACE" /></defs><g
     inkscape:label="Layer 1"
     inkscape:groupmode="layer"
     id="layer1"
     transform="translate(-34.348003,62.076361)"><path
       d="m 34.530294,-61.960424 a 0.06614583,0.06614583 0 0 0 -0.132291,0 0.06614583,0.06614583 0 0 0 0.132291,0 z"
       style="fill:none;stroke:#ff0000;stroke-width:0.1;stroke-dasharray:none;stroke-opacity:1"
       id="path44" /><path
       d="m 34.530294,188.03956 a 0.06614583,0.06614583 0 0 0 -0.132291,0 0.06614583,0.06614583 0 0 0 0.132291,0 z"
       style="fill:none;stroke:#ff0000;stroke-width:0.1;stroke-dasharray:none;stroke-opacity:1"
       id="path45" /><path
       d="m 66.530296,-61.960424 a 0.06614583,0.06614583 0 0 0 -0.132291,0 0.06614583,0.06614583 0 0 0 0.132291,0 z"
       style="fill:none;stroke:#ff0000;stroke-width:0.1;stroke-dasharray:none;stroke-opacity:1"
       id="path46" /><path
       d="m 66.530296,188.03956 a 0.06614583,0.06614583 0 0 0 -0.132291,0 0.06614583,0.06614583 0 0 0 0.132291,0 z"
       style="fill:none;stroke:#ff0000;stroke-width:0.1;stroke-dasharray:none;stroke-opacity:1"
       id="path47" /><path
       d="m 42.064149,178.03958 a 1.6,1.6 0 0 0 -3.199998,0 1.6,1.6 0 0 0 3.199998,0 z"
       style="fill:none;stroke:#ff0000;stroke-width:0.1;stroke-dasharray:none;stroke-opacity:1"
       id="path308" /><path
       d="m 42.064149,-55.96042 a 1.6,1.6 0 0 0 -3.199998,0 1.6,1.6 0 0 0 3.199998,0 z"
       style="fill:none;stroke:#ff0000;stroke-width:0.1;stroke-dasharray:none;stroke-opacity:1"
       id="path309" /><path
       d="m 42.064149,-35.960421 a 1.6,1.6 0 0 0 -3.199998,0 1.6,1.6 0 0 0 3.199998,0 z"
       style="fill:none;stroke:#ff0000;stroke-width:0.1;stroke-dasharray:none;stroke-opacity:1"
       id="path310" /><path
       d="m 37.464151,-61.960424 h 9 V 188.03956 h -9 l -3.000002,-2.99997 V -58.960425 Z"
       style="fill:none;stroke:#ff0000;stroke-width:0.1;stroke-dasharray:none;stroke-opacity:1"
       id="path311" /><path
       d="M 63.464148,188.03956 H 54.464151 V -61.960424 h 8.999997 l 3.000002,2.999999 V 185.03959 Z"
       style="fill:none;stroke:#ff0000;stroke-width:0.1;stroke-dasharray:none;stroke-opacity:1"
       id="path312" /><path
       d="m 62.064148,-55.96042 a 1.6,1.6 0 0 0 -3.199998,0 1.6,1.6 0 0 0 3.199998,0 z"
       style="fill:none;stroke:#ff0000;stroke-width:0.1;stroke-dasharray:none;stroke-opacity:1"
       id="path313" /><path
       d="m 62.064148,178.03958 a 1.6,1.6 0 0 0 -3.199998,0 1.6,1.6 0 0 0 3.199998,0 z"
       style="fill:none;stroke:#ff0000;stroke-width:0.1;stroke-dasharray:none;stroke-opacity:1"
       id="path314" /><path
       d="m 62.064148,-35.960421 a 1.6,1.6 0 0 0 -3.199998,0 1.6,1.6 0 0 0 3.199998,0 z"
       style="fill:none;stroke:#ff0000;stroke-width:0.1;stroke-dasharray:none;stroke-opacity:1"
       id="path315" /></g></svg>
