<?xml version="1.0" encoding="UTF-8" standalone="no"?>
<!-- Created with Inkscape (http://www.inkscape.org/) -->

<svg
   width="246.2641mm"
   height="189.2636mm"
   viewBox="0 0 246.2641 189.2636"
   version="1.1"
   id="svg5"
   sodipodi:docname="Base.svg"
   inkscape:version="1.2.1 (9c6d41e410, 2022-07-14)"
   xml:space="preserve"
   xmlns:inkscape="http://www.inkscape.org/namespaces/inkscape"
   xmlns:sodipodi="http://sodipodi.sourceforge.net/DTD/sodipodi-0.dtd"
   xmlns="http://www.w3.org/2000/svg"
   xmlns:svg="http://www.w3.org/2000/svg"><sodipodi:namedview
     id="namedview7"
     pagecolor="#ffffff"
     bordercolor="#000000"
     borderopacity="0.25"
     inkscape:showpageshadow="2"
     inkscape:pageopacity="0.0"
     inkscape:pagecheckerboard="0"
     inkscape:deskcolor="#d1d1d1"
     inkscape:document-units="mm"
     showgrid="true"
     inkscape:zoom="0.914906"
     inkscape:cx="680.39777"
     inkscape:cy="239.36885"
     inkscape:current-layer="layer1"><inkscape:grid
       type="xygrid"
       id="grid1049"
       spacingx="10"
       units="mm"
       spacingy="10"
       originx="148.74286"
       originy="105.5965" /></sodipodi:namedview><defs
     id="defs2"><marker
       id="DistanceX"
       orient="auto"
       refX="0"
       refY="0"
       style="overflow:visible"><path
         d="M 3,-3 -3,3 M 0,-5 V 5"
         style="stroke:#000000;stroke-width:0.5"
         id="path182" /></marker><pattern
       id="Hatch"
       patternUnits="userSpaceOnUse"
       width="8"
       height="8"
       x="0"
       y="0"><path
         d="M8 4 l-4,4"
         stroke="#000000"
         stroke-width="0.25"
         linecap="square"
         id="path185" /><path
         d="M6 2 l-4,4"
         stroke="#000000"
         stroke-width="0.25"
         linecap="square"
         id="path187" /><path
         d="M4 0 l-4,4"
         stroke="#000000"
         stroke-width="0.25"
         linecap="square"
         id="path189" /></pattern><symbol
       id="*MODEL_SPACE" /><symbol
       id="*PAPER_SPACE" /></defs><g
     inkscape:label="Layer 1"
     inkscape:groupmode="layer"
     id="layer1"
     transform="translate(148.74286,105.59649)"><g
       inkscape:label="1"
       id="g196"
       transform="matrix(0.26458333,0,0,0.26458333,274.38872,-327.96436)" /><g
       id="g1573"
       transform="rotate(90,-25.61081,-10.96469)"
       style="stroke-width:0.1;stroke-dasharray:none;stroke:#ff0000;stroke-opacity:1"><path
         d="m -25.545139,-30.96436 a 0.066146,0.066146 0 0 0 -0.132292,0 0.066146,0.066146 0 0 0 0.132292,0 z"
         style="fill:none;stroke:#ff0000;stroke-width:0.1;stroke-dasharray:none;stroke-opacity:1"
         id="path222" /><path
         d="m 64.488721,-127.96436 a 1.6000002,1.6000002 0 0 0 -3.2,0 1.6000002,1.6000002 0 0 0 3.2,0 z"
         style="fill:none;stroke:#ff0000;stroke-width:0.1;stroke-dasharray:none;stroke-opacity:1"
         id="path508" /><path
         style="fill:none;stroke:#ff0000;stroke-width:0.1;stroke-dasharray:none;stroke-opacity:1"
         d="m -108.11146,-133.96445 h 12.001497"
         id="path510" /><path
         d="m 64.488721,106.03564 a 1.6000002,1.6000002 0 0 0 -3.2,0 1.6000002,1.6000002 0 0 0 3.2,0 z"
         style="fill:none;stroke:#ff0000;stroke-width:0.1;stroke-dasharray:none;stroke-opacity:1"
         id="path512" /><path
         style="fill:none;stroke:#ff0000;stroke-width:0.1;stroke-dasharray:none;stroke-opacity:1"
         d="M 68.8887,-133.96445 V 110.03482"
         id="path514" /><path
         style="fill:none;stroke:#ff0000;stroke-width:0.1;stroke-dasharray:none;stroke-opacity:1"
         d="M 56.888787,-133.96445 H 68.8887"
         id="path516" /><path
         style="fill:none;stroke:#ff0000;stroke-width:0.1;stroke-dasharray:none;stroke-opacity:1"
         d="m -120.11032,-133.96445 h 11.99886"
         id="path518" /><path
         d="m -112.51127,106.03564 a 1.6000015,1.6000015 0 0 0 -3.2,0 1.6000015,1.6000015 0 0 0 3.2,0 z"
         style="fill:none;stroke:#ff0000;stroke-width:0.1;stroke-dasharray:none;stroke-opacity:1"
         id="path520" /><path
         d="m 64.488721,69.035651 a 1.6000002,1.6000002 0 0 0 -3.2,0 1.6000002,1.6000002 0 0 0 3.2,0 z"
         style="fill:none;stroke:#ff0000;stroke-width:0.1;stroke-dasharray:none;stroke-opacity:1"
         id="path522" /><path
         style="fill:none;stroke:#ff0000;stroke-width:0.1;stroke-dasharray:none;stroke-opacity:1"
         d="m -108.11146,112.03507 h -9.99861"
         id="path524" /><path
         d="m 64.488721,-107.96436 a 1.6000002,1.6000002 0 0 0 -3.2,0 1.6000002,1.6000002 0 0 0 3.2,0 z"
         style="fill:none;stroke:#ff0000;stroke-width:0.1;stroke-dasharray:none;stroke-opacity:1"
         id="path526" /><path
         style="fill:none;stroke:#ff0000;stroke-width:0.1;stroke-dasharray:none;stroke-opacity:1"
         d="M -120.11032,110.03482 V -133.96445"
         id="path528" /><path
         d="m -112.51127,69.035651 a 1.6000015,1.6000015 0 0 0 -3.2,0 1.6000015,1.6000015 0 0 0 3.2,0 z"
         style="fill:none;stroke:#ff0000;stroke-width:0.1;stroke-dasharray:none;stroke-opacity:1"
         id="path530" /><path
         style="fill:none;stroke:#ff0000;stroke-width:0.1;stroke-dasharray:none;stroke-opacity:1"
         d="M 66.888714,112.03507 H 56.888787"
         id="path532" /><path
         style="fill:none;stroke:#ff0000;stroke-width:0.1;stroke-dasharray:none;stroke-opacity:1"
         d="M 56.888787,-133.96445 H 44.88861"
         id="path534" /><path
         d="m -112.51127,-107.96436 a 1.6000015,1.6000015 0 0 0 -3.2,0 1.6000015,1.6000015 0 0 0 3.2,0 z"
         style="fill:none;stroke:#ff0000;stroke-width:0.1;stroke-dasharray:none;stroke-opacity:1"
         id="path536" /><path
         d="m -112.51127,-127.96436 a 1.6000015,1.6000015 0 0 0 -3.2,0 1.6000015,1.6000015 0 0 0 3.2,0 z"
         style="fill:none;stroke:#ff0000;stroke-width:0.1;stroke-dasharray:none;stroke-opacity:1"
         id="path538" /><path
         style="fill:none;stroke:#ff0000;stroke-width:0.1;stroke-dasharray:none;stroke-opacity:1"
         d="M -108.11146,112.03507 H 56.888787"
         id="path540" /><path
         style="fill:none;stroke:#ff0000;stroke-width:0.1;stroke-dasharray:none;stroke-opacity:1"
         d="M -96.109963,-133.96445 H 44.88861"
         id="path542" /><path
         style="fill:none;stroke:#ff0000;stroke-width:0.1;stroke-dasharray:none;stroke-opacity:1"
         d="m -120.11032,110.03482 2.00025,2.00025"
         id="path556" /><path
         style="fill:none;stroke:#ff0000;stroke-width:0.1;stroke-dasharray:none;stroke-opacity:1"
         d="m 68.8887,110.03482 -1.999986,2.00025"
         id="path558" /></g></g></svg>
