<?xml version="1.0" encoding="UTF-8" standalone="no"?>
<svg
   viewBox="0 0 714.70494 1096.439"
   width="714.70496"
   height="1096.439"
   version="1.1"
   id="svg648"
   sodipodi:docname="PenPlotterBase.svg"
   xml:space="preserve"
   inkscape:version="1.2.1 (9c6d41e410, 2022-07-14)"
   xmlns:inkscape="http://www.inkscape.org/namespaces/inkscape"
   xmlns:sodipodi="http://sodipodi.sourceforge.net/DTD/sodipodi-0.dtd"
   xmlns="http://www.w3.org/2000/svg"
   xmlns:svg="http://www.w3.org/2000/svg"><sodipodi:namedview
     id="namedview650"
     pagecolor="#ffffff"
     bordercolor="#000000"
     borderopacity="0.25"
     inkscape:showpageshadow="2"
     inkscape:pageopacity="0.0"
     inkscape:pagecheckerboard="0"
     inkscape:deskcolor="#d1d1d1"
     showgrid="false"
     inkscape:zoom="0.84158407"
     inkscape:cx="260.81767"
     inkscape:cy="367.16474"
     inkscape:current-layer="g646" /><desc
     id="desc180">PenPlotterBase.dxf - scale = 1.000000, origin = (0.000000, 0.000000), method = manual</desc><defs
     id="defs194"><marker
       id="DistanceX"
       orient="auto"
       refX="0"
       refY="0"
       style="overflow:visible"><path
         d="M 3,-3 -3,3 M 0,-5 V 5"
         style="stroke:#000000;stroke-width:0.5"
         id="path182" /></marker><pattern
       id="Hatch"
       patternUnits="userSpaceOnUse"
       width="8"
       height="8"
       x="0"
       y="0"><path
         d="M8 4 l-4,4"
         stroke="#000000"
         stroke-width="0.25"
         linecap="square"
         id="path185" /><path
         d="M6 2 l-4,4"
         stroke="#000000"
         stroke-width="0.25"
         linecap="square"
         id="path187" /><path
         d="M4 0 l-4,4"
         stroke="#000000"
         stroke-width="0.25"
         linecap="square"
         id="path189" /></pattern><symbol
       id="*MODEL_SPACE" /><symbol
       id="*PAPER_SPACE" /><marker
       id="DistanceX-1"
       orient="auto"
       refX="0"
       refY="0"
       style="overflow:visible"><path
         d="M 3,-3 -3,3 M 0,-5 V 5"
         style="stroke:#000000;stroke-width:0.5"
         id="path774" /></marker><pattern
       id="Hatch-6"
       patternUnits="userSpaceOnUse"
       width="8"
       height="8"
       x="0"
       y="0"><path
         d="M8 4 l-4,4"
         stroke="#000000"
         stroke-width="0.25"
         linecap="square"
         id="path777" /><path
         d="M6 2 l-4,4"
         stroke="#000000"
         stroke-width="0.25"
         linecap="square"
         id="path779" /><path
         d="M4 0 l-4,4"
         stroke="#000000"
         stroke-width="0.25"
         linecap="square"
         id="path781" /></pattern><symbol
       id="*MODEL_SPACE-0" /><symbol
       id="*PAPER_SPACE-0" /></defs><g
     inkscape:groupmode="layer"
     inkscape:label="1"
     id="g196"
     transform="translate(3089.638,-201.22347)" /><g
     inkscape:groupmode="layer"
     inkscape:label="0"
     id="g646"
     transform="translate(3089.638,-201.22347)"><g
       inkscape:label="1"
       id="g788"
       transform="translate(-1598.429,-365.51655)" /><path
       d="m -2732.0373,757.00315 a 0.25,0.25 0 0 0 -0.5,0 0.25,0.25 0 0 0 0.5,0 z"
       style="fill:none;stroke:#ff0000;stroke-width:0.377953;stroke-dasharray:none;stroke-opacity:1"
       id="path814" /><path
       d="m -2391.7518,390.38897 a 6.04725,6.04725 0 0 0 -12.0945,0 6.04725,6.04725 0 0 0 12.0945,0 z"
       style="fill:none;stroke:#ff0000;stroke-width:0.377953;stroke-dasharray:none;stroke-opacity:1"
       id="path1116" /><path
       d="m -2391.7518,1274.7985 a 6.04725,6.04725 0 0 0 -12.0945,0 6.04725,6.04725 0 0 0 12.0945,0 z"
       style="fill:none;stroke:#ff0000;stroke-width:0.377953;stroke-dasharray:none;stroke-opacity:1"
       id="path1118" /><path
       style="fill:none;stroke:#ff0000;stroke-width:0.377953;stroke-dasharray:none;stroke-opacity:1"
       d="M -2375.122,367.71145 V 1286.1335"
       id="path1120" /><path
       d="m -3060.7282,1274.7985 a 6.04725,6.04725 0 0 0 -12.0945,0 6.04725,6.04725 0 0 0 12.0945,0 z"
       style="fill:none;stroke:#ff0000;stroke-width:0.377953;stroke-dasharray:none;stroke-opacity:1"
       id="path1122" /><path
       d="m -2391.7518,1134.956 a 6.04725,6.04725 0 0 0 -12.0945,0 6.04725,6.04725 0 0 0 12.0945,0 z"
       style="fill:none;stroke:#ff0000;stroke-width:0.377953;stroke-dasharray:none;stroke-opacity:1"
       id="path1124" /><path
       style="fill:none;stroke:#ff0000;stroke-width:0.377953;stroke-dasharray:none;stroke-opacity:1"
       d="m -3044.099,1297.4735 h -34.02"
       id="path1126" /><path
       d="m -2391.7518,465.97952 a 6.04725,6.04725 0 0 0 -12.0945,0 6.04725,6.04725 0 0 0 12.0945,0 z"
       style="fill:none;stroke:#ff0000;stroke-width:0.377953;stroke-dasharray:none;stroke-opacity:1"
       id="path1128" /><path
       style="fill:none;stroke:#ff0000;stroke-width:0.377953;stroke-dasharray:none;stroke-opacity:1"
       d="M -3089.449,1286.1335 V 367.71145"
       id="path1130" /><path
       d="m -3060.7282,1134.956 a 6.04725,6.04725 0 0 0 -12.0945,0 6.04725,6.04725 0 0 0 12.0945,0 z"
       style="fill:none;stroke:#ff0000;stroke-width:0.377953;stroke-dasharray:none;stroke-opacity:1"
       id="path1132" /><path
       style="fill:none;stroke:#ff0000;stroke-width:0.377953;stroke-dasharray:none;stroke-opacity:1"
       d="m -2386.461,1297.4735 h -34.015"
       id="path1134" /><path
       d="m -3060.7282,465.97952 a 6.04725,6.04725 0 0 0 -12.0945,0 6.04725,6.04725 0 0 0 12.0945,0 z"
       style="fill:none;stroke:#ff0000;stroke-width:0.377953;stroke-dasharray:none;stroke-opacity:1"
       id="path1136" /><path
       d="m -3060.7282,390.38897 a 6.04725,6.04725 0 0 0 -12.0945,0 6.04725,6.04725 0 0 0 12.0945,0 z"
       style="fill:none;stroke:#ff0000;stroke-width:0.377953;stroke-dasharray:none;stroke-opacity:1"
       id="path1138" /><path
       style="fill:none;stroke:#ff0000;stroke-width:0.377953;stroke-dasharray:none;stroke-opacity:1"
       d="m -3044.099,1297.4735 h 623.623"
       id="path1140" /><path
       style="fill:none;stroke:#ff0000;stroke-width:0.377953;stroke-dasharray:none;stroke-opacity:1"
       d="m -3089.449,1286.1335 11.33,11.34"
       id="path1154" /><path
       style="fill:none;stroke:#ff0000;stroke-width:0.377953;stroke-dasharray:none;stroke-opacity:1"
       d="m -2375.122,1286.1335 -11.339,11.34"
       id="path1156" /><path
       style="fill:none;stroke:#ff0000;stroke-width:0.377953;stroke-dasharray:none;stroke-opacity:1"
       d="m -2375.122,367.71145 v -166.299"
       id="path1212" /><path
       style="fill:none;stroke:#ff0000;stroke-width:0.377953;stroke-dasharray:none;stroke-opacity:1"
       d="m -2375.122,201.41245 h -714.327"
       id="path1214" /><path
       style="fill:none;stroke:#ff0000;stroke-width:0.377953;stroke-dasharray:none;stroke-opacity:1"
       d="m -3089.449,201.41245 v 166.299"
       id="path1216" /><path
       d="m -2996.8542,220.31021 h 75.5905 v -9.44882 h -75.5905 z"
       style="fill:none;stroke:#ff0000;stroke-width:0.377953;stroke-dasharray:none;stroke-opacity:1"
       id="path1218" /><path
       d="m -2770.0826,210.86139 h -75.5905 v 9.44882 h 75.5905 z"
       style="fill:none;stroke:#ff0000;stroke-width:0.377953;stroke-dasharray:none;stroke-opacity:1"
       id="path1220" /><path
       d="m -2467.7204,210.86139 h -75.5905 v 9.44882 h 75.5905 z"
       style="fill:none;stroke:#ff0000;stroke-width:0.377953;stroke-dasharray:none;stroke-opacity:1"
       id="path1222" /><path
       d="m -2618.9015,220.31021 v -9.44882 h -75.5905 v 9.44882 z"
       style="fill:none;stroke:#ff0000;stroke-width:0.377953;stroke-dasharray:none;stroke-opacity:1"
       id="path1224" /><path
       d="m -3028.6023,215.5858 a 6.047244,6.047244 0 0 0 -12.0944,0 6.047244,6.047244 0 0 0 12.0944,0 z"
       style="fill:none;stroke:#ff0000;stroke-width:0.377953;stroke-dasharray:none;stroke-opacity:1"
       id="path1226" /><path
       d="m -2726.24,215.5858 a 6.04725,6.04725 0 0 0 -12.0945,0 6.04725,6.04725 0 0 0 12.0945,0 z"
       style="fill:none;stroke:#ff0000;stroke-width:0.377953;stroke-dasharray:none;stroke-opacity:1"
       id="path1228" /><path
       d="m -2423.8778,215.5858 a 6.04725,6.04725 0 0 0 -12.0945,0 6.04725,6.04725 0 0 0 12.0945,0 z"
       style="fill:none;stroke:#ff0000;stroke-width:0.377953;stroke-dasharray:none;stroke-opacity:1"
       id="path1230" /></g></svg>
