<?xml version="1.0" encoding="UTF-8" standalone="no"?>
<!-- Created with Inkscape (http://www.inkscape.org/) -->

<svg
   width="149.35162mm"
   height="30.352669mm"
   viewBox="0 0 149.35162 30.352668"
   version="1.1"
   id="svg5"
   sodipodi:docname="X_carriage2.svg"
   inkscape:version="1.2.1 (9c6d41e410, 2022-07-14)"
   xml:space="preserve"
   xmlns:inkscape="http://www.inkscape.org/namespaces/inkscape"
   xmlns:sodipodi="http://sodipodi.sourceforge.net/DTD/sodipodi-0.dtd"
   xmlns="http://www.w3.org/2000/svg"
   xmlns:svg="http://www.w3.org/2000/svg"><sodipodi:namedview
     id="namedview7"
     pagecolor="#ffffff"
     bordercolor="#000000"
     borderopacity="0.25"
     inkscape:showpageshadow="2"
     inkscape:pageopacity="0.0"
     inkscape:pagecheckerboard="0"
     inkscape:deskcolor="#d1d1d1"
     inkscape:document-units="mm"
     showgrid="true"
     inkscape:zoom="1.829812"
     inkscape:cx="115.58564"
     inkscape:cy="-0.54650423"
     inkscape:current-layer="layer1"><inkscape:grid
       type="xygrid"
       id="grid1049"
       spacingx="10"
       units="mm"
       spacingy="10"
       originx="-385.14903"
       originy="93.399935" /></sodipodi:namedview><defs
     id="defs2" /><g
     inkscape:label="Layer 1"
     inkscape:groupmode="layer"
     id="layer1"
     transform="translate(-385.14904,93.399939)"><g
       id="g1650"
       transform="rotate(90,459.82478,-78.2236)"
       style="stroke-width:0.1;stroke-dasharray:none"><path
         fill="none"
         stroke-width="0.352778"
         stroke-linecap="round"
         stroke-linejoin="round"
         stroke="#ff0000"
         stroke-opacity="1"
         stroke-miterlimit="10"
         d="m 444.82483,-7.2250209 c 0,1.3807942 1.11896,2.5011392 2.49976,2.5011392 h 2.03536 c 0.56637,0 1.12034,0.1598524 1.59852,0.4616429 1.13137,0.7124456 2.57005,0.7179578 3.7083,0.013781 1.93477,-1.1975154 4.38079,-1.1975154 6.31555,0 1.13689,0.7041773 2.57556,0.6986651 3.70693,-0.013781 0.47955,-0.3017905 1.03353,-0.4616429 1.59852,-0.4616429 h 2.03674 c 1.3808,0 2.49976,-1.120345 2.49976,-2.5011392 v -9.5553171 c 0,-1.707389 0.72761,-3.333474 1.99954,-4.471734 2.47082,-2.208995 2.68166,-6.002734 0.47266,-8.472179 -1.13826,-1.271929 -2.76434,-1.999533 -4.47173,-1.999533 -6.62836,0 -11.99996,-5.372971 -11.99996,-11.999957 v -68.999749 c 0,-6.62699 5.3716,-11.99996 11.99996,-11.99996 3.3128,0 5.99998,-2.6858 5.99998,-5.99998 0,-1.70738 -0.72761,-3.33347 -2.00091,-4.47173 -1.27193,-1.13826 -1.99954,-2.76435 -1.99954,-4.47173 v -9.5567 c 0,-1.38079 -1.11896,-2.49976 -2.49976,-2.49976 h -2.03674 c -0.56499,0 -1.11897,-0.15985 -1.59852,-0.46164 -0.89297,-0.56224 -1.99402,-0.69178 -2.99448,-0.3514 -2.50941,0.85576 -5.23103,0.85576 -7.74182,0 -0.99908,-0.34038 -2.10013,-0.21084 -2.99448,0.3514 -0.47818,0.30179 -1.03215,0.46164 -1.59852,0.46164 h -2.03536 c -1.3808,0 -2.49976,1.11897 -2.49976,2.49976 z m 0,0"
         id="path504"
         style="stroke-width:0.1;stroke-dasharray:none" /><path
         fill="none"
         stroke-width="0.352778"
         stroke-linecap="round"
         stroke-linejoin="round"
         stroke="#ff0000"
         stroke-opacity="1"
         stroke-miterlimit="10"
         d="m 452.82435,-147.72291 c 0.8282,0 1.4993,-0.67248 1.4993,-1.50068 0,-0.8282 -0.6711,-1.49931 -1.4993,-1.49931 -0.82821,0 -1.50069,0.67111 -1.50069,1.49931 0,0.8282 0.67248,1.50068 1.50069,1.50068 z m 0,0"
         id="path506"
         style="stroke-width:0.1;stroke-dasharray:none" /><path
         fill="none"
         stroke-width="0.352778"
         stroke-linecap="round"
         stroke-linejoin="round"
         stroke="#ff0000"
         stroke-opacity="1"
         stroke-miterlimit="10"
         d="m 462.82477,-147.72291 c 0.8282,0 1.49931,-0.67248 1.49931,-1.50068 0,-0.8282 -0.67111,-1.49931 -1.49931,-1.49931 -0.82958,0 -1.50068,0.67111 -1.50068,1.49931 0,0.8282 0.6711,1.50068 1.50068,1.50068 z m 0,0"
         id="path508"
         style="stroke-width:0.1;stroke-dasharray:none" /><path
         fill="none"
         stroke-width="0.352778"
         stroke-linecap="round"
         stroke-linejoin="round"
         stroke="#ff0000"
         stroke-opacity="1"
         stroke-miterlimit="10"
         d="m 452.82435,-132.72296 c 0.8282,0 1.4993,-0.67249 1.4993,-1.50069 0,-0.8282 -0.6711,-1.4993 -1.4993,-1.4993 -0.82821,0 -1.50069,0.6711 -1.50069,1.4993 0,0.8282 0.67248,1.50069 1.50069,1.50069 z m 0,0"
         id="path510"
         style="stroke-width:0.1;stroke-dasharray:none" /><path
         fill="none"
         stroke-width="0.352778"
         stroke-linecap="round"
         stroke-linejoin="round"
         stroke="#ff0000"
         stroke-opacity="1"
         stroke-miterlimit="10"
         d="m 452.82435,-20.724283 c 0.8282,0 1.4993,-0.671105 1.4993,-1.500684 0,-0.828201 -0.6711,-1.499305 -1.4993,-1.499305 -0.82821,0 -1.50069,0.671104 -1.50069,1.499305 0,0.829579 0.67248,1.500684 1.50069,1.500684 z m 0,0"
         id="path512"
         style="stroke-width:0.1;stroke-dasharray:none" /><path
         fill="none"
         stroke-width="0.352778"
         stroke-linecap="round"
         stroke-linejoin="round"
         stroke="#ff0000"
         stroke-opacity="1"
         stroke-miterlimit="10"
         d="m 462.82477,-5.7243373 c 0.8282,0 1.49931,-0.6724827 1.49931,-1.5006835 0,-0.8282013 -0.67111,-1.4993056 -1.49931,-1.4993056 -0.82958,0 -1.50068,0.6711043 -1.50068,1.4993056 0,0.8282008 0.6711,1.5006835 1.50068,1.5006835 z m 0,0"
         id="path514"
         style="stroke-width:0.1;stroke-dasharray:none" /><path
         fill="none"
         stroke-width="0.352778"
         stroke-linecap="round"
         stroke-linejoin="round"
         stroke="#ff0000"
         stroke-opacity="1"
         stroke-miterlimit="10"
         d="m 452.82435,-5.7243373 c 0.8282,0 1.4993,-0.6724827 1.4993,-1.5006835 0,-0.8282013 -0.6711,-1.4993056 -1.4993,-1.4993056 -0.82821,0 -1.50069,0.6711043 -1.50069,1.4993056 0,0.8282008 0.67248,1.5006835 1.50069,1.5006835 z m 0,0"
         id="path516"
         style="stroke-width:0.1;stroke-dasharray:none" /><path
         fill="none"
         stroke-width="0.352778"
         stroke-linecap="round"
         stroke-linejoin="round"
         stroke="#ff0000"
         stroke-opacity="1"
         stroke-miterlimit="10"
         d="m 457.82386,-140.52265 c 0.66284,0 1.20028,-0.53744 1.20028,-1.20027 0,-0.66284 -0.53744,-1.20028 -1.20028,-1.20028 -0.66283,0 -1.20027,0.53744 -1.20027,1.20028 0,0.66283 0.53744,1.20027 1.20027,1.20027 z m 0,0"
         id="path518"
         style="stroke-width:0.1;stroke-dasharray:none" /><path
         fill="none"
         stroke-width="0.352778"
         stroke-linecap="round"
         stroke-linejoin="round"
         stroke="#ff0000"
         stroke-opacity="1"
         stroke-miterlimit="10"
         d="m 468.82474,-129.52316 c 0.66284,0 1.19889,-0.53743 1.19889,-1.20027 0,-0.66283 -0.53605,-1.20027 -1.19889,-1.20027 -0.66284,0 -1.20027,0.53744 -1.20027,1.20027 0,0.66284 0.53743,1.20027 1.20027,1.20027 z m 0,0"
         id="path520"
         style="stroke-width:0.1;stroke-dasharray:none" /><path
         fill="none"
         stroke-width="0.352778"
         stroke-linecap="round"
         stroke-linejoin="round"
         stroke="#ff0000"
         stroke-opacity="1"
         stroke-miterlimit="10"
         d="m 457.82386,-129.52316 c 0.66284,0 1.20028,-0.53743 1.20028,-1.20027 0,-0.66283 -0.53744,-1.20027 -1.20028,-1.20027 -0.66283,0 -1.20027,0.53744 -1.20027,1.20027 0,0.66284 0.53744,1.20027 1.20027,1.20027 z m 0,0"
         id="path522"
         style="stroke-width:0.1;stroke-dasharray:none" /><path
         fill="none"
         stroke-width="0.352778"
         stroke-linecap="round"
         stroke-linejoin="round"
         stroke="#ff0000"
         stroke-opacity="1"
         stroke-miterlimit="10"
         d="m 468.82474,-24.524912 c 0.66284,0 1.19889,-0.536057 1.19889,-1.200271 0,-0.661459 -0.53605,-1.198894 -1.19889,-1.198894 -0.66284,0 -1.20027,0.537435 -1.20027,1.198894 0,0.664214 0.53743,1.200271 1.20027,1.200271 z m 0,0"
         id="path524"
         style="stroke-width:0.1;stroke-dasharray:none" /><path
         fill="none"
         stroke-width="0.352778"
         stroke-linecap="round"
         stroke-linejoin="round"
         stroke="#ff0000"
         stroke-opacity="1"
         stroke-miterlimit="10"
         d="m 457.82386,-13.524034 c 0.66284,0 1.20028,-0.537435 1.20028,-1.200271 0,-0.662836 -0.53744,-1.200271 -1.20028,-1.200271 -0.66283,0 -1.20027,0.537435 -1.20027,1.200271 0,0.662836 0.53744,1.200271 1.20027,1.200271 z m 0,0"
         id="path526"
         style="stroke-width:0.1;stroke-dasharray:none" /><path
         fill="none"
         stroke-width="0.352778"
         stroke-linecap="round"
         stroke-linejoin="round"
         stroke="#ff0000"
         stroke-opacity="1"
         stroke-miterlimit="10"
         d="m 457.82386,-24.524912 c 0.66284,0 1.20028,-0.536057 1.20028,-1.200271 0,-0.661459 -0.53744,-1.198894 -1.20028,-1.198894 -0.66283,0 -1.20027,0.537435 -1.20027,1.198894 0,0.664214 0.53744,1.200271 1.20027,1.200271 z m 0,0"
         id="path528"
         style="stroke-width:0.1;stroke-dasharray:none" /><path
         fill="none"
         stroke-width="0.352778"
         stroke-linecap="round"
         stroke-linejoin="round"
         stroke="#ff0000"
         stroke-opacity="1"
         stroke-miterlimit="10"
         d="m 450.82481,-117.07395 c 0.63389,0 1.14928,-0.51401 1.14928,-1.14929 0,-0.63527 -0.51539,-1.15066 -1.14928,-1.15066 -0.63528,0 -1.15067,0.51539 -1.15067,1.15066 0,0.63528 0.51539,1.14929 1.15067,1.14929 z m 0,0"
         id="path530"
         style="stroke-width:0.1;stroke-dasharray:none" /><path
         fill="none"
         stroke-width="0.352778"
         stroke-linecap="round"
         stroke-linejoin="round"
         stroke="#ff0000"
         stroke-opacity="1"
         stroke-miterlimit="10"
         d="m 450.82481,-97.073111 c 0.63389,0 1.14928,-0.515387 1.14928,-1.150662 0,-0.635276 -0.51539,-1.150662 -1.14928,-1.150662 -0.63528,0 -1.15067,0.515386 -1.15067,1.150662 0,0.635275 0.51539,1.150662 1.15067,1.150662 z m 0,0"
         id="path532"
         style="stroke-width:0.1;stroke-dasharray:none" /><path
         fill="none"
         stroke-width="0.352778"
         stroke-linecap="round"
         stroke-linejoin="round"
         stroke="#ff0000"
         stroke-opacity="1"
         stroke-miterlimit="10"
         d="m 450.82481,-77.073643 c 0.63389,0 1.14928,-0.515386 1.14928,-1.150662 0,-0.635275 -0.51539,-1.149284 -1.14928,-1.149284 -0.63528,0 -1.15067,0.514009 -1.15067,1.149284 0,0.635276 0.51539,1.150662 1.15067,1.150662 z m 0,0"
         id="path534"
         style="stroke-width:0.1;stroke-dasharray:none" /><path
         fill="none"
         stroke-width="0.352778"
         stroke-linecap="round"
         stroke-linejoin="round"
         stroke="#ff0000"
         stroke-opacity="1"
         stroke-miterlimit="10"
         d="m 450.82481,-57.074175 c 0.63389,0 1.14928,-0.514008 1.14928,-1.149283 0,-0.635276 -0.51539,-1.150662 -1.14928,-1.150662 -0.63528,0 -1.15067,0.515386 -1.15067,1.150662 0,0.635275 0.51539,1.149283 1.15067,1.149283 z m 0,0"
         id="path536"
         style="stroke-width:0.1;stroke-dasharray:none" /><path
         fill="none"
         stroke-width="0.352778"
         stroke-linecap="round"
         stroke-linejoin="round"
         stroke="#ff0000"
         stroke-opacity="1"
         stroke-miterlimit="10"
         d="m 450.82481,-37.074706 c 0.63389,0 1.14928,-0.514009 1.14928,-1.149284 0,-0.635276 -0.51539,-1.150662 -1.14928,-1.150662 -0.63528,0 -1.15067,0.515386 -1.15067,1.150662 0,0.635275 0.51539,1.149284 1.15067,1.149284 z m 0,0"
         id="path538"
         style="stroke-width:0.1;stroke-dasharray:none" /></g></g></svg>
