<?xml version="1.0" encoding="UTF-8" standalone="no"?>
<!-- Created with Inkscape (http://www.inkscape.org/) -->

<svg
   width="140.06459mm"
   height="90.264595mm"
   viewBox="0 0 140.06459 90.264595"
   version="1.1"
   id="svg1"
   inkscape:version="1.4 (86a8ad7, 2024-10-11)"
   xml:space="preserve"
   sodipodi:docname="card_guide_R4i.svg"
   xmlns:inkscape="http://www.inkscape.org/namespaces/inkscape"
   xmlns:sodipodi="http://sodipodi.sourceforge.net/DTD/sodipodi-0.dtd"
   xmlns="http://www.w3.org/2000/svg"
   xmlns:svg="http://www.w3.org/2000/svg"><sodipodi:namedview
     id="namedview1"
     pagecolor="#ffffff"
     bordercolor="#000000"
     borderopacity="0.25"
     inkscape:showpageshadow="2"
     inkscape:pageopacity="0.0"
     inkscape:pagecheckerboard="0"
     inkscape:deskcolor="#d1d1d1"
     inkscape:document-units="mm"
     showgrid="true"
     inkscape:zoom="1.1570059"
     inkscape:cx="244.1647"
     inkscape:cy="105.87673"
     inkscape:current-layer="layer1"><inkscape:grid
       id="grid1"
       units="mm"
       originx="-40.581858"
       originy="-422.40728"
       spacingx="0.99999986"
       spacingy="1"
       empcolor="#0099e5"
       empopacity="0.30196078"
       color="#0099e5"
       opacity="0.14901961"
       empspacing="5"
       enabled="true"
       visible="true" /></sodipodi:namedview><defs
     id="defs1"><marker
       id="DistanceX"
       orient="auto"
       refX="0"
       refY="0"
       style="overflow:visible"><path
         d="M 3,-3 -3,3 M 0,-5 V 5"
         style="stroke:#000000;stroke-width:0.5"
         id="path1" /></marker><pattern
       id="Hatch"
       patternUnits="userSpaceOnUse"
       width="8"
       height="8"
       x="0"
       y="0"><path
         d="M8 4 l-4,4"
         stroke="#000000"
         stroke-width="0.25"
         linecap="square"
         id="path2" /><path
         d="M6 2 l-4,4"
         stroke="#000000"
         stroke-width="0.25"
         linecap="square"
         id="path3" /><path
         d="M4 0 l-4,4"
         stroke="#000000"
         stroke-width="0.25"
         linecap="square"
         id="path4" /></pattern><symbol
       id="*MODEL_SPACE" /><symbol
       id="*PAPER_SPACE" /></defs><g
     inkscape:label="Layer 1"
     inkscape:groupmode="layer"
     id="layer1"
     transform="translate(-40.581859,-422.40729)"><path
       d="m 115.7803,478.53957 a 0.06615,0.06615 0 0 0 -0.1323,0 0.06615,0.06615 0 0 0 0.1323,0 z"
       style="fill:none;stroke:#ff0000;stroke-width:0.1;stroke-dasharray:none;stroke-opacity:1"
       id="path40" /><path
       d="m 120.61313,454.53959 h 40.70099 v 54.99999 h -2.59997 a 1.0000001,1.0000001 0 0 0 -1,0.99999 v 2.00002 h 22.8 v -87 a 3,3 0 0 0 -3,-3.00001 H 43.714149 a 3,3 0 0 0 -2.999999,3.00001 v 87 h 32.999968 v -2.00002 a 1.0000001,1.0000001 0 0 0 -1.000001,-0.99999 h -2.599991 v -54.99999 -9.00002 a 1.0000001,1.0000001 0 0 1 1.000001,-0.99999 h 7.999999 a 1.0000001,1.0000001 0 0 1 1.000001,0.99999 v 8 a 1.0000001,1.0000001 0 0 0 0.999998,1.00002 h 29.701045 a 5,5 0 0 1 9.79796,0 z"
       style="fill:none;stroke:#ff0000;stroke-width:0.1;stroke-dasharray:none;stroke-opacity:1"
       id="path305" /></g></svg>
