0
SECTION
2
HEADER
9
$INSUNITS
70
4
9
$ACADVER
1
AC1014
9
$HANDSEED
5
FFFF
0
ENDSEC
0
SECTION
2
TABLES
0
TABLE
2
VPORT
5
8
100
AcDbSymbolTable
0
ENDTAB
0
TABLE
2
LTYPE
5
5
100
AcDbSymbolTable
0
LTYPE
5
14
100
AcDbSymbolTableRecord
100
AcDbLinetypeTableRecord
2
BYBLOCK
70
0
0
LTYPE
5
15
100
AcDbSymbolTableRecord
100
AcDbLinetypeTableRecord
2
BYLAYER
70
0
0
LTYPE
5
16
100
AcDbSymbolTableRecord
100
AcDbLinetypeTableRecord
2
DASHED
70
0
3
Dashed __ __ __ __ __ __ __ __ __ __ __ __ __ _
72
65
73
2
40
0.75
49
0.5
74
0
49
-0.25
74
0
0
ENDTAB
0
TABLE
2
LAYER
5
2
100
AcDbSymbolTable
70
2
0
LAYER
5
50
100
AcDbSymbolTableRecord
100
AcDbLayerTableRecord
2
0
70
0
62
7
6
CONTINUOUS
0
ENDTAB
0
TABLE
2
STYLE
5
3
100
AcDbSymbolTable
70
1
0
STYLE
5
11
100
AcDbSymbolTableRecord
100
AcDbTextStyleTableRecord
2
STANDARD
70
0
0
ENDTAB
0
TABLE
2
VIEW
5
6
100
AcDbSymbolTable
70
0
0
ENDTAB
0
TABLE
2
UCS
5
7
100
AcDbSymbolTable
70
0
0
ENDTAB
0
TABLE
2
APPID
5
9
100
AcDbSymbolTable
70
2
0
APPID
5
12
100
AcDbSymbolTableRecord
100
AcDbRegAppTableRecord
2
ACAD
70
0
0
ENDTAB
0
TABLE
2
DIMSTYLE
5
A
100
AcDbSymbolTable
70
1
0
ENDTAB
0
TABLE
2
BLOCK_RECORD
5
1
100
AcDbSymbolTable
70
1
0
BLOCK_RECORD
5
1F
100
AcDbSymbolTableRecord
100
AcDbBlockTableRecord
2
*MODEL_SPACE
0
BLOCK_RECORD
5
1B
100
AcDbSymbolTableRecord
100
AcDbBlockTableRecord
2
*PAPER_SPACE
0
ENDTAB
0
ENDSEC
0
SECTION
2
BLOCKS
0
BLOCK
5
20
100
AcDbEntity
100
AcDbBlockBegin
2
*MODEL_SPACE
0
ENDBLK
5
21
100
AcDbEntity
100
AcDbBlockEnd
0
BLOCK
5
1C
100
AcDbEntity
100
AcDbBlockBegin
2
*PAPER_SPACE
0
ENDBLK
5
1D
100
AcDbEntity
100
AcDbBlockEnd
0
ENDSEC
0
SECTION
2
ENTITIES
0
POINT
5
100
100
AcDbEntity
8
0
100
AcDbPoint
10
30
20
239.99999612569809
30
0
0
POINT
5
101
100
AcDbEntity
8
0
100
AcDbPoint
10
30
20
239.99999612569809
30
0
0
POINT
5
102
100
AcDbEntity
8
0
100
AcDbPoint
10
-65.000000938773169
20
200.99999602138993
30
0
0
POINT
5
103
100
AcDbEntity
8
0
100
AcDbPoint
10
-54.000000774860396
20
200.99999602138993
30
0
0
POINT
5
104
100
AcDbEntity
8
0
100
AcDbPoint
10
-54.000000774860396
20
189.99999585747716
30
0
0
POINT
5
105
100
AcDbEntity
8
0
100
AcDbPoint
10
-28.500000819563862
20
195.39999545514581
30
0
0
POINT
5
106
100
AcDbEntity
8
0
100
AcDbPoint
10
-23.000001147389408
20
200.99999602138993
30
0
0
POINT
5
107
100
AcDbEntity
8
0
100
AcDbPoint
10
-34.000001311302185
20
189.99999585747716
30
0
0
POINT
5
108
100
AcDbEntity
8
0
100
AcDbPoint
10
-34.000001311302185
20
200.99999602138993
30
0
0
POINT
5
109
100
AcDbEntity
8
0
100
AcDbPoint
10
-75.000002533197403
20
-30.00000387430191
30
0
0
POINT
5
110
100
AcDbEntity
8
0
100
AcDbPoint
10
-80.000002622605777
20
100.00004628878455
30
0
0
POINT
5
111
100
AcDbEntity
8
0
100
AcDbPoint
10
-80.000002622602864
20
-60.076928590353553
30
0
0
POINT
5
112
100
AcDbEntity
8
0
100
AcDbPoint
10
79.999997556209635
20
99.999921288783469
30
0
0
POINT
5
113
100
AcDbEntity
8
0
100
AcDbPoint
10
79.99999755620955
20
-60.076928590352516
30
0
0
POINT
5
114
100
AcDbEntity
8
0
100
AcDbPoint
10
-75.000002533197403
20
-30.00000387430191
30
0
0
POINT
5
115
100
AcDbEntity
8
0
100
AcDbPoint
10
0
20
0
30
0
0
POINT
5
116
100
AcDbEntity
8
0
100
AcDbPoint
10
-185.00000277161604
20
100.07692468624822
30
0
0
POINT
5
117
100
AcDbEntity
8
0
100
AcDbPoint
10
-185.00000277161229
20
-60.076925267393754
30
0
0
POINT
5
118
100
AcDbEntity
8
0
100
AcDbPoint
10
-155.00000259280196
20
100.07692468624822
30
0
0
POINT
5
119
100
AcDbEntity
8
0
100
AcDbPoint
10
-155.0000025928058
20
-60.076925267393754
30
0
0
POINT
5
120
100
AcDbEntity
8
0
100
AcDbPoint
10
180.00000268220901
20
50.00000074505806
30
0
0
POINT
5
121
100
AcDbEntity
8
0
100
AcDbPoint
10
180.00000268220901
20
50.00000074505806
30
0
0
POINT
5
122
100
AcDbEntity
8
0
100
AcDbPoint
10
-45
20
239.99999612569809
30
0
0
POINT
5
123
100
AcDbEntity
8
0
100
AcDbPoint
10
74.999997466802611
20
-30.00000387430191
30
0
0
POINT
5
124
100
AcDbEntity
8
0
100
AcDbPoint
10
74.999997466802611
20
-30.00000387430191
30
0
0
POINT
5
125
100
AcDbEntity
8
0
100
AcDbPoint
10
79.999997556209593
20
-80.000001788139343
30
0
0
POINT
5
126
100
AcDbEntity
8
0
100
AcDbPoint
10
79.999997556209593
20
-240.0000055134297
30
0
0
POINT
5
127
100
AcDbEntity
8
0
100
AcDbPoint
10
-80.00000262260437
20
-80.000001788139286
30
0
0
POINT
5
128
100
AcDbEntity
8
0
100
AcDbPoint
10
-80.000002622604356
20
-240.0000055134297
30
0
0
POINT
5
129
100
AcDbEntity
8
0
100
AcDbPoint
10
0
20
-340.00000506639481
30
0
0
POINT
5
130
100
AcDbEntity
8
0
100
AcDbPoint
10
1.3877787807814457e-16
20
-310.00000461935997
30
0
0
POINT
5
131
100
AcDbEntity
8
0
100
AcDbPoint
10
-3.1225022567582528e-15
20
-105.50000154972076
30
0
0
POINT
5
132
100
AcDbEntity
8
0
100
AcDbPoint
10
0
20
290.00000432133675
30
0
0
POINT
5
133
100
AcDbEntity
8
0
100
AcDbPoint
10
0
20
290.00000432133675
30
0
0
POINT
5
134
100
AcDbEntity
8
0
100
AcDbPoint
10
0
20
290.00000432133675
30
0
0
POINT
5
135
100
AcDbEntity
8
0
100
AcDbPoint
10
0
20
-476.00000506639481
30
0
0
POINT
5
136
100
AcDbEntity
8
0
100
AcDbPoint
10
1.3877787807814457e-16
20
-446.00000461935997
30
0
0
POINT
5
137
100
AcDbEntity
8
0
100
AcDbPoint
10
-35.60002443646318
20
-452.00000630390349
30
0
0
POINT
5
138
100
AcDbEntity
8
0
100
AcDbPoint
10
-45.60002443646318
20
-442.00000630390349
30
0
0
CIRCLE
5
139
100
AcDbEntity
8
0
100
AcDbCircle
10
30
20
239.99999612569809
30
0
40
1
210
0
220
0
230
1
0
CIRCLE
5
140
100
AcDbEntity
8
0
100
AcDbCircle
10
44.99999999999978
20
239.99999612569812
30
0
40
1
210
0
220
0
230
1
0
CIRCLE
5
141
100
AcDbEntity
8
0
100
AcDbCircle
10
-45
20
239.99999612569809
30
0
40
1
210
0
220
0
230
1
0
CIRCLE
5
142
100
AcDbEntity
8
0
100
AcDbCircle
10
-30
20
239.99999612569809
30
0
40
1
210
0
220
0
230
1
0
LINE
5
143
100
AcDbEntity
8
0
100
AcDbLine
10
-83.000001353053847
20
246.00001237580574
30
0
11
83.000001263875461
21
246.00000359900469
31
0
0
CIRCLE
5
144
100
AcDbEntity
8
0
100
AcDbCircle
10
-69.000000834465354
20
239.00000446855285
30
0
40
1.1000000000000001
210
0
220
0
230
1
0
CIRCLE
5
145
100
AcDbEntity
8
0
100
AcDbCircle
10
-81.000001057982757
20
239.00000446855285
30
0
40
1.1000000000000001
210
0
220
0
230
1
0
CIRCLE
5
146
100
AcDbEntity
8
0
100
AcDbCircle
10
-81.000001057982757
20
231.00000431954123
30
0
40
1.1000000000000001
210
0
220
0
230
1
0
CIRCLE
5
147
100
AcDbEntity
8
0
100
AcDbCircle
10
-75.000000938773482
20
235.00000439404704
30
0
40
1.5000000000000036
210
0
220
0
230
1
0
CIRCLE
5
148
100
AcDbEntity
8
0
100
AcDbCircle
10
-64.000000774860709
20
235.00000439404704
30
0
40
1.5000000000000071
210
0
220
0
230
1
0
CIRCLE
5
149
100
AcDbEntity
8
0
100
AcDbCircle
10
-64.000000774860709
20
224.00000423013427
30
0
40
1.4999999999999982
210
0
220
0
230
1
0
LINE
5
150
100
AcDbEntity
8
0
100
AcDbLine
10
-58.500000377365062
20
229.0000044089482
30
0
11
-58.500000377365069
21
223.0000041524697
31
0
0
LINE
5
151
100
AcDbEntity
8
0
100
AcDbLine
10
-63.500000377365076
20
218.0000041524697
30
0
11
-64.500001262305986
21
218.0000041524697
31
0
0
LINE
5
152
100
AcDbEntity
8
0
100
AcDbLine
10
-84.000001378700944
20
225.00001124208893
30
0
11
-84.000001378700958
21
245.00001240149746
31
0
0
ARC
5
153
100
AcDbEntity
8
0
100
AcDbCircle
10
-63.500000377365062
20
223.0000041524697
30
0
40
5
210
0
220
0
230
1
100
AcDbArc
50
-90.000000000000142
51
0
0
ARC
5
154
100
AcDbEntity
8
0
100
AcDbCircle
10
63.500000700354342
20
222.99999566544801
30
0
40
5.0000000000000195
210
0
220
0
230
1
100
AcDbArc
50
180.38147206217454
51
269.99453944554591
0
CIRCLE
5
155
100
AcDbEntity
8
0
100
AcDbCircle
10
64.00000077486014
20
223.99999575485498
30
0
40
1.4999999999999982
210
0
220
0
230
1
0
CIRCLE
5
156
100
AcDbEntity
8
0
100
AcDbCircle
10
81.000001057982189
20
230.99999584426197
30
0
40
1.1000000000000001
210
0
220
0
230
1
0
CIRCLE
5
157
100
AcDbEntity
8
0
100
AcDbCircle
10
69.000000834464799
20
238.99999599327359
30
0
40
1.1000000000000001
210
0
220
0
230
1
0
CIRCLE
5
158
100
AcDbEntity
8
0
100
AcDbCircle
10
64.00000077486014
20
234.99999591876775
30
0
40
1.5000000000000071
210
0
220
0
230
1
0
CIRCLE
5
159
100
AcDbEntity
8
0
100
AcDbCircle
10
75.000000938772914
20
234.99999591876775
30
0
40
1.5000000000000036
210
0
220
0
230
1
0
CIRCLE
5
160
100
AcDbEntity
8
0
100
AcDbCircle
10
81.000001057982189
20
238.99999599327359
30
0
40
1.1000000000000001
210
0
220
0
230
1
0
LINE
5
161
100
AcDbEntity
8
0
100
AcDbLine
10
42.000000700354349
20
233.99999603629115
30
0
11
-43.500000700354597
21
233.99999603629112
31
0
0
CIRCLE
5
162
100
AcDbEntity
8
0
100
AcDbCircle
10
15.000000000000009
20
239.99999612569809
30
0
40
1
210
0
220
0
230
1
0
CIRCLE
5
163
100
AcDbEntity
8
0
100
AcDbCircle
10
-14.999999999999991
20
239.99999612569809
30
0
40
1
210
0
220
0
230
1
0
CIRCLE
5
164
100
AcDbEntity
8
0
100
AcDbCircle
10
8.8817841970012523e-15
20
239.99999612569809
30
0
40
1
210
0
220
0
230
1
0
CIRCLE
5
165
100
AcDbEntity
8
0
100
AcDbCircle
10
-65.000000938773169
20
200.99999602138993
30
0
40
1.6000000000000003
210
0
220
0
230
1
0
CIRCLE
5
166
100
AcDbEntity
8
0
100
AcDbCircle
10
-54.000000774860396
20
200.99999602138993
30
0
40
1.6000000000000003
210
0
220
0
230
1
0
CIRCLE
5
167
100
AcDbEntity
8
0
100
AcDbCircle
10
-54.000000774860396
20
189.99999585747716
30
0
40
1.6000000000000003
210
0
220
0
230
1
0
LINE
5
168
100
AcDbEntity
8
0
100
AcDbLine
10
-70.500000610947609
20
200.89999545514587
30
0
11
-70.500000610947609
21
201.099996587634
31
0
0
LINE
5
169
100
AcDbEntity
8
0
100
AcDbLine
10
-65.000000610947609
20
206.59999658763405
30
0
11
-59.500001266598716
21
206.59999658763405
31
0
0
LINE
5
170
100
AcDbEntity
8
0
100
AcDbLine
10
-48.500000283122056
20
195.39999545514581
30
0
11
-48.500000283122056
21
201.09999658763402
31
0
0
LINE
5
171
100
AcDbEntity
8
0
100
AcDbLine
10
-54.000000283122063
20
206.59999658763405
30
0
11
-59.500001266598716
21
206.59999658763405
31
0
0
LINE
5
172
100
AcDbEntity
8
0
100
AcDbLine
10
-48.500000283122056
20
195.39999545514581
30
0
11
-48.500000283122077
21
190.09999625980853
31
0
0
LINE
5
173
100
AcDbEntity
8
0
100
AcDbLine
10
-59.500001266598694
20
190.09999625980853
30
0
11
-59.500001266598716
21
189.89999545514587
31
0
0
ARC
5
174
100
AcDbEntity
8
0
100
AcDbCircle
10
-65.000000610947595
20
201.09999658763402
30
0
40
5.5000000000000071
210
0
220
0
230
1
100
AcDbArc
50
90.000000000000142
51
180
0
ARC
5
175
100
AcDbEntity
8
0
100
AcDbCircle
10
-54.000000283122048
20
201.09999658763405
30
0
40
5.4999999999999893
210
0
220
0
230
1
100
AcDbArc
50
0
51
90.000000000000142
0
ARC
5
176
100
AcDbEntity
8
0
100
AcDbCircle
10
-54.000000283122048
20
190.09999625980845
30
0
40
5.4999999999999716
210
0
220
0
230
1
100
AcDbArc
50
-90.000000000000142
51
0
0
ARC
5
177
100
AcDbEntity
8
0
100
AcDbCircle
10
-54.000001266598687
20
190.09999625980851
30
0
40
5.5000000000000071
210
0
220
0
230
1
100
AcDbArc
50
180
51
269.99999999999983
0
ARC
5
178
100
AcDbEntity
8
0
100
AcDbCircle
10
-65.000000610947595
20
200.89999545514584
30
0
40
5.5000000000000071
210
0
220
0
230
1
100
AcDbArc
50
180
51
269.99999999999983
0
ARC
5
179
100
AcDbEntity
8
0
100
AcDbCircle
10
-34.000000819563887
20
190.09999625980851
30
0
40
5.5000000000000071
210
0
220
0
230
1
100
AcDbArc
50
-89.999999999999801
51
0
0
LINE
5
180
100
AcDbEntity
8
0
100
AcDbLine
10
-34.000001803040512
20
206.59999658763405
30
0
11
-28.500000819563862
21
206.59999658763405
31
0
0
LINE
5
181
100
AcDbEntity
8
0
100
AcDbLine
10
-17.500001475214972
20
200.89999545514587
30
0
11
-17.500001475214972
21
201.099996587634
31
0
0
ARC
5
182
100
AcDbEntity
8
0
100
AcDbCircle
10
-23.00000147521498
20
201.09999658763402
30
0
40
5.5000000000000071
210
0
220
0
230
1
100
AcDbArc
50
0
51
89.999999999999815
0
LINE
5
183
100
AcDbEntity
8
0
100
AcDbLine
10
-28.50000081956388
20
190.09999625980853
30
0
11
-28.500000819563862
21
189.89999545514587
31
0
0
CIRCLE
5
184
100
AcDbEntity
8
0
100
AcDbCircle
10
-23.000001147389408
20
200.99999602138993
30
0
40
1.6000000000000003
210
0
220
0
230
1
0
ARC
5
185
100
AcDbEntity
8
0
100
AcDbCircle
10
-34.000001803040533
20
190.09999625980845
30
0
40
5.4999999999999716
210
0
220
0
230
1
100
AcDbArc
50
180
51
270.00000000000023
0
LINE
5
186
100
AcDbEntity
8
0
100
AcDbLine
10
-39.500001803040519
20
195.39999545514581
30
0
11
-39.500001803040519
21
201.09999658763402
31
0
0
ARC
5
187
100
AcDbEntity
8
0
100
AcDbCircle
10
-23.00000147521498
20
200.89999545514584
30
0
40
5.5000000000000071
210
0
220
0
230
1
100
AcDbArc
50
-89.999999999999801
51
0
0
ARC
5
188
100
AcDbEntity
8
0
100
AcDbCircle
10
-34.000001803040533
20
201.09999658763405
30
0
40
5.4999999999999716
210
0
220
-0
230
1
100
AcDbArc
50
89.999999999999787
51
180
0
CIRCLE
5
189
100
AcDbEntity
8
0
100
AcDbCircle
10
-34.000001311302185
20
189.99999585747716
30
0
40
1.6000000000000003
210
0
220
0
230
1
0
CIRCLE
5
190
100
AcDbEntity
8
0
100
AcDbCircle
10
-34.000001311302185
20
200.99999602138993
30
0
40
1.6000000000000003
210
0
220
0
230
1
0
LINE
5
191
100
AcDbEntity
8
0
100
AcDbLine
10
-23.000001475214962
20
206.59999658763405
30
0
11
-28.500000819563862
21
206.59999658763405
31
0
0
LINE
5
192
100
AcDbEntity
8
0
100
AcDbLine
10
-39.500001803040519
20
195.39999545514581
30
0
11
-39.500001803040504
21
190.09999625980853
31
0
0
CIRCLE
5
193
100
AcDbEntity
8
0
100
AcDbCircle
10
-75.000002533197403
20
-4.0233135223388672e-06
30
0
40
1
210
0
220
0
230
1
0
CIRCLE
5
194
100
AcDbEntity
8
0
100
AcDbCircle
10
-75.000002533197403
20
29.999995976686478
30
0
40
1
210
0
220
0
230
1
0
LWPOLYLINE
5
195
100
AcDbEntity
8
0
100
AcDbPolyline
90
6
70
1
43
0.0
10
-77.000002577905775
20
100.00004628878321
10
-70.000002443790407
20
100.00004628878011
10
-70.000002443790436
20
-60.076928590349198
10
-77.000002577902862
20
-60.076928590352246
10
-80.000002622602921
20
-57.076928545653558
10
-80.000002622605734
20
97.00004624408453
0
CIRCLE
5
196
100
AcDbEntity
8
0
100
AcDbCircle
10
-75.000002533197403
20
-44.000005453825004
30
0
40
1.5000000000000071
210
0
220
0
230
1
0
LINE
5
197
100
AcDbEntity
8
0
100
AcDbLine
10
-80.00000262260437
20
-38.000005379319177
30
0
11
-70.000002443790436
21
-38.000005379319184
31
0
0
LINE
5
198
100
AcDbEntity
8
0
100
AcDbLine
10
-80.00000262260437
20
67.99999763071537
30
0
11
-70.000002443790436
21
67.99999763071537
31
0
0
CIRCLE
5
199
100
AcDbEntity
8
0
100
AcDbCircle
10
-75.000002533197403
20
73.999997720122337
30
0
40
1.5000000000000071
210
0
220
0
230
1
0
CIRCLE
5
200
100
AcDbEntity
8
0
100
AcDbCircle
10
-75.000002533197403
20
93.999997720122337
30
0
40
1.5000000000000071
210
0
220
0
230
1
0
CIRCLE
5
201
100
AcDbEntity
8
0
100
AcDbCircle
10
74.999997466802611
20
93.999997720122337
30
0
40
1.5000000000000071
210
0
220
0
230
1
0
CIRCLE
5
202
100
AcDbEntity
8
0
100
AcDbCircle
10
74.999997466802611
20
73.999997720122337
30
0
40
1.5000000000000071
210
0
220
0
230
1
0
LINE
5
203
100
AcDbEntity
8
0
100
AcDbLine
10
69.999997377395644
20
67.99999763071537
30
0
11
79.999997556209593
21
67.99999763071537
31
0
0
CIRCLE
5
204
100
AcDbEntity
8
0
100
AcDbCircle
10
74.999997466802611
20
-44.000005453825004
30
0
40
1.5000000000000071
210
0
220
0
230
1
0
LWPOLYLINE
5
205
100
AcDbEntity
8
0
100
AcDbPolyline
90
6
70
1
43
0.0
10
76.999997511509534
20
-60.076928590352509
10
69.999997377395644
20
-60.076928590352487
10
69.999997377395644
20
99.999921288783469
10
76.999997511509633
20
99.999921288783469
10
79.999997556209635
20
96.999921244083467
10
79.99999755620955
20
-57.076928545652514
0
LINE
5
206
100
AcDbEntity
8
0
100
AcDbLine
10
69.999997377395644
20
-38.000005379319191
30
0
11
79.999997556209593
21
-38.000005379319191
31
0
0
LWPOLYLINE
5
207
100
AcDbEntity
8
0
100
AcDbPolyline
90
4
70
1
43
0.0
10
-80.000001221895218
20
143.0000015348196
10
80.000001221895218
20
143.0000015348196
10
80.000001221895218
20
111.00000105798244
10
-80.000001221895218
20
111.00000105798244
0
LINE
5
208
100
AcDbEntity
8
0
100
AcDbLine
10
-44.057608611111164
20
137.20004999999998
30
0
11
-41.057586388888907
21
137.20004999999998
31
0
0
SPLINE
5
209
100
AcDbEntity
8
0
100
AcDbSpline
70
0
71
3
72
10
73
6
74
0
42
0.000000001
43
0.0000000001
44
0.0000000001
40
0
40
0
40
0
40
0
40
1
40
1
40
2
40
2
40
2
40
2
10
-64.057603888888835
20
114.19999722222215
30
0
10
-63.339701111111076
20
114.19999722222215
30
0
10
-62.757617777777746
20
114.7820805555555
30
0
10
-62.757617777777746
20
116.21788611111108
30
0
10
-63.339701111111076
20
116.79996944444443
30
0
10
-64.057603888888835
20
116.79996944444443
30
0
0
SPLINE
5
210
100
AcDbEntity
8
0
100
AcDbSpline
70
0
71
3
72
10
73
6
74
0
42
0.000000001
43
0.0000000001
44
0.0000000001
40
0
40
0
40
0
40
0
40
1
40
1
40
2
40
2
40
2
40
2
10
-52.557612777777869
20
115.80002083333329
30
0
10
-46.372007222222258
20
115.80002083333329
30
0
10
-41.357623888888931
20
120.81440416666665
30
0
10
-41.357623888888931
20
133.18561527777771
30
0
10
-46.372007222222258
20
138.19999861111106
30
0
10
-52.557612777777869
20
138.19999861111106
30
0
0
SPLINE
5
211
100
AcDbEntity
8
0
100
AcDbSpline
70
0
71
3
72
10
73
6
74
0
42
0.000000001
43
0.0000000001
44
0.0000000001
40
0
40
0
40
0
40
0
40
1
40
1
40
2
40
2
40
2
40
2
10
-67.057626111111091
20
139.8000222222222
30
0
10
-67.775528888888928
20
139.8000222222222
30
0
10
-68.357612222222258
20
139.21793888888888
30
0
10
-68.357612222222258
20
137.78213333333332
30
0
10
-67.775528888888928
20
137.20004999999998
30
0
10
-67.057626111111091
20
137.20004999999998
30
0
0
SPLINE
5
212
100
AcDbEntity
8
0
100
AcDbSpline
70
0
71
3
72
10
73
6
74
0
42
0.000000001
43
0.0000000001
44
0.0000000001
40
3
40
3
40
3
40
3
40
4
40
4
40
5
40
5
40
5
40
5
10
-55.557635000000055
20
138.19999861111106
30
0
10
-61.743240555555559
20
138.19999861111106
30
0
10
-66.757623888888958
20
133.18561527777771
30
0
10
-66.757623888888958
20
120.81440416666665
30
0
10
-61.743240555555559
20
115.80002083333329
30
0
10
-55.557635000000055
20
115.80002083333329
30
0
0
LINE
5
213
100
AcDbEntity
8
0
100
AcDbLine
10
-67.057626111111091
20
114.19999722222215
30
0
11
-64.057603888888835
21
114.19999722222215
31
0
0
LINE
5
214
100
AcDbEntity
8
0
100
AcDbLine
10
-64.057603888888835
20
139.8000222222222
30
0
11
-67.057626111111091
21
139.8000222222222
31
0
0
LINE
5
215
100
AcDbEntity
8
0
100
AcDbLine
10
-41.057586388888907
20
139.8000222222222
30
0
11
-44.057608611111164
21
139.8000222222222
31
0
0
SPLINE
5
216
100
AcDbEntity
8
0
100
AcDbSpline
70
0
71
3
72
10
73
6
74
0
42
0.000000001
43
0.0000000001
44
0.0000000001
40
0
40
0
40
0
40
0
40
1
40
1
40
2
40
2
40
2
40
2
10
-44.057608611111164
20
139.8000222222222
30
0
10
-44.775511388888923
20
139.8000222222222
30
0
10
-45.357594722222217
20
139.21793888888888
30
0
10
-45.357594722222217
20
137.78213333333332
30
0
10
-44.775511388888923
20
137.20004999999998
30
0
10
-44.057608611111164
20
137.20004999999998
30
0
0
LINE
5
217
100
AcDbEntity
8
0
100
AcDbLine
10
-67.057626111111091
20
137.20004999999998
30
0
11
-64.057603888888835
21
137.20004999999998
31
0
0
SPLINE
5
218
100
AcDbEntity
8
0
100
AcDbSpline
70
0
71
3
72
10
73
6
74
0
42
0.000000001
43
0.0000000001
44
0.0000000001
40
3
40
3
40
3
40
3
40
4
40
4
40
5
40
5
40
5
40
5
10
-41.057586388888907
20
114.20003249999993
30
0
10
-40.339683611111184
20
114.20003249999993
30
0
10
-39.757600277777783
20
114.78211583333334
30
0
10
-39.757600277777783
20
116.21792138888885
30
0
10
-40.339683611111184
20
116.80000472222221
30
0
10
-41.057586388888907
20
116.80000472222221
30
0
0
LINE
5
219
100
AcDbEntity
8
0
100
AcDbLine
10
-55.557635000000055
20
115.80002083333329
30
0
11
-52.557612777777869
21
115.80002083333329
31
0
0
LINE
5
220
100
AcDbEntity
8
0
100
AcDbLine
10
-64.057603888888835
20
116.79996944444443
30
0
11
-67.057626111111091
21
116.79996944444443
31
0
0
SPLINE
5
221
100
AcDbEntity
8
0
100
AcDbSpline
70
0
71
3
72
10
73
6
74
0
42
0.000000001
43
0.0000000001
44
0.0000000001
40
3
40
3
40
3
40
3
40
4
40
4
40
5
40
5
40
5
40
5
10
-41.057586388888907
20
137.20004999999998
30
0
10
-40.339683611111184
20
137.20004999999998
30
0
10
-39.757600277777783
20
137.78213333333332
30
0
10
-39.757600277777783
20
139.21793888888888
30
0
10
-40.339683611111184
20
139.8000222222222
30
0
10
-41.057586388888907
20
139.8000222222222
30
0
0
LINE
5
222
100
AcDbEntity
8
0
100
AcDbLine
10
-44.057608611111164
20
114.20003249999993
30
0
11
-41.057586388888907
21
114.20003249999993
31
0
0
LINE
5
223
100
AcDbEntity
8
0
100
AcDbLine
10
-41.057586388888907
20
116.80000472222221
30
0
11
-44.057608611111164
21
116.80000472222221
31
0
0
SPLINE
5
224
100
AcDbEntity
8
0
100
AcDbSpline
70
0
71
3
72
10
73
6
74
0
42
0.000000001
43
0.0000000001
44
0.0000000001
40
0
40
0
40
0
40
0
40
1
40
1
40
2
40
2
40
2
40
2
10
-44.057608611111164
20
116.80000472222221
30
0
10
-44.775511388888923
20
116.80000472222221
30
0
10
-45.357594722222217
20
116.21792138888885
30
0
10
-45.357594722222217
20
114.78211583333334
30
0
10
-44.775511388888923
20
114.20003249999993
30
0
10
-44.057608611111164
20
114.20003249999993
30
0
0
LINE
5
225
100
AcDbEntity
8
0
100
AcDbLine
10
-52.557612777777869
20
138.19999861111106
30
0
11
-55.557635000000055
21
138.19999861111106
31
0
0
SPLINE
5
226
100
AcDbEntity
8
0
100
AcDbSpline
70
0
71
3
72
10
73
6
74
0
42
0.000000001
43
0.0000000001
44
0.0000000001
40
3
40
3
40
3
40
3
40
4
40
4
40
5
40
5
40
5
40
5
10
-64.057603888888835
20
137.20004999999998
30
0
10
-63.339701111111076
20
137.20004999999998
30
0
10
-62.757617777777746
20
137.78213333333332
30
0
10
-62.757617777777746
20
139.21793888888888
30
0
10
-63.339701111111076
20
139.8000222222222
30
0
10
-64.057603888888835
20
139.8000222222222
30
0
0
SPLINE
5
227
100
AcDbEntity
8
0
100
AcDbSpline
70
0
71
3
72
10
73
6
74
0
42
0.000000001
43
0.0000000001
44
0.0000000001
40
3
40
3
40
3
40
3
40
4
40
4
40
5
40
5
40
5
40
5
10
-67.057626111111091
20
116.79996944444443
30
0
10
-67.775528888888857
20
116.79996944444443
30
0
10
-68.357612222222258
20
116.21788611111108
30
0
10
-68.357612222222258
20
114.7820805555555
30
0
10
-67.775528888888857
20
114.19999722222215
30
0
10
-67.057626111111091
20
114.19999722222215
30
0
0
LINE
5
228
100
AcDbEntity
8
0
100
AcDbLine
10
64.057603888888835
20
139.8000222222222
30
0
11
67.057626111111091
21
139.8000222222222
31
0
0
SPLINE
5
229
100
AcDbEntity
8
0
100
AcDbSpline
70
0
71
3
72
10
73
6
74
0
42
0.000000001
43
0.0000000001
44
0.0000000001
40
0
40
0
40
0
40
0
40
1
40
1
40
2
40
2
40
2
40
2
10
67.057626111111091
20
139.8000222222222
30
0
10
67.775528888888928
20
139.8000222222222
30
0
10
68.357612222222258
20
139.21793888888888
30
0
10
68.357612222222258
20
137.78213333333332
30
0
10
67.775528888888928
20
137.20004999999998
30
0
10
67.057626111111091
20
137.20004999999998
30
0
0
LINE
5
230
100
AcDbEntity
8
0
100
AcDbLine
10
64.057603888888835
20
116.79996944444443
30
0
11
67.057626111111091
21
116.79996944444443
31
0
0
SPLINE
5
231
100
AcDbEntity
8
0
100
AcDbSpline
70
0
71
3
72
10
73
6
74
0
42
0.000000001
43
0.0000000001
44
0.0000000001
40
0
40
0
40
0
40
0
40
1
40
1
40
2
40
2
40
2
40
2
10
52.557612777777869
20
115.80002083333329
30
0
10
46.372007222222258
20
115.80002083333329
30
0
10
41.357623888888931
20
120.81440416666665
30
0
10
41.357623888888931
20
133.18561527777771
30
0
10
46.372007222222258
20
138.19999861111106
30
0
10
52.557612777777869
20
138.19999861111106
30
0
0
SPLINE
5
232
100
AcDbEntity
8
0
100
AcDbSpline
70
0
71
3
72
10
73
6
74
0
42
0.000000001
43
0.0000000001
44
0.0000000001
40
0
40
0
40
0
40
0
40
1
40
1
40
2
40
2
40
2
40
2
10
64.057603888888835
20
114.19999722222215
30
0
10
63.339701111111076
20
114.19999722222215
30
0
10
62.757617777777746
20
114.7820805555555
30
0
10
62.757617777777746
20
116.21788611111108
30
0
10
63.339701111111076
20
116.79996944444443
30
0
10
64.057603888888835
20
116.79996944444443
30
0
0
SPLINE
5
233
100
AcDbEntity
8
0
100
AcDbSpline
70
0
71
3
72
10
73
6
74
0
42
0.000000001
43
0.0000000001
44
0.0000000001
40
3
40
3
40
3
40
3
40
4
40
4
40
5
40
5
40
5
40
5
10
64.057603888888835
20
137.20004999999998
30
0
10
63.339701111111076
20
137.20004999999998
30
0
10
62.757617777777746
20
137.78213333333332
30
0
10
62.757617777777746
20
139.21793888888888
30
0
10
63.339701111111076
20
139.8000222222222
30
0
10
64.057603888888835
20
139.8000222222222
30
0
0
LINE
5
234
100
AcDbEntity
8
0
100
AcDbLine
10
55.557635000000055
20
115.80002083333329
30
0
11
52.557612777777869
21
115.80002083333329
31
0
0
LINE
5
235
100
AcDbEntity
8
0
100
AcDbLine
10
41.057586388888907
20
116.80000472222221
30
0
11
44.057608611111164
21
116.80000472222221
31
0
0
SPLINE
5
236
100
AcDbEntity
8
0
100
AcDbSpline
70
0
71
3
72
10
73
6
74
0
42
0.000000001
43
0.0000000001
44
0.0000000001
40
0
40
0
40
0
40
0
40
1
40
1
40
2
40
2
40
2
40
2
10
44.057608611111164
20
116.80000472222221
30
0
10
44.775511388888923
20
116.80000472222221
30
0
10
45.357594722222217
20
116.21792138888885
30
0
10
45.357594722222217
20
114.78211583333334
30
0
10
44.775511388888923
20
114.20003249999993
30
0
10
44.057608611111164
20
114.20003249999993
30
0
0
LINE
5
237
100
AcDbEntity
8
0
100
AcDbLine
10
44.057608611111164
20
114.20003249999993
30
0
11
41.057586388888907
21
114.20003249999993
31
0
0
LINE
5
238
100
AcDbEntity
8
0
100
AcDbLine
10
67.057626111111091
20
137.20004999999998
30
0
11
64.057603888888835
21
137.20004999999998
31
0
0
LINE
5
239
100
AcDbEntity
8
0
100
AcDbLine
10
41.057586388888907
20
139.8000222222222
30
0
11
44.057608611111164
21
139.8000222222222
31
0
0
LINE
5
240
100
AcDbEntity
8
0
100
AcDbLine
10
67.057626111111091
20
114.19999722222215
30
0
11
64.057603888888835
21
114.19999722222215
31
0
0
SPLINE
5
241
100
AcDbEntity
8
0
100
AcDbSpline
70
0
71
3
72
10
73
6
74
0
42
0.000000001
43
0.0000000001
44
0.0000000001
40
3
40
3
40
3
40
3
40
4
40
4
40
5
40
5
40
5
40
5
10
67.057626111111091
20
116.79996944444443
30
0
10
67.775528888888857
20
116.79996944444443
30
0
10
68.357612222222258
20
116.21788611111108
30
0
10
68.357612222222258
20
114.7820805555555
30
0
10
67.775528888888857
20
114.19999722222215
30
0
10
67.057626111111091
20
114.19999722222215
30
0
0
SPLINE
5
242
100
AcDbEntity
8
0
100
AcDbSpline
70
0
71
3
72
10
73
6
74
0
42
0.000000001
43
0.0000000001
44
0.0000000001
40
3
40
3
40
3
40
3
40
4
40
4
40
5
40
5
40
5
40
5
10
55.557635000000055
20
138.19999861111106
30
0
10
61.743240555555559
20
138.19999861111106
30
0
10
66.757623888888958
20
133.18561527777771
30
0
10
66.757623888888958
20
120.81440416666665
30
0
10
61.743240555555559
20
115.80002083333329
30
0
10
55.557635000000055
20
115.80002083333329
30
0
0
SPLINE
5
243
100
AcDbEntity
8
0
100
AcDbSpline
70
0
71
3
72
10
73
6
74
0
42
0.000000001
43
0.0000000001
44
0.0000000001
40
3
40
3
40
3
40
3
40
4
40
4
40
5
40
5
40
5
40
5
10
41.057586388888907
20
114.20003249999993
30
0
10
40.339683611111184
20
114.20003249999993
30
0
10
39.757600277777783
20
114.78211583333334
30
0
10
39.757600277777783
20
116.21792138888885
30
0
10
40.339683611111184
20
116.80000472222221
30
0
10
41.057586388888907
20
116.80000472222221
30
0
0
SPLINE
5
244
100
AcDbEntity
8
0
100
AcDbSpline
70
0
71
3
72
10
73
6
74
0
42
0.000000001
43
0.0000000001
44
0.0000000001
40
3
40
3
40
3
40
3
40
4
40
4
40
5
40
5
40
5
40
5
10
41.057586388888907
20
137.20004999999998
30
0
10
40.339683611111184
20
137.20004999999998
30
0
10
39.757600277777783
20
137.78213333333332
30
0
10
39.757600277777783
20
139.21793888888888
30
0
10
40.339683611111184
20
139.8000222222222
30
0
10
41.057586388888907
20
139.8000222222222
30
0
0
LINE
5
245
100
AcDbEntity
8
0
100
AcDbLine
10
44.057608611111164
20
137.20004999999998
30
0
11
41.057586388888907
21
137.20004999999998
31
0
0
LINE
5
246
100
AcDbEntity
8
0
100
AcDbLine
10
52.557612777777869
20
138.19999861111106
30
0
11
55.557635000000055
21
138.19999861111106
31
0
0
SPLINE
5
247
100
AcDbEntity
8
0
100
AcDbSpline
70
0
71
3
72
10
73
6
74
0
42
0.000000001
43
0.0000000001
44
0.0000000001
40
0
40
0
40
0
40
0
40
1
40
1
40
2
40
2
40
2
40
2
10
44.057608611111164
20
139.8000222222222
30
0
10
44.775511388888923
20
139.8000222222222
30
0
10
45.357594722222217
20
139.21793888888888
30
0
10
45.357594722222217
20
137.78213333333332
30
0
10
44.775511388888923
20
137.20004999999998
30
0
10
44.057608611111164
20
137.20004999999998
30
0
0
CIRCLE
5
248
100
AcDbEntity
8
0
100
AcDbCircle
10
-75.000001132488251
20
137.00000144541264
30
0
40
1.5999999999999956
210
0
220
0
230
1
0
CIRCLE
5
249
100
AcDbEntity
8
0
100
AcDbCircle
10
-75.000001132488251
20
117.00000114738941
30
0
40
1.5999999999999943
210
0
220
0
230
1
0
CIRCLE
5
250
100
AcDbEntity
8
0
100
AcDbCircle
10
-75.000001132488251
20
127.00000129640102
30
0
40
1.6000000000000014
210
0
220
0
230
1
0
CIRCLE
5
251
100
AcDbEntity
8
0
100
AcDbCircle
10
75.000001132488251
20
137.00000144541264
30
0
40
1.5999999999999956
210
0
220
0
230
1
0
CIRCLE
5
252
100
AcDbEntity
8
0
100
AcDbCircle
10
75.000001132488251
20
117.00000114738941
30
0
40
1.5999999999999943
210
0
220
0
230
1
0
CIRCLE
5
253
100
AcDbEntity
8
0
100
AcDbCircle
10
75.000001132488251
20
127.00000129640102
30
0
40
1.6000000000000014
210
0
220
0
230
1
0
LINE
5
254
100
AcDbEntity
8
0
100
AcDbLine
10
-70.000002443790436
20
68.065120745182128
30
0
11
-70.000002443790407
21
100.00004628878011
31
0
0
CIRCLE
5
255
100
AcDbEntity
8
0
100
AcDbCircle
10
-75.000001132488251
20
84.000001296401024
30
0
40
1.4999999999999993
210
0
220
0
230
1
0
CIRCLE
5
256
100
AcDbEntity
8
0
100
AcDbCircle
10
75.000001132488251
20
84.000001296401024
30
0
40
1.4999999999999993
210
0
220
0
230
1
0
CIRCLE
5
257
100
AcDbEntity
8
0
100
AcDbCircle
10
0
20
117.00000089406967
30
0
40
1.5000000000000002
210
0
220
0
230
1
0
CIRCLE
5
258
100
AcDbEntity
8
0
100
AcDbCircle
10
-75.000002533197403
20
14.999996274709702
30
0
40
1
210
0
220
0
230
1
0
CIRCLE
5
259
100
AcDbEntity
8
0
100
AcDbCircle
10
-75.000002533197403
20
59.999996274709702
30
0
40
1
210
0
220
0
230
1
0
CIRCLE
5
260
100
AcDbEntity
8
0
100
AcDbCircle
10
-75.000002533197403
20
-30.000003725290298
30
0
40
1
210
0
220
0
230
1
0
CIRCLE
5
261
100
AcDbEntity
8
0
100
AcDbCircle
10
-75.000002533197403
20
44.999995976686478
30
0
40
1
210
0
220
0
230
1
0
CIRCLE
5
262
100
AcDbEntity
8
0
100
AcDbCircle
10
-75.000002533197403
20
-15.000004023313522
30
0
40
1
210
0
220
0
230
1
0
CIRCLE
5
263
100
AcDbEntity
8
0
100
AcDbCircle
10
-180.0000025331974
20
-44.000005453825004
30
0
40
1.6000000000000003
210
0
220
0
230
1
0
CIRCLE
5
264
100
AcDbEntity
8
0
100
AcDbCircle
10
-180.0000025331974
20
93.999997720122337
30
0
40
1.6000000000000003
210
0
220
0
230
1
0
CIRCLE
5
265
100
AcDbEntity
8
0
100
AcDbCircle
10
-180.0000025331974
20
73.999997720122337
30
0
40
1.6000000000000003
210
0
220
0
230
1
0
LWPOLYLINE
5
266
100
AcDbEntity
8
0
100
AcDbPolyline
90
6
70
1
43
0.0
10
-182.00000272691602
20
100.07692468624822
10
-175.00000259280205
20
100.07692468624822
10
-175.00000259280205
20
-60.076925267393754
10
-182.00000272691227
20
-60.076925267393754
10
-185.00000277161234
20
-57.076925222693752
10
-185.00000277161598
20
97.076924641548189
0
LWPOLYLINE
5
267
100
AcDbEntity
8
0
100
AcDbPolyline
90
6
70
1
43
0.0
10
-158.00000263750582
20
-60.076925267393754
10
-165.00000277161598
20
-60.076925267393754
10
-165.00000277161598
20
100.07692468624822
10
-158.00000263750198
20
100.07692468624822
10
-155.00000259280202
20
97.076924641548203
10
-155.00000259280574
20
-57.076925222693752
0
CIRCLE
5
268
100
AcDbEntity
8
0
100
AcDbCircle
10
-160.0000025331974
20
93.999997720122337
30
0
40
1.6000000000000003
210
0
220
0
230
1
0
CIRCLE
5
269
100
AcDbEntity
8
0
100
AcDbCircle
10
-160.0000025331974
20
-44.000005453825004
30
0
40
1.6000000000000003
210
0
220
0
230
1
0
CIRCLE
5
270
100
AcDbEntity
8
0
100
AcDbCircle
10
-160.0000025331974
20
73.999997720122337
30
0
40
1.6000000000000003
210
0
220
0
230
1
0
LWPOLYLINE
5
271
100
AcDbEntity
8
0
100
AcDbPolyline
90
8
70
1
43
0.0
10
189.70000268220903
20
35.00000074505806
10
170.30000268220903
20
35.00000074505806
42
-2.4142135623730949
10
170.00000268220901
20
35.300000745058057
10
170.00000268220901
20
64.700000745058048
42
-2.4142135623730949
10
170.30000268220903
20
65.00000074505806
10
189.700002682209
20
65.00000074505806
42
-2.4142135623730949
10
190.00000268220901
20
64.700000745058063
10
190.00000268220901
20
35.300000745058036
42
-2.4142135623730949
0
LWPOLYLINE
5
272
100
AcDbEntity
8
0
100
AcDbPolyline
90
4
70
1
43
0.0
10
192.00000268220901
20
33.00000074505806
10
168.00000268220901
20
33.00000074505806
10
168.00000268220901
20
67.00000074505806
10
192.00000268220901
20
67.00000074505806
0
LINE
5
273
100
AcDbEntity
8
0
100
AcDbLine
10
171.00000254809856
20
65.000000968575478
30
0
11
171.00000254809856
21
35.00000074505806
31
0
0
LINE
5
274
100
AcDbEntity
8
0
100
AcDbLine
10
189.00000281631947
20
65.000000968575478
30
0
11
189.00000281631947
21
35.00000074505806
31
0
0
LINE
5
275
100
AcDbEntity
8
0
100
AcDbLine
10
175.00000260770321
20
35.00000074505806
30
0
11
175.00000260770321
21
33.00000074505806
31
0
0
LINE
5
276
100
AcDbEntity
8
0
100
AcDbLine
10
185.00000275671482
20
33.00000074505806
30
0
11
185.00000275671482
21
35.00000074505806
31
0
0
CIRCLE
5
277
100
AcDbEntity
8
0
100
AcDbCircle
10
164.0000024586916
20
50.00000074505806
30
0
40
1.5999999999999894
210
0
220
0
230
1
0
CIRCLE
5
278
100
AcDbEntity
8
0
100
AcDbCircle
10
196.00000292062759
20
50.00000074505806
30
0
40
1.5999999999999943
210
0
220
0
230
1
0
LINE
5
279
100
AcDbEntity
8
0
100
AcDbLine
10
196.00000292062759
20
47.000000700354576
30
0
11
192.00000268220901
21
47.000000700354576
31
0
0
LINE
5
280
100
AcDbEntity
8
0
100
AcDbLine
10
168.00000268220901
20
47.000000700354576
30
0
11
164.00000244379044
21
47.000000700354576
31
0
0
LINE
5
281
100
AcDbEntity
8
0
100
AcDbLine
10
164.00000244379044
20
53.000000789761543
30
0
11
168.00000268220901
21
53.000000789761543
31
0
0
LINE
5
282
100
AcDbEntity
8
0
100
AcDbLine
10
192.00000268220901
20
53.000000789761543
30
0
11
196.00000292062759
21
53.000000789761543
31
0
0
ARC
5
283
100
AcDbEntity
8
0
100
AcDbCircle
10
196.00000292062759
20
50.00000074505806
30
0
40
3.0000000447034836
210
0
220
0
230
1
100
AcDbArc
50
-90
51
90
0
ARC
5
284
100
AcDbEntity
8
0
100
AcDbCircle
10
164.0000024586916
20
50.00000074505806
30
0
40
3.0000000447034836
210
0
220
0
230
1
100
AcDbArc
50
90.000000284591223
51
269.99999971540882
0
LINE
5
285
100
AcDbEntity
8
0
100
AcDbLine
10
185.00000275671482
20
65.00000074505806
30
0
11
185.00000275671482
21
67.00000074505806
31
0
0
LINE
5
286
100
AcDbEntity
8
0
100
AcDbLine
10
175.00000260770321
20
67.00000074505806
30
0
11
175.00000260770321
21
65.00000074505806
31
0
0
ARC
5
287
100
AcDbEntity
8
0
100
AcDbCircle
10
212.49966292862194
20
49.999799044834681
30
0
40
3.0000000447034587
210
0
220
-0
230
1
100
AcDbArc
50
89.999816875964626
51
269.99981143015378
0
LWPOLYLINE
5
288
100
AcDbEntity
8
0
100
AcDbPolyline
90
4
70
1
43
0.0
10
244.00000268220901
20
30.033334078391402
10
216.00000268220901
20
30.033334078391412
10
216.00000268220901
20
70.033334078391405
10
244.00000268220901
20
70.033334078391391
0
CIRCLE
5
289
100
AcDbEntity
8
0
100
AcDbCircle
10
212.49966292862194
20
49.999799044834681
30
0
40
1.5999999999999894
210
0
220
0
230
1
0
LWPOLYLINE
5
290
100
AcDbEntity
8
0
100
AcDbPolyline
90
8
70
1
43
0.0
10
241.70000268220903
20
32.00000074505806
10
218.30000268220903
20
32.00000074505806
42
-2.4142135623730949
10
218.00000268220901
20
32.300000745058057
10
218.00000268220901
20
67.700000745058048
42
-2.4142135623730949
10
218.30000268220903
20
68.00000074505806
10
241.700002682209
20
68.00000074505806
42
-2.4142135623730949
10
242.00000268220901
20
67.700000745058048
10
242.00000268220901
20
32.300000745058036
42
-2.4142135623730949
0
LINE
5
291
100
AcDbEntity
8
0
100
AcDbLine
10
216.00000268220901
20
46.99979899981934
30
0
11
212.49965305512774
21
46.999799000147448
31
0
0
LINE
5
292
100
AcDbEntity
8
0
100
AcDbLine
10
212.49967251697416
20
52.999799089522817
30
0
11
216.00000268220901
21
52.999796886403281
31
0
0
LINE
5
293
100
AcDbEntity
8
0
100
AcDbLine
10
240.9901973881677
20
68.00000074505806
30
0
11
240.9901973881677
21
32.00000074505806
31
0
0
LINE
5
294
100
AcDbEntity
8
0
100
AcDbLine
10
219.00000254809856
20
68.00000074505806
30
0
11
219.00000254809856
21
32.00000074505806
31
0
0
CIRCLE
5
295
100
AcDbEntity
8
0
100
AcDbCircle
10
247.5003439259122
20
49.999799044834681
30
0
40
1.5999999999999894
210
0
220
0
230
1
0
LINE
5
296
100
AcDbEntity
8
0
100
AcDbLine
10
247.50033433755999
20
52.999799089522817
30
0
11
244.00000417232513
21
52.999796886403281
31
0
0
LINE
5
297
100
AcDbEntity
8
0
100
AcDbLine
10
244.00000417232513
20
46.99979899981934
30
0
11
247.50035379940641
21
46.999799000147448
31
0
0
ARC
5
298
100
AcDbEntity
8
0
100
AcDbCircle
10
247.5003439259122
20
49.999799044834681
30
0
40
3.0000000447034862
210
-0
220
0
230
1
100
AcDbArc
50
-89.99981143015377
51
90.000183124035374
0
CIRCLE
5
299
100
AcDbEntity
8
0
100
AcDbCircle
10
-64.000000774860709
20
235.00000439404704
30
0
40
3.0000000000000169
210
0
220
0
230
1
0
CIRCLE
5
300
100
AcDbEntity
8
0
100
AcDbCircle
10
-75.000000938773482
20
235.00000439404704
30
0
40
3.0000000000000067
210
0
220
0
230
1
0
CIRCLE
5
301
100
AcDbEntity
8
0
100
AcDbCircle
10
-75.000000938773482
20
235.00000439404704
30
0
40
3.0000000000000004
210
0
220
0
230
1
0
CIRCLE
5
302
100
AcDbEntity
8
0
100
AcDbCircle
10
-64.000000774860709
20
224.00000423013427
30
0
40
3.0000000000000004
210
0
220
0
230
1
0
CIRCLE
5
303
100
AcDbEntity
8
0
100
AcDbCircle
10
64.00000077486014
20
234.99999591876775
30
0
40
3.0000000000000138
210
0
220
0
230
1
0
CIRCLE
5
304
100
AcDbEntity
8
0
100
AcDbCircle
10
75.000000938772914
20
234.99999591876775
30
0
40
3.0000000000000138
210
0
220
0
230
1
0
CIRCLE
5
305
100
AcDbEntity
8
0
100
AcDbCircle
10
64.00000077486014
20
223.99999575485498
30
0
40
2.9999999999999938
210
0
220
0
230
1
0
CIRCLE
5
306
100
AcDbEntity
8
0
100
AcDbCircle
10
75.000000938772914
20
234.99999591876775
30
0
40
3.0000000000000004
210
0
220
0
230
1
0
CIRCLE
5
307
100
AcDbEntity
8
0
100
AcDbCircle
10
64.00000077486014
20
223.99999575485498
30
0
40
3.0000000000000004
210
0
220
0
230
1
0
LINE
5
308
100
AcDbEntity
8
0
100
AcDbLine
10
-83.000001378729706
20
224.00001124208896
30
0
11
-70.500001262277266
21
224.00001124172957
31
0
0
ARC
5
309
100
AcDbEntity
8
0
100
AcDbCircle
10
-64.500001262305986
20
223.00000415246973
30
0
40
5.0000000000000178
210
0
220
0
230
1
100
AcDbArc
50
180
51
270
0
ARC
5
310
100
AcDbEntity
8
0
100
AcDbCircle
10
63.499986961713518
20
222.9999956870779
30
0
40
5.0000000000059606
210
0
220
0
230
1
100
AcDbArc
50
180.12907279817333
51
270.00014545952689
0
LINE
5
311
100
AcDbEntity
8
0
100
AcDbLine
10
58.499999648855692
20
228.99999593366888
30
0
11
58.499999648855692
21
222.98873197009033
31
0
0
LINE
5
312
100
AcDbEntity
8
0
100
AcDbLine
10
-57.500000427971507
20
234.00000869448098
30
0
11
57.741379206064217
21
234.00000864533237
31
0
0
LINE
5
313
100
AcDbEntity
8
0
100
AcDbLine
10
83.000001148734668
20
224.00000170313768
30
0
11
70.500000521817682
21
223.9999957836126
31
0
0
ARC
5
314
100
AcDbEntity
8
0
100
AcDbCircle
10
70.500000521815252
20
222.99999578361258
30
0
40
1.0000000000000142
210
0
220
-0
230
1
100
AcDbArc
50
89.999999999860776
51
180
0
ARC
5
315
100
AcDbEntity
8
0
100
AcDbCircle
10
64.50000051615541
20
222.99999568739079
30
0
40
5
210
0
220
0
230
1
100
AcDbArc
50
-89.999999997196326
51
0
0
LINE
5
316
100
AcDbEntity
8
0
100
AcDbLine
10
63.49999965545188
20
217.99999568708799
30
0
11
64.500000516400078
21
217.99999568739079
31
0
0
LINE
5
317
100
AcDbEntity
8
0
100
AcDbLine
10
84.000000634903358
20
225.00000170313751
30
0
11
84.000000635490693
21
229.45427821420512
31
0
0
LINE
5
318
100
AcDbEntity
8
0
100
AcDbLine
10
84.000000635490693
20
229.45427821420512
30
0
11
84.000001212536617
21
245.00000356184779
31
0
0
CIRCLE
5
319
100
AcDbEntity
8
0
100
AcDbCircle
10
-69.000001057982772
20
231.00000431954123
30
0
40
1.1000000000000001
210
0
220
0
230
1
0
CIRCLE
5
320
100
AcDbEntity
8
0
100
AcDbCircle
10
69.000001057982189
20
230.99999584426197
30
0
40
1.1000000000000001
210
0
220
0
230
1
0
CIRCLE
5
321
100
AcDbEntity
8
0
100
AcDbCircle
10
74.999997466802611
20
-15.000004023313522
30
0
40
1
210
0
220
0
230
1
0
CIRCLE
5
322
100
AcDbEntity
8
0
100
AcDbCircle
10
74.999997466802611
20
14.999996274709702
30
0
40
1
210
0
220
0
230
1
0
CIRCLE
5
323
100
AcDbEntity
8
0
100
AcDbCircle
10
74.999997466802611
20
-4.0233135223388672e-06
30
0
40
1
210
0
220
0
230
1
0
CIRCLE
5
324
100
AcDbEntity
8
0
100
AcDbCircle
10
74.999997466802611
20
29.999995976686478
30
0
40
1
210
0
220
0
230
1
0
CIRCLE
5
325
100
AcDbEntity
8
0
100
AcDbCircle
10
74.999997466802611
20
44.999995976686478
30
0
40
1
210
0
220
0
230
1
0
CIRCLE
5
326
100
AcDbEntity
8
0
100
AcDbCircle
10
74.999997466802611
20
59.999996274709702
30
0
40
1
210
0
220
0
230
1
0
CIRCLE
5
327
100
AcDbEntity
8
0
100
AcDbCircle
10
74.999997466802611
20
-30.000003725290298
30
0
40
1
210
0
220
0
230
1
0
CIRCLE
5
328
100
AcDbEntity
8
0
100
AcDbCircle
10
74.999997466802611
20
93.999997720122337
30
0
40
3.0000000000000022
210
0
220
0
230
1
0
CIRCLE
5
329
100
AcDbEntity
8
0
100
AcDbCircle
10
74.999997466802611
20
73.999997720122337
30
0
40
2.9999999999999982
210
0
220
0
230
1
0
CIRCLE
5
330
100
AcDbEntity
8
0
100
AcDbCircle
10
74.999997466802611
20
-44.000005453825004
30
0
40
2.9999999999999947
210
0
220
0
230
1
0
CIRCLE
5
331
100
AcDbEntity
8
0
100
AcDbCircle
10
-75.000002533197389
20
93.999997720122337
30
0
40
3.0000000000000022
210
0
220
0
230
1
0
CIRCLE
5
332
100
AcDbEntity
8
0
100
AcDbCircle
10
-75.000002533197389
20
73.999997720122337
30
0
40
2.9999999999999982
210
0
220
0
230
1
0
CIRCLE
5
333
100
AcDbEntity
8
0
100
AcDbCircle
10
-75.000002533197389
20
-44.000005453825004
30
0
40
2.9999999999999947
210
0
220
0
230
1
0
LWPOLYLINE
5
334
100
AcDbEntity
8
0
100
AcDbPolyline
90
13
70
1
43
0.0
10
79.999997556209593
20
-83.000001832839345
10
79.999997556209593
20
-237.00000546872971
10
76.999997511509576
20
-240.0000055134297
10
73.999997377395644
20
-240.0000055134297
10
-69.000002443790436
20
-240.0000055134297
10
-77.000002577904354
20
-240.0000055134297
10
-80.000002622604356
20
-237.00000546872971
10
-80.00000262260437
20
-83.000001832839288
10
-77.000002577904368
20
-80.000001788139315
10
-69.000002443790436
20
-80.000001788139343
10
-57.000002443790436
20
-80.000001788139343
10
73.999997377395644
20
-80.000001788139343
10
76.999997511509576
20
-80.000001788139343
0
CIRCLE
5
335
100
AcDbEntity
8
0
100
AcDbCircle
10
-75.000001132488251
20
-95.999998554587364
30
0
40
1.6000000000000003
210
0
220
0
230
1
0
CIRCLE
5
336
100
AcDbEntity
8
0
100
AcDbCircle
10
75.000001132488251
20
-95.999998554587364
30
0
40
1.6000000000000003
210
0
220
0
230
1
0
LINE
5
337
100
AcDbEntity
8
0
100
AcDbLine
10
-65.000001266598716
20
195.39999545514581
30
0
11
-60.500001266598709
21
195.39999545514581
31
0
0
LINE
5
338
100
AcDbEntity
8
0
100
AcDbLine
10
-59.500001266598694
20
190.09999625980853
30
0
11
-59.500001266598716
21
194.39999545514581
31
0
0
ARC
5
339
100
AcDbEntity
8
0
100
AcDbCircle
10
-60.50000126659873
20
194.39999545514581
30
0
40
1.0000000000000142
210
0
220
0
230
1
100
AcDbArc
50
0
51
89.999999999998778
0
LINE
5
340
100
AcDbEntity
8
0
100
AcDbLine
10
-28.500000819563862
20
189.89999545514587
30
0
11
-28.500000819563862
21
194.39999545514581
31
0
0
LINE
5
341
100
AcDbEntity
8
0
100
AcDbLine
10
-27.500000819563862
20
195.39999545514581
30
0
11
-23.000001475214962
21
195.39999545514581
31
0
0
ARC
5
342
100
AcDbEntity
8
0
100
AcDbCircle
10
-27.500000819563837
20
194.39999545514581
30
0
40
1.0000000000000142
210
0
220
0
230
1
100
AcDbArc
50
90.000000000001435
51
180
0
CIRCLE
5
343
100
AcDbEntity
8
0
100
AcDbCircle
10
-75.000000968575478
20
-55.000000759959221
30
0
40
1.5000000000000036
210
0
220
0
230
1
0
CIRCLE
5
344
100
AcDbEntity
8
0
100
AcDbCircle
10
75.000000968575478
20
-55.000000759959221
30
0
40
1.5000000000000036
210
0
220
0
230
1
0
CIRCLE
5
345
100
AcDbEntity
8
0
100
AcDbCircle
10
-75.000000968575478
20
-235.00000344216824
30
0
40
1.6000000000000003
210
0
220
0
230
1
0
CIRCLE
5
346
100
AcDbEntity
8
0
100
AcDbCircle
10
75.000000968575478
20
-235.00000344216824
30
0
40
1.6000000000000003
210
0
220
0
230
1
0
LINE
5
347
100
AcDbEntity
8
0
100
AcDbLine
10
-58.500000377365062
20
229.0000044089482
30
0
11
-58.500000377115846
21
229.17631545383489
31
0
0
LINE
5
348
100
AcDbEntity
8
0
100
AcDbLine
10
-58.500000377115846
20
229.17631545383489
30
0
11
-58.500000377115846
21
233.00000874576315
31
0
0
ARC
5
349
100
AcDbEntity
8
0
100
AcDbCircle
10
-83.000001404392634
20
245.00001240149743
30
0
40
0.99999997430831777
210
0
220
-0
230
1
100
AcDbArc
50
89.999997058504078
51
180
0
ARC
5
350
100
AcDbEntity
8
0
100
AcDbCircle
10
-83.000001378700972
20
225.00001124208893
30
0
40
0.99999999999997868
210
0
220
0
230
1
100
AcDbArc
50
180
51
269.99999999835364
0
ARC
5
351
100
AcDbEntity
8
0
100
AcDbCircle
10
-70.500001262306014
20
223.00001124170851
30
0
40
1.0000000000210605
210
0
220
0
230
1
100
AcDbArc
50
-0.00037180641505098032
51
89.999999998352834
0
ARC
5
352
100
AcDbEntity
8
0
100
AcDbCircle
10
-57.500000428397996
20
233.00000874576315
30
0
40
0.99999994871783571
210
0
220
-0
230
1
100
AcDbArc
50
89.999999975563966
51
180
0
LINE
5
353
100
AcDbEntity
8
0
100
AcDbLine
10
58.499999648855692
20
228.99999593366888
30
0
11
58.499999648855663
21
233.00000864533234
31
0
0
LINE
5
354
100
AcDbEntity
8
0
100
AcDbLine
10
57.499999648855649
20
234.00000864533237
30
0
11
57.741379206064217
21
234.00000864533237
31
0
0
LWPOLYLINE
5
355
100
AcDbEntity
8
0
100
AcDbPolyline
90
4
70
1
43
0.0
10
-53.000000774860382
20
245.00000363588333
10
-58.000000849366188
20
245.00000363588333
10
-58.000000849366188
20
235.00000351667404
10
-53.000000774860382
20
235.00000351667404
0
LWPOLYLINE
5
356
100
AcDbEntity
8
0
100
AcDbPolyline
90
4
70
1
43
0.0
10
53.000000759959214
20
245.00000363588333
10
58.00000083446502
20
245.00000363588333
10
58.00000083446502
20
235.00000351667404
10
53.000000759959214
20
235.00000351667404
0
CIRCLE
5
357
100
AcDbEntity
8
0
100
AcDbCircle
10
-75.000001132488251
20
137.00000144541264
30
0
40
3.0000000000000044
210
0
220
0
230
1
0
CIRCLE
5
358
100
AcDbEntity
8
0
100
AcDbCircle
10
-75.000001132488251
20
117.00000114738941
30
0
40
2.9999999999999973
210
0
220
0
230
1
0
CIRCLE
5
359
100
AcDbEntity
8
0
100
AcDbCircle
10
75.000001132488251
20
137.00000144541264
30
0
40
2.9999999999999982
210
0
220
0
230
1
0
CIRCLE
5
360
100
AcDbEntity
8
0
100
AcDbCircle
10
75.000001132488251
20
117.00000114738941
30
0
40
2.9999999999999991
210
0
220
0
230
1
0
LINE
5
361
100
AcDbEntity
8
0
100
AcDbLine
10
-185.00000275671482
20
-38.000000566244125
30
0
11
-175.00000259280205
21
-38.000000566244125
31
0
0
LINE
5
362
100
AcDbEntity
8
0
100
AcDbLine
10
-165.0000024586916
20
-38.000000566244125
30
0
11
-155.00000230967999
21
-38.000000566244367
31
0
0
LINE
5
363
100
AcDbEntity
8
0
100
AcDbLine
10
-185.00000275671482
20
68.000001013278961
30
0
11
-175.00000259280205
21
68.000001013279203
31
0
0
LINE
5
364
100
AcDbEntity
8
0
100
AcDbLine
10
-165.0000024586916
20
68.000001013279189
30
0
11
-155.00000259280273
21
68.000001013278947
31
0
0
CIRCLE
5
365
100
AcDbEntity
8
0
100
AcDbCircle
10
-180.0000025331974
20
93.999997720122337
30
0
40
2.9999999999999987
210
0
220
0
230
1
0
CIRCLE
5
366
100
AcDbEntity
8
0
100
AcDbCircle
10
-160.0000025331974
20
93.999997720122337
30
0
40
2.9999999999999982
210
0
220
0
230
1
0
CIRCLE
5
367
100
AcDbEntity
8
0
100
AcDbCircle
10
-180.0000025331974
20
73.999997720122337
30
0
40
2.9999999999999964
210
0
220
0
230
1
0
CIRCLE
5
368
100
AcDbEntity
8
0
100
AcDbCircle
10
-160.0000025331974
20
73.999997720122337
30
0
40
3.0000000000000071
210
0
220
0
230
1
0
CIRCLE
5
369
100
AcDbEntity
8
0
100
AcDbCircle
10
-180.0000025331974
20
-44.000005453825004
30
0
40
3.0000000000000018
210
0
220
0
230
1
0
CIRCLE
5
370
100
AcDbEntity
8
0
100
AcDbCircle
10
-160.0000025331974
20
-44.000005453825004
30
0
40
2.9999999999999964
210
0
220
0
230
1
0
CIRCLE
5
371
100
AcDbEntity
8
0
100
AcDbCircle
10
-54.000000774860396
20
189.99999585747716
30
0
40
2.9999999999999964
210
0
220
0
230
1
0
CIRCLE
5
372
100
AcDbEntity
8
0
100
AcDbCircle
10
-23.00000147521498
20
200.89999545514584
30
0
40
2.9999999999999956
210
0
220
0
230
1
0
LWPOLYLINE
5
373
100
AcDbEntity
8
0
100
AcDbPolyline
90
14
70
1
43
0.0
10
-45.599982294654566
20
-371.00000630386728
10
-45.599991401392103
20
-315.80000630386792
10
-4.8538645246787135
20
-315.80000630386786
42
-0.78288141829785218
10
4.8538645246787135
20
-315.80000630386786
10
45.600008598608177
20
-315.80000630386786
10
45.600017705344904
20
-370.99999970478245
10
40.000000596046505
20
-371.00000016671925
10
40.000000596046448
20
-374.00000461935997
10
69.900000000000006
20
-374.00000461935997
10
69.900000000000006
20
-246.00000461935997
10
-69.900000000000034
20
-246.00000461935997
10
-69.900000000000034
20
-374.00000461935997
10
-39.999979863919791
20
-374.00000461935997
10
-39.99998035885082
20
-371.00000676580203
0
CIRCLE
5
374
100
AcDbEntity
8
0
100
AcDbCircle
10
-32.000000476837158
20
-85.000001266598701
30
0
40
1.600000000000001
210
0
220
0
230
1
0
CIRCLE
5
375
100
AcDbEntity
8
0
100
AcDbCircle
10
32.000000476837158
20
-85.000001266598701
30
0
40
1.5999999999999956
210
0
220
0
230
1
0
CIRCLE
5
376
100
AcDbEntity
8
0
100
AcDbCircle
10
32.000000476837158
20
-126.00000187754631
30
0
40
1.6000000000000025
210
0
220
0
230
1
0
CIRCLE
5
377
100
AcDbEntity
8
0
100
AcDbCircle
10
-32.000000476837158
20
-126.00000187754631
30
0
40
1.5999999999999992
210
0
220
0
230
1
0
ARC
5
378
100
AcDbEntity
8
0
100
AcDbCircle
10
57.499999648855642
20
233.00000864533234
30
0
40
1.0000000000000231
210
0
220
0
230
1
100
AcDbArc
50
0
51
89.999999999999588
0
ARC
5
379
100
AcDbEntity
8
0
100
AcDbCircle
10
83.000001212536674
20
245.00000359900474
30
0
40
0.99999999999994382
210
-0
220
0
230
1
100
AcDbArc
50
-2.0913098143694567e-06
51
89.99999705850415
0
ARC
5
380
100
AcDbEntity
8
0
100
AcDbCircle
10
83.00000063490333
20
225.00000170313751
30
0
40
0.99999999999996858
210
-0
220
0
230
1
100
AcDbArc
50
-89.999970559632928
51
0
0
LINE
5
381
100
AcDbEntity
8
0
100
AcDbLine
10
-32.5
20
275.00000432133675
30
0
11
-32.5
21
305.00000432133675
31
0
0
LINE
5
382
100
AcDbEntity
8
0
100
AcDbLine
10
-32.5
20
305.00000432133675
30
0
11
32.5
21
305.00000432133675
31
0
0
LINE
5
383
100
AcDbEntity
8
0
100
AcDbLine
10
32.5
20
305.00000432133675
30
0
11
32.5
21
275.00000432133675
31
0
0
CIRCLE
5
384
100
AcDbEntity
8
0
100
AcDbCircle
10
-29.000000000000007
20
301.50000432133675
30
0
40
1.2499999999999936
210
0
220
0
230
1
0
CIRCLE
5
385
100
AcDbEntity
8
0
100
AcDbCircle
10
-29.000000000000007
20
278.50000432133675
30
0
40
1.249999999999998
210
0
220
0
230
1
0
CIRCLE
5
386
100
AcDbEntity
8
0
100
AcDbCircle
10
29.000000000000007
20
301.50000432133675
30
0
40
1.2500000000000002
210
0
220
0
230
1
0
CIRCLE
5
387
100
AcDbEntity
8
0
100
AcDbCircle
10
29.000000000000007
20
278.50000432133675
30
0
40
1.2500000000000002
210
0
220
0
230
1
0
LINE
5
388
100
AcDbEntity
8
0
100
AcDbLine
10
-25.500000000000004
20
275.00000432133675
30
0
11
-25.500000000000004
21
305.00000432133675
31
0
0
LINE
5
389
100
AcDbEntity
8
0
100
AcDbLine
10
25.500000000000004
20
305.00000432133675
30
0
11
25.500000000000004
21
275.00000432133675
31
0
0
CIRCLE
5
390
100
AcDbEntity
8
0
100
AcDbCircle
10
0
20
302.00000450015068
30
0
40
1.599999999999993
210
0
220
0
230
1
0
LINE
5
391
100
AcDbEntity
8
0
100
AcDbLine
10
-25.500000000000004
20
281.0000041872263
30
0
11
25.500000000000004
21
281.0000041872263
31
0
0
LINE
5
392
100
AcDbEntity
8
0
100
AcDbLine
10
32.5
20
275.00000432133675
30
0
11
25.500000000000004
21
275.00000432133675
31
0
0
LINE
5
393
100
AcDbEntity
8
0
100
AcDbLine
10
-25.500000000000004
20
275.00000432133675
30
0
11
-32.5
21
275.00000432133675
31
0
0
CIRCLE
5
394
100
AcDbEntity
8
0
100
AcDbCircle
10
-20.000000298023224
20
284.00000423192978
30
0
40
1.5999999999999981
210
0
220
0
230
1
0
CIRCLE
5
395
100
AcDbEntity
8
0
100
AcDbCircle
10
20.000000298023224
20
284.00000423192978
30
0
40
1.6000000000000063
210
0
220
0
230
1
0
LINE
5
396
100
AcDbEntity
8
0
100
AcDbLine
10
25.500000000000004
20
281.0000041872263
30
0
11
32.5
21
281.0000041872263
31
0
0
LINE
5
397
100
AcDbEntity
8
0
100
AcDbLine
10
-25.500000000000004
20
281.0000041872263
30
0
11
-32.5
21
281.0000041872263
31
0
0
CIRCLE
5
398
100
AcDbEntity
8
0
100
AcDbCircle
10
-20.000000298023224
20
137.00000204145908
30
0
40
1.5000000000000002
210
0
220
0
230
1
0
CIRCLE
5
399
100
AcDbEntity
8
0
100
AcDbCircle
10
20.000000298023224
20
137.00000204145908
30
0
40
1.5000000000000002
210
0
220
0
230
1
0
LWPOLYLINE
5
400
100
AcDbEntity
8
0
100
AcDbPolyline
90
24
70
1
43
0.0
10
4.8989795556414784
20
-452.00000630385944
10
45.599975563536844
20
-452.00000630388496
10
45.599975563536844
20
-507.00000630390355
10
43.000000596046483
20
-507.00000630390355
42
0.41421356237309243
10
42.000000596046483
20
-508.00000630390355
10
42.000000596046448
20
-510.00000461935997
10
64.800000298023235
20
-510.00000461935997
10
64.800000298023207
20
-423.00000655651093
42
0.41421356237309503
10
61.800000298023235
20
-420.00000655651093
10
-72.000000819563894
20
-420.00000655651093
42
0.41421356237309503
10
-75.000000819563866
20
-423.00000655651093
10
-75.000000819563866
20
-510.00000461935997
10
-42.000032546676209
20
-510.00000461935997
10
-42.000032546676202
20
-508.00000630390355
42
0.41421356237309764
10
-43.000032546676209
20
-507.00000630390355
10
-45.600024436463386
20
-507.00000630390355
10
-45.60002443646318
20
-452.00000630390349
10
-45.600024436463151
20
-443.00000630390349
42
-0.41421356237312362
10
-44.60002443646318
20
-442.00000630390349
10
-36.60002443646318
20
-442.00000630390349
42
-0.41421356237312756
10
-35.60002443646318
20
-443.00000630390349
10
-35.60002443646318
20
-451.00000630390235
42
0.41421356237339291
10
-34.600024436462022
20
-452.00000630390235
10
-4.8989795556432201
20
-452.00000630386796
42
-0.81649663932456085
0
ENDSEC
0
SECTION
2
OBJECTS
0
DICTIONARY
5
C
100
AcDbDictionary
3
ACAD_GROUP
350
D
3
ACAD_MLINESTYLE
350
17
0
DICTIONARY
5
D
100
AcDbDictionary
0
DICTIONARY
5
1A
330
C
100
AcDbDictionary
0
DICTIONARY
5
17
100
AcDbDictionary
0
ENDSEC
0
EOF
