<?xml version="1.0" encoding="UTF-8" standalone="no"?>
<!-- Created with Inkscape (http://www.inkscape.org/) -->

<svg
   width="189.09999mm"
   height="67.599998mm"
   viewBox="0 0 189.09999 67.599998"
   version="1.1"
   id="svg5"
   sodipodi:docname="PenPlotter_CPU._Boardsvg.svg"
   inkscape:version="1.2.1 (9c6d41e410, 2022-07-14)"
   xml:space="preserve"
   xmlns:inkscape="http://www.inkscape.org/namespaces/inkscape"
   xmlns:sodipodi="http://sodipodi.sourceforge.net/DTD/sodipodi-0.dtd"
   xmlns="http://www.w3.org/2000/svg"
   xmlns:svg="http://www.w3.org/2000/svg"><sodipodi:namedview
     id="namedview7"
     pagecolor="#ffffff"
     bordercolor="#000000"
     borderopacity="0.25"
     inkscape:showpageshadow="2"
     inkscape:pageopacity="0.0"
     inkscape:pagecheckerboard="0"
     inkscape:deskcolor="#d1d1d1"
     inkscape:document-units="mm"
     showgrid="true"
     inkscape:zoom="1.829812"
     inkscape:cx="202.20657"
     inkscape:cy="145.91663"
     inkscape:current-layer="layer1"><inkscape:grid
       type="xygrid"
       id="grid1049"
       spacingx="10"
       units="mm"
       spacingy="10"
       originx="83.7231"
       originy="216.2014" /></sodipodi:namedview><defs
     id="defs2"><marker
       id="DistanceX"
       orient="auto"
       refX="0"
       refY="0"
       style="overflow:visible"><path
         d="M 3,-3 -3,3 M 0,-5 V 5"
         style="stroke:#000000;stroke-width:0.5"
         id="path182" /></marker><pattern
       id="Hatch"
       patternUnits="userSpaceOnUse"
       width="8"
       height="8"
       x="0"
       y="0"><path
         d="M8 4 l-4,4"
         stroke="#000000"
         stroke-width="0.25"
         linecap="square"
         id="path185" /><path
         d="M6 2 l-4,4"
         stroke="#000000"
         stroke-width="0.25"
         linecap="square"
         id="path187" /><path
         d="M4 0 l-4,4"
         stroke="#000000"
         stroke-width="0.25"
         linecap="square"
         id="path189" /></pattern><symbol
       id="*MODEL_SPACE" /><symbol
       id="*PAPER_SPACE" /></defs><g
     inkscape:label="Layer 1"
     inkscape:groupmode="layer"
     id="layer1"
     transform="translate(83.723099,216.20141)"><g
       inkscape:label="1"
       id="g196"
       transform="matrix(0.26458333,0,0,0.26458333,310.82689,-285.65141)"
       style="stroke:#ff0000;stroke-width:0.377953;stroke-dasharray:none;stroke-opacity:1" /><path
       d="m 44.393038,-183.9951 a 0.066146,0.066146 0 0 0 -0.132292,0 0.066146,0.066146 0 0 0 0.132292,0 z"
       style="fill:none;stroke:#ff0000;stroke-width:0.1;stroke-dasharray:none;stroke-opacity:1"
       id="path224" /><path
       d="m 44.393038,-183.9951 a 0.066146,0.066146 0 0 0 -0.132292,0 0.066146,0.066146 0 0 0 0.132292,0 z"
       style="fill:none;stroke:#ff0000;stroke-width:0.1;stroke-dasharray:none;stroke-opacity:1"
       id="path226" /><path
       d="m 10.893031,-155.65141 a 0.066146,0.066146 0 0 0 -0.132292,0 0.066146,0.066146 0 0 0 0.132292,0 z"
       style="fill:none;stroke:#ff0000;stroke-width:0.1;stroke-dasharray:none;stroke-opacity:1"
       id="path228" /><path
       d="m 10.893031,-155.65141 a 0.066146,0.066146 0 0 0 -0.132292,0 0.066146,0.066146 0 0 0 0.132292,0 z"
       style="fill:none;stroke:#ff0000;stroke-width:0.1;stroke-dasharray:none;stroke-opacity:1"
       id="path230" /><path
       d="m 90.893034,-155.65141 a 0.066146,0.066146 0 0 0 -0.132292,0 0.066146,0.066146 0 0 0 0.132292,0 z"
       style="fill:none;stroke:#ff0000;stroke-width:0.1;stroke-dasharray:none;stroke-opacity:1"
       id="path232" /><path
       d="m 90.893034,-155.65141 a 0.066146,0.066146 0 0 0 -0.132292,0 0.066146,0.066146 0 0 0 0.132292,0 z"
       style="fill:none;stroke:#ff0000;stroke-width:0.1;stroke-dasharray:none;stroke-opacity:1"
       id="path234" /><path
       d="m -69.106967,-155.65141 a 0.06614583,0.06614583 0 0 0 -0.132291,0 0.06614583,0.06614583 0 0 0 0.132291,0 z"
       style="fill:none;stroke:#ff0000;stroke-width:0.1;stroke-dasharray:none;stroke-opacity:1"
       id="path236" /><path
       d="m -69.106967,-155.65141 a 0.06614583,0.06614583 0 0 0 -0.132291,0 0.06614583,0.06614583 0 0 0 0.132291,0 z"
       style="fill:none;stroke:#ff0000;stroke-width:0.1;stroke-dasharray:none;stroke-opacity:1"
       id="path238" /><path
       d="m -48.773076,-208.40318 a 1.400003,1.400003 0 0 0 -2.800006,0 1.400003,1.400003 0 0 0 2.800006,0 z"
       style="fill:none;stroke:#ff0000;stroke-width:0.1;stroke-dasharray:none;stroke-opacity:1"
       id="path602" /><path
       d="m 6.2268924,-208.47162 a 1.400003,1.400003 0 0 0 -2.800006,0 1.400003,1.400003 0 0 0 2.800006,0 z"
       style="fill:none;stroke:#ff0000;stroke-width:0.1;stroke-dasharray:none;stroke-opacity:1"
       id="path604" /><path
       d="m -51.773107,-159.4951 a 1.400003,1.400003 0 0 0 -2.800006,0 1.400003,1.400003 0 0 0 2.800006,0 z"
       style="fill:none;stroke:#ff0000;stroke-width:0.1;stroke-dasharray:none;stroke-opacity:1"
       id="path606" /><path
       d="m 6.2268924,-159.4951 a 1.400003,1.400003 0 0 0 -2.800006,0 1.400003,1.400003 0 0 0 2.800006,0 z"
       style="fill:none;stroke:#ff0000;stroke-width:0.1;stroke-dasharray:none;stroke-opacity:1"
       id="path608" /><path
       d="m 76.226889,-208.4951 a 1.4000005,1.4000005 0 0 0 -2.800001,0 1.4000005,1.4000005 0 0 0 2.800001,0 z"
       style="fill:none;stroke:#ff0000;stroke-width:0.1;stroke-dasharray:none;stroke-opacity:1"
       id="path610" /><path
       d="m 76.226889,-159.4951 a 1.4000005,1.4000005 0 0 0 -2.800001,0 1.4000005,1.4000005 0 0 0 2.800001,0 z"
       style="fill:none;stroke:#ff0000;stroke-width:0.1;stroke-dasharray:none;stroke-opacity:1"
       id="path612" /><path
       d="m 18.226884,-159.4951 a 1.400003,1.400003 0 0 0 -2.800006,0 1.400003,1.400003 0 0 0 2.800006,0 z"
       style="fill:none;stroke:#ff0000;stroke-width:0.1;stroke-dasharray:none;stroke-opacity:1"
       id="path614" /><path
       d="m 18.226884,-208.4951 a 1.400003,1.400003 0 0 0 -2.800006,0 1.400003,1.400003 0 0 0 2.800006,0 z"
       style="fill:none;stroke:#ff0000;stroke-width:0.1;stroke-dasharray:none;stroke-opacity:1"
       id="path616" /><path
       d="m -83.673099,-151.15141 v -65 H 105.32689 v 65 H 92.426887 v -3.25 h 1.100003 v -2.50001 h -1.100003 v -2.24999 h -3.199998 v 2.24999 h -1.1 v 2.50001 h 1.1 v 3.25 h -8.400002 v 2.5 H 60.826888 v -2.5 h -20.00001 v 2.5 H 20.826892 v -2.5 H 12.4269 v -3.25 h 1.099979 v -2.50001 H 12.4269 v -2.24999 H 9.2268969 v 2.24999 H 8.1268917 v 2.50001 h 1.1000052 v 3.25 H 0.82687891 v 2.5 H -19.173107 v -2.5 H -39.17312 v 2.5 h -19.999986 v -2.5 h -8.399992 v -3.25 h 1.099979 v -2.50001 h -1.099979 v -2.24999 h -3.200003 v 2.24999 h -1.100005 v 2.50001 h 1.100005 v 3.25 z"
       style="fill:none;stroke:#ff0000;stroke-width:0.1;stroke-dasharray:none;stroke-opacity:1"
       id="path618" /></g></svg>
