999
"DXF R12 Output" (www.mydxf.blogspot.com)
 0 
SECTION
 2 
HEADER
 9 
$ACADVER
 1 
AC1009
 9 
$EXTMIN
 10 
 0 
 20 
 0 
 9 
$EXTMAX
 10 
 8.5 
 20 
 11 
 0 
ENDSEC
 0 
SECTION
 2 
ENTITIES
0
LINE
8
Layer 1
10
516.581000
20
120.000000
11
515.607841
21
119.803525
0
LINE
8
Layer 1
10
515.607841
20
119.803525
11
514.813141
21
119.267722
0
LINE
8
Layer 1
10
514.813141
20
119.267722
11
514.277336
21
118.473023
0
LINE
8
Layer 1
10
514.277336
20
118.473023
11
514.080860
21
117.499860
0
LINE
8
Layer 1
10
514.080860
20
117.499860
11
514.081000
21
115.464000
0
LINE
8
Layer 1
10
514.081000
20
115.464000
11
513.963393
21
114.632193
0
LINE
8
Layer 1
10
513.963393
20
114.632193
11
513.619566
21
113.865210
0
LINE
8
Layer 1
10
513.619566
20
113.865210
11
513.217702
21
112.968585
0
LINE
8
Layer 1
10
513.217702
20
112.968585
11
513.081183
21
112.013786
0
LINE
8
Layer 1
10
513.081183
20
112.013786
11
513.210239
21
111.057864
0
LINE
8
Layer 1
10
513.210239
20
111.057864
11
513.605102
21
110.157870
0
LINE
8
Layer 1
10
513.605102
20
110.157870
11
514.278797
21
108.626964
0
LINE
8
Layer 1
10
514.278797
20
108.626964
11
514.503362
21
107.000111
0
LINE
8
Layer 1
10
514.503362
20
107.000111
11
514.278797
21
105.373193
0
LINE
8
Layer 1
10
514.278797
20
105.373193
11
513.605102
21
103.842090
0
LINE
8
Layer 1
10
513.605102
20
103.842090
11
513.210239
21
102.942293
0
LINE
8
Layer 1
10
513.210239
20
102.942293
11
513.081183
21
101.986436
0
LINE
8
Layer 1
10
513.081183
20
101.986436
11
513.217702
21
101.031571
0
LINE
8
Layer 1
10
513.217702
20
101.031571
11
513.619566
21
100.134750
0
LINE
8
Layer 1
10
513.619566
20
100.134750
11
513.963392
21
99.368032
0
LINE
8
Layer 1
10
513.963392
20
99.368032
11
514.081000
21
98.535960
0
LINE
8
Layer 1
10
514.081000
20
98.535960
11
514.081000
21
96.500000
0
LINE
8
Layer 1
10
514.081000
20
96.500000
11
514.277475
21
95.527045
0
LINE
8
Layer 1
10
514.277475
20
95.527045
11
514.813278
21
94.732452
0
LINE
8
Layer 1
10
514.813278
20
94.732452
11
515.607977
21
94.196689
0
LINE
8
Layer 1
10
515.607977
20
94.196689
11
516.581140
21
94.000220
0
LINE
8
Layer 1
10
516.581140
20
94.000220
11
526.137000
21
94.000300
0
LINE
8
Layer 1
10
526.137000
20
94.000300
11
527.396017
21
93.866757
0
LINE
8
Layer 1
10
527.396017
20
93.866757
11
528.586471
21
93.477527
0
LINE
8
Layer 1
10
528.586471
20
93.477527
11
529.670233
21
92.849708
0
LINE
8
Layer 1
10
529.670233
20
92.849708
11
530.609170
21
92.000400
0
LINE
8
Layer 1
10
530.609170
20
92.000400
11
531.506152
21
91.180292
0
LINE
8
Layer 1
10
531.506152
20
91.180292
11
532.517562
21
90.573843
0
LINE
8
Layer 1
10
532.517562
20
90.573843
11
533.609330
21
90.182947
0
LINE
8
Layer 1
10
533.609330
20
90.182947
11
534.747387
21
90.009496
0
LINE
8
Layer 1
10
534.747387
20
90.009496
11
535.897665
21
90.055386
0
LINE
8
Layer 1
10
535.897665
20
90.055386
11
537.026094
21
90.322509
0
LINE
8
Layer 1
10
537.026094
20
90.322509
11
538.098605
21
90.812759
0
LINE
8
Layer 1
10
538.098605
20
90.812759
11
539.081130
21
91.528030
0
LINE
8
Layer 1
10
539.081130
20
91.528030
11
539.930438
21
92.466963
0
LINE
8
Layer 1
10
539.930438
20
92.466963
11
540.558256
21
93.550725
0
LINE
8
Layer 1
10
540.558256
20
93.550725
11
540.947487
21
94.741182
0
LINE
8
Layer 1
10
540.947487
20
94.741182
11
541.081030
21
96.000200
0
LINE
8
Layer 1
10
541.081030
20
96.000200
11
541.324822
21
98.418569
0
LINE
8
Layer 1
10
541.324822
20
98.418569
11
542.024034
21
100.671041
0
LINE
8
Layer 1
10
542.024034
20
100.671041
11
543.130414
21
102.709363
0
LINE
8
Layer 1
10
543.130414
20
102.709363
11
544.595715
21
104.485284
0
LINE
8
Layer 1
10
544.595715
20
104.485284
11
546.371686
21
105.950550
0
LINE
8
Layer 1
10
546.371686
20
105.950550
11
548.410079
21
107.056910
0
LINE
8
Layer 1
10
548.410079
20
107.056910
11
550.662643
21
107.756110
0
LINE
8
Layer 1
10
550.662643
20
107.756110
11
553.081130
21
107.999900
0
LINE
8
Layer 1
10
553.081130
20
107.999900
11
622.080000
21
108.000000
0
LINE
8
Layer 1
10
622.080000
20
108.000000
11
624.498487
21
107.756208
0
LINE
8
Layer 1
10
624.498487
20
107.756208
11
626.751051
21
107.057002
0
LINE
8
Layer 1
10
626.751051
20
107.057002
11
628.789444
21
105.950637
0
LINE
8
Layer 1
10
628.789444
20
105.950637
11
630.565415
21
104.485365
0
LINE
8
Layer 1
10
630.565415
20
104.485365
11
632.030716
21
102.709441
0
LINE
8
Layer 1
10
632.030716
20
102.709441
11
633.137096
21
100.671120
0
LINE
8
Layer 1
10
633.137096
20
100.671120
11
633.836307
21
98.418655
0
LINE
8
Layer 1
10
633.836307
20
98.418655
11
634.080100
21
96.000300
0
LINE
8
Layer 1
10
634.080100
20
96.000300
11
634.201989
21
94.791108
0
LINE
8
Layer 1
10
634.201989
20
94.791108
11
634.551577
21
93.664850
0
LINE
8
Layer 1
10
634.551577
20
93.664850
11
635.104745
21
92.645657
0
LINE
8
Layer 1
10
635.104745
20
92.645657
11
635.837375
21
91.757660
0
LINE
8
Layer 1
10
635.837375
20
91.757660
11
636.725349
21
91.024990
0
LINE
8
Layer 1
10
636.725349
20
91.024990
11
637.744548
21
90.471777
0
LINE
8
Layer 1
10
637.744548
20
90.471777
11
638.870855
21
90.122154
0
LINE
8
Layer 1
10
638.870855
20
90.122154
11
640.080150
21
90.000250
0
LINE
8
Layer 1
10
640.080150
20
90.000250
11
641.339009
21
90.133798
0
LINE
8
Layer 1
10
641.339009
20
90.133798
11
642.529441
21
90.523067
0
LINE
8
Layer 1
10
642.529441
20
90.523067
11
643.613180
21
91.150989
0
LINE
8
Layer 1
10
643.613180
20
91.150989
11
644.551960
21
92.000500
0
LINE
8
Layer 1
10
644.551960
20
92.000500
11
645.490893
21
92.849808
0
LINE
8
Layer 1
10
645.490893
20
92.849808
11
646.574655
21
93.477626
0
LINE
8
Layer 1
10
646.574655
20
93.477626
11
647.765112
21
93.866857
0
LINE
8
Layer 1
10
647.765112
20
93.866857
11
649.024130
21
94.000400
0
LINE
8
Layer 1
10
649.024130
20
94.000400
11
658.580000
21
94.000300
0
LINE
8
Layer 1
10
658.580000
20
94.000300
11
659.553159
21
94.196769
0
LINE
8
Layer 1
10
659.553159
20
94.196769
11
660.347859
21
94.732532
0
LINE
8
Layer 1
10
660.347859
20
94.732532
11
660.883664
21
95.527125
0
LINE
8
Layer 1
10
660.883664
20
95.527125
11
661.080140
21
96.500080
0
LINE
8
Layer 1
10
661.080140
20
96.500080
11
661.080000
21
98.535900
0
LINE
8
Layer 1
10
661.080000
20
98.535900
11
661.197607
21
99.367971
0
LINE
8
Layer 1
10
661.197607
20
99.367971
11
661.541434
21
100.134690
0
LINE
8
Layer 1
10
661.541434
20
100.134690
11
661.881788
21
100.839100
0
LINE
8
Layer 1
10
661.881788
20
100.839100
11
662.056049
21
101.592193
0
LINE
8
Layer 1
10
662.056049
20
101.592193
11
662.060844
21
102.365130
0
LINE
8
Layer 1
10
662.060844
20
102.365130
11
661.892801
21
103.129070
0
LINE
8
Layer 1
10
661.892801
20
103.129070
11
661.411590
21
105.044712
0
LINE
8
Layer 1
10
661.411590
20
105.044712
11
661.251186
21
107.000105
0
LINE
8
Layer 1
10
661.251186
20
107.000105
11
661.411590
21
108.955498
0
LINE
8
Layer 1
10
661.411590
20
108.955498
11
661.892801
21
110.871140
0
LINE
8
Layer 1
10
661.892801
20
110.871140
11
662.060845
21
111.635026
0
LINE
8
Layer 1
10
662.060845
20
111.635026
11
662.056049
21
112.407842
0
LINE
8
Layer 1
10
662.056049
20
112.407842
11
661.881788
21
113.160815
0
LINE
8
Layer 1
10
661.881788
20
113.160815
11
661.541434
21
113.865170
0
LINE
8
Layer 1
10
661.541434
20
113.865170
11
661.197608
21
114.632155
0
LINE
8
Layer 1
10
661.197608
20
114.632155
11
661.080000
21
115.463960
0
LINE
8
Layer 1
10
661.080000
20
115.463960
11
661.080000
21
117.500000
0
LINE
8
Layer 1
10
661.080000
20
117.500000
11
660.883578
21
118.473234
0
LINE
8
Layer 1
10
660.883578
20
118.473234
11
660.347875
21
119.267875
0
LINE
8
Layer 1
10
660.347875
20
119.267875
11
659.553234
21
119.803578
0
LINE
8
Layer 1
10
659.553234
20
119.803578
11
658.580000
21
120.000000
0
LINE
8
Layer 1
10
658.580000
20
120.000000
11
516.581000
21
120.000000
0
LINE
8
Layer 1
10
657.080000
20
112.000000
11
657.197938
21
111.416313
0
LINE
8
Layer 1
10
657.197938
20
111.416313
11
657.519500
21
110.939500
0
LINE
8
Layer 1
10
657.519500
20
110.939500
11
657.996312
21
110.617938
0
LINE
8
Layer 1
10
657.996312
20
110.617938
11
658.580000
21
110.500000
0
LINE
8
Layer 1
10
658.580000
20
110.500000
11
659.163688
21
110.617938
0
LINE
8
Layer 1
10
659.163688
20
110.617938
11
659.640500
21
110.939500
0
LINE
8
Layer 1
10
659.640500
20
110.939500
11
659.962063
21
111.416313
0
LINE
8
Layer 1
10
659.962063
20
111.416313
11
660.080000
21
112.000000
0
LINE
8
Layer 1
10
660.080000
20
112.000000
11
659.962063
21
112.583687
0
LINE
8
Layer 1
10
659.962063
20
112.583687
11
659.640500
21
113.060500
0
LINE
8
Layer 1
10
659.640500
20
113.060500
11
659.163688
21
113.382062
0
LINE
8
Layer 1
10
659.163688
20
113.382062
11
658.580000
21
113.500000
0
LINE
8
Layer 1
10
658.580000
20
113.500000
11
657.996312
21
113.382062
0
LINE
8
Layer 1
10
657.996312
20
113.382062
11
657.519500
21
113.060500
0
LINE
8
Layer 1
10
657.519500
20
113.060500
11
657.197938
21
112.583687
0
LINE
8
Layer 1
10
657.197938
20
112.583687
11
657.080000
21
112.000000
0
LINE
8
Layer 1
10
657.080000
20
112.000000
11
657.080000
21
112.000000
0
LINE
8
Layer 1
10
657.080000
20
102.000000
11
657.197938
21
101.416313
0
LINE
8
Layer 1
10
657.197938
20
101.416313
11
657.519500
21
100.939500
0
LINE
8
Layer 1
10
657.519500
20
100.939500
11
657.996312
21
100.617938
0
LINE
8
Layer 1
10
657.996312
20
100.617938
11
658.580000
21
100.500000
0
LINE
8
Layer 1
10
658.580000
20
100.500000
11
659.163688
21
100.617938
0
LINE
8
Layer 1
10
659.163688
20
100.617938
11
659.640500
21
100.939500
0
LINE
8
Layer 1
10
659.640500
20
100.939500
11
659.962063
21
101.416313
0
LINE
8
Layer 1
10
659.962063
20
101.416313
11
660.080000
21
102.000000
0
LINE
8
Layer 1
10
660.080000
20
102.000000
11
659.962063
21
102.583687
0
LINE
8
Layer 1
10
659.962063
20
102.583687
11
659.640500
21
103.060500
0
LINE
8
Layer 1
10
659.640500
20
103.060500
11
659.163688
21
103.382062
0
LINE
8
Layer 1
10
659.163688
20
103.382062
11
658.580000
21
103.500000
0
LINE
8
Layer 1
10
658.580000
20
103.500000
11
657.996312
21
103.382062
0
LINE
8
Layer 1
10
657.996312
20
103.382062
11
657.519500
21
103.060500
0
LINE
8
Layer 1
10
657.519500
20
103.060500
11
657.197938
21
102.583687
0
LINE
8
Layer 1
10
657.197938
20
102.583687
11
657.080000
21
102.000000
0
LINE
8
Layer 1
10
657.080000
20
102.000000
11
657.080000
21
102.000000
0
LINE
8
Layer 1
10
642.080000
20
112.000000
11
642.197938
21
111.416313
0
LINE
8
Layer 1
10
642.197938
20
111.416313
11
642.519500
21
110.939500
0
LINE
8
Layer 1
10
642.519500
20
110.939500
11
642.996312
21
110.617938
0
LINE
8
Layer 1
10
642.996312
20
110.617938
11
643.580000
21
110.500000
0
LINE
8
Layer 1
10
643.580000
20
110.500000
11
644.163688
21
110.617938
0
LINE
8
Layer 1
10
644.163688
20
110.617938
11
644.640500
21
110.939500
0
LINE
8
Layer 1
10
644.640500
20
110.939500
11
644.962063
21
111.416313
0
LINE
8
Layer 1
10
644.962063
20
111.416313
11
645.080000
21
112.000000
0
LINE
8
Layer 1
10
645.080000
20
112.000000
11
644.962063
21
112.583687
0
LINE
8
Layer 1
10
644.962063
20
112.583687
11
644.640500
21
113.060500
0
LINE
8
Layer 1
10
644.640500
20
113.060500
11
644.163688
21
113.382062
0
LINE
8
Layer 1
10
644.163688
20
113.382062
11
643.580000
21
113.500000
0
LINE
8
Layer 1
10
643.580000
20
113.500000
11
642.996312
21
113.382062
0
LINE
8
Layer 1
10
642.996312
20
113.382062
11
642.519500
21
113.060500
0
LINE
8
Layer 1
10
642.519500
20
113.060500
11
642.197938
21
112.583687
0
LINE
8
Layer 1
10
642.197938
20
112.583687
11
642.080000
21
112.000000
0
LINE
8
Layer 1
10
642.080000
20
112.000000
11
642.080000
21
112.000000
0
LINE
8
Layer 1
10
530.081000
20
112.000000
11
530.198938
21
111.416313
0
LINE
8
Layer 1
10
530.198938
20
111.416313
11
530.520500
21
110.939500
0
LINE
8
Layer 1
10
530.520500
20
110.939500
11
530.997313
21
110.617938
0
LINE
8
Layer 1
10
530.997313
20
110.617938
11
531.581000
21
110.500000
0
LINE
8
Layer 1
10
531.581000
20
110.500000
11
532.164688
21
110.617938
0
LINE
8
Layer 1
10
532.164688
20
110.617938
11
532.641500
21
110.939500
0
LINE
8
Layer 1
10
532.641500
20
110.939500
11
532.963062
21
111.416313
0
LINE
8
Layer 1
10
532.963062
20
111.416313
11
533.081000
21
112.000000
0
LINE
8
Layer 1
10
533.081000
20
112.000000
11
532.963062
21
112.583687
0
LINE
8
Layer 1
10
532.963062
20
112.583687
11
532.641500
21
113.060500
0
LINE
8
Layer 1
10
532.641500
20
113.060500
11
532.164688
21
113.382062
0
LINE
8
Layer 1
10
532.164688
20
113.382062
11
531.581000
21
113.500000
0
LINE
8
Layer 1
10
531.581000
20
113.500000
11
530.997313
21
113.382062
0
LINE
8
Layer 1
10
530.997313
20
113.382062
11
530.520500
21
113.060500
0
LINE
8
Layer 1
10
530.520500
20
113.060500
11
530.198938
21
112.583687
0
LINE
8
Layer 1
10
530.198938
20
112.583687
11
530.081000
21
112.000000
0
LINE
8
Layer 1
10
530.081000
20
112.000000
11
530.081000
21
112.000000
0
LINE
8
Layer 1
10
515.081000
20
102.000000
11
515.198938
21
101.416313
0
LINE
8
Layer 1
10
515.198938
20
101.416313
11
515.520500
21
100.939500
0
LINE
8
Layer 1
10
515.520500
20
100.939500
11
515.997313
21
100.617938
0
LINE
8
Layer 1
10
515.997313
20
100.617938
11
516.581000
21
100.500000
0
LINE
8
Layer 1
10
516.581000
20
100.500000
11
517.164688
21
100.617938
0
LINE
8
Layer 1
10
517.164688
20
100.617938
11
517.641500
21
100.939500
0
LINE
8
Layer 1
10
517.641500
20
100.939500
11
517.963062
21
101.416313
0
LINE
8
Layer 1
10
517.963062
20
101.416313
11
518.081000
21
102.000000
0
LINE
8
Layer 1
10
518.081000
20
102.000000
11
517.963062
21
102.583687
0
LINE
8
Layer 1
10
517.963062
20
102.583687
11
517.641500
21
103.060500
0
LINE
8
Layer 1
10
517.641500
20
103.060500
11
517.164688
21
103.382062
0
LINE
8
Layer 1
10
517.164688
20
103.382062
11
516.581000
21
103.500000
0
LINE
8
Layer 1
10
516.581000
20
103.500000
11
515.997313
21
103.382062
0
LINE
8
Layer 1
10
515.997313
20
103.382062
11
515.520500
21
103.060500
0
LINE
8
Layer 1
10
515.520500
20
103.060500
11
515.198938
21
102.583687
0
LINE
8
Layer 1
10
515.198938
20
102.583687
11
515.081000
21
102.000000
0
LINE
8
Layer 1
10
515.081000
20
102.000000
11
515.081000
21
102.000000
0
LINE
8
Layer 1
10
515.081000
20
112.000000
11
515.198938
21
111.416313
0
LINE
8
Layer 1
10
515.198938
20
111.416313
11
515.520500
21
110.939500
0
LINE
8
Layer 1
10
515.520500
20
110.939500
11
515.997313
21
110.617938
0
LINE
8
Layer 1
10
515.997313
20
110.617938
11
516.581000
21
110.500000
0
LINE
8
Layer 1
10
516.581000
20
110.500000
11
517.164688
21
110.617938
0
LINE
8
Layer 1
10
517.164688
20
110.617938
11
517.641500
21
110.939500
0
LINE
8
Layer 1
10
517.641500
20
110.939500
11
517.963062
21
111.416313
0
LINE
8
Layer 1
10
517.963062
20
111.416313
11
518.081000
21
112.000000
0
LINE
8
Layer 1
10
518.081000
20
112.000000
11
517.963062
21
112.583687
0
LINE
8
Layer 1
10
517.963062
20
112.583687
11
517.641500
21
113.060500
0
LINE
8
Layer 1
10
517.641500
20
113.060500
11
517.164688
21
113.382062
0
LINE
8
Layer 1
10
517.164688
20
113.382062
11
516.581000
21
113.500000
0
LINE
8
Layer 1
10
516.581000
20
113.500000
11
515.997313
21
113.382062
0
LINE
8
Layer 1
10
515.997313
20
113.382062
11
515.520500
21
113.060500
0
LINE
8
Layer 1
10
515.520500
20
113.060500
11
515.198938
21
112.583687
0
LINE
8
Layer 1
10
515.198938
20
112.583687
11
515.081000
21
112.000000
0
LINE
8
Layer 1
10
515.081000
20
112.000000
11
515.081000
21
112.000000
0
LINE
8
Layer 1
10
649.880000
20
107.000000
11
649.974266
21
106.532797
0
LINE
8
Layer 1
10
649.974266
20
106.532797
11
650.231375
21
106.151375
0
LINE
8
Layer 1
10
650.231375
20
106.151375
11
650.612797
21
105.894266
0
LINE
8
Layer 1
10
650.612797
20
105.894266
11
651.080000
21
105.800000
0
LINE
8
Layer 1
10
651.080000
20
105.800000
11
651.547203
21
105.894266
0
LINE
8
Layer 1
10
651.547203
20
105.894266
11
651.928625
21
106.151375
0
LINE
8
Layer 1
10
651.928625
20
106.151375
11
652.185734
21
106.532797
0
LINE
8
Layer 1
10
652.185734
20
106.532797
11
652.280000
21
107.000000
0
LINE
8
Layer 1
10
652.280000
20
107.000000
11
652.185734
21
107.467203
0
LINE
8
Layer 1
10
652.185734
20
107.467203
11
651.928625
21
107.848625
0
LINE
8
Layer 1
10
651.928625
20
107.848625
11
651.547203
21
108.105734
0
LINE
8
Layer 1
10
651.547203
20
108.105734
11
651.080000
21
108.200000
0
LINE
8
Layer 1
10
651.080000
20
108.200000
11
650.612797
21
108.105734
0
LINE
8
Layer 1
10
650.612797
20
108.105734
11
650.231375
21
107.848625
0
LINE
8
Layer 1
10
650.231375
20
107.848625
11
649.974266
21
107.467203
0
LINE
8
Layer 1
10
649.974266
20
107.467203
11
649.880000
21
107.000000
0
LINE
8
Layer 1
10
649.880000
20
107.000000
11
649.880000
21
107.000000
0
LINE
8
Layer 1
10
638.880000
20
96.000000
11
638.974266
21
95.532870
0
LINE
8
Layer 1
10
638.974266
20
95.532870
11
639.231375
21
95.151513
0
LINE
8
Layer 1
10
639.231375
20
95.151513
11
639.612797
21
94.894448
0
LINE
8
Layer 1
10
639.612797
20
94.894448
11
640.080000
21
94.800200
0
LINE
8
Layer 1
10
640.080000
20
94.800200
11
640.547203
21
94.894448
0
LINE
8
Layer 1
10
640.547203
20
94.894448
11
640.928625
21
95.151513
0
LINE
8
Layer 1
10
640.928625
20
95.151513
11
641.185734
21
95.532870
0
LINE
8
Layer 1
10
641.185734
20
95.532870
11
641.280000
21
96.000000
0
LINE
8
Layer 1
10
641.280000
20
96.000000
11
641.185734
21
96.467130
0
LINE
8
Layer 1
10
641.185734
20
96.467130
11
640.928625
21
96.848487
0
LINE
8
Layer 1
10
640.928625
20
96.848487
11
640.547203
21
97.105552
0
LINE
8
Layer 1
10
640.547203
20
97.105552
11
640.080000
21
97.199800
0
LINE
8
Layer 1
10
640.080000
20
97.199800
11
639.612797
21
97.105552
0
LINE
8
Layer 1
10
639.612797
20
97.105552
11
639.231375
21
96.848487
0
LINE
8
Layer 1
10
639.231375
20
96.848487
11
638.974266
21
96.467130
0
LINE
8
Layer 1
10
638.974266
20
96.467130
11
638.880000
21
96.000000
0
LINE
8
Layer 1
10
638.880000
20
96.000000
11
638.880000
21
96.000000
0
LINE
8
Layer 1
10
638.880000
20
107.000000
11
638.974266
21
106.532797
0
LINE
8
Layer 1
10
638.974266
20
106.532797
11
639.231375
21
106.151375
0
LINE
8
Layer 1
10
639.231375
20
106.151375
11
639.612797
21
105.894266
0
LINE
8
Layer 1
10
639.612797
20
105.894266
11
640.080000
21
105.800000
0
LINE
8
Layer 1
10
640.080000
20
105.800000
11
640.547203
21
105.894266
0
LINE
8
Layer 1
10
640.547203
20
105.894266
11
640.928625
21
106.151375
0
LINE
8
Layer 1
10
640.928625
20
106.151375
11
641.185734
21
106.532797
0
LINE
8
Layer 1
10
641.185734
20
106.532797
11
641.280000
21
107.000000
0
LINE
8
Layer 1
10
641.280000
20
107.000000
11
641.185734
21
107.467203
0
LINE
8
Layer 1
10
641.185734
20
107.467203
11
640.928625
21
107.848625
0
LINE
8
Layer 1
10
640.928625
20
107.848625
11
640.547203
21
108.105734
0
LINE
8
Layer 1
10
640.547203
20
108.105734
11
640.080000
21
108.200000
0
LINE
8
Layer 1
10
640.080000
20
108.200000
11
639.612797
21
108.105734
0
LINE
8
Layer 1
10
639.612797
20
108.105734
11
639.231375
21
107.848625
0
LINE
8
Layer 1
10
639.231375
20
107.848625
11
638.974266
21
107.467203
0
LINE
8
Layer 1
10
638.974266
20
107.467203
11
638.880000
21
107.000000
0
LINE
8
Layer 1
10
638.880000
20
107.000000
11
638.880000
21
107.000000
0
LINE
8
Layer 1
10
533.881000
20
96.000000
11
533.975266
21
95.532870
0
LINE
8
Layer 1
10
533.975266
20
95.532870
11
534.232375
21
95.151513
0
LINE
8
Layer 1
10
534.232375
20
95.151513
11
534.613797
21
94.894448
0
LINE
8
Layer 1
10
534.613797
20
94.894448
11
535.081000
21
94.800200
0
LINE
8
Layer 1
10
535.081000
20
94.800200
11
535.548203
21
94.894448
0
LINE
8
Layer 1
10
535.548203
20
94.894448
11
535.929625
21
95.151513
0
LINE
8
Layer 1
10
535.929625
20
95.151513
11
536.186734
21
95.532870
0
LINE
8
Layer 1
10
536.186734
20
95.532870
11
536.281000
21
96.000000
0
LINE
8
Layer 1
10
536.281000
20
96.000000
11
536.186734
21
96.467130
0
LINE
8
Layer 1
10
536.186734
20
96.467130
11
535.929625
21
96.848487
0
LINE
8
Layer 1
10
535.929625
20
96.848487
11
535.548203
21
97.105552
0
LINE
8
Layer 1
10
535.548203
20
97.105552
11
535.081000
21
97.199800
0
LINE
8
Layer 1
10
535.081000
20
97.199800
11
534.613797
21
97.105552
0
LINE
8
Layer 1
10
534.613797
20
97.105552
11
534.232375
21
96.848487
0
LINE
8
Layer 1
10
534.232375
20
96.848487
11
533.975266
21
96.467130
0
LINE
8
Layer 1
10
533.975266
20
96.467130
11
533.881000
21
96.000000
0
LINE
8
Layer 1
10
533.881000
20
96.000000
11
533.881000
21
96.000000
0
LINE
8
Layer 1
10
522.881000
20
107.000000
11
522.975266
21
106.532797
0
LINE
8
Layer 1
10
522.975266
20
106.532797
11
523.232375
21
106.151375
0
LINE
8
Layer 1
10
523.232375
20
106.151375
11
523.613797
21
105.894266
0
LINE
8
Layer 1
10
523.613797
20
105.894266
11
524.081000
21
105.800000
0
LINE
8
Layer 1
10
524.081000
20
105.800000
11
524.548203
21
105.894266
0
LINE
8
Layer 1
10
524.548203
20
105.894266
11
524.929625
21
106.151375
0
LINE
8
Layer 1
10
524.929625
20
106.151375
11
525.186734
21
106.532797
0
LINE
8
Layer 1
10
525.186734
20
106.532797
11
525.281000
21
107.000000
0
LINE
8
Layer 1
10
525.281000
20
107.000000
11
525.186734
21
107.467203
0
LINE
8
Layer 1
10
525.186734
20
107.467203
11
524.929625
21
107.848625
0
LINE
8
Layer 1
10
524.929625
20
107.848625
11
524.548203
21
108.105734
0
LINE
8
Layer 1
10
524.548203
20
108.105734
11
524.081000
21
108.200000
0
LINE
8
Layer 1
10
524.081000
20
108.200000
11
523.613797
21
108.105734
0
LINE
8
Layer 1
10
523.613797
20
108.105734
11
523.232375
21
107.848625
0
LINE
8
Layer 1
10
523.232375
20
107.848625
11
522.975266
21
107.467203
0
LINE
8
Layer 1
10
522.975266
20
107.467203
11
522.881000
21
107.000000
0
LINE
8
Layer 1
10
522.881000
20
107.000000
11
522.881000
21
107.000000
0
LINE
8
Layer 1
10
533.881000
20
107.000000
11
533.975266
21
106.532797
0
LINE
8
Layer 1
10
533.975266
20
106.532797
11
534.232375
21
106.151375
0
LINE
8
Layer 1
10
534.232375
20
106.151375
11
534.613797
21
105.894266
0
LINE
8
Layer 1
10
534.613797
20
105.894266
11
535.081000
21
105.800000
0
LINE
8
Layer 1
10
535.081000
20
105.800000
11
535.548203
21
105.894266
0
LINE
8
Layer 1
10
535.548203
20
105.894266
11
535.929625
21
106.151375
0
LINE
8
Layer 1
10
535.929625
20
106.151375
11
536.186734
21
106.532797
0
LINE
8
Layer 1
10
536.186734
20
106.532797
11
536.281000
21
107.000000
0
LINE
8
Layer 1
10
536.281000
20
107.000000
11
536.186734
21
107.467203
0
LINE
8
Layer 1
10
536.186734
20
107.467203
11
535.929625
21
107.848625
0
LINE
8
Layer 1
10
535.929625
20
107.848625
11
535.548203
21
108.105734
0
LINE
8
Layer 1
10
535.548203
20
108.105734
11
535.081000
21
108.200000
0
LINE
8
Layer 1
10
535.081000
20
108.200000
11
534.613797
21
108.105734
0
LINE
8
Layer 1
10
534.613797
20
108.105734
11
534.232375
21
107.848625
0
LINE
8
Layer 1
10
534.232375
20
107.848625
11
533.975266
21
107.467203
0
LINE
8
Layer 1
10
533.975266
20
107.467203
11
533.881000
21
107.000000
0
LINE
8
Layer 1
10
533.881000
20
107.000000
11
533.881000
21
107.000000
0
LINE
8
Layer 1
10
626.430000
20
114.000000
11
626.520391
21
113.552422
0
LINE
8
Layer 1
10
626.520391
20
113.552422
11
626.766875
21
113.186875
0
LINE
8
Layer 1
10
626.766875
20
113.186875
11
627.132422
21
112.940391
0
LINE
8
Layer 1
10
627.132422
20
112.940391
11
627.580000
21
112.850000
0
LINE
8
Layer 1
10
627.580000
20
112.850000
11
628.027578
21
112.940391
0
LINE
8
Layer 1
10
628.027578
20
112.940391
11
628.393125
21
113.186875
0
LINE
8
Layer 1
10
628.393125
20
113.186875
11
628.639609
21
113.552422
0
LINE
8
Layer 1
10
628.639609
20
113.552422
11
628.730000
21
114.000000
0
LINE
8
Layer 1
10
628.730000
20
114.000000
11
628.639609
21
114.447578
0
LINE
8
Layer 1
10
628.639609
20
114.447578
11
628.393125
21
114.813125
0
LINE
8
Layer 1
10
628.393125
20
114.813125
11
628.027578
21
115.059609
0
LINE
8
Layer 1
10
628.027578
20
115.059609
11
627.580000
21
115.150000
0
LINE
8
Layer 1
10
627.580000
20
115.150000
11
627.132422
21
115.059609
0
LINE
8
Layer 1
10
627.132422
20
115.059609
11
626.766875
21
114.813125
0
LINE
8
Layer 1
10
626.766875
20
114.813125
11
626.520391
21
114.447578
0
LINE
8
Layer 1
10
626.520391
20
114.447578
11
626.430000
21
114.000000
0
LINE
8
Layer 1
10
626.430000
20
114.000000
11
626.430000
21
114.000000
0
LINE
8
Layer 1
10
606.430000
20
114.000000
11
606.520391
21
113.552422
0
LINE
8
Layer 1
10
606.520391
20
113.552422
11
606.766875
21
113.186875
0
LINE
8
Layer 1
10
606.766875
20
113.186875
11
607.132422
21
112.940391
0
LINE
8
Layer 1
10
607.132422
20
112.940391
11
607.580000
21
112.850000
0
LINE
8
Layer 1
10
607.580000
20
112.850000
11
608.027578
21
112.940391
0
LINE
8
Layer 1
10
608.027578
20
112.940391
11
608.393125
21
113.186875
0
LINE
8
Layer 1
10
608.393125
20
113.186875
11
608.639609
21
113.552422
0
LINE
8
Layer 1
10
608.639609
20
113.552422
11
608.730000
21
114.000000
0
LINE
8
Layer 1
10
608.730000
20
114.000000
11
608.639609
21
114.447578
0
LINE
8
Layer 1
10
608.639609
20
114.447578
11
608.393125
21
114.813125
0
LINE
8
Layer 1
10
608.393125
20
114.813125
11
608.027578
21
115.059609
0
LINE
8
Layer 1
10
608.027578
20
115.059609
11
607.580000
21
115.150000
0
LINE
8
Layer 1
10
607.580000
20
115.150000
11
607.132422
21
115.059609
0
LINE
8
Layer 1
10
607.132422
20
115.059609
11
606.766875
21
114.813125
0
LINE
8
Layer 1
10
606.766875
20
114.813125
11
606.520391
21
114.447578
0
LINE
8
Layer 1
10
606.520391
20
114.447578
11
606.430000
21
114.000000
0
LINE
8
Layer 1
10
606.430000
20
114.000000
11
606.430000
21
114.000000
0
LINE
8
Layer 1
10
586.431000
20
114.000000
11
586.521391
21
113.552422
0
LINE
8
Layer 1
10
586.521391
20
113.552422
11
586.767875
21
113.186875
0
LINE
8
Layer 1
10
586.767875
20
113.186875
11
587.133422
21
112.940391
0
LINE
8
Layer 1
10
587.133422
20
112.940391
11
587.581000
21
112.850000
0
LINE
8
Layer 1
10
587.581000
20
112.850000
11
588.028578
21
112.940391
0
LINE
8
Layer 1
10
588.028578
20
112.940391
11
588.394125
21
113.186875
0
LINE
8
Layer 1
10
588.394125
20
113.186875
11
588.640609
21
113.552422
0
LINE
8
Layer 1
10
588.640609
20
113.552422
11
588.731000
21
114.000000
0
LINE
8
Layer 1
10
588.731000
20
114.000000
11
588.640609
21
114.447578
0
LINE
8
Layer 1
10
588.640609
20
114.447578
11
588.394125
21
114.813125
0
LINE
8
Layer 1
10
588.394125
20
114.813125
11
588.028578
21
115.059609
0
LINE
8
Layer 1
10
588.028578
20
115.059609
11
587.581000
21
115.150000
0
LINE
8
Layer 1
10
587.581000
20
115.150000
11
587.133422
21
115.059609
0
LINE
8
Layer 1
10
587.133422
20
115.059609
11
586.767875
21
114.813125
0
LINE
8
Layer 1
10
586.767875
20
114.813125
11
586.521391
21
114.447578
0
LINE
8
Layer 1
10
586.521391
20
114.447578
11
586.431000
21
114.000000
0
LINE
8
Layer 1
10
586.431000
20
114.000000
11
586.431000
21
114.000000
0
LINE
8
Layer 1
10
566.431000
20
114.000000
11
566.521391
21
113.552422
0
LINE
8
Layer 1
10
566.521391
20
113.552422
11
566.767875
21
113.186875
0
LINE
8
Layer 1
10
566.767875
20
113.186875
11
567.133422
21
112.940391
0
LINE
8
Layer 1
10
567.133422
20
112.940391
11
567.581000
21
112.850000
0
LINE
8
Layer 1
10
567.581000
20
112.850000
11
568.028578
21
112.940391
0
LINE
8
Layer 1
10
568.028578
20
112.940391
11
568.394125
21
113.186875
0
LINE
8
Layer 1
10
568.394125
20
113.186875
11
568.640609
21
113.552422
0
LINE
8
Layer 1
10
568.640609
20
113.552422
11
568.731000
21
114.000000
0
LINE
8
Layer 1
10
568.731000
20
114.000000
11
568.640609
21
114.447578
0
LINE
8
Layer 1
10
568.640609
20
114.447578
11
568.394125
21
114.813125
0
LINE
8
Layer 1
10
568.394125
20
114.813125
11
568.028578
21
115.059609
0
LINE
8
Layer 1
10
568.028578
20
115.059609
11
567.581000
21
115.150000
0
LINE
8
Layer 1
10
567.581000
20
115.150000
11
567.133422
21
115.059609
0
LINE
8
Layer 1
10
567.133422
20
115.059609
11
566.767875
21
114.813125
0
LINE
8
Layer 1
10
566.767875
20
114.813125
11
566.521391
21
114.447578
0
LINE
8
Layer 1
10
566.521391
20
114.447578
11
566.431000
21
114.000000
0
LINE
8
Layer 1
10
566.431000
20
114.000000
11
566.431000
21
114.000000
0
LINE
8
Layer 1
10
546.431000
20
114.000000
11
546.521391
21
113.552422
0
LINE
8
Layer 1
10
546.521391
20
113.552422
11
546.767875
21
113.186875
0
LINE
8
Layer 1
10
546.767875
20
113.186875
11
547.133422
21
112.940391
0
LINE
8
Layer 1
10
547.133422
20
112.940391
11
547.581000
21
112.850000
0
LINE
8
Layer 1
10
547.581000
20
112.850000
11
548.028578
21
112.940391
0
LINE
8
Layer 1
10
548.028578
20
112.940391
11
548.394125
21
113.186875
0
LINE
8
Layer 1
10
548.394125
20
113.186875
11
548.640609
21
113.552422
0
LINE
8
Layer 1
10
548.640609
20
113.552422
11
548.731000
21
114.000000
0
LINE
8
Layer 1
10
548.731000
20
114.000000
11
548.640609
21
114.447578
0
LINE
8
Layer 1
10
548.640609
20
114.447578
11
548.394125
21
114.813125
0
LINE
8
Layer 1
10
548.394125
20
114.813125
11
548.028578
21
115.059609
0
LINE
8
Layer 1
10
548.028578
20
115.059609
11
547.581000
21
115.150000
0
LINE
8
Layer 1
10
547.581000
20
115.150000
11
547.133422
21
115.059609
0
LINE
8
Layer 1
10
547.133422
20
115.059609
11
546.767875
21
114.813125
0
LINE
8
Layer 1
10
546.767875
20
114.813125
11
546.521391
21
114.447578
0
LINE
8
Layer 1
10
546.521391
20
114.447578
11
546.431000
21
114.000000
0
LINE
8
Layer 1
10
546.431000
20
114.000000
11
546.431000
21
114.000000
 0 
ENDSEC
 0 
EOF