999
"DXF R12 Output" (www.mydxf.blogspot.com)
 0 
SECTION
 2 
HEADER
 9 
$ACADVER
 1 
AC1009
 9 
$EXTMIN
 10 
 0 
 20 
 0 
 9 
$EXTMAX
 10 
 8.5 
 20 
 11 
 0 
ENDSEC
 0 
SECTION
 2 
ENTITIES
0
LINE
8
Layer 1
10
3.677160
20
30.176200
11
2.703836
21
29.979788
0
LINE
8
Layer 1
10
2.703836
20
29.979788
11
1.908794
21
29.444120
0
LINE
8
Layer 1
10
1.908794
20
29.444120
11
1.372650
21
28.649552
0
LINE
8
Layer 1
10
1.372650
20
28.649552
11
1.176020
21
27.676440
0
LINE
8
Layer 1
10
1.176020
20
27.676440
11
1.176020
21
25.641000
0
LINE
8
Layer 1
10
1.176020
20
25.641000
11
1.058370
21
24.808669
0
LINE
8
Layer 1
10
1.058370
20
24.808669
11
0.714377
21
24.042480
0
LINE
8
Layer 1
10
0.714377
20
24.042480
11
0.312636
21
23.145828
0
LINE
8
Layer 1
10
0.312636
20
23.145828
11
0.176253
21
22.190910
0
LINE
8
Layer 1
10
0.176253
20
22.190910
11
0.305487
21
21.234702
0
LINE
8
Layer 1
10
0.305487
20
21.234702
11
0.700596
21
20.334180
0
LINE
8
Layer 1
10
0.700596
20
20.334180
11
1.374201
21
18.803220
0
LINE
8
Layer 1
10
1.374201
20
18.803220
11
1.598736
21
17.176401
0
LINE
8
Layer 1
10
1.598736
20
17.176401
11
1.374201
21
15.549585
0
LINE
8
Layer 1
10
1.374201
20
15.549585
11
0.700596
21
14.018630
0
LINE
8
Layer 1
10
0.700596
20
14.018630
11
0.305487
21
13.118896
0
LINE
8
Layer 1
10
0.305487
20
13.118896
11
0.176253
21
12.163095
0
LINE
8
Layer 1
10
0.176253
20
12.163095
11
0.312636
21
11.208329
0
LINE
8
Layer 1
10
0.312636
20
11.208329
11
0.714377
21
10.311700
0
LINE
8
Layer 1
10
0.714377
20
10.311700
11
1.058370
21
9.544480
0
LINE
8
Layer 1
10
1.058370
20
9.544480
11
1.176020
21
8.713180
0
LINE
8
Layer 1
10
1.176020
20
8.713180
11
1.176020
21
6.676490
0
LINE
8
Layer 1
10
1.176020
20
6.676490
11
1.372650
21
5.703378
0
LINE
8
Layer 1
10
1.372650
20
5.703378
11
1.908794
21
4.908810
0
LINE
8
Layer 1
10
1.908794
20
4.908810
11
2.703836
21
4.373143
0
LINE
8
Layer 1
10
2.703836
20
4.373143
11
3.677160
21
4.176730
0
LINE
8
Layer 1
10
3.677160
20
4.176730
11
13.232500
21
4.176730
0
LINE
8
Layer 1
10
13.232500
20
4.176730
11
14.491445
21
4.043167
0
LINE
8
Layer 1
10
14.491445
20
4.043167
11
15.681789
21
3.653934
0
LINE
8
Layer 1
10
15.681789
20
3.653934
11
16.765420
21
3.026214
0
LINE
8
Layer 1
10
16.765420
20
3.026214
11
17.704230
21
2.177190
0
LINE
8
Layer 1
10
17.704230
20
2.177190
11
18.601208
21
1.356881
0
LINE
8
Layer 1
10
18.601208
20
1.356881
11
19.612664
21
0.750319
0
LINE
8
Layer 1
10
19.612664
20
0.750319
11
20.704508
21
0.359377
0
LINE
8
Layer 1
10
20.704508
20
0.359377
11
21.842651
21
0.185928
0
LINE
8
Layer 1
10
21.842651
20
0.185928
11
22.993003
21
0.231845
0
LINE
8
Layer 1
10
22.993003
20
0.231845
11
24.121473
21
0.499002
0
LINE
8
Layer 1
10
24.121473
20
0.499002
11
25.193972
21
0.989273
0
LINE
8
Layer 1
10
25.193972
20
0.989273
11
26.176410
21
1.704530
0
LINE
8
Layer 1
10
26.176410
20
1.704530
11
27.025432
21
2.643340
0
LINE
8
Layer 1
10
27.025432
20
2.643340
11
27.653149
21
3.726971
0
LINE
8
Layer 1
10
27.653149
20
3.726971
11
28.042379
21
4.917315
0
LINE
8
Layer 1
10
28.042379
20
4.917315
11
28.175940
21
6.176260
0
LINE
8
Layer 1
10
28.175940
20
6.176260
11
28.419753
21
8.594949
0
LINE
8
Layer 1
10
28.419753
20
8.594949
11
29.119014
21
10.847599
0
LINE
8
Layer 1
10
29.119014
20
10.847599
11
30.225454
21
12.885989
0
LINE
8
Layer 1
10
30.225454
20
12.885989
11
31.690804
21
14.661895
0
LINE
8
Layer 1
10
31.690804
20
14.661895
11
33.466796
21
16.127097
0
LINE
8
Layer 1
10
33.466796
20
16.127097
11
35.505162
21
17.233373
0
LINE
8
Layer 1
10
35.505162
20
17.233373
11
37.757633
21
17.932501
0
LINE
8
Layer 1
10
37.757633
20
17.932501
11
40.175940
21
18.176260
0
LINE
8
Layer 1
10
40.175940
20
18.176260
11
109.176000
21
18.176200
0
LINE
8
Layer 1
10
109.176000
20
18.176200
11
111.594296
21
17.932443
0
LINE
8
Layer 1
10
111.594296
20
17.932443
11
113.846761
21
17.233319
0
LINE
8
Layer 1
10
113.846761
20
17.233319
11
115.885126
21
16.127048
0
LINE
8
Layer 1
10
115.885126
20
16.127048
11
117.661121
21
14.661850
0
LINE
8
Layer 1
10
117.661121
20
14.661850
11
119.126476
21
12.885946
0
LINE
8
Layer 1
10
119.126476
20
12.885946
11
120.232920
21
10.847556
0
LINE
8
Layer 1
10
120.232920
20
10.847556
11
120.932185
21
8.594901
0
LINE
8
Layer 1
10
120.932185
20
8.594901
11
121.176000
21
6.176200
0
LINE
8
Layer 1
10
121.176000
20
6.176200
11
121.297878
21
4.967252
0
LINE
8
Layer 1
10
121.297878
20
4.967252
11
121.647440
21
3.841116
0
LINE
8
Layer 1
10
121.647440
20
3.841116
11
122.200575
21
2.821949
0
LINE
8
Layer 1
10
122.200575
20
2.821949
11
122.933173
21
1.933910
0
LINE
8
Layer 1
10
122.933173
20
1.933910
11
123.821122
21
1.201159
0
LINE
8
Layer 1
10
123.821122
20
1.201159
11
124.840313
21
0.647854
0
LINE
8
Layer 1
10
124.840313
20
0.647854
11
125.966636
21
0.298155
0
LINE
8
Layer 1
10
125.966636
20
0.298155
11
127.175980
21
0.176220
0
LINE
8
Layer 1
10
127.175980
20
0.176220
11
128.434921
21
0.309804
0
LINE
8
Layer 1
10
128.434921
20
0.309804
11
129.625265
21
0.699188
0
LINE
8
Layer 1
10
129.625265
20
0.699188
11
130.708899
21
1.327314
0
LINE
8
Layer 1
10
130.708899
20
1.327314
11
131.647710
21
2.177130
0
LINE
8
Layer 1
10
131.647710
20
2.177130
11
132.586521
21
3.026154
0
LINE
8
Layer 1
10
132.586521
20
3.026154
11
133.670155
21
3.653874
0
LINE
8
Layer 1
10
133.670155
20
3.653874
11
134.860499
21
4.043107
0
LINE
8
Layer 1
10
134.860499
20
4.043107
11
136.119440
21
4.176670
0
LINE
8
Layer 1
10
136.119440
20
4.176670
11
145.676000
21
4.176730
0
LINE
8
Layer 1
10
145.676000
20
4.176730
11
146.649108
21
4.373143
0
LINE
8
Layer 1
10
146.649108
20
4.373143
11
147.443676
21
4.908810
0
LINE
8
Layer 1
10
147.443676
20
4.908810
11
147.979346
21
5.703378
0
LINE
8
Layer 1
10
147.979346
20
5.703378
11
148.175760
21
6.676490
0
LINE
8
Layer 1
10
148.175760
20
6.676490
11
148.175000
21
8.713230
0
LINE
8
Layer 1
10
148.175000
20
8.713230
11
148.292649
21
9.544530
0
LINE
8
Layer 1
10
148.292649
20
9.544530
11
148.636640
21
10.311750
0
LINE
8
Layer 1
10
148.636640
20
10.311750
11
148.976607
21
11.015670
0
LINE
8
Layer 1
10
148.976607
20
11.015670
11
149.150823
21
11.768681
0
LINE
8
Layer 1
10
149.150823
20
11.768681
11
149.155797
21
12.541847
0
LINE
8
Layer 1
10
149.155797
20
12.541847
11
148.988040
21
13.306230
0
LINE
8
Layer 1
10
148.988040
20
13.306230
11
148.506675
21
15.221467
0
LINE
8
Layer 1
10
148.506675
20
15.221467
11
148.346220
21
17.176623
0
LINE
8
Layer 1
10
148.346220
20
17.176623
11
148.506675
21
19.132037
0
LINE
8
Layer 1
10
148.506675
20
19.132037
11
148.988040
21
21.048050
0
LINE
8
Layer 1
10
148.988040
20
21.048050
11
149.155797
21
21.811656
0
LINE
8
Layer 1
10
149.155797
20
21.811656
11
149.150823
21
22.584564
0
LINE
8
Layer 1
10
149.150823
20
22.584564
11
148.976607
21
23.337834
0
LINE
8
Layer 1
10
148.976607
20
23.337834
11
148.636640
21
24.042530
0
LINE
8
Layer 1
10
148.636640
20
24.042530
11
148.292649
21
24.808719
0
LINE
8
Layer 1
10
148.292649
20
24.808719
11
148.175000
21
25.641050
0
LINE
8
Layer 1
10
148.175000
20
25.641050
11
148.175000
21
27.676400
0
LINE
8
Layer 1
10
148.175000
20
27.676400
11
147.978586
21
28.649513
0
LINE
8
Layer 1
10
147.978586
20
28.649513
11
147.442916
21
29.444080
0
LINE
8
Layer 1
10
147.442916
20
29.444080
11
146.648348
21
29.979748
0
LINE
8
Layer 1
10
146.648348
20
29.979748
11
145.675240
21
30.176160
0
LINE
8
Layer 1
10
145.675240
20
30.176160
11
3.677160
21
30.176200
0
LINE
8
Layer 1
10
144.175000
20
22.176600
11
144.293016
21
21.592938
0
LINE
8
Layer 1
10
144.293016
20
21.592938
11
144.614765
21
21.116375
0
LINE
8
Layer 1
10
144.614765
20
21.116375
11
145.091802
21
20.795100
0
LINE
8
Layer 1
10
145.091802
20
20.795100
11
145.675680
21
20.677300
0
LINE
8
Layer 1
10
145.675680
20
20.677300
11
146.259344
21
20.795100
0
LINE
8
Layer 1
10
146.259344
20
20.795100
11
146.735910
21
21.116375
0
LINE
8
Layer 1
10
146.735910
20
21.116375
11
147.057188
21
21.592938
0
LINE
8
Layer 1
10
147.057188
20
21.592938
11
147.174990
21
22.176600
0
LINE
8
Layer 1
10
147.174990
20
22.176600
11
147.057188
21
22.760484
0
LINE
8
Layer 1
10
147.057188
20
22.760484
11
146.735910
21
23.237524
0
LINE
8
Layer 1
10
146.735910
20
23.237524
11
146.259344
21
23.559274
0
LINE
8
Layer 1
10
146.259344
20
23.559274
11
145.675680
21
23.677290
0
LINE
8
Layer 1
10
145.675680
20
23.677290
11
145.091802
21
23.559274
0
LINE
8
Layer 1
10
145.091802
20
23.559274
11
144.614765
21
23.237524
0
LINE
8
Layer 1
10
144.614765
20
23.237524
11
144.293016
21
22.760484
0
LINE
8
Layer 1
10
144.293016
20
22.760484
11
144.175000
21
22.176600
0
LINE
8
Layer 1
10
144.175000
20
22.176600
11
144.175000
21
22.176600
0
LINE
8
Layer 1
10
144.175000
20
12.176200
11
144.293016
21
11.592536
0
LINE
8
Layer 1
10
144.293016
20
11.592536
11
144.614765
21
11.115970
0
LINE
8
Layer 1
10
144.614765
20
11.115970
11
145.091802
21
10.794692
0
LINE
8
Layer 1
10
145.091802
20
10.794692
11
145.675680
21
10.676890
0
LINE
8
Layer 1
10
145.675680
20
10.676890
11
146.259344
21
10.794692
0
LINE
8
Layer 1
10
146.259344
20
10.794692
11
146.735910
21
11.115970
0
LINE
8
Layer 1
10
146.735910
20
11.115970
11
147.057188
21
11.592536
0
LINE
8
Layer 1
10
147.057188
20
11.592536
11
147.174990
21
12.176200
0
LINE
8
Layer 1
10
147.174990
20
12.176200
11
147.057188
21
12.760660
0
LINE
8
Layer 1
10
147.057188
20
12.760660
11
146.735910
21
13.237633
0
LINE
8
Layer 1
10
146.735910
20
13.237633
11
146.259344
21
13.559058
0
LINE
8
Layer 1
10
146.259344
20
13.559058
11
145.675680
21
13.676880
0
LINE
8
Layer 1
10
145.675680
20
13.676880
11
145.091802
21
13.559058
0
LINE
8
Layer 1
10
145.091802
20
13.559058
11
144.614765
21
13.237633
0
LINE
8
Layer 1
10
144.614765
20
13.237633
11
144.293016
21
12.760660
0
LINE
8
Layer 1
10
144.293016
20
12.760660
11
144.175000
21
12.176200
0
LINE
8
Layer 1
10
144.175000
20
12.176200
11
144.175000
21
12.176200
0
LINE
8
Layer 1
10
129.175000
20
22.176600
11
129.293017
21
21.592938
0
LINE
8
Layer 1
10
129.293017
20
21.592938
11
129.614770
21
21.116375
0
LINE
8
Layer 1
10
129.614770
20
21.116375
11
130.091810
21
20.795100
0
LINE
8
Layer 1
10
130.091810
20
20.795100
11
130.675690
21
20.677300
0
LINE
8
Layer 1
10
130.675690
20
20.677300
11
131.259353
21
20.795100
0
LINE
8
Layer 1
10
131.259353
20
20.795100
11
131.735915
21
21.116375
0
LINE
8
Layer 1
10
131.735915
20
21.116375
11
132.057190
21
21.592938
0
LINE
8
Layer 1
10
132.057190
20
21.592938
11
132.174990
21
22.176600
0
LINE
8
Layer 1
10
132.174990
20
22.176600
11
132.057190
21
22.760484
0
LINE
8
Layer 1
10
132.057190
20
22.760484
11
131.735915
21
23.237524
0
LINE
8
Layer 1
10
131.735915
20
23.237524
11
131.259353
21
23.559274
0
LINE
8
Layer 1
10
131.259353
20
23.559274
11
130.675690
21
23.677290
0
LINE
8
Layer 1
10
130.675690
20
23.677290
11
130.091810
21
23.559274
0
LINE
8
Layer 1
10
130.091810
20
23.559274
11
129.614770
21
23.237524
0
LINE
8
Layer 1
10
129.614770
20
23.237524
11
129.293017
21
22.760484
0
LINE
8
Layer 1
10
129.293017
20
22.760484
11
129.175000
21
22.176600
0
LINE
8
Layer 1
10
129.175000
20
22.176600
11
129.175000
21
22.176600
0
LINE
8
Layer 1
10
17.176300
20
22.176600
11
17.294122
21
21.592938
0
LINE
8
Layer 1
10
17.294122
20
21.592938
11
17.615549
21
21.116375
0
LINE
8
Layer 1
10
17.615549
20
21.116375
11
18.092522
21
20.795100
0
LINE
8
Layer 1
10
18.092522
20
20.795100
11
18.676980
21
20.677300
0
LINE
8
Layer 1
10
18.676980
20
20.677300
11
19.260643
21
20.795100
0
LINE
8
Layer 1
10
19.260643
20
20.795100
11
19.737205
21
21.116375
0
LINE
8
Layer 1
10
19.737205
20
21.116375
11
20.058480
21
21.592938
0
LINE
8
Layer 1
10
20.058480
20
21.592938
11
20.176280
21
22.176600
0
LINE
8
Layer 1
10
20.176280
20
22.176600
11
20.058479
21
22.760484
0
LINE
8
Layer 1
10
20.058479
20
22.760484
11
19.737204
21
23.237524
0
LINE
8
Layer 1
10
19.737204
20
23.237524
11
19.260641
21
23.559274
0
LINE
8
Layer 1
10
19.260641
20
23.559274
11
18.676980
21
23.677290
0
LINE
8
Layer 1
10
18.676980
20
23.677290
11
18.092520
21
23.559274
0
LINE
8
Layer 1
10
18.092520
20
23.559274
11
17.615548
21
23.237524
0
LINE
8
Layer 1
10
17.615548
20
23.237524
11
17.294122
21
22.760484
0
LINE
8
Layer 1
10
17.294122
20
22.760484
11
17.176300
21
22.176600
0
LINE
8
Layer 1
10
17.176300
20
22.176600
11
17.176300
21
22.176600
0
LINE
8
Layer 1
10
2.176340
20
12.176200
11
2.294356
21
11.592536
0
LINE
8
Layer 1
10
2.294356
20
11.592536
11
2.616106
21
11.115970
0
LINE
8
Layer 1
10
2.616106
20
11.115970
11
3.093143
21
10.794692
0
LINE
8
Layer 1
10
3.093143
20
10.794692
11
3.677020
21
10.676890
0
LINE
8
Layer 1
10
3.677020
20
10.676890
11
4.260684
21
10.794692
0
LINE
8
Layer 1
10
4.260684
20
10.794692
11
4.737250
21
11.115970
0
LINE
8
Layer 1
10
4.737250
20
11.115970
11
5.058529
21
11.592536
0
LINE
8
Layer 1
10
5.058529
20
11.592536
11
5.176330
21
12.176200
0
LINE
8
Layer 1
10
5.176330
20
12.176200
11
5.058529
21
12.760660
0
LINE
8
Layer 1
10
5.058529
20
12.760660
11
4.737252
21
13.237633
0
LINE
8
Layer 1
10
4.737252
20
13.237633
11
4.260687
21
13.559058
0
LINE
8
Layer 1
10
4.260687
20
13.559058
11
3.677020
21
13.676880
0
LINE
8
Layer 1
10
3.677020
20
13.676880
11
3.093141
21
13.559058
0
LINE
8
Layer 1
10
3.093141
20
13.559058
11
2.616105
21
13.237633
0
LINE
8
Layer 1
10
2.616105
20
13.237633
11
2.294355
21
12.760660
0
LINE
8
Layer 1
10
2.294355
20
12.760660
11
2.176340
21
12.176200
0
LINE
8
Layer 1
10
2.176340
20
12.176200
11
2.176340
21
12.176200
0
LINE
8
Layer 1
10
2.176340
20
22.176600
11
2.294356
21
21.592938
0
LINE
8
Layer 1
10
2.294356
20
21.592938
11
2.616106
21
21.116375
0
LINE
8
Layer 1
10
2.616106
20
21.116375
11
3.093143
21
20.795100
0
LINE
8
Layer 1
10
3.093143
20
20.795100
11
3.677020
21
20.677300
0
LINE
8
Layer 1
10
3.677020
20
20.677300
11
4.260684
21
20.795100
0
LINE
8
Layer 1
10
4.260684
20
20.795100
11
4.737250
21
21.116375
0
LINE
8
Layer 1
10
4.737250
20
21.116375
11
5.058529
21
21.592938
0
LINE
8
Layer 1
10
5.058529
20
21.592938
11
5.176330
21
22.176600
0
LINE
8
Layer 1
10
5.176330
20
22.176600
11
5.058529
21
22.760484
0
LINE
8
Layer 1
10
5.058529
20
22.760484
11
4.737252
21
23.237524
0
LINE
8
Layer 1
10
4.737252
20
23.237524
11
4.260687
21
23.559274
0
LINE
8
Layer 1
10
4.260687
20
23.559274
11
3.677020
21
23.677290
0
LINE
8
Layer 1
10
3.677020
20
23.677290
11
3.093141
21
23.559274
0
LINE
8
Layer 1
10
3.093141
20
23.559274
11
2.616105
21
23.237524
0
LINE
8
Layer 1
10
2.616105
20
23.237524
11
2.294355
21
22.760484
0
LINE
8
Layer 1
10
2.294355
20
22.760484
11
2.176340
21
22.176600
0
LINE
8
Layer 1
10
2.176340
20
22.176600
11
2.176340
21
22.176600
0
LINE
8
Layer 1
10
136.975000
20
17.177100
11
137.069332
21
16.709921
0
LINE
8
Layer 1
10
137.069332
20
16.709921
11
137.326574
21
16.328395
0
LINE
8
Layer 1
10
137.326574
20
16.328395
11
137.708096
21
16.071152
0
LINE
8
Layer 1
10
137.708096
20
16.071152
11
138.175270
21
15.976820
0
LINE
8
Layer 1
10
138.175270
20
15.976820
11
138.642449
21
16.071152
0
LINE
8
Layer 1
10
138.642449
20
16.071152
11
139.023975
21
16.328395
0
LINE
8
Layer 1
10
139.023975
20
16.328395
11
139.281218
21
16.709921
0
LINE
8
Layer 1
10
139.281218
20
16.709921
11
139.375550
21
17.177100
0
LINE
8
Layer 1
10
139.375550
20
17.177100
11
139.281218
21
17.644274
0
LINE
8
Layer 1
10
139.281218
20
17.644274
11
139.023975
21
18.025796
0
LINE
8
Layer 1
10
139.023975
20
18.025796
11
138.642449
21
18.283038
0
LINE
8
Layer 1
10
138.642449
20
18.283038
11
138.175270
21
18.377370
0
LINE
8
Layer 1
10
138.175270
20
18.377370
11
137.708096
21
18.283038
0
LINE
8
Layer 1
10
137.708096
20
18.283038
11
137.326574
21
18.025796
0
LINE
8
Layer 1
10
137.326574
20
18.025796
11
137.069332
21
17.644274
0
LINE
8
Layer 1
10
137.069332
20
17.644274
11
136.975000
21
17.177100
0
LINE
8
Layer 1
10
136.975000
20
17.177100
11
136.975000
21
17.177100
0
LINE
8
Layer 1
10
125.975000
20
6.176260
11
126.069330
21
5.709298
0
LINE
8
Layer 1
10
126.069330
20
5.709298
11
126.326570
21
5.328250
0
LINE
8
Layer 1
10
126.326570
20
5.328250
11
126.708092
21
5.071485
0
LINE
8
Layer 1
10
126.708092
20
5.071485
11
127.175270
21
4.977370
0
LINE
8
Layer 1
10
127.175270
20
4.977370
11
127.642444
21
5.071485
0
LINE
8
Layer 1
10
127.642444
20
5.071485
11
128.023966
21
5.328250
0
LINE
8
Layer 1
10
128.023966
20
5.328250
11
128.281208
21
5.709298
0
LINE
8
Layer 1
10
128.281208
20
5.709298
11
128.375540
21
6.176260
0
LINE
8
Layer 1
10
128.375540
20
6.176260
11
128.281208
21
6.643438
0
LINE
8
Layer 1
10
128.281208
20
6.643438
11
128.023966
21
7.024960
0
LINE
8
Layer 1
10
128.023966
20
7.024960
11
127.642444
21
7.282200
0
LINE
8
Layer 1
10
127.642444
20
7.282200
11
127.175270
21
7.376530
0
LINE
8
Layer 1
10
127.175270
20
7.376530
11
126.708092
21
7.282200
0
LINE
8
Layer 1
10
126.708092
20
7.282200
11
126.326570
21
7.024960
0
LINE
8
Layer 1
10
126.326570
20
7.024960
11
126.069330
21
6.643438
0
LINE
8
Layer 1
10
126.069330
20
6.643438
11
125.975000
21
6.176260
0
LINE
8
Layer 1
10
125.975000
20
6.176260
11
125.975000
21
6.176260
0
LINE
8
Layer 1
10
125.975000
20
17.177100
11
126.069330
21
16.709921
0
LINE
8
Layer 1
10
126.069330
20
16.709921
11
126.326570
21
16.328395
0
LINE
8
Layer 1
10
126.326570
20
16.328395
11
126.708092
21
16.071152
0
LINE
8
Layer 1
10
126.708092
20
16.071152
11
127.175270
21
15.976820
0
LINE
8
Layer 1
10
127.175270
20
15.976820
11
127.642444
21
16.071152
0
LINE
8
Layer 1
10
127.642444
20
16.071152
11
128.023966
21
16.328395
0
LINE
8
Layer 1
10
128.023966
20
16.328395
11
128.281208
21
16.709921
0
LINE
8
Layer 1
10
128.281208
20
16.709921
11
128.375540
21
17.177100
0
LINE
8
Layer 1
10
128.375540
20
17.177100
11
128.281208
21
17.644274
0
LINE
8
Layer 1
10
128.281208
20
17.644274
11
128.023966
21
18.025796
0
LINE
8
Layer 1
10
128.023966
20
18.025796
11
127.642444
21
18.283038
0
LINE
8
Layer 1
10
127.642444
20
18.283038
11
127.175270
21
18.377370
0
LINE
8
Layer 1
10
127.175270
20
18.377370
11
126.708092
21
18.283038
0
LINE
8
Layer 1
10
126.708092
20
18.283038
11
126.326570
21
18.025796
0
LINE
8
Layer 1
10
126.326570
20
18.025796
11
126.069330
21
17.644274
0
LINE
8
Layer 1
10
126.069330
20
17.644274
11
125.975000
21
17.177100
0
LINE
8
Layer 1
10
125.975000
20
17.177100
11
125.975000
21
17.177100
0
LINE
8
Layer 1
10
20.976900
20
6.176260
11
21.071037
21
5.709298
0
LINE
8
Layer 1
10
21.071037
20
5.709298
11
21.327955
21
5.328250
0
LINE
8
Layer 1
10
21.327955
20
5.328250
11
21.709413
21
5.071485
0
LINE
8
Layer 1
10
21.709413
20
5.071485
11
22.177170
21
4.977370
0
LINE
8
Layer 1
10
22.177170
20
4.977370
11
22.643550
21
5.071485
0
LINE
8
Layer 1
10
22.643550
20
5.071485
11
23.024662
21
5.328250
0
LINE
8
Layer 1
10
23.024662
20
5.328250
11
23.281751
21
5.709298
0
LINE
8
Layer 1
10
23.281751
20
5.709298
11
23.376060
21
6.176260
0
LINE
8
Layer 1
10
23.376060
20
6.176260
11
23.281751
21
6.643438
0
LINE
8
Layer 1
10
23.281751
20
6.643438
11
23.024661
21
7.024960
0
LINE
8
Layer 1
10
23.024661
20
7.024960
11
22.643548
21
7.282200
0
LINE
8
Layer 1
10
22.643548
20
7.282200
11
22.177170
21
7.376530
0
LINE
8
Layer 1
10
22.177170
20
7.376530
11
21.709413
21
7.282200
0
LINE
8
Layer 1
10
21.709413
20
7.282200
11
21.327955
21
7.024960
0
LINE
8
Layer 1
10
21.327955
20
7.024960
11
21.071037
21
6.643438
0
LINE
8
Layer 1
10
21.071037
20
6.643438
11
20.976900
21
6.176260
0
LINE
8
Layer 1
10
20.976900
20
6.176260
11
20.976900
21
6.176260
0
LINE
8
Layer 1
10
9.976030
20
17.177100
11
10.070361
21
16.709921
0
LINE
8
Layer 1
10
10.070361
20
16.709921
11
10.327602
21
16.328395
0
LINE
8
Layer 1
10
10.327602
20
16.328395
11
10.709124
21
16.071152
0
LINE
8
Layer 1
10
10.709124
20
16.071152
11
11.176300
21
15.976820
0
LINE
8
Layer 1
10
11.176300
20
15.976820
11
11.643476
21
16.071152
0
LINE
8
Layer 1
10
11.643476
20
16.071152
11
12.024998
21
16.328395
0
LINE
8
Layer 1
10
12.024998
20
16.328395
11
12.282239
21
16.709921
0
LINE
8
Layer 1
10
12.282239
20
16.709921
11
12.376570
21
17.177100
0
LINE
8
Layer 1
10
12.376570
20
17.177100
11
12.282239
21
17.644274
0
LINE
8
Layer 1
10
12.282239
20
17.644274
11
12.024998
21
18.025796
0
LINE
8
Layer 1
10
12.024998
20
18.025796
11
11.643476
21
18.283038
0
LINE
8
Layer 1
10
11.643476
20
18.283038
11
11.176300
21
18.377370
0
LINE
8
Layer 1
10
11.176300
20
18.377370
11
10.709124
21
18.283038
0
LINE
8
Layer 1
10
10.709124
20
18.283038
11
10.327602
21
18.025796
0
LINE
8
Layer 1
10
10.327602
20
18.025796
11
10.070361
21
17.644274
0
LINE
8
Layer 1
10
10.070361
20
17.644274
11
9.976030
21
17.177100
0
LINE
8
Layer 1
10
9.976030
20
17.177100
11
9.976030
21
17.177100
0
LINE
8
Layer 1
10
20.976900
20
17.177100
11
21.071037
21
16.709921
0
LINE
8
Layer 1
10
21.071037
20
16.709921
11
21.327955
21
16.328395
0
LINE
8
Layer 1
10
21.327955
20
16.328395
11
21.709413
21
16.071152
0
LINE
8
Layer 1
10
21.709413
20
16.071152
11
22.177170
21
15.976820
0
LINE
8
Layer 1
10
22.177170
20
15.976820
11
22.643550
21
16.071152
0
LINE
8
Layer 1
10
22.643550
20
16.071152
11
23.024662
21
16.328395
0
LINE
8
Layer 1
10
23.024662
20
16.328395
11
23.281751
21
16.709921
0
LINE
8
Layer 1
10
23.281751
20
16.709921
11
23.376060
21
17.177100
0
LINE
8
Layer 1
10
23.376060
20
17.177100
11
23.281751
21
17.644274
0
LINE
8
Layer 1
10
23.281751
20
17.644274
11
23.024661
21
18.025796
0
LINE
8
Layer 1
10
23.024661
20
18.025796
11
22.643548
21
18.283038
0
LINE
8
Layer 1
10
22.643548
20
18.283038
11
22.177170
21
18.377370
0
LINE
8
Layer 1
10
22.177170
20
18.377370
11
21.709413
21
18.283038
0
LINE
8
Layer 1
10
21.709413
20
18.283038
11
21.327955
21
18.025796
0
LINE
8
Layer 1
10
21.327955
20
18.025796
11
21.071037
21
17.644274
0
LINE
8
Layer 1
10
21.071037
20
17.644274
11
20.976900
21
17.177100
0
LINE
8
Layer 1
10
20.976900
20
17.177100
11
20.976900
21
17.177100
0
LINE
8
Layer 1
10
113.526000
20
24.176200
11
113.616240
21
23.729203
0
LINE
8
Layer 1
10
113.616240
20
23.729203
11
113.862415
21
23.363851
0
LINE
8
Layer 1
10
113.862415
20
23.363851
11
114.227705
21
23.117354
0
LINE
8
Layer 1
10
114.227705
20
23.117354
11
114.675290
21
23.026920
0
LINE
8
Layer 1
10
114.675290
20
23.026920
11
115.123085
21
23.117354
0
LINE
8
Layer 1
10
115.123085
20
23.117354
11
115.488846
21
23.363851
0
LINE
8
Layer 1
10
115.488846
20
23.363851
11
115.735494
21
23.729203
0
LINE
8
Layer 1
10
115.735494
20
23.729203
11
115.825950
21
24.176200
0
LINE
8
Layer 1
10
115.825950
20
24.176200
11
115.735494
21
24.624001
0
LINE
8
Layer 1
10
115.735494
20
24.624001
11
115.488846
21
24.989765
0
LINE
8
Layer 1
10
115.488846
20
24.989765
11
115.123085
21
25.236414
0
LINE
8
Layer 1
10
115.123085
20
25.236414
11
114.675290
21
25.326870
0
LINE
8
Layer 1
10
114.675290
20
25.326870
11
114.227705
21
25.236414
0
LINE
8
Layer 1
10
114.227705
20
25.236414
11
113.862415
21
24.989765
0
LINE
8
Layer 1
10
113.862415
20
24.989765
11
113.616240
21
24.624001
0
LINE
8
Layer 1
10
113.616240
20
24.624001
11
113.526000
21
24.176200
0
LINE
8
Layer 1
10
113.526000
20
24.176200
11
113.526000
21
24.176200
0
LINE
8
Layer 1
10
93.525100
20
24.176200
11
93.615555
21
23.729203
0
LINE
8
Layer 1
10
93.615555
20
23.729203
11
93.862203
21
23.363851
0
LINE
8
Layer 1
10
93.862203
20
23.363851
11
94.227964
21
23.117354
0
LINE
8
Layer 1
10
94.227964
20
23.117354
11
94.675760
21
23.026920
0
LINE
8
Layer 1
10
94.675760
20
23.026920
11
95.123558
21
23.117354
0
LINE
8
Layer 1
10
95.123558
20
23.117354
11
95.489318
21
23.363851
0
LINE
8
Layer 1
10
95.489318
20
23.363851
11
95.735965
21
23.729203
0
LINE
8
Layer 1
10
95.735965
20
23.729203
11
95.826420
21
24.176200
0
LINE
8
Layer 1
10
95.826420
20
24.176200
11
95.735965
21
24.624001
0
LINE
8
Layer 1
10
95.735965
20
24.624001
11
95.489318
21
24.989765
0
LINE
8
Layer 1
10
95.489318
20
24.989765
11
95.123557
21
25.236414
0
LINE
8
Layer 1
10
95.123557
20
25.236414
11
94.675760
21
25.326870
0
LINE
8
Layer 1
10
94.675760
20
25.326870
11
94.227963
21
25.236414
0
LINE
8
Layer 1
10
94.227963
20
25.236414
11
93.862202
21
24.989765
0
LINE
8
Layer 1
10
93.862202
20
24.989765
11
93.615555
21
24.624001
0
LINE
8
Layer 1
10
93.615555
20
24.624001
11
93.525100
21
24.176200
0
LINE
8
Layer 1
10
93.525100
20
24.176200
11
93.525100
21
24.176200
0
LINE
8
Layer 1
10
73.525600
20
24.176200
11
73.616055
21
23.729203
0
LINE
8
Layer 1
10
73.616055
20
23.729203
11
73.862702
21
23.363851
0
LINE
8
Layer 1
10
73.862702
20
23.363851
11
74.228463
21
23.117354
0
LINE
8
Layer 1
10
74.228463
20
23.117354
11
74.676260
21
23.026920
0
LINE
8
Layer 1
10
74.676260
20
23.026920
11
75.123842
21
23.117354
0
LINE
8
Layer 1
10
75.123842
20
23.117354
11
75.489128
21
23.363851
0
LINE
8
Layer 1
10
75.489128
20
23.363851
11
75.735301
21
23.729203
0
LINE
8
Layer 1
10
75.735301
20
23.729203
11
75.825540
21
24.176200
0
LINE
8
Layer 1
10
75.825540
20
24.176200
11
75.735300
21
24.624001
0
LINE
8
Layer 1
10
75.735300
20
24.624001
11
75.489127
21
24.989765
0
LINE
8
Layer 1
10
75.489127
20
24.989765
11
75.123840
21
25.236414
0
LINE
8
Layer 1
10
75.123840
20
25.236414
11
74.676260
21
25.326870
0
LINE
8
Layer 1
10
74.676260
20
25.326870
11
74.228462
21
25.236414
0
LINE
8
Layer 1
10
74.228462
20
25.236414
11
73.862701
21
24.989765
0
LINE
8
Layer 1
10
73.862701
20
24.989765
11
73.616055
21
24.624001
0
LINE
8
Layer 1
10
73.616055
20
24.624001
11
73.525600
21
24.176200
0
LINE
8
Layer 1
10
73.525600
20
24.176200
11
73.525600
21
24.176200
0
LINE
8
Layer 1
10
53.526200
20
24.176200
11
53.616440
21
23.729203
0
LINE
8
Layer 1
10
53.616440
20
23.729203
11
53.862613
21
23.363851
0
LINE
8
Layer 1
10
53.862613
20
23.363851
11
54.227900
21
23.117354
0
LINE
8
Layer 1
10
54.227900
20
23.117354
11
54.675480
21
23.026920
0
LINE
8
Layer 1
10
54.675480
20
23.026920
11
55.123278
21
23.117354
0
LINE
8
Layer 1
10
55.123278
20
23.117354
11
55.489038
21
23.363851
0
LINE
8
Layer 1
10
55.489038
20
23.363851
11
55.735685
21
23.729203
0
LINE
8
Layer 1
10
55.735685
20
23.729203
11
55.826140
21
24.176200
0
LINE
8
Layer 1
10
55.826140
20
24.176200
11
55.735685
21
24.624001
0
LINE
8
Layer 1
10
55.735685
20
24.624001
11
55.489038
21
24.989765
0
LINE
8
Layer 1
10
55.489038
20
24.989765
11
55.123277
21
25.236414
0
LINE
8
Layer 1
10
55.123277
20
25.236414
11
54.675480
21
25.326870
0
LINE
8
Layer 1
10
54.675480
20
25.326870
11
54.227898
21
25.236414
0
LINE
8
Layer 1
10
54.227898
20
25.236414
11
53.862612
21
24.989765
0
LINE
8
Layer 1
10
53.862612
20
24.989765
11
53.616439
21
24.624001
0
LINE
8
Layer 1
10
53.616439
20
24.624001
11
53.526200
21
24.176200
0
LINE
8
Layer 1
10
53.526200
20
24.176200
11
53.526200
21
24.176200
0
LINE
8
Layer 1
10
33.526700
20
24.176200
11
33.616940
21
23.729203
0
LINE
8
Layer 1
10
33.616940
20
23.729203
11
33.863113
21
23.363851
0
LINE
8
Layer 1
10
33.863113
20
23.363851
11
34.228400
21
23.117354
0
LINE
8
Layer 1
10
34.228400
20
23.117354
11
34.675980
21
23.026920
0
LINE
8
Layer 1
10
34.675980
20
23.026920
11
35.123778
21
23.117354
0
LINE
8
Layer 1
10
35.123778
20
23.117354
11
35.489538
21
23.363851
0
LINE
8
Layer 1
10
35.489538
20
23.363851
11
35.736185
21
23.729203
0
LINE
8
Layer 1
10
35.736185
20
23.729203
11
35.826640
21
24.176200
0
LINE
8
Layer 1
10
35.826640
20
24.176200
11
35.736185
21
24.624001
0
LINE
8
Layer 1
10
35.736185
20
24.624001
11
35.489538
21
24.989765
0
LINE
8
Layer 1
10
35.489538
20
24.989765
11
35.123777
21
25.236414
0
LINE
8
Layer 1
10
35.123777
20
25.236414
11
34.675980
21
25.326870
0
LINE
8
Layer 1
10
34.675980
20
25.326870
11
34.228398
21
25.236414
0
LINE
8
Layer 1
10
34.228398
20
25.236414
11
33.863112
21
24.989765
0
LINE
8
Layer 1
10
33.863112
20
24.989765
11
33.616939
21
24.624001
0
LINE
8
Layer 1
10
33.616939
20
24.624001
11
33.526700
21
24.176200
0
LINE
8
Layer 1
10
33.526700
20
24.176200
11
33.526700
21
24.176200
 0 
ENDSEC
 0 
EOF