<?xml version="1.0" encoding="UTF-8" standalone="no"?>
<!-- Created with Inkscape (http://www.inkscape.org/) -->

<svg
   width="164.10001mm"
   height="32.099998mm"
   viewBox="0 0 164.10001 32.099998"
   version="1.1"
   id="svg1"
   inkscape:version="1.4 (86a8ad7, 2024-10-11)"
   xml:space="preserve"
   sodipodi:docname="MotorMount.svg"
   xmlns:inkscape="http://www.inkscape.org/namespaces/inkscape"
   xmlns:sodipodi="http://sodipodi.sourceforge.net/DTD/sodipodi-0.dtd"
   xmlns="http://www.w3.org/2000/svg"
   xmlns:svg="http://www.w3.org/2000/svg"><sodipodi:namedview
     id="namedview1"
     pagecolor="#ffffff"
     bordercolor="#000000"
     borderopacity="0.25"
     inkscape:showpageshadow="2"
     inkscape:pageopacity="0.0"
     inkscape:pagecheckerboard="0"
     inkscape:deskcolor="#d1d1d1"
     inkscape:document-units="mm"
     showgrid="true"
     inkscape:zoom="0.80382937"
     inkscape:cx="423.59736"
     inkscape:cy="658.09987"
     inkscape:current-layer="layer1"><inkscape:grid
       id="grid1"
       units="mm"
       originx="-53.38125"
       originy="-20.956506"
       spacingx="0.99999986"
       spacingy="1"
       empcolor="#0099e5"
       empopacity="0.30196078"
       color="#0099e5"
       opacity="0.14901961"
       empspacing="5"
       enabled="true"
       visible="true" /></sodipodi:namedview><defs
     id="defs1"><marker
       id="DistanceX"
       orient="auto"
       refX="0"
       refY="0"
       style="overflow:visible"><path
         d="M 3,-3 -3,3 M 0,-5 V 5"
         style="stroke:#000000;stroke-width:0.5"
         id="path1" /></marker><pattern
       id="Hatch"
       patternUnits="userSpaceOnUse"
       width="8"
       height="8"
       x="0"
       y="0"><path
         d="M8 4 l-4,4"
         stroke="#000000"
         stroke-width="0.25"
         linecap="square"
         id="path2" /><path
         d="M6 2 l-4,4"
         stroke="#000000"
         stroke-width="0.25"
         linecap="square"
         id="path3" /><path
         d="M4 0 l-4,4"
         stroke="#000000"
         stroke-width="0.25"
         linecap="square"
         id="path4" /></pattern><symbol
       id="*MODEL_SPACE" /><symbol
       id="*PAPER_SPACE" /></defs><g
     inkscape:label="Layer 1"
     inkscape:groupmode="layer"
     id="layer1"
     transform="translate(-53.381251,-20.956507)"><path
       d="M 217.43125,53.006506 H 53.431251 V 21.006507 H 217.43125 Z"
       style="fill:none;stroke:#ff0000;stroke-width:0.1;stroke-dasharray:none;stroke-opacity:1"
       id="path11" /><path
       style="fill:none;stroke:#ff0000;stroke-width:0.1;stroke-dasharray:none;stroke-opacity:1"
       d="m 172.48879,24.206579 h 3.00011"
       id="path12" /><path
       d="m 61.031248,27.006505 a 1.6,1.6 0 0 0 -3.199997,0 1.6,1.6 0 0 0 3.199997,0 z"
       style="fill:none;stroke:#ff0000;stroke-width:0.1;stroke-dasharray:none;stroke-opacity:1"
       id="path13" /><path
       d="m 172.48884,49.806474 c -0.71791,0 -1.29999,-0.582083 -1.29999,-1.299985 0,-0.717902 0.58208,-1.299986 1.29999,-1.299986"
       style="fill:none;stroke:#ff0000;stroke-width:0.1;stroke-dasharray:none;stroke-opacity:1"
       id="path14" /><path
       d="m 213.03125,47.006508 a 1.6,1.6 0 0 0 -3.2,0 1.6,1.6 0 0 0 3.2,0 z"
       style="fill:none;stroke:#ff0000;stroke-width:0.1;stroke-dasharray:none;stroke-opacity:1"
       id="path15" /><path
       d="m 183.98886,48.206488 c -6.1856,0 -11.19999,-5.014383 -11.19999,-11.199989 0,-6.185607 5.01439,-11.19999 11.19999,-11.19999"
       style="fill:none;stroke:#ff0000;stroke-width:0.1;stroke-dasharray:none;stroke-opacity:1"
       id="path16" /><path
       style="fill:none;stroke:#ff0000;stroke-width:0.1;stroke-dasharray:none;stroke-opacity:1"
       d="M 98.373709,24.206579 H 95.373598"
       id="path17" /><path
       style="fill:none;stroke:#ff0000;stroke-width:0.1;stroke-dasharray:none;stroke-opacity:1"
       d="m 195.48876,24.206579 h 3.00011"
       id="path18" /><path
       d="m 175.48886,47.206503 c 0.7179,0 1.29998,0.582084 1.29998,1.299986 0,0.717902 -0.58208,1.299985 -1.29998,1.299985"
       style="fill:none;stroke:#ff0000;stroke-width:0.1;stroke-dasharray:none;stroke-opacity:1"
       id="path19" /><path
       style="fill:none;stroke:#ff0000;stroke-width:0.1;stroke-dasharray:none;stroke-opacity:1"
       d="m 95.373598,26.806375 h 3.000111"
       id="path20" /><path
       style="fill:none;stroke:#ff0000;stroke-width:0.1;stroke-dasharray:none;stroke-opacity:1"
       d="m 95.373598,49.806604 h 3.000111"
       id="path21" /><path
       style="fill:none;stroke:#ff0000;stroke-width:0.1;stroke-dasharray:none;stroke-opacity:1"
       d="m 175.4889,26.806375 h -3.00011"
       id="path22" /><path
       style="fill:none;stroke:#ff0000;stroke-width:0.1;stroke-dasharray:none;stroke-opacity:1"
       d="m 198.48887,49.806604 h -3.00011"
       id="path23" /><path
       style="fill:none;stroke:#ff0000;stroke-width:0.1;stroke-dasharray:none;stroke-opacity:1"
       d="m 72.373634,26.806375 h 3.000111"
       id="path24" /><path
       d="m 95.373641,24.206486 c -0.717902,0 -1.299985,0.582084 -1.299985,1.299985 0,0.717905 0.582083,1.299986 1.299985,1.299986"
       style="fill:none;stroke:#ff0000;stroke-width:0.1;stroke-dasharray:none;stroke-opacity:1"
       id="path25" /><path
       d="m 198.48888,24.206486 c 0.7179,0 1.29998,0.582084 1.29998,1.299985 0,0.717905 -0.58208,1.299986 -1.29998,1.299986"
       style="fill:none;stroke:#ff0000;stroke-width:0.1;stroke-dasharray:none;stroke-opacity:1"
       id="path26" /><path
       d="m 213.03125,27.006505 a 1.6,1.6 0 0 0 -3.2,0 1.6,1.6 0 0 0 3.2,0 z"
       style="fill:none;stroke:#ff0000;stroke-width:0.1;stroke-dasharray:none;stroke-opacity:1"
       id="path27" /><path
       style="fill:none;stroke:#ff0000;stroke-width:0.1;stroke-dasharray:none;stroke-opacity:1"
       d="m 172.48879,47.206543 h 3.00011"
       id="path28" /><path
       d="m 98.373664,49.806474 c 0.717902,0 1.299985,-0.582083 1.299985,-1.299985 0,-0.717902 -0.582083,-1.299986 -1.299985,-1.299986"
       style="fill:none;stroke:#ff0000;stroke-width:0.1;stroke-dasharray:none;stroke-opacity:1"
       id="path29" /><path
       style="fill:none;stroke:#ff0000;stroke-width:0.1;stroke-dasharray:none;stroke-opacity:1"
       d="m 195.48876,47.206543 h 3.00011"
       id="path30" /><path
       d="m 213.03125,37.006507 a 1.6,1.6 0 0 0 -3.2,0 1.6,1.6 0 0 0 3.2,0 z"
       style="fill:none;stroke:#ff0000;stroke-width:0.1;stroke-dasharray:none;stroke-opacity:1"
       id="path31" /><path
       d="m 195.48885,26.806457 c -0.7179,0 -1.29998,-0.582081 -1.29998,-1.299986 0,-0.717901 0.58208,-1.299985 1.29998,-1.299985"
       style="fill:none;stroke:#ff0000;stroke-width:0.1;stroke-dasharray:none;stroke-opacity:1"
       id="path32" /><path
       style="fill:none;stroke:#ff0000;stroke-width:0.1;stroke-dasharray:none;stroke-opacity:1"
       d="M 75.373745,24.206579 H 72.373634"
       id="path33" /><path
       style="fill:none;stroke:#ff0000;stroke-width:0.1;stroke-dasharray:none;stroke-opacity:1"
       d="m 72.373634,49.806604 h 3.000111"
       id="path34" /><path
       style="fill:none;stroke:#ff0000;stroke-width:0.1;stroke-dasharray:none;stroke-opacity:1"
       d="m 198.48887,26.806375 h -3.00011"
       id="path35" /><path
       style="fill:none;stroke:#ff0000;stroke-width:0.1;stroke-dasharray:none;stroke-opacity:1"
       d="m 175.4889,49.806604 h -3.00011"
       id="path36" /><path
       d="m 86.873637,48.206488 c 6.185606,0 11.199989,-5.014383 11.199989,-11.199989 0,-6.185607 -5.014383,-11.19999 -11.199989,-11.19999"
       style="fill:none;stroke:#ff0000;stroke-width:0.1;stroke-dasharray:none;stroke-opacity:1"
       id="path37" /><path
       d="m 72.373624,24.206486 c -0.717902,0 -1.299986,0.582084 -1.299986,1.299985 0,0.717905 0.582084,1.299986 1.299986,1.299986"
       style="fill:none;stroke:#ff0000;stroke-width:0.1;stroke-dasharray:none;stroke-opacity:1"
       id="path38" /><path
       style="fill:none;stroke:#ff0000;stroke-width:0.1;stroke-dasharray:none;stroke-opacity:1"
       d="m 83.873484,48.206404 h 3.00011"
       id="path39" /><path
       d="m 198.48888,47.206538 c 0.7179,0 1.29998,0.582083 1.29998,1.299988 0,0.717902 -0.58208,1.299985 -1.29998,1.299985"
       style="fill:none;stroke:#ff0000;stroke-width:0.1;stroke-dasharray:none;stroke-opacity:1"
       id="path40" /><path
       d="m 186.98888,25.806509 c 6.18561,0 11.19999,5.014383 11.19999,11.19999 0,6.185606 -5.01438,11.199989 -11.19999,11.199989"
       style="fill:none;stroke:#ff0000;stroke-width:0.1;stroke-dasharray:none;stroke-opacity:1"
       id="path41" /><path
       d="m 98.373664,26.806457 c 0.717902,0 1.299985,-0.582081 1.299985,-1.299986 0,-0.717901 -0.582083,-1.299985 -1.299985,-1.299985"
       style="fill:none;stroke:#ff0000;stroke-width:0.1;stroke-dasharray:none;stroke-opacity:1"
       id="path42" /><path
       style="fill:none;stroke:#ff0000;stroke-width:0.1;stroke-dasharray:none;stroke-opacity:1"
       d="M 98.373709,47.206543 H 95.373598"
       id="path43" /><path
       d="m 75.373647,26.806457 c 0.717901,0 1.299985,-0.582081 1.299985,-1.299986 0,-0.717901 -0.582084,-1.299985 -1.299985,-1.299985"
       style="fill:none;stroke:#ff0000;stroke-width:0.1;stroke-dasharray:none;stroke-opacity:1"
       id="path44" /><path
       d="m 61.031248,37.006507 a 1.6,1.6 0 0 0 -3.199997,0 1.6,1.6 0 0 0 3.199997,0 z"
       style="fill:none;stroke:#ff0000;stroke-width:0.1;stroke-dasharray:none;stroke-opacity:1"
       id="path45" /><path
       style="fill:none;stroke:#ff0000;stroke-width:0.1;stroke-dasharray:none;stroke-opacity:1"
       d="m 186.98902,48.206404 h -3.00011"
       id="path46" /><path
       style="fill:none;stroke:#ff0000;stroke-width:0.1;stroke-dasharray:none;stroke-opacity:1"
       d="m 86.873594,25.806514 h -3.00011"
       id="path47" /><path
       d="m 61.031248,47.006508 a 1.6,1.6 0 0 0 -3.199997,0 1.6,1.6 0 0 0 3.199997,0 z"
       style="fill:none;stroke:#ff0000;stroke-width:0.1;stroke-dasharray:none;stroke-opacity:1"
       id="path48" /><path
       style="fill:none;stroke:#ff0000;stroke-width:0.1;stroke-dasharray:none;stroke-opacity:1"
       d="m 183.98891,25.806514 h 3.00011"
       id="path49" /><path
       d="m 195.48885,49.806511 c -0.7179,0 -1.29998,-0.582083 -1.29998,-1.299985 0,-0.717905 0.58208,-1.299988 1.29998,-1.299988"
       style="fill:none;stroke:#ff0000;stroke-width:0.1;stroke-dasharray:none;stroke-opacity:1"
       id="path50" /><path
       d="m 95.373641,47.206503 c -0.717902,0 -1.299985,0.582084 -1.299985,1.299986 0,0.717902 0.582083,1.299985 1.299985,1.299985"
       style="fill:none;stroke:#ff0000;stroke-width:0.1;stroke-dasharray:none;stroke-opacity:1"
       id="path51" /><path
       d="m 175.48886,24.206486 c 0.7179,0 1.29998,0.582084 1.29998,1.299985 0,0.717905 -0.58208,1.299986 -1.29998,1.299986"
       style="fill:none;stroke:#ff0000;stroke-width:0.1;stroke-dasharray:none;stroke-opacity:1"
       id="path52" /><path
       d="m 72.373624,47.206538 c -0.717902,0 -1.299986,0.582083 -1.299986,1.299988 0,0.717902 0.582084,1.299985 1.299986,1.299985"
       style="fill:none;stroke:#ff0000;stroke-width:0.1;stroke-dasharray:none;stroke-opacity:1"
       id="path53" /><path
       style="fill:none;stroke:#ff0000;stroke-width:0.1;stroke-dasharray:none;stroke-opacity:1"
       d="M 75.373745,47.206543 H 72.373634"
       id="path54" /><path
       d="m 75.373647,49.806511 c 0.717901,0 1.299985,-0.582083 1.299985,-1.299985 0,-0.717905 -0.582084,-1.299988 -1.299985,-1.299988"
       style="fill:none;stroke:#ff0000;stroke-width:0.1;stroke-dasharray:none;stroke-opacity:1"
       id="path55" /><path
       d="m 172.48884,26.806457 c -0.71791,0 -1.29999,-0.582081 -1.29999,-1.299986 0,-0.717901 0.58208,-1.299985 1.29999,-1.299985"
       style="fill:none;stroke:#ff0000;stroke-width:0.1;stroke-dasharray:none;stroke-opacity:1"
       id="path56" /><path
       d="m 83.873616,25.806509 c -6.185606,0 -11.199989,5.014383 -11.199989,11.19999 0,6.185606 5.014383,11.199989 11.199989,11.199989"
       style="fill:none;stroke:#ff0000;stroke-width:0.1;stroke-dasharray:none;stroke-opacity:1"
       id="path57" /><path
       d="m 120.03125,32.006506 a 2.1,2.1 0 0 0 -4.2,0 2.1,2.1 0 0 0 4.2,0 z"
       style="fill:none;stroke:#ff0000;stroke-width:0.1;stroke-dasharray:none;stroke-opacity:1"
       id="path73" /><path
       d="m 155.03125,32.006506 a 2.1,2.1 0 0 0 -4.2,0 2.1,2.1 0 0 0 4.2,0 z"
       style="fill:none;stroke:#ff0000;stroke-width:0.1;stroke-dasharray:none;stroke-opacity:1"
       id="path74" /><path
       d="m 137.53125,47.006508 a 2.1,2.1 0 0 0 -4.2,0 2.1,2.1 0 0 0 4.2,0 z"
       style="fill:none;stroke:#ff0000;stroke-width:0.1;stroke-dasharray:none;stroke-opacity:1"
       id="path75" /></g></svg>
