0
SECTION
2
HEADER
9
$INSUNITS
70
4
9
$ACADVER
1
AC1014
9
$HANDSEED
5
FFFF
0
ENDSEC
0
SECTION
2
TABLES
0
TABLE
2
VPORT
5
8
100
AcDbSymbolTable
0
ENDTAB
0
TABLE
2
LTYPE
5
5
100
AcDbSymbolTable
0
LTYPE
5
14
100
AcDbSymbolTableRecord
100
AcDbLinetypeTableRecord
2
BYBLOCK
70
0
0
LTYPE
5
15
100
AcDbSymbolTableRecord
100
AcDbLinetypeTableRecord
2
BYLAYER
70
0
0
LTYPE
5
16
100
AcDbSymbolTableRecord
100
AcDbLinetypeTableRecord
2
DASHED
70
0
3
Dashed __ __ __ __ __ __ __ __ __ __ __ __ __ _
72
65
73
2
40
0.75
49
0.5
74
0
49
-0.25
74
0
0
ENDTAB
0
TABLE
2
LAYER
5
2
100
AcDbSymbolTable
70
2
0
LAYER
5
50
100
AcDbSymbolTableRecord
100
AcDbLayerTableRecord
2
0
70
0
62
7
6
CONTINUOUS
0
ENDTAB
0
TABLE
2
STYLE
5
3
100
AcDbSymbolTable
70
1
0
STYLE
5
11
100
AcDbSymbolTableRecord
100
AcDbTextStyleTableRecord
2
STANDARD
70
0
0
ENDTAB
0
TABLE
2
VIEW
5
6
100
AcDbSymbolTable
70
0
0
ENDTAB
0
TABLE
2
UCS
5
7
100
AcDbSymbolTable
70
0
0
ENDTAB
0
TABLE
2
APPID
5
9
100
AcDbSymbolTable
70
2
0
APPID
5
12
100
AcDbSymbolTableRecord
100
AcDbRegAppTableRecord
2
ACAD
70
0
0
ENDTAB
0
TABLE
2
DIMSTYLE
5
A
100
AcDbSymbolTable
70
1
0
ENDTAB
0
TABLE
2
BLOCK_RECORD
5
1
100
AcDbSymbolTable
70
1
0
BLOCK_RECORD
5
1F
100
AcDbSymbolTableRecord
100
AcDbBlockTableRecord
2
*MODEL_SPACE
0
BLOCK_RECORD
5
1B
100
AcDbSymbolTableRecord
100
AcDbBlockTableRecord
2
*PAPER_SPACE
0
ENDTAB
0
ENDSEC
0
SECTION
2
BLOCKS
0
BLOCK
5
20
100
AcDbEntity
100
AcDbBlockBegin
2
*MODEL_SPACE
0
ENDBLK
5
21
100
AcDbEntity
100
AcDbBlockEnd
0
BLOCK
5
1C
100
AcDbEntity
100
AcDbBlockBegin
2
*PAPER_SPACE
0
ENDBLK
5
1D
100
AcDbEntity
100
AcDbBlockEnd
0
ENDSEC
0
SECTION
2
ENTITIES
0
POINT
5
100
100
AcDbEntity
8
0
100
AcDbPoint
10
-30.000000447034836
20
30.000000447034836
30
0
0
POINT
5
101
100
AcDbEntity
8
0
100
AcDbPoint
10
-80.200002622604373
20
-79.800001788139298
30
0
0
POINT
5
102
100
AcDbEntity
8
0
100
AcDbPoint
10
80.199997556209595
20
-79.800001788139355
30
0
0
POINT
5
103
100
AcDbEntity
8
0
100
AcDbPoint
10
-80.200002622604359
20
-240.20000551342972
30
0
0
POINT
5
104
100
AcDbEntity
8
0
100
AcDbPoint
10
80.199997556209581
20
-240.20000551342972
30
0
0
POINT
5
105
100
AcDbEntity
8
0
100
AcDbPoint
10
-83.000001236796379
20
-244.00000363588333
30
0
0
POINT
5
106
100
AcDbEntity
8
0
100
AcDbPoint
10
-83.000001236796379
20
-77.000001147389412
30
0
0
POINT
5
107
100
AcDbEntity
8
0
100
AcDbPoint
10
83.000001236796379
20
-77.000001147389412
30
0
0
POINT
5
108
100
AcDbEntity
8
0
100
AcDbPoint
10
83.000001236796379
20
-243.00000362098217
30
0
0
POINT
5
109
100
AcDbEntity
8
0
100
AcDbPoint
10
116.99999876320362
20
-244.00000363588333
30
0
0
POINT
5
110
100
AcDbEntity
8
0
100
AcDbPoint
10
116.99999876320362
20
-77.000001147389412
30
0
0
POINT
5
111
100
AcDbEntity
8
0
100
AcDbPoint
10
119.79999737739564
20
-240.20000551342972
30
0
0
POINT
5
112
100
AcDbEntity
8
0
100
AcDbPoint
10
280.19999755620961
20
-240.20000551342972
30
0
0
POINT
5
113
100
AcDbEntity
8
0
100
AcDbPoint
10
119.79999737739563
20
-79.800001788139298
30
0
0
POINT
5
114
100
AcDbEntity
8
0
100
AcDbPoint
10
280.19999755620961
20
-79.800001788139355
30
0
0
POINT
5
115
100
AcDbEntity
8
0
100
AcDbPoint
10
283.00000123679638
20
-77.000001147389412
30
0
0
POINT
5
116
100
AcDbEntity
8
0
100
AcDbPoint
10
283.00000123679638
20
-243.00000362098217
30
0
0
POINT
5
117
100
AcDbEntity
8
0
100
AcDbPoint
10
-280.20000262260436
20
-240.20000551342972
30
0
0
POINT
5
118
100
AcDbEntity
8
0
100
AcDbPoint
10
-119.80000244379042
20
-240.20000551342972
30
0
0
POINT
5
119
100
AcDbEntity
8
0
100
AcDbPoint
10
-119.8000024437904
20
-79.800001788139355
30
0
0
POINT
5
120
100
AcDbEntity
8
0
100
AcDbPoint
10
-330.00000387430191
20
-100.00000149011612
30
0
0
POINT
5
121
100
AcDbEntity
8
0
100
AcDbPoint
10
-355.00000528991222
20
-75.00000111758709
30
0
0
POINT
5
122
100
AcDbEntity
8
0
100
AcDbPoint
10
-360.00000536441803
20
-149.50000223517418
30
0
0
POINT
5
123
100
AcDbEntity
8
0
100
AcDbPoint
10
-360.00000536441803
20
-149.50000223517418
30
0
0
POINT
5
124
100
AcDbEntity
8
0
100
AcDbPoint
10
-200.00000536441803
20
-112.50000223517419
30
0
0
POINT
5
125
100
AcDbEntity
8
0
100
AcDbPoint
10
-200.00000536441803
20
-112.50000223517419
30
0
0
LWPOLYLINE
5
126
100
AcDbEntity
8
0
100
AcDbPolyline
90
8
70
1
43
0.0
10
-20.500000447034836
20
12.000000447034836
10
-39.500000447034836
20
12.000000447034836
10
-39.500000447034836
20
48.000000447034836
10
-42.500000447034836
20
48.000000447034836
10
-42.500000447034836
20
12.000000178813934
10
-39.500000447034836
20
12.000000178813934
10
-39.500000447034836
20
48.000000447034836
10
-20.500000447034836
20
48.000000447034836
0
LWPOLYLINE
5
127
100
AcDbEntity
8
0
100
AcDbPolyline
90
4
70
1
43
0.0
10
-20.500000447034836
20
48.000000447034836
10
-17.500000447034832
20
48.000000447034836
10
-17.500000447034832
20
12.000000178813934
10
-20.500000447034836
20
12.000000178813934
0
CIRCLE
5
128
100
AcDbEntity
8
0
100
AcDbCircle
10
-30.000000447034836
20
40.000000596046448
30
0
40
1.4999999999999971
210
0
220
0
230
1
0
CIRCLE
5
129
100
AcDbEntity
8
0
100
AcDbCircle
10
-30.000000447034836
20
20.000000298023224
30
0
40
1.5000000000000011
210
0
220
0
230
1
0
LWPOLYLINE
5
130
100
AcDbEntity
8
0
100
AcDbPolyline
90
13
70
1
43
0.0
10
-80.200002622604359
20
-237.2000054687297
10
-80.200002622604373
20
-82.800001832839314
10
-77.200002577904371
20
-79.800001788139312
10
-69.000002443790436
20
-79.800001788139355
10
-57.000002443790436
20
-79.800001788139355
10
73.999997377395644
20
-79.800001788139355
10
77.199997511509608
20
-79.800001788139355
10
80.199997556209595
20
-82.800001832839342
10
80.199997556209581
20
-237.2000054687297
10
77.199997511509579
20
-240.20000551342972
10
73.999997377395644
20
-240.20000551342972
10
-69.000002443790436
20
-240.20000551342972
10
-77.200002577904343
20
-240.20000551342972
0
CIRCLE
5
131
100
AcDbEntity
8
0
100
AcDbCircle
10
-35.000000819563866
20
-100.00000186264515
30
0
40
1.6000000000000032
210
0
220
0
230
1
0
CIRCLE
5
132
100
AcDbEntity
8
0
100
AcDbCircle
10
-35.000000819563866
20
-120.00000216066837
30
0
40
1.5999999999999992
210
0
220
0
230
1
0
CIRCLE
5
133
100
AcDbEntity
8
0
100
AcDbCircle
10
35.000000819563866
20
-100.00000186264515
30
0
40
1.6000000000000032
210
0
220
0
230
1
0
CIRCLE
5
134
100
AcDbEntity
8
0
100
AcDbCircle
10
35.000000819563866
20
-120.00000216066837
30
0
40
1.5999999999999992
210
0
220
0
230
1
0
CIRCLE
5
135
100
AcDbEntity
8
0
100
AcDbCircle
10
35.000000819563866
20
-200.00000260770321
30
0
40
1.5999999999999992
210
0
220
0
230
1
0
CIRCLE
5
136
100
AcDbEntity
8
0
100
AcDbCircle
10
35.000000819563866
20
-220.00000290572643
30
0
40
1.6000000000000032
210
0
220
0
230
1
0
CIRCLE
5
137
100
AcDbEntity
8
0
100
AcDbCircle
10
-35.000000819563866
20
-220.00000290572643
30
0
40
1.6000000000000032
210
0
220
0
230
1
0
CIRCLE
5
138
100
AcDbEntity
8
0
100
AcDbCircle
10
-35.000000819563866
20
-200.00000260770321
30
0
40
1.5999999999999992
210
0
220
0
230
1
0
LWPOLYLINE
5
139
100
AcDbEntity
8
0
100
AcDbPolyline
90
8
70
1
43
0.0
10
-180.00000268220901
20
-30.000000447034836
10
-160.00000238418579
20
-30.000000447034836
10
-157.00000233948231
20
-30.000000447034836
10
-157.00000233948231
20
-50.00000074505806
10
-160.00000238418579
20
-50.00000074505806
10
-160.00000238418579
20
-30.000000447034836
10
-160.00000238418579
20
-50.00000074505806
10
-180.00000268220901
20
-50.00000074505806
0
LWPOLYLINE
5
140
100
AcDbEntity
8
0
100
AcDbPolyline
90
4
70
1
43
0.0
10
-180.00000268220901
20
-30.000000447034836
10
-183.0000027269125
20
-30.000000447034836
10
-183.0000027269125
20
-50.00000074505806
10
-180.00000268220901
20
-50.00000074505806
0
LINE
5
141
100
AcDbEntity
8
0
100
AcDbLine
10
-70.000001043081284
20
-244.00000363588333
30
0
11
-79.000001236796379
21
-244.00000363588333
31
0
0
LINE
5
142
100
AcDbEntity
8
0
100
AcDbLine
10
-83.000001236796379
20
-240.00000363588333
30
0
11
-83.000001236796379
21
-81.000001147389412
31
0
0
LINE
5
143
100
AcDbEntity
8
0
100
AcDbLine
10
-79.000001236796379
20
-77.000001147389412
30
0
11
-70.000001043081284
21
-77.000001147389412
31
0
0
LINE
5
144
100
AcDbEntity
8
0
100
AcDbLine
10
70.000001043081284
20
-77.000001147389412
30
0
11
79.000001236796379
21
-77.000001147389412
31
0
0
LINE
5
145
100
AcDbEntity
8
0
100
AcDbLine
10
83.000001236796379
20
-81.000001147389412
30
0
11
83.000001236796379
21
-239.00000362098217
31
0
0
LINE
5
146
100
AcDbEntity
8
0
100
AcDbLine
10
79.000001236796379
20
-243.00000362098217
30
0
11
70.000001043081284
21
-243.00000362098217
31
0
0
LINE
5
147
100
AcDbEntity
8
0
100
AcDbLine
10
70.000001043081284
20
-243.00000362098217
30
0
11
70.000001043081284
21
-240.20000551342972
31
0
0
LINE
5
148
100
AcDbEntity
8
0
100
AcDbLine
10
70.000001043081312
20
-79.800001788139355
30
0
11
70.000001043081284
21
-77.000001147389412
31
0
0
LINE
5
149
100
AcDbEntity
8
0
100
AcDbLine
10
-70.000001043081284
20
-77.000001147389412
30
0
11
-70.000001043081284
21
-79.800001788139355
31
0
0
LINE
5
150
100
AcDbEntity
8
0
100
AcDbLine
10
-70.000001043081284
20
-240.20000551342972
30
0
11
-70.000001043081284
21
-244.00000363588333
31
0
0
LINE
5
151
100
AcDbEntity
8
0
100
AcDbLine
10
-83.000001236796379
20
-81.000001147389412
30
0
11
-79.000001236796379
21
-77.000001147389412
31
0
0
LINE
5
152
100
AcDbEntity
8
0
100
AcDbLine
10
79.000001236796379
20
-77.000001147389412
30
0
11
83.000001236796379
21
-81.000001147389412
31
0
0
LINE
5
153
100
AcDbEntity
8
0
100
AcDbLine
10
83.000001236796379
20
-239.00000362098217
30
0
11
79.000001236796379
21
-243.00000362098217
31
0
0
LINE
5
154
100
AcDbEntity
8
0
100
AcDbLine
10
-79.000001236796379
20
-244.00000363588333
30
0
11
-83.000001236796379
21
-240.00000363588333
31
0
0
LINE
5
155
100
AcDbEntity
8
0
100
AcDbLine
10
120.99999876320362
20
-77.000001147389412
30
0
11
129.99999895691872
21
-77.000001147389412
31
0
0
LINE
5
156
100
AcDbEntity
8
0
100
AcDbLine
10
279.00000123679638
20
-243.00000362098217
30
0
11
270.00000104308128
21
-243.00000362098217
31
0
0
LWPOLYLINE
5
157
100
AcDbEntity
8
0
100
AcDbPolyline
90
17
70
1
43
0.0
10
280.19999755620961
20
-82.800001832839342
10
280.19999755620961
20
-237.2000054687297
10
277.19999751150959
20
-240.20000551342972
10
273.99999737739563
20
-240.20000551342972
10
130.99999755620956
20
-240.20000551342972
10
122.79999742209566
20
-240.20000551342972
10
119.79999737739564
20
-237.2000054687297
10
119.79999737739563
20
-82.800001832839314
10
122.79999742209563
20
-79.800001788139312
10
130.99999755620956
20
-79.800001788139355
10
142.99999755620956
20
-79.800001788139355
10
170.0000025331974
20
-79.800001788139355
10
170.0000025331974
20
-79.000001177191734
10
230.06898615548573
20
-79.000001177191734
10
230.06898615548573
20
-79.800001788139355
10
273.99999737739563
20
-79.800001788139355
10
277.19999751150959
20
-79.800001788139355
0
LINE
5
158
100
AcDbEntity
8
0
100
AcDbLine
10
116.99999876320362
20
-240.00000363588333
30
0
11
116.99999876320362
21
-81.000001147389412
31
0
0
LINE
5
159
100
AcDbEntity
8
0
100
AcDbLine
10
116.99999876320362
20
-81.000001147389412
30
0
11
120.99999876320362
21
-77.000001147389412
31
0
0
LINE
5
160
100
AcDbEntity
8
0
100
AcDbLine
10
283.00000123679638
20
-81.000001147389412
30
0
11
283.00000123679638
21
-239.00000362098217
31
0
0
LINE
5
161
100
AcDbEntity
8
0
100
AcDbLine
10
270.00000104308128
20
-243.00000362098217
30
0
11
270.00000104308128
21
-240.20000551342972
31
0
0
LINE
5
162
100
AcDbEntity
8
0
100
AcDbLine
10
129.99999895691872
20
-240.20000551342972
30
0
11
129.99999895691872
21
-244.00000363588333
31
0
0
LINE
5
163
100
AcDbEntity
8
0
100
AcDbLine
10
270.00000104308134
20
-79.800001788139355
30
0
11
270.00000104308128
21
-77.000001147389412
31
0
0
LINE
5
164
100
AcDbEntity
8
0
100
AcDbLine
10
129.99999895691872
20
-244.00000363588333
30
0
11
120.99999876320362
21
-244.00000363588333
31
0
0
LINE
5
165
100
AcDbEntity
8
0
100
AcDbLine
10
120.99999876320362
20
-244.00000363588333
30
0
11
116.99999876320362
21
-240.00000363588333
31
0
0
LINE
5
166
100
AcDbEntity
8
0
100
AcDbLine
10
279.00000123679638
20
-77.000001147389412
30
0
11
283.00000123679638
21
-81.000001147389412
31
0
0
LINE
5
167
100
AcDbEntity
8
0
100
AcDbLine
10
129.99999895691872
20
-77.000001147389412
30
0
11
129.99999895691872
21
-79.800001788139355
31
0
0
LINE
5
168
100
AcDbEntity
8
0
100
AcDbLine
10
270.00000104308128
20
-77.000001147389412
30
0
11
279.00000123679638
21
-77.000001147389412
31
0
0
LINE
5
169
100
AcDbEntity
8
0
100
AcDbLine
10
283.00000123679638
20
-239.00000362098217
30
0
11
279.00000123679638
21
-243.00000362098217
31
0
0
LWPOLYLINE
5
170
100
AcDbEntity
8
0
100
AcDbPolyline
90
13
70
1
43
0.0
10
-257.00000244379044
20
-79.800001788139355
10
-126.00000262260436
20
-79.800001788139355
10
-122.80000248849038
20
-79.800001788139355
10
-119.8000024437904
20
-82.800001832839342
10
-119.80000244379042
20
-237.2000054687297
10
-122.80000248849042
20
-240.20000551342972
10
-126.00000262260436
20
-240.20000551342972
10
-269.00000244379044
20
-240.20000551342972
10
-277.20000257790434
20
-240.20000551342972
10
-280.20000262260436
20
-237.2000054687297
10
-280.20000262260442
20
-82.800001832839314
10
-277.2000025779044
20
-79.800001788139312
10
-269.00000244379044
20
-79.800001788139355
0
CIRCLE
5
171
100
AcDbEntity
8
0
100
AcDbCircle
10
-164.99999918043613
20
-200.00000260770321
30
0
40
1.5999999999999992
210
0
220
0
230
1
0
CIRCLE
5
172
100
AcDbEntity
8
0
100
AcDbCircle
10
-164.99999918043613
20
-120.00000216066837
30
0
40
1.5999999999999992
210
0
220
0
230
1
0
CIRCLE
5
173
100
AcDbEntity
8
0
100
AcDbCircle
10
-164.99999918043613
20
-100.00000186264515
30
0
40
1.6000000000000032
210
0
220
0
230
1
0
CIRCLE
5
174
100
AcDbEntity
8
0
100
AcDbCircle
10
-235.00000081956387
20
-120.00000216066837
30
0
40
1.5999999999999992
210
0
220
0
230
1
0
CIRCLE
5
175
100
AcDbEntity
8
0
100
AcDbCircle
10
-164.99999918043613
20
-220.00000290572643
30
0
40
1.6000000000000032
210
0
220
0
230
1
0
CIRCLE
5
176
100
AcDbEntity
8
0
100
AcDbCircle
10
-235.00000081956387
20
-220.00000290572643
30
0
40
1.6000000000000032
210
0
220
0
230
1
0
CIRCLE
5
177
100
AcDbEntity
8
0
100
AcDbCircle
10
-235.00000081956387
20
-200.00000260770321
30
0
40
1.5999999999999992
210
0
220
0
230
1
0
CIRCLE
5
178
100
AcDbEntity
8
0
100
AcDbCircle
10
-235.00000081956387
20
-100.00000186264515
30
0
40
1.6000000000000032
210
0
220
0
230
1
0
LINE
5
179
100
AcDbEntity
8
0
100
AcDbLine
10
129.99999895691872
20
-77.000001147389412
30
0
11
270.00000104308128
21
-77.000001147389412
31
0
0
CIRCLE
5
180
100
AcDbEntity
8
0
100
AcDbCircle
10
-220.00000327825546
20
-150.00000238418579
30
0
40
3.9999999999999911
210
0
220
0
230
1
0
CIRCLE
5
181
100
AcDbEntity
8
0
100
AcDbCircle
10
-180.00000268220901
20
-150.00000238418579
30
0
40
4.0000000000000107
210
0
220
0
230
1
0
LINE
5
182
100
AcDbEntity
8
0
100
AcDbLine
10
-330.00000387430191
20
-79.800001788139355
30
0
11
-339.00000244379044
21
-79.800001788139355
31
0
0
LWPOLYLINE
5
183
100
AcDbEntity
8
0
100
AcDbPolyline
90
6
70
1
43
0.0
10
-330.00000387430191
20
-97.000001490116119
10
-333.00000387430191
20
-100.00000149011612
10
-355.00000528991222
20
-100.00000149011612
10
-355.00000528991222
20
-81.00000111758709
10
-349.00000528991222
20
-75.00000111758709
10
-330.00000387430191
20
-75.00000111758709
0
LINE
5
184
100
AcDbEntity
8
0
100
AcDbLine
10
-347.2000025779044
20
-79.800001788139312
30
0
11
-339.00000244379044
21
-79.800001788139355
31
0
0
LINE
5
185
100
AcDbEntity
8
0
100
AcDbLine
10
-347.2000025779044
20
-79.800001788139312
30
0
11
-350.20000262260442
21
-82.800001832839314
31
0
0
LINE
5
186
100
AcDbEntity
8
0
100
AcDbLine
10
-350.20000262260442
20
-100.00000149011612
30
0
11
-350.20000262260442
21
-82.800001832839314
31
0
0
CIRCLE
5
187
100
AcDbEntity
8
0
100
AcDbCircle
10
-275.00000409781933
20
-95.000001415610313
30
0
40
1.5999999999999992
210
0
220
0
230
1
0
CIRCLE
5
188
100
AcDbEntity
8
0
100
AcDbCircle
10
-265.00000394880772
20
-85.000001266598701
30
0
40
1.6000000000000014
210
0
220
0
230
1
0
CIRCLE
5
189
100
AcDbEntity
8
0
100
AcDbCircle
10
-135.00000201165676
20
-85.000001266598701
30
0
40
1.5999999999999992
210
0
220
0
230
1
0
CIRCLE
5
190
100
AcDbEntity
8
0
100
AcDbCircle
10
-125.00000186264515
20
-95.000001415610313
30
0
40
1.0000000000000024
210
0
220
0
230
1
0
CIRCLE
5
191
100
AcDbEntity
8
0
100
AcDbCircle
10
-125.00000186264515
20
-225.00000335276127
30
0
40
1.6000000000000014
210
0
220
0
230
1
0
CIRCLE
5
192
100
AcDbEntity
8
0
100
AcDbCircle
10
-135.00000201165676
20
-235.00000350177288
30
0
40
1.6000000000000019
210
0
220
0
230
1
0
CIRCLE
5
193
100
AcDbEntity
8
0
100
AcDbCircle
10
-275.00000409781933
20
-225.00000335276127
30
0
40
1.6000000000000079
210
0
220
0
230
1
0
CIRCLE
5
194
100
AcDbEntity
8
0
100
AcDbCircle
10
-265.00000394880772
20
-235.00000350177288
30
0
40
1.6000000000000079
210
0
220
0
230
1
0
CIRCLE
5
195
100
AcDbEntity
8
0
100
AcDbCircle
10
-180.00000268220901
20
-170.00000238418579
30
0
40
4.0000000000000107
210
0
220
0
230
1
0
CIRCLE
5
196
100
AcDbEntity
8
0
100
AcDbCircle
10
-220.00000327825546
20
-170.00000238418579
30
0
40
3.9999999999999911
210
0
220
0
230
1
0
CIRCLE
5
197
100
AcDbEntity
8
0
100
AcDbCircle
10
-335.000004991889
20
-85.000001266598701
30
0
40
1.5000000000000071
210
0
220
0
230
1
0
CIRCLE
5
198
100
AcDbEntity
8
0
100
AcDbCircle
10
-345.00000514090061
20
-95.000001415610313
30
0
40
1.5000000000000062
210
0
220
0
230
1
0
LWPOLYLINE
5
199
100
AcDbEntity
8
0
100
AcDbPolyline
90
4
70
1
43
0.0
10
-325.50000536441803
20
-181.00000223517418
10
-394.50000536441803
20
-181.00000223517418
10
-394.50000536441803
20
-118.00000223517418
10
-325.50000536441809
20
-118.00000223517418
0
CIRCLE
5
200
100
AcDbEntity
8
0
100
AcDbCircle
10
-392.50000536441803
20
-120.00000223517411
30
0
40
1.0999999999999996
210
0
220
0
230
1
0
CIRCLE
5
201
100
AcDbEntity
8
0
100
AcDbCircle
10
-327.50000536441803
20
-120.00000223517411
30
0
40
1.0999999999999943
210
0
220
0
230
1
0
CIRCLE
5
202
100
AcDbEntity
8
0
100
AcDbCircle
10
-392.50000536441803
20
-179.00000223517409
30
0
40
1.1000000000000245
210
0
220
0
230
1
0
CIRCLE
5
203
100
AcDbEntity
8
0
100
AcDbCircle
10
-327.50000536441803
20
-179.00000223517409
30
0
40
1.1000000000000059
210
0
220
0
230
1
0
CIRCLE
5
204
100
AcDbEntity
8
0
100
AcDbCircle
10
-167.50000536441803
20
-142.00000223517409
30
0
40
1.1000000000000059
210
0
220
0
230
1
0
CIRCLE
5
205
100
AcDbEntity
8
0
100
AcDbCircle
10
-232.50000536441803
20
-83.000002235174122
30
0
40
1.0999999999999996
210
0
220
0
230
1
0
CIRCLE
5
206
100
AcDbEntity
8
0
100
AcDbCircle
10
-167.50000536441803
20
-83.000002235174122
30
0
40
1.0999999999999943
210
0
220
0
230
1
0
CIRCLE
5
207
100
AcDbEntity
8
0
100
AcDbCircle
10
-232.50000536441803
20
-142.00000223517409
30
0
40
1.1000000000000245
210
0
220
0
230
1
0
CIRCLE
5
208
100
AcDbEntity
8
0
100
AcDbCircle
10
-200.00000298023224
20
-235.00000350177288
30
0
40
1.6000000000000005
210
0
220
0
230
1
0
CIRCLE
5
209
100
AcDbEntity
8
0
100
AcDbCircle
10
-200.00000298023224
20
-160.00000238418579
30
0
40
1.5999999999999828
210
0
220
0
230
1
0
ENDSEC
0
SECTION
2
OBJECTS
0
DICTIONARY
5
C
100
AcDbDictionary
3
ACAD_GROUP
350
D
3
ACAD_MLINESTYLE
350
17
0
DICTIONARY
5
D
100
AcDbDictionary
0
DICTIONARY
5
1A
330
C
100
AcDbDictionary
0
DICTIONARY
5
17
100
AcDbDictionary
0
ENDSEC
0
EOF
