<?xml version="1.0" encoding="UTF-8" standalone="no"?>
<!-- Created with Inkscape (http://www.inkscape.org/) -->

<svg
   width="160.79686mm"
   height="160.79686mm"
   viewBox="0 0 160.79686 160.79686"
   version="1.1"
   id="svg1"
   inkscape:version="1.4 (86a8ad7, 2024-10-11)"
   xml:space="preserve"
   sodipodi:docname="chassis.svg"
   xmlns:inkscape="http://www.inkscape.org/namespaces/inkscape"
   xmlns:sodipodi="http://sodipodi.sourceforge.net/DTD/sodipodi-0.dtd"
   xmlns="http://www.w3.org/2000/svg"
   xmlns:svg="http://www.w3.org/2000/svg"><sodipodi:namedview
     id="namedview1"
     pagecolor="#ffffff"
     bordercolor="#000000"
     borderopacity="0.25"
     inkscape:showpageshadow="2"
     inkscape:pageopacity="0.0"
     inkscape:pagecheckerboard="0"
     inkscape:deskcolor="#d1d1d1"
     inkscape:document-units="mm"
     showgrid="true"
     inkscape:zoom="1.0553279"
     inkscape:cx="214.15145"
     inkscape:cy="294.22135"
     inkscape:current-layer="layer1"><inkscape:grid
       id="grid1"
       units="mm"
       originx="76.250261"
       originy="-86.608084"
       spacingx="0.99999986"
       spacingy="1"
       empcolor="#0099e5"
       empopacity="0.30196078"
       color="#0099e5"
       opacity="0.14901961"
       empspacing="5"
       enabled="true"
       visible="true" /></sodipodi:namedview><defs
     id="defs1"><marker
       id="DistanceX"
       orient="auto"
       refX="0"
       refY="0"
       style="overflow:visible"><path
         d="M 3,-3 -3,3 M 0,-5 V 5"
         style="stroke:#000000;stroke-width:0.5"
         id="path1" /></marker><pattern
       id="Hatch"
       patternUnits="userSpaceOnUse"
       width="8"
       height="8"
       x="0"
       y="0"><path
         d="M8 4 l-4,4"
         stroke="#000000"
         stroke-width="0.25"
         linecap="square"
         id="path2" /><path
         d="M6 2 l-4,4"
         stroke="#000000"
         stroke-width="0.25"
         linecap="square"
         id="path3" /><path
         d="M4 0 l-4,4"
         stroke="#000000"
         stroke-width="0.25"
         linecap="square"
         id="path4" /></pattern><symbol
       id="*MODEL_SPACE" /><symbol
       id="*PAPER_SPACE" /></defs><g
     inkscape:label="Layer 1"
     inkscape:groupmode="layer"
     id="layer1"
     transform="translate(76.250258,-86.608082)"><path
       d="m -75.985675,247.20651 a 0.06614583,0.06614583 0 0 0 -0.132291,0 0.06614583,0.06614583 0 0 0 0.132291,0 z"
       style="fill:none;stroke:#ff0000;stroke-width:0.1;stroke-dasharray:none;stroke-opacity:1"
       id="path22" /><path
       d="m 84.414315,247.20651 a 0.066146,0.066146 0 0 0 -0.132292,0 0.066146,0.066146 0 0 0 0.132292,0 z"
       style="fill:none;stroke:#ff0000;stroke-width:0.1;stroke-dasharray:none;stroke-opacity:1"
       id="path23" /><path
       d="m 84.414315,86.806519 a 0.066146,0.066146 0 0 0 -0.132292,0 0.066146,0.066146 0 0 0 0.132292,0 z"
       style="fill:none;stroke:#ff0000;stroke-width:0.1;stroke-dasharray:none;stroke-opacity:1"
       id="path24" /><path
       d="m 4.2143135,119.50651 a 0.06614583,0.06614583 0 0 0 -0.1322916,0 0.06614583,0.06614583 0 0 0 0.1322916,0 z"
       style="fill:none;stroke:#ff0000;stroke-width:0.1;stroke-dasharray:none;stroke-opacity:1"
       id="path29" /><path
       d="m 4.2143135,119.50651 a 0.06614583,0.06614583 0 0 0 -0.1322916,0 0.06614583,0.06614583 0 0 0 0.1322916,0 z"
       style="fill:none;stroke:#ff0000;stroke-width:0.1;stroke-dasharray:none;stroke-opacity:1"
       id="path30" /><path
       d="m -52.851829,86.806519 h 130.999999 3.2 l 2.999999,3.000005 V 244.20651 l -2.999999,3 h -3.2 -142.999993 -8.199993 l -3.000005,-3 V 89.806524 l 3.000005,-3.000005 h 8.199993 z"
       style="fill:none;stroke:#ff0000;stroke-width:0.1;stroke-dasharray:none;stroke-opacity:1"
       id="path75" /><path
       d="m 40.748173,207.00651 a 1.6000005,1.6000005 0 0 0 -3.200001,0 1.6000005,1.6000005 0 0 0 3.200001,0 z"
       style="fill:none;stroke:#ff0000;stroke-width:0.1;stroke-dasharray:none;stroke-opacity:1"
       id="path76" /><path
       d="m 40.748173,127.00652 a 1.6000005,1.6000005 0 0 0 -3.200001,0 1.6000005,1.6000005 0 0 0 3.200001,0 z"
       style="fill:none;stroke:#ff0000;stroke-width:0.1;stroke-dasharray:none;stroke-opacity:1"
       id="path77" /><path
       d="m 40.748173,107.0065 a 1.6000005,1.6000005 0 0 0 -3.200001,0 1.6000005,1.6000005 0 0 0 3.200001,0 z"
       style="fill:none;stroke:#ff0000;stroke-width:0.1;stroke-dasharray:none;stroke-opacity:1"
       id="path78" /><path
       d="m -29.251829,127.00652 a 1.6000001,1.6000001 0 0 0 -3.199998,0 1.6000001,1.6000001 0 0 0 3.199998,0 z"
       style="fill:none;stroke:#ff0000;stroke-width:0.1;stroke-dasharray:none;stroke-opacity:1"
       id="path79" /><path
       d="m 40.748173,227.00653 a 1.6000005,1.6000005 0 0 0 -3.200001,0 1.6000005,1.6000005 0 0 0 3.200001,0 z"
       style="fill:none;stroke:#ff0000;stroke-width:0.1;stroke-dasharray:none;stroke-opacity:1"
       id="path80" /><path
       d="m -29.251829,227.00653 a 1.6000001,1.6000001 0 0 0 -3.199998,0 1.6000001,1.6000001 0 0 0 3.199998,0 z"
       style="fill:none;stroke:#ff0000;stroke-width:0.1;stroke-dasharray:none;stroke-opacity:1"
       id="path81" /><path
       d="m -29.251829,207.00651 a 1.6000001,1.6000001 0 0 0 -3.199998,0 1.6000001,1.6000001 0 0 0 3.199998,0 z"
       style="fill:none;stroke:#ff0000;stroke-width:0.1;stroke-dasharray:none;stroke-opacity:1"
       id="path82" /><path
       d="m -29.251829,107.0065 a 1.6000001,1.6000001 0 0 0 -3.199998,0 1.6000001,1.6000001 0 0 0 3.199998,0 z"
       style="fill:none;stroke:#ff0000;stroke-width:0.1;stroke-dasharray:none;stroke-opacity:1"
       id="path83" /><path
       d="m -11.851832,157.00651 a 4.0000002,4.0000002 0 0 0 -8,0 4.0000002,4.0000002 0 0 0 8,0 z"
       style="fill:none;stroke:#ff0000;stroke-width:0.1;stroke-dasharray:none;stroke-opacity:1"
       id="path85" /><path
       d="m 28.14817,157.00651 a 4,4 0 0 0 -8,0 4,4 0 0 0 8,0 z"
       style="fill:none;stroke:#ff0000;stroke-width:0.1;stroke-dasharray:none;stroke-opacity:1"
       id="path86" /><path
       d="m -69.251844,102.00651 a 1.6,1.6 0 0 0 -3.199976,0 1.6,1.6 0 0 0 3.199976,0 z"
       style="fill:none;stroke:#ff0000;stroke-width:0.1;stroke-dasharray:none;stroke-opacity:1"
       id="path92" /><path
       d="m -59.25183,92.006508 a 1.6000055,1.6000055 0 0 0 -3.200011,0 1.6000055,1.6000055 0 0 0 3.200011,0 z"
       style="fill:none;stroke:#ff0000;stroke-width:0.1;stroke-dasharray:none;stroke-opacity:1"
       id="path93" /><path
       d="m 70.748171,92.006508 a 1.6000005,1.6000005 0 0 0 -3.200001,0 1.6000005,1.6000005 0 0 0 3.200001,0 z"
       style="fill:none;stroke:#ff0000;stroke-width:0.1;stroke-dasharray:none;stroke-opacity:1"
       id="path94" /><path
       d="m 80.148171,102.00651 a 1.0000006,1.0000006 0 0 0 -2.000001,0 1.0000006,1.0000006 0 0 0 2.000001,0 z"
       style="fill:none;stroke:#ff0000;stroke-width:0.1;stroke-dasharray:none;stroke-opacity:1"
       id="path95" /><path
       d="m 80.748169,232.00652 a 1.6000002,1.6000002 0 0 0 -3.2,0 1.6000002,1.6000002 0 0 0 3.2,0 z"
       style="fill:none;stroke:#ff0000;stroke-width:0.1;stroke-dasharray:none;stroke-opacity:1"
       id="path96" /><path
       d="m 70.748171,242.00652 a 1.6000005,1.6000005 0 0 0 -3.200001,0 1.6000005,1.6000005 0 0 0 3.200001,0 z"
       style="fill:none;stroke:#ff0000;stroke-width:0.1;stroke-dasharray:none;stroke-opacity:1"
       id="path97" /><path
       d="m -69.251844,232.00652 a 1.6,1.6 0 0 0 -3.199976,0 1.6,1.6 0 0 0 3.199976,0 z"
       style="fill:none;stroke:#ff0000;stroke-width:0.1;stroke-dasharray:none;stroke-opacity:1"
       id="path98" /><path
       d="m -59.25183,242.00652 a 1.6000055,1.6000055 0 0 0 -3.200011,0 1.6000055,1.6000055 0 0 0 3.200011,0 z"
       style="fill:none;stroke:#ff0000;stroke-width:0.1;stroke-dasharray:none;stroke-opacity:1"
       id="path99" /><path
       d="m 28.14817,177.00652 a 4,4 0 0 0 -8,0 4,4 0 0 0 8,0 z"
       style="fill:none;stroke:#ff0000;stroke-width:0.1;stroke-dasharray:none;stroke-opacity:1"
       id="path100" /><path
       d="m -11.851832,177.00652 a 4.0000002,4.0000002 0 0 0 -8,0 4.0000002,4.0000002 0 0 0 8,0 z"
       style="fill:none;stroke:#ff0000;stroke-width:0.1;stroke-dasharray:none;stroke-opacity:1"
       id="path101" /><path
       d="m 37.748166,149.00651 a 1.1,1.1 0 0 0 -2.2,0 1.1,1.1 0 0 0 2.2,0 z"
       style="fill:none;stroke:#ff0000;stroke-width:0.1;stroke-dasharray:none;stroke-opacity:1"
       id="path109" /><path
       d="m -27.251833,90.006523 a 1.1,1.1 0 0 0 -2.2,0 1.1,1.1 0 0 0 2.2,0 z"
       style="fill:none;stroke:#ff0000;stroke-width:0.1;stroke-dasharray:none;stroke-opacity:1"
       id="path110" /><path
       d="m 37.748166,90.006523 a 1.1,1.1 0 0 0 -2.2,0 1.1,1.1 0 0 0 2.2,0 z"
       style="fill:none;stroke:#ff0000;stroke-width:0.1;stroke-dasharray:none;stroke-opacity:1"
       id="path111" /><path
       d="m -27.251833,149.00651 a 1.1,1.1 0 0 0 -2.2,0 1.1,1.1 0 0 0 2.2,0 z"
       style="fill:none;stroke:#ff0000;stroke-width:0.1;stroke-dasharray:none;stroke-opacity:1"
       id="path112" /><path
       d="m 5.7481692,242.00652 a 1.6000002,1.6000002 0 0 0 -3.2000004,0 1.6000002,1.6000002 0 0 0 3.2000004,0 z"
       style="fill:none;stroke:#ff0000;stroke-width:0.1;stroke-dasharray:none;stroke-opacity:1"
       id="path113" /><path
       d="m 5.7481692,167.00652 a 1.6000002,1.6000002 0 0 0 -3.2000004,0 1.6000002,1.6000002 0 0 0 3.2000004,0 z"
       style="fill:none;stroke:#ff0000;stroke-width:0.1;stroke-dasharray:none;stroke-opacity:1"
       id="path114" /></g></svg>
