0
SECTION
2
HEADER
9
$INSUNITS
70
4
9
$ACADVER
1
AC1014
9
$HANDSEED
5
FFFF
0
ENDSEC
0
SECTION
2
TABLES
0
TABLE
2
VPORT
5
8
100
AcDbSymbolTable
0
ENDTAB
0
TABLE
2
LTYPE
5
5
100
AcDbSymbolTable
0
LTYPE
5
14
100
AcDbSymbolTableRecord
100
AcDbLinetypeTableRecord
2
BYBLOCK
70
0
0
LTYPE
5
15
100
AcDbSymbolTableRecord
100
AcDbLinetypeTableRecord
2
BYLAYER
70
0
0
LTYPE
5
16
100
AcDbSymbolTableRecord
100
AcDbLinetypeTableRecord
2
DASHED
70
0
3
Dashed __ __ __ __ __ __ __ __ __ __ __ __ __ _
72
65
73
2
40
0.75
49
0.5
74
0
49
-0.25
74
0
0
ENDTAB
0
TABLE
2
LAYER
5
2
100
AcDbSymbolTable
70
3
0
LAYER
5
50
100
AcDbSymbolTableRecord
100
AcDbLayerTableRecord
2
1
70
0
62
7
6
DASHED
0
LAYER
5
51
100
AcDbSymbolTableRecord
100
AcDbLayerTableRecord
2
0
70
0
62
7
6
CONTINUOUS
0
ENDTAB
0
TABLE
2
STYLE
5
3
100
AcDbSymbolTable
70
1
0
STYLE
5
11
100
AcDbSymbolTableRecord
100
AcDbTextStyleTableRecord
2
STANDARD
70
0
0
ENDTAB
0
TABLE
2
VIEW
5
6
100
AcDbSymbolTable
70
0
0
ENDTAB
0
TABLE
2
UCS
5
7
100
AcDbSymbolTable
70
0
0
ENDTAB
0
TABLE
2
APPID
5
9
100
AcDbSymbolTable
70
2
0
APPID
5
12
100
AcDbSymbolTableRecord
100
AcDbRegAppTableRecord
2
ACAD
70
0
0
ENDTAB
0
TABLE
2
DIMSTYLE
5
A
100
AcDbSymbolTable
70
1
0
ENDTAB
0
TABLE
2
BLOCK_RECORD
5
1
100
AcDbSymbolTable
70
1
0
BLOCK_RECORD
5
1F
100
AcDbSymbolTableRecord
100
AcDbBlockTableRecord
2
*MODEL_SPACE
0
BLOCK_RECORD
5
1B
100
AcDbSymbolTableRecord
100
AcDbBlockTableRecord
2
*PAPER_SPACE
0
ENDTAB
0
ENDSEC
0
SECTION
2
BLOCKS
0
BLOCK
5
20
100
AcDbEntity
100
AcDbBlockBegin
2
*MODEL_SPACE
0
ENDBLK
5
21
100
AcDbEntity
100
AcDbBlockEnd
0
BLOCK
5
1C
100
AcDbEntity
100
AcDbBlockBegin
2
*PAPER_SPACE
0
ENDBLK
5
1D
100
AcDbEntity
100
AcDbBlockEnd
0
ENDSEC
0
SECTION
2
ENTITIES
0
POINT
5
100
100
AcDbEntity
8
0
100
AcDbPoint
10
0
20
0
30
0
0
POINT
5
101
100
AcDbEntity
8
0
100
AcDbPoint
10
0
20
70.000001043081284
30
0
0
POINT
5
102
100
AcDbEntity
8
0
100
AcDbPoint
10
-49.999999999999993
20
-25
30
0
0
POINT
5
103
100
AcDbEntity
8
0
100
AcDbPoint
10
-49.999999999999993
20
25
30
0
0
POINT
5
104
100
AcDbEntity
8
0
100
AcDbPoint
10
49.999999999999993
20
25
30
0
0
POINT
5
105
100
AcDbEntity
8
0
100
AcDbPoint
10
0
20
0
30
0
0
LWPOLYLINE
5
106
100
AcDbEntity
8
0
100
AcDbPolyline
90
4
70
1
43
0.0
10
82.000001221895218
20
111.00000105798244
10
-82.000001221895218
20
111.00000105798244
10
-82.000001221895218
20
143.0000015348196
10
82.000001221895218
20
143.0000015348196
0
LINE
5
107
100
AcDbEntity
8
0
100
AcDbLine
10
37.057586388888907
20
139.8000222222222
30
0
11
40.057608611111164
21
139.8000222222222
31
0
0
CIRCLE
5
108
100
AcDbEntity
8
0
100
AcDbCircle
10
-76.000001132488251
20
137.00000144541264
30
0
40
1.5999999999999956
210
0
220
0
230
1
0
SPLINE
5
109
100
AcDbEntity
8
0
100
AcDbSpline
70
0
71
3
72
10
73
6
74
0
42
0.000000001
43
0.0000000001
44
0.0000000001
40
3
40
3
40
3
40
3
40
4
40
4
40
5
40
5
40
5
40
5
10
37.057586388888907
20
114.20003249999993
30
0
10
36.339683611111184
20
114.20003249999993
30
0
10
35.757600277777783
20
114.78211583333334
30
0
10
35.757600277777783
20
116.21792138888885
30
0
10
36.339683611111184
20
116.80000472222221
30
0
10
37.057586388888907
20
116.80000472222221
30
0
0
CIRCLE
5
110
100
AcDbEntity
8
0
100
AcDbCircle
10
76.000001132488251
20
117.00000114738941
30
0
40
1.5999999999999943
210
0
220
0
230
1
0
SPLINE
5
111
100
AcDbEntity
8
0
100
AcDbSpline
70
0
71
3
72
10
73
6
74
0
42
0.000000001
43
0.0000000001
44
0.0000000001
40
0
40
0
40
0
40
0
40
1
40
1
40
2
40
2
40
2
40
2
10
48.557612777777869
20
115.80002083333329
30
0
10
42.372007222222258
20
115.80002083333329
30
0
10
37.357623888888931
20
120.81440416666665
30
0
10
37.357623888888931
20
133.18561527777771
30
0
10
42.372007222222258
20
138.19999861111106
30
0
10
48.557612777777869
20
138.19999861111106
30
0
0
LINE
5
112
100
AcDbEntity
8
0
100
AcDbLine
10
-37.057586388888907
20
139.8000222222222
30
0
11
-40.057608611111164
21
139.8000222222222
31
0
0
LINE
5
113
100
AcDbEntity
8
0
100
AcDbLine
10
60.057603888888835
20
139.8000222222222
30
0
11
63.057626111111091
21
139.8000222222222
31
0
0
SPLINE
5
114
100
AcDbEntity
8
0
100
AcDbSpline
70
0
71
3
72
10
73
6
74
0
42
0.000000001
43
0.0000000001
44
0.0000000001
40
0
40
0
40
0
40
0
40
1
40
1
40
2
40
2
40
2
40
2
10
40.057608611111164
20
116.80000472222221
30
0
10
40.775511388888923
20
116.80000472222221
30
0
10
41.357594722222217
20
116.21792138888885
30
0
10
41.357594722222217
20
114.78211583333334
30
0
10
40.775511388888923
20
114.20003249999993
30
0
10
40.057608611111164
20
114.20003249999993
30
0
0
LINE
5
115
100
AcDbEntity
8
0
100
AcDbLine
10
-40.057608611111164
20
137.20004999999998
30
0
11
-37.057586388888907
21
137.20004999999998
31
0
0
LINE
5
116
100
AcDbEntity
8
0
100
AcDbLine
10
-40.057608611111164
20
114.20003249999993
30
0
11
-37.057586388888907
21
114.20003249999993
31
0
0
LINE
5
117
100
AcDbEntity
8
0
100
AcDbLine
10
40.057608611111164
20
137.20004999999998
30
0
11
37.057586388888907
21
137.20004999999998
31
0
0
LINE
5
118
100
AcDbEntity
8
0
100
AcDbLine
10
63.057626111111091
20
114.19999722222215
30
0
11
60.057603888888835
21
114.19999722222215
31
0
0
LINE
5
119
100
AcDbEntity
8
0
100
AcDbLine
10
-63.057626111111091
20
137.20004999999998
30
0
11
-60.057603888888835
21
137.20004999999998
31
0
0
SPLINE
5
120
100
AcDbEntity
8
0
100
AcDbSpline
70
0
71
3
72
10
73
6
74
0
42
0.000000001
43
0.0000000001
44
0.0000000001
40
0
40
0
40
0
40
0
40
1
40
1
40
2
40
2
40
2
40
2
10
-40.057608611111164
20
139.8000222222222
30
0
10
-40.775511388888923
20
139.8000222222222
30
0
10
-41.357594722222217
20
139.21793888888888
30
0
10
-41.357594722222217
20
137.78213333333332
30
0
10
-40.775511388888923
20
137.20004999999998
30
0
10
-40.057608611111164
20
137.20004999999998
30
0
0
SPLINE
5
121
100
AcDbEntity
8
0
100
AcDbSpline
70
0
71
3
72
10
73
6
74
0
42
0.000000001
43
0.0000000001
44
0.0000000001
40
0
40
0
40
0
40
0
40
1
40
1
40
2
40
2
40
2
40
2
10
63.057626111111091
20
139.8000222222222
30
0
10
63.775528888888921
20
139.8000222222222
30
0
10
64.357612222222244
20
139.21793888888888
30
0
10
64.357612222222244
20
137.78213333333332
30
0
10
63.775528888888921
20
137.20004999999998
30
0
10
63.057626111111091
20
137.20004999999998
30
0
0
CIRCLE
5
122
100
AcDbEntity
8
0
100
AcDbCircle
10
76.000001132488251
20
137.00000144541264
30
0
40
1.5999999999999956
210
0
220
0
230
1
0
LINE
5
123
100
AcDbEntity
8
0
100
AcDbLine
10
37.057586388888907
20
116.80000472222221
30
0
11
40.057608611111164
21
116.80000472222221
31
0
0
SPLINE
5
124
100
AcDbEntity
8
0
100
AcDbSpline
70
0
71
3
72
10
73
6
74
0
42
0.000000001
43
0.0000000001
44
0.0000000001
40
3
40
3
40
3
40
3
40
4
40
4
40
5
40
5
40
5
40
5
10
-37.057586388888907
20
114.20003249999993
30
0
10
-36.339683611111184
20
114.20003249999993
30
0
10
-35.757600277777783
20
114.78211583333334
30
0
10
-35.757600277777783
20
116.21792138888885
30
0
10
-36.339683611111184
20
116.80000472222221
30
0
10
-37.057586388888907
20
116.80000472222221
30
0
0
LINE
5
125
100
AcDbEntity
8
0
100
AcDbLine
10
60.057603888888835
20
116.79996944444443
30
0
11
63.057626111111091
21
116.79996944444443
31
0
0
CIRCLE
5
126
100
AcDbEntity
8
0
100
AcDbCircle
10
76.000001132488251
20
127.00000129640102
30
0
40
1.6000000000000014
210
0
220
0
230
1
0
SPLINE
5
127
100
AcDbEntity
8
0
100
AcDbSpline
70
0
71
3
72
10
73
6
74
0
42
0.000000001
43
0.0000000001
44
0.0000000001
40
3
40
3
40
3
40
3
40
4
40
4
40
5
40
5
40
5
40
5
10
60.057603888888835
20
137.20004999999998
30
0
10
59.339701111111076
20
137.20004999999998
30
0
10
58.757617777777746
20
137.78213333333332
30
0
10
58.757617777777746
20
139.21793888888888
30
0
10
59.339701111111076
20
139.8000222222222
30
0
10
60.057603888888835
20
139.8000222222222
30
0
0
LINE
5
128
100
AcDbEntity
8
0
100
AcDbLine
10
-60.057603888888835
20
139.8000222222222
30
0
11
-63.057626111111091
21
139.8000222222222
31
0
0
LINE
5
129
100
AcDbEntity
8
0
100
AcDbLine
10
-63.057626111111091
20
114.19999722222215
30
0
11
-60.057603888888835
21
114.19999722222215
31
0
0
LINE
5
130
100
AcDbEntity
8
0
100
AcDbLine
10
63.057626111111091
20
137.20004999999998
30
0
11
60.057603888888835
21
137.20004999999998
31
0
0
LINE
5
131
100
AcDbEntity
8
0
100
AcDbLine
10
40.057608611111164
20
114.20003249999993
30
0
11
37.057586388888907
21
114.20003249999993
31
0
0
SPLINE
5
132
100
AcDbEntity
8
0
100
AcDbSpline
70
0
71
3
72
10
73
6
74
0
42
0.000000001
43
0.0000000001
44
0.0000000001
40
0
40
0
40
0
40
0
40
1
40
1
40
2
40
2
40
2
40
2
10
-48.557612777777869
20
115.80002083333329
30
0
10
-42.372007222222258
20
115.80002083333329
30
0
10
-37.357623888888931
20
120.81440416666665
30
0
10
-37.357623888888931
20
133.18561527777771
30
0
10
-42.372007222222258
20
138.19999861111106
30
0
10
-48.557612777777869
20
138.19999861111106
30
0
0
SPLINE
5
133
100
AcDbEntity
8
0
100
AcDbSpline
70
0
71
3
72
10
73
6
74
0
42
0.000000001
43
0.0000000001
44
0.0000000001
40
0
40
0
40
0
40
0
40
1
40
1
40
2
40
2
40
2
40
2
10
-63.057626111111091
20
139.8000222222222
30
0
10
-63.775528888888921
20
139.8000222222222
30
0
10
-64.357612222222244
20
139.21793888888888
30
0
10
-64.357612222222244
20
137.78213333333332
30
0
10
-63.775528888888921
20
137.20004999999998
30
0
10
-63.057626111111091
20
137.20004999999998
30
0
0
LINE
5
134
100
AcDbEntity
8
0
100
AcDbLine
10
-51.557635000000055
20
115.80002083333329
30
0
11
-48.557612777777869
21
115.80002083333329
31
0
0
SPLINE
5
135
100
AcDbEntity
8
0
100
AcDbSpline
70
0
71
3
72
10
73
6
74
0
42
0.000000001
43
0.0000000001
44
0.0000000001
40
3
40
3
40
3
40
3
40
4
40
4
40
5
40
5
40
5
40
5
10
63.057626111111091
20
116.79996944444443
30
0
10
63.77552888888885
20
116.79996944444443
30
0
10
64.357612222222244
20
116.21788611111108
30
0
10
64.357612222222244
20
114.7820805555555
30
0
10
63.77552888888885
20
114.19999722222215
30
0
10
63.057626111111091
20
114.19999722222215
30
0
0
SPLINE
5
136
100
AcDbEntity
8
0
100
AcDbSpline
70
0
71
3
72
10
73
6
74
0
42
0.000000001
43
0.0000000001
44
0.0000000001
40
3
40
3
40
3
40
3
40
4
40
4
40
5
40
5
40
5
40
5
10
51.557635000000055
20
138.19999861111106
30
0
10
57.743240555555559
20
138.19999861111106
30
0
10
62.757623888888958
20
133.18561527777771
30
0
10
62.757623888888958
20
120.81440416666665
30
0
10
57.743240555555559
20
115.80002083333329
30
0
10
51.557635000000055
20
115.80002083333329
30
0
0
SPLINE
5
137
100
AcDbEntity
8
0
100
AcDbSpline
70
0
71
3
72
10
73
6
74
0
42
0.000000001
43
0.0000000001
44
0.0000000001
40
3
40
3
40
3
40
3
40
4
40
4
40
5
40
5
40
5
40
5
10
-37.057586388888907
20
137.20004999999998
30
0
10
-36.339683611111184
20
137.20004999999998
30
0
10
-35.757600277777783
20
137.78213333333332
30
0
10
-35.757600277777783
20
139.21793888888888
30
0
10
-36.339683611111184
20
139.8000222222222
30
0
10
-37.057586388888907
20
139.8000222222222
30
0
0
LINE
5
138
100
AcDbEntity
8
0
100
AcDbLine
10
-37.057586388888907
20
116.80000472222221
30
0
11
-40.057608611111164
21
116.80000472222221
31
0
0
SPLINE
5
139
100
AcDbEntity
8
0
100
AcDbSpline
70
0
71
3
72
10
73
6
74
0
42
0.000000001
43
0.0000000001
44
0.0000000001
40
3
40
3
40
3
40
3
40
4
40
4
40
5
40
5
40
5
40
5
10
-60.057603888888835
20
137.20004999999998
30
0
10
-59.339701111111076
20
137.20004999999998
30
0
10
-58.757617777777746
20
137.78213333333332
30
0
10
-58.757617777777746
20
139.21793888888888
30
0
10
-59.339701111111076
20
139.8000222222222
30
0
10
-60.057603888888835
20
139.8000222222222
30
0
0
CIRCLE
5
140
100
AcDbEntity
8
0
100
AcDbCircle
10
-76.000001132488251
20
127.00000129640102
30
0
40
1.6000000000000014
210
0
220
0
230
1
0
LINE
5
141
100
AcDbEntity
8
0
100
AcDbLine
10
51.557635000000055
20
115.80002083333329
30
0
11
48.557612777777869
21
115.80002083333329
31
0
0
LINE
5
142
100
AcDbEntity
8
0
100
AcDbLine
10
-48.557612777777869
20
138.19999861111106
30
0
11
-51.557635000000055
21
138.19999861111106
31
0
0
CIRCLE
5
143
100
AcDbEntity
8
0
100
AcDbCircle
10
-76.000001132488251
20
117.00000114738941
30
0
40
1.5999999999999943
210
0
220
0
230
1
0
LINE
5
144
100
AcDbEntity
8
0
100
AcDbLine
10
48.557612777777869
20
138.19999861111106
30
0
11
51.557635000000055
21
138.19999861111106
31
0
0
SPLINE
5
145
100
AcDbEntity
8
0
100
AcDbSpline
70
0
71
3
72
10
73
6
74
0
42
0.000000001
43
0.0000000001
44
0.0000000001
40
0
40
0
40
0
40
0
40
1
40
1
40
2
40
2
40
2
40
2
10
60.057603888888835
20
114.19999722222215
30
0
10
59.339701111111076
20
114.19999722222215
30
0
10
58.757617777777746
20
114.7820805555555
30
0
10
58.757617777777746
20
116.21788611111108
30
0
10
59.339701111111076
20
116.79996944444443
30
0
10
60.057603888888835
20
116.79996944444443
30
0
0
SPLINE
5
146
100
AcDbEntity
8
0
100
AcDbSpline
70
0
71
3
72
10
73
6
74
0
42
0.000000001
43
0.0000000001
44
0.0000000001
40
0
40
0
40
0
40
0
40
1
40
1
40
2
40
2
40
2
40
2
10
-40.057608611111164
20
116.80000472222221
30
0
10
-40.775511388888923
20
116.80000472222221
30
0
10
-41.357594722222217
20
116.21792138888885
30
0
10
-41.357594722222217
20
114.78211583333334
30
0
10
-40.775511388888923
20
114.20003249999993
30
0
10
-40.057608611111164
20
114.20003249999993
30
0
0
SPLINE
5
147
100
AcDbEntity
8
0
100
AcDbSpline
70
0
71
3
72
10
73
6
74
0
42
0.000000001
43
0.0000000001
44
0.0000000001
40
0
40
0
40
0
40
0
40
1
40
1
40
2
40
2
40
2
40
2
10
40.057608611111164
20
139.8000222222222
30
0
10
40.775511388888923
20
139.8000222222222
30
0
10
41.357594722222217
20
139.21793888888888
30
0
10
41.357594722222217
20
137.78213333333332
30
0
10
40.775511388888923
20
137.20004999999998
30
0
10
40.057608611111164
20
137.20004999999998
30
0
0
SPLINE
5
148
100
AcDbEntity
8
0
100
AcDbSpline
70
0
71
3
72
10
73
6
74
0
42
0.000000001
43
0.0000000001
44
0.0000000001
40
3
40
3
40
3
40
3
40
4
40
4
40
5
40
5
40
5
40
5
10
-63.057626111111091
20
116.79996944444443
30
0
10
-63.77552888888885
20
116.79996944444443
30
0
10
-64.357612222222244
20
116.21788611111108
30
0
10
-64.357612222222244
20
114.7820805555555
30
0
10
-63.77552888888885
20
114.19999722222215
30
0
10
-63.057626111111091
20
114.19999722222215
30
0
0
LINE
5
149
100
AcDbEntity
8
0
100
AcDbLine
10
-60.057603888888835
20
116.79996944444443
30
0
11
-63.057626111111091
21
116.79996944444443
31
0
0
SPLINE
5
150
100
AcDbEntity
8
0
100
AcDbSpline
70
0
71
3
72
10
73
6
74
0
42
0.000000001
43
0.0000000001
44
0.0000000001
40
0
40
0
40
0
40
0
40
1
40
1
40
2
40
2
40
2
40
2
10
-60.057603888888835
20
114.19999722222215
30
0
10
-59.339701111111076
20
114.19999722222215
30
0
10
-58.757617777777746
20
114.7820805555555
30
0
10
-58.757617777777746
20
116.21788611111108
30
0
10
-59.339701111111076
20
116.79996944444443
30
0
10
-60.057603888888835
20
116.79996944444443
30
0
0
SPLINE
5
151
100
AcDbEntity
8
0
100
AcDbSpline
70
0
71
3
72
10
73
6
74
0
42
0.000000001
43
0.0000000001
44
0.0000000001
40
3
40
3
40
3
40
3
40
4
40
4
40
5
40
5
40
5
40
5
10
37.057586388888907
20
137.20004999999998
30
0
10
36.339683611111184
20
137.20004999999998
30
0
10
35.757600277777783
20
137.78213333333332
30
0
10
35.757600277777783
20
139.21793888888888
30
0
10
36.339683611111184
20
139.8000222222222
30
0
10
37.057586388888907
20
139.8000222222222
30
0
0
SPLINE
5
152
100
AcDbEntity
8
0
100
AcDbSpline
70
0
71
3
72
10
73
6
74
0
42
0.000000001
43
0.0000000001
44
0.0000000001
40
3
40
3
40
3
40
3
40
4
40
4
40
5
40
5
40
5
40
5
10
-51.557635000000055
20
138.19999861111106
30
0
10
-57.743240555555559
20
138.19999861111106
30
0
10
-62.757623888888958
20
133.18561527777771
30
0
10
-62.757623888888958
20
120.81440416666665
30
0
10
-57.743240555555559
20
115.80002083333329
30
0
10
-51.557635000000055
20
115.80002083333329
30
0
0
LWPOLYLINE
5
153
100
AcDbEntity
8
0
100
AcDbPolyline
90
4
70
1
43
0.0
10
29.999999999999996
20
54.000000804662704
10
-29.999999999999996
20
54.000001043081284
10
-29.999999999999996
20
82.000001043081298
10
30.000000000000004
20
82.000001043081298
0
LWPOLYLINE
5
154
100
AcDbEntity
8
0
100
AcDbPolyline
90
4
70
1
43
0.0
10
-30
20
66.0000009983778
10
-25.00000037252903
20
66.0000009983778
10
-25.00000037252903
20
54.000000804662704
10
-30.000000447034836
20
54.000000804662704
0
LWPOLYLINE
5
155
100
AcDbEntity
8
0
100
AcDbPolyline
90
4
70
1
43
0.0
10
-20.000000298023224
20
66.0000009983778
10
-15.000000223517418
20
66.0000009983778
10
-15.000000223517418
20
54.000000804662704
10
-20.000000298023224
20
54.000000804662704
0
LWPOLYLINE
5
156
100
AcDbEntity
8
0
100
AcDbPolyline
90
4
70
1
43
0.0
10
25.00000037252903
20
66.0000009983778
10
29.999999999999996
20
66.0000009983778
10
29.999999999999996
20
54.000000804662704
10
25.00000037252903
20
54.000001043081284
0
LWPOLYLINE
5
157
100
AcDbEntity
8
0
100
AcDbPolyline
90
4
70
1
43
0.0
10
20.000000298023224
20
66.0000009983778
10
15.000000223517418
20
66.0000009983778
10
15.000000223517418
20
54.000000804662704
10
20.000000298023224
20
54.000000804662704
0
CIRCLE
5
158
100
AcDbEntity
8
0
100
AcDbCircle
10
-17.500000298023224
20
75.000001192092896
30
0
40
2.1000000000000005
210
0
220
0
230
1
0
CIRCLE
5
159
100
AcDbEntity
8
0
100
AcDbCircle
10
17.500000298023224
20
75.000001192092896
30
0
40
2.0999999999999996
210
0
220
0
230
1
0
CIRCLE
5
160
100
AcDbEntity
8
0
100
AcDbCircle
10
0
20
60.000000894069672
30
0
40
2.099999999999997
210
0
220
0
230
1
0
LWPOLYLINE
5
161
100
AcDbEntity
8
0
100
AcDbPolyline
90
16
70
1
43
0.0
10
46.999999999999993
20
-25
10
-47
20
-25
42
-0.41421356237309592
10
-49.999999999999993
20
-22
10
-49.999999999999993
20
22.000000055879351
42
-0.41421355691753287
10
-47.000000055879347
20
25.000000055879362
10
-33.00000050291419
20
25.000000316649675
42
-0.41421356782865726
10
-30.000000447034836
20
22.000000316649675
10
-30.000000447034836
20
13.000000149011612
42
0.41421356237309531
10
-27.000000447034836
20
10.000000149011612
10
27.000000447034836
20
10.000000149011612
42
0.41421356237309531
10
30.000000447034836
20
13.000000149011612
10
30.000000447034836
20
22.000000316649675
42
-0.41421356782865726
10
33.00000050291419
20
25.000000316649675
10
47.000000055879347
20
25.000000055879354
42
-0.41421355691753287
10
49.999999999999986
20
22.000000055879354
10
49.999999999999993
20
-22.000000000000007
42
-0.41421356237309465
0
CIRCLE
5
162
100
AcDbEntity
8
0
100
AcDbCircle
10
-41.000000610947609
20
17.00000025331974
30
0
40
2.0999999999999996
210
0
220
0
230
1
0
CIRCLE
5
163
100
AcDbEntity
8
0
100
AcDbCircle
10
41.000000610947609
20
17.00000025331974
30
0
40
2.1000000000000014
210
0
220
0
230
1
0
LWPOLYLINE
5
164
100
AcDbEntity
8
0
100
AcDbPolyline
90
4
70
1
43
0.0
10
29.999999999999996
20
-24.999998956918713
10
25.00000037252903
20
-24.999998956918713
10
25.00000037252903
20
-12.999999001622196
10
29.999999999999996
20
-12.999999001622196
0
LWPOLYLINE
5
165
100
AcDbEntity
8
0
100
AcDbPolyline
90
4
70
1
43
0.0
10
-20.000000298023224
20
-12.999999001622196
10
-15.000000223517418
20
-12.999999001622196
10
-15.000000223517418
20
-24.999999195337296
10
-20.000000298023224
20
-24.999999195337296
0
LWPOLYLINE
5
166
100
AcDbEntity
8
0
100
AcDbPolyline
90
4
70
1
43
0.0
10
-25.00000037252903
20
-24.999999195337296
10
-30.000000447034836
20
-24.999999195337296
10
-30
20
-12.999999001622196
10
-25.00000037252903
20
-12.999999001622196
0
LWPOLYLINE
5
167
100
AcDbEntity
8
0
100
AcDbPolyline
90
4
70
1
43
0.0
10
20.000000298023224
20
-24.999999195337296
10
20.000000298023224
20
-12.999999001622196
10
15.000000223517418
20
-12.999999001622196
10
15.000000223517418
20
-24.999999195337296
0
CIRCLE
5
168
100
AcDbEntity
8
0
100
AcDbCircle
10
-17.500000298023224
20
132.0000011920929
30
0
40
2.1000000000000005
210
0
220
0
230
1
0
CIRCLE
5
169
100
AcDbEntity
8
0
100
AcDbCircle
10
17.500000298023224
20
132.0000011920929
30
0
40
2.0999999999999996
210
0
220
0
230
1
0
CIRCLE
5
170
100
AcDbEntity
8
0
100
AcDbCircle
10
0
20
117.00000089406967
30
0
40
2.099999999999997
210
0
220
0
230
1
0
CIRCLE
5
171
100
AcDbEntity
8
0
100
AcDbCircle
10
90.000001341104507
20
70.000001043081284
30
0
40
2.0999999999999992
210
0
220
0
230
1
0
LINE
5
172
100
AcDbEntity
8
0
100
AcDbLine
10
90.000001341104507
20
76.000001043081284
30
0
11
102.00000158869304
21
76.000001132488251
31
0
0
LINE
5
173
100
AcDbEntity
8
0
100
AcDbLine
10
96.000001609325409
20
58.000001043081284
30
0
11
96.000001609325409
21
49.998964944074331
31
0
0
LINE
5
174
100
AcDbEntity
8
0
100
AcDbLine
10
101.99784532834086
20
44.000001132488251
30
0
11
102.00215771149603
21
44.000001132488251
31
0
0
LINE
5
175
100
AcDbEntity
8
0
100
AcDbLine
10
108.00000151991844
20
50.00000074505806
30
0
11
108.00000158869301
21
70.00000111185588
31
0
0
CIRCLE
5
176
100
AcDbEntity
8
0
100
AcDbCircle
10
102.00000151991844
20
50.00000074505806
30
0
40
2.1000000000000014
210
0
220
0
230
1
0
ARC
5
177
100
AcDbEntity
8
0
100
AcDbCircle
10
102.00000151991844
20
50.00000074505806
30
0
40
6
210
0
220
0
230
1
100
AcDbArc
50
-180.00989117080948
51
0
0
ARC
5
178
100
AcDbEntity
8
0
100
AcDbCircle
10
90.000001341104507
20
70.000001043081284
30
0
40
5.9999999999999964
210
0
220
-0
230
1
100
AcDbArc
50
90
51
270
0
ARC
5
179
100
AcDbEntity
8
0
100
AcDbCircle
10
102.00000158869304
20
70.000001132488279
30
0
40
5.9999999999999609
210
-0
220
0
230
1
100
AcDbArc
50
0
51
90
0
LINE
5
180
100
AcDbEntity
8
0
100
AcDbLine
10
90.000001341104507
20
64.000001043081284
30
0
11
94.000001490116148
21
64.000001043081298
31
0
0
LINE
5
181
100
AcDbEntity
8
0
100
AcDbLine
10
96.000001490116119
20
62.000001102685935
30
0
11
96.000001609325409
21
58.000001043081284
31
0
0
ARC
5
182
100
AcDbEntity
8
0
100
AcDbCircle
10
94.000001490116119
20
62.000001043081305
30
0
40
1.9999999999999938
210
0
220
-0
230
1
100
AcDbArc
50
1.7075472925031877e-06
51
89.99999999999919
0
ENDSEC
0
SECTION
2
OBJECTS
0
DICTIONARY
5
C
100
AcDbDictionary
3
ACAD_GROUP
350
D
3
ACAD_MLINESTYLE
350
17
0
DICTIONARY
5
D
100
AcDbDictionary
0
DICTIONARY
5
1A
330
C
100
AcDbDictionary
0
DICTIONARY
5
17
100
AcDbDictionary
0
ENDSEC
0
EOF
