<?xml version="1.0" encoding="UTF-8" standalone="no"?>
<!-- Created with Inkscape (http://www.inkscape.org/) -->

<svg
   width="100mm"
   height="148mm"
   viewBox="0 0 100 148"
   version="1.1"
   id="svg1"
   inkscape:version="1.4 (86a8ad7, 2024-10-11)"
   sodipodi:docname="3D球体.svg"
   xmlns:inkscape="http://www.inkscape.org/namespaces/inkscape"
   xmlns:sodipodi="http://sodipodi.sourceforge.net/DTD/sodipodi-0.dtd"
   xmlns="http://www.w3.org/2000/svg"
   xmlns:svg="http://www.w3.org/2000/svg">
  <sodipodi:namedview
     id="namedview1"
     pagecolor="#ffffff"
     bordercolor="#000000"
     borderopacity="0.25"
     inkscape:showpageshadow="2"
     inkscape:pageopacity="0.0"
     inkscape:pagecheckerboard="0"
     inkscape:deskcolor="#d1d1d1"
     inkscape:document-units="mm"
     showgrid="true"
     inkscape:zoom="1.3590372"
     inkscape:cx="189.10447"
     inkscape:cy="279.97762"
     inkscape:current-layer="g29">
    <inkscape:grid
       id="grid1"
       units="mm"
       originx="0"
       originy="0"
       spacingx="0.99999986"
       spacingy="1"
       empcolor="#0099e5"
       empopacity="0.30196078"
       color="#0099e5"
       opacity="0.14901961"
       empspacing="5"
       enabled="true"
       visible="true" />
  </sodipodi:namedview>
  <defs
     id="defs1" />
  <g
     inkscape:label="Layer 1"
     inkscape:groupmode="layer"
     id="layer1">
    <g
       inkscape:label="WireframeSphere"
       id="g29"
       style="stroke-width:0.1;stroke-dasharray:none">
      <g
         inkscape:label="Lines of Longitude"
         id="g12"
         style="stroke-width:0.1;stroke-dasharray:none">
        <path
           d="M 48.4434 113.733 L 48.1571 113.372 L 47.907 112.337 L 47.523 108.375 L 47.3072 102.115 L 47.2754 93.8265 L 47.4345 84.1704 L 47.7669 73.9865 L 48.2512 63.8087 L 48.8659 54.1709 L 49.5615 45.9112 L 50.2779 39.6892 L 50.9779 35.7708 L 51.3101 34.7585 L 51.6244 34.4218"
           style="fill:none;stroke:#000000;stroke-width:0.1;stroke-dasharray:none"
           id="path1" />
        <path
           d="M 42.3443 113.013 L 41.6693 112.79 L 41.0364 112.399 L 39.9009 111.13 L 38.9466 109.242 L 38.1822 106.771 L 37.6162 103.752 L 37.2573 100.222 L 37.1143 96.2157 L 37.1957 91.769 L 37.5029 87.0112 L 38.0229 82.0912 L 38.7426 77.0744 L 39.6492 72.0265 L 40.7297 67.013 L 41.9712 62.0993 L 43.3607 57.351 L 44.8853 52.8336 L 46.5005 48.6898 L 48.1559 45.0386 L 49.8299 41.9097 L 51.501 39.3329 L 53.1475 37.338 L 54.7478 35.9547 L 56.2803 35.2127 L 57.0144 35.0916 L 57.7235 35.142"
           style="fill:none;stroke:#000000;stroke-width:0.1;stroke-dasharray:none"
           id="path2" />
        <path
           d="M 35.7138 111.091 L 34.6156 110.572 L 33.5938 109.897 L 32.6499 109.071 L 31.7855 108.098 L 30.3015 105.737 L 29.1545 102.853 L 28.3572 99.4864 L 27.9222 95.679 L 27.8622 91.4711 L 28.1898 86.9034 L 28.9016 82.1101 L 29.9697 77.2399 L 31.3699 72.3549 L 33.0782 67.5176 L 35.0704 62.79 L 37.3225 58.2347 L 39.8104 53.9137 L 42.5099 49.8895 L 45.3417 46.2907 L 48.2181 43.2188 L 51.1023 40.6955 L 53.9576 38.7424 L 56.7471 37.3811 L 59.4342 36.6331 L 60.7279 36.4958 L 61.9821 36.52 L 63.1924 36.7083 L 64.354 37.0634"
           style="fill:none;stroke:#000000;stroke-width:0.1;stroke-dasharray:none"
           id="path3" />
        <path
           d="M 28.1764 107.204 L 26.8601 106.23 L 25.6558 105.123 L 24.5651 103.888 L 23.5894 102.531 L 22.73 101.059 L 21.9885 99.4776 L 20.8646 96.0091 L 20.2293 92.1732 L 20.0939 88.0177 L 20.4699 83.59 L 21.3687 78.9377 L 22.7717 74.1999 L 24.6281 69.5212 L 26.901 64.9574 L 29.5537 60.5641 L 32.5493 56.3971 L 35.8511 52.5122 L 39.4223 48.965 L 43.2262 45.8114 L 47.1498 43.1549 L 51.0726 41.0675 L 54.9464 39.5573 L 58.7229 38.6326 L 62.3539 38.3014 L 64.0997 38.361 L 65.7911 38.572 L 67.422 38.9355 L 68.9864 39.4525 L 70.4782 40.1241 L 71.8914 40.9512"
           style="fill:none;stroke:#000000;stroke-width:0.1;stroke-dasharray:none"
           id="path4" />
        <path
           d="M 19.7994 99.7868 L 18.605 98.2464 L 17.5579 96.6121 L 16.6585 94.8905 L 15.907 93.0886 L 15.3037 91.2131 L 14.8488 89.2706 L 14.5427 87.268 L 14.3855 85.212 L 14.5191 80.9669 L 15.2519 76.5895 L 16.586 72.1337 L 18.5235 67.6537 L 21.0152 63.2867 L 23.9766 59.1626 L 27.3567 55.3249 L 31.1047 51.8166 L 35.1697 48.6812 L 39.5008 45.9618 L 44.0472 43.7018 L 48.7579 41.9443 L 53.4911 40.752 L 58.1034 40.1513 L 62.5417 40.1316 L 66.7531 40.682 L 68.7571 41.1675 L 70.6845 41.7916 L 72.5286 42.5527 L 74.2828 43.4497 L 75.9406 44.481 L 77.4951 45.6454 L 78.94 46.9415 L 80.2684 48.368"
           style="fill:none;stroke:#000000;stroke-width:0.1;stroke-dasharray:none"
           id="path5" />
        <path
           d="M 12.4462 86.8156 L 11.8469 84.7732 L 11.4199 82.6999 L 11.1632 80.6027 L 11.0747 78.4883 L 11.1522 76.3636 L 11.3937 74.2355 L 11.7972 72.1108 L 12.3604 69.9963 L 13.0814 67.8989 L 13.958 65.8254 L 14.9881 63.7828 L 16.1698 61.7777 L 17.5008 59.8171 L 18.9791 57.9078 L 20.6026 56.0567 L 22.3692 54.2706 L 26.2459 50.9817 L 30.4839 48.1347 L 35.0199 45.751 L 39.7907 43.8521 L 44.7331 42.4593 L 49.7837 41.5941 L 54.8794 41.278 L 59.9569 41.5324 L 62.4454 41.8765 L 64.8599 42.3592 L 67.1944 42.9763 L 69.4431 43.7238 L 71.6003 44.5973 L 73.6601 45.5929 L 75.6167 46.7062 L 77.4643 47.9331 L 79.197 49.2695 L 80.809 50.7112 L 82.2946 52.254 L 83.6479 53.8938 L 84.863 55.6264 L 85.9343 57.4476 L 86.8557 59.3532 L 87.6216 61.3392"
           style="fill:none;stroke:#000000;stroke-width:0.1;stroke-dasharray:none"
           id="path6" />
        <path
           d="M 10.6381 69.2745 L 10.9869 67.1398 L 11.5044 65.0524 L 12.1857 63.0177 L 13.0258 61.0409 L 14.0201 59.1275 L 15.1635 57.2829 L 16.4513 55.5123 L 17.8785 53.8212 L 19.4404 52.2149 L 21.132 50.6987 L 22.9486 49.2781 L 24.8852 47.9584 L 26.9369 46.7449 L 29.0991 45.643 L 31.3667 44.6581 L 33.7349 43.7955 L 38.6574 42.4806 L 43.713 41.7291 L 48.8356 41.5328 L 53.9586 41.8838 L 59.016 42.7739 L 63.9413 44.1951 L 68.6683 46.1393 L 73.1307 48.5984 L 75.2223 50.0047 L 77.1869 51.5056 L 79.021 53.0946 L 80.7211 54.7655 L 82.284 56.5119 L 83.706 58.3273 L 84.9839 60.2055 L 86.1141 62.14 L 87.0932 64.1245 L 87.9179 66.1526 L 88.5846 68.2179 L 89.09 70.3141 L 89.4307 72.4349 L 89.6031 74.5737 L 89.6039 76.7243 L 89.4297 78.8803"
           style="fill:none;stroke:#000000;stroke-width:0.1;stroke-dasharray:none"
           id="path7" />
        <path
           d="M 16.0069 53.6504 L 17.1366 51.9394 L 18.4019 50.339 L 19.7961 48.852 L 21.3129 47.4809 L 22.9458 46.2284 L 24.6883 45.0973 L 26.534 44.09 L 28.4765 43.2094 L 30.5091 42.4579 L 32.6256 41.8384 L 37.0841 41.0056 L 41.8002 40.7321 L 46.7223 41.0393 L 51.7027 41.9276 L 56.5898 43.3603 L 61.3265 45.3032 L 65.8555 47.7218 L 70.1196 50.5818 L 74.0614 53.8488 L 77.6237 57.4884 L 80.7493 61.4663 L 83.3347 65.666 L 85.3108 69.9569 L 86.6721 74.2834 L 87.1204 76.4426 L 87.4129 78.5899 L 87.549 80.7183 L 87.5278 82.8208 L 87.3488 84.8906 L 87.0112 86.9206 L 86.5143 88.904 L 85.8574 90.8337 L 85.0398 92.7028 L 84.0609 94.5044"
           style="fill:none;stroke:#000000;stroke-width:0.1;stroke-dasharray:none"
           id="path8" />
        <path
           d="M 24.324 43.8433 L 25.7493 42.7468 L 27.2699 41.7964 L 28.8794 40.9922 L 30.5714 40.3341 L 32.3394 39.8223 L 34.1769 39.4566 L 36.0776 39.237 L 38.0349 39.1637 L 42.0939 39.4555 L 46.3023 40.332 L 50.6085 41.7932 L 54.961 43.8391 L 59.2268 46.4169 L 63.2786 49.4397 L 67.073 52.8567 L 70.5668 56.6169 L 73.7168 60.6695 L 76.4796 64.9637 L 78.8121 69.4486 L 80.6709 74.0732 L 81.9908 78.6979 L 82.7411 83.183 L 82.93 87.4775 L 82.5658 91.5306 L 82.1789 93.4507 L 81.6568 95.2913 L 81.0006 97.0462 L 80.2112 98.7089 L 79.2899 100.273 L 78.2375 101.732 L 77.0551 103.081 L 75.7438 104.311"
           style="fill:none;stroke:#000000;stroke-width:0.1;stroke-dasharray:none"
           id="path9" />
        <path
           d="M 32.3248 38.56 L 33.6361 38.0045 L 35.009 37.6117 L 36.4382 37.3795 L 37.9183 37.3062 L 39.444 37.3895 L 41.01 37.6275 L 44.2415 38.5596 L 47.57 40.0866 L 50.9528 42.1924 L 54.3471 44.8609 L 57.7103 48.0762 L 60.9385 51.7488 L 63.9364 55.7602 L 66.6742 60.0504 L 69.1222 64.5598 L 71.2505 69.2286 L 73.0293 73.997 L 74.4289 78.8053 L 75.4194 83.5936 L 75.9634 88.2146 L 76.052 92.5315 L 75.6981 96.5005 L 74.9146 100.078 L 73.7144 103.22 L 72.9621 104.614 L 72.1105 105.882 L 71.1611 107.02 L 70.1157 108.022 L 68.9758 108.882 L 67.743 109.595"
           style="fill:none;stroke:#000000;stroke-width:0.1;stroke-dasharray:none"
           id="path10" />
        <path
           d="M 39.3417 35.8573 L 40.2801 35.6861 L 41.2538 35.6848 L 42.2594 35.85 L 43.2931 36.1785 L 45.4304 37.3117 L 47.6369 39.058 L 49.8836 41.3907 L 52.1414 44.2833 L 54.3813 47.7093 L 56.5744 51.642 L 58.6525 55.9693 L 60.5546 60.5539 L 62.2629 65.3314 L 63.7594 70.2376 L 65.026 75.208 L 66.0447 80.1785 L 66.7976 85.0846 L 67.2666 89.8621 L 67.4325 94.3619 L 67.2955 98.4528 L 66.8664 102.097 L 66.1563 105.257 L 65.1762 107.895 L 63.9372 109.973 L 63.224 110.79 L 62.4501 111.453 L 61.617 111.957 L 60.7261 112.297"
           style="fill:none;stroke:#000000;stroke-width:0.1;stroke-dasharray:none"
           id="path11" />
        <path
           d="M 45.6363 34.6343 L 46.0569 34.6759 L 46.4917 34.8901 L 47.3974 35.8203 L 48.3405 37.3926 L 49.3085 39.5749 L 50.2886 42.335 L 51.2682 45.6408 L 53.175 53.7604 L 54.8644 63.2866 L 56.1999 73.3899 L 57.1224 83.5392 L 57.5726 93.2035 L 57.5009 101.544 L 57.2735 104.984 L 56.9253 107.892 L 56.4618 110.234 L 55.8881 111.976 L 55.2096 113.083 L 54.8327 113.388 L 54.4315 113.521"
           style="fill:none;stroke:#000000;stroke-width:0.1;stroke-dasharray:none"
           id="path12" />
      </g>
      <g
         inkscape:label="Lines of Latitude"
         id="g28"
         style="stroke-width:0.1;stroke-dasharray:none">
        <path
           d="M 56.2577 113.275 L 53.1673 113.639 L 50.0339 113.76 L 46.9005 113.639 L 43.8102 113.275"
           style="fill:none;stroke:#000000;stroke-width:0.1;stroke-dasharray:none"
           id="path13" />
        <path
           d="M 70.0694 108.337 L 68.0024 109.431 L 65.7723 110.393 L 63.3981 111.221 L 60.899 111.908 L 58.294 112.45 L 55.6021 112.843 L 52.8424 113.082 L 50.0339 113.163 L 47.2254 113.082 L 44.4657 112.843 L 41.7738 112.45 L 39.1688 111.908 L 36.6697 111.221 L 34.2955 110.393 L 32.0654 109.431 L 29.9984 108.337"
           style="fill:none;stroke:#000000;stroke-width:0.1;stroke-dasharray:none"
           id="path14" />
        <path
           d="M 77.6764 102.556 L 75.2958 104.555 L 72.517 106.335 L 69.3856 107.883 L 65.9471 109.183 L 62.247 110.22 L 58.3311 110.979 L 54.2449 111.445 L 50.0339 111.604 L 45.8229 111.445 L 41.7367 110.979 L 37.8208 110.22 L 34.1208 109.183 L 30.6822 107.883 L 27.5508 106.335 L 24.772 104.555 L 22.3914 102.556"
           style="fill:none;stroke:#000000;stroke-width:0.1;stroke-dasharray:none"
           id="path15" />
        <path
           d="M 83.0686 96.0734 L 81.9966 97.5146 L 80.7486 98.8897 L 79.3339 100.195 L 77.7619 101.426 L 74.1834 103.654 L 70.0879 105.543 L 65.5503 107.064 L 60.6456 108.186 L 55.4485 108.882 L 50.0339 109.12 L 44.6193 108.882 L 39.4222 108.186 L 34.5175 107.064 L 29.9799 105.543 L 25.8844 103.654 L 22.3059 101.426 L 20.7339 100.195 L 19.3192 98.8897 L 18.0712 97.5146 L 16.9992 96.0734"
           style="fill:none;stroke:#000000;stroke-width:0.1;stroke-dasharray:none"
           id="path16" />
        <path
           d="M 86.7891 89.0493 L 85.9114 90.8514 L 84.7835 92.5804 L 83.4183 94.2303 L 81.829 95.7952 L 80.0287 97.269 L 78.0303 98.6459 L 75.847 99.9199 L 73.4919 101.085 L 70.978 102.135 L 68.3184 103.065 L 65.5263 103.868 L 62.6146 104.538 L 59.5964 105.07 L 56.4848 105.457 L 53.293 105.694 L 50.0339 105.774 L 46.7748 105.694 L 43.583 105.457 L 40.4714 105.07 L 37.4532 104.538 L 34.5415 103.868 L 31.7494 103.065 L 29.0898 102.135 L 26.5759 101.085 L 24.2208 99.9199 L 22.0375 98.6459 L 20.0391 97.269 L 18.2388 95.7952 L 16.6495 94.2303 L 15.2843 92.5804 L 14.1564 90.8514 L 13.2787 89.0493"
           style="fill:none;stroke:#000000;stroke-width:0.1;stroke-dasharray:none"
           id="path17" />
        <path
           d="M 88.991 81.6567 L 88.4079 83.757 L 87.5002 85.7837 L 86.2846 87.7283 L 84.7776 89.5822 L 82.9959 91.337 L 80.9563 92.9841 L 78.6753 94.5148 L 76.1696 95.9207 L 73.4558 97.1932 L 70.5507 98.3238 L 67.4709 99.3039 L 64.233 100.125 L 60.8537 100.778 L 57.3496 101.256 L 53.7375 101.549 L 50.0339 101.648 L 46.3303 101.549 L 42.7182 101.256 L 39.2141 100.778 L 35.8348 100.125 L 32.5969 99.3039 L 29.5171 98.3238 L 26.612 97.1932 L 23.8982 95.9207 L 21.3925 94.5148 L 19.1115 92.9841 L 17.0719 91.337 L 15.2902 89.5822 L 13.7832 87.7283 L 12.5676 85.7837 L 11.6599 83.757 L 11.0768 81.6567"
           style="fill:none;stroke:#000000;stroke-width:0.1;stroke-dasharray:none"
           id="path18" />
        <path
           d="M 89.7214 74.0774 L 89.6335 75.5944 L 89.3724 77.0928 L 88.9424 78.5684 L 88.3476 80.0172 L 87.5922 81.4348 L 86.6804 82.8172 L 84.4043 85.4598 L 81.5525 87.9118 L 78.1586 90.14 L 74.2559 92.1112 L 69.8777 93.7923 L 65.1505 95.1266 L 60.2229 96.0797 L 55.1618 96.6516 L 50.034 96.8422 L 44.9061 96.6516 L 39.845 96.0797 L 34.9174 95.1266 L 30.1902 93.7923 L 25.812 92.1112 L 21.9092 90.14 L 18.5153 87.9118 L 15.6635 85.4598 L 13.3874 82.8172 L 12.4756 81.4348 L 11.7202 80.0172 L 11.1254 78.5684 L 10.6954 77.0928 L 10.4343 75.5944 L 10.3464 74.0774"
           style="fill:none;stroke:#000000;stroke-width:0.1;stroke-dasharray:none"
           id="path19" />
        <path
           d="M 88.991 66.4981 L 89.2026 68.1031 L 89.2145 69.698 L 89.0311 71.2776 L 88.6568 72.8365 L 88.0961 74.3697 L 87.3532 75.8717 L 86.4326 77.3375 L 85.3388 78.7618 L 84.076 80.1394 L 82.6488 81.465 L 79.3184 83.9393 L 75.3828 86.143 L 70.8772 88.0342 L 65.9498 89.5401 L 60.7795 90.6158 L 55.4472 91.2612 L 50.0339 91.4763 L 44.6207 91.2612 L 39.2884 90.6158 L 34.1181 89.5401 L 29.1907 88.0342 L 24.6851 86.143 L 20.7495 83.9393 L 17.4191 81.465 L 15.9919 80.1394 L 14.7291 78.7618 L 13.6353 77.3375 L 12.7147 75.8717 L 11.9719 74.3697 L 11.4111 72.8365 L 11.0368 71.2776 L 10.8534 69.698 L 10.8653 68.1031 L 11.0769 66.4981"
           style="fill:none;stroke:#000000;stroke-width:0.1;stroke-dasharray:none"
           id="path20" />
        <path
           d="M 86.7891 59.1055 L 87.3407 60.7393 L 87.6698 62.3751 L 87.7809 64.0064 L 87.6782 65.6269 L 87.3662 67.2301 L 86.849 68.8097 L 86.131 70.3592 L 85.2167 71.8723 L 84.1102 73.3426 L 82.8159 74.7637 L 81.3382 76.1292 L 79.6814 77.4328 L 77.8498 78.6679 L 75.8478 79.8283 L 71.3496 81.8991 L 66.3554 83.5541 L 61.0743 84.7362 L 55.6019 85.4455 L 50.0339 85.682 L 44.4658 85.4455 L 38.9934 84.7362 L 33.7123 83.5541 L 28.7181 81.8991 L 24.2199 79.8283 L 22.2179 78.6679 L 20.3863 77.4328 L 18.7295 76.1292 L 17.2518 74.7637 L 15.9575 73.3426 L 14.851 71.8723 L 13.9367 70.3592 L 13.2187 68.8097 L 12.7015 67.2301 L 12.3894 65.6269 L 12.2868 64.0064 L 12.3979 62.3751 L 12.727 60.7393 L 13.2786 59.1055"
           style="fill:none;stroke:#000000;stroke-width:0.1;stroke-dasharray:none"
           id="path21" />
        <path
           d="M 83.0686 52.0814 L 84.0014 53.6767 L 84.6938 55.2905 L 85.1496 56.9151 L 85.3727 58.5428 L 85.3669 60.166 L 85.1361 61.7768 L 84.6841 63.3678 L 84.0147 64.9312 L 83.132 66.4594 L 82.0396 67.9446 L 80.7414 69.3791 L 79.2413 70.7554 L 77.5432 72.0658 L 75.6509 73.3025 L 73.5683 74.4579 L 71.2991 75.5243 L 68.8846 76.48 L 66.3727 77.3082 L 61.1121 78.5824 L 55.6287 79.3469 L 50.0339 79.6017 L 44.4391 79.3469 L 38.9557 78.5824 L 33.6951 77.3082 L 31.1832 76.48 L 28.7687 75.5243 L 26.4995 74.4579 L 24.4169 73.3025 L 22.5246 72.0658 L 20.8265 70.7554 L 19.3264 69.3791 L 18.0282 67.9446 L 16.9358 66.4594 L 16.0531 64.9312 L 15.3837 63.3678 L 14.9317 61.7768 L 14.7009 60.166 L 14.6951 58.5428 L 14.9182 56.9151 L 15.374 55.2905 L 16.0664 53.6767 L 16.9992 52.0814"
           style="fill:none;stroke:#000000;stroke-width:0.1;stroke-dasharray:none"
           id="path22" />
        <path
           d="M 77.6764 45.599 L 79.0433 47.0732 L 80.1576 48.5891 L 81.022 50.1375 L 81.6393 51.7091 L 82.0121 53.2948 L 82.1431 54.8853 L 82.0352 56.4716 L 81.6909 58.0443 L 81.113 59.5943 L 80.3043 61.1125 L 79.2673 62.5896 L 78.005 64.0164 L 76.5198 65.3837 L 74.8147 66.6824 L 72.8922 67.9032 L 70.7552 69.037 L 68.4495 70.0563 L 66.03 70.9396 L 63.513 71.6871 L 60.9147 72.2986 L 55.5393 73.114 L 50.0339 73.3858 L 44.5285 73.114 L 39.1532 72.2986 L 36.5549 71.6871 L 34.0379 70.9396 L 31.6183 70.0563 L 29.3126 69.037 L 27.1756 67.9032 L 25.2531 66.6824 L 23.548 65.3837 L 22.0629 64.0164 L 20.8005 62.5896 L 19.7636 61.1125 L 18.9548 59.5943 L 18.377 58.0443 L 18.0327 56.4716 L 17.9247 54.8853 L 18.0558 53.2948 L 18.4286 51.7091 L 19.0459 50.1375 L 19.9103 48.5891 L 21.0246 47.0732 L 22.3915 45.599"
           style="fill:none;stroke:#000000;stroke-width:0.1;stroke-dasharray:none"
           id="path23" />
        <path
           d="M 70.0694 39.8177 L 71.967 41.0452 L 73.6089 42.3509 L 74.9952 43.7234 L 76.126 45.1515 L 77.0014 46.6238 L 77.6216 48.1292 L 77.9867 49.6561 L 78.0967 51.1935 L 77.952 52.7298 L 77.5525 54.254 L 76.8984 55.7546 L 75.9898 57.2203 L 74.8269 58.6399 L 73.4097 60.002 L 71.7385 61.2954 L 69.8133 62.5087 L 67.6857 63.6051 L 65.4201 64.5553 L 63.0364 65.3594 L 60.5541 66.0172 L 57.993 66.5289 L 55.3728 66.8944 L 50.0339 67.1867 L 44.695 66.8944 L 42.0748 66.5289 L 39.5137 66.0172 L 37.0314 65.3594 L 34.6477 64.5553 L 32.3821 63.6051 L 30.2545 62.5087 L 28.3293 61.2954 L 26.6581 60.002 L 25.241 58.6399 L 24.0781 57.2203 L 23.1695 55.7546 L 22.5154 54.254 L 22.1159 52.7298 L 21.9711 51.1935 L 22.0812 49.6561 L 22.4463 48.1292 L 23.0665 46.6238 L 23.9419 45.1515 L 25.0726 43.7234 L 26.4589 42.3509 L 28.1008 41.0452 L 29.9984 39.8177"
           style="fill:none;stroke:#000000;stroke-width:0.1;stroke-dasharray:none"
           id="path24" />
        <path
           d="M 56.2577 34.88 L 60.277 35.7523 L 63.8627 36.9972 L 66.959 38.5663 L 69.5102 40.4111 L 71.4605 42.4832 L 72.193 43.5892 L 72.7543 44.7339 L 73.1376 45.9112 L 73.3358 47.1149 L 73.3421 48.3391 L 73.1493 49.5776 L 72.759 50.8007 L 72.1836 51.9796 L 71.4327 53.1094 L 70.5158 54.1853 L 68.222 56.1565 L 65.3786 57.8549 L 62.0619 59.2424 L 58.348 60.2808 L 54.3132 60.9319 L 50.0339 61.1574 L 45.7545 60.9319 L 41.7198 60.2808 L 38.0058 59.2424 L 34.6891 57.8549 L 31.8457 56.1565 L 29.5519 54.1853 L 28.635 53.1094 L 27.8841 51.9796 L 27.3087 50.8007 L 26.9184 49.5776 L 26.7256 48.3391 L 26.7319 47.1149 L 26.9301 45.9112 L 27.3134 44.7339 L 27.8747 43.5892 L 28.6072 42.4832 L 30.5575 40.4111 L 33.1087 38.5663 L 36.205 36.9972 L 39.7907 35.7523 L 43.81 34.88"
           style="fill:none;stroke:#000000;stroke-width:0.1;stroke-dasharray:none"
           id="path25" />
        <path
           d="M 68.0516 45.1107 L 67.9634 46.1323 L 67.7022 47.1365 L 67.2728 48.1167 L 66.6801 49.066 L 65.0244 50.8449 L 62.7743 52.4191 L 60.0301 53.7098 L 56.929 54.6596 L 53.5654 55.2459 L 50.0339 55.4463 L 46.5024 55.2459 L 43.1388 54.6596 L 40.0377 53.7098 L 37.2935 52.4191 L 35.0434 50.8449 L 33.3877 49.066 L 32.795 48.1167 L 32.3656 47.1365 L 32.1044 46.1323 L 32.0162 45.1107 L 32.1044 44.0891 L 32.3656 43.0849 L 32.795 42.1047 L 33.3877 41.1554 L 35.0434 39.3765 L 37.2935 37.8023 L 40.0377 36.5116 L 43.1388 35.5618 L 46.5024 34.9755 L 50.0339 34.7751 L 53.5654 34.9755 L 56.929 35.5618 L 60.0301 36.5116 L 62.7743 37.8023 L 65.0244 39.3765 L 66.6801 41.1554 L 67.2728 42.1047 L 67.7022 43.0849 L 67.9634 44.0891 L 68.0516 45.1107"
           style="fill:none;stroke:#000000;stroke-width:0.1;stroke-dasharray:none"
           id="path26" />
        <path
           d="M 62.298 43.1585 L 62.0602 44.5374 L 61.3644 45.8508 L 60.2375 47.0618 L 58.7059 48.1333 L 56.838 49.0119 L 54.7272 49.6584 L 52.4377 50.0575 L 50.0339 50.1939 L 47.6301 50.0575 L 45.3406 49.6584 L 43.2298 49.0119 L 41.3619 48.1333 L 39.8303 47.0618 L 38.7034 45.8508 L 38.0076 44.5374 L 37.7698 43.1585 L 38.0076 41.7796 L 38.7034 40.4662 L 39.8303 39.2552 L 41.3619 38.1837 L 43.2298 37.3051 L 45.3406 36.6586 L 47.6301 36.2595 L 50.0339 36.1231 L 52.4377 36.2595 L 54.7272 36.6586 L 56.838 37.3051 L 58.7059 38.1837 L 60.2375 39.2552 L 61.3644 40.4662 L 62.0602 41.7796 L 62.298 43.1585"
           style="fill:none;stroke:#000000;stroke-width:0.1;stroke-dasharray:none"
           id="path27" />
        <path
           d="M 56.2424 41.9676 L 56.122 42.6658 L 55.7698 43.3307 L 55.1993 43.9438 L 54.424 44.4863 L 53.4784 44.9312 L 52.4098 45.2585 L 50.0339 45.5297 L 47.6173 45.2498 L 45.6438 44.4864 L 44.8857 43.9592 L 44.3133 43.3541 L 43.9515 42.6855 L 43.8254 41.9676 L 43.9458 41.2694 L 44.298 40.6045 L 44.8685 39.9914 L 45.6438 39.4489 L 46.5894 39.004 L 47.658 38.6767 L 50.0339 38.4055 L 52.4505 38.6854 L 54.424 39.4488 L 55.1821 39.976 L 55.7545 40.5811 L 56.1163 41.2497 L 56.2424 41.9676"
           style="fill:none;stroke:#000000;stroke-width:0.1;stroke-dasharray:none"
           id="path28" />
      </g>
      <path
         d="M 89.7214 74.0774 L 89.5272 78 L 88.9518 81.8562 L 88.0059 85.62 L 86.7004 89.2652 L 85.046 92.766 L 83.0535 96.0962 L 80.7336 99.2299 L 78.0972 102.141 L 75.1862 104.777 L 72.0526 107.097 L 68.7224 109.09 L 65.2217 110.744 L 61.5764 112.05 L 57.8127 112.995 L 53.9565 113.571 L 50.0339 113.765 L 46.1113 113.571 L 42.2551 112.995 L 38.4914 112.05 L 34.8461 110.744 L 31.3454 109.09 L 28.0152 107.097 L 24.8816 104.777 L 21.9706 102.141 L 19.3342 99.2299 L 17.0143 96.0962 L 15.0218 92.766 L 13.3674 89.2652 L 12.0619 85.62 L 11.116 81.8562 L 10.5406 78 L 10.3464 74.0774 L 10.5406 70.1548 L 11.116 66.2986 L 12.0619 62.5349 L 13.3674 58.8896 L 15.0218 55.3889 L 17.0143 52.0587 L 19.3342 48.9251 L 21.9706 46.0141 L 24.8816 43.3777 L 28.0152 41.0578 L 31.3454 39.0653 L 34.8461 37.4109 L 38.4914 36.1054 L 42.2551 35.1595 L 46.1113 34.5841 L 50.0339 34.3899 L 53.9565 34.5841 L 57.8127 35.1595 L 61.5764 36.1054 L 65.2217 37.4109 L 68.7224 39.0653 L 72.0526 41.0578 L 75.1862 43.3777 L 78.0972 46.0141 L 80.7336 48.9251 L 83.0535 52.0587 L 85.046 55.3889 L 86.7004 58.8896 L 88.0059 62.5349 L 88.9518 66.2986 L 89.5272 70.1548 L 89.7214 74.0774"
         style="fill:none;stroke:#000000;stroke-width:0.1;stroke-dasharray:none"
         id="path29" />
    </g>
  </g>
</svg>
