<?xml version="1.0" encoding="UTF-8" standalone="no"?>
<!-- Created with Inkscape (http://www.inkscape.org/) -->

<svg
   width="74mm"
   height="105mm"
   viewBox="0 0 74 105"
   version="1.1"
   id="svg5"
   xml:space="preserve"
   inkscape:version="1.2.2 (732a01da63, 2022-12-09)"
   sodipodi:docname="sutanuki_241214.svg"
   xmlns:inkscape="http://www.inkscape.org/namespaces/inkscape"
   xmlns:sodipodi="http://sodipodi.sourceforge.net/DTD/sodipodi-0.dtd"
   xmlns="http://www.w3.org/2000/svg"
   xmlns:svg="http://www.w3.org/2000/svg"><sodipodi:namedview
     id="namedview7"
     pagecolor="#ffffff"
     bordercolor="#000000"
     borderopacity="0.25"
     inkscape:showpageshadow="2"
     inkscape:pageopacity="0.0"
     inkscape:pagecheckerboard="0"
     inkscape:deskcolor="#d1d1d1"
     inkscape:document-units="mm"
     showgrid="false"
     inkscape:zoom="19.002543"
     inkscape:cx="134.482"
     inkscape:cy="203.81482"
     inkscape:window-width="1920"
     inkscape:window-height="974"
     inkscape:window-x="-11"
     inkscape:window-y="-11"
     inkscape:window-maximized="1"
     inkscape:current-layer="layer1" /><defs
     id="defs2" /><g
     inkscape:label="Layer 1"
     inkscape:groupmode="layer"
     id="layer1"><g
       id="g1710"><path
         style="display:none;fill:#a3a3a3;fill-opacity:1;stroke-width:0.0141123"
         d="m 44.805448,58.798221 c 6.77e-4,-0.01644 0.004,-0.01978 0.0085,-0.0085 0.0041,0.01019 0.0036,0.02236 -0.0011,0.02705 -0.0047,0.0047 -0.008,-0.0036 -0.0074,-0.01852 z M 34.298482,58.494667 c -0.57211,-0.03268 -2.041675,-0.08764 -2.809135,-0.105045 -0.209568,-0.0048 -0.46359,-0.01802 -0.564493,-0.02949 -0.674331,-0.07662 -1.462172,-0.09681 -2.832161,-0.07257 -0.985682,0.01744 -1.052103,0.01436 -1.457989,-0.06764 -0.216452,-0.04373 -0.421463,-0.06055 -0.860852,-0.07061 -0.307049,-0.007 -0.391247,-0.01422 -0.649168,-0.05544 -0.409391,-0.06543 -0.403128,-0.06497 -0.674762,-0.04941 -0.133397,0.0076 -0.373004,0.02011 -0.53246,0.02772 l -0.28992,0.01382 -0.204012,-0.04464 c -0.187931,-0.04112 -0.225227,-0.04471 -0.4732,-0.0455 -0.298553,-9.6e-4 -0.272017,0.0063 -0.407323,-0.11138 -0.0228,-0.01983 -0.04503,-0.03384 -0.04939,-0.03113 -0.02075,0.01289 0.05462,-1.438428 0.07654,-1.473899 0.003,-0.0048 0.0155,-0.17036 0.02786,-0.367914 0.01236,-0.197555 0.02551,-0.378242 0.02923,-0.401527 0.0037,-0.02329 0.02266,-0.216977 0.04208,-0.430426 0.01942,-0.213449 0.04457,-0.461121 0.05589,-0.550381 0.01132,-0.08926 0.02749,-0.244849 0.03594,-0.345753 0.0084,-0.100903 0.02429,-0.259666 0.03521,-0.352808 0.01092,-0.09314 0.02984,-0.286833 0.04203,-0.430426 0.02557,-0.301057 0.08324,-0.66292 0.161944,-1.016088 0.0924,-0.414646 0.211299,-0.895972 0.292832,-1.185436 0.09421,-0.334457 0.104423,-0.372737 0.17326,-0.649168 0.07591,-0.304834 0.1814,-0.852784 0.247237,-1.284222 0.04476,-0.293355 0.187996,-1.005143 0.25274,-1.255998 0.04647,-0.180052 0.157151,-0.651563 0.167291,-0.712673 0.0026,-0.01552 0.01653,-0.05045 0.03101,-0.07762 0.169258,-0.317604 0.257714,-0.537404 0.295329,-0.733842 0.0248,-0.129538 0.106816,-0.328776 0.163777,-0.39788 0.114097,-0.13842 0.330755,-0.148356 0.463267,-0.02125 0.06394,0.06133 0.08335,0.102739 0.09437,0.201281 0.0075,0.06735 0.0036,0.0984 -0.02017,0.15839 -0.02148,0.05427 -0.02956,0.106209 -0.02961,0.190516 -1.13e-4,0.17129 -0.04484,0.40422 -0.14091,0.733863 -0.103025,0.353494 -0.160275,0.601943 -0.197428,0.856781 -0.01528,0.104784 -0.0438,0.285775 -0.06339,0.402201 -0.01959,0.116427 -0.04222,0.313294 -0.05029,0.437483 -0.0234,0.359867 -0.05528,0.641902 -0.10767,0.952582 -0.07384,0.437854 -0.08867,0.539442 -0.110622,0.757862 -0.02641,0.262785 -0.06538,0.492813 -0.133392,0.787439 -0.05792,0.25089 -0.1326,0.686912 -0.148658,0.867909 -0.0052,0.05821 -0.02179,0.166172 -0.03695,0.239909 -0.01516,0.07374 -0.03406,0.168995 -0.04199,0.211685 -0.0079,0.04269 -0.02644,0.128422 -0.04113,0.190517 -0.01468,0.06209 -0.04968,0.233559 -0.07778,0.381033 -0.02809,0.147474 -0.06927,0.344341 -0.09151,0.437482 -0.02224,0.09314 -0.05059,0.225445 -0.06302,0.294007 -0.01243,0.06856 -0.03442,0.160645 -0.04888,0.204628 -0.03147,0.09573 -0.09461,0.368485 -0.11489,0.496285 -0.008,0.05045 -0.03911,0.196514 -0.06912,0.324583 -0.05396,0.230253 -0.09393,0.440674 -0.129439,0.681413 -0.01694,0.114833 -0.02092,0.124547 -0.05406,0.131716 -0.152133,0.03291 -0.258316,0.09642 -0.347971,0.208106 -0.08239,0.102638 -0.106827,0.157473 -0.114879,0.257783 -0.0066,0.08215 -0.0045,0.09014 0.03214,0.12412 0.05105,0.04732 0.09517,0.04615 0.230655,-0.0061 0.104652,-0.04036 0.202738,-0.108339 0.261881,-0.181505 0.02529,-0.03129 0.03396,-0.03297 0.134067,-0.02595 0.05887,0.0041 0.131855,0.01498 0.162201,0.02413 l 0.05517,0.01663 -0.07117,0.03892 c -0.108218,0.05918 -0.157825,0.09807 -0.200849,0.157464 -0.02156,0.02977 -0.04217,0.05116 -0.04579,0.04754 -0.0036,-0.0036 -0.007,0.0014 -0.0076,0.01106 -5.64e-4,0.0097 -0.01517,0.05574 -0.03246,0.102314 -0.01729,0.04657 -0.03452,0.129482 -0.03829,0.184248 -0.0063,0.09094 -0.0038,0.103117 0.02828,0.140417 0.02613,0.03037 0.04736,0.04072 0.08283,0.04035 0.103171,-0.0011 0.247394,-0.105849 0.346571,-0.2518 0.03911,-0.05756 0.121744,-0.25519 0.138393,-0.330991 0.0052,-0.02382 0.01152,-0.0433 0.01397,-0.0433 0.0025,0 0.09562,0.04654 0.207036,0.103432 0.209253,0.106842 0.361456,0.195882 0.448688,0.262488 0.187016,0.142796 0.208719,0.155244 0.332585,0.190756 0.153068,0.04389 0.179347,0.05381 0.326065,0.123102 0.06296,0.02974 0.142343,0.05789 0.176404,0.06256 0.05382,0.0074 0.06221,0.01318 0.06408,0.04422 0.0035,0.05869 0.03433,0.100599 0.09541,0.129859 0.07366,0.03528 0.404592,0.09636 0.61671,0.113815 0.09014,0.0074 0.172699,0.0168 0.18346,0.02085 0.04105,0.01544 1.122346,0.130075 1.550752,0.164404 0.09702,0.0078 0.255786,0.01213 0.352809,0.0097 l 0.176404,-0.0045 0.173497,-0.115964 c 0.175389,-0.11723 0.202622,-0.124122 0.182223,-0.04612 -0.004,0.01541 -0.0022,0.02801 0.0041,0.02801 0.0063,0 0.01788,0.01856 0.02579,0.04124 0.01762,0.05056 0.04754,0.06733 0.169054,0.09481 0.146099,0.03304 0.544379,0.106365 0.722519,0.133024 0.05045,0.0076 0.186989,0.02994 0.303415,0.04977 0.429825,0.07317 1.277951,0.08694 1.446515,0.02348 0.01164,-0.0044 0.03268,-0.0065 0.04676,-0.0048 0.01407,0.0018 0.03948,-0.0056 0.05645,-0.01627 0.03001,-0.01895 0.149982,-0.05995 0.165705,-0.05664 0.0043,9.03e-4 0.109093,-0.0042 0.232854,-0.01126 0.222988,-0.01279 0.404809,-0.03442 0.658227,-0.07829 0.102431,-0.01773 0.174711,-0.02052 0.328859,-0.01268 0.277146,0.01409 0.51471,0.009 0.663279,-0.01414 0.309638,-0.04828 0.638118,-0.09215 0.846741,-0.113061 0.124188,-0.01245 0.279777,-0.03465 0.345752,-0.04934 0.275784,-0.0614 0.551799,-0.130332 0.677392,-0.169172 0.07374,-0.0228 0.248377,-0.06778 0.388089,-0.09994 0.139712,-0.03216 0.40326,-0.0994 0.585662,-0.149408 0.301871,-0.08277 0.543429,-0.141832 0.811459,-0.198411 0.05433,-0.01147 0.103695,-0.02546 0.109692,-0.03109 0.006,-0.0056 0.01695,-0.09868 0.02434,-0.206782 0.0139,-0.203373 0.0289,-0.36191 0.06401,-0.676365 0.03145,-0.281749 0.06105,-0.655224 0.08333,-1.051369 0.01955,-0.347646 0.02336,-0.375437 0.112282,-0.818515 0.05063,-0.252258 0.12031,-0.563435 0.154854,-0.691505 0.131938,-0.489143 0.17807,-0.691796 0.20721,-0.910245 0.01657,-0.124189 0.04638,-0.317881 0.06624,-0.430427 0.02115,-0.119812 0.03784,-0.273748 0.04025,-0.371388 0.0023,-0.09172 0.01138,-0.188724 0.02024,-0.215572 0.01595,-0.04834 0.07748,-0.132769 0.09675,-0.132769 0.01899,0 0.06566,0.697246 0.06848,1.023145 3.38e-4,0.03881 0.0054,0.46112 0.01134,0.93847 0.01172,0.948442 -0.0085,1.975528 -0.04427,2.250917 -0.02504,0.192643 -0.05732,0.401893 -0.07575,0.490896 -0.0077,0.03714 -0.02041,0.113346 -0.02826,0.169348 -0.02386,0.170123 -0.05442,0.302089 -0.11476,0.495671 -0.03167,0.101616 -0.07584,0.245087 -0.09814,0.318824 -0.135826,0.449127 -0.170883,0.560652 -0.184858,0.588108 -0.01891,0.03715 -0.173846,0.109257 -0.329529,0.153365 -0.06209,0.01759 -0.137547,0.04256 -0.167672,0.05548 -0.03013,0.01292 -0.150787,0.04245 -0.268135,0.06561 -0.117348,0.02316 -0.254639,0.05396 -0.30509,0.06843 -0.05045,0.01447 -0.120308,0.03057 -0.155236,0.03577 -0.03493,0.0052 -0.111134,0.02116 -0.169348,0.03548 -0.155955,0.03835 -0.590921,0.107247 -0.889077,0.140827 -0.143593,0.01617 -0.336493,0.04185 -0.428666,0.05706 -0.09218,0.01521 -0.200134,0.02772 -0.23991,0.0278 -0.03978,1.41e-4 -0.154174,0.01278 -0.254217,0.02822 -0.100043,0.01544 -0.188951,0.02713 -0.197572,0.02598 -0.0086,-0.0011 -0.104234,-0.0072 -0.21247,-0.01333 z m -9.898167,-0.875574 c 0.09935,-0.07021 0.164028,-0.213827 0.147824,-0.328256 -0.0246,-0.173714 -0.05645,-0.234314 -0.123144,-0.234314 -0.03147,0 -0.129576,0.04812 -0.192601,0.09447 -0.138682,0.101984 -0.171636,0.324506 -0.06546,0.442028 0.06856,0.07589 0.150006,0.08499 0.233383,0.02607 z m 20.041472,0.460574 c 1.41e-4,-0.04657 0.0027,-0.06392 0.0059,-0.03856 0.0031,0.02537 0.0031,0.06347 -1.41e-4,0.08467 -0.0032,0.02121 -0.0058,4.52e-4 -0.0057,-0.04612 z m 0.405998,-0.339871 c 6.77e-4,-0.01644 0.004,-0.01978 0.0085,-0.0085 0.0041,0.01019 0.0036,0.02236 -0.0011,0.02705 -0.0047,0.0047 -0.008,-0.0036 -0.0074,-0.01852 z m -16.3555,-0.05251 c -0.0016,-0.0093 -0.0057,-0.144778 -0.0091,-0.301101 -0.0071,-0.325522 -0.0062,-0.328792 0.117645,-0.390799 0.03634,-0.0182 0.108597,-0.05635 0.16056,-0.08477 0.119383,-0.06529 0.137187,-0.06594 0.04684,-0.0017 -0.08388,0.05964 -0.09813,0.08143 -0.07792,0.119197 0.02135,0.03988 0.04629,0.03627 0.190617,-0.02764 0.141816,-0.0628 0.378287,-0.156031 0.383223,-0.151096 0.008,0.008 -0.199562,0.12247 -0.221964,0.12247 -0.03567,0 -0.076,0.04586 -0.115572,0.131392 -0.02731,0.05904 -0.05203,0.204898 -0.05246,0.309619 -2.25e-4,0.05459 -0.0049,0.06703 -0.02523,0.06703 -0.01372,0 -0.04728,0.01518 -0.07458,0.03372 -0.04548,0.0309 -0.243577,0.150109 -0.29671,0.178544 -0.01449,0.0078 -0.02346,0.006 -0.02533,-0.0049 z m 17.254048,-0.06151 c 0.0097,-0.0039 0.02558,-0.0039 0.03528,0 0.0097,0.0039 0.0018,0.0071 -0.01764,0.0071 -0.0194,0 -0.02734,-0.0032 -0.01764,-0.0071 z M 29.117497,57.513287 c 0.02048,-0.05208 0.02512,-0.169579 0.01043,-0.263977 -0.0085,-0.05457 -0.0099,-0.109633 -0.0032,-0.127262 0.01097,-0.02886 0.11158,-0.0754 0.43825,-0.202722 l 0.04939,-0.01925 -0.03528,0.02808 c -0.0194,0.01545 -0.08769,0.05729 -0.151754,0.09299 -0.138451,0.07715 -0.160826,0.111853 -0.186303,0.28893 -0.01768,0.122858 -0.04706,0.184125 -0.102547,0.213822 -0.02577,0.01379 -0.02811,0.01248 -0.01902,-0.01061 z m 0.689492,-0.704931 c 0.105652,-0.05499 0.149839,-0.157186 0.107828,-0.249389 -0.02206,-0.04841 -0.0637,-0.06908 -0.156051,-0.07746 -0.103433,-0.0094 -0.215384,0.02504 -0.447693,0.137655 l -0.168349,0.08161 0.0069,-0.05153 c 0.01297,-0.09667 -0.02124,-0.108261 -0.416754,-0.141303 -0.212189,-0.01773 -0.469475,-0.103919 -0.819566,-0.274559 -0.37354,-0.182072 -0.414441,-0.230174 -0.422046,-0.496362 l -0.0044,-0.155236 0.215086,-0.112898 c 0.118298,-0.06209 0.298077,-0.146431 0.399506,-0.187414 0.101431,-0.04098 0.212998,-0.0879 0.247926,-0.104269 0.112452,-0.05268 0.242376,-0.110519 0.248281,-0.110519 0.01243,0 0.0042,0.140893 -0.01572,0.268134 -0.01153,0.07374 -0.02445,0.249231 -0.02871,0.389988 l -0.0078,0.255918 0.07407,0.03691 c 0.04074,0.0203 0.09346,0.03704 0.117165,0.03719 0.0237,1.56e-4 0.0939,0.0095 0.155994,0.02068 0.06209,0.01122 0.160527,0.02075 0.218741,0.02117 0.05821,4.24e-4 0.150296,0.0073 0.204629,0.01523 0.05433,0.008 0.219446,0.02076 0.36692,0.02846 0.147474,0.0077 0.341166,0.02019 0.430426,0.02776 0.08926,0.0076 0.327407,0.01757 0.529213,0.02223 l 0.366921,0.0085 0.127011,-0.03821 c 0.522351,-0.157144 0.895927,-0.288109 1.248941,-0.437842 0.217014,-0.09205 0.225798,-0.09753 0.225798,-0.140994 0,-0.06919 -0.02835,-0.06907 -0.22814,10e-4 -0.309367,0.108499 -0.492552,0.165246 -0.85851,0.265949 -0.520655,0.143271 -0.489649,0.13774 -0.762066,0.135935 -0.135831,-9.03e-4 -0.29777,-0.0077 -0.359865,-0.01502 -0.191846,-0.02275 -0.483058,-0.04268 -0.733841,-0.05023 -0.13195,-0.004 -0.249436,-0.01057 -0.261078,-0.01466 -0.01164,-0.0041 -0.135479,-0.0137 -0.275191,-0.02136 -0.139712,-0.0077 -0.288344,-0.01742 -0.330293,-0.02169 l -0.07627,-0.0078 0.01144,-0.361882 c 0.02059,-0.651567 0.01949,-0.73666 -0.0098,-0.754928 -0.01405,-0.0088 -0.02554,-0.0322 -0.02554,-0.05207 0,-0.01987 -0.0076,-0.04374 -0.01694,-0.05305 -0.02313,-0.02313 -1.41e-4,-0.02223 0.122783,0.0048 0.154911,0.03406 0.260521,0.04827 0.359859,0.04843 0.05045,1.41e-4 0.15206,0.0064 0.225797,0.01404 0.07374,0.0076 0.235576,0.02095 0.359643,0.02958 0.124066,0.0086 0.28283,0.02449 0.352809,0.03525 0.138258,0.02125 0.413622,0.05241 0.671384,0.07598 0.08971,0.0082 0.270706,0.01501 0.402202,0.01513 0.235951,2.12e-4 0.863253,0.04468 0.972924,0.06896 0.03105,0.0069 0.09773,0.02944 0.148179,0.05014 0.05045,0.0207 0.120308,0.0471 0.155236,0.05866 0.03493,0.01156 0.07621,0.02626 0.09173,0.03267 0.01552,0.0064 0.04728,0.01948 0.07056,0.02906 0.07472,0.03074 0.280628,0.09635 0.332544,0.105957 0.05744,0.01062 0.08897,-0.014 0.08132,-0.06352 -0.0036,-0.02334 -0.03549,-0.04225 -0.145735,-0.08642 -0.07762,-0.0311 -0.187407,-0.07833 -0.243977,-0.104964 -0.05657,-0.02663 -0.106455,-0.04842 -0.110856,-0.04842 -0.0044,0 -0.0734,-0.03178 -0.15332,-0.07061 -0.103511,-0.0503 -0.179202,-0.07646 -0.263118,-0.09095 -0.30972,-0.05346 -0.654052,-0.08813 -1.056276,-0.106371 -0.292653,-0.01327 -0.828624,-0.05973 -0.888516,-0.07702 -0.05287,-0.01526 -0.514864,-0.03694 -0.804964,-0.03777 -0.20233,-5.78e-4 -0.368726,-0.0085 -0.458651,-0.02176 -0.176099,-0.02602 -0.4371,-0.02852 -0.466088,-0.0045 -0.01143,0.0095 -0.02079,0.02839 -0.02079,0.04201 0,0.03121 -0.05949,0.02672 -0.310471,-0.02343 -0.362463,-0.07242 -0.893024,-0.236703 -1.517076,-0.469753 -0.108665,-0.04058 -0.203923,-0.07864 -0.211685,-0.08457 -0.0078,-0.0059 -0.07444,-0.03514 -0.148179,-0.0649 -0.07374,-0.02976 -0.149944,-0.06482 -0.169348,-0.0779 -0.0194,-0.01308 -0.06862,-0.04058 -0.109371,-0.06111 -0.04075,-0.02053 -0.07405,-0.04516 -0.07399,-0.05473 1.41e-4,-0.02599 0.08431,-0.07755 0.144454,-0.08851 0.04588,-0.0084 0.05921,-0.004 0.101475,0.0331 0.07692,0.06754 0.212635,0.141244 0.303347,0.16475 0.117923,0.03056 0.289701,0.04839 0.614896,0.06385 0.155235,0.0074 0.339401,0.01952 0.409257,0.02699 0.06986,0.0075 0.22862,0.02062 0.352809,0.02923 0.124188,0.0086 0.394087,0.03116 0.599774,0.05011 0.205687,0.01896 0.462241,0.04108 0.57012,0.04917 0.107877,0.0081 0.200559,0.01743 0.205957,0.02076 0.0054,0.0033 0.199732,0.01905 0.431856,0.03491 0.232122,0.01587 0.469671,0.03485 0.527884,0.04219 0.139955,0.01764 0.266799,0.02737 0.564493,0.0433 0.135832,0.0073 0.332699,0.01931 0.437483,0.02676 0.40765,0.02897 1.048333,0.04561 1.169655,0.03037 0.134748,-0.01692 0.169545,-0.0068 0.335455,0.09803 0.04889,0.03088 0.09458,0.05614 0.10154,0.05614 0.007,0 0.06268,-0.03257 0.123828,-0.07237 0.06115,-0.0398 0.100068,-0.05994 0.08648,-0.04476 -0.03164,0.03538 -0.0311,0.05051 0.0029,0.0813 0.02646,0.02395 0.0294,0.02389 0.06964,-0.0013 0.02311,-0.01449 0.0692,-0.04857 0.102435,-0.07574 l 0.06042,-0.04939 -0.04558,0.06633 c -0.04013,0.05839 -0.126802,0.142486 -0.263466,0.255622 l -0.04187,0.03466 0.07009,0.04473 c 0.03855,0.0246 0.162059,0.09678 0.274467,0.160391 0.153213,0.08671 0.224699,0.13675 0.28556,0.199897 0.08969,0.09306 0.08864,0.09723 -0.02833,0.112056 -0.109076,0.01383 -0.144083,0.03334 -0.144083,0.08033 0,0.02158 0.0066,0.04333 0.0147,0.04832 0.0081,0.005 -0.0237,0.03236 -0.07064,0.06081 -0.113949,0.06907 -0.153488,0.1087 -0.212194,0.212656 -0.08404,0.148823 -0.208289,0.302696 -0.418286,0.51803 -0.115993,0.118942 -0.167335,0.159197 -0.3085,0.241881 -0.168315,0.09859 -0.326717,0.166941 -0.529212,0.228362 -0.05821,0.01766 -0.162998,0.05026 -0.232854,0.07246 -0.06986,0.02219 -0.18099,0.0538 -0.246965,0.07022 -0.06598,0.01643 -0.192987,0.05088 -0.282247,0.07655 -0.150744,0.04336 -0.304783,0.07903 -0.42337,0.09804 -0.0939,0.01505 -0.614313,0.0504 -0.733842,0.04984 l -0.119954,-5.5e-4 0.06757,-0.03517 z m -9.010381,-1.454953 c 0.01019,-0.0041 0.02236,-0.0036 0.02705,0.0011 0.0047,0.0047 -0.0036,0.008 -0.01852,0.0074 -0.01644,-6.77e-4 -0.01978,-0.004 -0.0085,-0.0085 z m 0.296359,-0.01411 c 0.01019,-0.0041 0.02236,-0.0036 0.02705,0.0011 0.0047,0.0047 -0.0036,0.008 -0.01852,0.0074 -0.01644,-6.78e-4 -0.01978,-0.004 -0.0085,-0.0085 z m 12.489416,-0.155236 c 0.01019,-0.0041 0.02236,-0.0036 0.02705,0.0011 0.0047,0.0047 -0.0036,0.008 -0.01852,0.0074 -0.01644,-6.77e-4 -0.01978,-0.004 -0.0085,-0.0085 z m 5.818041,-0.379625 c 6.77e-4,-0.01644 0.004,-0.01978 0.0085,-0.0085 0.0041,0.01019 0.0036,0.02236 -0.0011,0.02705 -0.0047,0.0047 -0.008,-0.0036 -0.0074,-0.01852 z M 25.981755,52.62525 c 0,-0.02717 0.0029,-0.03828 0.0065,-0.0247 0.0036,0.01358 0.0036,0.03581 0,0.04939 -0.0035,0.01358 -0.0065,0.0025 -0.0065,-0.0247 z m 0.0144,-0.303415 c 1.55e-4,-0.03105 0.003,-0.04209 0.0064,-0.02453 0.0034,0.01755 0.0032,0.04296 -2.83e-4,0.05645 -0.0035,0.01349 -0.0063,-8.75e-4 -0.0061,-0.03192 z M 25.67076,51.587994 c 2.88e-4,-0.02329 0.0035,-0.0311 0.007,-0.01737 0.0036,0.01373 0.0033,0.03278 -5.24e-4,0.04234 -0.0039,0.0096 -0.0068,-0.0017 -0.0065,-0.02496 z m 7.90343,-0.162292 c 0,-0.02717 0.0029,-0.03828 0.0065,-0.0247 0.0036,0.01358 0.0036,0.03581 0,0.04939 -0.0035,0.01358 -0.0065,0.0025 -0.0065,-0.0247 z m -4.451305,-0.221325 c 0.01019,-0.0041 0.02236,-0.0036 0.02705,0.0011 0.0047,0.0047 -0.0036,0.008 -0.01852,0.0074 -0.01644,-6.78e-4 -0.01978,-0.004 -0.0085,-0.0085 z m 4.676057,-0.329056 c 0,-0.0194 0.0032,-0.02734 0.0071,-0.01764 0.0039,0.0097 0.0039,0.02558 0,0.03528 -0.0039,0.0097 -0.0071,0.0018 -0.0071,-0.01764 z m -8.073369,-0.248142 c 6.77e-4,-0.01644 0.004,-0.01978 0.0085,-0.0085 0.0041,0.01019 0.0036,0.02236 -0.0011,0.02705 -0.0047,0.0047 -0.008,-0.0036 -0.0074,-0.01852 z M 51.963132,50.5084 c 0,-0.03493 0.0028,-0.04922 0.0061,-0.03175 0.0034,0.01746 0.0034,0.04604 0,0.06351 -0.0034,0.01746 -0.0061,0.0032 -0.0061,-0.03175 z M 33.642591,50.47194 c 6.78e-4,-0.01644 0.004,-0.01978 0.0085,-0.0085 0.0041,0.01019 0.0036,0.02236 -0.0011,0.02705 -0.0047,0.0047 -0.008,-0.0036 -0.0074,-0.01852 z m 0.170463,-0.415139 c 0,-0.0194 0.0032,-0.02734 0.0071,-0.01764 0.0039,0.0097 0.0039,0.02558 0,0.03528 -0.0039,0.0097 -0.0071,0.0018 -0.0071,-0.01764 z m -0.0011,-0.290478 c 6.78e-4,-0.01644 0.004,-0.01978 0.0085,-0.0085 0.0041,0.01019 0.0036,0.02236 -0.0011,0.02705 -0.0047,0.0047 -0.008,-0.0036 -0.0074,-0.01852 z m -0.110453,-0.125835 c 1.56e-4,-0.03105 0.003,-0.04209 0.0064,-0.02453 0.0034,0.01755 0.0032,0.04296 -2.82e-4,0.05645 -0.0035,0.01349 -0.0063,-8.75e-4 -0.0061,-0.03192 z m 4.933112,-0.0167 c 0.01019,-0.0041 0.02236,-0.0036 0.02705,0.0011 0.0047,0.0047 -0.0036,0.008 -0.01852,0.0074 -0.01644,-6.77e-4 -0.01978,-0.004 -0.0085,-0.0085 z M 33.221682,49.18889 c 1.55e-4,-0.03105 0.003,-0.04209 0.0064,-0.02453 0.0034,0.01756 0.0032,0.04296 -2.83e-4,0.05645 -0.0035,0.01349 -0.0063,-8.75e-4 -0.0061,-0.03192 z m 18.682285,-1.440634 c 6.77e-4,-0.01644 0.004,-0.01978 0.0085,-0.0085 0.0041,0.01019 0.0036,0.02236 -0.0011,0.02705 -0.0047,0.0047 -0.008,-0.0036 -0.0074,-0.01852 z M 34.683145,46.886002 c 0.01019,-0.0041 0.02236,-0.0036 0.02705,0.0011 0.0047,0.0047 -0.0036,0.008 -0.01852,0.0074 -0.01644,-6.77e-4 -0.01978,-0.004 -0.0085,-0.0085 z m 0.762066,0 c 0.01019,-0.0041 0.02236,-0.0036 0.02705,0.0011 0.0047,0.0047 -0.0036,0.008 -0.01852,0.0074 -0.01644,-6.77e-4 -0.01978,-0.004 -0.0085,-0.0085 z m -1.792984,-0.01445 c 0.01755,-0.0034 0.04296,-0.0032 0.05645,2.82e-4 0.01349,0.0035 -8.75e-4,0.0063 -0.03192,0.0061 -0.03105,-1.55e-4 -0.04209,-0.003 -0.02453,-0.0064 z m 0.508761,3.38e-4 c 0.01019,-0.0041 0.02236,-0.0036 0.02705,0.0011 0.0047,0.0047 -0.0036,0.008 -0.01852,0.0074 -0.01644,-6.77e-4 -0.01978,-0.004 -0.0085,-0.0085 z m 1.707593,0 c 0.01019,-0.0041 0.02236,-0.0036 0.02705,0.0011 0.0047,0.0047 -0.0036,0.008 -0.01852,0.0074 -0.01644,-6.77e-4 -0.01978,-0.004 -0.0085,-0.0085 z m -3.048264,-0.01411 c 0.01019,-0.0041 0.02236,-0.0036 0.02705,0.0011 0.0047,0.0047 -0.0036,0.008 -0.01852,0.0074 -0.01644,-6.77e-4 -0.01978,-0.004 -0.0085,-0.0085 z m 3.711543,-0.02822 c 0.01019,-0.0041 0.02236,-0.0036 0.02705,0.0011 0.0047,0.0047 -0.0036,0.008 -0.01852,0.0074 -0.01644,-6.77e-4 -0.01978,-0.004 -0.0085,-0.0085 z m -9.625494,-0.02793 c 0.0097,-0.0039 0.02558,-0.0039 0.03528,0 0.0097,0.0039 0.0018,0.0071 -0.01764,0.0071 -0.0194,0 -0.02734,-0.0032 -0.01764,-0.0071 z m 3.049147,-0.09908 c 0.01019,-0.0041 0.02236,-0.0036 0.02705,0.0011 0.0047,0.0047 -0.0036,0.008 -0.01852,0.0074 -0.01644,-6.77e-4 -0.01978,-0.004 -0.0085,-0.0085 z m 5.615827,-0.05616 c 0.0097,-0.0039 0.02558,-0.0039 0.03528,0 0.0097,0.0039 0.0018,0.0071 -0.01764,0.0071 -0.0194,0 -0.02734,-0.0032 -0.01764,-0.0071 z m -0.436601,-0.01441 c 0.01019,-0.0041 0.02236,-0.0036 0.02705,0.0011 0.0047,0.0047 -0.0036,0.008 -0.01852,0.0074 -0.01644,-6.78e-4 -0.01978,-0.004 -0.0085,-0.0085 z m -1.044312,-0.08467 c 0.01019,-0.0041 0.02236,-0.0036 0.02705,0.0011 0.0047,0.0047 -0.0036,0.008 -0.01852,0.0074 -0.01644,-6.78e-4 -0.01978,-0.004 -0.0085,-0.0085 z m -5.801052,-0.02793 c 0.0097,-0.0039 0.02558,-0.0039 0.03528,0 0.0097,0.0039 0.0018,0.0071 -0.01764,0.0071 -0.01941,0 -0.02734,-0.0032 -0.01764,-0.0071 z m 4.573279,-0.04263 c 0.01019,-0.0041 0.02236,-0.0036 0.02705,0.0011 0.0047,0.0047 -0.0036,0.008 -0.01852,0.0074 -0.01644,-6.77e-4 -0.01978,-0.004 -0.0085,-0.0085 z M 32.044138,46.4203 c 0.01019,-0.0041 0.02236,-0.0036 0.02705,0.0011 0.0047,0.0047 -0.0036,0.008 -0.01852,0.0074 -0.01644,-6.78e-4 -0.01978,-0.004 -0.0085,-0.0085 z m -4.946987,-0.01425 c 0.01373,-0.0036 0.03278,-0.0033 0.04234,5.23e-4 0.0096,0.0039 -0.0017,0.0068 -0.02497,0.0065 -0.02328,-2.82e-4 -0.0311,-0.0035 -0.01737,-0.007 z m 4.707077,1.42e-4 c 0.01019,-0.0041 0.02236,-0.0036 0.02705,0.0011 0.0047,0.0047 -0.0036,0.008 -0.01852,0.0074 -0.01644,-6.78e-4 -0.01978,-0.004 -0.0085,-0.0085 z m -5.602596,-0.01411 c 0.01019,-0.0041 0.02236,-0.0036 0.02705,0.0011 0.0047,0.0047 -0.0036,0.008 -0.01852,0.0074 -0.01644,-6.77e-4 -0.01978,-0.004 -0.0085,-0.0085 z m 0.387475,-1.41e-4 c 0.01373,-0.0036 0.03278,-0.0033 0.04234,5.22e-4 0.0096,0.0039 -0.0017,0.0068 -0.02496,0.0065 -0.02329,-2.82e-4 -0.0311,-0.0035 -0.01737,-0.007 z m 8.629424,-0.02779 c 0.0097,-0.0039 0.02558,-0.0039 0.03528,0 0.0097,0.0039 0.0018,0.0071 -0.01764,0.0071 -0.01941,0 -0.02734,-0.0032 -0.01764,-0.0071 z m 0.551263,-2.97e-4 c 0.01019,-0.0041 0.02236,-0.0036 0.02705,0.0011 0.0047,0.0047 -0.0036,0.008 -0.01852,0.0074 -0.01644,-6.77e-4 -0.01978,-0.004 -0.0085,-0.0085 z m -1.1087,-0.0142 c 0.01358,-0.0036 0.03581,-0.0036 0.04939,0 0.01358,0.0035 0.0025,0.0065 -0.0247,0.0065 -0.02717,0 -0.03828,-0.0029 -0.0247,-0.0065 z m -3.725388,-0.04239 c 0.01373,-0.0036 0.03278,-0.0033 0.04234,5.22e-4 0.0096,0.0039 -0.0017,0.0068 -0.02496,0.0065 -0.02329,-2.82e-4 -0.0311,-0.0035 -0.01737,-0.007 z m -0.092,-0.08424 c 0.0097,-0.0039 0.02558,-0.0039 0.03528,0 0.0097,0.0039 0.0018,0.0071 -0.01764,0.0071 -0.0194,0 -0.02734,-0.0032 -0.01764,-0.0071 z m -5.375918,-0.02852 c 0.01019,-0.0041 0.02236,-0.0036 0.02705,0.0011 0.0047,0.0047 -0.0036,0.008 -0.01852,0.0074 -0.01644,-6.77e-4 -0.01978,-0.004 -0.0085,-0.0085 z m 3.584533,-0.01411 c 0.01019,-0.0041 0.02236,-0.0036 0.02705,0.0011 0.0047,0.0047 -0.0036,0.008 -0.01852,0.0074 -0.01644,-6.77e-4 -0.01978,-0.004 -0.0085,-0.0085 z m -0.239909,-0.01411 c 0.01019,-0.0041 0.02236,-0.0036 0.02705,0.0011 0.0047,0.0047 -0.0036,0.008 -0.01852,0.0074 -0.01644,-6.78e-4 -0.01978,-0.004 -0.0085,-0.0085 z m -2.300311,-0.05645 c 0.01019,-0.0041 0.02236,-0.0036 0.02705,0.0011 0.0047,0.0047 -0.0036,0.008 -0.01852,0.0074 -0.01644,-6.77e-4 -0.01978,-0.004 -0.0085,-0.0085 z m 0.42337,-0.01411 c 0.01019,-0.0041 0.02236,-0.0036 0.02705,0.0011 0.0047,0.0047 -0.0036,0.008 -0.01852,0.0074 -0.01644,-6.77e-4 -0.01978,-0.004 -0.0085,-0.0085 z m 1.51002,-0.127011 c 0.01019,-0.0041 0.02236,-0.0036 0.02705,0.0011 0.0047,0.0047 -0.0036,0.008 -0.01852,0.0074 -0.01644,-6.77e-4 -0.01978,-0.004 -0.0085,-0.0085 z M 27.82455,45.94047 c 0.01019,-0.0041 0.02236,-0.0036 0.02705,0.0011 0.0047,0.0047 -0.0036,0.008 -0.01852,0.0074 -0.01644,-6.77e-4 -0.01978,-0.004 -0.0085,-0.0085 z m -1.072537,-0.05645 c 0.01019,-0.0041 0.02236,-0.0036 0.02705,0.0011 0.0047,0.0047 -0.0036,0.008 -0.01852,0.0074 -0.01644,-6.77e-4 -0.01978,-0.004 -0.0085,-0.0085 z m 13.843318,-1.567156 c 0.03299,-0.003 0.08697,-0.003 0.119954,0 0.03299,0.003 0.006,0.0054 -0.05998,0.0054 -0.06597,0 -0.09296,-0.0024 -0.05998,-0.0054 z M 52.294456,41.41071 c 0.0097,-0.0039 0.02558,-0.0039 0.03528,0 0.0097,0.0039 0.0018,0.0071 -0.01764,0.0071 -0.0194,0 -0.02734,-0.0032 -0.01764,-0.0071 z M 29.194292,40.915541 c -0.01755,-0.02238 -0.01705,-0.02288 0.0053,-0.0053 0.01358,0.01065 0.0247,0.02177 0.0247,0.0247 0,0.01162 -0.01159,0.0041 -0.03002,-0.01937 z m -3.47689,-2.317951 c 0.01405,-0.01552 0.02872,-0.02822 0.0326,-0.02822 0.0039,0 -0.0044,0.0127 -0.01849,0.02822 -0.01405,0.01552 -0.02872,0.02823 -0.0326,0.02823 -0.0039,0 0.0044,-0.0127 0.01849,-0.02823 z m -3.150547,-0.867909 c 1.56e-4,-0.03105 0.003,-0.04209 0.0064,-0.02453 0.0034,0.01755 0.0032,0.04296 -2.85e-4,0.05645 -0.0035,0.01349 -0.0063,-8.75e-4 -0.0061,-0.03192 z m 31.924256,-2.663703 -0.02688,-0.03175 0.03175,0.02688 c 0.02984,0.02526 0.03818,0.03662 0.02688,0.03662 -0.0027,0 -0.01697,-0.01429 -0.03175,-0.03175 z M 27.914099,28.676619 c 0,-0.0194 0.0032,-0.02734 0.0071,-0.01764 0.0039,0.0097 0.0039,0.02558 0,0.03528 -0.0039,0.0097 -0.0071,0.0018 -0.0071,-0.01764 z m -7.238012,-0.268134 c 0,-0.03493 0.0028,-0.04922 0.0061,-0.03175 0.0034,0.01746 0.0034,0.04604 0,0.0635 -0.0034,0.01746 -0.0061,0.0032 -0.0061,-0.03175 z m 1.0302,-0.338696 c 0,-0.03493 0.0028,-0.04922 0.0061,-0.03175 0.0034,0.01746 0.0034,0.04604 0,0.0635 -0.0034,0.01746 -0.0061,0.0032 -0.0061,-0.03175 z m 9.237089,0.0045 c 0.01019,-0.0041 0.02236,-0.0036 0.02705,0.0011 0.0047,0.0047 -0.0036,0.008 -0.01852,0.0074 -0.01644,-6.77e-4 -0.01978,-0.004 -0.0085,-0.0085 z m 19.606907,-1.895525 c 0,-0.0194 0.0032,-0.02734 0.0071,-0.01764 0.0039,0.0097 0.0039,0.02558 0,0.03528 -0.0039,0.0097 -0.0071,0.0018 -0.0071,-0.01764 z m -0.0011,-0.135243 c 6.77e-4,-0.01644 0.004,-0.01978 0.0085,-0.0085 0.0041,0.01019 0.0036,0.02236 -0.0011,0.02705 -0.0047,0.0047 -0.008,-0.0036 -0.0074,-0.01852 z m 1.181676,0.0127 c 0.01019,-0.0041 0.02236,-0.0036 0.02705,0.0011 0.0047,0.0047 -0.0036,0.008 -0.01852,0.0074 -0.01644,-6.77e-4 -0.01978,-0.004 -0.0085,-0.0085 z m 0.47982,-0.01411 c 0.01019,-0.0041 0.02236,-0.0036 0.02705,0.0011 0.0047,0.0047 -0.0036,0.008 -0.01852,0.0074 -0.01644,-6.78e-4 -0.01978,-0.004 -0.0085,-0.0085 z m -0.474945,-0.639527 c 0,-0.0194 0.0032,-0.02734 0.0071,-0.01764 0.0039,0.0097 0.0039,0.02558 0,0.03528 -0.0039,0.0097 -0.0071,0.0018 -0.0071,-0.01764 z m -20.89986,-1.248968 c 2.82e-4,-0.02328 0.0035,-0.0311 0.007,-0.01737 0.0036,0.01373 0.0033,0.03278 -5.22e-4,0.04234 -0.0039,0.0096 -0.0068,-0.0017 -0.0065,-0.02497 z m 20.421593,-0.355532 c 0.01373,-0.0036 0.03278,-0.0033 0.04234,5.24e-4 0.0096,0.0039 -0.0017,0.0068 -0.02496,0.0065 -0.02329,-2.88e-4 -0.0311,-0.0034 -0.01737,-0.007 z m -20.437342,-0.0549 c 6.77e-4,-0.01644 0.004,-0.01978 0.0085,-0.0085 0.0041,0.01019 0.0036,0.02236 -0.0011,0.02705 -0.0047,0.0047 -0.008,-0.0036 -0.0074,-0.01852 z m 21.221191,-6.295509 c 0.01019,-0.0041 0.02236,-0.0036 0.02705,0.0011 0.0047,0.0047 -0.0036,0.008 -0.01852,0.0074 -0.01644,-6.78e-4 -0.01978,-0.004 -0.0085,-0.0085 z m -1.32656,-0.04234 c 0.01019,-0.0041 0.02236,-0.0036 0.02705,0.0011 0.0047,0.0047 -0.0036,0.008 -0.01852,0.0074 -0.01644,-6.78e-4 -0.01978,-0.004 -0.0085,-0.0085 z M 28.050348,16.078777 c 0.01019,-0.0041 0.02236,-0.0036 0.02705,0.0011 0.0047,0.0047 -0.0036,0.008 -0.01852,0.0074 -0.01644,-6.77e-4 -0.01978,-0.004 -0.0085,-0.0085 z m 2.715742,-0.691972 c 0.02135,-0.0032 0.05627,-0.0032 0.07762,0 0.02135,0.0032 0.0039,0.0059 -0.03881,0.0059 -0.04269,0 -0.06015,-0.0026 -0.03881,-0.0059 z m 0.649361,-1.4e-5 c 0.02145,-0.0032 0.0532,-0.0032 0.07056,1.91e-4 0.01736,0.0034 -1.97e-4,0.006 -0.039,0.0059 -0.03881,-1.13e-4 -0.05301,-0.0028 -0.03156,-0.0061 z m -0.86722,-0.01363 c 0.01019,-0.0041 0.02236,-0.0036 0.02705,0.0011 0.0047,0.0047 -0.0036,0.008 -0.01852,0.0074 -0.01644,-6.77e-4 -0.01978,-0.004 -0.0085,-0.0085 z m 1.403563,-1.41e-4 c 0.01373,-0.0036 0.03278,-0.0033 0.04234,5.23e-4 0.0096,0.0039 -0.0017,0.0068 -0.02496,0.0065 -0.02329,-2.88e-4 -0.0311,-0.0035 -0.01737,-0.007 z m 0.274922,4.33e-4 c 0.0097,-0.0039 0.02558,-0.0039 0.03528,0 0.0097,0.0039 0.0018,0.0071 -0.01764,0.0071 -0.0194,0 -0.02734,-0.0032 -0.01764,-0.0071 z m 0.649168,-0.01411 c 0.0097,-0.0039 0.02558,-0.0039 0.03528,0 0.0097,0.0039 0.0018,0.0071 -0.01764,0.0071 -0.0194,0 -0.02734,-0.0032 -0.01764,-0.0071 z m 0.254904,-0.01441 c 0.01019,-0.0041 0.02236,-0.0036 0.02705,0.0011 0.0047,0.0047 -0.0036,0.008 -0.01852,0.0074 -0.01644,-6.78e-4 -0.01979,-0.004 -0.0085,-0.0085 z m 0.719729,-0.04234 c 0.01019,-0.0041 0.02236,-0.0036 0.02705,0.0011 0.0047,0.0047 -0.0036,0.008 -0.01852,0.0074 -0.01644,-6.78e-4 -0.01978,-0.004 -0.0085,-0.0085 z m 2.173299,-0.155236 c 0.01019,-0.0041 0.02236,-0.0036 0.02705,0.0011 0.0047,0.0047 -0.0036,0.008 -0.01852,0.0074 -0.01644,-6.77e-4 -0.01978,-0.004 -0.0085,-0.0085 z m 1.498554,-0.844158 c 0.02633,-0.02717 0.05105,-0.04939 0.05493,-0.04939 0.0039,0 -0.01449,0.02223 -0.04082,0.04939 -0.02633,0.02717 -0.05105,0.04939 -0.05493,0.04939 -0.0039,0 0.01449,-0.02223 0.04082,-0.04939 z m -4.37747,-0.0167 c 0.01019,-0.0041 0.02236,-0.0036 0.02705,0.0011 0.0047,0.0047 -0.0036,0.008 -0.01852,0.0074 -0.01644,-6.78e-4 -0.01978,-0.004 -0.0085,-0.0085 z m 6.881069,-0.967639 -0.02688,-0.03175 0.03175,0.02688 c 0.02984,0.02526 0.03818,0.03662 0.02688,0.03662 -0.0027,0 -0.01697,-0.01429 -0.03175,-0.03175 z"
         id="path1722" /><path
         style="display:inline;fill:none;fill-opacity:1;stroke:#000000;stroke-width:0.114;stroke-dasharray:none;stroke-opacity:1"
         d="m 30.917797,59.404062 c -2.105153,-0.100492 -4.242577,-0.03476 -6.263698,-0.605145 -0.880848,-0.02 -1.733416,-0.19616 -2.575905,-0.40222 -0.38354,-0.994706 -0.226012,-2.178882 -0.305196,-3.216901 -0.81554,0.413769 -1.737601,0.146239 -2.38863,-0.409444 -1.041668,-0.628829 -1.320463,-1.919585 -1.47082,-3.062349 -0.217115,-1.612625 0.325683,-3.238249 1.03457,-4.646521 0.10814,-0.137813 0.467328,-0.751003 0.556602,-0.795065 0.379398,-0.579784 1.222133,-1.329627 1.894298,-1.657447 1.006584,-0.51264 2.294328,-1.020718 3.388841,-0.453778 0.335574,0.294881 0.871934,0.610684 0.864763,1.061817 0.691121,0.09463 0.164912,-0.736654 -0.07385,-0.957578 -1.19091,-1.101932 -3.086639,-0.698741 -4.345344,0.01431 -0.481238,0.277225 -1.047559,0.529222 -1.424276,0.864604 -0.4333,0.104387 -0.450507,1.078845 -0.94111,0.545095 0.359718,-2.416088 2.284545,-3.83773 3.384895,-5.75309 0.335109,-0.482553 0.528555,-1.257472 0.326742,-1.916458 -0.08754,-1.187477 0.399948,-2.292791 1.001103,-3.163152 0.478679,-0.324843 0.157909,-0.637415 -0.128258,-0.901632 -0.584027,-0.807226 -1.124166,-1.471018 -1.563762,-2.3057 -0.560354,-0.783217 -0.776433,-1.613908 -1.12556,-2.481296 -0.408062,-2.662528 0.678973,-5.142477 1.833749,-7.437144 0.402328,-0.750009 0.624769,-1.665601 1.127539,-2.32428 0.177395,-0.593952 0.687074,-1.081622 0.868853,-1.56802 -0.367901,-1.458564 -0.0731,-3.019756 0.264996,-4.4538 0.464409,-0.777798 1.297088,-1.573333 2.309065,-1.145025 0.659415,0.296153 1.007852,0.552743 1.486585,1.028561 0.502566,0.329336 0.939219,0.866015 1.258944,1.346798 0.404314,0.38645 1.326993,-0.197266 1.826344,-0.17281 1.602598,-0.268087 3.306416,-0.135694 4.861878,0.16097 0.397609,-0.827194 0.99193,-1.677562 1.845202,-2.195535 0.794086,-0.484511 2.04759,-0.681303 2.884173,-0.05864 0.964351,0.289768 1.236398,1.329623 1.475879,2.198515 0.186268,0.641054 0.107865,1.344036 0.75187,1.715414 0.698264,0.514984 1.311147,1.457945 1.820977,2.017425 0.399838,0.385509 0.709494,0.907352 0.962759,1.293063 0.23242,0.221019 0.341866,0.466668 0.60258,0.737394 0.319352,0.447473 0.332424,0.558822 0.6661,1.019546 1.137374,1.524731 1.932794,3.388755 1.763724,5.345446 -0.03672,1.260604 -0.161764,2.368326 -0.282786,3.601718 -0.589249,2.176217 -0.18423,4.463107 -0.33955,6.684975 0.574168,1.32057 0.997969,2.771567 1.375597,4.176476 0.316251,0.712079 0.749002,1.598034 0.816951,2.418075 0.359349,1.735623 1.14155,3.365255 1.003985,5.179222 0.19172,1.966056 -0.184847,4.183025 -1.46311,5.64938 -0.365719,0.462457 -0.6841,0.892319 -1.200394,1.33278 -0.259591,0.245403 -0.226787,0.21072 -0.572169,0.41606 -1.275825,0.624254 -2.833755,0.712368 -4.260362,0.4822 -0.572856,-0.133836 -1.183102,-0.423493 -1.476511,-0.725109 -0.513057,-0.328871 -0.818427,-0.91311 -1.08691,-1.298746 -0.411535,-0.89685 -0.814731,-1.749552 -1.40116,-2.489572 -0.446314,-0.571222 -0.799104,-1.324365 -1.194739,-1.75821 0.04275,0.04756 -0.24292,-0.604396 -0.22138,-0.638081 -0.09336,-0.176236 -0.129442,-0.355853 -0.41516,-0.458603 -0.497685,-0.228176 -0.848372,-0.879056 -0.453466,-1.32584 -0.882809,-0.582963 -0.567254,-2.104158 0.199657,-2.658409 0.02338,0.04144 0.561263,-0.473857 0.860214,-0.440052 1.309346,-0.38499 2.79071,-0.03339 3.989144,0.43417 0.780955,0.371172 1.630861,0.823683 2.126137,1.227583 0.667654,0.447511 1.193673,1.064935 1.915745,1.560286 0.338352,0.263477 0.579607,0.751258 0.787254,1.021312 0.480121,0.31841 0.560029,0.940475 0.646718,1.609283 0.336011,-0.842628 -0.429739,-1.642601 -0.802178,-2.346206 -0.537588,-0.697855 -1.129088,-1.389326 -1.696222,-1.818733 -0.448509,-0.410595 -0.951277,-0.769006 -1.432657,-1.130844 0.196125,-0.534343 0.324249,-1.955066 -0.468833,-1.237006 -0.401842,0.154968 -0.811554,0.533911 -1.179903,0.53719 -1.430633,-0.376753 -3.515785,-0.536233 -4.576693,0.05752 -0.460125,0.269431 -0.951481,0.726047 -0.98216,1.236497 -0.168069,0.899305 -2.183471,0.108715 -2.964155,0.37697 -3.250319,0.07299 -6.468692,-0.551192 -9.708983,-0.503499 -0.382755,-0.127996 -0.479165,0.425675 -0.53727,0.595941 -0.606022,2.135648 -0.891743,4.346464 -1.476058,6.488283 -0.22149,1.646092 -0.354802,3.445148 -0.448516,5.026085 1.494331,0.190795 3.013816,0.284557 4.5458,0.338858 2.817406,0.09986 5.641404,0.364517 8.444993,0.11113 0.808599,-0.156584 1.836102,-0.170627 2.499146,-0.612749 0.765528,-2.108398 0.605018,-4.446864 0.38969,-6.62987 -0.327821,-0.610454 0.177773,-0.880577 0.100602,-1.411689 0.552833,-0.425763 0.533334,0.709797 0.736317,0.981274 0.389184,1.259461 0.988333,2.463492 1.39799,3.7038 0.342521,0.646322 0.624641,1.416772 1.430521,1.671067 1.732595,0.03879 0.353118,1.168629 -0.700054,0.536625 -0.956735,-0.47748 -1.517923,-1.437467 -1.927712,-2.402887 0.08973,1.470691 0.06404,3.136042 -0.755869,4.39881 -1.177699,0.686137 -2.895092,0.689885 -4.329325,0.750678 -1.123548,-0.07681 -2.245625,0.01953 -3.368797,0.01593 z m 5.143946,-0.146015 c -0.03921,-0.05609 -0.0285,0.02725 0,0 z m 2.554365,-0.63846 c -0.02854,-0.04678 -0.07502,0.04777 0,0 z m -15.403645,-0.01928 c -0.06738,-0.04431 -0.02008,0.02659 0,0 z m 13.191211,-0.310423 c -0.05589,-0.02962 -0.01319,0.03179 0,0 z M 21.907072,57.494037 c -0.03921,-0.05609 -0.0285,0.02725 0,0 z m 19.08025,-1.055699 c -0.05889,-0.01455 -0.002,0.0497 0,0 z m 2.528086,-0.234958 c -0.0132,-0.04727 -0.02989,0.03814 0,0 z m -2.839534,-0.0067 c 0.01692,-0.05027 -0.04353,0.006 0,0 z m 8.173346,-0.179081 c -0.02153,-0.06029 -0.01931,0.103116 0,0 z m -7.224865,-0.04001 c -0.0132,-0.04727 -0.02989,0.03814 0,0 z M 40.344837,55.82346 c -8.03e-4,-0.06712 -0.07359,0.0086 0,0 z m 0.848538,-0.231052 c -0.01768,-0.03165 -0.04587,0.0859 0,0 z M 49.689,55.310162 c -0.01769,-0.03166 -0.04586,0.08593 0,0 z m 0.07436,-0.05763 c -0.03248,-0.04235 -0.03248,0.04235 0,0 z m -7.647526,-0.397363 c -0.02132,-0.03008 -0.03617,0.05502 0,0 z m -1.380556,-0.02071 c -0.0132,-0.04727 -0.02989,0.03814 0,0 z m 9.538884,-0.194543 c -0.07848,-0.02024 -0.0438,0.01456 0,0 z m 0.533517,-0.685746 c -0.03248,-0.04235 -0.03248,0.04235 0,0 z m -9.905405,-1.300693 c -0.03921,-0.05609 -0.0285,0.02725 0,0 z m -1.037257,-0.107361 c -0.06738,-0.04431 -0.02008,0.02659 0,0 z m 0.806155,-0.249211 c -0.03213,0.01065 0.04728,0.05236 0,0 z M 40.336327,51.8232 c -0.03248,-0.04235 -0.03248,0.04235 0,0 z m -0.221991,-0.319259 c -0.0132,-0.04727 -0.02989,0.03814 0,0 z m -0.221094,-0.473385 c -0.017,-0.05159 -0.03479,0.05027 0,0 z m -0.258726,-0.302794 c -0.0132,-0.04727 -0.02989,0.03814 0,0 z m -1.089604,-1.008677 c 0.01692,-0.05027 -0.04353,0.006 0,0 z m 9.585915,-0.612805 c -0.07173,-0.04681 -0.0102,0.04977 0,0 z m 0.234686,-0.143789 c -0.02079,-0.05409 -0.02283,0.03381 0,0 z m -0.06602,-0.09756 c -0.0132,-0.04727 -0.02989,0.03814 0,0 z m -10.092772,-0.04985 c -0.02132,-0.03008 -0.03617,0.05502 0,0 z m 9.359616,-0.499092 c -0.07172,-0.04683 -0.01024,0.04977 0,0 z m -0.362903,-0.297584 c -0.03294,-0.04845 -0.04064,0.02682 0,0 z M 38.068047,47.75006 c -0.0132,-0.04727 -0.02989,0.03814 0,0 z m 8.733557,-0.07551 c -0.05889,-0.01455 -0.002,0.0497 0,0 z m -8.822037,-0.04271 c -0.03248,-0.04235 -0.03248,0.04235 0,0 z m 9.32265,-0.106467 c 0.0048,-0.05342 -0.08872,0.0011 0,0 z M 46.391369,47.3341 c 0.01692,-0.05027 -0.04353,0.006 0,0 z M 24.155264,47.184571 c -0.04977,0.0021 0.01459,0.05885 0,0 z m 22.838283,-0.01727 c -0.01769,-0.03166 -0.04586,0.08593 0,0 z m -1.00406,-0.208499 c -0.04728,-0.05781 -0.01944,0.03637 0,0 z m -0.204753,-0.174119 c -0.09215,-0.0335 -0.01865,0.02776 0,0 z m -26.41553,-0.332962 c -0.0132,-0.04727 -0.02989,0.03814 0,0 z m 26.825228,-0.03931 c -0.02854,-0.04678 -0.07502,0.04777 0,0 z m -0.424005,-0.36254 c 0.01692,-0.05027 -0.04353,0.006 0,0 z m -25.921404,-0.17738 c -0.01243,-0.07181 -0.02988,0.05124 0,0 z m 25.670337,-0.01349 c -0.0132,-0.04727 -0.02989,0.03814 0,0 z m -18.824972,-0.0021 c -0.05589,-0.02962 -0.01319,0.03179 0,0 z m -7.776779,-0.12492 c -0.0132,-0.04727 -0.02989,0.03814 0,0 z m 1.122053,-0.05695 c 0.03067,-0.06038 -0.08528,0.04879 0,0 z m 25.117481,-0.04073 c -8.03e-4,-0.06712 -0.07359,0.0086 0,0 z m -0.07527,-0.07167 c -0.0132,-0.04727 -0.02989,0.03814 0,0 z m -7.395059,-0.06175 c -0.05964,-0.123912 0.03809,0.106294 0,0 z M 19.393405,45.47662 c -8.7e-5,-0.04551 -0.04377,0.04352 0,0 z m 0.92603,-0.05723 c -0.06738,-0.04431 -0.02008,0.02659 0,0 z m -0.713276,-0.103349 c 0.01692,-0.05027 -0.04353,0.006 0,0 z m 31.755939,-0.03185 c -0.02713,0.0062 0.02027,0.06181 0,0 z M 25.281622,44.614799 c -0.02153,-0.06029 -0.01932,0.103103 0,0 z m -4.651716,-0.01393 c -0.06738,-0.04431 -0.02008,0.02659 0,0 z M 32.471007,43.60142 c 1.537001,0.139449 3.058703,-0.142713 4.444535,-0.72607 1.609705,-0.4979 3.194502,-1.158102 4.677219,-1.870092 0.95114,-0.518339 1.850973,-0.917523 2.663184,-1.569311 0.576029,-0.342159 1.143993,-0.86168 1.714063,-1.204217 0.714764,-0.627669 1.631746,-1.329616 1.780857,-2.456711 0.151373,-1.79148 -0.177067,-3.685942 0.361937,-5.365512 0.29416,-2.021101 0.655036,-4.157652 0.174961,-6.16929 C 47.979902,23.158794 47.4497,22.37299 46.88447,21.538139 46.488467,20.700007 45.743097,19.888258 45.310924,19.144827 44.682329,18.395021 44.035741,17.461732 43.363486,16.74764 43.107748,16.458587 42.699975,16.272897 42.454816,16.0751 42.21913,16.028013 41.858136,15.98458 41.701273,15.640452 41.068603,14.718389 40.615326,13.76014 39.735282,13.0189 c -1.168628,0.08184 -2.030742,1.028566 -2.70419,1.791835 -0.512472,0.903795 -2.024499,0.04864 -2.881883,0.471353 -1.383352,0.01788 -3.548148,0.331855 -4.532415,-0.163934 0.434315,0.912001 -0.667187,0.444758 -0.835044,0.371864 -0.161839,0.391899 -0.634945,0.783275 -1.11894,0.46123 0.258158,0.233517 0.446395,0.836319 -0.118088,0.866477 -0.566914,-0.06391 -1.189645,-0.214529 -1.647314,-0.46488 0.143622,-0.54352 1.114341,-0.805581 1.612495,-0.503978 -0.189017,-0.186804 -0.393053,-0.690883 0.08677,-0.75612 0.01476,-0.281953 -0.4658,-0.664517 -0.54729,-0.986551 -0.218774,-0.324849 -0.327138,-0.79373 -0.71391,-0.880949 -0.93204,0.539492 -0.713739,1.896013 -1.078877,2.846186 -0.152578,0.694342 -0.160969,1.31147 -0.162836,2.006818 -0.754145,1.159976 -1.193346,2.447728 -1.622782,3.764815 -0.724583,1.644586 -1.396424,3.357636 -1.68748,5.163075 -0.346961,1.413242 0.161616,2.954551 0.7428,4.152672 0.357555,0.531669 0.486,1.076883 0.887995,1.567284 0.237656,0.685327 0.869801,1.123044 1.038933,1.813665 -1.106159,1.170956 -1.751409,3.204323 -0.875332,4.687311 0.241524,0.430607 0.546716,1.016595 0.986141,1.369299 0.764088,0.827206 1.556259,1.4203 2.612921,1.889569 0.834877,0.491237 1.82299,0.734511 2.766621,1.00229 0.833978,0.150296 1.684271,0.125078 2.52743,0.113189 z M 28.97026,41.964502 c -0.763383,-0.110272 -0.827756,-1.266134 -0.202838,-1.482851 0.278961,0.375892 0.808193,0.654792 0.716195,1.235517 -0.05705,0.208142 -0.317647,0.300531 -0.513357,0.247334 z m 0.47713,-0.227292 c -0.04977,0.0021 0.01459,0.05885 0,0 z m -0.216111,-0.754471 c -0.02132,-0.03008 -0.03617,0.05502 0,0 z m -1.734982,0.450243 c -0.769977,-0.142084 -0.720575,-1.229924 -0.394761,-1.660677 0.114008,-0.777749 0.626961,-0.245763 0.649091,0.212547 0.07596,0.342796 0.483231,1.566958 -0.25433,1.44813 z m -0.372911,-0.249305 c -0.01611,-0.03035 -0.06067,0.0736 0,0 z m -1.251856,-0.97908 c -0.805239,-0.338114 -0.480563,-1.43009 0.06063,-1.833775 0.206565,-0.479484 0.66853,-0.06647 0.461423,0.314748 0.03622,0.469191 0.06579,1.421881 -0.522052,1.519027 z m -0.09062,-0.116426 c -7.86e-4,-0.06711 -0.07359,0.0086 0,0 z m 0.411059,-0.06171 c -0.01769,-0.03166 -0.04586,0.08593 0,0 z M 25.633334,38.76791 c 0.06209,-0.148103 -0.04969,0.06499 0,0 z m 5.842623,-0.71706 c -1.011907,0.01717 -1.707069,-0.87812 -2.106881,-1.678151 -0.589827,-1.309775 -1.239317,-2.698891 -1.174958,-4.236451 -0.396716,-0.137655 -0.801809,-0.26261 -1.107543,-0.624483 -0.270159,-0.132604 -0.819154,-0.844717 -0.820751,-1.383433 -0.45428,-0.892902 0.931851,-2.414671 0.140127,-2.742858 -0.436126,-0.422096 -1.00988,-0.785623 -1.114829,-1.512612 -0.298762,-1.25211 0.144169,-2.864389 1.442456,-3.306276 1.059015,-0.664797 2.729113,-0.637291 3.756207,0.108395 0.624031,0.86715 0.444262,2.275827 -0.536632,2.706643 -0.418311,0.192507 -0.961735,0.950012 -1.393155,1.185907 -0.605954,0.622447 -1.11117,1.451954 -1.324866,2.316102 -0.229008,0.83446 0.0066,1.892031 0.912218,2.161611 1.422409,0.345421 2.866977,0.394915 4.336559,0.196302 0.667627,-0.167607 1.030245,-0.432212 1.461423,-0.94303 0.679676,-0.717885 1.286883,-1.722591 1.109872,-2.882498 -0.0026,-0.963556 -0.794009,-1.709361 -0.865399,-2.690881 -0.03652,-0.759087 -0.06543,-1.985884 0.890944,-2.214709 1.349668,-0.501073 2.860212,-0.03503 4.243457,0.163055 0.606962,0.04101 1.36484,0.421393 1.754829,0.703674 1.631565,1.261021 1.400419,3.793263 0.471906,5.426139 -0.545472,1.014448 -1.371902,1.896758 -2.462104,2.306142 -0.708495,0.397467 -1.529156,0.658305 -2.023638,1.444656 -0.343894,0.553246 -0.582472,1.225347 -0.89896,1.688864 -0.521791,1.203345 -1.419819,2.218028 -2.38551,3.047948 -0.0023,-0.02071 -0.576588,0.515034 -0.926118,0.580679 -0.416168,0.214747 -0.928056,0.161973 -1.378654,0.179265 z m -1.461349,-0.8151 c -0.04913,-0.04129 -0.04913,0.04128 0,0 z m 3.854468,-0.01764 c -0.01279,-0.04409 -0.08554,0.04972 0,0 z m 0.442135,-0.397698 c 0.01692,-0.05027 -0.04353,0.006 0,0 z M 29.381304,36.25118 c -0.03213,0.01065 0.04728,0.05237 0,0 z m 5.594164,-0.275758 c -0.05889,-0.01455 -0.002,0.0497 0,0 z m 0.111922,-0.0582 c 0.01692,-0.05027 -0.04353,0.006 0,0 z m 0.550381,-0.705617 c 0.0027,-0.07455 -0.07393,0.06196 0,0 z m 0.07056,-0.08467 c 0.01692,-0.05027 -0.04353,0.006 0,0 z m 0.08671,-0.131514 c -0.006,-0.04885 -0.08993,0.01767 0,0 z m 1.126954,-2.267583 c 0.01692,-0.05027 -0.04353,0.006 0,0 z m 0.77247,-0.872673 c -0.0058,-0.08997 -0.04317,0.07626 0,0 z M 27.250391,31.643737 c -0.01612,-0.03035 -0.06067,0.07362 0,0 z m -0.269935,-0.265599 c -0.07389,0.01238 -0.07721,0.06784 0,0 z m 11.725796,-0.0677 c -0.0042,-0.127751 -0.04581,0.08724 0,0 z M 26.665513,31.030733 c -0.02713,0.0062 0.02027,0.06181 0,0 z m 13.261339,-0.400288 c -8.7e-5,-0.04551 -0.04376,0.04352 0,0 z m 0.131034,-0.0551 c -0.01321,-0.04727 -0.02989,0.03814 0,0 z m 0.569197,-0.566633 c -0.06738,-0.04431 -0.02008,0.02659 0,0 z m 0.118284,-0.08389 c -8.7e-5,-0.04551 -0.04377,0.04352 0,0 z m 0.363287,-0.475794 c -0.03213,0.01065 0.04728,0.05237 0,0 z m -6.4634,-0.04916 c -0.01769,-0.03166 -0.04586,0.08593 0,0 z m 6.750349,-0.397698 c 0.01692,-0.05027 -0.04353,0.006 0,0 z M 27.437436,28.259573 c -8.7e-5,-0.04551 -0.04377,0.04352 0,0 z M 41.81001,28.20688 c -0.02909,-0.06564 -0.0448,0.06414 0,0 z M 26.653167,27.548545 c -0.04918,-0.07537 -0.02713,0.03793 0,0 z m -0.329034,-0.325334 c -0.02132,-0.03008 -0.03617,0.05502 0,0 z m -0.35438,-0.261973 c -8.7e-5,-0.04551 -0.04377,0.04352 0,0 z m -0.328217,-0.348783 c -0.03213,0.01065 0.04728,0.05236 0,0 z m 9.271775,-0.06221 c -0.03168,0.01849 0.04729,0.06442 0,0 z m -6.244078,-0.08158 c -0.0132,-0.04727 -0.02989,0.03814 0,0 z m 0.555084,-0.496071 c -0.06738,-0.04431 -0.02008,0.02659 0,0 z m 0.564494,-0.476791 c -0.0064,-0.03781 -0.0835,0.0125 0,0 z m 0.268134,-0.211468 c -0.03549,-0.05097 -0.09537,-0.01796 0,0 z m 11.239021,-1.657574 c -0.03248,-0.04235 -0.03248,0.04235 0,0 z M 34.334705,23.38908 c -0.03168,0.01849 0.04729,0.06442 0,0 z m -8.567909,-0.08372 c -0.06738,-0.04431 -0.02008,0.02659 0,0 z m 15.09147,-0.06978 c -8.7e-5,-0.04551 -0.04377,0.04352 0,0 z M 25.903215,23.1946 c -0.0132,-0.04727 -0.02989,0.03814 0,0 z m 4.562988,-0.501609 c -0.03481,-0.05027 -0.01701,0.0516 0,0 z m -3.817013,-0.08195 c -0.05889,-0.01455 -0.002,0.0497 0,0 z m 8.375297,-0.0459 c -0.03668,-0.05053 -0.02148,0.06689 0,0 z m -4.768168,-0.05209 c -0.01768,-0.03165 -0.04587,0.0859 0,0 z m -3.124155,-0.119955 c 0.09715,-0.04824 -0.08854,-0.0023 0,0 z m 0.06693,-0.05276 c -0.02131,-0.03008 -0.03617,0.05502 0,0 z m 7.331742,14.245898 c 0.06641,-0.0647 -0.02645,0.07186 0,0 z M 29.929934,30.97519 c -1.237805,0.10143 -2.617913,-1.017114 -2.000073,-2.296928 0.749121,-0.829288 2.327558,-0.395502 3.354945,-0.57412 1.122001,0.06498 1.648032,1.535551 0.75865,2.225443 -0.553549,0.443434 -1.400564,0.694792 -2.113522,0.645605 z m -1.357231,-0.403411 c -0.04686,-0.02644 -0.02676,0.05796 0,0 z m -0.141211,-0.09889 c -0.07739,-0.08508 0.02919,0.122767 0,0 z m -0.356585,-0.313267 c 0.09358,-0.06414 -0.111967,0.0066 0,0 z m 4.359866,-0.382076 c -0.02132,-0.03008 -0.03617,0.05502 0,0 z m -4.521102,-0.956272 c -0.01769,-0.03166 -0.04586,0.08593 0,0 z m 4.025817,-0.424546 c -0.03248,-0.04235 -0.03248,0.04235 0,0 z m 10.034743,-3.855959 c -0.03044,-0.05004 0.0397,4.68e-4 0,0 z m 2.681344,-6.195314 c 0.03322,-0.04233 0.0343,0.06207 0,0 z m -16.865,-1.577589 c 0.08502,-0.07726 5.09e-4,0.05575 0,0 z m -7.993297,26.740819 c -0.01701,-0.0516 -0.03481,0.05027 0,0 z m 0.0018,-0.10937 c -0.01769,-0.03166 -0.04587,0.08593 0,0 z m 16.74337,-0.345462 c -0.04194,-0.02347 -0.0583,0.04007 0,0 z m -9.201753,-0.445632 c -0.05889,-0.01455 -0.002,0.0497 0,0 z m -0.462847,-0.265274 c -0.05589,-0.02962 -0.01319,0.03179 0,0 z m -6.316753,-0.108136 c -0.03213,0.01065 0.04728,0.05237 0,0 z M 20.76337,42.01375 c 0.01692,-0.05027 -0.04353,0.006 0,0 z m 29.693328,-0.139373 c -0.05889,-0.01455 -0.002,0.0497 0,0 z M 21.002429,41.704656 c -0.03248,-0.04235 -0.03248,0.04235 0,0 z m 0.09318,-0.1208 c -0.0064,-0.03781 -0.0835,0.0125 0,0 z M 25.4863,41.45863 c -0.03213,0.01065 0.04728,0.05237 0,0 z m 17.461521,-1.154655 c -0.0638,-0.02683 -0.0045,0.06906 0,0 z m 0.593363,-0.337328 c -0.02132,-0.03008 -0.03617,0.05502 0,0 z m 0.167995,-0.0966 c -0.03248,-0.04235 -0.03248,0.04235 0,0 z M 23.79753,39.685208 c 0.01692,-0.05027 -0.04353,0.006 0,0 z m 22.185092,-1.36971 c -0.02132,-0.03008 -0.03617,0.05502 0,0 z m 0.684548,-0.556767 c -0.03294,-0.04845 -0.04064,0.02682 0,0 z m 0.795894,-1.021625 c -0.03248,-0.04235 -0.03248,0.04235 0,0 z M 22.963311,36.148492 c -0.02079,-0.05409 -0.02283,0.03381 0,0 z m 0.330004,-0.762929 c -0.05589,-0.02962 -0.01319,0.03179 0,0 z m 0.672967,-0.227854 c 0.07282,-0.114988 -0.105445,0.12539 0,0 z m -0.429235,-1.151956 c -8.03e-4,-0.06712 -0.07359,0.0086 0,0 z m -0.261681,-0.346505 c 0.01692,-0.05027 -0.04353,0.006 0,0 z m 0.07432,-1.002673 c -0.0091,-0.117865 -0.02572,0.09414 0,0 z m -1.454373,-1.051026 c -0.01321,-0.04727 -0.02989,0.03814 0,0 z m 26.414266,-2.132315 c -8.7e-5,-0.04551 -0.04377,0.04352 0,0 z M 22.49969,24.245508 c -0.02132,-0.03008 -0.03617,0.05502 0,0 z m 26.342523,-0.737767 c -0.03213,0.01065 0.04728,0.05237 0,0 z m -0.29811,-0.708909 c -0.05499,-0.07282 -0.03086,0.02243 0,0 z m -1.204131,-0.651397 c 0.02745,-0.125837 -0.0352,-0.0043 0,0 z m -24.828256,-0.08305 c -0.02079,-0.05409 -0.02283,0.03381 0,0 z m 25.497919,-0.115818 c -0.01768,-0.03165 -0.04587,0.0859 0,0 z M 47.682967,21.44371 c -0.04729,-0.05784 -0.01946,0.03634 0,0 z M 23.054502,20.695721 c -0.04977,0.0021 0.01458,0.05885 0,0 z m 23.248116,-0.165186 c -0.03152,0.02027 0.04845,0.06576 0,0 z M 23.403988,20.02596 c -0.01706,-0.05657 -0.02886,0.05269 0,0 z m 22.374097,-0.217215 c -7.86e-4,-0.06711 -0.07359,0.0086 0,0 z m 0.776179,-0.0032 c -0.06738,-0.04432 -0.02012,0.02659 0,0 z M 23.620574,19.59467 c 0.04118,-0.09397 -0.0659,0.01602 0,0 z m 22.129287,-0.904 c -0.06738,-0.04432 -0.02012,0.02659 0,0 z m -0.814336,-0.07756 c -0.07805,-0.02 0.04641,0.06106 0,0 z m -20.65325,-0.189425 c -0.04977,0.0021 0.01458,0.05885 0,0 z m 21.213564,-0.02634 c -0.0064,-0.03781 -0.0835,0.0125 0,0 z M 24.65901,17.94784 c -0.02854,-0.04678 -0.07501,0.04777 0,0 z m 19.503113,-0.349242 c -0.02132,-0.03008 -0.03617,0.05502 0,0 z m -0.160391,-0.843373 c -0.01611,-0.03035 -0.06067,0.0736 0,0 z m -0.108388,-0.230531 c -0.0638,-0.02683 -0.0045,0.06906 0,0 z m -0.09479,-0.02604 c -0.01021,-0.06734 -0.03313,0.03728 0,0 z M 42.931576,16.24219 c -0.07807,-0.02 0.0464,0.06106 0,0 z m -0.741843,-0.190522 c -0.05589,-0.02962 -0.01319,0.03179 0,0 z M 27.395317,15.850859 c -0.03248,-0.04235 -0.03248,0.04235 0,0 z m 0.19377,-0.01294 c -0.01611,-0.03035 -0.06067,0.0736 0,0 z m 14.322219,-0.0035 c -0.03481,-0.05026 -0.01701,0.05158 0,0 z m 1.213661,-0.01176 c -0.05539,-0.08633 -0.02252,0.0517 0,0 z M 29.633575,15.001767 c 0.03545,-0.06067 -0.103286,0.06254 0,0 z m 0.428973,-0.181108 c -0.03248,-0.04235 -0.03248,0.04235 0,0 z m 10.969089,-0.276922 c -0.01321,-0.04727 -0.02989,0.03814 0,0 z M 36.80757,14.246305 c -0.044,-0.0059 0.02349,0.06708 0,0 z m -7.56914,-0.444086 c -0.03481,-0.05027 -0.01701,0.0516 0,0 z m 7.928406,-0.120328 c -0.04977,0.0021 0.01458,0.05885 0,0 z m 1.343397,-0.252139 c -0.0064,-0.03781 -0.0835,0.0125 0,0 z m 1.60175,-0.07913 c -0.01703,-0.0516 -0.03475,0.05029 0,0 z M 39.984872,13.19555 c -0.02132,-0.03009 -0.03617,0.05502 0,0 z M 25.048818,13.13518 c -0.03213,0.01064 0.04725,0.05237 0,0 z m 17.215013,-0.04597 c -0.04729,-0.05782 -0.01947,0.03637 0,0 z M 42.07595,12.920819 c -0.0132,-0.04727 -0.02989,0.03814 0,0 z m 0.04704,-0.04448 c -0.06738,-0.04431 -0.02008,0.02659 0,0 z M 27.904212,12.674207 c -0.0022,-0.07539 -0.05513,0.05821 0,0 z m -0.03468,-0.05189 c -0.06738,-0.04431 -0.02008,0.02659 0,0 z m -2.320594,-0.02289 c -0.04193,-0.02346 -0.05828,0.04004 0,0 z m 16.223044,-0.02146 c -0.01612,-0.03035 -0.06068,0.07362 0,0 z m -3.464026,-0.0523 c -0.0132,-0.04727 -0.02989,0.03814 0,0 z M 25.73857,12.467077 c -0.06738,-0.04432 -0.02012,0.02659 0,0 z m 18.88198,46.522506 c -0.229707,-0.581317 -0.270305,-1.516823 0.108432,-1.926377 0.09214,0.506496 0.305206,1.623784 -0.108432,1.926377 z m -1.770917,-0.05636 c 0.4041,-0.348619 -0.127251,-0.864768 0.0037,-1.260798 0.312844,0.317139 0.621978,0.764186 0.978316,0.210218 0.279653,-0.278751 0.647794,-0.08525 0.183941,0.202041 -0.254203,0.442544 -0.683701,0.737239 -1.165942,0.848539 z m 0.352348,-0.125806 c 0.01692,-0.05027 -0.04353,0.006 0,0 z m -0.05659,-0.312652 c -0.0638,-0.02683 -0.0045,0.06906 0,0 z m -0.180363,-0.231027 c -0.0132,-0.04727 -0.02989,0.03814 0,0 z m 0.999623,-0.120576 c -0.03921,-0.05609 -0.0285,0.02725 0,0 z m -0.735295,-0.06821 c -0.03248,-0.04235 -0.03248,0.04235 0,0 z m -1.423892,0.665138 c -0.886636,-0.209139 0.237374,-0.218239 0.372231,-0.40827 -0.322116,-0.199257 -0.901625,-0.671164 -0.389363,-1.06454 0.208987,-0.364445 1.273415,-0.229611 0.913246,0.02297 -1.257107,0.02542 -0.421016,0.572525 -0.119501,1.044093 0.0679,0.4229 -0.526785,0.453785 -0.776613,0.405747 z m 0.289303,-0.88775 c -0.06738,-0.04431 -0.02008,0.02659 0,0 z m 0.0056,-0.51123 c -0.03248,-0.04235 -0.03248,0.04235 0,0 z m 0.64895,-0.06659 c -8.7e-5,-0.04551 -0.04377,0.04352 0,0 z m 2.668902,1.427598 c -0.86611,-0.367025 0.105296,-1.449261 0.629609,-1.057942 0.158932,0.35566 0.444814,1.234719 -0.119482,0.90518 -0.06773,0.180888 -0.357819,0.182094 -0.510127,0.152762 z m -0.155838,-0.1205 c 0.01692,-0.05027 -0.04353,0.006 0,0 z m 0.577324,-0.201597 c 0.343885,-1.317278 -1.000049,0.0072 0,0 z m -0.348572,-0.483205 c -0.0132,-0.04727 -0.02989,0.03814 0,0 z m -0.143476,-0.148801 c -0.03921,-0.05609 -0.0285,0.02725 0,0 z m 1.629975,0.697178 c -0.621936,-0.101792 -0.744859,-1.290805 0.130653,-1.198421 -0.271015,0.276421 -0.426087,1.043281 0.436249,0.882376 0.101573,0.258631 -0.469885,0.328336 -0.566902,0.316045 z M 46.77068,58.293515 c -0.09509,-0.05048 -0.05302,0.0334 0,0 z m -0.06589,-0.04317 c -0.05441,-0.04826 0.003,0.06742 0,0 z m 0.590265,-0.107025 c -0.02132,-0.03008 -0.03617,0.05502 0,0 z m -0.336243,-0.07716 c -0.0132,-0.04727 -0.02989,0.03814 0,0 z m -0.412094,-0.06201 c -0.09593,0.0368 0.0069,0.03663 0,0 z m 0.353192,-0.0584 c -0.02132,-0.03008 -0.03617,0.05502 0,0 z m 1.107918,0.140129 c -0.303967,-0.06323 -0.531579,-1.011597 -0.150815,-0.54829 0.185965,0.243727 0.358585,-0.741094 0.65905,-0.191751 0.240268,0.357655 0.471162,-1.113934 0.464253,0.08456 0.185389,1.041231 -0.764882,-0.102914 -0.795513,0.615088 l -0.01691,0.03467 -0.160177,0.0057 z M 47.90236,57.877752 c -0.05889,-0.01455 -0.002,0.0497 0,0 z m -0.09681,-0.03739 c -0.0132,-0.04727 -0.02989,0.03814 0,0 z m 0.775337,-0.01433 c -0.01663,-0.09985 -0.02079,0.06986 0,0 z m -18.135861,0.23106 c -0.994383,-0.06459 -1.599065,-0.540164 -2.44848,-0.237949 -0.616616,-0.367399 -2.772349,0.365623 -2.353327,-0.93424 -0.115471,-0.912809 1.027072,-1.013524 1.626671,-1.352275 0.349572,-0.201695 0.907516,-0.395143 1.331133,-0.585332 0.0569,-0.632309 -1.126966,-0.211438 -1.518153,-0.587466 -0.597472,-0.232346 -1.645515,-0.284108 -1.448296,-1.233894 0.04931,-1.942261 0.126705,-4.165395 0.6936,-5.931068 0.583925,-0.875852 2.032105,-0.114592 2.909902,-0.350122 1.666122,0.187749 3.479298,-0.129321 4.865119,0.944803 0.520854,0.199357 1.088521,0.525743 1.072039,1.124558 -0.0036,1.996245 0.08517,4.196732 -0.806144,5.970584 -0.772718,0.386861 -1.162722,0.329555 0.03427,0.449081 0.499932,0.721364 0.148808,1.57087 -0.670847,1.743668 -1.086388,0.468058 -2.034632,1.206149 -3.287483,0.979652 z M 31.828043,57.9456 c -0.03921,-0.05609 -0.0285,0.02725 0,0 z m -0.512892,-0.04613 c 0.628666,-0.07668 1.390925,-0.547887 1.800727,-0.71929 0.431154,-0.362449 1.423822,-0.293077 1.29511,-1.033639 0.401719,-0.988459 -0.896111,-0.650118 -1.083203,-1.009723 0.564948,-0.08563 1.136146,-0.174652 1.194967,-0.832189 0.556906,-1.78698 0.515687,-3.702175 0.43959,-5.553189 -0.05766,-0.627985 -0.848016,-0.656495 -1.295075,-0.998461 -1.330795,-0.911067 -3.096272,-0.510482 -4.621609,-0.783165 -0.894297,0.130814 -2.379406,-0.48857 -2.750611,0.700844 -0.377086,1.981306 -0.511382,4.064383 -0.41702,6.063454 1.033519,0.49682 2.193839,0.949888 3.29673,0.78665 1.296863,0.113355 2.682192,-0.02457 3.852288,0.613503 -1.330253,-0.375939 -2.895312,-0.299748 -4.310842,-0.52882 -0.621571,1.45571 1.109366,1.535246 2.377925,1.374585 0.342967,-0.07894 2.159038,-0.649477 1.051366,-0.179314 -1.056376,0.531902 -2.441749,0.44577 -3.570069,0.154762 0.428586,-1.261663 -0.38914,-0.794304 -1.039836,-0.42648 -0.597402,0.315728 -1.094602,0.497308 -1.606587,0.822429 -0.723944,1.258478 0.840914,1.177027 1.707504,1.272903 0.616635,0.202451 1.427835,0.139303 1.398702,-0.60319 0.869304,-0.503753 -0.337663,0.163135 -0.231128,-0.08878 0.166749,-0.142419 1.324841,-0.741303 0.998617,-0.143434 -0.502826,0.08327 -0.781585,0.330611 -0.728204,0.829091 0.401547,0.375406 1.674226,0.232536 2.240658,0.281454 z m 1.651934,-3.569273 c 0.714978,-1.095645 0.510445,-2.844107 0.71733,-4.216941 0.164522,-1.657176 0.167012,2.218531 -0.05633,2.516124 -0.08384,0.56735 -0.135092,1.363408 -0.661,1.700817 z m 0.03218,-0.05364 c -0.02132,-0.03008 -0.03617,0.05502 0,0 z m 0.157688,-0.105384 c -0.0132,-0.04727 -0.02989,0.03814 0,0 z m -1.225052,0.04211 c -1.905583,-0.136934 -3.864169,-0.15642 -5.726657,-0.5373 -0.528873,-0.966558 -0.03547,-2.497815 -0.119383,-3.639865 0.130661,-0.834936 0.207008,-1.735534 0.508411,-2.494408 0.320754,-0.565499 1.529169,-0.420284 2.199174,-0.437371 1.353116,0.195742 2.851885,-0.07857 4.111454,0.493761 0.668336,1.20482 0.158813,2.776938 0.101887,4.116986 -0.221925,0.816208 -0.03491,1.867592 -0.651548,2.503326 -0.141149,-6.66e-4 -0.282448,0.0024 -0.423338,-0.0051 z m 0.728668,-0.501221 c -0.02132,-0.03008 -0.03617,0.05502 0,0 z m -2.453181,-2.2945 c -0.107005,-0.555723 -2.764114,0.0055 -0.797834,-0.0082 0.264514,-0.02255 0.53623,0.06147 0.797834,0.0082 z m 0.632857,-0.814756 c -0.0255,-0.892028 -0.851155,0.377966 0,0 z m -2.414054,-0.166225 c 0.297909,-0.753415 -0.805992,0.01787 0,0 z m -1.607655,-3.114843 c -0.05889,-0.01455 -0.002,0.0497 0,0 z m 0.0842,-0.0449 c -0.02132,-0.03008 -0.03617,0.05502 0,0 z m 7.213013,4.578136 c 0.373397,-0.672201 0.26248,-2.442783 0.466968,-0.716533 -0.0842,0.243152 -0.177479,0.652777 -0.466968,0.716533 z m 0.208722,-0.144673 c -0.03248,-0.04235 -0.03248,0.04235 0,0 z m 0.07202,-0.171701 c -0.03921,-0.05609 -0.0285,0.02725 0,0 z m -2.545476,6.354079 c -0.01769,-0.03166 -0.04586,0.08593 0,0 z m -0.02259,-0.02903 c -0.05889,-0.01455 -0.002,0.0497 0,0 z M 28.786835,57.6298 c -7.86e-4,-0.06711 -0.07359,0.0086 0,0 z m 4.501835,-0.520065 c -0.0549,-0.005 -0.06074,0.07417 0,0 z m -7.63305,-0.07685 c -0.03167,0.01849 0.04728,0.06444 0,0 z m 7.826801,-0.01311 c -0.05589,-0.02962 -0.01319,0.03179 0,0 z m 0.342517,-0.01264 c -0.04913,-0.04128 -0.04913,0.04129 0,0 z m 0.69689,-0.381771 c -8.7e-5,-0.04551 -0.04377,0.04352 0,0 z m -5.015264,-0.01187 c -0.0064,-0.03781 -0.0835,0.0125 0,0 z m -3.603349,-0.283136 c -0.0132,-0.04727 -0.02989,0.03814 0,0 z m 2.542991,-1.244812 c -0.06,-0.01234 -0.05009,0.05558 0,0 z m 6.225472,-0.916515 c -0.06738,-0.04431 -0.02008,0.02659 0,0 z m -0.01454,-0.196054 c -0.04942,0.01932 -0.01153,0.07878 0,0 z m 0.452027,-2.942422 c -0.017,-0.05159 -0.03479,0.05027 0,0 z m -9.175743,-1.094079 c -0.04977,0.0021 0.01459,0.05885 0,0 z m 9.09282,-0.137457 c -0.03213,0.01065 0.04728,0.05237 0,0 z m -0.799843,-1.817933 c -0.0638,-0.02683 -0.0045,0.06906 0,0 z M 34.001246,47.84133 c -0.02132,-0.03008 -0.03617,0.05502 0,0 z m -0.303315,-0.248646 c -0.06738,-0.04431 -0.02008,0.02659 0,0 z m -7.154953,-0.40623 c -0.0064,-0.03781 -0.0835,0.0125 0,0 z m 0.07616,-0.119112 c -0.03248,-0.04235 -0.03248,0.04235 0,0 z m -0.139296,-0.07019 c -0.05889,-0.01455 -0.002,0.0497 0,0 z m -2.248387,10.629953 c -0.404636,-0.544906 0.654307,-0.748485 0.183768,-0.04815 -0.04409,0.09045 -0.133525,0.03506 -0.183731,0.04824 z m 0.258174,-0.48591 c -0.01703,-0.0516 -0.03475,0.05028 0,0 z m -0.954346,0.09173 c -0.439137,-0.311952 0.666531,-1.122686 0.417812,-0.430779 -0.03692,0.20268 -0.233047,0.36924 -0.417812,0.430779 z m -0.05939,-0.01646 c -0.0025,-0.05794 0.100765,0.01751 0,0 z m 26.021499,-0.105086 c -0.687753,-0.255922 -0.07361,-1.391698 0.491409,-1.112394 -0.0015,-0.576135 0.441601,0.275315 0.593011,0.410863 0.30805,0.48293 -0.339044,0.192852 -0.461019,0.623536 -0.172512,0.129055 -0.427221,0.07905 -0.623401,0.078 z m 0.483119,-0.371304 c 0.432061,0.01685 0.06775,-0.590989 0.002,-0.483151 -0.419765,-0.15603 -0.64658,0.733836 -0.002,0.483151 z m 0.544921,-0.03401 c -0.03248,-0.04235 -0.03248,0.04235 0,0 z m -1.079514,-0.601148 c -0.06865,8.1e-5 0.01001,0.07604 0,0 z M 22.989294,56.67948 c -0.232108,-0.482704 0.929366,-0.767954 0.528065,-0.294705 -0.07029,0.176158 -0.33695,0.398434 -0.528065,0.294705 z m 0.578943,-0.557053 c -0.158137,-0.06159 0.0576,0.04652 0,0 z m 13.297909,-9.200303 c -0.815699,-0.04644 0.04754,-0.718781 0.484551,-0.23878 0.06039,0.193887 -0.339136,0.250543 -0.484551,0.23878 z m -1.914751,-0.03372 c -2.783427,0.05357 -5.530553,-0.32684 -8.295874,-0.490634 -0.758618,0.133416 -2.397927,-0.115803 -0.557108,-0.242596 3.302372,-0.102162 6.59475,0.395515 9.895418,0.53653 0.135525,0.364999 -0.803225,0.13001 -1.042436,0.1967 z M 20.178311,44.886362 c 7.86e-4,-0.06711 0.07359,0.0086 0,0 z m -0.42337,-1.518803 c 0.03481,-0.05027 0.01701,0.0516 0,0 z m 34.485981,-0.504791 c -0.476175,-0.311979 -0.681897,-0.901018 -0.98375,-1.455902 -0.569328,-0.141449 -2.220263,0.363312 -1.989345,-0.519122 0.530743,-0.219038 1.209362,-0.314553 1.651568,-0.56385 0.258469,-1.11625 -1.080318,-0.657604 -1.255321,-1.345552 0.0873,-0.341475 1.243312,-0.160964 0.985466,-0.691457 -0.191623,-0.635775 0.674553,-0.426562 0.601065,0.09875 0.385135,0.117995 1.632258,-0.111002 1.53881,0.664452 -0.373474,0.445295 -1.488651,0.242141 -0.797844,1.094904 0.261419,0.200802 1.871883,0.261363 1.055029,0.884628 -0.847421,0.08934 -0.729288,0.601652 -0.507945,1.314564 0.173923,0.230468 -0.0515,0.567999 -0.297733,0.518587 z M 54.09025,42.710712 c -0.04827,-0.06009 -0.05207,0.0197 0,0 z m -0.439119,-0.652905 c -0.02565,-0.0035 -0.06584,0.06369 0,0 z m -2.358929,-0.777896 c -0.01021,-0.06734 -0.03313,0.03728 0,0 z m 3.080295,-0.05099 c -0.04827,-0.06009 -0.05207,0.0197 0,0 z M 52.418313,39.39061 c -0.05889,-0.01455 -0.002,0.0497 0,0 z m -0.722289,-0.222075 c -0.02079,-0.05409 -0.02283,0.03381 0,0 z m -1.186808,-3.246154 c -0.435892,-0.383081 0.360072,-0.667128 0.454888,-1.022006 0.171845,-0.24187 0.810854,-0.755016 0.372109,-0.88263 -0.834086,-0.199644 -0.267443,-1.112189 0.222296,-0.474808 0.294939,0.244752 0.684897,0.05982 0.803615,-0.353501 0.251235,-0.353024 0.572685,-0.725364 0.762537,-1.032735 -0.642683,-0.446736 -2.513934,0.376182 -2.428373,-0.607669 0.885259,-0.262077 2.379005,-0.521021 3.408097,-0.291348 0.7251,0.830179 -0.328305,1.819563 -0.829528,2.505946 -0.394999,0.302501 -0.131786,0.400193 0.18905,0.547129 0.447147,0.289574 1.101688,0.585953 1.126569,1.166458 -0.685517,0.343369 -1.582188,-0.189113 -2.238076,-0.531478 -0.370848,-0.127628 -0.617498,0.399781 -0.90236,0.55704 -0.282877,0.176688 -0.567126,0.484582 -0.940824,0.419602 z m 1.174279,-0.682547 c 0.01692,-0.05027 -0.04353,0.006 0,0 z m 0.07106,-0.01493 c -0.02132,-0.03008 -0.03617,0.05502 0,0 z m 2.702612,-0.178085 c -0.06738,-0.04432 -0.02012,0.02659 0,0 z m -3.372848,-0.09879 c -0.06738,-0.04431 -0.02008,0.02659 0,0 z m 3.219077,-0.03794 c -0.07288,0.01047 0.03427,0.0495 0,0 z M 51.423019,33.96017 c -0.06738,-0.04431 -0.02008,0.02659 0,0 z m 1.735817,-0.09879 c -0.06738,-0.04431 -0.02008,0.02659 0,0 z m -2.091072,-0.08021 c -0.02697,-0.058 -0.04656,0.02652 0,0 z m 1.015939,-0.115907 c -0.06755,-0.110286 0.04603,0.120711 0,0 z m 1.428935,-0.245051 c -0.0361,-0.123349 -0.009,0.08512 0,0 z m -1.226966,-0.083 c -0.01769,-0.03166 -0.04586,0.08593 0,0 z m 1.334168,-0.02408 c -0.01321,-0.04727 -0.02989,0.03814 0,0 z m -1.201901,-0.06413 c -0.03921,-0.05609 -0.0285,0.02725 0,0 z m 1.411133,-0.19741 c -0.02131,-0.03008 -0.03617,0.05502 0,0 z M 52.942448,32.44954 c -0.05207,-0.0197 -0.04827,0.06009 0,0 z m -0.689332,-3.044868 c -0.427553,-0.429506 0.31405,-1.111479 0.264127,-1.677096 0.365839,-0.532989 -0.192122,-0.569369 -0.593679,-0.75772 -0.36258,-0.397371 -0.562884,-0.386812 -0.938153,-0.0078 -0.74538,-0.374894 -0.370252,-1.511022 -0.160534,-2.168495 0.05609,-0.36363 0.14141,-0.754964 0.39479,-0.975166 0.585157,0.892641 2.054717,-0.342487 2.904662,0.408366 0.373998,0.814849 0.176226,2.114609 -0.310991,2.965414 -0.396229,0.684808 -0.673106,1.572681 -1.346077,2.186342 l -0.132644,0.04598 -0.08157,-0.01981 z m 0.444841,-0.240459 c -0.01151,-0.04612 -0.05021,0.04693 0,0 z m 0.354292,-0.559361 c -0.0638,-0.02683 -0.0045,0.06906 0,0 z m -0.824827,-1.500031 c -7.86e-4,-0.06711 -0.07359,0.0086 0,0 z m -1.383009,-0.255117 c -0.100658,-0.04919 -0.02533,0.02445 0,0 z m 2.221279,-0.630919 c 0.622792,-1.268133 -0.29198,-1.507162 -1.399507,-1.460469 -0.09385,1.73337 -0.03793,1.114101 1.399507,1.460469 z m -2.131219,-1.81188 c -8.7e-5,-0.04551 -0.04377,0.04352 0,0 z m 3.151074,-0.223719 c -0.0544,-0.04826 0.003,0.06742 0,0 z m -0.13642,-0.118948 c -0.05238,-0.04251 -0.03532,0.04381 0,0 z m -3.710414,-2.355584 c -0.542621,-0.208908 0.126266,-0.953222 0.201078,-1.259489 0.510115,-0.976463 1.195484,-1.963002 1.731235,-2.984354 -1.033846,-0.400165 -2.320035,0.308763 -3.239238,-0.04572 0.0254,-0.736479 1.298277,-0.335795 1.80138,-0.62911 0.726267,0.0092 1.837824,-0.827299 2.411218,-0.073 0.458321,0.948454 -0.308915,1.80956 -0.790719,2.546741 0.3956,0.250778 0.825955,0.469526 1.036324,0.631502 0.449825,0.391833 1.094052,0.962341 0.686069,1.51462 -0.913305,-0.142584 -1.629514,-0.785738 -2.124754,-1.579264 -0.565831,0.627382 -0.982057,1.295182 -1.597987,1.882891 l -0.114233,-0.0049 z m 0.309341,-0.153227 c -0.06738,-0.04431 -0.02008,0.02659 0,0 z m 3.529885,-0.185469 c -0.01769,-0.03166 -0.04586,0.08593 0,0 z m 0.111098,-0.08267 c -0.06738,-0.04431 -0.02008,0.02659 0,0 z m -0.627999,-0.04787 c -0.03921,-0.05609 -0.0285,0.02725 0,0 z M 50.272261,20.85936 c 0.01692,-0.05027 -0.04353,0.006 0,0 z m 2.016798,-0.675343 c -0.05044,-0.04071 -0.05044,0.04071 0,0 z m -0.09859,-0.03904 c -8.7e-5,-0.04551 -0.04377,0.04352 0,0 z m -0.497516,-0.07336 c -0.01768,-0.03165 -0.04587,0.0859 0,0 z m 1.818691,-0.03708 c -8.03e-4,-0.06712 -0.07359,0.0086 0,0 z m -0.712673,-0.488603 c -0.03921,-0.05609 -0.0285,0.02725 0,0 z m -1.721331,-0.09606 c -0.05889,-0.01455 -0.002,0.0497 0,0 z m 1.530814,-0.0083 c -0.0064,-0.03781 -0.0835,0.0125 0,0 z M 51.28728,19.086523 c -8.7e-5,-0.04551 -0.04377,0.04352 0,0 z m 0.226866,-0.414606 c 0.01692,-0.05027 -0.04353,0.006 0,0 z m 0.273068,-0.488224 c -0.04977,0.0021 0.01458,0.05885 0,0 z m 1.279288,-1.543952 c 0.01692,-0.05027 -0.04353,0.006 0,0 z m -1.050766,-0.10509 c -8.03e-4,-0.06712 -0.07359,0.0086 0,0 z"
         id="path1712"
         sodipodi:nodetypes="cccccccccccsccccccccccccccccccccccccccccccccccccccccccccccccccccccccccccccsccccccccccccccccccccccccccccccccccccccccccccccccccccccccccccccccccccccccccccccccccccccccccccccccccccccccccccccccccccccccccccccccccccccccccccccccccccccccccccccccccccccccccccccccccssccsscccccccccccccccccccccccccccccccccccccccccccccccccccccccccccccccccccccccccccccccccccccccccccccccccccccccccccccccccccccccccccccccccccccccccccccccccccccccccccccccccccccccccccccccccccccccccccccccccccccccccccccccccccccccccccccccccccccccccccccccccccccccccccccccccccccccccccccccccccccccccccccccccccccccccccsccccccccccccccccccccccccccccccccccccccccccccccccccccccccccccccccsscccccccccccccsscssccccccccccccccccccccccssccccccccccccccccccccccccccccccccccccccccccccccccccccccccccccccccccccccccccccccccccccccccccccsscccsscccccccccccccccccccccccssccccccccccssccccccccccccccccccccccccccccccccccccccccccccccccccccccccccccccccccccccccccccccccccccccccccccccccccccccccccccccccccccccccccccccccccccc" /></g></g></svg>
