<?xml version="1.0" encoding="UTF-8" standalone="no"?>
<!-- Created with Inkscape (http://www.inkscape.org/) -->

<svg
   width="100mm"
   height="148mm"
   viewBox="0 0 100 148"
   version="1.1"
   id="svg1"
   inkscape:version="1.4 (86a8ad7, 2024-10-11)"
   sodipodi:docname="Tree.svg"
   xmlns:inkscape="http://www.inkscape.org/namespaces/inkscape"
   xmlns:sodipodi="http://sodipodi.sourceforge.net/DTD/sodipodi-0.dtd"
   xmlns="http://www.w3.org/2000/svg"
   xmlns:svg="http://www.w3.org/2000/svg">
  <sodipodi:namedview
     id="namedview1"
     pagecolor="#ffffff"
     bordercolor="#000000"
     borderopacity="0.25"
     inkscape:showpageshadow="2"
     inkscape:pageopacity="0.0"
     inkscape:pagecheckerboard="0"
     inkscape:deskcolor="#d1d1d1"
     inkscape:document-units="mm"
     showgrid="true"
     inkscape:zoom="4"
     inkscape:cx="229.75"
     inkscape:cy="220.375"
     inkscape:current-layer="svg1">
    <inkscape:grid
       id="grid1"
       units="mm"
       originx="0"
       originy="0"
       spacingx="0.99999986"
       spacingy="1"
       empcolor="#0099e5"
       empopacity="0.30196078"
       color="#0099e5"
       opacity="0.14901961"
       empspacing="5"
       enabled="true"
       visible="true" />
  </sodipodi:namedview>
  <defs
     id="defs1" />
  <g
     inkscape:label="Layer 1"
     inkscape:groupmode="layer"
     id="layer1" />
  <path
     d="m 39.06323,132.76478 v -22.225 l 9.828581,-12.280667 9.512929,-4.170564 5.842976,0.462852 3.001623,1.539116 0.984477,2.326341 -0.367697,1.698552 -1.142378,0.95878 -1.13654,0.25665 -0.853732,-0.35018 -0.372981,-0.44916 m 0.372981,0.44916 -0.538221,0.0604 m 1.391953,0.28978 -0.596131,0.63873 -0.763104,0.1274 -0.571394,-0.27986 -0.360106,-0.44109 m 0.9315,0.72095 -0.443316,0.49166 -0.539758,0.19014 m 1.746178,-0.8092 -0.179973,0.6753 m 1.912644,-1.57068 -0.575712,1.04693 -0.545588,0.44025 -0.556051,0.0627 m 1.101639,-0.50295 -0.109924,0.97348 -0.425001,0.56349 m 0.425001,-0.56349 0.287199,0.79773 0.39342,0.37389 m 1.147395,-4.15081 0.265458,1.19859 -0.328476,0.69048 -0.566696,0.33729 m 0.566696,-0.33729 0.06132,0.61901 m 0.267159,-1.30949 0.561506,0.46493 m -0.459267,-3.362072 1.031769,0.915146 0.229603,0.948556 -0.219578,0.75018 m 0.219578,-0.75018 0.428757,0.34478 m -0.65836,-1.293336 0.973571,0.330277 0.554207,0.630769 0.06784,0.6111 m -0.622051,-1.241869 0.843291,-0.303142 0.40997,-0.594299 0.597328,-0.182555 m -4.840406,-2.491768 1.836591,-0.217284 1.432217,0.40232 0.680792,0.669249 0.215804,0.632422 -0.104199,0.527349 m -0.111605,-1.159771 0.524307,0.111802 m -1.205099,-0.781051 1.114121,-0.349548 0.604794,0.08144 m -0.604794,-0.08144 0.382937,-0.579159 0.511133,-0.247293 m -3.440408,0.77368 1.325143,-0.75817 1.323592,0.228735 0.466215,0.529639 m -0.466215,-0.529639 0.633554,-0.225442 0.313469,-0.427509 m -2.270615,0.424216 0.530343,-0.913853 0.607086,-0.267903 m -0.607086,0.267903 0.04528,-0.535701 m -6.738976,0.885892 2.833371,-1.056913 2.113917,0.521641 0.804988,0.983867 0.185068,0.890617 0.553822,0.598526 0.218783,0.556742 m -0.218783,-0.556742 0.514173,0.138965 m -1.253063,-1.628108 0.707863,0.269879 0.614126,-0.132927 0.422827,-0.371752 m -2.549804,-0.749067 1.590367,-0.56694 1.168417,0.197286 0.561855,0.60188 m -0.561855,-0.60188 0.615831,-0.11978 m -1.784248,-0.07751 0.8618,-0.744321 0.828599,-0.07046 0.528368,-0.377531 m -1.356967,0.447987 0.326527,-0.642824 -0.111256,-0.582099 -0.33028,-0.414323 m -4.451075,2.428866 1.122836,-1.128488 1.145859,-0.225507 0.667376,0.297183 0.295477,0.47855 m -0.962853,-0.775733 0.5942,-0.480915 0.620798,-0.01769 m -2.360857,0.724114 0.549933,-1.241283 0.812161,-0.55984 0.663666,-0.100824 m -0.663666,0.100824 0.30385,-0.632579 0.531217,-0.30578 m -0.531217,0.30578 -0.1183,-0.516918 m -0.997711,1.709337 -0.180853,-0.904015 0.296214,-0.76348 0.456866,-0.445686 0.05783,-0.56408 m -0.810915,1.773246 -0.409867,-0.442922 m -9.758396,4.310769 6.010525,-6.071397 6.155548,-1.705308 4.677491,1.981864 2.20774,3.403255 0.273532,2.416283 -0.600341,2.049565 -1.073786,1.317081 -0.830989,0.394142 -0.448591,0.467088 m 1.27958,-0.86123 -0.336982,1.006714 -0.572628,0.708078 -0.502376,0.175094 m 0.502376,-0.175094 -0.113367,0.579408 m 0.685995,-1.287486 0.06063,0.872015 0.506644,0.557146 0.127465,0.654613 m -0.127465,-0.654613 0.536926,0.131493 m 0.306566,-3.884449 0.300177,1.045058 -0.251059,0.811405 -0.510297,0.51576 m 0.761356,-1.327165 0.452885,0.310372 m -0.152721,-3.404995 0.900591,1.42293 0.237302,1.122823 -0.13216,0.618205 m 0.13216,-0.618205 0.595837,0.642213 0.214272,0.662761 m -0.214272,-0.662761 0.568763,0.104449 m -1.401902,-1.869485 0.807506,0.390882 0.273332,0.554228 0.02662,0.535588 m -0.299948,-1.089816 0.783647,-0.19254 0.660017,0.121498 m -3.425293,-4.159053 2.745056,1.654446 1.318924,1.903374 -0.06208,1.704598 -0.668141,0.761809 -0.622629,0.122319 m 0.622629,-0.122319 -0.257531,0.750453 -0.362031,0.407873 m 0.362031,-0.407873 0.01789,0.572772 m 0.907777,-2.085034 0.629564,1.31989 -0.0202,0.840708 0.286008,0.505554 m -0.265809,-1.346262 0.729913,0.636673 0.155393,0.676399 0.324687,0.480027 m -1.777474,-4.817587 1.510177,0.448494 0.597485,0.707645 0.141451,0.711282 -0.282184,0.523454 m 0.140733,-1.234736 0.521758,0.265989 m -1.119243,-0.973634 1.083561,-0.26618 0.711636,0.300186 0.553528,-0.147103 m -1.265164,-0.153083 0.501313,-0.575998 0.631002,-0.221808 0.546741,0.01781 m -1.177743,0.204 0.01487,-0.657316 0.305867,-0.448672 m -4.734711,-0.403702 2.825287,0.495458 1.338576,1.231818 0.669891,1.302751 -0.205045,1.127565 -0.627886,0.791488 -0.513586,0.193971 m 0.513586,-0.193971 -0.186745,0.846313 -0.551916,0.550744 m 1.366547,-2.188545 0.218078,0.994476 -0.179853,0.702234 -0.389479,0.399905 m 0.389479,-0.399905 0.181941,0.583328 m -0.0021,-1.285562 0.502621,0.439981 m -0.515654,-2.562022 0.988113,0.833011 0.214439,0.638376 -0.112942,0.592009 0.124934,0.516721 m -0.01199,-1.10873 0.472385,0.365382 m -0.686824,-1.003758 0.980913,0.17528 0.542028,0.373652 m -0.542028,-0.373652 0.517301,-0.25861 m -3.156218,-2.052432 1.51616,0.07666 1.090598,0.804806 0.444454,1.046865 -0.244767,0.837543 0.11857,0.713399 m 0.126197,-1.550942 0.818272,0.586382 0.696514,0.0093 0.417763,0.352436 M 88.930961,97.602729 89.44333,97.36186 m -2.471609,-1.401711 0.777849,0.06058 0.438519,0.384142 m -2.306966,-1.249524 1.143265,-0.727992 0.759614,0.09577 0.513205,0.402661 0.169884,0.53326 m -0.683089,-0.935921 0.620105,-0.142478 0.524447,0.08082 m -1.904166,-0.03411 0.636083,-1.013029 0.902114,-0.456846 0.804017,0.09418 m -0.804017,-0.09418 0.456742,-0.550433 m -1.358856,1.007279 -0.09978,-0.932483 0.234446,-0.51446 m -0.234446,0.51446 -0.519134,-0.653161 -0.07717,-0.556184 m -3.938008,2.574373 2.43074,-0.766224 1.688582,0.540772 0.781416,1.083798 0.273886,1.055953 -0.151807,0.553434 m 0.151807,-0.553434 0.685486,0.571207 0.289254,0.620004 0.471514,0.308445 m -0.760768,-0.928449 0.692943,0.01578 m -1.652315,-1.642937 0.770707,0.344021 0.289386,0.445243 m -0.289386,-0.445243 0.664868,-0.171777 0.527975,0.203059 m -2.744966,-1.459101 1.026537,-0.195287 0.718557,0.186359 0.527426,0.364827 m -0.527426,-0.364827 0.574115,-0.168064 m -1.292672,-0.01829 0.689207,-0.555548 0.55772,-0.151074 m -0.55772,0.151074 0.118328,-0.518553 m -3.522654,0.728616 0.866522,-1.194298 0.864558,-0.446598 0.410369,-0.737149 0.514208,-0.242573 m -0.514208,0.242573 0.0082,-0.656426 -0.30982,-0.43411 m -0.973327,2.274283 0.185929,-1.20112 0.514077,-0.837748 0.543461,-0.36628 m -0.543461,0.36628 0.05498,-0.760102 -0.34744,-0.586493 m -0.221616,2.184343 -0.203603,-0.781031 m -11.057671,-1.610486 4.088461,-0.588535 3.035191,0.859252 1.460139,1.69078 0.192482,1.409265 -0.41135,0.734671 -0.495345,0.295626 m 0.906695,-1.030297 0.514574,0.688068 2.71e-4,0.620834 m -2.71e-4,-0.620834 0.664021,0.364289 m -1.371077,-2.461622 1.305413,0.651707 0.653332,0.870972 -0.0014,0.90964 -0.461913,0.57466 -0.535495,0.112872 m 0.997408,-0.687532 0.399263,0.569857 m -0.397849,-1.479497 0.690341,0.246581 0.42221,0.429311 m -0.42221,-0.429311 0.528567,-0.137547 m -1.87224,-0.980006 0.774164,-0.0031 0.590472,0.264611 m -0.590472,-0.264611 0.568555,-0.230657 m -4.108271,-2.108773 2.70039,-0.505751 1.648215,0.336005 0.782039,0.822087 0.275977,0.744116 -0.104304,0.622066 0.203138,0.496757 m -0.09883,-1.118823 0.46619,0.410803 m -0.742167,-1.154919 0.889577,0.254147 0.686185,-0.277322 0.337521,-0.545328 m -2.695322,-0.253584 1.148087,-0.23911 0.679374,0.348726 m -0.679374,-0.348726 0.73862,-0.707108 0.647105,-0.138377 0.525557,0.137987 m -1.172662,3.9e-4 0.355161,-0.828468 0.462744,-0.306492 m -0.462744,0.306492 -0.01255,-0.785612 0.211951,-0.5908 m -0.211951,0.5908 -0.394322,-0.516456 -0.0064,-0.542036 m -3.476795,3.282785 1.180351,-0.927125 1.104165,-0.203268 0.843609,0.201958 0.5267,0.370896 0.176543,0.51258 m -0.703243,-0.883476 0.753811,-0.09714 0.547334,0.31475 m -2.144754,-0.419573 0.649814,-0.554813 0.550524,-0.0055 m -2.304503,0.763586 0.271542,-1.097879 0.435936,-0.518954 0.543264,-0.177788 m -0.9792,0.696742 -0.161471,-0.999666 0.136485,-0.59277 -0.08709,-0.522339 m -0.0494,1.115109 -0.526347,-0.696325 -0.115615,-0.62494 m 0.115615,0.62494 -0.752295,-0.188652 m -5.747361,3.556146 2.425649,-2.556983 2.560139,-0.306994 1.479374,0.374821 0.661192,0.508458 0.242868,0.648264 m -0.242868,-0.648264 0.656993,0.08012 m -1.318185,-0.588575 0.947205,-0.245963 0.608193,0.114047 0.419003,0.339946 m -1.027196,-0.453993 0.508869,-0.519605 0.595504,-0.19427 0.541755,0.0981 m -4.072707,0.486913 1.150478,-1.188351 1.056394,-0.356461 0.779023,0.113499 0.415506,0.416509 m -0.415506,-0.416509 0.635078,-0.263429 m -1.414101,0.14993 0.531752,-0.745184 0.676733,-0.179539 m -0.676733,0.179539 0.192024,-0.727614 0.449305,-0.438785 m -2.229475,2.268044 0.183018,-1.22147 0.732271,-0.758963 0.852744,-0.130235 0.618751,-0.38592 0.558529,-0.02219 m -0.558529,0.02219 0.332878,-0.485271 m -1.804373,1.001426 0.309274,-0.720819 m -1.041545,1.479782 -0.415978,-0.737428 -0.569518,-0.253073 m -2.908139,3.707316 0.317565,-1.898006 0.842573,-0.844946 0.91013,-0.113286 0.557083,0.248712 0.547048,0.0078 m -1.104131,-0.256481 0.624966,-0.424594 0.552432,-0.04973 m -0.552432,0.04973 0.319519,-0.498852 m -1.854615,1.036732 0.2444,-0.875929 0.412861,-0.396282 m -0.412861,0.396282 -0.108414,-0.612826 -0.297312,-0.473448 m -0.681247,2.807149 -0.795577,-1.427114 -0.138835,-1.012326 0.35588,-0.711604 0.553776,-0.422026 m -0.553776,0.422026 -0.09999,-0.616914 m -0.11706,2.340844 -1.322905,-0.637881 -0.655267,-0.962903 -0.239837,-0.982642 0.23669,-0.505988 m -0.23669,0.505988 -0.463146,-0.605472 -0.651141,-0.184253 -0.356131,-0.482053 m 1.710255,2.25442 -0.525374,-0.344234 m 1.180641,1.307137 -0.975642,0.07811 -0.832383,-0.243003 -0.448464,-0.445434 -0.518616,-0.159259 m 0.96708,0.604693 -0.561673,0.05892 m 1.394056,0.184081 -0.634632,0.338295 -0.543455,-0.01545 m -7.236955,4.725696 3.236537,-3.474775 4.207409,-0.677258 3.084259,1.613758 1.560226,2.60784 0.269424,1.920762 -0.757231,1.368865 -0.711771,0.470505 -0.721909,0.01368 m 0.721909,-0.01368 -0.421191,0.630095 -0.6268,0.19627 -0.559212,-0.16623 m 0.559212,0.16623 -0.433072,0.370511 m 2.192834,-1.667381 0.05068,1.172538 -0.438637,0.842104 -0.49927,0.388346 m 0.937907,-1.23045 0.492562,0.585495 0.60491,0.221961 m -0.39092,-3.348859 0.689188,1.097708 0.142398,0.874613 -0.221635,0.613726 -0.386925,0.371535 m 0.386925,-0.371535 0.01838,0.554324 m 0.20326,-1.16805 0.389114,0.664575 -0.05903,0.543942 m 0.05903,-0.543942 0.478958,0.273905 m -1.01047,-1.813093 1.087933,0.418868 0.400527,0.615875 0.09321,0.634858 m -0.49374,-1.250733 0.77812,-0.155162 0.613546,0.2811 0.271787,0.488557 m -3.709998,-4.051833 2.195541,1.181407 0.538014,1.191635 -0.115563,0.736394 m 0.115563,-0.736394 0.539173,0.437967 m -1.077187,-1.629602 1.703105,-0.297962 0.988629,0.189223 0.64121,0.485637 0.321977,0.626919 m -0.321977,-0.626919 0.665529,0.03147 0.485543,0.347461 M 88.853258,87.971179 89.37728,87.68526 m -1.830761,-0.231183 0.867502,-0.149169 0.599758,0.34818 m -0.599758,-0.34818 0.363218,-0.423906 m -2.219349,0.383852 0.814387,-0.62601 0.744802,-0.123428 0.525327,0.101178 m -1.270129,0.02225 0.24756,-0.656451 -0.175202,-0.550527 m -6.345617,-1.658297 1.85569,0.08128 1.135236,0.644323 0.509787,0.770304 m -0.509787,-0.770304 1.073101,0.03499 0.744101,0.413749 0.259152,0.516496 m -0.259152,-0.516496 0.634619,0.02977 m -1.37872,-0.443518 0.528321,-0.337658 0.547491,0.01117 M 85.691366,84.1965 85.98196,83.728683 m -3.027252,0.126164 1.335913,-0.977967 1.225707,-0.236845 0.989096,0.224363 0.438078,0.54994 0.538062,0.144165 m -0.97614,-0.694105 0.612293,-0.214288 m -1.601389,-0.01008 0.48294,-0.439911 m -1.708647,0.676756 0.422808,-0.904856 0.697192,-0.37755 m -0.697192,0.37755 -0.195337,-0.851142 0.201534,-0.609613 0.374084,-0.392767 m -7.078951,2.041309 2.43723,-2.239246 1.675204,-0.233237 1.09763,0.302993 0.585089,0.631921 0.158515,0.579695 m -0.158515,-0.579695 0.674925,0.182957 0.36605,0.50467 m -1.626064,-1.319548 0.81983,-0.276745 0.592116,0.203024 m -0.592116,-0.203024 0.496946,-0.485049 0.116686,-0.587374 m -2.531092,1.046175 1.094818,-0.710552 0.981989,0.02537 0.457348,-0.341857 m -1.439337,0.316485 0.506764,-0.848901 0.532105,-0.385992 m -0.532105,0.385992 0.03178,-0.808544 0.248428,-0.501954 m -0.248428,0.501954 -0.282318,-0.503764 m -3.02625,3.104998 0.487207,-2.562831 1.597767,-1.499406 1.776751,-0.743418 1.231433,0.211319 0.792515,0.734134 0.368772,0.786919 m -0.368772,-0.786919 0.622008,0.249615 m -1.414523,-0.983749 0.713662,-0.131865 0.567946,0.286149 m -0.567946,-0.286149 0.422146,-0.320151 m -2.367241,0.240697 0.631261,-1.205228 0.958134,-0.630239 0.780912,-0.12366 0.529054,0.203623 m -1.309966,-0.07996 0.570598,-0.81299 0.506759,-0.243948 m -0.506759,0.243948 0.08574,-0.714309 m -1.614474,2.157538 -0.116973,-1.167072 0.386022,-0.761464 0.466879,-0.366418 m -0.466879,0.366418 -0.0048,-0.60246 -0.258737,-0.471857 m -0.122448,1.835781 -0.626684,-0.697692 -0.114333,-0.801639 0.298553,-0.663303 0.493964,-0.42285 m -0.792517,1.086153 -0.454072,-0.495643 m 0.568405,1.297282 -0.655319,-0.259588 -0.619342,0.08789 m -0.389694,3.985109 0.81049,-1.790029 1.313305,-1.176772 1.315659,-0.286919 0.985213,0.334687 0.603511,0.667369 0.111672,0.788037 -0.240014,0.586292 -0.372497,0.388591 m 0.500839,-1.76292 0.704814,0.189604 m -1.308325,-0.856973 0.71163,-0.191013 0.333006,-0.445132 m -2.029849,0.301458 0.555387,-0.509865 m -1.871046,0.796784 0.197937,-1.23906 0.466173,-0.546708 0.556435,-0.101664 M 84.858695,71.652467 84.59411,70.62447 84.912531,69.838724 85.483363,69.41554 M 84.59411,70.62447 83.915588,70.051119 83.35704,69.948934 m -0.0096,4.119365 0.05103,-1.560116 0.636247,-1.168238 0.660055,-0.56541 0.232645,-0.492366 m -0.8927,1.057776 0.01047,-0.91617 0.222503,-0.500344 m -0.869223,2.584752 -0.35026,-0.7785 0.116073,-0.535795 m -2.225101,6.163846 -0.319449,-1.390099 0.444012,-0.879371 0.555106,-0.429098 m -0.555106,0.429098 0.0043,-0.711475 0.335576,-0.45954 m -0.335576,0.45954 -0.248646,-0.558098 -0.477223,-0.237161 m 0.277602,2.386105 -0.54337,-0.750916 0.01014,-0.795199 0.29987,-0.574971 m -0.310005,1.37017 -0.685035,-0.395959 m -5.583992,8.016309 0.445698,-4.184657 1.719361,-2.064103 2.315231,-0.504135 1.379622,0.612143 0.715143,0.997406 0.244463,0.92862 -0.08544,0.580558 m 0.08544,-0.580558 0.498607,0.460762 0.26058,0.551218 0.472186,0.257068 m -1.475836,-2.197668 0.607095,0.287431 0.285385,0.458602 m -0.285385,-0.458602 0.600753,-0.0549 m -1.922991,-1.22994 0.856305,-0.0938 0.613562,0.232722 0.336854,0.446188 m -3.186343,-1.197257 1.217765,-0.881434 0.82173,-0.148207 0.669156,0.283251 0.258794,0.477987 m -0.258794,-0.477987 0.533182,-0.01416 m -1.202338,-0.269087 0.492595,-0.543085 0.625244,-0.169859 m -1.939569,0.861151 0.289429,-1.046618 0.680415,-0.562022 0.756221,-0.166353 0.456629,-0.315307 m -1.21285,0.48166 0.279602,-0.497405 m -0.960017,1.059427 -0.19981,-0.843901 0.138365,-0.766971 0.332854,-0.455831 m -0.332854,0.455831 -0.194677,-0.624041 -0.341383,-0.406385 m 0.397695,1.797397 -0.580489,-0.49141 m -3.042126,3.767498 0.189473,-2.251423 1.331368,-1.490506 1.42833,-0.499318 1.25445,0.05021 0.777699,0.502604 0.427798,0.642841 m -0.427798,-0.642841 0.584889,0.06953 m -1.362588,-0.572133 0.723867,-0.384119 0.649027,0.0016 m -0.649027,-0.0016 0.417248,-0.54493 m -2.395565,0.878838 0.580429,-0.563772 0.249451,-0.527603 m -2.25821,1.590693 0.357886,-1.173661 0.484361,-0.597378 0.565745,-0.18423 m -1.050106,0.781608 -0.05912,-0.826333 0.244701,-0.485585 m -0.244701,0.485585 -0.35962,-0.492718 m -1.270511,3.983218 -0.774187,-1.152356 -0.03154,-0.846789 -0.293865,-0.476314 m 0.325405,1.323103 -0.861235,-0.587464 -0.326547,-0.651288 -0.064,-0.613104 m 0.390545,1.264392 -0.58972,0.02645 m 0.316308,6.028893 -1.646773,-2.863875 0.147398,-1.656678 0.67379,-1.229145 0.929136,-0.361906 0.857803,0.03109 0.499048,0.263467 m -0.499048,-0.263467 0.613627,-0.231077 m -2.400566,0.561892 0.14516,-1.103696 0.47193,-0.571692 0.528469,-0.138431 m -1.000399,0.710123 -0.347816,-0.816092 -0.02066,-0.723949 0.250611,-0.518813 m -0.250611,0.518813 -0.257198,-0.597519 -0.452796,-0.29168 m 0.73065,1.613148 -0.389966,-0.37579 m -0.08117,3.524723 -0.383944,-0.978349 0.06468,-0.720476 m -0.06468,0.720476 -0.766317,-0.491402 -0.220057,-0.704317 -0.486699,-0.350562 m 0.706756,1.054879 -0.68626,-0.0333 m 1.689123,3.159731 -1.672678,-0.616777 -0.818755,-0.742401 -0.140723,-0.649354 -0.403428,-0.354619 m 0.544151,1.003973 -0.759149,-0.19596 -0.4394,-0.497996 m 0.4394,0.497996 -0.625753,0.227822 m 2.203657,0.710539 -0.949558,0.05158 -0.591734,-0.197381 m 0.591734,0.197381 -0.559497,0.521385 -0.555103,0.09723 m 0.555103,-0.09723 -0.102056,0.636607 m -4.907221,11.635823 2.006149,-5.309744 3.333117,-2.365972 2.368764,-0.133585 1.921304,0.889592 0.761745,1.540898 -0.247114,1.359603 -0.558247,0.645904 -0.510188,0.155128 m 0.510188,-0.155128 -0.229478,0.650917 -0.422941,0.402547 m 0.422941,-0.402547 0.109455,0.608114 0.379315,0.401224 m 0.298955,-2.306159 0.514959,1.072506 0.03036,0.839166 0.224412,0.550175 m -0.254768,-1.389341 0.813001,0.522898 0.730526,0.158689 m -1.811372,-3.113696 0.936341,0.490252 0.26235,0.508768 m -0.26235,-0.508768 0.74661,0.0606 0.55993,-0.367828 m -3.004626,-1.723921 1.608963,-0.162218 1.2839,0.418103 0.592931,0.483138 m -0.592931,-0.483138 0.901693,-0.06214 0.62865,-0.390031 0.634078,6.87e-4 m -0.634078,-6.87e-4 0.312642,-0.569946 m -3.126885,0.604018 1.133957,-0.829297 0.739562,0.02425 0.486397,0.364294 m -0.486397,-0.364294 0.520765,-0.250746 m -1.260327,0.226495 0.405324,-1.042808 0.665298,-0.408737 m -0.665298,0.408737 -0.101132,-0.692494 0.229873,-0.523761 m -0.229873,0.523761 -0.410474,-0.40953 m -4.557942,2.246755 1.197724,-0.546785 0.971353,0.14736 0.481995,0.270274 m -0.481995,-0.270274 0.60515,-0.306951 0.265402,-0.529993 m -1.841905,0.689584 0.471742,-0.895049 0.5001,-0.411858 m -0.5001,0.411858 -0.07485,-0.628598 m -3.963375,2.204017 0.988749,-3.454237 1.298449,-1.547072 1.615206,-0.680572 1.439888,-0.01225 0.737656,0.490112 0.20544,0.655426 0.33991,0.44409 m -1.283006,-1.589628 0.822213,-0.64415 0.847078,-0.184835 0.647732,0.12725 m -0.647732,-0.12725 0.486533,-0.335358 m -1.333611,0.520193 0.234826,-0.607455 m -2.496927,1.263853 0.744774,-0.970047 0.912994,-0.289336 0.748112,0.127985 m -0.748112,-0.127985 0.372111,-0.514466 m -1.285105,0.803802 -0.02325,-0.633722 m -2.336726,2.284341 0.288815,-1.104085 0.70271,-0.54222 0.755348,-0.05994 m -1.458058,0.60216 -0.107491,-0.562968 m -1.479773,3.214125 -0.474662,-1.965447 0.229889,-1.120476 0.488615,-0.429062 0.248557,-0.50045 m -0.737172,0.929512 -0.18751,-0.634914 0.05403,-0.543299 m -0.09641,2.298689 -1.001306,-1.014214 -0.119573,-1.081316 0.279007,-0.808467 0.413407,-0.490884 0.491541,-0.270532 M 69.147739,72.826222 68.77933,72.24832 m 0.487982,1.659218 -1.037162,-0.147185 -0.600418,-0.350129 -0.337774,-0.420561 m 0.938192,0.77069 -0.569112,0.243353 m -1.239624,8.703702 -0.756757,-4.827729 1.767891,-3.993512 3.236111,-1.738569 2.906293,0.500152 1.412967,1.488987 0.349494,1.407101 -0.146673,0.938814 -0.352725,0.613505 m 0.352725,-0.613505 0.107698,0.526505 m 0.03897,-1.465319 0.90734,0.932194 0.342769,0.903166 -0.140621,0.512384 m 0.140621,-0.512384 0.442622,0.484588 m -0.785391,-1.387754 0.756535,0.227102 0.434065,0.408815 m -2.447434,-2.975212 1.080957,0.240918 0.591466,0.703972 0.09429,0.688447 0.38845,0.44023 m -1.074207,-1.832649 0.949349,-0.243075 0.809745,0.08067 0.490338,0.460663 m -1.300083,-0.541334 0.377522,-0.514675 m -3.820795,-0.972155 2.372234,-0.556541 1.733257,0.39023 1.070523,0.899464 0.33382,0.967546 -0.06958,0.880198 0.340045,0.603686 -0.105441,0.573648 m -0.165026,-2.057532 0.360422,0.388289 m -0.694242,-1.355835 0.703265,0.1945 0.52462,-0.197197 m -2.298408,-0.896767 1.324914,-0.248894 1.048134,0.587827 0.414807,0.508314 0.09235,0.527732 m -0.507153,-1.036046 0.948552,0.04226 0.555031,0.341047 0.578232,-0.06407 m -1.133263,-0.276975 0.667348,-0.241626 0.5974,0.06932 m -0.5974,-0.06932 0.433114,-0.443907 0.519587,-0.155084 m -3.616735,0.210531 0.682692,-0.691946 0.566413,-0.08317 m -0.566413,0.08317 0.140771,-0.790791 0.313311,-0.447189 m -4.194945,1.78859 1.341738,-1.265523 0.954498,-0.142877 0.656793,0.276204 m -0.656793,-0.276204 0.681999,-0.439663 0.709294,0.08012 m -0.709294,-0.08012 0.205414,-0.593911 0.383498,-0.37759 m -2.225409,1.554041 0.234749,-1.074853 0.575693,-0.639023 0.514709,-0.146874 m -0.514709,0.146874 0.06297,-0.582767 m -0.638668,1.22179 -0.106262,-0.605568 m -6.748752,3.002333 1.380488,-2.639908 1.239308,-0.943471 1.09642,-0.01797 0.490311,0.297973 m -0.490311,-0.297973 0.59626,-0.298738 0.552545,0.04535 m -2.245225,0.271359 0.283566,-0.817813 0.562768,-0.425888 0.290369,-0.523148 m -2.376011,2.71032 0.28532,-2.633867 1.202843,-1.244414 0.878122,-0.280143 0.763056,0.201282 0.441451,0.377819 m -0.441451,-0.377819 0.531368,-0.170846 m -2.172546,0.249707 0.08948,-0.86147 -0.194885,-0.650279 m -1.097442,2.756163 -0.608512,-1.871726 0.234944,-1.410398 0.553678,-0.883857 0.593993,-0.308055 m -0.593993,0.308055 0.105921,-0.824728 0.383975,-0.409517 m -0.383975,0.409517 -0.171544,-0.581979 m -0.488055,2.290564 -0.445261,-1.132291 0.136727,-0.623518 m -0.136727,0.623518 -0.630699,-0.514201 -0.10949,-0.521424 m 0.950506,3.578314 -0.875463,-0.566895 -0.283699,-0.676453 m 0.283699,0.676453 -0.587627,0.01498 m -2.830317,9.435984 -0.556996,-3.408303 1.201657,-2.723739 1.54816,-1.325098 1.34486,-0.07745 0.608948,0.365322 m -0.608948,-0.365322 0.870292,-0.714573 0.850628,-0.161285 0.383502,-0.406719 m -1.23413,0.568004 0.323846,-0.658525 m -2.538998,1.450551 0.719333,-1.344669 0.657178,-0.532058 0.569254,-0.07678 m -1.226432,0.608842 0.160587,-1.333134 0.717708,-0.726565 0.14819,-0.538031 m -0.865898,1.264596 -0.227733,-0.95149 0.254678,-0.670253 m -0.254678,0.670253 -0.304743,-0.439652 m -1.895604,5.394043 -0.362636,-2.141788 0.343291,-1.390404 0.453546,-0.621053 m -0.453546,0.621053 -0.232656,-0.702252 0.192484,-0.550604 m -0.303119,2.64326 -0.793599,-0.882902 -0.05406,-0.601405 m 0.05406,0.601405 -0.863679,-0.163851 -0.570778,-0.479309 m 0.570778,0.479309 -0.545334,0.128971 m 1.363591,5.783309 -1.379459,-1.902363 -0.134814,-1.289672 0.456963,-0.924503 0.665035,-0.33779 0.385241,-0.543422 m -1.050276,0.881212 -0.03711,-0.661304 m -0.419853,1.585807 -0.514896,-0.673228 -0.07601,-0.608042 0.196617,-0.496579 m -0.120609,1.104621 -0.700671,-0.287149 -0.592993,0.125615 m 1.943374,2.124434 -1.300913,-0.435996 -0.840194,-0.701993 -0.162069,-0.724959 0.223524,-0.532698 m -0.223524,0.532698 -0.440607,-0.492934 -0.520541,-0.103678 m 1.123217,1.321571 -0.64241,-0.07863 m 1.482604,0.780625 -1.143016,0.121324 -0.806587,-0.480238 -0.245535,-0.63826 m 0.245535,0.63826 -0.704873,-0.06921 -0.525807,0.288331 m 2.037267,0.261121 -0.609215,0.542017 -0.646253,0.04502 -0.509525,-0.262502 m 4.377486,9.294318 -2.786782,-3.289813 -0.442822,-3.623417 0.730953,-2.500376 1.584945,-1.64372 1.504869,-0.416394 0.956649,0.09785 0.4761,0.434409 m -0.4761,-0.434409 0.585701,-0.317163 0.546319,0.04073 m -0.546319,-0.04073 0.255452,-0.52051 m -1.797802,0.739819 0.924386,-0.840211 0.661612,-0.215971 0.577646,0.231989 0.527963,-0.153414 m -1.767221,0.137396 0.405729,-0.927386 0.462676,-0.393683 0.519746,-0.114811 m -0.982422,0.508494 -0.175762,-0.63874 m -2.659222,2.822731 0.278349,-1.51328 0.957067,-0.910764 0.816543,-0.180971 0.704854,0.215908 m -0.704854,-0.215908 0.395736,-0.474105 m -1.212279,0.655076 0.122497,-1.074542 0.611522,-0.685734 0.497766,-0.199679 m -0.497766,0.199679 0.225661,-0.720441 -0.04683,-0.546557 m -0.790355,1.952732 -0.448342,-0.839422 0.120113,-0.608351 m -0.120113,0.608351 -0.676251,-0.308232 -0.533217,-0.02467 m 0.578246,3.15763 -0.178137,-0.946139 -0.368516,-0.442627 m -1.316641,4.545766 -0.662242,-1.544341 0.181448,-1.125327 0.320249,-0.507234 M 62.685212,65.796405 62.52232,64.989422 62.038821,64.573213 61.776962,64.07517 m 0.261859,0.498043 -0.547366,-0.04906 m 1.012309,2.397578 -1.293456,-0.772924 -0.494649,-0.923253 -0.04904,-0.845438 0.332408,-0.644786 0.549149,-0.28354 0.553638,0.0119 m -1.102787,0.271635 -0.04106,-0.617593 0.171581,-0.506723 m -0.413888,2.61454 -0.462983,-0.386995 m 0.957632,1.310248 -0.879118,0.02323 -0.441585,0.373302 m 2.545448,4.421108 -1.98932,-2.142805 -0.387025,-2.26064 0.538071,-1.67571 0.90005,-1.000415 0.972942,-0.458094 0.552257,0.01239 m -0.552257,-0.01239 0.273139,-0.524321 m -1.246081,0.982415 0.201012,-1.046835 0.722255,-0.610105 0.663786,-0.233264 0.601982,0.190184 m -1.265768,0.04308 0.266571,-0.483502 m -0.988826,1.093607 -0.242233,-0.736508 0.05625,-0.69445 0.246521,-0.493639 m -1.161601,3.971847 -0.208401,-1.404578 0.524522,-1.006485 0.519689,-0.295081 m -0.519689,0.295081 -0.19374,-0.938552 0.289957,-0.658575 m -0.289957,0.658575 -0.628899,-0.546591 -0.208446,-0.713826 m 0.506563,3.205454 -0.393371,-0.665515 -0.04766,-0.612229 m 0.04766,0.612229 -0.496582,-0.183294 m 0.560283,3.929097 -0.940977,-1.058613 -0.381242,-1.0932 0.101058,-0.657681 -0.209768,-0.492948 m 0.10871,1.150629 -0.406382,-0.465821 m 0.787624,1.559021 -1.020635,-0.469998 -0.434885,-0.490518 m 0.434885,0.490518 -0.81931,-0.06502 -0.508858,0.190748 m 3.676805,3.663519 -2.30636,-0.699241 -0.996416,-1.30922 -0.309494,-1.266349 0.250673,-1.0975 0.536529,-0.459946 0.57407,-0.07483 m -1.110599,0.534775 -0.205152,-0.637012 -0.439919,-0.315606 m 0.394398,2.050118 -0.505848,-0.455708 -0.573956,-0.04408 m 1.389298,1.766136 -0.926232,-0.220664 -0.498442,-0.570575 m 0.498442,0.570575 -0.702147,0.132745 -0.483046,0.39031 m 3.107841,1.006829 -1.540855,0.233408 -0.80848,-0.369373 -0.385389,-0.682378 -0.538807,-0.366335 m 1.732676,1.418086 -0.9497,0.610256 -0.708063,0.06493 -0.554352,-0.20759 m 1.262415,0.142661 -0.471433,0.693624 -0.700983,0.207305 -0.557942,-0.147993 m 0.557942,0.147993 -0.364088,0.390344 m 8.765561,4.330526 -2.068871,-0.719747 -0.76336,-0.867957 -0.0576,-0.632134 m 0.0576,0.632134 -0.573066,-0.133285 m 1.336426,1.001242 -1.735569,0.393962 -1.276915,-0.514112 -0.509346,-0.537357 -0.129785,-0.646133 m 0.129785,0.646133 -0.656019,-0.101907 m 1.165365,0.639264 -0.845913,0.14191 m 2.122828,0.372202 -0.871832,0.991545 -0.863103,0.252342 -0.64162,-0.164753 m 0.64162,0.164753 -0.506688,0.528942 -0.605925,0.07083 m 0.605925,-0.07083 -0.111673,0.595023 m 1.481464,-1.376307 -0.128385,1.074134 -0.394993,0.438003 m 0.394993,-0.438003 0.243342,0.786236 -0.153276,0.627324 m 0.153276,-0.627324 0.614137,0.408739 0.541004,0.01482 m -10.57989,20.719554 3.655358,-11.596336 8.058504,-7.393232 6.680098,-2.69469 4.276113,0.355072 2.964531,2.138282 0.519022,1.775213 -0.585265,1.368626 -0.694411,0.561548 -0.571265,0.01872 m 0.571265,-0.01872 -0.266095,0.553888 m 0.960506,-1.115436 0.115378,0.953153 -0.200835,0.719867 -0.379373,0.437968 m 0.580208,-1.157835 0.49148,0.526586 m -0.02159,-2.848365 0.800907,1.024991 0.23714,0.788406 -0.245164,0.639828 m 0.245164,-0.639828 0.439834,0.496854 m -0.676974,-1.28526 0.648884,0.30403 m -1.968813,-3.104234 2.433107,0.650579 1.700362,1.461225 0.647148,1.163648 0.04127,1.059339 -0.330606,0.453781 m 0.330606,-0.453781 0.337389,0.80056 -0.195398,0.728024 -0.480844,0.374043 m 0.676242,-1.102067 0.566595,0.503135 m -0.945258,-2.363034 0.675651,0.531124 0.665187,0.0095 m -1.987986,-1.704298 1.326649,0.395579 0.615595,0.561135 m -0.615595,-0.561135 0.876851,-0.264002 m -3.903862,-1.592802 1.809417,-0.539512 1.009922,0.290973 0.422273,0.323602 m -0.422273,-0.323602 0.523404,-0.109872 m -1.533326,-0.181101 0.844864,-0.727731 0.659071,-0.244864 m -0.659071,0.244864 0.175486,-0.896042 0.459006,-0.578423 0.534294,-0.134097 m -0.534294,0.134097 0.05335,-0.565301 m -0.512356,1.143724 -0.138582,-0.626747 0.202023,-0.520296 m -0.202023,0.520296 -0.386098,-0.377025 m -7.702725,0.378196 3.575354,-1.302441 2.835424,0.232979 1.569351,1.523034 0.776173,1.758147 -0.327643,1.618629 -0.827354,1.027182 -0.620921,0.252304 m 0.620921,-0.252304 -0.113603,0.934729 -0.488579,0.637574 -0.622674,0.289974 m 1.111253,-0.927548 0.145077,0.582184 m 0.79588,-2.544095 0.262672,0.785359 0.420521,0.48877 m -0.35555,-2.892758 1.2851,0.916065 0.452729,0.907189 -0.13464,0.626948 m 0.13464,-0.626948 0.726792,0.340003 0.428959,0.541875 0.128309,0.601839 m -0.128309,-0.601839 0.573699,0.193705 m -2.182179,-1.982772 0.991287,0.07452 0.53803,0.48819 0.5201,0.196334 m -1.05813,-0.684524 0.736028,-0.30554 0.673605,0.07377 m -0.673605,-0.07377 0.32935,-0.613583 m -4.117938,-1.829608 1.383107,0.371135 0.585864,0.740105 -0.0054,0.580465 m 0.0054,-0.580465 0.520418,0.26356 m -1.106282,-1.003665 0.812473,-0.151015 0.708376,0.169129 0.342404,0.428253 m -1.05078,-0.597382 0.427353,-0.442339 0.199682,-0.497074 m -4.391966,-0.803741 2.174902,-0.828488 1.209409,0.255992 0.513604,0.609463 0.207281,0.605938 0.383343,0.365062 m -1.104228,-1.580463 0.682023,-0.215462 m -1.891432,-0.04053 1.148306,-1.680625 1.677988,-0.52821 1.337209,0.479221 0.82233,0.884817 0.188634,0.674049 -0.166733,0.591512 -0.443526,0.323441 m 0.443526,-0.323441 0.154266,0.531141 m 0.01247,-1.122653 0.411065,0.3485 m -0.599699,-1.022549 0.911036,0.35829 0.453415,0.411326 m -0.453415,-0.411326 0.570222,-0.14954 m -2.303588,-1.093567 1.227699,-0.0076 0.662758,0.347639 0.618196,-0.121291 m -1.280954,-0.226348 0.700959,-0.288927 0.629368,0.170664 0.504623,-0.170446 m -4.399858,-0.182903 0.751972,-0.630608 0.66621,-0.216664 0.300678,-0.477616 m -0.966888,0.69428 0.377941,-0.728978 0.548611,-0.425781 0.265869,-0.529188 m -0.81448,0.954969 0.02987,-0.686773 m -2.837774,2.574569 -0.02563,-1.625604 0.458501,-1.25494 0.885407,-0.582905 0.855194,0.09849 0.499276,-0.256817 m -1.35447,0.158329 0.344655,-0.842927 0.501219,-0.47813 m -0.501219,0.47813 -0.09567,-0.696824 0.118139,-0.527965 m -1.252534,2.650621 -0.06224,-0.829576 0.234293,-0.634848 -0.02157,-0.585433 M 81.6665,69.641232 81.206441,69.104303 m 0.0638,2.621445 -0.764937,-1.06053 -0.16798,-0.960583 0.23146,-0.520178 m -0.23146,0.520178 -0.624399,-0.541764 -0.112545,-0.575732 m 0.112545,0.575732 -0.658753,-0.02563 -0.547188,0.218488 m 1.99832,1.309485 -0.949699,-0.380892 -0.431023,-0.596138 -0.605525,-0.171889 m 1.036548,0.768027 -0.670985,0.161327 -0.397808,0.349754 m -3.34957,4.832079 1.613846,-2.39911 1.439769,-0.611313 1.336037,-0.03753 0.906106,0.384817 0.816584,0.01696 0.520058,-0.256931 m -2.242748,-0.144848 0.674093,-0.467556 0.342433,-0.565213 m -2.352563,1.070296 0.707819,-0.775923 0.699813,-0.236154 0.362564,-0.426922 m -1.062377,0.663076 0.178864,-0.508493 m -2.326452,1.895729 0.08307,-2.279653 0.779071,-1.099904 0.942556,-0.510098 0.902499,-0.08324 0.652577,-0.390166 0.296255,-0.477092 m -1.851331,0.950493 0.396544,-0.858618 0.615422,-0.525036 0.629764,-0.150303 m -0.629764,0.150303 0.219853,-0.684055 0.426701,-0.428172 m -0.426701,0.428172 -0.175026,-0.503648 m -0.660249,1.712739 0.04211,-0.741065 0.391634,-0.508101 m -1.772846,2.617882 -0.04901,-0.708275 0.330853,-0.50407 m -0.330853,0.50407 -0.344044,-0.497341 m -0.386014,2.30552 -0.586543,-1.779069 0.203682,-0.924258 0.571369,-0.494336 0.21907,-0.569994 m -0.790439,1.06433 -0.181725,-0.760099 0.08482,-0.688628 m -0.08482,0.688628 -0.491005,-0.433293 -0.536554,-0.04333 m 1.005602,2.160978 -0.62996,-0.749088 -0.149439,-0.704487 m 0.149439,0.704487 -0.673035,-0.164069 -0.568229,0.179641 m -7.090613,8.138717 3.916624,-4.151139 4.594264,-1.907248 3.196215,0.570582 2.27448,1.364909 1.079922,1.812779 -0.135482,1.779067 -0.780005,1.168112 -0.981629,0.623286 -0.837058,-0.104948 -0.610866,-0.354608 -0.20942,-0.521883 m 1.657344,0.981439 -0.461248,0.662751 -0.5248,0.32567 -0.541831,0.08442 m 1.066631,-0.410085 0.04467,0.57957 m 1.398211,-1.865607 0.02888,1.109497 -0.389974,0.816103 -0.688362,0.343787 -0.364515,0.452744 m 1.442851,-1.612634 0.422857,0.559507 0.579651,0.144117 m -0.251386,-2.981233 0.674517,1.446578 -0.07199,1.028326 -0.582449,0.674284 -0.771627,0.20687 -0.358468,0.418584 m 1.130095,-0.625454 -0.128686,0.735668 -0.449991,0.393518 m 0.449991,-0.393518 0.152527,0.629935 -0.134028,0.53609 m 0.692636,-2.575977 0.321437,0.644333 -0.02437,0.616152 m 0.02437,-0.616152 0.52175,0.374469 0.299359,0.492787 m -1.070554,-2.539915 0.937225,0.438448 0.477576,0.760213 0.101848,0.641025 m -0.101848,-0.641025 0.459792,0.307001 m -0.937368,-1.067214 0.912101,-1e-4 0.559066,-0.26903 m -2.947427,-3.394963 1.079893,0.593732 0.329007,0.553224 m -0.329007,-0.553224 0.725024,-0.07404 0.597842,0.174476 m -0.597842,-0.174476 0.463214,-0.317595 m -3.348053,-2.014876 1.829497,-0.195748 1.109611,0.394282 0.389405,0.617762 -0.02873,0.538065 m 0.02873,-0.538065 0.501874,0.273674 m -0.891279,-0.891436 0.845232,-0.21677 0.647074,0.192856 0.545432,-0.128028 m -1.192506,-0.06483 0.493484,-0.416029 m -2.448327,0.238517 1.008697,-0.92858 0.911438,-0.04235 0.577897,-0.438202 0.618513,0.02536 m -2.107848,0.455192 0.242005,-0.726895 m -5.354679,0.486314 1.757955,-0.502534 1.437856,0.629688 0.566061,1.075975 -0.1443,0.718843 -0.422498,0.487354 m 0.566798,-1.206197 0.780339,0.417189 0.559371,-0.07111 m -1.905771,-1.422057 1.326899,-0.209925 0.932342,0.533719 0.519549,0.781616 0.09697,0.632468 m -0.616518,-1.414084 0.69477,0.05734 m -1.627112,-0.591062 0.729543,-0.568531 0.760603,-0.09004 0.50509,-0.303819 m -1.265693,0.393862 0.331699,-0.559983 m -3.825997,0.708751 0.998518,-1.029383 1.067642,-0.162357 0.824286,0.183114 0.588585,0.401039 m -0.588585,-0.401039 0.633493,-0.311057 0.537179,-0.0196 m -1.994958,0.14754 0.671377,-0.605623 0.623365,-0.196063 m -0.623365,0.196063 0.232826,-0.729414 0.359663,-0.42767 m -2.331508,1.925064 0.332293,-1.029577 0.642409,-0.578982 0.715836,-0.08804 0.523819,0.300186 m -0.523819,-0.300186 0.524043,-0.379822 0.276658,-0.486797 m -1.516537,0.954663 0.149018,-0.65469 m -0.791427,1.233672 -0.242224,-0.79417 -0.533337,-0.368597 m -5.50942,3.153679 2.97386,-2.85525 3.115734,-1.079954 2.223408,0.838587 0.942504,1.591105 -0.162761,1.125761 -0.532453,0.657271 -0.462188,0.270208 m 0.462188,-0.270208 -0.0881,0.627293 0.250913,0.490554 m 0.369638,-1.775118 0.361216,0.651074 m -0.198455,-1.776835 1.209196,0.979741 0.520994,1.215514 -0.07189,0.70599 -0.362751,0.450047 m 0.434642,-1.156037 0.8811,0.633836 0.293447,0.46309 m -0.293447,-0.46309 0.74895,0.157823 0.498607,0.36427 m -2.649651,-2.371443 1.04624,0.349343 0.522865,0.766071 -0.05785,0.775202 -0.389687,0.56882 -0.539144,0.181276 m 0.986678,-1.525298 0.56852,0.216949 m -1.091385,-0.98302 0.858644,-0.04104 0.56107,0.250728 m -0.56107,-0.250728 0.654949,-0.276532 0.554798,0.168231 m -5.266331,-2.770848 2.013987,-0.413367 1.024001,0.553359 0.415133,0.563625 0.477643,0.305992 m -0.892776,-0.869617 0.903067,0.128062 0.56954,0.503093 0.522361,0.08652 m -3.018969,-1.271033 0.821232,-0.7465 0.680511,-0.24187 m -0.680511,0.24187 0.111348,-0.59814 m -5.169975,0.91942 1.283914,-1.360751 1.538473,-0.443157 1.099503,0.371285 0.421881,0.466885 m -0.421881,-0.466885 0.873703,-0.203393 0.568768,0.272127 m -2.541974,-0.440019 0.791888,-0.607119 0.678689,-0.07548 0.417482,-0.39391 m -1.096171,0.469388 0.314085,-0.68859 m -2.644446,1.738866 0.330225,-0.875548 0.432834,-0.340801 m -0.432834,0.340801 -0.126356,-0.7899 0.31213,-0.614696 m -4.915647,4.720849 0.626616,-2.031201 0.906658,-0.842949 0.726016,-0.130631 m -0.726016,0.130631 0.351035,-0.720479 0.502098,-0.316602 0.313922,-0.426942 m -0.81602,0.743544 0.01947,-0.582346 m -1.277166,2.145774 -0.421188,-1.232051 0.173614,-0.89378 -0.18251,-0.506702 m 0.0089,1.400482 -0.742904,-0.871198 -0.221706,-0.805434 m 0.221706,0.805434 -0.778958,-0.167245 m -6.25169,9.064193 1.464556,-4.255015 1.910759,-1.627297 1.472115,-0.181386 1.200295,0.510436 0.533939,0.848406 0.09524,0.808266 -0.258641,0.653311 m 0.258641,-0.653311 0.348518,0.48798 m -0.443762,-1.296246 0.502353,0.265235 m -1.036292,-1.113641 0.651513,-0.109753 0.485276,-0.290626 m -2.337084,-0.110057 0.837456,-0.721063 0.683458,-0.182233 m -0.683458,0.182233 0.172698,-0.80378 0.441324,-0.568448 m -0.441324,0.568448 -0.169473,-0.67073 m -2.312796,2.376959 0.618072,-1.721576 0.768088,-0.572924 0.626055,-0.186287 m -1.394143,0.759211 -0.47132,-1.564745 0.260547,-0.832148 0.455114,-0.503149 m -0.455114,0.503149 -0.238562,-0.667833 m -0.02199,1.499981 -0.753077,-0.556605 -0.358252,-0.549152 m 0.358252,0.549152 -0.767634,0.03099 -0.626617,-0.271104 -0.585911,0.109362 m 0.675728,5.600975 -0.370521,-3.57992 1.010232,-1.816126 0.972233,-0.829476 1.098968,-0.12652 0.564015,0.146385 m -0.564015,-0.146385 0.510649,-0.53705 0.585857,-0.1271 m -0.585857,0.1271 0.08447,-0.632784 m -1.694083,1.296354 0.33405,-0.86645 m -1.306283,1.695926 -0.153286,-1.589734 0.399786,-0.908665 0.401816,-0.38435 m -0.401816,0.38435 -0.08463,-0.649037 0.165121,-0.531257 m -0.480277,2.088959 -0.700485,-1.007073 0.02944,-0.63977 m -0.02944,0.63977 -0.589289,-0.292149 -0.310377,-0.49476 m 0.743205,5.199842 -2.186482,-2.275737 -0.346007,-1.618023 0.490448,-1.314467 0.757654,-0.540397 0.679307,0.04513 m -0.679307,-0.04513 0.277661,-0.573068 -0.02142,-0.541877 m -1.013894,1.655342 -0.0024,-0.756371 0.371945,-0.500242 0.124708,-0.532815 m -0.984654,3.103895 -0.953199,-0.783576 -0.2127,-0.79218 0.240192,-0.596736 -0.01208,-0.55016 m -0.228108,1.146896 -0.489558,-0.443225 m 0.702258,1.235405 -0.781721,-0.127038 -0.570659,0.14115 m 2.651586,2.387487 -2.099793,-0.731848 -1.144313,-1.622745 -0.125121,-1.585478 0.266186,-0.816776 0.554559,-0.483551 0.588021,-0.05806 m -1.408766,1.358389 -0.460808,-0.669172 -0.07204,-0.663008 0.285147,-0.449804 m -0.285147,0.449804 -0.362592,-0.413769 m 1.020564,3.331427 -1.05437,-0.413029 -0.533963,-0.535603 -0.273658,-0.622959 -0.006,-0.599058 m 0.006,0.599058 -0.424757,-0.383988 m 0.698415,1.006947 -0.618567,-0.24535 -0.288783,-0.462775 m 0.288783,0.462775 -0.532909,0.08347 m 1.685439,0.697487 -0.698908,0.08515 -0.54845,-0.26186 m 0.54845,0.26186 -0.473781,0.30213 m 3.371372,1.648491 -1.453494,0.0281 -0.860041,-0.437317 -0.285981,-0.53372 m 1.146022,0.971037 -0.642281,0.447035 -0.331788,0.601938 -0.507857,0.311293 m -4.469062,16.299982 2.464206,-5.843823 3.118791,-2.329988 2.759448,-0.317562 1.9773,0.973689 0.95373,1.417262 0.313667,1.490574 -0.356431,1.323198 -0.626954,0.806879 -0.560352,0.143979 m 0.560352,-0.143979 -0.130891,0.753382 -0.34606,0.454401 m 1.103905,-2.014662 0.245638,0.818047 -0.256223,0.68833 m 0.367016,-2.829575 0.727903,0.694721 0.165276,0.563686 m -0.165276,-0.563686 0.876215,0.132175 0.622344,-0.198961 m -2.540129,-2.118509 0.882051,0.602093 0.335091,0.502093 m -0.335091,-0.502093 0.75387,-0.02195 0.550301,0.202451 m -0.550301,-0.202451 0.41789,-0.370673 m -3.007541,-1.626735 1.545172,-0.07594 0.846742,0.608714 0.451222,0.695906 0.0059,0.549688 m -0.0059,-0.549688 0.536952,0.303895 m -0.988174,-0.999801 0.821501,-0.06127 0.542949,0.334365 m -0.542949,-0.334365 0.575846,-0.431798 0.551474,-0.03605 m -2.795563,-0.0796 1.138541,-0.686549 0.811779,-0.08283 0.638065,0.28956 0.348922,0.487 m -1.798766,-0.693732 0.483152,-0.660853 0.654102,-0.201598 0.555144,0.134432 m -1.209246,0.06717 -0.04125,-0.697341 -0.372434,-0.426963 m -4.730481,1.573956 1.143649,-1.167856 1.087081,-0.27657 0.864799,0.341884 0.371557,0.448465 m -0.371557,-0.448465 0.655052,-0.0077 m -1.519851,-0.334224 0.529949,-0.426299 0.546607,-0.0187 m -2.163637,0.721571 0.480659,-1.183366 0.6002,-0.36995 m -0.6002,0.36995 -0.205704,-0.884478 0.291565,-0.623929 0.414841,-0.340926 m -0.414841,0.340926 -0.0324,-0.596659 m -0.259167,1.220588 -0.45931,-0.549693 m -3.718742,4.102955 1.07619,-2.059906 1.02905,-0.651583 0.840437,-0.138064 0.529286,-0.399928 0.224457,-0.505178 m -1.59418,1.04317 0.432982,-0.84174 0.629647,-0.368573 0.557675,-0.08113 m -1.187322,0.449698 0.02939,-0.562642 m -1.491425,2.055965 -0.04268,-1.565587 0.493879,-1.04678 0.608234,-0.548707 0.143109,-0.524038 m -0.751343,1.072745 -0.09252,-1.001526 0.262945,-0.637487 -0.1227,-0.589134 M 67.62354,65.421935 67.279762,64.747084 66.766007,64.318329 66.20096,64.157857 m 1.021223,3.312384 -0.722807,-0.852724 -0.02741,-0.945223 0.314591,-0.492214 M 66.471963,65.672294 66.052016,64.974621 66.0025,64.30456 m 0.04952,0.670061 -0.478144,-0.297119 m 0.925504,1.940015 -0.712899,-0.289758 -0.427041,-0.540661 m 0.427041,0.540661 -0.544011,0.02806 m -2.172587,7.069906 -0.286083,-5.553203 1.501299,-4.578862 2.272734,-2.034797 1.781058,-0.06014 1.504923,0.529882 0.750777,0.765398 0.211164,0.75256 -0.208611,0.625236 m 0.208611,-0.625236 0.436655,0.394123 m -0.647819,-1.146683 0.79436,0.362616 0.324871,0.590891 0.535702,0.223129 m -0.860573,-0.81402 0.582939,-0.139437 m -2.128076,-0.988577 1.224459,-0.286331 0.734684,0.153614 m -0.734684,-0.153614 0.57444,-0.451217 0.261743,-0.484894 m -3.565565,0.69256 1.105649,-0.9876 1.300112,-0.04558 1.042082,0.357642 0.356613,0.574155 -0.05165,0.531996 m -0.30496,-1.106151 0.798776,-0.0972 0.463893,-0.407867 m -2.304751,0.147424 0.853134,-0.663818 0.894661,-0.24358 0.527263,0.148855 m -0.527263,-0.148855 0.590499,-0.421883 m -1.48516,0.665463 0.248611,-0.636839 0.47786,-0.294383 m -2.879717,1.640625 0.296413,-0.773862 0.522124,-0.291071 m -0.522124,0.291071 -0.08512,-0.710329 -0.344299,-0.493861 m -2.753701,3.025788 1.034092,-2.507771 1.206263,-0.796085 0.830834,-0.140761 m -0.830834,0.140761 0.393979,-0.9142 0.728274,-0.418787 0.721417,0.07103 m -1.449691,0.34776 -0.02427,-0.874641 0.484282,-0.618012 0.546516,-0.144595 m -0.546516,0.144595 0.111792,-0.612286 m -0.596074,1.230298 -0.276254,-0.564249 m -1.299722,3.149175 -0.304463,-1.950676 0.348521,-1.469646 0.634957,-0.643247 0.677104,-0.285685 0.542263,0.154973 m -0.542263,-0.154973 0.336025,-0.533776 0.519388,-0.170808 m -1.532517,0.990269 0.168491,-0.611247 m -0.803448,1.254494 -0.15866,-0.99522 0.322824,-0.649008 0.427136,-0.314335 m -0.74996,0.963343 -0.369034,-0.419672 m 0.179173,2.884538 -0.791356,-0.867584 -0.06146,-0.765613 m 0.06146,0.765613 -0.713371,-0.236831 m -1.497636,7.597659 -0.427998,-3.46228 1.578037,-2.587592 1.966058,-0.852891 1.517389,-0.03996 0.932479,0.439693 0.874197,-0.03382 0.587039,0.295171 0.332095,0.44207 m -0.919134,-0.737241 0.459289,-0.355536 m -2.265965,-0.05034 0.932722,-0.656395 0.97536,-0.173349 0.66301,0.258905 0.350275,0.397709 m -0.350275,-0.397709 0.559428,-0.159578 m -1.222438,-0.09933 0.368056,-0.395802 m -1.343416,0.569151 0.394839,-0.68235 0.533337,-0.408717 m -0.533337,0.408717 -0.08217,-0.579216 m -2.762781,1.957922 0.888967,-1.476871 0.808662,-0.426467 0.785683,0.03995 0.619648,0.264423 0.577823,-0.03209 m -1.197471,-0.232336 0.485122,-0.328405 m -2.079467,0.714926 0.235299,-1.416461 0.652427,-0.605613 0.605693,-0.120411 m -1.25812,0.726024 -0.324787,-0.693155 -0.0023,-0.639939 m 0.0023,0.639939 -0.452257,-0.443474 -0.538285,-0.170717 m -1.774995,5.053569 0.258652,-2.135102 0.59412,-0.948955 0.613441,-0.36714 0.54059,-0.01403 m -1.154031,0.381165 0.042,-0.664827 m -0.636125,1.613782 -0.55415,-1.455422 0.265107,-1.348644 0.567153,-0.656705 0.547494,-0.209475 m -0.547494,0.209475 0.203697,-0.661563 -0.130795,-0.605994 m -0.640055,1.924262 -0.279375,-0.772577 0.06456,-0.668606 m -0.06456,0.668606 -0.546243,-0.47398 m 0.560511,2.595201 -0.973258,-0.614469 -0.332687,-0.626539 -0.479562,-0.289407 m 0.812249,0.915946 -0.818762,-0.01429 -0.553339,0.226953 m 1.06282,6.579926 -0.854965,-1.65003 0.157106,-0.997538 0.381388,-0.515264 M 63.159238,57.183809 63.0379,56.59555 m -0.03577,1.585797 -1.241003,-0.684001 -0.467905,-0.799268 -0.597502,-0.455129 -0.160415,-0.608836 m 0.160415,0.608836 -0.618779,-0.183722 -0.303461,-0.444854 m 1.987647,1.882973 -1.000302,-0.155182 -0.432224,-0.454374 m 0.432224,0.454374 -0.600244,0.354078 -0.548744,0.0311 m 0.548744,-0.0311 -0.240135,0.48406 m 2.863348,9.692217 -2.618959,-2.962942 -0.977468,-3.267095 0.326441,-1.897131 0.958706,-1.043655 0.849681,-0.153681 0.580621,0.108124 m -0.580621,-0.108124 0.470042,-0.383774 m -1.319723,0.537455 0.129994,-0.769861 m -1.0887,1.813516 -0.528811,-1.240198 0.107817,-1.026871 0.268014,-0.511063 m -0.268014,0.511063 -0.323771,-0.637874 m 0.215954,1.664745 -0.555023,-0.591782 -0.172213,-0.67362 m 0.172213,0.67362 -0.501628,-0.23759 m 1.259021,3.966701 -1.426261,-1.001176 -0.502756,-1.318775 0.122005,-0.733847 m -0.122005,0.733847 -0.676182,-0.624606 -0.526938,-0.05549 m 1.705876,1.998875 -1.100158,-0.106556 -0.764691,-0.412831 -0.323634,-0.527034 m 0.323634,0.527034 -0.767781,0.125799 -0.55108,0.318381 m 2.083552,-0.03135 -0.679157,0.447567 -0.339821,0.525653 m 4.522865,3.401607 -2.397915,-0.704926 -1.069426,-1.489159 -0.124648,-1.122201 0.22895,-0.705103 0.379907,-0.407632 m -0.379907,0.407632 -0.20399,-0.567716 m -0.02496,1.272819 -0.422839,-0.679663 m 0.547487,1.801864 -1.045597,-0.373267 -0.511049,-0.785591 -0.14818,-0.648741 -0.434472,-0.411902 M 55.14085,61.556634 54.561804,61.165269 54.355066,60.6652 m 0.206738,0.500069 -0.592304,-0.05412 m 1.682399,1.23108 -0.665265,0.1217 -0.555734,-0.123603 m 3.336022,1.864329 -2.224842,0.279498 -1.573076,-0.912439 -0.769839,-0.960733 -0.183904,-0.588353 m 0.183904,0.588353 -0.758428,-0.287409 -0.438646,-0.38119 m 0.438646,0.38119 -0.535168,0.02236 m 2.063435,1.225782 -1.066035,-0.142962 -0.682392,-0.383178 m 0.682392,0.383178 -0.850431,0.236902 -0.441073,0.563267 -0.562399,0.216153 m 0.562399,-0.216153 -0.03958,0.565924 m 3.970199,-0.310692 -1.087456,0.993037 -1.008642,0.14502 -0.767987,-0.262699 m 0.767987,0.262699 -0.605149,0.348149 -0.328762,0.436915 m 1.942553,-0.930084 -0.466673,0.914812 -0.536673,0.376449 m 0.536673,-0.376449 0.05455,0.61831 -0.171957,0.51133 m -1.323372,19.141139 -1.355408,-8.019207 2.763609,-6.649006 4.230925,-3.887953 3.94973,-0.548349 3.484244,0.752437 2.460505,1.75346 0.729578,1.512164 0.08171,0.898706 -0.173767,0.601607 0.143547,0.544173 m 0.03022,-1.14578 0.402816,0.508618 0.524715,0.112826 m -1.009242,-1.52015 0.967345,0.608901 0.380989,0.614068 m -0.380989,-0.614068 0.625006,0.08326 m -2.321929,-2.20433 2.638935,0.443759 1.63418,1.311948 0.423396,1.053734 -0.242252,0.838284 -0.440274,0.309442 m 0.440274,-0.309442 0.230169,0.705214 -0.138986,0.564847 m 0.138986,-0.564847 0.465911,0.331928 m -0.453828,-1.875426 0.54108,0.578405 0.171881,0.622221 m -0.171881,-0.622221 0.647313,0.167165 m -1.611789,-1.799304 1.117389,0.124565 0.70757,0.696751 0.07803,0.604126 m -0.07803,-0.604126 0.635557,0.111171 m -1.343127,-0.807922 0.759473,-0.492236 0.583662,-0.0671 m -0.583662,0.0671 0.330583,-0.525402 m -3.841625,-0.418875 2.114281,-0.994118 1.699095,0.149666 0.962301,0.910433 0.415194,1.102665 -0.138984,0.859006 -0.414511,0.379065 m 0.414511,-0.379065 0.336257,0.64285 0.03866,0.642621 -0.20098,0.498753 m -0.03495,-2.64323 0.578088,0.326878 m -0.993282,-1.429543 0.784392,0.250073 m -1.746693,-1.160506 0.797733,-0.356416 0.548956,0.142223 m -0.548956,-0.142223 0.39655,-0.580255 0.453989,-0.288713 m -3.347367,1.075718 0.95276,-1.730679 0.822337,-0.642748 0.821904,-0.0621 0.677808,0.264536 0.373008,0.413103 m -1.050816,-0.677639 0.530018,-0.429505 0.545658,-0.02141 m -0.545658,0.02141 0.163851,-0.559373 m -1.515773,1.050976 0.217151,-0.899161 0.409089,-0.586331 0.01233,-0.581934 m -1.460909,2.710174 -0.127309,-1.426856 0.278066,-1.004417 0.460658,-0.340882 M 73.937507,65.351848 73.820985,64.6525 73.3574,64.23034 m 0.302041,2.125925 -0.631038,-0.877132 -0.183181,-0.664095 0.224403,-0.532759 m -0.224403,0.532759 -0.427355,-0.407223 -0.501486,-0.171094 m 1.112022,1.242412 -0.700545,-0.30632 -0.321299,-0.475609 m -6.38629,3.613495 2.130178,-0.591544 1.477095,0.33748 1.07985,0.747844 0.258953,0.769468 m -0.258953,-0.769468 0.983911,-0.08625 0.567005,0.390487 0.279906,0.484397 m -0.846911,-0.874884 0.539649,-0.355435 m -2.60341,-0.30616 0.96162,-0.471441 0.773654,-0.03979 0.591597,0.181526 m -1.365251,-0.141736 0.346669,-0.605764 m -2.785384,0.739725 1.204731,-1.31344 1.407584,-0.424547 1.270057,0.142644 0.660911,0.673159 0.318104,0.730187 m -0.979015,-1.403346 0.745085,-0.3555 0.561851,0.07207 m -0.561851,-0.07207 0.37867,-0.633262 -0.06577,-0.59765 m -2.328038,1.443768 0.523316,-0.608289 0.152312,-0.511946 m -2.083212,1.544782 0.27529,-1.475469 0.817303,-0.696839 0.511889,-0.172524 m -0.511889,0.172524 0.219669,-0.718749 0.413052,-0.483473 m -1.450024,1.899061 -0.443276,-0.828248 -0.04857,-0.736396 -0.360088,-0.552279 m -6.242505,4.744939 1.722204,-1.452814 1.390931,-0.133449 0.857854,0.443175 0.355326,0.520139 m -1.21318,-0.963314 1.111408,-0.558184 0.751278,0.164512 0.377951,0.457292 m -1.129229,-0.621804 0.292112,-0.664347 0.458761,-0.359796 m -3.253212,1.715776 0.657146,-1.639195 0.707887,-0.662395 0.707512,-0.248577 0.279517,-0.467216 m -0.987029,0.715793 0.243438,-0.519319 m -0.951325,1.181714 -0.202645,-1.024044 0.146627,-0.642832 m -0.146627,0.642832 -0.646824,-0.568253 -0.105222,-0.522624 m -5.374389,5.755279 1.583549,-3.10286 2.196055,-1.283995 1.361256,-0.08629 0.953473,0.442569 0.372707,0.622492 m -0.372707,-0.622492 0.801257,-0.133126 0.639271,0.290141 0.305404,0.437617 m -0.305404,-0.437617 0.593692,-0.0127 M 65.081885,63.942904 65.54901,63.60264 m -2.221855,0.03082 0.685317,-0.355848 0.627203,0.134068 m -2.673776,0.308075 0.726006,-1.325059 0.990069,-0.80727 1.059096,-0.01205 0.63052,0.438647 0.179154,0.627631 m -0.179154,-0.627631 0.682063,-0.0078 m -1.312583,-0.430833 0.762238,-0.376696 0.323673,-0.515459 m -2.145007,0.904207 0.273937,-0.914972 0.424642,-0.549565 0.543588,-0.141466 m -0.543588,0.141466 0.120144,-0.533109 m -0.544786,1.082674 -0.12033,-0.717606 0.179144,-0.540535 m -1.32282,2.980383 0.01854,-1.229799 0.531759,-0.76646 0.650699,-0.344949 m -0.650699,0.344949 0.0689,-0.669774 m -0.600656,1.436234 -0.3864,-0.593568 m -2.5542,4.432421 -0.153593,-1.942332 0.436978,-1.187381 0.811102,-0.568804 0.768619,-0.08562 0.448124,0.294267 M 61.63295,61.219618 62.067471,60.87882 m -2.014242,0.995218 -0.02714,-0.977585 0.486792,-0.62413 0.04105,-0.548754 m -0.527842,1.172884 -0.39265,-0.730005 -0.03658,-0.713973 m 0.01939,3.608944 -0.432274,-0.888684 0.01745,-0.609948 m -0.01745,0.609948 -0.722248,-0.431685 -0.223827,-0.556957 m 0.223827,0.556957 -0.676766,0.03753 m -3.829593,10.215986 -1.230886,-4.364329 0.736999,-2.574653 1.785621,-1.443833 1.63532,-0.04375 1.332768,0.619222 0.478914,0.809974 0.666653,0.299859 0.346906,0.454006 m -0.346906,-0.454006 0.628666,0.03465 m -1.774233,-1.144486 1.218323,-0.152474 0.650648,0.150859 0.474718,0.31659 m -1.125366,-0.467449 0.821323,-0.619634 0.797326,-0.0311 0.505395,0.187399 m -0.505395,-0.187399 0.466038,-0.259157 m -1.263364,0.290257 0.202065,-0.778052 -0.212529,-0.522949 m -3.36195,1.453887 1.116963,-0.839385 0.825426,0.03161 0.563461,0.239148 m -1.388887,-0.270755 0.312165,-1.011533 0.637109,-0.466294 0.652373,-0.0224 m -0.652373,0.0224 0.314302,-0.607135 0.426386,-0.353202 m -0.426386,0.353202 0.03297,-0.612681 -0.304111,-0.437671 m -0.680269,2.123781 -0.136077,-0.654625 m -2.928371,2.549291 0.361029,-1.812622 0.578674,-0.944338 0.693767,-0.406951 m -0.693767,0.406951 0.01683,-0.970779 0.402771,-0.7122 0.655565,-0.293302 0.521535,0.114197 m -0.521535,-0.114197 0.325995,-0.507379 m -0.98156,0.800681 0.05604,-0.694964 m -0.458812,1.407164 -0.321893,-0.761228 0.197637,-0.646751 -0.159674,-0.568453 m -0.311572,3.891549 -0.458712,-1.31467 0.128378,-0.92838 0.353059,-0.498721 0.498723,-0.184059 m -0.851782,0.68278 -0.266179,-0.622806 m 0.137801,1.551186 -0.676435,-0.628473 -0.528765,-0.0716 m -0.482738,5.271203 -0.716956,-2.03249 0.01778,-1.364979 0.438553,-0.726793 0.616222,-0.33059 0.587298,-0.03681 m -0.587298,0.03681 0.240875,-0.502895 m -0.857097,0.833485 -0.08065,-0.68667 m -0.357903,1.413463 -0.381566,-1.064551 0.268998,-0.77653 -0.09118,-0.653412 -0.284176,-0.482585 m 0.106356,1.912527 -0.595719,-0.607447 -0.05433,-0.628075 m 1.013834,3.665052 -0.858319,-0.767378 -0.14386,-0.580173 m 0.14386,0.580173 -0.829414,-0.26115 -0.395398,-0.561084 m 0.395398,0.561084 -0.712606,0.177435 -0.639141,-0.07352 -0.393858,-0.397713 m 1.032999,0.471236 -0.429928,0.329574 m 2.810224,5.128662 -2.343295,-3.099188 -0.07092,-3.236325 1.482334,-2.068191 1.607295,-0.860268 1.637206,-0.05507 1.068727,0.481663 0.37006,0.713007 0.02073,0.634912 -0.312161,0.430346 m 0.291436,-1.065258 0.490638,0.30824 m -0.860698,-1.021247 1.013367,-0.134418 0.629554,0.292788 0.322772,0.425891 m -0.322772,-0.425891 0.594707,0.0077 m -1.224261,-0.300468 0.468381,-0.332905 m -2.550475,-0.01434 1.000105,-0.706477 0.710073,-0.128773 m -0.710073,0.128773 0.233971,-0.68138 0.433039,-0.476014 0.497626,-0.194249 m -0.930665,0.670263 -0.181135,-0.605172 -0.430073,-0.349253 m -2.260074,2.397353 0.860423,-1.042811 1.132571,-0.348078 0.832389,0.334781 0.359063,0.460113 m -0.359063,-0.460113 0.620531,-0.190379 m -1.45292,-0.144402 0.564921,-0.544958 0.566939,-0.230851 m -0.566939,0.230851 0.07766,-0.546133 m -1.775147,1.439169 0.06023,-1.129226 0.300548,-0.584791 0.024,-0.578156 m -0.324544,1.162947 -0.55823,-0.751518 0.02252,-0.549118 m -0.02252,0.549118 -0.558952,-0.269407 m -1.410766,4.05323 0.06239,-1.338237 0.510352,-0.729099 0.116473,-0.551811 m -0.626825,1.28091 -0.609243,-0.938269 0.0054,-0.915087 m -0.0054,0.915087 -0.813407,-0.582382 -0.257423,-0.68913 m 0.257423,0.68913 -0.596585,-0.103035 m 0.47451,5.030114 -0.756164,-1.54469 -0.132465,-1.522231 0.616624,-1.114865 0.962034,-0.471109 0.608742,0.109444 m -0.608742,-0.109444 0.527778,-0.662503 0.629268,-0.31862 0.350137,-0.408381 m -0.979405,0.727001 0.03849,-0.697203 m -1.528305,1.830815 0.102333,-0.775771 -0.294522,-0.471989 m -0.424435,2.362625 -0.593078,-1.002072 -0.112341,-0.710121 0.259901,-0.561539 m -0.259901,0.561539 -0.324441,-0.491126 m 0.436782,1.201247 -0.929496,-0.479512 -0.287095,-0.654584 m 0.287095,0.654584 -0.6677,0.09056 m 2.322739,2.913257 -0.900575,-0.598676 -0.464168,-0.837314 0.08615,-0.687806 0.276371,-0.505093 m 0.101651,2.030213 -0.94774,0.103816 -0.698399,0.442396 -0.599731,-0.01494 m 0.599731,0.01494 -0.351592,0.50339 m 3.725387,4.330089 -2.087126,-1.036207 -0.987337,-1.162564 -0.214017,-1.34072 0.515489,-1.035818 0.505659,-0.341519 m -0.505659,0.341519 -0.140229,-0.831338 0.279241,-0.663768 0.368354,-0.388635 m -0.647595,1.052403 -0.51598,-0.504104 -0.172113,-0.516659 m 0.172113,0.516659 -0.599851,-0.193778 m 0.740571,2.565038 -0.5728,-0.956548 -0.0017,-0.769138 -0.41533,-0.549573 m 0.417043,1.318711 -0.651204,-0.481663 -0.68737,-0.05936 -0.543003,-0.285677 m 2.668394,3.123966 -1.20413,-0.322079 -0.584031,-0.595675 -0.128892,-0.642853 m 0.128892,0.642853 -0.625863,-0.247257 -0.311387,-0.434028 m 1.521281,1.27696 -1.021341,0.267139 -0.7519,-0.17712 m 0.7519,0.17712 -0.515883,0.401964 m 3.728691,0.81554 -1.395665,0.320901 -0.820313,-0.105531 -0.53827,-0.42663 m 1.358583,0.532161 -0.76544,0.744816 -0.869495,0.344928 -0.527989,-0.05679 m 1.397484,-0.288142 -0.186751,0.690481 -0.431582,0.332489 m 0.431582,-0.332489 0.200066,0.607081 m 5.045488,12.785451 -4.120515,-5.772639 -0.277215,-4.903518 1.635506,-3.08343 2.207659,-1.849876 2.101783,-0.333454 1.701227,0.616675 1.04821,1.138075 0.401782,0.985868 -0.02741,0.609061 m 0.02741,-0.609061 0.620807,0.622122 0.240895,0.62644 0.417589,0.33637 m -0.658484,-0.96281 0.738486,0.23846 0.412086,0.480499 m -2.173161,-2.326949 0.880865,0.327351 0.38944,0.449401 m -0.38944,-0.449401 0.80018,-0.249259 0.610454,0.142248 0.414651,0.356795 m -3.75436,-1.71521 1.317301,-0.383728 0.761849,0.07333 0.460634,0.418396 m -0.460634,-0.418396 0.599659,-0.323119 0.262472,-0.552746 m -1.62398,0.802531 0.727513,-0.663604 0.553455,-0.132324 m -0.553455,0.132324 0.359926,-0.728138 0.47733,-0.338541 m -0.47733,0.338541 -0.02253,-0.562403 m -4.083436,1.721198 1.105883,-1.243112 0.825187,-0.233953 0.71666,0.08089 m -0.71666,-0.08089 0.470034,-0.54433 0.09374,-0.563094 m -1.388962,1.341377 0.33337,-1.290011 0.625146,-0.602471 0.628175,-0.188622 m -0.628175,0.188622 0.211207,-0.566754 m -0.836353,1.169225 -0.138124,-0.6726 m -3.402912,3.539177 0.547758,-1.779893 0.785624,-0.865329 0.768348,-0.37684 0.325218,-0.483985 m -1.093566,0.860825 0.218255,-0.556041 m -1.003879,1.42137 -0.268722,-1.508096 0.599535,-1.203213 0.607516,-0.317502 m -0.607516,0.317502 -0.09164,-1.03546 0.310499,-0.520556 m -0.310499,0.520556 -0.421308,-0.512065 -0.528227,-0.134721 m 0.441641,2.885459 -0.635048,-0.956796 -0.04827,-0.619332 0.23453,-0.505488 m -0.186257,1.12482 -0.483853,-0.343985 m -1.367794,6.438646 -0.01872,-2.112232 0.480272,-1.237028 0.560289,-0.383511 0.185727,-0.582095 m -0.746016,0.965606 -0.118963,-1.108595 0.271043,-0.815318 0.461421,-0.404488 m -0.461421,0.404488 -0.196022,-0.646204 -0.473518,-0.310145 m 0.398497,1.771667 -0.470201,-0.476271 -0.04615,-0.535669 m 0.155039,3.357563 -1.081403,-1.496322 -0.308161,-1.146271 0.153383,-0.888928 -0.268827,-0.551142 -0.03144,-0.541837 m 0.146883,1.981907 -0.732378,-0.520264 -0.248689,-0.47081 m 0.248689,0.47081 -0.687307,-0.06127 -0.474793,-0.248098 m 0.474793,0.248098 -0.486229,0.280937 m 2.214075,1.446864 -1.228507,-0.465814 -0.743102,-0.767874 -0.069,-0.562502 m 0.069,0.562502 -0.620299,-0.0817 m 1.363401,0.849574 -0.949277,0.09261 -0.716067,-0.204688 m 0.716067,0.204688 -0.768292,0.380073 -0.721988,0.02702 m 0.721988,-0.02702 -0.360879,0.439606 m 2.771575,6.245511 -1.69385,-3.62974 0.628681,-3.063657 1.501929,-1.216711 1.486177,-0.200554 1.175926,0.330203 0.527493,0.711206 -0.0094,0.786469 m 0.0094,-0.786469 0.575098,0.176115 m -1.102591,-0.887321 0.940478,-0.184311 0.583286,0.199158 m -0.583286,-0.199158 0.674994,-0.482527 0.235436,-0.532834 m -3.026834,0.869469 0.722604,-0.669668 0.235102,-0.686544 -0.06825,-0.586858 m -2.375633,2.143624 0.66898,-1.345216 0.82105,-0.472273 0.683218,-0.07332 0.493516,-0.250271 m -1.176734,0.323586 0.30053,-0.485847 m -1.12158,0.95812 0.06811,-0.851157 -0.188988,-0.633825 m -2.050027,4.046909 -0.313367,-1.892847 0.534486,-1.393588 0.816191,-0.525373 0.565013,0.02506 m -0.565013,-0.02506 0.316762,-0.476083 m -1.132953,1.001456 -0.03058,-1.0876 0.302953,-0.503562 m -0.302953,0.503562 -0.559152,-0.669356 -0.551929,-0.218402 m 0.607172,3.368946 -0.858618,-1.211457 -0.24205,-1.300336 0.32865,-1.030719 0.711374,-0.578707 0.759972,-0.246526 0.64614,0.08037 0.487882,-0.226245 m -1.134022,0.145872 0.444426,-0.365443 m -1.204398,0.611969 0.305871,-0.72303 0.01981,-0.618887 m -1.037052,1.920624 -0.08778,-0.543051 m -0.240868,1.57377 -0.564026,-0.814574 0.02377,-0.80276 0.29774,-0.444177 m -0.321506,1.246937 -0.542476,-0.36593 m 1.348552,2.48084 -1.018444,-0.681251 -0.404446,-0.715682 m 0.404446,0.715682 -0.680121,-0.06386 -0.467747,0.309354 m 2.709616,6.603716 -1.98289,-1.168952 -0.452162,-1.153961 0.244053,-0.948398 0.489638,-0.427994 m -0.489638,0.427994 -0.103666,-0.616105 m -0.140387,1.564503 -0.671311,-0.373746 -0.226159,-0.510013 m 0.226159,0.510013 -0.537087,-0.06279 m 1.66056,1.590498 -1.272265,0.0096 -0.576333,-0.317323 m 0.576333,0.317323 -0.6092,0.513972 -0.670288,0.206394 -0.565912,-0.153237 m 7.07162,9.125481 -5.077141,-3.270039 -2.177196,-3.009103 -0.03209,-3.11316 0.701815,-1.676261 1.332913,-0.748458 1.11604,0.115155 0.805345,0.580547 0.303906,0.826506 m -0.303906,-0.826506 0.84898,0.0378 0.430657,0.309051 m -0.430657,-0.309051 0.652103,-0.319337 0.559312,0.133591 m -0.559312,-0.133591 0.328316,-0.528925 m -2.634744,0.229911 0.520038,-0.259503 m -1.636078,0.144348 0.375355,-0.899994 0.554141,-0.454249 0.175772,-0.528928 m -0.729913,0.983177 -0.121804,-0.616007 m -1.586464,2.264459 -0.122832,-1.048767 0.185587,-0.620073 m -0.185587,0.620073 -0.288961,-0.493017 m -0.290022,3.218045 -0.773709,-1.620541 0.283193,-1.358212 0.442958,-0.613722 0.02133,-0.578755 m -0.464289,1.192477 -0.319436,-0.912157 0.241121,-0.820676 0.353634,-0.412289 m -0.594755,1.232965 -0.552408,-0.590965 m 0.588651,2.861334 -0.825027,-0.536068 -0.402538,-0.650578 0.0015,-0.570158 m 0.400991,1.220736 -0.541368,-0.108146 m 2.172195,5.377915 -1.656518,-1.048541 -0.482565,-0.972049 0.02655,-0.782087 m -0.02655,0.782087 -0.611267,-0.423031 -0.284973,-0.536703 m 1.378805,1.931783 -1.163926,-0.150468 -0.525697,-0.305462 m 0.525697,0.305462 -0.642155,0.281317 -0.55237,-0.126517 m 6.192165,4.053312 -3.428625,-0.29331 -2.10456,-1.86559 -0.671775,-1.739148 0.426441,-1.355556 0.826697,-0.568946 0.895456,-0.0075 0.424267,-0.32497 m -1.319723,0.332495 0.380463,-0.699971 0.489073,-0.274674 m -1.696233,1.543591 -0.266751,-0.68845 0.130342,-0.529139 m -0.130342,0.529139 -0.411322,-0.354567 m 0.251632,2.398573 -1.266354,-0.779124 -0.515908,-1.025339 0.06716,-1.008028 0.335456,-0.581079 0.551125,-0.224823 m -0.551125,0.224823 0.07143,-0.565852 M 34.074044,62.890353 33.900081,62.304 m 0.106802,1.594381 -0.628723,-0.365115 -0.32381,-0.481765 m 0.32381,0.481765 -0.609219,0.0083 m 1.75385,1.382128 -0.818673,0.03244 -0.556338,-0.254951 -0.533922,-0.01747 m 1.09026,0.272417 -0.484503,0.285158 m 3.241305,2.200672 -2.231125,-0.652241 -1.325903,-1.314253 -0.339132,-1.410685 0.114849,-0.81778 0.41437,-0.375175 m -0.529219,1.192955 -0.521915,-0.538198 -0.102116,-0.623101 0.113534,-0.550039 m 0.849629,3.122023 -1.230018,-0.526973 -0.479955,-0.508996 m 0.479955,0.508996 -0.733038,0.0021 -0.498256,-0.207391 m 3.787215,2.046524 -1.431349,0.149043 -0.812556,-0.251876 -0.446987,-0.483091 m 0.446987,0.483091 -0.597615,0.05422 m 1.410171,0.197659 -0.785207,0.492111 -0.545599,0.03938 m 0.545599,-0.03938 -0.404394,0.64365 -0.0096,0.594214 m 6.966224,0.638813 -1.574141,0.812128 -1.511192,0.126506 -0.835508,-0.35235 -0.585833,-0.544109 -0.135819,-0.655447 m 0.721652,1.199556 -0.564639,0.02382 m 1.400147,0.328528 -0.938423,0.518154 -0.539127,0.04168 m 0.539127,-0.04168 -0.358323,0.885637 -0.440186,0.432276 m 0.440186,-0.432276 -0.01879,0.713411 m 2.826725,-2.243708 -0.807382,0.972271 -0.715861,0.275365 -0.395028,0.54893 m 1.110889,-0.824295 -0.306764,0.890998 -0.555295,0.527886 -0.605096,0.09982 m 0.605096,-0.09982 -0.09905,0.663911 m 0.654341,-1.191797 0.0966,0.735355 0.355347,0.422325 m 2.734093,37.399121 -4.82085,-12.427626 3.053789,-11.364573 7.41233,-5.527808 7.565311,-0.235042 4.055986,2.868669 1.439875,2.68752 0.256792,1.886777 -0.482966,1.232756 -0.864342,0.72791 -0.764396,0.09757 -0.581474,-0.198754 m 0.581474,0.198754 -0.438679,0.420944 m 1.203075,-0.51851 -0.237706,0.915448 -0.392722,0.408502 m 0.392722,-0.408502 0.24905,0.683087 0.422648,0.499322 m 0.43035,-2.825767 0.0014,0.742906 m 0.481585,-1.975662 0.790071,0.760824 0.09875,0.725075 m -0.09875,-0.725075 0.551514,0.244186 m -1.598377,-2.891787 1.885089,0.812464 0.823293,0.910421 0.218601,0.662779 0.351572,0.419211 m -0.570173,-1.08199 0.995086,0.343193 0.535259,0.727801 0.163134,0.589716 m -0.163134,-0.589716 0.711038,0.354843 m -1.246297,-1.082644 0.715349,-0.160348 0.619295,0.115402 0.549381,-0.118771 m -3.702404,-1.089897 1.414031,-0.158275 0.649353,0.320736 0.349301,0.419537 m -0.998654,-0.740273 0.73858,-0.566921 0.662992,-0.189446 0.312541,-0.457644 m -0.975533,0.64709 0.336992,-0.630138 -0.08998,-0.529599 m -5.724582,-1.615051 3.931497,1.00188 2.32355,1.977288 0.379537,1.61064 -0.182,1.172018 -0.455851,0.462358 m 0.455851,-0.462358 0.165652,0.693593 -0.238129,0.50281 m 0.254477,-2.368421 1.095956,0.986048 0.438087,1.083545 -0.223229,0.771809 -0.46673,0.374175 m 0.46673,-0.374175 0.200198,0.599931 -0.119809,0.525258 m 0.14284,-1.896998 0.586524,0.355642 m -1.024611,-1.439187 1.280493,0.09873 0.936194,0.553465 0.221242,0.568915 m -0.221242,-0.568915 0.731803,-0.06359 0.524091,0.229103 m -0.524091,-0.229103 0.394266,-0.358988 m -2.062263,-0.130887 0.874209,-0.515965 0.657283,-0.07477 m -0.657283,0.07477 0.40349,-0.721852 -0.103931,-0.559064 m -3.929754,-0.898539 2.014266,0.687414 0.716329,0.974618 -0.01293,1.013114 -0.209985,0.551319 m 0.209985,-0.551319 0.3304,0.82953 -0.05074,0.718244 0.185642,0.610579 m -0.134897,-1.328823 0.437739,0.376535 m -0.755206,-2.219179 0.533763,0.342624 m -1.250092,-1.317242 1.85924,-0.07464 1.123048,0.822658 0.307819,0.937578 -0.08717,0.529333 m 0.08717,-0.529333 0.50412,0.326964 m -0.811939,-1.264542 1.053801,0.271195 0.632289,0.632451 0.169423,0.706948 m -0.169423,-0.706948 0.71394,0.09104 0.458853,-0.279338 m -1.805082,-0.444157 0.930563,-0.204725 0.612375,0.295792 0.343336,0.426042 m -0.955711,-0.721834 0.534809,-0.612318 0.602441,-0.317026 m -4.244662,0.04022 1.358701,-0.770453 1.08298,-0.07792 0.517029,0.274703 m -0.517029,-0.274703 0.561406,-0.537609 0.637239,-0.271422 m -0.637239,0.271422 0.131467,-0.535991 m -1.775853,1.151517 0.821673,-1.060024 0.75489,-0.281922 0.558091,0.0091 m -0.558091,-0.0091 0.317222,-0.442206 m -1.072112,0.724128 -0.008,-0.849383 0.332088,-0.422188 m -8.701512,0.511987 3.102012,-1.313036 2.854923,0.412411 1.564715,1.505213 0.30476,1.38987 -0.222662,1.115246 -0.539528,0.577525 -0.586819,0.143396 m 0.586819,-0.143396 -0.208548,0.506483 m 0.748076,-1.084008 0.210063,0.694783 -0.158622,0.602294 m 0.158622,-0.602294 0.391928,0.377653 m -0.379329,-2.187682 0.635354,0.868764 0.09842,0.673896 m -0.09842,-0.673896 0.675088,0.264599 0.535566,-0.01505 m -2.150768,-2.508184 1.331129,0.268877 0.836439,0.558837 0.191832,0.64452 -0.189796,0.552171 m -0.002,-1.196691 0.700593,0.03703 0.491114,0.249067 m -2.028146,-0.844931 1.141555,-0.433387 0.915518,0.05853 0.665067,0.374573 m -0.665067,-0.374573 0.562785,-0.303608 0.56305,-0.02152 m -2.041353,0.266598 0.707059,-0.630368 0.793052,-0.302809 0.601409,0.13479 m -0.601409,-0.13479 0.353732,-0.428704 m -1.146784,0.731513 0.101265,-0.537169 m -4.845723,-0.173166 1.765418,-0.48355 1.505759,0.171344 0.954239,0.870517 0.212675,1.023169 -0.178602,0.51094 m 0.178602,-0.51094 0.365558,0.469099 m -0.578233,-1.492268 1.023612,0.09713 0.502382,0.426665 m -0.502382,-0.426665 0.635283,-0.282535 0.547826,-0.0063 m -0.547826,0.0063 0.379717,-0.455015 m -2.992851,-0.230095 0.97731,-0.290335 0.708052,0.147648 0.480639,0.327782 m -1.188691,-0.47543 0.383062,-0.484156 m -2.866131,0.603147 0.619867,-0.843497 0.750025,-0.39249 0.353983,-0.601314 0.05367,-0.582808 m -1.157683,1.576612 0.11536,-0.534601 m -5.355568,1.449237 1.114035,-1.432651 1.325999,-0.389055 1.105745,0.457242 0.37564,0.515641 m -0.37564,-0.515641 0.883566,-0.01699 0.530418,0.26845 m -0.530418,-0.26845 0.499563,-0.395455 m -2.488874,-0.0448 0.535515,-0.677472 0.520198,-0.257745 m -2.381712,1.324272 0.147517,-1.104991 0.334205,-0.589521 m -0.334205,0.589521 -0.180572,-0.697981 m -12.170475,0.67811 4.325084,-2.072022 3.15851,-0.159016 2.060095,1.3439 0.949127,1.746613 0.08527,1.578498 -0.318971,0.747988 -0.480628,0.427251 m 0.480628,-0.427251 -0.03017,0.714865 0.308498,0.522533 m 0.04065,-1.985386 0.411554,0.71949 -0.07885,0.610932 m -0.417974,-2.90892 1.280803,0.717316 0.507121,0.748994 -0.0065,0.628912 m 0.0065,-0.628912 0.58002,0.309445 0.565148,0.04448 m -1.652289,-1.102916 0.786206,0.04645 0.533016,0.294662 m -0.533016,-0.294662 0.550797,-0.38365 0.591836,-0.02437 m -4.158769,-2.102353 1.404797,0.0053 0.636541,0.518805 m -0.636541,-0.518805 0.992508,-0.421307 0.867836,-0.0292 0.521312,-0.259663 m -1.389148,0.288865 0.511385,-0.77162 0.609089,-0.386021 0.63334,-0.001 0.495137,0.227052 m -1.128477,-0.226022 0.173021,-0.514769 m -0.78211,0.90079 0.04092,-0.56001 m -5.009702,0.403736 1.944701,-1.290943 1.835566,-0.03183 0.98651,0.611419 0.221853,0.669313 m -0.221853,-0.669313 0.766633,-0.102181 0.543421,0.146188 m -0.543421,-0.146188 0.542891,-0.398141 0.150586,-0.569971 m -2.44662,0.458874 0.887991,-0.668175 0.92769,-0.139435 0.68137,0.179963 m -0.68137,-0.179963 0.590719,-0.360217 m -1.518409,0.499652 0.499675,-0.85222 0.476005,-0.316826 m -0.476005,0.316826 -0.08148,-0.77344 0.218512,-0.570952 m -3.360266,2.896614 0.870568,-1.233452 0.852823,-0.26939 0.747818,0.221838 0.464802,0.403944 m -0.464802,-0.403944 0.623825,-0.180965 m -1.371643,-0.04087 0.384643,-0.521492 m -1.237466,0.790882 -0.08271,-1.346347 0.316185,-0.656831 0.392291,-0.361058 m -0.392291,0.361058 -0.09534,-0.582456 m -0.220841,1.239287 -0.449068,-0.728345 -0.528351,-0.183835 m -4.913654,4.941938 1.523222,-3.181152 2.373405,-1.307627 2.068018,0.16737 1.168584,1.083059 0.370042,1.277307 -0.373455,1.110472 -0.609868,0.572548 -0.107197,0.527989 m 0.717065,-1.100537 0.222065,0.699092 0.431886,0.460983 m -0.280496,-2.270547 0.741408,0.505171 0.279525,0.539161 m -0.279525,-0.539161 0.67044,-0.05219 0.541026,0.238606 m -2.322916,-1.968894 1.222457,0.324745 0.822436,0.641402 0.354351,0.848691 0.507368,0.39242 m -0.861719,-1.241111 0.530487,0.05467 m -1.352923,-0.696073 1.08796,-0.216245 0.774133,0.307099 0.43485,0.444077 m -0.43485,-0.444077 0.712801,-0.07788 0.369665,-0.383749 m -1.856599,0.154531 0.721966,-0.502639 0.696247,-0.01934 0.497136,-0.198297 m -5.39435,-0.471284 1.562134,-0.945084 1.353654,0.148486 0.670631,0.39047 0.547045,-0.04451 m -1.217676,-0.345961 1.023036,-0.322407 0.733165,0.134126 0.454355,0.492646 0.587703,0.134961 m -1.775223,-0.761733 0.409954,-0.382219 m -2.786644,0.55614 0.715279,-1.009465 0.830429,-0.480811 0.826918,0.09566 0.518758,-0.219479 m -1.345676,0.123816 0.409084,-0.526357 m -1.239513,1.007168 -0.0018,-1.111711 0.262048,-0.554681 m -0.262048,0.554681 -0.255587,-0.677879 0.06868,-0.572095 m -0.06868,0.572095 -0.499514,-0.283522 m -3.588495,3.860291 0.740408,-1.780575 0.80591,-0.556612 0.867838,-0.01584 0.462784,0.33018 m -0.462784,-0.33018 0.543579,-0.31213 0.239003,-0.491536 m -1.65042,0.819503 0.2029,-0.687281 0.432978,-0.406734 m -0.432978,0.406734 -0.23195,-0.578959 m -0.77686,1.822852 -0.31545,-1.040353 0.187358,-0.919378 0.391932,-0.597284 0.551338,-0.226587 m -0.94327,0.823871 -0.28349,-0.759383 0.145108,-0.555344 m -0.145108,0.555344 -0.377875,-0.372134 m 0.474007,2.050895 -0.439376,-0.488276 m -2.358987,4.616831 -0.469259,-2.213075 0.58067,-1.813316 0.991353,-0.844987 0.799453,-0.161386 m -0.799453,0.161386 0.222735,-0.878951 0.568065,-0.465053 0.559967,-0.01909 m -0.559967,0.01909 0.20206,-0.493777 m -0.770125,0.95883 -0.131165,-0.641808 m -1.082923,2.365746 -0.380626,-1.378278 0.172008,-1.213456 0.537062,-0.713418 0.612905,-0.195509 m -0.612905,0.195509 0.184299,-0.710567 0.523086,-0.388507 m -1.244447,1.812492 -0.464842,-0.775264 -0.534487,-0.360733 m 0.827321,2.349453 -0.482271,-0.667496 -0.02521,-0.557798 m 0.02521,0.557798 -0.550335,-0.366166 m 0.832562,4.225256 -1.546249,-1.323218 -0.327491,-1.530185 0.386312,-0.776049 0.624378,-0.274528 m -1.01069,1.050577 -0.611094,-0.911974 -0.177532,-0.844314 0.104033,-0.701733 m -0.104033,0.701733 -0.584135,-0.461718 -0.242411,-0.507526 m 1.004078,1.813558 -0.713847,-0.232444 m 1.652432,2.674603 -1.201479,-0.05315 -0.775859,-0.365992 -0.413896,-0.485818 m 1.189755,0.85181 -0.600268,0.229399 m -9.596362,8.848261 2.818095,-4.60193 3.042264,-1.362327 2.322681,0.180648 1.149831,0.672037 0.422398,0.681037 -0.05985,0.639246 m 0.05985,-0.639246 0.470683,0.3257 m -0.893081,-1.006737 0.798892,-0.09496 0.459501,0.283508 m -0.459501,-0.283508 0.531764,-0.376715 m -2.480487,-0.200366 1.333681,-0.599535 0.815377,-0.05029 m -0.815377,0.05029 0.377436,-0.727083 0.480961,-0.432259 m -0.480961,0.432259 0.04455,-0.588015 m -4.078347,1.733985 1.196108,-1.520287 1.126009,-0.576924 0.652286,-0.06611 m -0.652286,0.06611 0.344999,-0.817688 0.01138,-0.79758 0.252179,-0.471743 m -1.734566,2.663935 0.303374,-1.236132 0.804048,-0.741825 0.747215,-0.168359 0.64123,0.143586 0.426865,0.391124 m -0.426865,-0.391124 0.526616,-0.263149 m -1.167846,0.119563 0.439186,-0.334187 m -1.186401,0.502546 0.348384,-0.870051 0.618718,-0.483676 0.678054,-0.182813 0.450249,-0.344357 m -1.128303,0.52717 0.234894,-0.519845 m -0.853612,1.003521 -0.168298,-0.517019 m -0.984134,2.128895 -0.237479,-0.613978 m -4.304267,4.732724 -0.05733,-3.902246 1.613889,-2.309456 1.195898,-0.779834 1.058369,0.12287 0.658824,0.520624 0.135333,0.653927 m -0.135333,-0.653927 0.701393,0.114304 0.483866,-0.219653 m -1.844083,-0.415275 0.702386,-0.226475 m -1.760755,0.103605 0.450525,-0.874189 0.549484,-0.435726 m -0.549484,0.435726 0.0091,-0.575061 m -1.655542,2.229084 -0.19983,-2.380609 0.581899,-1.649961 0.817844,-0.713743 0.874583,-0.05499 0.504288,-0.339992 m -1.378871,0.394978 0.351703,-0.717611 0.574333,-0.311088 0.348481,-0.43843 m -2.092361,2.180872 -0.152262,-1.107825 0.348256,-0.590208 0.442629,-0.34561 m -0.790885,0.935818 -0.441232,-0.785891 0.06731,-0.573806 m -0.06731,0.573806 -0.585995,-0.390248 m 0.59759,3.933925 -0.902696,-1.460522 0.06201,-1.4793 0.75962,-1.076652 0.937812,-0.40909 0.896304,-0.03743 m -0.896304,0.03743 0.353181,-0.409216 m -1.290993,0.818306 -0.02462,-0.937454 -0.238817,-0.514791 m -0.496187,2.528897 -0.447265,-0.781808 0.03477,-0.746275 -0.19924,-0.52329 m 0.164473,1.269565 -0.432076,-0.322725 m 0.817335,2.583833 -0.882057,-0.665984 -0.170878,-0.710257 m 0.170878,0.710257 -0.70217,0.0039 m 1.072864,6.812634 -1.332259,-3.043182 -0.02417,-1.691901 0.550728,-1.135427 0.626918,-0.445586 m -0.626918,0.445586 -0.07748,-0.771202 0.294612,-0.50623 m -0.767862,2.412859 -0.778009,-1.092313 -0.07249,-1.141987 0.343258,-0.840059 0.394827,-0.422055 m -0.394827,0.422055 -0.02513,-0.667716 m -0.318133,1.507775 -0.344982,-0.547619 -0.545911,-0.197802 m 0.963383,1.887408 -0.634354,-0.273067 m 1.436531,3.057281 -2.266723,-1.575121 -1.347961,-1.932733 -0.304627,-1.339549 0.230734,-0.87956 0.365583,-0.525303 m -0.365583,0.525303 -0.195225,-0.727846 m -0.03551,1.607406 -0.888332,-0.712743 -0.308641,-0.81685 0.06744,-0.670957 0.348178,-0.447322 M 41.32936,64.112269 40.348473,63.93081 39.620871,63.478454 m 0.727602,0.452356 -0.741323,0.297621 -0.614452,-0.194895 -0.341449,-0.462363 m 3.87107,2.593388 -1.823809,-0.580195 -0.837032,-0.719723 -0.202421,-0.621093 m 0.202421,0.621093 -0.827276,-0.244324 -0.362106,-0.472743 m 0.362106,0.472743 -0.701005,0.172196 m 2.365313,0.791851 -1.676159,0.227922 -1.006681,-0.350698 -0.542121,-0.711738 0.01093,-0.532168 m -0.01093,0.532168 -0.521593,-0.24302 m 1.063714,0.954758 -0.666575,0.205043 -0.423007,0.369063 m 2.096263,-0.223408 -1.10274,0.93446 -1.152092,0.338962 -0.972086,-0.193158 -0.550014,-0.643891 -0.164194,-0.560008 m 0.164194,0.560008 -0.679746,-0.212777 -0.405283,-0.431345 m 0.405283,0.431345 -0.54859,0.07597 m 1.77835,0.780694 -0.769618,0.390669 -0.56024,0.02 m 0.56024,-0.02 -0.407424,0.659315 -0.575037,0.38972 -0.591409,0.0401 m 1.166446,-0.429822 0.08722,0.64295 m 2.061903,-1.499776 -0.395337,0.578292 -0.456473,0.269723 m 2.003902,-1.186977 -0.224222,1.183551 -0.488622,0.563319 -0.565293,0.276998 -0.352161,0.419593 m 0.917454,-0.696591 -0.224282,0.609961 m 0.712904,-1.17328 0.297746,0.661431 -0.138235,0.627356 -0.417924,0.334295 m 0.417924,-0.334295 0.263458,0.51333 m -0.125223,-1.140686 0.416232,0.372081 m 5.460913,-0.866517 -1.857168,-0.280202 -0.765438,-0.55575 -0.167648,-0.523856 m 0.167648,0.523856 -0.694127,-0.121288 m 1.459565,0.677038 -1.132469,0.637328 -0.911949,-0.03905 -0.732936,-0.304836 -0.354166,-0.515559 m 0.354166,0.515559 -0.578013,0.145278 m 2.222898,0.198611 -0.330179,0.67984 -0.521814,0.314204 m 0.521814,-0.314204 0.04928,0.658292 m -3.303572,16.955029 -3.724541,-9.387472 -0.0341,-6.519536 1.784261,-3.330652 2.464905,-2.145281 1.991616,-0.460176 1.367053,0.581459 0.720715,0.979341 0.0208,0.757353 -0.188579,0.505424 m 0.188579,-0.505424 0.385692,0.470183 m -0.406492,-1.227536 0.964448,0.269545 0.409777,0.541543 m -0.409777,-0.541543 0.72123,-0.114679 0.53498,0.111643 m -2.941373,-1.24585 1.161239,-0.282341 0.939178,0.215806 0.467654,0.345283 m -0.467654,-0.345283 0.567075,-0.198581 m -1.506253,-0.01722 0.701395,-0.592039 0.568264,-0.197557 0.412952,-0.346339 m -4.210903,0.836817 1.275929,-1.317897 1.304548,-0.147114 0.930256,0.299486 0.390074,0.369699 m -0.390074,-0.369699 0.835054,-0.03974 0.468938,0.27065 M 44.1241,63.699202 44.611045,63.30414 m -2.252255,0.135313 0.545807,-0.408382 0.584861,-2.05e-4 m -2.435216,0.555701 0.219249,-0.948627 0.354638,-0.490357 m -0.354638,0.490357 -0.09995,-0.675629 -0.366179,-0.408997 m -3.020666,3.811326 0.531399,-2.345782 1.562914,-1.462913 1.110827,-0.09725 0.874944,0.45141 0.461996,0.613938 0.537665,0.130917 m -0.999661,-0.744855 0.654162,-0.02389 0.473599,0.272878 m -0.473599,-0.272878 0.415962,-0.348007 m -1.945068,-0.07951 0.62938,-0.564356 0.568971,-0.102794 m -2.309178,0.764396 0.548526,-1.253998 0.869071,-0.82568 0.842492,-0.102463 0.536417,-0.323806 m -1.378909,0.426269 0.278143,-0.662039 0.431709,-0.450539 m -1.578923,1.938258 0.01634,-0.863767 0.384785,-0.564798 0.01439,-0.561407 m -0.399178,1.126205 -0.296457,-0.601436 0.09382,-0.574437 m -0.09382,0.574437 -0.499047,-0.247715 m -1.332276,4.429829 -0.496417,-2.054215 0.316503,-1.856757 0.813903,-0.719149 0.862059,-0.303496 0.559795,0.06338 m -1.421854,0.240118 0.27028,-0.516085 m -1.084183,1.235234 -0.437078,-0.884798 0.009,-0.546908 m -0.009,0.546908 -0.59134,-0.489985 -0.526978,-0.142958 m 1.238893,3.374498 -0.712539,-0.866774 -0.13158,-0.795002 0.130593,-0.671757 0.396336,-0.372902 m -0.526929,1.044659 -0.427117,-0.419984 m 0.558697,1.214986 -0.600692,-0.241667 m -1.186656,7.653719 0.341332,-3.171759 1.557162,-1.781635 1.335042,-0.33468 1.095792,0.180175 0.506496,0.337581 0.178278,0.515493 m -0.684774,-0.853074 0.936105,-0.246693 0.573532,0.245298 m -0.573532,-0.245298 0.36167,-0.392343 m -2.393567,0.458861 0.587062,-0.576979 0.534241,-0.177935 m -2.456345,1.089594 0.165696,-1.178577 0.469467,-0.754349 -0.0097,-0.749538 -0.312956,-0.472299 m -0.146788,1.976186 -0.459988,-0.791931 0.01555,-0.592835 m -0.01555,0.592835 -0.553097,-0.215225 m -0.709773,3.967368 -0.576335,-1.59368 0.09791,-1.379774 0.555744,-0.808524 0.549471,-0.180866 m -0.549471,0.180866 0.04012,-0.736815 m -0.595867,1.545339 -0.555654,-0.98548 0.02717,-0.60373 m -0.02717,0.60373 -0.74959,-0.375717 -0.404346,-0.445971 m 0.404346,0.445971 -0.624511,-0.02961 m 1.831848,2.770577 -1.069712,-0.913944 -0.334641,-0.900044 0.126876,-0.549366 m -0.126876,0.549366 -0.546648,-0.420632 -0.30747,-0.514375 m 1.188759,1.835051 -0.782644,-0.113669 -0.534702,-0.461335 m 0.534702,0.461335 -0.517816,0.251633 m 0.820914,8.872071 -2.390277,-3.040696 -0.137289,-3.339158 1.323194,-2.447731 1.522892,-1.150472 1.394954,-0.292326 0.774116,0.218422 m -0.774116,-0.218422 0.719656,-0.861401 0.892408,-0.311989 0.603387,0.203307 M 36.863069,59.3968 37.208725,58.842472 m -1.238064,0.866317 0.116448,-0.641478 0.349249,-0.415512 m -2.580307,2.210717 0.395236,-1.352724 0.455572,-0.599371 0.625529,-0.239107 m -1.081101,0.838478 -0.222874,-1.110614 0.322556,-0.628455 m -0.322556,0.628455 -0.432737,-0.373247 m -1.262517,3.987057 0.269238,-2.092888 0.547894,-0.907849 0.489976,-0.36008 m -0.489976,0.36008 0.06878,-0.780262 m -0.61667,1.688111 -0.468592,-1.380259 0.179318,-1.088299 0.431388,-0.415257 m -0.431388,0.415257 -0.332637,-0.712735 -0.502501,-0.400086 -0.568174,-0.09712 m 1.223994,2.29824 -0.560882,-0.494638 -0.560685,-0.164648 m -0.0023,6.580164 -1.509697,-1.865461 -0.214472,-1.782352 0.478651,-0.97014 0.573261,-0.386543 0.225894,-0.572352 m -0.799155,0.958895 0.07148,-0.904155 -0.346868,-0.547089 m -0.203264,2.421384 -0.940081,-1.286561 -0.228015,-1.159677 0.148956,-0.792579 0.435322,-0.449171 m -0.435322,0.449171 -0.147369,-0.549697 m -0.0016,1.342276 -0.466084,-0.533835 -0.509314,-0.210353 m 1.203413,1.903865 -1.252508,-0.674414 -0.499937,-1.170847 0.05346,-1.094076 0.552693,-0.60566 0.616373,-0.147445 m -1.169066,0.753105 -0.37492,-0.828127 0.07848,-0.68634 0.316399,-0.514273 m -0.394884,1.200613 -0.527864,-0.267999 m 0.849328,2.190202 -0.585864,-0.32489 -0.276808,-0.474638 m 1.362609,1.970375 -0.954312,-0.115276 -0.546499,-0.314038 -0.230145,-0.491443 m 0.776644,0.805481 -0.723693,0.299632 -0.57982,-0.0883 m 4.664886,3.64727 -1.32669,-0.399295 -0.978269,-0.772561 -0.51309,-0.843474 0.0085,-0.772972 -0.233738,-0.491141 m 0.22519,1.264113 -0.651474,-0.48782 -0.650459,-0.0223 m 1.815023,1.353597 -0.958131,-4.81e-4 -0.645222,-0.433487 -0.351753,-0.523635 m 0.996975,0.957122 -0.497378,0.399413 -0.259497,0.481586 m 2.693275,-0.107957 -0.654871,0.280819 -0.613217,-0.02831 -0.431158,-0.315769 m 0.431158,0.315769 -0.442543,0.307874 m 4.684307,5.043527 -1.934613,-0.6307 -0.952102,-0.912494 -0.132921,-0.700333 -0.383433,-0.376879 m 0.516354,1.077212 -1.085953,-0.182261 -0.583889,-0.429095 m 0.583889,0.429095 -0.886765,0.194723 -0.677649,-0.282769 m 0.677649,0.282769 -0.51945,0.457628 -0.222352,0.556417 m 3.666622,-0.114013 -1.103467,0.04307 -0.548784,-0.197314 m 0.548784,0.197314 -0.816616,0.495968 -0.741012,-0.02452 m 0.741012,0.02452 -0.416065,0.589552 m 6.695135,9.062344 -4.29185,-4.616789 -1.621643,-4.90062 0.306773,-4.120539 1.559166,-1.80526 1.413728,-0.277637 0.931382,0.498336 0.301257,0.617372 0.508991,0.341916 m -0.810248,-0.959288 0.642127,-0.08484 m -1.573509,-0.413492 0.810461,-0.729989 0.864165,-0.168139 0.698339,0.138774 0.605098,-0.129461 m -1.303437,-0.0093 0.427715,-0.431255 m -1.29188,0.599394 0.257659,-0.627076 m -2.481848,1.634702 0.26695,-1.363614 0.54309,-0.616406 0.585986,-0.223922 m -0.585986,0.223922 0.06742,-0.680045 0.375865,-0.459951 m -0.986372,1.756402 -0.303206,-1.179895 0.114223,-0.831448 -0.285975,-0.666272 m 0.171752,1.49772 -0.726492,-0.580099 -0.237672,-0.515399 m -0.558746,5.444267 -1.187738,-2.243839 -0.0059,-1.74441 0.657536,-1.162325 0.849254,-0.434976 0.730182,-0.07704 0.540264,0.316422 m -1.270446,-0.239383 0.456044,-0.525687 m -1.305298,0.960663 0.02401,-1.043193 0.31515,-0.766743 0.578313,-0.317869 m -0.578313,0.317869 0.0068,-0.553416 m -0.321917,1.320159 -0.344181,-0.659131 m -0.337366,2.864649 -0.488988,-0.851096 -0.119219,-0.751513 0.261629,-0.614774 0.457719,-0.323876 m -0.457719,0.323876 -0.109786,-0.524588 m -0.151843,1.139362 -0.271266,-0.480531 m 0.390485,1.232044 -0.643457,-0.333831 -0.575641,-0.01253 m 1.713976,2.941869 -1.716234,-1.198227 -0.834523,-1.638249 -0.08743,-1.043533 0.179199,-0.659071 0.422704,-0.42206 m -0.601903,1.081131 -0.491941,-0.764251 -0.114319,-0.573564 m 0.114319,0.573564 -0.635797,-0.240144 -0.586391,0.0864 m 1.801563,1.961523 -1.206532,-0.748997 -0.40619,-0.731625 -0.06343,-0.541651 m 0.06343,0.541651 -0.514178,-0.395909 -0.565833,-0.05006 m 1.486201,1.177593 -0.721096,-0.01009 -0.467882,-0.376056 m 3.230033,2.773397 -1.24374,-0.196985 -0.642146,-0.50061 -0.263823,-0.57945 -0.449169,-0.316015 m 1.355138,1.396075 -0.731886,0.340991 -0.370509,0.605607 -0.484799,0.316736 m 5.428133,6.496256 -2.418706,-1.654554 -0.945567,-1.536274 -0.119578,-1.249936 0.419368,-0.76814 0.553398,-0.254692 m -0.553398,0.254692 -0.0286,-0.726684 0.209068,-0.592481 m -0.209068,0.592481 -0.316674,-0.537939 m -0.07409,2.032763 -0.432807,-0.477873 -0.05843,-0.528295 m 0.610811,2.256104 -1.424436,-0.502576 -0.587778,-0.782451 -0.09344,-0.684332 0.118953,-0.529953 m -0.118953,0.529953 -0.296335,-0.468817 m 0.389776,1.153149 -0.544529,-0.133821 m 1.132307,0.916272 -0.983498,0.177305 m 3.353501,1.861545 -2.044303,-0.347071 -0.759626,-0.814298 -0.089,-0.741084 m 0.089,0.741084 -0.787321,-0.224978 -0.405236,-0.581742 m 1.952183,1.621018 -1.410407,0.528731 -0.853641,-0.276998 -0.380291,-0.581392 m 0.380291,0.581392 -0.557868,0.206607 m 1.411509,0.07039 -0.604072,1.039903 -0.676877,0.394618 -0.63868,0.102702 m 0.63868,-0.102702 -0.229005,0.556325 m 0.905882,-0.950943 0.0233,0.667713 -0.200501,0.545624 m 0.200501,-0.545624 0.284793,0.507979 m 7.791039,4.157919 -4.276378,-1.209407 -2.215307,-1.781466 -0.870109,-1.474159 -0.0735,-0.989584 0.332485,-0.513978 m -0.332485,0.513978 -0.484512,-0.680387 -0.02967,-0.54626 m 0.02967,0.54626 -0.661246,-0.234531 -0.353841,-0.433303 m 1.573101,2.337805 -1.383255,-0.492025 -0.742373,-0.617686 -0.297116,-0.599804 m 0.297116,0.599804 -0.613684,-0.188128 m 1.356057,0.805814 -0.759476,0.0097 -0.562609,-0.303546 m 0.562609,0.303546 -0.526886,0.260242 m 3.539726,1.696267 -1.864719,-0.478048 -1.135283,-0.927731 -0.217912,-0.757492 0.216661,-0.644268 0.396274,-0.404343 m -0.612935,1.048611 -0.433735,-0.527163 -0.02102,-0.600079 m 0.672666,1.884734 -1.101102,-0.0057 -0.596109,-0.350252 -0.601189,0.01272 m 1.197298,0.337534 -0.572707,0.338539 -0.548236,-0.02 m 0.548236,0.02 -0.297985,0.49614 m 3.107077,0.09875 -0.973996,0.186886 -0.539675,-0.280624 m 0.539675,0.280624 -0.555497,0.369891 m 5.609519,1.702737 -3.199459,0.489829 -1.75108,-0.359412 -1.097053,-0.730174 -0.2496,-0.839933 0.09877,-0.775919 0.341619,-0.526035 m -0.341619,0.526035 -0.354521,-0.586132 m 0.505354,2.201984 -1.049644,-0.22641 -0.540811,-0.690905 -0.104437,-0.712617 0.267041,-0.465941 m 0.378207,1.869463 -0.572306,0.165312 m 2.719003,0.791272 -1.369949,0.443498 -0.900728,-0.310501 -0.295365,-0.455922 m 0.295365,0.455922 -0.531281,0.158712 m 1.432009,0.151789 -0.699632,0.660277 -0.644907,0.260039 -0.295287,0.527451 m 0.940194,-0.78749 -0.134046,0.648258 m 3.954707,-1.392621 -2.145215,1.32828 -1.647635,-0.100803 -0.784778,-0.712012 -0.346325,-0.756939 -0.558821,-0.283403 m 0.905146,1.040342 -0.825598,-0.20412 -0.438689,-0.442742 -0.51368,-0.220711 m 2.562745,1.579585 -1.157255,0.479847 -1.008057,-0.16227 -0.425934,-0.471994 m 0.425934,0.471994 -0.537563,0.18194 m 1.54562,-0.01967 -0.670852,0.861174 -0.854824,0.244298 -0.546026,-0.234627 m 0.546026,0.234627 -0.554268,0.560434 m 1.409092,-0.804732 -0.04263,0.920865 -0.45498,0.604537 -0.59988,0.152367 -0.428106,0.334515 m 1.482966,-1.091419 0.373526,0.557085 m 3.144849,-2.718168 -0.964205,1.778435 -1.306643,0.791538 -0.87254,0.114333 -0.621819,-0.307712 -0.26347,-0.536221 m 0.885289,0.843933 -0.613687,0.398012 -0.314338,0.504709 m 1.800565,-1.017054 -0.762018,1.016739 -0.797461,0.211865 -0.565668,-0.216189 m 0.565668,0.216189 -0.438223,0.562467 M 16.62586,76.938734 16.456211,77.65 16.125005,78.098272 m 2.569516,-2.967815 0.07322,1.211766 -0.25348,0.638149 -0.464936,0.382888 m 0.464936,-0.382888 0.03065,0.584738 m 0.222832,-1.222887 0.381361,0.501525 m 15.093273,21.268406 -5.852399,-4.715676 -1.525817,-5.440755 1.934335,-4.642517 3.10367,-1.60854 2.100745,0.06466 1.369933,0.895451 0.582701,1.038241 -0.04675,0.811 m 0.04675,-0.811 0.629899,0.426083 0.205458,0.554286 m -0.205458,-0.554286 0.666009,0.06846 0.436491,0.377245 m -0.436491,-0.377245 0.535377,-0.242544 m -2.413986,-1.290243 0.946,0.116521 0.44636,0.474291 m -0.44636,-0.474291 0.823002,-0.230147 0.592472,0.246044 M 37.141849,82.55115 37.44513,82.115617 m -3.442216,-0.346292 1.136554,-0.642971 0.93762,0.09164 0.60188,0.375442 0.553981,0.03239 m -1.155861,-0.407832 0.531063,-0.164513 m -1.468683,0.07287 0.42291,-0.875846 0.62475,-0.29424 m -0.62475,0.29424 -0.0936,-0.540761 m -3.56661,1.994919 1.845342,-2.546151 1.567785,-0.882641 1.24007,-0.118887 0.657397,0.4228 0.215837,0.506194 m -0.215837,-0.506194 0.55599,-0.01309 m -1.213387,-0.409709 0.624322,-0.56708 0.622126,-0.241792 m -2.486518,0.927759 0.613859,-1.226243 0.888519,-0.775134 0.847957,-0.130146 0.566679,0.290709 0.537046,-0.0063 m -1.103725,-0.284385 0.538487,-0.326815 m -1.386444,0.456961 0.162937,-0.59218 m -1.051456,1.367314 0.122785,-1.094096 0.321889,-0.550901 m -0.321889,0.550901 -0.191198,-0.730792 m -2.113231,3.933772 0.07806,-1.824854 0.499023,-1.168435 0.606454,-0.484746 0.574547,-0.03249 m -1.181001,0.51724 -0.26453,-0.980397 0.209213,-0.576378 m -0.209213,0.576378 -0.462573,-0.482849 m 0.22808,2.631681 -0.334774,-0.905246 0.206804,-0.826887 0.508958,-0.52617 0.170043,-0.629782 m -0.679001,1.155952 -0.139818,-0.741087 0.154547,-0.543048 m -0.221533,2.111022 -0.481662,-0.370236 m -4.210633,7.255027 -0.433416,-3.144859 0.876353,-2.580229 1.662233,-1.430974 1.926241,-0.153584 0.905107,0.395645 0.345289,0.418924 m -0.345289,-0.418924 0.593196,-0.06918 m -1.498303,-0.326462 1.187266,-0.842298 0.943855,-0.150555 0.621802,0.271658 0.351327,0.430187 m -1.916984,-0.55129 0.428873,-0.771437 0.542291,-0.400558 0.569223,-0.114987 m -4.653894,2.282864 0.310827,-1.598666 0.877398,-1.112976 1.018119,-0.622891 1.01513,-0.130836 0.741561,0.180179 0.458968,0.393619 m -1.200529,-0.573798 0.465323,-0.44879 0.541868,-0.102214 m -2.022321,0.68184 0.614038,-0.793788 0.461285,-0.276938 m -0.461285,0.276938 0.05485,-0.719473 -0.263634,-0.495968 m -1.423375,2.63212 0.193057,-1.123099 0.411128,-0.487481 m -0.411128,0.487481 -0.319813,-0.820059 0.173752,-0.677335 m -0.173752,0.677335 -0.629362,-0.411254 -0.337777,-0.564435 -0.521943,-0.2268 m 0.73844,4.258623 -0.433064,-1.220401 0.0791,-0.660926 -0.209585,-0.530708 m 0.130487,1.191634 -0.987278,-0.594029 -0.242214,-0.617998 -0.49208,-0.285226 m 0.734294,0.903224 -0.817482,0.044 m 0.264764,4.800069 -0.586639,-1.526575 0.102796,-1.046372 0.456451,-0.545938 m -0.456451,0.545938 -0.38596,-0.724521 0.137399,-0.702338 -0.113699,-0.58344 m 0.259464,3.056671 -0.825035,-0.596752 -0.192329,-0.690591 0.210435,-0.605436 m -0.01811,1.296027 -0.544691,-0.151714 m 1.080012,4.85527 -1.586961,-1.511923 -0.126105,-1.124053 0.466266,-0.841589 0.643045,-0.292847 0.544279,0.142966 m -1.65359,0.99147 -0.531587,-0.566299 -0.602158,-0.294826 -0.328079,-0.47678 m 0.328079,0.47678 -0.532512,0.04794 m 1.792362,1.937238 -1.266734,-0.24376 -0.598229,-0.644306 -0.161577,-0.678804 0.126836,-0.5968 m -0.126836,0.5968 -0.44242,-0.41952 m 1.202226,1.74263 -0.586273,0.325188 -0.570778,-0.105052 m 2.509827,9.322923 -3.918303,-3.01855 -1.15574,-2.329126 0.256778,-1.305159 0.675172,-0.903368 0.755785,-0.193868 0.532447,0.221148 m -0.532447,-0.221148 0.397425,-0.467289 m -1.15321,0.661157 0.08222,-0.855339 0.316523,-0.431383 m -0.316523,0.431383 -0.2786,-0.614772 m -0.47879,2.373479 -0.492926,-0.934605 0.06576,-0.645713 m -0.06576,0.645713 -0.507554,-0.283615 m 0.743702,2.523379 -1.113553,-0.68493 -0.386032,-0.846514 0.164364,-0.724819 m -0.164364,0.724819 -0.658819,-0.437452 -0.66789,-0.04362 m 1.712741,1.327588 -0.969746,0.02207 -0.479294,-0.224547 m 0.479294,0.224547 -0.52935,0.363648 -0.530415,-0.04564 m 0.530415,0.04564 -0.293093,0.444962 m 4.061482,2.183373 -3.165872,-0.177063 -2.17814,-1.076786 -1.300621,-1.685076 -0.08616,-1.497565 0.591589,-1.211343 0.824343,-0.45322 0.582022,-0.07274 m -0.582022,0.07274 0.349385,-0.474097 m -1.173728,0.927317 -0.01826,-0.902158 0.215234,-0.545428 m -0.215234,0.545428 -0.221847,-0.570794 m -0.35148,2.684295 -0.502102,-0.739107 0.04068,-0.800912 0.361286,-0.549612 m -0.361286,0.549612 -0.213899,-0.55415 m 0.173223,1.355062 -0.635637,-0.249029 m 1.223897,2.485701 -1.554539,-0.850491 -0.466065,-0.858605 -0.0072,-0.709711 -0.348329,-0.416712 m 0.355483,1.126423 -0.439074,-0.304253 m 0.905139,1.162858 -1.413695,-0.211353 -0.679804,-0.65412 -0.327622,-0.728808 m 0.327622,0.728808 -0.577518,-0.06612 m 1.257322,0.72024 -0.97048,0.419567 -0.619491,-0.171183 m 0.619491,0.171183 -0.502934,0.764197 -0.541528,0.255974 m 0.541528,-0.255974 -0.07524,0.778025 -0.400482,0.474565 m 6.217987,0.310566 -2.002291,0.09785 -0.942872,-0.374382 -0.274358,-0.483732 m 0.274358,0.483732 -0.676175,0.06844 m 1.619047,0.305939 -1.201485,0.535511 -0.748756,-0.113945 -0.553195,0.261831 -0.544286,0.02482 m 1.846237,-0.172707 -0.629447,0.921403 -0.608325,0.237543 -0.566502,-0.04593 m 1.174827,-0.191609 -0.118511,0.839348 -0.345894,0.452991 m 6.475768,-1.770315 -1.584518,0.962018 -1.448241,0.02793 -0.975686,-0.596209 -0.393918,-0.843873 0.09504,-0.527853 m -0.09504,0.527853 -0.462019,-0.379704 m 0.855937,1.223577 -0.712952,-0.0504 -0.463547,-0.28249 m 2.152185,0.929101 -0.584073,0.454369 -0.538773,0.100097 m 2.571087,-0.582399 -0.461913,1.034807 -0.570263,0.429226 -0.213169,0.54532 m 0.783432,-0.974546 0.270282,0.979743 -0.228594,0.664335 0.206141,0.580912 m 0.02245,-1.245247 0.390733,0.486477 0.149902,0.525468 m -0.149902,-0.525468 0.517577,0.212519 m 9.477831,4.960804 -4.513367,-0.02482 -3.307637,-2.231629 -1.280513,-1.783568 -0.46394,-1.715672 0.353704,-1.120628 0.579041,-0.692768 m -0.579041,0.692768 -0.149905,-0.98805 0.372856,-0.623162 m -0.372856,0.623162 -0.371091,-0.514304 -0.0097,-0.536407 m 0.176986,3.159389 -0.712801,-0.555972 -0.621256,-0.159833 m 1.797997,2.431477 -1.189742,-0.583423 -0.743224,-0.859306 -0.281056,-0.941275 0.06135,-0.842991 0.292649,-0.52412 m -0.292649,0.52412 -0.267372,-0.556127 m 0.206026,1.399118 -0.411169,-0.47527 -0.543091,-0.09072 m 1.235316,1.507265 -0.931944,-0.300671 -0.390937,-0.511511 m 0.390937,0.511511 -0.682641,0.136553 -0.445415,0.333306 m 2.803224,0.690118 -0.799408,-0.07931 m 3.269663,2.4463 -3.244852,0.270416 -2.444122,-1.032638 -1.250112,-1.369555 -0.225305,-1.425332 0.31111,-0.732094 0.531061,-0.424631 m -0.842171,1.156725 -0.615904,-0.731279 -0.201395,-0.810009 m 0.201395,0.810009 -0.740805,-0.359863 m 1.582014,2.516474 -1.059763,-0.325102 -0.652251,-0.745553 -0.02369,-0.791709 -0.45101,-0.541122 m 0.474697,1.332831 -0.542051,-0.15405 m 1.194302,0.899603 -0.630063,0.22786 -0.359497,0.45279 m 3.299435,1.014007 -1.608722,0.313861 -1.323731,-0.217854 -0.733104,-0.524005 m 0.733104,0.524005 -0.996737,0.228382 -0.574171,-0.184042 m 0.574171,0.184042 -0.479898,0.314283 m 2.800366,-0.324811 -1.021988,0.806102 -0.735582,0.06401 -0.402401,0.356728 m 1.137983,-0.420742 -0.25238,0.602949 -0.392888,0.405429 m 5.7201,-1.095703 -1.548607,0.934018 -1.178506,0.0433 -0.721852,-0.283726 -0.386937,-0.483778 m 1.108789,0.767504 -0.473719,0.393884 -0.267244,0.463206 m 1.919469,-0.900394 -0.405852,0.938315 -0.503764,0.348613 m 0.503764,-0.348613 0.176313,0.687664 0.343244,0.417445 m 7.987391,-1.016229 -3.343848,1.238507 -3.14601,-0.07618 -2.032074,-1.346452 -0.932105,-1.458353 -0.07515,-1.469546 0.436558,-1.095074 0.490439,-0.443659 m -0.490439,0.443659 -0.109754,-0.821955 0.312532,-0.560755 m -0.312532,0.560755 -0.362548,-0.477588 -0.04936,-0.528475 m 0.0851,2.923092 -0.549134,-1.142183 0.147369,-0.733989 m -0.147369,0.733989 -0.56617,-0.453594 m 1.190457,3.065323 -1.211532,-0.656637 -0.414084,-0.799122 -0.04155,-0.726364 0.258151,-0.490448 m -0.258151,0.490448 -0.34896,-0.546709 m 0.390512,1.273073 -0.572384,-0.361459 m 0.986468,1.160581 -0.781176,0.119127 -0.673285,-0.162496 -0.571319,0.14263 m 1.244604,0.01987 -0.429556,0.313633 m 3.354369,1.68223 -2.072839,-0.04882 -0.940535,-0.597151 -0.253156,-0.780935 0.136389,-0.567244 m -0.136389,0.567244 -0.573766,-0.411294 m 0.826922,1.192229 -0.758412,0.06033 -0.613062,-0.22598 m 0.613062,0.22598 -0.533489,0.427399 -0.587965,0.07566 m 0.587965,-0.07566 -0.116578,0.525488 M 13.281843,93.138719 12.007805,93.824113 10.75149,93.746327 9.9460925,93.266004 9.7289202,92.751935 M 9.9460925,93.266004 9.2029202,93.222479 8.6318358,92.92183 m 2.1196542,0.824497 -0.595925,0.29048 -0.562262,-0.0036 m 0.562262,0.0036 -0.3646585,0.469269 m 2.2168985,-0.681963 -0.459876,0.880284 -0.634274,0.404114 -0.668776,0.02853 -0.5193207,-0.284776 m 1.1880967,0.256248 -0.368255,0.561891 m 1.002529,-0.966005 -0.03149,0.855775 0.346574,0.466726 m 5.52374,-1.492908 -1.679786,1.046643 -1.200137,-0.146853 -0.663408,-0.675863 -0.212023,-0.548868 m 0.212023,0.548868 -0.603899,-0.139356 -0.439197,-0.300373 m 1.706504,1.115592 -0.830251,0.255047 -0.481107,0.45121 m 2.511495,-0.559404 -0.535721,1.62629 -0.88909,1.070012 -0.723312,0.398384 -0.656996,0.0071 -0.490262,-0.285049 m 1.147258,0.27799 -0.286135,0.537518 m 1.009447,-0.935902 -0.182015,0.95322 -0.399613,0.578818 m 0.399613,-0.578818 0.155643,0.527591 m 0.915462,-2.550823 0.220652,1.202882 -0.437015,0.912254 -0.634557,0.456853 -0.624828,0.01677 m 1.259385,-0.473624 0.0654,0.61415 m 0.371617,-1.526404 0.406385,0.640578 -0.06473,0.557625 m 0.06473,-0.557625 0.506121,0.175567 m 4.228359,-4.615784 -1.932967,2.545599 -2.197753,0.513402 -1.683044,-0.501661 -0.74447,-0.844514 -0.08809,-0.829941 0.230195,-0.671326 m -0.230195,0.671326 -0.307692,-0.602162 -0.49555,-0.31561 m 0.891337,1.747713 -0.621913,-0.271467 -0.599018,0.04612 m 1.965401,1.069865 -1.229756,0.168734 -0.876232,-0.546634 -0.271681,-0.692155 0.131356,-0.568577 m 0.140325,1.260732 -0.574553,-0.06219 m 1.450785,0.608822 -0.818604,0.684788 -0.81392,0.269764 -0.537177,-0.100587 m 0.537177,0.100587 -0.366375,0.590466 m 1.180295,-0.86023 -0.232052,0.602999 m 3.963456,-0.95486 -0.886573,0.787824 -0.98728,0.361116 -0.816536,-0.09696 -0.458253,-0.293045 m 1.274789,0.39001 -0.61309,0.668974 -0.79416,0.185455 -0.694122,-0.09063 -0.39497,-0.377691 m 0.39497,0.377691 -0.542139,0.161573 m 1.236261,-0.07094 -0.492648,0.525434 -0.581438,0.1801 -0.510314,-0.14396 m 2.37856,-0.747029 -0.239879,0.714749 m 1.840249,-1.744839 -0.223521,0.64599 m 3.307847,-1.947216 -0.172501,1.984996 -1.12652,1.175349 -1.23003,0.48829 -0.810765,-0.11691 -0.495541,-0.38715 m 0.495541,0.38715 -0.532959,0.30794 m 1.343724,-0.19103 -0.418045,0.65213 m 1.648075,-1.14042 -0.257375,1.29961 -0.591715,0.62103 m 0.591715,-0.62103 0.523591,1.03953 0.0554,1.01002 -0.388379,0.62509 -0.435464,0.31423 m 0.435464,-0.31423 0.01154,0.60391 m 0.376843,-1.229 0.297117,0.63225 0.429887,0.32759 m -0.782404,-1.96986 0.550476,0.25289 0.523521,-0.0811 m -0.213693,-3.686329 0.681065,1.003609 0.09828,1.06321 -0.303657,0.6437 m 0.303657,-0.6437 0.472127,0.63542 0.162138,0.55869 m -0.162138,-0.55869 0.515389,0.14245 m -1.085798,-1.84108 0.883594,0.46649 0.358929,0.56985 0.0045,0.56367 m -0.363386,-1.13352 0.710108,0.0778 0.381806,0.36917 m -0.381806,-0.36917 0.515789,-0.2623"
     style="fill:none;fill-opacity:1;stroke:#000000;stroke-width:0.01;stroke-linecap:butt;stroke-linejoin:miter;stroke-opacity:1;stroke-dasharray:none"
     id="path11521" />
</svg>
